<svg width="14" height="14" viewBox="0 0 14 14" fill="none" xmlns="http://www.w3.org/2000/svg">
<path d="M13.0002 13H7.0002M2.99618 12.6434L3.10321 12.605C3.355 12.5147 3.48089 12.4695 3.59855 12.4087C3.70305 12.3547 3.80258 12.2916 3.89599 12.2201C4.00116 12.1397 4.09575 12.0451 4.28491 11.8559L12.5405 3.60047C13.1309 3.01005 13.1309 2.05278 12.5405 1.46235C11.95 0.871929 10.9928 0.871924 10.4024 1.46234L2.14639 9.7182C1.95737 9.90721 1.86287 10.0017 1.78244 10.1068C1.71101 10.2001 1.64794 10.2996 1.59397 10.404C1.53321 10.5215 1.48801 10.6473 1.39762 10.8989L1.35918 11.0059C1.06609 11.8215 0.919551 12.2294 1.01182 12.496C1.09203 12.7278 1.27416 12.91 1.50594 12.9903C1.77254 13.0826 2.18042 12.9362 2.99618 12.6434Z" stroke="#5A5758" stroke-width="1.33333" stroke-linecap="round" stroke-linejoin="round"/>
</svg>
