<svg width="18" height="21" viewBox="0 0 18 21" fill="none" xmlns="http://www.w3.org/2000/svg">
<path d="M17 9C17 13.9603 12.3412 17.7558 10.134 19.2757C9.79451 19.5095 9.62475 19.6264 9.35832 19.6919C9.1586 19.7411 8.8414 19.7411 8.64168 19.6919C8.37525 19.6264 8.20549 19.5095 7.86597 19.2757C5.6588 17.7558 1 13.9603 1 9C1 4.58172 4.58172 1 9 1C13.4183 1 17 4.58172 17 9Z" stroke="#E0214D" stroke-width="2" stroke-linecap="round" stroke-linejoin="round"/>
<path d="M11.5984 9.00006C11.5984 10.4351 10.4351 11.5985 9 11.5985C7.56492 11.5985 6.40155 10.4351 6.40155 9.00006C6.40155 7.56498 7.56492 6.40161 9 6.40161C10.4351 6.40161 11.5984 7.56498 11.5984 9.00006Z" stroke="#E0214D" stroke-width="2" stroke-linecap="round" stroke-linejoin="round"/>
</svg>
