<svg width="28" height="28" viewBox="0 0 28 28" fill="none" xmlns="http://www.w3.org/2000/svg">
<path d="M5.11865 2.02274C6.19359 1.4498 7.50059 1.49028 8.54248 2.14481L8.67139 2.23172C8.96954 2.44566 9.2669 2.74812 9.6792 3.16043L10.188 3.66922L10.5464 4.02859C10.8817 4.37129 11.1451 4.67432 11.3091 5.02664L11.3843 5.20438C11.5222 5.56506 11.5831 5.95064 11.562 6.33621L11.5444 6.52957C11.4959 6.91503 11.3371 7.28354 11.1226 7.71219L10.8911 8.16434L10.0542 9.79324C9.93282 10.0293 9.8885 10.1203 9.86572 10.1917L9.84814 10.261C9.83473 10.3262 9.83015 10.4994 9.84033 10.5647L9.85303 10.6341C9.86815 10.6982 9.89472 10.7589 9.97119 10.928L10.1499 11.303C10.624 12.2481 11.5108 13.6756 13.0845 15.2493C14.8444 17.0093 16.4223 17.9108 17.3462 18.3362L17.5913 18.4427C17.6447 18.4621 17.6814 18.4697 17.7368 18.4778L17.8989 18.4807C17.9618 18.4778 18.0246 18.4715 18.0591 18.4632L18.1323 18.4417C18.2073 18.4144 18.3033 18.3629 18.5493 18.221L20.0171 17.3743L20.4106 17.1477C20.7846 16.9368 21.1059 16.777 21.4429 16.7044L21.6772 16.6643C22.2254 16.595 22.7841 16.6924 23.2788 16.9466L23.4292 17.0315C23.7745 17.246 24.0851 17.5663 24.4819 17.9632L24.8394 18.3206C25.3109 18.7921 25.6389 19.1134 25.855 19.4573L25.978 19.6692C26.5125 20.6724 26.5125 21.8779 25.978 22.8811L25.855 23.093C25.6388 23.437 25.3109 23.7582 24.8394 24.2298C24.4682 24.6009 24.2169 24.852 23.8521 25.1389L23.4409 25.4436C22.5672 26.0576 21.2395 26.4976 19.9507 26.7327C18.7423 26.9531 17.4386 27.0171 16.4282 26.805L16.231 26.7591C15.7311 26.6305 15.5388 26.5756 15.396 26.5208L15.2603 26.4632C12.8388 25.3685 9.8807 23.6178 7.13135 20.8684C4.55373 18.2908 2.85393 15.5298 1.74951 13.1995L1.53662 12.7395C1.49481 12.6471 1.46433 12.5708 1.42236 12.4348L1.2417 11.7698C0.975717 10.7356 1.03204 9.3379 1.26709 8.0491C1.50216 6.76029 1.94218 5.43259 2.55615 4.55887L2.86084 4.14774C3.14775 3.78295 3.39888 3.53157 3.77002 3.16043L4.09814 2.83328C4.40356 2.53197 4.64879 2.30692 4.90674 2.14481L5.11865 2.02274Z" fill="#9DE539" stroke="#151314" stroke-width="1.5" stroke-linecap="round"/>
</svg>
