<svg width="238" height="64" viewBox="0 0 238 64" fill="none" xmlns="http://www.w3.org/2000/svg">
<path d="M29.4248 20.506C29.5113 20.5903 29.567 20.7015 29.582 20.8214L30.3525 26.962C30.398 27.3242 30.7858 27.5351 31.1143 27.3761L36.9463 24.548C37.0475 24.4989 37.1617 24.4833 37.2725 24.503L43.6533 25.6378C44.0128 25.7017 44.3292 25.3933 44.2744 25.0323L43.3457 18.9132C43.3276 18.7936 43.3507 18.6713 43.4111 18.5665L44.2764 17.0675H53.334C55.6903 17.0676 57.6006 18.9778 57.6006 21.3341V42.5001C57.6006 43.6316 57.1507 44.7166 56.3506 45.5167L45.5166 56.3507C44.7165 57.1508 43.6315 57.6006 42.5 57.6007H10.667C8.31065 57.6007 6.40046 55.6904 6.40039 53.3341V32.1681C6.40039 31.0365 6.85024 29.9507 7.65039 29.1505L18.4844 18.3165C19.2845 17.5166 20.3696 17.0675 21.501 17.0675H25.8916L29.4248 20.506ZM17.1943 30.8829C16.9404 30.6298 16.5143 30.6947 16.3467 31.0118L14.9619 33.63C14.9079 33.7322 14.8223 33.8142 14.7178 33.8634L12.0039 35.1407C11.6645 35.3005 11.5922 35.7515 11.8643 36.0099L13.9658 38.0069C14.0534 38.0902 14.1104 38.2007 14.127 38.3204L14.5205 41.1691C14.5704 41.5307 14.9606 41.7366 15.2871 41.5734L18.0039 40.214C18.1045 40.1637 18.2191 40.1468 18.3301 40.1651L21.3271 40.6603C21.6874 40.7198 21.9996 40.4082 21.9404 40.048L21.4746 37.2101C21.4551 37.0909 21.4762 36.9687 21.5352 36.8634L22.9541 34.3341C23.1373 34.007 22.9346 33.5976 22.5635 33.545L19.5928 33.1271C19.4784 33.1109 19.3727 33.0573 19.291 32.9757L17.1943 30.8829ZM51.3164 28.7511C51.1718 28.4228 50.7508 28.3281 50.4795 28.5626L48.0801 30.6388C47.9927 30.7143 47.8828 30.7588 47.7676 30.7667L44.5605 30.9874C44.1862 31.0131 43.9545 31.4077 44.1143 31.7472L45.4385 34.5607C45.4899 34.67 45.5026 34.7936 45.4746 34.9112L44.7598 37.9103C44.675 38.2654 44.9636 38.5982 45.3271 38.5646L48.5674 38.2648C48.6791 38.2545 48.7911 38.2799 48.8877 38.337L51.6865 39.9962C52.0006 40.1824 52.4049 40.0048 52.4805 39.6476L53.1191 36.6319C53.1442 36.5136 53.2083 36.407 53.3018 36.3302L55.7031 34.3546C55.9928 34.1163 55.953 33.6613 55.626 33.4776L52.8223 31.9044C52.7215 31.8478 52.6413 31.7602 52.5947 31.6544L51.3164 28.7511ZM28.6641 31.3292C28.5605 30.9858 28.1543 30.8403 27.8564 31.0401L26.6631 31.8419C26.5671 31.9063 26.4523 31.9379 26.3369 31.9318L24.9014 31.8546C24.527 31.8348 24.2494 32.1977 24.3662 32.5538L24.7959 33.8585C24.8337 33.9733 24.8311 34.0978 24.7891 34.211L24.3105 35.4982C24.1833 35.8404 24.43 36.2071 24.7949 36.2179L26.2705 36.2609C26.3829 36.2642 26.492 36.3035 26.5811 36.3722L27.751 37.2745C28.0401 37.4971 28.4627 37.3697 28.5811 37.0245L29.0264 35.7257C29.0656 35.6113 29.1431 35.5142 29.2451 35.4493L30.4033 34.712C30.7199 34.5107 30.7351 34.0542 30.4326 33.8321L29.2744 32.9816C29.1812 32.9131 29.1125 32.8159 29.0791 32.7052L28.6641 31.3292ZM34.2207 6.80968C34.3923 6.4948 34.8195 6.43522 35.0703 6.69152L39.4912 11.215C39.5719 11.2974 39.677 11.3517 39.791 11.3693L46.1611 12.3468C46.5318 12.4037 46.73 12.8149 46.543 13.1398L44.2764 17.0675H25.8916L24.9346 16.1359C24.6659 15.8741 24.7446 15.4243 25.0859 15.2687L30.9492 12.5948C31.0544 12.5469 31.142 12.4659 31.1973 12.3644L34.2207 6.80968ZM51.7705 6.70226C52.0689 6.50306 52.4755 6.64948 52.5781 6.99327L53.085 8.68859C53.118 8.79916 53.1856 8.89631 53.2783 8.96495L54.709 10.0216C55.0107 10.2445 54.9939 10.701 54.6768 10.9015L53.2354 11.8126C53.1331 11.8772 53.0552 11.9747 53.0156 12.089L52.46 13.6964C52.3406 14.0414 51.9174 14.1672 51.6289 13.9435L50.1934 12.8292C50.1045 12.7603 49.9952 12.7215 49.8828 12.7179L48.0664 12.6593C47.7017 12.6473 47.4568 12.2803 47.585 11.9386L48.1816 10.3468C48.2241 10.2336 48.2268 10.1092 48.1895 9.99425L47.6611 8.37218C47.5449 8.01561 47.8229 7.65325 48.1973 7.67394L49.9727 7.77355C50.0881 7.78002 50.2027 7.74886 50.2988 7.68468L51.7705 6.70226Z" fill="#E0214D"/>
<path d="M73.56 32.5C73.848 26.908 73.872 21.268 73.56 15.7H76.56C76.44 18.244 76.368 20.788 76.344 23.356C78.48 21.1 81.36 17.332 82.488 15.7H85.92C84.864 16.588 79.296 22.564 78.648 23.356C83.976 24.244 83.664 31.132 87.144 31.564V32.38C80.52 33.868 81.648 24.964 76.344 24.124C76.344 26.932 76.416 29.716 76.56 32.5H73.56ZM88.2319 32.5C88.5199 27.028 88.5199 21.172 88.2319 15.7H92.4079C95.3359 15.7 98.0959 16.444 98.0959 19.876C98.0959 21.508 96.7279 22.828 95.5759 23.38C97.3279 23.812 99.0559 25.06 99.0559 27.532C99.0559 31.54 95.7679 32.5 92.3359 32.5H88.2319ZM92.3599 22.756C93.8239 22.756 95.5999 22.228 95.5999 19.876C95.5999 17.404 93.8239 17.092 92.3599 17.092H91.1839L91.0879 22.756H92.3599ZM92.4799 31.108C94.2319 31.108 96.3919 30.436 96.3919 27.532C96.3919 24.604 94.0639 24.148 92.3599 24.148H91.0639C91.0639 26.668 91.1119 28.588 91.1839 31.108H92.4799ZM104.496 31.012C107.088 31.012 109.776 30.916 111.864 30.268L111.576 32.5H101.568C101.832 26.836 101.832 21.22 101.568 15.7H111.168L111.384 17.812C109.272 17.332 106.968 17.188 104.496 17.188C104.424 18.652 104.4 20.74 104.376 22.924H109.608L109.32 24.388H104.4C104.4 26.908 104.448 29.38 104.496 31.012ZM121.666 32.644C116.17 32.644 113.674 28.924 113.674 24.1C113.674 19.516 116.41 15.556 121.642 15.556C124.138 15.556 126.058 16.396 127.354 17.74L125.986 19.492C124.738 17.74 123.61 16.852 121.642 16.852C117.898 16.852 116.746 20.524 116.746 24.1C116.746 27.652 117.85 31.324 121.834 31.324C123.682 31.324 125.146 30.388 126.298 29.116L127.474 30.46C126.178 31.78 124.258 32.644 121.666 32.644ZM132.839 32.5C133.079 27.412 133.127 22.228 132.911 17.236C131.207 17.308 129.527 17.5 128.062 17.836L128.303 15.7H140.375L140.615 17.836C139.103 17.5 137.495 17.308 135.791 17.236C135.623 22.3 135.671 27.46 135.839 32.5H132.839ZM147.716 32.5C148.004 27.028 148.004 21.172 147.716 15.7H151.892C154.82 15.7 157.58 16.444 157.58 19.876C157.58 21.508 156.212 22.828 155.06 23.38C156.812 23.812 158.54 25.06 158.54 27.532C158.54 31.54 155.252 32.5 151.82 32.5H147.716ZM151.844 22.756C153.308 22.756 155.084 22.228 155.084 19.876C155.084 17.404 153.308 17.092 151.844 17.092H150.668L150.572 22.756H151.844ZM151.964 31.108C153.716 31.108 155.876 30.436 155.876 27.532C155.876 24.604 153.548 24.148 151.844 24.148H150.548C150.548 26.668 150.596 28.588 150.668 31.108H151.964ZM166.463 32.5C167.039 27.148 167.543 20.572 167.879 15.7H171.215L175.871 28.492L180.311 15.7H183.623C183.935 20.596 184.583 27.868 185.087 32.5H181.991C181.871 27.796 181.439 21.892 181.175 18.82H180.983L176.207 32.5H174.767L169.559 18.82H169.415C169.103 22.204 168.959 28.612 168.863 32.5H166.463ZM188.741 30.22C190.517 30.388 191.093 30.076 191.812 28.516L192.077 27.892C190.373 23.812 188.285 19.756 185.812 15.7H189.437C190.613 18.748 191.933 21.868 193.685 24.868C195.029 21.868 196.229 18.82 197.357 15.7H199.709C197.573 20.02 195.677 24.34 193.877 28.708C192.941 31.012 191.933 32.692 189.197 32.5L188.741 30.22ZM205.279 32.596C203.359 32.62 201.607 32.26 200.311 31.564L200.887 29.5C202.063 30.676 203.647 31.156 205.135 31.132C207.103 31.06 208.855 29.86 208.735 27.292C208.663 25.18 207.151 23.644 203.143 24.172L202.999 22.564C206.599 22.804 208.063 21.46 208.087 19.732C208.135 17.932 206.743 17.212 205.303 17.14C203.839 17.092 202.399 17.668 201.367 18.532L200.743 16.564C202.063 15.94 204.103 15.556 205.615 15.604C209.143 15.724 210.703 17.692 210.703 19.636C210.703 21.268 209.791 22.564 208.207 23.092V23.14C210.391 23.692 211.711 25.588 211.567 27.796C211.375 31.132 208.255 32.572 205.279 32.596ZM217.136 31.012C219.728 31.012 222.416 30.916 224.504 30.268L224.216 32.5H214.208C214.472 26.836 214.472 21.22 214.208 15.7H223.808L224.024 17.812C221.912 17.332 219.608 17.188 217.136 17.188C217.064 18.652 217.04 20.74 217.016 22.924H222.248L221.96 24.388H217.04C217.04 26.908 217.088 29.38 217.136 31.012ZM229.722 31.012C232.314 31.012 235.002 30.916 237.09 30.268L236.802 32.5H226.794C227.058 26.836 227.058 21.22 226.794 15.7H236.394L236.61 17.812C234.498 17.332 232.194 17.188 229.722 17.188C229.65 18.652 229.626 20.74 229.602 22.924H234.834L234.546 24.388H229.626C229.626 26.908 229.674 29.38 229.722 31.012Z" fill="#151314"/>
<path d="M80.348 49.584C77.086 49.584 75.63 47.134 75.63 44.6C75.63 42.066 77.086 39.616 80.348 39.616C83.596 39.616 85.052 42.066 85.052 44.6C85.052 47.134 83.596 49.584 80.348 49.584ZM80.348 48.814C82.686 48.814 83.33 46.49 83.33 44.6C83.33 42.696 82.686 40.372 80.348 40.372C78.08 40.372 77.366 42.556 77.366 44.6C77.366 46.49 78.01 48.814 80.348 48.814ZM89.6677 49.584C86.9797 49.584 86.2377 47.246 86.2377 45.16C86.2377 42.794 86.9657 41.058 89.2057 40.4C90.5357 40.008 91.7817 40.218 91.9077 39.462H92.5097C92.1597 43.032 87.5397 39.952 87.1617 44.628L87.2317 44.642C87.4417 43.956 88.2397 42.836 89.7797 42.794C92.0757 42.738 92.9437 44.404 92.9437 46.196C92.9437 47.918 91.9637 49.584 89.6677 49.584ZM89.6677 48.828C91.2637 48.828 91.3337 47.162 91.3337 46.196C91.3337 45.23 91.2637 43.62 89.6957 43.62C88.1137 43.62 87.9597 45.23 87.9597 46.196C87.9597 47.162 88.0717 48.828 89.6677 48.828ZM94.408 52.65C94.548 49.248 94.548 46.196 94.408 42.864H95.654L95.822 43.55C96.396 43.102 97.124 42.808 97.824 42.808C99.98 42.808 100.834 44.334 100.834 46.182C100.834 48.044 99.742 49.542 97.642 49.542C97.068 49.542 96.368 49.36 96.004 49.038C96.018 50.354 95.99 51.348 96.046 52.65H94.408ZM97.53 48.842C99.07 48.842 99.294 47.344 99.294 46.182C99.294 45.02 99.154 43.522 97.572 43.522C96.704 43.522 96.102 44.18 96.004 44.656V47.456C96.13 48.24 96.592 48.842 97.53 48.842ZM101.96 47.456C101.96 46.154 102.912 45.538 104.676 45.524C105.152 45.524 105.656 45.594 106.09 45.664V45.216C106.09 43.998 105.334 43.62 104.494 43.62C103.808 43.62 103.024 43.9 102.52 44.166L102.618 43.046C103.29 42.92 104.074 42.836 104.956 42.836C106.314 42.836 107.588 43.368 107.588 45.328V48.198C107.588 49.066 108.204 49.038 108.484 48.996L108.526 49.36C108.232 49.486 107.798 49.542 107.532 49.542C106.958 49.542 106.468 49.29 106.272 48.912C105.74 49.346 105.054 49.556 104.396 49.556C103.066 49.556 101.946 48.856 101.96 47.456ZM104.732 48.73C105.194 48.716 105.712 48.548 106.09 48.282V46.308C105.684 46.252 105.208 46.182 104.802 46.21C104.116 46.252 103.5 46.49 103.5 47.442C103.5 48.38 104.074 48.73 104.732 48.73ZM111.169 49.542C110.413 49.556 109.601 49.43 108.943 49.094L109.279 48.114C109.867 48.632 110.469 48.898 111.183 48.884C111.855 48.856 112.611 48.506 112.555 47.414C112.527 46.238 111.113 46.238 110.147 46.35L110.077 45.524C110.833 45.566 112.177 45.496 112.247 44.558C112.289 43.9 111.813 43.438 111.071 43.466C110.455 43.48 109.867 43.774 109.405 44.124L109.069 43.228C109.741 42.948 110.791 42.808 111.393 42.822C112.485 42.85 113.759 43.172 113.759 44.376C113.759 45.188 113.255 45.566 112.611 45.79C113.577 46.056 114.081 46.546 114.081 47.456C114.081 48.968 112.499 49.528 111.169 49.542ZM118.555 49.584C116.273 49.584 115.195 47.918 115.195 46.182C115.195 44.446 116.273 42.808 118.555 42.808C120.851 42.808 121.901 44.488 121.901 46.224C121.901 47.96 120.851 49.584 118.555 49.584ZM118.555 48.87C119.689 48.87 120.305 47.974 120.305 46.224C120.305 44.446 119.689 43.522 118.555 43.522C117.421 43.522 116.819 44.432 116.819 46.182C116.819 47.96 117.435 48.87 118.555 48.87ZM125.374 48.772C126.06 48.772 126.914 48.548 126.914 47.512C126.914 46.406 125.99 46.266 125.318 46.266H124.618V48.772H125.374ZM125.318 45.524C125.906 45.524 126.606 45.454 126.606 44.53C126.606 43.676 125.906 43.606 125.318 43.606H124.618V45.524H125.318ZM123.092 49.5C123.218 47.302 123.218 45.104 123.092 42.864H125.696C126.858 42.864 128.076 43.088 128.076 44.376C128.076 45.258 127.404 45.706 126.956 45.902C127.642 46.098 128.44 46.532 128.44 47.624C128.44 49.206 127.026 49.5 125.654 49.5H123.092ZM129.414 47.456C129.414 46.154 130.366 45.538 132.13 45.524C132.606 45.524 133.11 45.594 133.544 45.664V45.216C133.544 43.998 132.788 43.62 131.948 43.62C131.262 43.62 130.478 43.9 129.974 44.166L130.072 43.046C130.744 42.92 131.528 42.836 132.41 42.836C133.768 42.836 135.042 43.368 135.042 45.328V48.198C135.042 49.066 135.658 49.038 135.938 48.996L135.98 49.36C135.686 49.486 135.252 49.542 134.986 49.542C134.412 49.542 133.922 49.29 133.726 48.912C133.194 49.346 132.508 49.556 131.85 49.556C130.52 49.556 129.4 48.856 129.414 47.456ZM132.186 48.73C132.648 48.716 133.166 48.548 133.544 48.282V46.308C133.138 46.252 132.662 46.182 132.256 46.21C131.57 46.252 130.954 46.49 130.954 47.442C130.954 48.38 131.528 48.73 132.186 48.73ZM137.999 49.5C138.125 47.526 138.111 45.482 138.013 43.55C137.285 43.606 136.613 43.76 135.983 44.026L136.053 42.864H141.569L141.597 44.026C140.967 43.76 140.281 43.606 139.567 43.55C139.469 45.482 139.525 47.526 139.637 49.5H137.999ZM145.435 49.584C143.377 49.584 142.019 48.282 142.019 46.182C142.019 44.446 143.125 42.808 145.337 42.808C147.605 42.808 148.529 44.334 148.417 46.546H143.615C143.601 47.596 144.161 48.856 145.519 48.856C146.289 48.856 146.989 48.394 147.395 47.876L148.025 48.618C147.507 49.136 146.583 49.584 145.435 49.584ZM146.877 45.79C146.877 44.866 146.709 43.522 145.337 43.522C143.965 43.522 143.629 44.866 143.629 45.79H146.877ZM148.582 48.282C149.506 48.324 149.856 47.652 150.038 46.966C150.346 45.706 150.472 43.578 150.514 42.864H154.714C154.574 45.048 154.574 47.274 154.714 49.5H153.034C153.16 47.526 153.174 45.566 153.076 43.634H151.354C151.312 44.46 151.2 45.846 150.92 47.092C150.598 48.464 150.094 49.64 148.904 49.514L148.582 48.282ZM156.533 49.5C156.673 47.274 156.673 45.048 156.533 42.864H158.171C158.115 43.746 158.073 44.628 158.059 45.51H159.025C160.299 45.51 161.881 45.86 161.881 47.512C161.881 49.164 160.299 49.5 159.025 49.5H156.533ZM158.857 48.744C159.627 48.744 160.383 48.464 160.383 47.512C160.383 46.56 159.627 46.294 158.857 46.294H158.059C158.059 47.092 158.087 47.904 158.115 48.744H158.857ZM163.355 49.5C163.495 47.274 163.495 45.048 163.355 42.864H164.965C164.923 43.872 164.895 44.698 164.895 45.706H167.723C167.723 44.684 167.695 43.872 167.625 42.864H169.249C169.151 45.09 169.151 47.302 169.249 49.5H167.625C167.695 48.478 167.723 47.484 167.723 46.476H164.895C164.895 47.498 164.923 48.492 164.965 49.5H163.355ZM171.066 49.5C171.192 47.274 171.192 45.048 171.066 42.864H172.718C172.662 43.746 172.62 44.628 172.606 45.51H173.558C174.846 45.51 176.414 45.86 176.414 47.512C176.414 49.164 174.846 49.5 173.558 49.5H171.066ZM173.39 48.744C174.16 48.744 174.93 48.464 174.93 47.512C174.93 46.56 174.16 46.294 173.39 46.294H172.606C172.606 47.092 172.634 47.904 172.662 48.744H173.39ZM177.226 49.5C177.38 47.274 177.38 45.048 177.226 42.864H178.878C178.738 45.048 178.738 47.274 178.878 49.5H177.226ZM180.705 49.5C180.831 47.274 180.845 45.048 180.705 42.864H182.329C182.231 44.53 182.175 46.252 182.189 47.96H182.245L185.185 42.864H186.767C186.627 45.048 186.627 47.274 186.767 49.5H185.143C185.241 47.806 185.283 46.056 185.241 44.376H185.157L182.259 49.5H180.705ZM182.525 40.806C183.323 41.492 184.625 41.66 185.605 40.918L185.955 41.282C184.849 42.402 183.043 42.486 181.951 41.898L182.525 40.806ZM191.82 49.5C191.96 47.274 191.96 45.048 191.82 42.864H197.728C197.602 45.048 197.602 47.274 197.728 49.5H196.09C196.202 47.554 196.23 45.538 196.132 43.634H193.416C193.332 45.538 193.36 47.554 193.472 49.5H191.82ZM199.545 52.65C199.685 49.248 199.685 46.196 199.545 42.864H200.791L200.959 43.55C201.533 43.102 202.261 42.808 202.961 42.808C205.117 42.808 205.971 44.334 205.971 46.182C205.971 48.044 204.879 49.542 202.779 49.542C202.205 49.542 201.505 49.36 201.141 49.038C201.155 50.354 201.127 51.348 201.183 52.65H199.545ZM202.667 48.842C204.207 48.842 204.431 47.344 204.431 46.182C204.431 45.02 204.291 43.522 202.709 43.522C201.841 43.522 201.239 44.18 201.141 44.656V47.456C201.267 48.24 201.729 48.842 202.667 48.842ZM210.457 49.584C208.175 49.584 207.097 47.918 207.097 46.182C207.097 44.446 208.175 42.808 210.457 42.808C212.753 42.808 213.803 44.488 213.803 46.224C213.803 47.96 212.753 49.584 210.457 49.584ZM210.457 48.87C211.591 48.87 212.207 47.974 212.207 46.224C212.207 44.446 211.591 43.522 210.457 43.522C209.323 43.522 208.721 44.432 208.721 46.182C208.721 47.96 209.337 48.87 210.457 48.87ZM218.197 49.584C216.139 49.584 214.781 48.282 214.781 46.182C214.781 44.446 215.887 42.808 218.099 42.808C220.367 42.808 221.291 44.334 221.179 46.546H216.377C216.363 47.596 216.923 48.856 218.281 48.856C219.051 48.856 219.751 48.394 220.157 47.876L220.787 48.618C220.269 49.136 219.345 49.584 218.197 49.584ZM219.639 45.79C219.639 44.866 219.471 43.522 218.099 43.522C216.727 43.522 216.391 44.866 216.391 45.79H219.639ZM222.527 49.5C222.653 47.26 222.667 45.048 222.527 42.864H224.179C224.123 43.83 224.081 44.796 224.081 45.776C224.991 44.852 226.209 43.494 226.657 42.864H228.351C227.917 43.242 225.383 45.65 225.103 45.986C227.399 46.224 227.161 48.842 228.687 49.024V49.472C225.635 50.242 225.985 46.49 224.081 46.378C224.081 47.414 224.109 48.45 224.179 49.5H222.527ZM230.708 49.5C230.834 47.526 230.82 45.482 230.722 43.55C229.994 43.606 229.322 43.76 228.692 44.026L228.762 42.864H234.278L234.306 44.026C233.676 43.76 232.99 43.606 232.276 43.55C232.178 45.482 232.234 47.526 232.346 49.5H230.708Z" fill="#151314"/>
</svg>
