<svg width="162" height="64" viewBox="0 0 162 64" fill="none" xmlns="http://www.w3.org/2000/svg">
<g clip-path="url(#clip0_1_8571)">
<path d="M52.2562 17.8243C52.3522 15.6483 52.1602 13.3763 52.0322 11.3283C52.1282 10.9123 51.9682 10.4003 51.4562 10.2083C48.4482 9.12025 44.7362 9.79225 41.6002 9.82425C37.8882 9.85625 34.2082 9.92025 30.4962 9.95225C23.3282 10.0483 16.0642 9.82425 8.8962 10.5603C8.3522 10.6243 8.1922 11.2323 8.4482 11.5523C9.0882 17.6323 9.0882 23.7123 9.0242 29.7923C8.9602 36.1283 8.5122 42.5923 9.1522 48.8963C9.1522 48.9283 9.1522 48.9603 9.1842 48.9603C9.1842 48.9923 9.1842 48.9923 9.1842 49.0243C9.1842 49.2803 9.1842 49.5683 9.2162 49.8563C9.1522 50.2083 9.1202 50.5603 9.0242 50.9123C8.8962 51.4883 9.2802 51.9683 9.8562 52.0323C17.0242 52.4483 24.2562 52.4483 31.4242 52.6403C34.9122 52.7363 38.4002 52.8323 41.8882 52.9283C45.6322 53.0243 49.4722 52.9923 53.1842 53.5043C53.4722 53.5363 53.6962 53.4403 53.8562 53.2483C54.0162 53.1523 54.1122 52.9923 54.1122 52.7683C53.8882 41.1203 53.0242 29.4723 52.2562 17.8243Z" fill="#E0214D"/>
<path d="M18.802 48.2965C18.6992 46.5478 18.4934 44.7991 18.2877 43.0504C18.2534 42.7075 17.7048 42.6732 17.7048 43.0504C17.7048 43.7361 17.7048 44.4562 17.7048 45.142C17.6019 44.9705 17.4648 44.7991 17.3619 44.6276C17.3276 44.5591 17.2248 44.5248 17.1562 44.4905C17.1562 44.4219 17.1562 44.3533 17.1219 44.2505C17.1219 44.2848 17.1562 44.2848 17.1562 44.3191C17.1905 44.3533 17.2248 44.4219 17.2591 44.4562C17.2933 44.4905 17.3276 44.4905 17.3619 44.4905C17.3962 44.4905 17.4648 44.4905 17.4648 44.4562C17.4648 44.4219 17.4991 44.3876 17.4991 44.3533C17.5334 44.2848 17.4991 44.2162 17.4648 44.1476C17.4305 44.079 17.3962 44.0105 17.3619 43.9762C17.2591 43.839 17.1562 43.7361 17.0533 43.6333C17.0533 43.6333 17.019 43.6333 17.019 43.599C16.9505 43.0161 16.8476 42.4332 16.7447 41.8503C16.7447 41.7474 16.6761 41.7131 16.5733 41.6788C16.539 41.3017 16.5047 40.9245 16.5047 40.513C16.5047 40.3073 16.4704 40.1358 16.4704 39.9301C16.4704 39.7587 16.4704 39.5529 16.4018 39.4158C16.3675 39.21 16.3333 38.97 16.1961 38.7986C16.1961 38.7986 16.1961 38.7986 16.1618 38.7986C16.1618 38.73 16.1618 38.6957 16.1275 38.6271C16.1275 38.5586 16.0589 38.49 16.0247 38.4557C15.9904 37.6671 15.9561 36.8441 15.8875 36.0555C15.8532 35.644 15.8532 35.2326 15.8532 34.8554C15.8532 34.6497 15.8189 34.4096 15.8189 34.2039C15.8189 33.9982 15.8189 33.8267 15.6818 33.6553C15.6475 33.621 15.5789 33.5867 15.5103 33.5867C15.476 33.4153 15.4418 33.2438 15.3732 33.0381C15.2017 32.318 15.0646 31.6323 14.8931 30.9122C14.5845 29.5749 14.2759 28.2377 13.9673 26.9004V26.8661C13.9673 26.7976 13.9673 26.7633 13.9331 26.729C13.9331 26.6604 13.8988 26.5918 13.8988 26.5233C13.8302 26.2489 13.3844 26.3175 13.4187 26.5918C13.453 26.8661 13.4873 27.1062 13.5216 27.3805C13.1101 28.6834 12.733 30.0207 12.4244 31.358C12.2529 32.1123 12.1158 32.8667 11.9786 33.6553C11.8414 34.4439 11.67 35.164 11.7386 35.9526C11.7386 35.9869 11.7386 36.0212 11.7729 36.0212C11.7729 36.1926 11.7386 36.3298 11.7386 36.5012C11.67 37.187 11.6357 37.8728 11.67 38.5243C11.6357 38.5586 11.6357 38.5929 11.6014 38.5929C11.5671 38.5243 11.4986 38.4557 11.43 38.3871C11.3271 38.3185 11.19 38.3871 11.1214 38.4557C11.0528 38.5586 11.0528 38.6614 11.0185 38.7986C10.9842 38.9357 10.9842 39.0386 10.9842 39.1758C10.9157 39.4158 10.9157 39.6558 10.9157 39.8615C10.9157 40.1358 10.9157 40.4101 10.9157 40.6845C10.9157 41.2331 10.9157 41.7817 10.9157 42.3303C10.9157 42.3989 10.9157 42.4332 10.9499 42.4675L10.9157 42.5018C10.8814 42.5703 10.8471 42.6046 10.8471 42.6732C10.7442 42.5703 10.6413 42.4332 10.5042 42.4332C10.2642 42.3989 10.1613 42.5703 10.0584 42.7418C9.95557 42.9132 9.887 43.0847 9.81842 43.2904C9.78413 43.4275 9.98986 43.4961 10.0242 43.3933C10.0927 43.2218 10.1956 43.0847 10.3327 42.9475C10.367 42.9132 10.367 42.8789 10.4013 42.8789C10.4356 42.9475 10.5042 43.0161 10.5385 43.0847C10.6413 43.2561 10.7442 43.4275 10.8471 43.5647C10.9157 43.6333 10.9842 43.7361 11.0528 43.8047C11.0185 43.839 10.9499 43.9076 10.9499 43.9762C10.8814 44.1476 10.8471 44.3191 10.8471 44.4905C10.8471 44.5248 10.8471 44.5591 10.8128 44.5934C10.6071 44.6619 10.4013 44.6619 10.1956 44.5248C10.0584 44.4562 9.95558 44.4562 9.85271 44.5591C9.78413 43.7019 9.71555 42.8446 9.64698 42.0217C9.61269 41.576 8.92692 41.576 8.9612 42.0217C9.06407 43.7361 9.13265 45.4506 9.20123 47.1307C9.23551 47.9879 9.2698 48.8109 9.2698 49.6681C9.2698 50.0795 9.30409 50.491 9.33838 50.9368C9.37267 51.3482 9.33838 51.7597 9.47553 52.1711C9.54411 52.3083 9.68127 52.3426 9.78413 52.274C10.0242 53.0284 11.3957 53.0969 12.0472 53.1312C12.973 53.1998 13.9331 53.1312 14.8588 53.1312C15.8875 53.0969 16.9162 53.0969 17.9105 52.9941C17.9448 53.0969 17.9791 53.1998 18.0477 53.337C18.1506 53.5427 18.4934 53.5427 18.5963 53.337C18.7678 52.9255 18.8363 52.6169 18.8363 52.1711C18.8363 51.7254 18.8706 51.2796 18.8706 50.8339C18.9049 49.9767 18.8363 49.1195 18.802 48.2965ZM11.7729 43.5304C11.8072 43.4618 11.8072 43.359 11.8072 43.2904C11.8072 43.2561 11.8072 43.2561 11.8072 43.2561C11.91 43.2561 12.0129 43.3933 12.0472 43.4275C12.0815 43.4618 12.1158 43.4961 12.15 43.5304C12.0472 43.5304 11.9443 43.5647 11.8757 43.5647C11.8414 43.5647 11.8072 43.5647 11.7729 43.5304ZM13.3501 41.6445C13.1101 41.6103 12.9044 41.4045 12.6987 41.2674C12.4929 41.1302 12.2529 40.9931 12.15 40.7187C11.9786 40.3416 12.15 39.9301 12.3901 39.6215C12.5958 39.6215 12.8358 39.5186 13.0416 39.5186C13.2816 39.4844 13.5559 39.3815 13.7959 39.4844C13.9673 39.5529 14.0702 39.6901 14.1731 39.8615C14.1388 39.9301 14.1388 39.9644 14.1388 40.033C14.1045 40.3759 14.1388 40.7187 14.2074 41.0616C14.0359 41.4045 13.7616 41.6788 13.3501 41.6445ZM13.9673 36.8784C13.7273 36.8441 13.453 36.8098 13.213 36.8441C12.9387 36.8784 12.6644 36.9127 12.3901 36.947C12.3901 36.8098 12.4244 36.6384 12.4244 36.5012C12.4586 36.1584 12.4929 35.8155 12.4929 35.4383C12.4929 35.3011 12.4929 35.164 12.4586 35.0268C12.4586 34.9583 12.4929 34.8897 12.4929 34.8211C12.5272 34.8211 12.5615 34.7868 12.5958 34.7525C12.8358 34.5125 13.0416 34.2382 13.2473 33.9639C13.2816 33.9982 13.2816 34.0668 13.3159 34.101C13.4187 34.2725 13.5559 34.4439 13.7273 34.5125C13.9331 34.6154 14.2074 34.5811 14.3788 34.4439C14.4817 34.3754 14.5502 34.3068 14.6188 34.2039C14.6531 34.1696 14.6874 34.101 14.7217 34.0668C14.756 34.0668 14.756 34.101 14.756 34.101C14.8246 34.3754 14.9617 34.6497 15.0989 34.8897C15.0989 35.3011 15.1332 35.6783 15.1674 36.0898C15.2017 36.4327 15.236 36.7413 15.3046 37.0499C15.2703 37.0499 15.236 37.0499 15.2017 37.0499C15.0989 37.0499 14.996 37.0842 14.8931 37.0842C14.7903 37.0499 14.6874 37.0156 14.6188 36.9813C14.516 36.947 14.4131 36.947 14.3102 36.9127C14.2074 36.9127 14.1045 36.8784 13.9673 36.8784ZM15.5446 44.5248C15.3732 44.5248 15.1674 44.5248 14.996 44.4905C14.996 44.3533 14.9617 44.2505 14.9617 44.1476C14.9274 43.9076 14.7217 43.7361 14.516 43.6676C14.5502 43.6333 14.6188 43.5647 14.6531 43.5304C14.6874 43.4961 14.7217 43.4618 14.756 43.4275C14.7903 43.4618 14.8246 43.4961 14.8246 43.5304C14.8931 43.6676 14.996 43.8047 15.0646 43.9419C15.2017 44.1476 15.476 44.079 15.5446 43.8733C15.6475 43.599 15.7161 43.3247 15.7846 43.0504C15.8532 43.0847 15.8875 43.0847 15.9561 43.0847C15.9561 43.0847 15.9561 43.119 15.9904 43.119C16.0589 43.2218 16.1275 43.2904 16.1961 43.3933C16.2647 43.4618 16.299 43.5304 16.3675 43.5647C16.3675 43.7361 16.3675 43.9076 16.3675 44.0447C16.3675 44.1819 16.3675 44.3191 16.4018 44.4562C16.0932 44.4562 15.7504 44.5248 15.5446 44.5248Z" fill="#9DE539"/>
<path d="M42.5384 37.2146C42.3242 37.0004 42.2885 36.6435 41.9673 36.5007C41.6817 36.358 41.3248 36.3223 41.0393 36.3223C40.4325 36.358 39.8257 36.6435 39.3617 37.0718C39.1832 37.2503 39.4688 37.5358 39.6472 37.3574C39.9328 37.1075 40.254 36.929 40.6109 36.822C40.6109 36.8577 40.5752 36.8577 40.5752 36.8934C40.5395 36.8934 40.5395 36.8934 40.5395 36.8934C40.4325 36.929 40.3968 37.0004 40.3968 37.1075C40.3968 37.3217 40.4682 37.5358 40.6466 37.6786C40.8608 37.8571 41.1106 37.9285 41.3605 37.8928C41.5033 37.8571 41.646 37.7857 41.7174 37.6429C41.7531 37.5715 41.8245 37.5001 41.8245 37.4287C41.8602 37.3217 41.8602 37.2503 41.8245 37.1432C41.8245 37.0361 41.7531 36.9647 41.6817 36.8577C41.7174 36.8577 41.7888 36.8934 41.8245 36.8934C42.0743 37.0004 42.2171 37.2146 42.467 37.2503C42.5384 37.286 42.574 37.2503 42.5384 37.2146Z" fill="#9DE539"/>
<path d="M42.6453 35.537C42.2527 35.2158 41.7886 34.9302 41.2889 34.8945C40.7892 34.8588 40.3252 35.073 39.9326 35.3585C39.5757 35.6084 39.2901 35.9653 39.0403 36.3579C38.8261 36.7149 38.5763 37.2146 38.7547 37.6429C38.7904 37.7143 38.8975 37.75 38.9332 37.6786C39.1474 37.393 39.2188 37.0004 39.3972 36.6792C39.5757 36.3579 39.8255 36.0724 40.1468 35.8582C40.468 35.6441 40.8249 35.4656 41.2176 35.5013C41.6459 35.537 42.0385 35.7155 42.3954 35.9653C42.5739 36.0724 42.8594 35.7155 42.6453 35.537Z" fill="#9DE539"/>
<path d="M49.8195 36.7869C49.4269 36.43 48.7844 36.6084 48.5345 37.0367C48.3561 36.3943 47.8921 35.8232 47.3567 35.5019C46.5 34.9666 45.3579 35.0022 44.4655 35.3592C44.3228 35.4306 44.3585 35.6804 44.5369 35.6447C45.3579 35.3592 46.3573 35.3949 47.1068 35.8589C47.785 36.2515 48.1062 36.9654 48.3204 37.6792C48.3561 37.8577 48.6059 37.822 48.6059 37.6435C48.6059 37.5008 48.6059 37.358 48.5702 37.2509C48.6416 37.2866 48.713 37.2866 48.7487 37.2152C48.9629 36.8583 49.4626 36.894 49.6767 37.2509C49.8909 37.6435 49.7124 38.1075 49.5696 38.4645C49.3912 38.8214 49.2841 39.1783 49.1413 39.5709C49.0699 39.7494 48.9629 39.9279 48.8558 40.1063C48.7844 40.1777 48.713 40.3205 48.6416 40.3562C48.5702 40.3919 48.4632 40.3205 48.3918 40.3205C48.3204 40.3205 48.249 40.3919 48.2847 40.4633C48.3204 40.7131 48.6773 40.6417 48.8201 40.5347C49.0342 40.3919 49.177 40.1063 49.2841 39.8922C49.3912 39.6423 49.4983 39.3925 49.6053 39.1069C49.7124 38.8214 49.8195 38.5359 49.9623 38.286C50.0693 38.0362 50.2121 37.7863 50.1764 37.5008C50.105 37.2152 49.998 36.9654 49.8195 36.7869Z" fill="#9DE539"/>
<path d="M44.3584 29.434C44.3941 29.4697 44.3941 29.4697 44.3584 29.434C45.0366 29.8266 45.3578 30.5761 45.572 31.2543C45.6434 31.4685 45.7505 31.6826 45.7505 31.9325C45.7862 32.1823 45.6434 32.4322 45.5363 32.6463C45.3935 32.9676 45.0723 33.6457 45.4292 33.8956C45.5006 33.9313 45.572 33.9313 45.6077 33.8956C45.6791 33.8599 45.6791 33.7885 45.7148 33.7171C46.4643 33.8599 47.2139 34.0384 47.892 34.431C48.1776 34.6095 48.3917 34.8593 48.4631 35.1805C48.5702 35.5732 48.6059 36.0015 48.6059 36.3941C48.6059 36.644 48.9628 36.644 48.9985 36.3941C49.0342 35.9301 49.1056 35.5018 48.9271 35.0378C48.7844 34.6452 48.5702 34.2882 48.2847 34.0027C48.1419 33.8599 47.9634 33.7171 47.8207 33.6101C47.6422 33.503 47.3923 33.4316 47.2139 33.3602C46.7499 33.2174 46.2859 33.1817 45.8218 33.146C45.8932 32.9319 46.0003 32.7177 46.1074 32.5036C46.3216 32.0396 46.2502 31.6826 46.0717 31.2186C45.7862 30.4691 45.4649 29.6838 44.7868 29.2198C44.644 29.1127 44.5012 29.0414 44.3584 29.0057C44.3227 28.97 44.2514 28.9343 44.2157 28.9343C43.5732 28.7558 42.895 28.9343 42.3596 29.2912C41.6815 29.7552 41.2175 30.4691 41.0033 31.2543C40.8962 31.7183 40.8605 32.1823 41.1818 32.575C41.2531 32.682 41.3245 32.7891 41.4316 32.8962C41.3959 32.8962 41.3602 32.8962 41.3245 32.8962C41.1818 32.8962 41.0747 32.8605 40.9319 32.8962C40.6464 32.9319 40.3965 33.0033 40.1467 33.0747C39.6827 33.2174 39.1473 33.3245 38.7546 33.6814C38.4334 34.0027 38.2192 34.3953 38.0765 34.8236C37.898 35.3233 37.8266 35.8587 37.8266 36.3941C37.4697 36.2513 37.0414 36.3941 36.8629 36.7867C36.6131 37.2864 36.8986 37.8218 37.1128 38.2858C37.3626 38.7855 37.5768 39.3209 37.8266 39.8206C38.0051 40.1419 38.5405 40.7487 38.9331 40.4631C39.0402 40.9271 39.2186 41.3554 39.4328 41.7838C40.1467 43.1401 41.6101 44.2109 43.0735 44.6035C43.2163 44.6392 43.3233 44.425 43.1806 44.3536C41.6458 43.6755 40.3608 42.8189 39.5756 41.2841C38.8617 39.8563 38.8617 38.1788 38.1479 36.751C38.2192 36.7153 38.2906 36.644 38.3263 36.5012C38.362 36.0372 38.5048 35.5732 38.6119 35.1092C38.6833 34.7522 38.7546 34.3239 39.0045 34.0384C39.1473 33.8956 39.3614 33.7885 39.5399 33.7528C39.754 33.6814 40.0039 33.6101 40.218 33.5387C40.4322 33.4673 40.6821 33.3959 40.9319 33.3602C41.0747 33.3245 41.1818 33.3245 41.3245 33.2888C41.3959 33.2531 41.4673 33.2531 41.5387 33.2174C41.7172 33.503 41.8242 33.7885 41.7172 34.0741C41.6458 34.3596 42.1098 34.5024 42.1812 34.2168C42.2882 33.8242 42.2169 33.4673 42.0384 33.1104C41.9313 32.9319 41.8242 32.7891 41.6815 32.6463C41.5387 32.5036 41.3245 32.3608 41.2175 32.1823C41.0747 31.8611 41.1818 31.3257 41.2888 31.0045C41.4316 30.6118 41.6815 30.2549 41.967 29.9694C42.4667 29.4697 43.2876 29.1484 44.0015 29.3269C44.0015 29.434 43.9658 29.5411 43.9658 29.6481C43.9301 29.8623 43.8944 30.0764 43.8944 30.2906C43.8587 30.5048 43.8587 30.7189 43.8587 30.9688C43.8587 31.0759 43.8587 31.1829 43.8587 31.29C43.7873 31.2543 43.716 31.2543 43.6446 31.2543C43.5732 31.2543 43.5018 31.29 43.4661 31.2186C43.359 31.1115 43.4304 30.8617 43.3947 30.7189C43.359 30.2906 43.2876 29.898 43.1806 29.4697C43.1449 29.3626 43.0021 29.3983 43.0378 29.5054C43.1092 29.898 43.1806 30.2549 43.1806 30.6475C43.1806 30.8974 43.1092 31.29 43.359 31.4328C43.5018 31.5042 43.6446 31.4328 43.7873 31.5042C43.8944 31.5756 44.0372 31.6469 44.1443 31.5042C44.18 31.4328 44.18 31.3257 44.18 31.2543C44.18 31.1472 44.2157 31.0402 44.2157 30.9331C44.2514 30.7546 44.2514 30.5405 44.287 30.362C44.3227 30.1478 44.3227 29.9337 44.3584 29.7195C44.3584 29.6481 44.3584 29.5411 44.3584 29.434ZM38.8617 40.0348C38.7903 39.9991 38.6833 39.9634 38.6119 39.9277C38.4691 39.8206 38.362 39.6779 38.2906 39.5351C38.1122 39.1782 37.9694 38.8212 37.7909 38.4643C37.6482 38.1431 37.434 37.7861 37.3269 37.4292C37.2912 37.2864 37.2912 37.108 37.3626 37.0009C37.3983 36.9295 37.5054 36.8938 37.5768 36.9295C37.6838 37.0366 37.8623 37.0366 37.9694 36.9295C38.0051 36.8938 38.0051 36.8938 38.0051 36.8581C38.4691 37.8575 38.6119 38.964 38.8617 40.0348Z" fill="#9DE539"/>
<path d="M53.424 44.1033C53.1385 44.0676 52.7816 44.3889 52.5674 44.5316C52.2819 44.7458 51.9963 44.96 51.7821 45.2098C51.2111 45.7809 50.9612 46.5305 50.6043 47.2443C50.283 47.9582 49.7477 48.6363 49.0695 49.0647C48.427 49.4216 47.5704 49.6001 46.8208 49.6001C46.8922 49.2431 46.8565 48.8862 46.8565 48.5293C46.8565 48.0653 46.8565 47.6369 46.8565 47.1729C46.8565 46.816 46.8565 46.4591 46.8208 46.1378C46.8208 46.1021 46.8208 46.0665 46.8208 46.0308C46.7851 45.5311 46.7494 44.9957 46.7137 44.496C46.7137 44.3889 46.5353 44.3889 46.5353 44.496C46.4639 45.1741 46.4282 45.8523 46.4282 46.5662C46.4282 46.6375 46.3925 46.7089 46.3925 46.7803C46.3211 47.1372 46.214 47.4585 46.1427 47.7797C46.0713 48.0653 45.9642 48.3508 45.643 48.4222C45.3217 48.4936 44.9291 48.5293 44.6079 48.565C44.5365 48.565 44.5365 48.7077 44.6435 48.7077C45.0005 48.672 45.3931 48.672 45.7857 48.6007C46.107 48.5293 46.2854 48.2794 46.4282 47.9939C46.4639 47.9225 46.4996 47.8511 46.4996 47.7797C46.4996 48.0296 46.4996 48.2794 46.5353 48.4936C46.5353 48.8862 46.5353 49.3859 46.6781 49.7428C46.7137 49.7785 46.7494 49.8142 46.7851 49.8142C46.8208 49.8499 46.8565 49.8856 46.9279 49.8856C47.6775 49.9213 48.3913 49.7428 48.9981 49.3145C49.6049 48.9219 50.1403 48.4936 50.5686 47.9225C51.0326 47.2086 51.2824 46.3877 51.7108 45.6738C51.9249 45.3526 52.1748 45.0314 52.496 44.7815C52.6745 44.6387 52.8886 44.5317 53.1028 44.4246C53.2813 44.3532 53.4597 44.3175 53.5668 44.1747C53.5311 44.2104 53.4954 44.139 53.424 44.1033Z" fill="#9DE539"/>
<path d="M44.7866 45.3887C44.7866 45.1388 44.7866 44.889 44.7866 44.6391C44.7866 44.4607 44.8223 44.2465 44.7866 44.1037C45.5718 43.6754 46.2857 43.0329 46.8568 42.3191C47.3565 41.7123 47.7134 40.9984 47.999 40.2846C48.1417 39.892 48.2845 39.4993 48.3916 39.071C48.463 38.7498 48.6771 38.2858 48.5344 37.9645C48.5344 37.9288 48.463 37.8932 48.4273 37.9288C48.2131 38.143 48.2131 38.5356 48.1417 38.8212C48.0347 39.1781 47.9276 39.5707 47.7848 39.9277C47.4993 40.6772 47.1423 41.4268 46.6783 42.0692C45.8574 43.2471 44.6081 44.1394 43.1804 44.425C43.0376 44.4607 43.0733 44.7105 43.2518 44.6748C43.7158 44.5677 44.1798 44.425 44.5724 44.2108C44.5367 44.3536 44.5367 44.4964 44.5011 44.6391C44.4654 44.8533 44.4297 45.0674 44.394 45.2459C44.3226 45.7099 44.2155 46.1739 44.1798 46.6379C44.1441 46.9592 44.1084 47.3161 44.037 47.6373H44.0014C43.9657 47.673 43.8943 47.673 43.8586 47.7087C43.8229 47.7444 43.7872 47.7801 43.7515 47.8158C43.6801 47.8515 43.573 47.8872 43.5016 47.8872C43.2875 47.8515 43.1447 47.673 43.0019 47.5303C42.9663 47.4946 42.9306 47.4946 42.9306 47.5303C42.8592 47.1376 42.7878 46.7093 42.7164 46.3167C42.7878 46.3881 42.8949 46.4952 42.9663 46.5666C43.109 46.6736 43.2518 46.7807 43.4303 46.8521C43.5373 46.8878 43.6444 46.8878 43.7158 46.8164C43.7872 46.7807 43.8586 46.7093 43.93 46.6379C44.0013 46.5666 44.0727 46.4952 44.1441 46.4595C44.1798 46.4238 44.2155 46.3881 44.2512 46.3167C44.2869 46.281 44.2512 46.2096 44.2512 46.1739C44.2512 46.1382 44.2155 46.1025 44.1798 46.0668C44.0727 46.0668 44.0013 46.0669 43.93 46.1025C43.8586 46.1739 43.8229 46.2096 43.7515 46.281C43.6801 46.3167 43.6444 46.3881 43.573 46.4238C43.573 46.4238 43.573 46.4238 43.5373 46.4595C43.5373 46.4595 43.5016 46.4595 43.466 46.4238C43.2161 46.3167 43.0019 46.1739 42.8235 45.9955C42.7521 45.9241 42.6807 45.9241 42.6093 45.9955C42.5379 45.6028 42.4309 45.2102 42.3595 44.8176C42.3595 44.7819 42.2881 44.7819 42.2881 44.8176C42.4666 45.9241 42.645 47.0306 42.7521 48.1727C42.7878 48.5297 42.7878 48.9223 42.9663 49.2435C43.0376 49.3506 43.1447 49.4577 43.2518 49.5291C43.4303 49.6005 43.6444 49.5291 43.8586 49.6005C43.8943 49.6005 43.9657 49.6005 43.9657 49.5291C44.037 49.0651 44.2512 48.5654 44.3583 48.1013C44.5011 47.673 44.5724 47.209 44.6438 46.745C44.7509 46.281 44.7866 45.8527 44.7866 45.3887ZM44.037 47.9586C44.0013 48.4226 44.0013 48.9223 43.8586 49.3506C43.7158 49.3149 43.573 49.3506 43.4303 49.3149C43.2161 49.2435 43.1447 49.0294 43.109 48.8509C43.0376 48.4583 43.0376 48.0657 42.9663 47.673C43.109 47.8515 43.2875 48.03 43.5373 48.03C43.6801 48.03 43.7872 48.03 43.93 47.9586C43.9657 47.9229 44.037 47.8872 44.0727 47.8515C44.037 47.9229 44.037 47.9586 44.037 47.9586Z" fill="#9DE539"/>
<path d="M45.001 37.3926C45.1438 37.2499 45.2865 37.1071 45.465 37.0357V37.0714C45.3222 37.1785 45.2865 37.357 45.3222 37.4997C45.3579 37.6068 45.4293 37.7139 45.5007 37.7853C45.6078 37.8567 45.7148 37.928 45.8576 37.928C46.0004 37.9637 46.1789 37.9637 46.2859 37.8567C46.393 37.7853 46.4644 37.7139 46.5001 37.6068C46.5358 37.5354 46.5358 37.4997 46.5715 37.4283C46.5715 37.3213 46.5715 37.2856 46.5715 37.1785C46.5715 37.0714 46.5001 37 46.4287 36.9286C46.6429 37 46.857 37.1071 47.0355 37.2499C47.1426 37.3213 47.214 37.3926 47.321 37.464C47.4638 37.5354 47.5352 37.5354 47.678 37.464C47.7137 37.4283 47.7493 37.357 47.7137 37.3213C47.678 37.2856 47.6423 37.2142 47.6066 37.1785C47.5352 37.1428 47.4995 37.1071 47.4281 37.0714C47.321 37 47.214 36.8929 47.1069 36.7859C46.857 36.6074 46.5715 36.5003 46.2859 36.4646C45.7148 36.3932 45.1438 36.6074 44.7868 37.0714C44.6441 37.3213 44.8582 37.5354 45.001 37.3926Z" fill="#9DE539"/>
<path d="M49.9988 47.0312C49.6776 47.0312 49.392 47.0312 49.0708 47.0312C48.3926 47.0312 47.7501 47.1026 47.072 47.174C46.7507 47.2097 46.7507 47.6737 47.072 47.6737C47.6788 47.638 48.2855 47.6023 48.8923 47.5666C49.1779 47.531 49.4634 47.531 49.7847 47.4953C49.8917 47.4953 50.0345 47.4596 50.1416 47.4953C50.2487 47.4953 50.3557 47.5666 50.4628 47.6023C50.5699 47.6023 50.677 47.4596 50.6413 47.3525C50.5342 47.1026 50.213 47.0669 49.9988 47.0312Z" fill="#9DE539"/>
<path d="M51.748 44.9968C51.5339 44.9611 51.3197 45.0682 51.1056 45.1039C50.9271 45.1039 50.7129 45.1396 50.5345 45.1396C50.1061 45.1039 49.6778 44.9611 49.2852 44.9254C48.4643 44.8541 47.6433 44.7113 46.8581 44.8541C46.5369 44.8898 46.6082 45.4251 46.9295 45.4251C47.7504 45.3894 48.5357 45.675 49.3923 45.675C49.8206 45.675 50.2132 45.5322 50.6059 45.4965C50.82 45.4965 50.9985 45.4608 51.2126 45.4608C51.4268 45.4608 51.6409 45.4965 51.8194 45.4251C52.0336 45.3538 51.9622 45.0325 51.748 44.9968Z" fill="#9DE539"/>
<path d="M44.8597 41.356C44.7526 41.356 44.6455 41.356 44.5385 41.3917C44.4314 41.3917 44.3243 41.4274 44.2172 41.4274C44.0031 41.4274 43.7532 41.4274 43.539 41.3917C43.1107 41.356 42.6467 41.356 42.2184 41.3203C42.0756 41.3203 42.0756 41.5345 42.2184 41.5345C42.6467 41.6059 43.1107 41.6416 43.539 41.6059C43.7532 41.6059 43.9674 41.5702 44.2172 41.5702C44.3243 41.5702 44.4314 41.5702 44.5385 41.5702C44.6455 41.5702 44.7526 41.5702 44.8597 41.5345C44.9311 41.4988 44.9311 41.3917 44.8597 41.356Z" fill="#9DE539"/>
<path d="M43.7532 39.6431C43.7175 39.6431 43.7175 39.6431 43.7175 39.6431H43.6818H43.6461C43.6105 39.6431 43.6105 39.6431 43.5748 39.6431H43.5391C43.5034 39.6431 43.5034 39.6431 43.4677 39.6431H43.432H43.3963C43.3606 39.6074 43.3249 39.6074 43.2892 39.6074C43.2535 39.6074 43.2178 39.6431 43.1821 39.6788C43.1464 39.7502 43.1464 39.8573 43.2178 39.893C43.3249 39.9644 43.4677 40 43.5748 39.9644C43.6461 39.9644 43.7175 39.9644 43.7532 39.9287C43.7889 39.893 43.8603 39.8573 43.896 39.8216C43.9317 39.7859 43.9317 39.7502 43.896 39.7145C43.8246 39.6431 43.7889 39.6431 43.7532 39.6431Z" fill="#9DE539"/>
<path d="M45.2169 47.7457C45.1455 47.7457 45.1098 47.71 45.0384 47.71C44.9313 47.71 44.86 47.71 44.7529 47.7457C44.6458 47.7813 44.5387 47.8527 44.4673 47.9241C44.4316 47.9598 44.3959 48.0312 44.3246 48.0669C44.3246 48.1026 44.2889 48.1026 44.2532 48.1383C44.2175 48.1383 44.1818 48.174 44.1818 48.2097C44.1104 48.281 44.0747 48.3524 44.0747 48.4595C44.0747 48.5666 44.1104 48.638 44.1818 48.7094C44.2175 48.7451 44.2889 48.7807 44.3246 48.8164C44.3959 48.8164 44.4316 48.8164 44.503 48.8164C44.5387 48.8164 44.5744 48.7808 44.6101 48.7808C44.6458 48.7451 44.6815 48.7451 44.7172 48.7094C44.7529 48.6737 44.7529 48.6737 44.7886 48.638C44.8243 48.6023 44.86 48.5666 44.8956 48.5309H44.9313C44.967 48.5309 45.0027 48.5666 45.0384 48.5309C45.0741 48.5309 45.1098 48.5309 45.1455 48.5309C45.2169 48.5309 45.2883 48.5309 45.324 48.4952C45.3953 48.4595 45.431 48.3881 45.4667 48.3167C45.5381 48.174 45.5024 48.0312 45.3953 47.9241C45.3597 47.817 45.2883 47.7813 45.2169 47.7457Z" fill="#9DE539"/>
<path d="M53.3191 42.1423C53.212 41.3928 53.1049 40.6432 52.9265 39.8937C52.6409 38.466 52.284 37.0382 51.9271 35.6462C51.6415 34.397 51.4631 32.9692 50.8563 31.8271C50.5707 31.3274 50.071 31.0418 49.5356 30.792C49.3215 30.6849 49.0716 30.5778 48.8575 30.4707C48.8575 30.4707 48.8575 30.435 48.8218 30.435C48.679 30.328 48.5362 30.2566 48.3578 30.2209C48.3578 30.2209 48.3221 30.2209 48.3221 30.1852C48.2864 30.1495 48.215 30.1495 48.1793 30.1495C48.0008 30.0781 47.8224 29.971 47.6439 29.8996C46.2162 29.2929 44.7885 28.7932 43.218 28.6504C43.1466 28.6504 43.0752 28.6861 43.0395 28.7218C41.6118 28.9716 40.2555 29.3999 38.9705 30.0424C38.9348 30.0424 38.8991 30.0067 38.8634 30.0067C38.6493 29.971 38.4351 30.0424 38.2923 30.2209C38.2567 30.2923 38.221 30.328 38.1853 30.3993C38.1139 30.3993 38.0425 30.435 38.0068 30.5064C37.9711 30.5421 37.9711 30.5421 37.9354 30.5778C37.6856 30.7206 37.4714 30.8634 37.2216 31.0061C36.5077 31.4701 35.8295 32.0412 35.4726 32.7908C35.4369 32.8622 35.4369 32.8979 35.4012 32.9692C35.3298 33.0406 35.2941 33.1477 35.2941 33.2905C35.0086 34.0757 34.9015 34.9681 34.7587 35.789C34.2947 38.0733 33.8307 40.3934 33.3667 42.6777C33.2953 43.1061 33.0812 43.6415 33.1526 44.0698C33.2239 44.5338 33.5809 44.4981 33.9378 44.6409C34.723 44.9978 35.0443 46.14 35.4726 46.7824C36.0437 47.6034 36.7932 48.3886 37.6499 48.8883C38.4708 49.388 39.7201 49.8163 40.6838 49.4594C40.9336 49.3523 40.8979 49.0668 40.6838 48.9954C40.6838 48.6385 40.5767 48.2458 40.541 47.8532C40.6124 47.9603 40.7195 48.0674 40.8265 48.1388C41.0407 48.3172 41.3263 48.3886 41.5761 48.46C41.7189 48.4957 41.8616 48.5314 42.0044 48.5671C42.0758 48.5671 42.1472 48.6028 42.2186 48.6028C42.29 48.6028 42.3613 48.6385 42.4327 48.6028C42.4684 48.5671 42.5041 48.4957 42.4684 48.46C42.397 48.3886 42.2543 48.3886 42.1115 48.3529C41.9687 48.3172 41.8616 48.2815 41.7189 48.2459C41.469 48.1745 41.2192 48.1031 41.005 47.9603C40.7552 47.8175 40.5767 47.6391 40.4696 47.3892C40.4339 47.1037 40.4339 46.8181 40.3982 46.5326C40.3625 45.7116 40.3268 44.855 40.3625 44.0341C40.3625 43.9627 40.3268 43.927 40.2912 43.927C40.2912 43.927 40.2912 43.927 40.2912 43.8913C40.2912 43.7842 40.2198 43.6771 40.1484 43.6058C40.2198 43.6058 40.2555 43.5701 40.3268 43.5344C40.4339 43.4987 40.4339 43.3202 40.3268 43.2845C40.1127 43.1774 39.8628 43.1774 39.613 43.1774C39.3631 43.1774 39.1133 43.1417 38.8634 43.1417C38.2923 43.1061 37.7213 43.1061 37.1502 43.1061C36.6148 43.0704 36.0794 42.9633 35.5083 42.999C34.9729 42.999 34.4018 43.0704 33.8664 43.0704C33.9021 42.9633 33.9021 42.8562 33.9378 42.7491C34.0092 42.3922 34.0449 42.0353 34.1163 41.6783C34.5089 41.6783 34.9372 41.6783 35.3298 41.6783C35.7581 41.6783 36.1508 41.6426 36.5791 41.6069C37.0074 41.5713 37.4 41.5713 37.8283 41.6069C38.0068 41.6069 38.221 41.6426 38.3994 41.6426C38.6136 41.6426 38.8277 41.6783 39.0062 41.5713L39.0419 41.6069C39.0419 41.6069 39.0419 41.6069 39.0776 41.6069C39.0776 41.6069 39.1133 41.607 39.1133 41.6426C39.1133 41.6426 39.1133 41.6426 39.149 41.6426C39.1847 41.6426 39.1847 41.6783 39.2204 41.6783C39.2561 41.6783 39.2561 41.6783 39.2917 41.6783C39.3274 41.6783 39.3274 41.6783 39.3631 41.6783C39.3988 41.6783 39.4702 41.6426 39.5059 41.6069C39.5416 41.5356 39.5773 41.4642 39.5416 41.3928V41.3571C39.5416 41.2857 39.5059 41.2143 39.4702 41.1429C39.4345 41.1072 39.3988 41.0716 39.3274 41.0716C39.2917 41.0716 39.2917 41.0716 39.2561 41.0716C39.2561 41.0716 39.2561 41.0716 39.2204 41.0359C39.3631 40.8574 39.3631 40.5719 39.1847 40.3934C38.9705 40.1792 38.7207 39.9651 38.5422 39.7152C38.3637 39.5011 38.221 39.2155 38.0782 38.9657C37.9354 38.7158 37.7926 38.4303 37.5785 38.2161C37.4 38.0733 37.1859 37.9306 37.0074 37.8235C37.0431 37.7878 37.0788 37.7164 37.0788 37.645C37.0788 37.5023 37.0074 37.3595 36.8646 37.3238C36.7575 37.3238 36.6505 37.2881 36.5791 37.2881C36.472 37.2524 36.3649 37.2167 36.2578 37.2167C36.0437 37.2167 35.8652 37.2524 35.6511 37.2881C35.4726 37.3238 35.2941 37.3952 35.1157 37.4309C35.0086 37.4666 34.9015 37.5023 34.7944 37.5379C34.8658 37.181 34.9015 36.8598 34.9729 36.5029C35.0086 36.253 35.0443 36.0388 35.08 35.789C35.2584 35.8961 35.4726 35.8247 35.6868 35.789C35.9366 35.7533 36.1508 35.7176 36.3649 35.7176C36.5791 35.6819 36.8289 35.6819 37.0431 35.6462C37.1502 35.6462 37.2572 35.6462 37.3643 35.6462H37.4C37.3643 35.6462 37.3643 35.6462 37.4357 35.6462C37.4714 35.6462 37.4714 35.6462 37.4714 35.6462C37.5071 35.6462 37.5071 35.6819 37.5428 35.6819C37.7213 35.789 37.9354 35.7176 38.0425 35.5391C38.1139 35.5034 38.1853 35.4321 38.2567 35.325C38.2923 35.2893 38.2923 35.2536 38.328 35.2179C38.3637 35.1465 38.3994 35.0394 38.3994 34.9324C38.3994 34.8967 38.3994 34.8253 38.3637 34.7896C38.328 34.6825 38.2923 34.6111 38.221 34.5397C38.1853 34.504 38.1853 34.504 38.1496 34.504C38.1496 34.4684 38.1496 34.4683 38.1496 34.4327C38.1853 34.4327 38.221 34.4327 38.221 34.4327C38.328 34.397 38.4708 34.3256 38.4708 34.2185C38.5065 34.1828 38.5422 34.1471 38.5779 34.0757V34.04C38.5779 34.0043 38.6136 33.9686 38.6136 33.9686C38.6136 33.933 38.6493 33.8973 38.6493 33.8973C38.685 33.8616 38.685 33.7902 38.685 33.7545C38.792 33.7188 38.8634 33.6474 38.8991 33.5403C39.0062 33.576 39.1133 33.576 39.2204 33.5403C39.4345 33.5046 39.6487 33.3619 39.7558 33.1477V33.1834C39.8271 33.3976 40.1841 33.4333 40.2198 33.1834C40.2198 33.1477 40.2198 33.1477 40.2198 33.112C40.2555 32.8622 40.2198 32.5766 40.1841 32.3268C40.1127 32.0412 40.077 31.72 40.0056 31.4344C39.9342 31.1489 39.8628 30.8277 39.7558 30.5421C39.7201 30.3993 39.6844 30.2566 39.613 30.1495V30.1138C39.7558 30.0424 39.9342 30.0067 40.077 29.9353C40.9336 29.6141 41.7903 29.3642 42.6826 29.1144C42.6469 29.1858 42.6469 29.2572 42.6826 29.3643C42.754 29.8283 42.8254 30.328 42.9681 30.792C42.9681 30.9347 43.0038 31.0418 43.0752 31.1489C43.218 31.4701 43.7177 31.6486 43.9675 31.3274C44.0746 31.1846 44.146 31.0418 44.0746 30.8634C44.0389 30.7563 44.0032 30.6849 43.8961 30.6135C43.9318 30.328 43.9318 30.0424 43.9675 29.7569C43.9675 29.6141 44.0032 29.4713 44.0032 29.3286C44.0032 29.2572 44.0032 29.1858 44.0032 29.1501C45.1097 29.4356 46.1805 29.8283 47.2513 30.2566C47.2513 30.2566 47.2156 30.2566 47.2156 30.2923C46.9657 30.7206 46.823 31.1846 46.6802 31.6843C46.5374 32.184 46.5017 32.6837 46.5017 33.2191C46.5017 33.5403 46.9657 33.576 47.0371 33.2905C47.1085 33.3976 47.2513 33.5046 47.3584 33.5403C47.4654 33.576 47.6082 33.5403 47.7153 33.5046C47.7153 33.5046 47.7153 33.5046 47.7153 33.5403C47.6796 33.8616 48.0722 33.9686 48.1793 33.6831C48.2507 33.4689 48.3578 33.2548 48.4649 33.0763C48.5719 32.8622 48.6433 32.6123 48.7147 32.3982C48.7861 32.184 48.8575 32.0055 48.9289 31.7914C49.0002 31.5772 49.1787 31.3631 49.1787 31.1489C49.5 31.2917 49.7855 31.4701 50.0353 31.6843C50.2852 31.8985 50.4637 32.184 50.5707 32.4695C50.5707 32.4695 50.5707 32.4695 50.535 32.4695C50.0353 32.5052 49.5713 32.6123 49.1787 32.8979C49.0002 33.0406 48.8575 33.1834 48.7504 33.3976C48.6433 33.6117 48.5719 33.7902 48.4649 34.0043C48.4292 34.04 48.4649 34.0757 48.5005 34.1114C48.4649 34.1471 48.4649 34.1828 48.4292 34.2542C48.3935 34.3613 48.4649 34.4684 48.5362 34.5397C48.4292 34.861 48.5362 35.1822 48.8218 35.3607C48.7147 35.5034 48.7504 35.7533 48.9646 35.789C49.3572 35.8604 49.7141 35.9318 50.1067 35.9675C50.3209 36.0031 50.535 36.0031 50.7492 36.0031C50.8563 36.0031 50.9277 36.0031 51.0347 36.0031C51.1418 36.0031 51.2489 35.9675 51.356 35.8961C51.4631 36.3601 51.5701 36.8241 51.6415 37.2881C51.5344 37.2881 51.4274 37.2524 51.3203 37.2524C51.1775 37.2167 50.9991 37.2167 50.8563 37.2167C50.7135 37.2167 50.6064 37.2167 50.4637 37.181C50.428 37.181 50.428 37.181 50.3923 37.181C50.3923 37.181 50.3566 37.181 50.3209 37.181C50.2495 37.181 50.1781 37.1453 50.1067 37.1453C49.9283 37.1096 49.7141 37.181 49.6784 37.3952C49.6427 37.5023 49.6784 37.6093 49.7498 37.7164C49.6784 37.7878 49.6427 37.8592 49.607 37.9306C49.5713 38.0377 49.5713 38.1447 49.5713 38.2161C49.5713 38.2875 49.5713 38.3589 49.607 38.3946C49.5713 38.4303 49.5356 38.5017 49.4999 38.573C49.2858 39.0014 49.143 39.5011 48.8575 39.8937C48.7504 40.0365 48.6076 40.1792 48.4292 40.2506C48.3221 40.2863 48.1793 40.2863 48.0722 40.2863C47.9295 40.2506 47.751 40.2863 47.6439 40.4291C47.5368 40.5362 47.5011 40.6432 47.5368 40.7503C47.5011 40.8217 47.4654 40.8931 47.4654 40.9288C47.4654 41.0002 47.4654 41.0716 47.4654 41.1072C47.0371 41.1429 47.0371 41.7854 47.4654 41.7854C47.8938 41.7854 48.3221 41.7854 48.7504 41.714C49.1787 41.6426 49.607 41.6069 50.071 41.6069C50.4994 41.6069 50.9634 41.6069 51.3917 41.6069C51.7843 41.6069 52.2483 41.714 52.6766 41.6426C52.7123 41.6426 52.7123 41.6426 52.748 41.6069C52.748 41.6069 52.748 41.607 52.748 41.6426C52.8908 42.178 52.9979 42.7491 53.1406 43.2845C53.0336 43.2131 52.8908 43.1774 52.7123 43.1774C52.4268 43.1418 52.1412 43.1417 51.8557 43.1061C51.2846 43.0704 50.7492 43.1417 50.1781 43.1061C49.0359 42.999 47.8938 42.9633 46.7516 42.9633C46.466 42.9633 46.466 43.3916 46.7516 43.4273C47.8581 43.4987 49.0002 43.5701 50.1067 43.6058C50.6421 43.6415 51.1775 43.7485 51.7129 43.7842C51.9985 43.8199 52.284 43.8199 52.5695 43.8556C52.8194 43.8913 53.0336 43.927 53.2477 43.7128C53.2477 43.7128 53.2477 43.6771 53.2834 43.6771C53.3191 43.8199 53.3905 43.9627 53.4619 44.0698C53.4976 44.1055 53.5333 44.1055 53.5689 44.0341C53.6046 43.4987 53.4262 42.7848 53.3191 42.1423ZM37.7926 45.676C38.1853 45.676 38.5779 45.676 38.9348 45.6403C39.3274 45.6046 39.6844 45.5689 40.077 45.6046C40.077 45.9615 40.077 46.3184 40.077 46.6754C40.077 46.8181 40.1127 46.9609 40.1127 47.1037C39.9699 47.0323 39.7914 47.0323 39.6487 47.0323C39.3274 46.9966 38.9705 46.9966 38.6493 47.0323C37.9711 47.068 37.2572 47.1037 36.5791 47.1751C36.5434 47.1751 36.5077 47.2108 36.472 47.2108C36.2935 47.0323 36.1508 46.8181 36.008 46.604C35.7938 46.3184 35.6154 45.9972 35.4726 45.6403C36.2221 45.676 37.0074 45.7116 37.7926 45.676ZM38.0068 33.112C37.7926 32.9336 37.5785 32.7908 37.3286 32.7194C37.0788 32.648 36.7575 32.648 36.472 32.6837C36.2578 32.6837 36.0794 32.7194 35.8652 32.7551C36.1508 32.184 36.5791 31.7557 37.1502 31.3988C37.2572 31.3274 37.4 31.256 37.5071 31.1846C37.5071 31.2203 37.5071 31.256 37.5071 31.256C37.5428 31.3274 37.6142 31.3988 37.6499 31.5058C37.6856 31.6129 37.7569 31.72 37.7926 31.7914C37.8283 31.8628 37.864 31.9698 37.8997 32.0412C37.9354 32.1483 37.9354 32.2554 37.9711 32.3268C38.1139 32.6837 38.2567 33.0763 38.2923 33.5046C38.2567 33.3976 38.1496 33.2548 38.0068 33.112Z" fill="#9DE539"/>
<path d="M42.8598 48.3158C42.8598 48.2801 42.8241 48.2444 42.8241 48.2087C42.8241 48.1373 42.8241 48.1016 42.8241 48.0303C42.7884 47.7804 42.7171 47.5663 42.7171 47.2807C42.6814 47.0309 42.6814 46.7453 42.6457 46.4955C42.61 46.1742 42.5386 45.8173 42.4672 45.4961C42.4672 45.4604 42.4672 45.4604 42.4672 45.4247C42.4315 45.1391 42.4315 44.8893 42.3601 44.6037C42.3601 44.5324 42.3244 44.4967 42.2887 44.461C42.2174 44.1754 42.0746 44.0326 41.8604 43.8899C41.6106 43.7114 41.2893 43.3902 40.9324 43.3188C40.861 43.2474 40.7896 43.2117 40.6826 43.2474C40.6112 43.2474 40.5041 43.2831 40.4327 43.3545C40.3613 43.3902 40.3256 43.4616 40.2899 43.5329C40.2899 43.5329 40.2899 43.5329 40.2899 43.5686C40.2185 43.64 40.2542 43.7114 40.2899 43.7471C40.2185 43.8185 40.1828 43.9256 40.1828 44.0683C40.2185 44.9607 40.3256 45.853 40.397 46.7453C40.397 46.9595 40.397 47.2093 40.4684 47.3878C40.4684 47.4235 40.5041 47.4592 40.5041 47.4949C40.397 47.5663 40.3256 47.6376 40.2185 47.7447C40.0758 47.9232 40.1115 48.1373 40.1472 48.3515C40.1115 48.5657 40.1472 48.7798 40.2185 48.9583C40.1829 49.1011 40.2542 49.2438 40.397 49.2795H40.4327C40.7896 49.6008 41.325 49.458 41.7176 49.2081C41.9675 49.1367 42.1817 49.0654 42.4315 48.994C42.5743 48.9583 42.7171 48.8869 42.7884 48.7441C42.8955 48.637 42.8955 48.4586 42.8598 48.3158Z" fill="#9DE539"/>
<path d="M43.1092 45.4243C43.1092 45.3886 43.0735 45.3886 43.0378 45.3529C43.0021 45.3172 42.9664 45.2815 42.9307 45.2458C42.8593 45.1744 42.7522 45.103 42.6809 45.0317C42.6452 44.996 42.5738 44.996 42.5381 45.0317C42.5024 45.0673 42.5024 45.1387 42.5738 45.1744C42.6452 45.2458 42.7523 45.2815 42.8236 45.3529C42.8593 45.3886 42.895 45.4243 42.9664 45.46C43.0021 45.46 43.0021 45.4957 43.0378 45.4957C43.0735 45.4957 43.0735 45.4957 43.1092 45.5314C43.1449 45.5314 43.1806 45.4957 43.1449 45.46L43.1092 45.4243Z" fill="#9DE539"/>
<path d="M53.5675 43.9607C53.4962 43.7465 53.282 43.6395 53.1035 43.6751C52.9965 43.7108 52.818 43.6751 52.7109 43.6751C52.5681 43.6751 52.4254 43.6751 52.2826 43.6751C52.1398 43.6751 51.9971 43.6751 51.8543 43.6751C51.7829 43.6751 51.6758 43.6751 51.6044 43.7108C51.5687 43.7108 51.5687 43.7108 51.533 43.7465C51.4974 43.7465 51.426 43.7108 51.3903 43.7108C50.7478 43.6395 50.1053 43.5681 49.4629 43.461C48.9275 43.3896 48.3564 43.3182 47.821 43.4253C47.7496 43.3539 47.6782 43.3182 47.5711 43.2825C47.2142 43.2111 46.893 43.1754 46.5717 43.2111C46.5003 43.2111 46.4646 43.2468 46.3933 43.2468C46.2505 43.1398 46.072 43.1041 45.9292 43.2111C45.8222 43.2825 45.6794 43.3896 45.5723 43.461C45.5009 43.5324 45.4295 43.6038 45.3939 43.6751C45.0369 43.7108 44.7514 43.9964 44.6443 44.3533C44.5372 44.7102 44.6086 45.1386 44.6086 45.4955C44.6086 46.2094 44.5015 46.9232 44.3588 47.6371C44.3231 47.7798 44.3588 47.9226 44.3944 48.0654C44.216 48.2439 44.2517 48.6008 44.5729 48.7079C45.1797 48.8863 45.7865 49.279 46.3219 49.6002C46.3933 49.6359 46.429 49.6716 46.5003 49.6716C46.7859 49.9928 47.357 49.9214 47.7496 49.85C48.2493 49.743 48.749 49.4931 49.1416 49.1719C49.6413 48.8149 50.0339 48.3509 50.4266 47.8869C50.5336 47.7442 50.605 47.6371 50.5336 47.4586C50.498 47.3158 50.3552 47.1731 50.2124 47.1374C49.4272 46.9946 48.6419 47.2801 47.8567 47.3515C47.4997 47.3872 47.1071 47.4229 46.7502 47.4943C46.7145 46.7091 46.7502 45.9238 46.6788 45.1386C47.1785 45.1029 47.6782 45.1029 48.1779 45.1029C48.7133 45.1029 49.2844 45.0672 49.8198 45.1743C49.9269 45.1743 49.9983 45.1743 50.0696 45.1743C50.141 45.2813 50.2481 45.317 50.4266 45.317C50.605 45.317 50.8192 45.2813 50.9977 45.2099C51.0333 45.2456 51.069 45.2456 51.069 45.2456C51.3903 45.4241 51.7472 45.2813 52.0328 45.0672C52.2112 44.9244 52.3897 44.7816 52.6038 44.6746C52.818 44.5675 53.0322 44.4604 53.282 44.389C53.4962 44.389 53.6032 44.1749 53.5675 43.9607Z" fill="#9DE539"/>
<path d="M44.2874 44.9952C44.2874 44.9595 44.2874 44.9238 44.2517 44.9238C44.216 44.9238 44.216 44.9238 44.1803 44.9238C44.1803 44.9238 44.1446 44.9238 44.1446 44.9595C44.1089 44.9595 44.1089 44.9952 44.0732 44.9952C44.0375 45.0309 43.9661 45.0666 43.9304 45.1023C43.859 45.1737 43.752 45.2451 43.6806 45.3165C43.6449 45.3521 43.6449 45.3878 43.6806 45.4235C43.7163 45.4592 43.752 45.4592 43.7877 45.4235C43.8234 45.3878 43.859 45.3521 43.8947 45.3165C43.9304 45.3165 43.9304 45.2808 43.9661 45.2808C43.9661 45.2808 44.0018 45.2808 44.0018 45.2451C44.0375 45.2094 44.0732 45.1737 44.1446 45.138C44.1803 45.138 44.1803 45.1023 44.216 45.1023C44.2517 45.0666 44.2874 45.0309 44.2874 44.9952Z" fill="#9DE539"/>
<path d="M28.0223 29.2375C28.0543 29.2055 28.1183 29.1415 28.1503 29.0775C28.1503 29.2055 28.1823 29.3335 28.2143 29.4615C28.2143 29.5255 28.2463 29.5895 28.2783 29.6215C28.2783 29.6535 28.3103 29.6855 28.3103 29.7175C28.3103 29.7495 28.3423 29.7815 28.3743 29.8135L28.4063 29.8455C28.5023 29.9415 28.6303 29.8775 28.6303 29.7495C28.6303 29.7175 28.6303 29.6855 28.6303 29.6215C28.6303 29.5895 28.5983 29.5575 28.5983 29.5255C28.5663 29.4615 28.5663 29.4295 28.5663 29.3655C28.5663 29.3015 28.5343 29.2695 28.5343 29.2055V29.1735C28.5343 29.1415 28.5343 29.1095 28.5343 29.0775C28.5343 28.9815 28.4703 28.9175 28.3743 28.9175C28.3423 28.9175 28.2783 28.9495 28.2783 28.9495C28.2783 28.9175 28.2783 28.8855 28.2783 28.8535C28.2783 28.7575 28.2463 28.6295 28.1823 28.5655C28.1503 28.5335 28.1183 28.5335 28.0543 28.5655C27.9903 28.5975 27.9583 28.6295 27.9263 28.6615C27.9583 28.6615 27.8943 28.6935 27.8623 28.6935C27.8623 28.6935 27.8303 28.6935 27.8303 28.7255C27.7983 28.7575 27.7343 28.7895 27.7023 28.8215L27.6703 28.8535L27.6383 28.8855L27.6063 28.9175C27.5743 28.9175 27.5743 28.9495 27.5423 28.9495C27.4783 28.9815 27.3823 29.0455 27.3183 29.0775C27.2223 29.1415 27.1583 29.1735 27.0623 29.2375C27.0303 29.2695 26.9983 29.2695 26.9663 29.2695C26.9343 29.2695 26.9343 29.2695 26.9023 29.3015C26.8703 29.3015 26.9023 29.3015 26.8703 29.3015C26.8383 29.3015 26.8383 29.3015 26.8063 29.3015C26.8063 29.3015 26.8063 29.3015 26.7743 29.3015C26.7423 29.3015 26.6783 29.2695 26.6783 29.2695C26.6143 29.2375 26.6143 29.2375 26.5823 29.1415C26.5503 29.0775 26.5183 29.0455 26.4543 29.0455C26.4543 29.0135 26.4543 28.9815 26.4543 28.9175C26.1663 28.1495 25.7503 27.4455 25.3983 26.7095C25.0143 25.9095 24.6623 25.1095 24.3423 24.3095C23.7343 22.7095 23.4783 20.9495 23.7023 19.2215C23.7343 19.1895 23.7663 19.1575 23.7343 19.1255C23.7023 18.9655 23.6703 18.8375 23.6063 18.6775C23.5423 18.5495 23.4783 18.4215 23.4463 18.2935C23.3503 18.0055 23.2543 17.7175 23.1903 17.4295C23.1263 17.1415 23.0303 16.8535 22.9983 16.5655C22.9663 16.3415 22.9663 16.0535 22.8383 15.8615C22.8063 15.7975 22.7103 15.8615 22.7423 15.9255C22.8703 16.1495 22.8063 16.5015 22.8063 16.7575C22.8063 17.0455 22.8383 17.3655 22.9023 17.6215C22.9663 17.9095 23.0623 18.1975 23.1583 18.4535C23.2223 18.5815 23.2543 18.7095 23.3183 18.8375C23.3823 18.9335 23.4463 19.0295 23.5423 19.1255C23.1583 20.8535 23.2863 22.5175 23.7663 24.2135C23.9903 25.0455 24.3103 25.8455 24.6623 26.6135C25.0463 27.4455 25.4623 28.3095 25.9743 29.0775C26.0383 29.1415 26.1023 29.1735 26.1983 29.1735C26.1983 29.2055 26.1983 29.2055 26.1983 29.2375C26.2623 29.4615 26.4863 29.6215 26.7103 29.6855C26.8063 29.7175 26.8703 29.7175 26.9663 29.6855C26.9983 29.8775 26.9983 30.0695 26.9663 30.2615C26.9343 30.4535 26.8383 30.6135 26.7743 30.7735C26.7103 30.9655 26.7743 31.1895 26.8703 31.3495C26.9663 31.5095 27.0623 31.6695 27.1903 31.7975C27.4463 32.0535 27.7983 32.1815 28.1503 31.9895C28.4703 31.8295 28.5983 31.4775 28.6623 31.1255C28.6943 30.9015 28.6623 30.6775 28.6303 30.4535C28.6303 30.3575 28.5983 30.2295 28.5663 30.1335C28.5663 30.0695 28.5343 30.0055 28.5343 29.9415C28.5023 29.8775 28.4703 29.8455 28.4383 29.7815C28.4063 29.7495 28.3743 29.7495 28.3423 29.7815C28.3103 29.8775 28.3103 29.9735 28.3103 30.0695C28.3103 30.1655 28.3423 30.2935 28.3423 30.3895C28.3743 30.6135 28.4063 30.8375 28.3743 31.0615C28.3423 31.3495 27.9903 31.7015 27.7023 31.5735C27.5423 31.5095 27.4463 31.3815 27.3503 31.2535C27.2543 31.1255 27.1263 30.9655 27.1583 30.7735C27.2223 30.5815 27.2863 30.3895 27.2863 30.1655C27.2863 29.9735 27.2863 29.7495 27.2223 29.5575C27.3183 29.5255 27.4143 29.4935 27.5103 29.4615C27.6703 29.5255 27.8623 29.3975 28.0223 29.2375Z" fill="#9DE539"/>
<path d="M28.6944 23.8297C28.6304 23.1897 28.5984 22.6137 28.0864 22.1337C27.5744 21.6537 26.9344 21.2377 26.3904 20.7897C26.2944 20.7257 26.1984 20.8537 26.2624 20.9497C26.7424 21.4297 27.2224 21.9097 27.7024 22.3577C27.9584 22.5817 28.1184 22.8057 28.1824 23.1577C28.2464 23.5417 28.2784 23.9257 28.3104 24.3097C28.3744 24.9817 28.4064 25.6857 28.4384 26.3577C28.4384 27.0297 28.3744 27.7017 28.5024 28.3417C28.5024 28.4057 28.5984 28.4057 28.6304 28.3417C28.8864 27.6377 28.8224 26.8697 28.8224 26.1337C28.8224 25.3657 28.7584 24.5977 28.6944 23.8297Z" fill="#9DE539"/>
<path d="M25.9414 19.2222C25.8774 18.9342 25.8454 18.6142 25.7814 18.3262C25.7494 18.2302 25.5894 18.2302 25.5894 18.3582C25.6214 18.6782 25.6534 18.9662 25.6854 19.2862C25.7174 19.4462 25.7174 19.5742 25.7494 19.7342C25.7494 19.8302 25.7494 19.8942 25.7814 19.9582C25.8134 20.0222 25.8134 20.0862 25.8774 20.1502C25.9094 20.1822 25.9734 20.1822 26.0054 20.1182C26.0374 20.0542 26.0374 19.9902 26.0374 19.8942C26.0374 19.7982 26.0374 19.7342 26.0054 19.6702C25.9734 19.5102 25.9734 19.3822 25.9414 19.2222Z" fill="#9DE539"/>
<path d="M26.4851 19.3186C26.4531 19.1906 26.4211 19.0306 26.3891 18.9026C26.3251 18.6146 26.3251 18.3266 26.3251 18.0706C26.3251 17.9426 26.1331 17.9426 26.1331 18.0706C26.1011 18.3586 26.0691 18.6466 26.1011 18.9666C26.1011 19.1266 26.1331 19.2546 26.1651 19.4146C26.1651 19.5106 26.1971 19.5746 26.2611 19.6386C26.2931 19.7026 26.3571 19.7346 26.4211 19.7666C26.4531 19.7666 26.4851 19.7666 26.4851 19.7346C26.5171 19.6706 26.5171 19.6386 26.5491 19.5746C26.5491 19.5106 26.5811 19.4786 26.5491 19.4146C26.5171 19.3826 26.4851 19.3506 26.4851 19.3186Z" fill="#9DE539"/>
<path d="M25.3334 14.6155C25.3334 14.5515 25.3014 14.5195 25.3014 14.4555C25.3014 14.3915 25.2694 14.3595 25.2694 14.2955C25.2054 14.1355 25.1094 14.0075 24.9814 13.9115C24.9174 13.8475 24.8534 13.8155 24.7894 13.7835C24.6614 13.7195 24.5654 13.7195 24.4374 13.7515C24.4054 13.7515 24.4054 13.7515 24.4054 13.7835C24.3734 13.7835 24.3734 13.7515 24.3414 13.7515C24.1814 13.7515 24.0214 13.8475 23.9574 13.9755C23.9254 14.0395 23.8934 14.1355 23.8934 14.1995C23.8934 14.2635 23.9254 14.3275 23.9254 14.3595C23.8614 14.5515 23.8934 14.7755 23.9894 14.9355C24.1174 15.1915 24.3734 15.3515 24.6614 15.3835C24.9174 15.4155 25.2054 15.2875 25.3334 15.0635C25.3334 14.9035 25.3334 14.7435 25.3334 14.6155ZM24.9814 14.8075C24.9814 14.8395 24.9814 14.8715 24.9494 14.8715C24.9494 14.9035 24.9174 14.9035 24.9174 14.9355C24.9174 14.9355 24.9174 14.9355 24.8854 14.9675C24.8534 14.9995 24.8534 14.9995 24.8214 15.0315L24.7894 15.0635L24.7254 15.0955C24.6934 15.0955 24.6614 15.1275 24.6294 15.1275C24.4694 15.1275 24.2774 15.0635 24.1494 14.9355C24.0534 14.8395 24.0214 14.7435 23.9894 14.6155C24.0214 14.6155 24.0534 14.6475 24.0534 14.6475C24.1494 14.6795 24.2134 14.6795 24.3094 14.6475C24.3734 14.6475 24.4694 14.5835 24.5334 14.5515C24.5654 14.5195 24.5974 14.4875 24.6294 14.4235C24.6294 14.4235 24.6614 14.4235 24.6614 14.4555L24.6934 14.4875C24.6934 14.4875 24.7254 14.4875 24.7254 14.5195C24.7574 14.5515 24.7894 14.5835 24.8214 14.6155L24.8534 14.6475L24.8854 14.6795V14.7115C24.8854 14.7435 24.8854 14.7435 24.9174 14.7755C24.9174 14.8075 24.9174 14.8075 24.9174 14.8395C24.9814 14.7755 24.9814 14.7755 24.9814 14.8075Z" fill="#9DE539"/>
<path d="M30.325 15.1596C30.357 15.1276 30.293 15.0636 30.261 15.0956C30.229 15.1276 30.165 15.1596 30.101 15.1916C30.069 15.1916 30.037 15.2236 30.005 15.2236C30.005 15.2236 30.005 15.2236 29.973 15.2236C29.973 15.2236 29.941 15.2236 29.909 15.2556C29.877 15.2556 29.845 15.2876 29.877 15.3196C29.877 15.3516 29.909 15.3836 29.941 15.3516C30.101 15.3516 30.229 15.2876 30.325 15.1596Z" fill="#9DE539"/>
<path d="M21.5247 15.5758C21.4927 15.5438 21.4287 15.5758 21.4287 15.6078C21.4287 15.6398 21.4287 15.6718 21.4287 15.7038C21.4287 15.7358 21.4287 15.7998 21.4607 15.8318C21.4927 15.8638 21.4927 15.8958 21.5247 15.9278C21.5567 15.9598 21.5567 15.9598 21.5887 15.9918C21.6847 16.0878 21.8127 16.1518 21.9407 16.1838C22.0047 16.1838 22.0687 16.1518 22.0687 16.1198C22.0687 16.0558 22.0367 15.9918 22.0047 15.9918C21.9727 15.9918 21.9407 15.9918 21.9407 15.9598C21.9407 15.9598 21.9087 15.9598 21.9087 15.9278C21.8767 15.9278 21.8767 15.8958 21.8447 15.8958L21.8127 15.8638C21.7807 15.8318 21.7807 15.8318 21.7487 15.7998C21.7487 15.7998 21.7487 15.7678 21.7167 15.7678C21.6847 15.7358 21.6847 15.7358 21.6527 15.7038C21.5567 15.6078 21.5247 15.5758 21.5247 15.5758Z" fill="#9DE539"/>
<path d="M20.4363 17.5919C20.4043 17.5919 20.4043 17.5599 20.3723 17.5599C20.3723 17.5599 20.3403 17.5599 20.3403 17.5279C20.3403 17.5279 20.3083 17.4959 20.2763 17.4959C20.2443 17.4959 20.2123 17.4639 20.1483 17.4639C20.1163 17.4639 20.0523 17.4639 20.0523 17.4959C20.0203 17.5279 20.0523 17.5599 20.0523 17.5919C20.0843 17.6239 20.1163 17.6559 20.1483 17.6879C20.1803 17.7199 20.1803 17.7199 20.2123 17.7519C20.2443 17.7519 20.2443 17.7839 20.2763 17.7839C20.3403 17.8479 20.4043 17.8799 20.5003 17.9439C20.5323 17.9759 20.5643 17.9759 20.5963 17.9439C20.6283 17.9439 20.6603 17.9119 20.6603 17.8799C20.6923 17.8159 20.6603 17.7519 20.6283 17.6879C20.5643 17.6879 20.5003 17.6239 20.4363 17.5919Z" fill="#9DE539"/>
<path d="M36.9165 29.304C36.6285 28.76 35.8925 29.176 35.4445 28.92C34.9645 28.664 34.4525 28.088 34.1325 27.672C33.7165 27.128 33.3965 26.488 33.3965 25.784C33.3965 25.144 33.6525 24.632 34.0685 24.152C34.8045 23.288 35.7645 22.648 36.2445 21.592C36.6925 20.6 36.7565 19.416 36.2125 18.424C35.6365 17.4 34.4525 16.792 33.2685 16.92C33.2365 16.92 33.2045 16.952 33.1725 16.952C32.9485 16.28 32.6605 15.64 32.2125 15.096C31.5725 14.328 30.6765 13.816 30.0365 13.016C29.5565 12.408 28.9485 11.64 28.1485 11.736C28.1485 11.704 28.1805 11.672 28.1805 11.608C28.1805 11.544 28.1485 11.48 28.1165 11.448C28.3405 11.032 28.2765 10.424 28.1485 10.008C28.1165 9.87997 28.0525 9.78397 28.0205 9.68797C28.0205 9.68797 28.0205 9.68796 28.0205 9.65596C27.9885 9.49596 27.9245 9.39996 27.8285 9.30396C27.7645 9.20796 27.7005 9.11196 27.6365 9.01596C27.4125 8.72796 27.2205 8.43996 26.9645 8.18396C26.7085 7.95996 26.4205 7.76796 26.1005 7.70396C25.7165 7.63996 25.3325 7.73596 24.9805 7.86396C24.3085 8.11996 23.7965 8.59997 23.5725 9.27197C23.2845 10.104 23.5405 10.968 23.9245 11.736C23.9565 11.8 23.9885 11.832 24.0525 11.864C24.0205 12.024 24.0845 12.184 24.2765 12.248C25.0445 12.536 25.8125 12.728 26.6445 12.6C26.9645 12.536 27.2845 12.44 27.5725 12.28C27.7005 12.216 27.8285 12.12 27.9565 12.024C27.9565 12.024 27.9565 12.024 27.9885 12.024C28.1805 11.96 28.3405 11.96 28.4685 11.96C28.6285 13.72 28.9165 15.48 28.8525 17.24C28.0205 17.208 27.1885 17.304 26.3885 17.336C26.0045 17.368 25.6525 17.368 25.2685 17.4C25.3325 17.4 25.3965 17.368 25.4925 17.336C25.5245 17.336 25.5885 17.304 25.6205 17.304C25.6525 17.304 25.6845 17.304 25.7165 17.272C25.8765 17.272 26.0685 17.208 26.1645 17.048C26.2605 16.92 26.3245 16.728 26.2285 16.6C26.1965 16.568 26.1965 16.536 26.1645 16.536C26.1965 16.472 26.2285 16.44 26.2285 16.376C26.2925 16.152 26.1965 15.928 26.0365 15.768C25.9725 15.736 25.9085 15.704 25.8445 15.672C25.9405 15.416 25.9405 15.128 25.9405 14.84C25.9405 14.68 25.8125 14.552 25.6525 14.52C25.4925 14.488 25.3325 14.584 25.3005 14.744C25.3005 14.776 25.3005 14.808 25.2685 14.808V14.84C25.2365 14.872 25.2365 14.904 25.2045 14.936C25.1725 14.968 25.1725 14.968 25.1405 15C25.1085 15.032 25.0765 15.064 25.0445 15.096C25.0125 15.096 25.0125 15.128 24.9805 15.128C24.9485 15.128 24.9485 15.16 24.9165 15.16C24.9165 15.16 24.9165 15.16 24.8845 15.16C24.8525 15.16 24.8525 15.16 24.8205 15.192H24.7885C24.7565 15.16 24.6925 15.16 24.6605 15.128C24.6285 15.096 24.5965 15.096 24.5645 15.064C24.5325 15.032 24.5325 15.032 24.5005 15C24.4365 14.936 24.3405 14.904 24.2445 14.872V14.84C24.2125 14.712 24.1805 14.616 24.1805 14.488C24.1805 14.456 24.1805 14.424 24.1805 14.392C24.2765 14.296 24.3405 14.2 24.3405 14.04V14.008C24.3405 14.008 24.3725 14.008 24.3725 13.976L24.4045 13.944C24.6285 14.008 24.8205 13.848 24.8525 13.656L24.8845 13.688C24.9485 13.752 25.0445 13.816 25.1085 13.88C25.2045 13.944 25.3005 14.008 25.3965 14.072C25.5245 14.136 25.6845 14.104 25.7485 13.944C25.7485 13.912 25.7805 13.88 25.7485 13.848C25.8765 13.912 26.0365 13.976 26.1645 13.944C26.3565 13.912 26.5485 13.752 26.7085 13.624C26.9325 13.464 27.1245 13.304 27.3485 13.144C27.5405 12.984 27.7325 12.856 27.9245 12.696C28.1165 12.536 28.3085 12.376 28.4365 12.184C28.4685 12.152 28.4045 12.12 28.3725 12.12C28.2125 12.216 28.0525 12.376 27.9245 12.504C27.7645 12.632 27.6045 12.792 27.4445 12.92C27.2525 13.08 27.0605 13.208 26.8685 13.368C26.6765 13.496 26.4845 13.656 26.2925 13.72C26.0365 13.816 25.8445 13.624 25.6525 13.464C25.4605 13.304 25.2685 13.144 25.0445 12.984C24.6925 12.696 24.3405 12.376 23.9885 12.056H23.9565C24.0525 11.992 24.0205 11.832 23.8925 11.832C22.9005 11.768 22.0045 12.344 21.4925 13.176C21.2045 13.624 21.0765 14.136 20.9165 14.648C20.6925 15.256 20.1165 15.544 19.8285 16.088C19.5085 16.632 19.2525 17.176 18.9645 17.72C18.6765 18.232 18.3565 18.776 18.2605 19.384C18.1325 20.12 18.5485 21.112 19.4445 21.016C19.8605 20.984 20.1805 20.664 20.3085 20.28C20.4045 19.96 20.4685 19.512 20.2765 19.192V19.16C20.2445 19 20.4365 18.872 20.5325 18.776C20.6605 18.648 20.7565 18.52 20.8525 18.392C21.0765 18.104 21.2685 17.816 21.4605 17.496C21.6525 17.176 21.8765 16.888 22.1005 16.6C22.1965 16.472 22.3245 16.344 22.4525 16.216C22.5485 16.088 22.6765 15.992 22.7085 15.832C22.7085 15.8 22.6765 15.768 22.6445 15.768C22.3245 15.832 22.1005 16.248 21.9085 16.504L21.8765 16.536C21.8445 16.504 21.7805 16.44 21.7485 16.44C21.7165 16.44 21.6845 16.408 21.6525 16.408C21.6205 16.376 21.5885 16.376 21.5245 16.344C21.4925 16.312 21.4925 16.312 21.4605 16.312C21.4285 16.312 21.4285 16.28 21.3965 16.28C21.3645 16.28 21.3645 16.248 21.3325 16.248C21.3325 16.248 21.3005 16.248 21.3005 16.216C21.1085 16.344 21.0765 16.344 21.0765 16.344C21.0445 16.344 20.9805 16.376 20.9805 16.408C20.9485 16.472 20.9805 16.568 20.9805 16.632C20.9805 16.664 21.0125 16.728 21.0125 16.76C21.0445 16.792 21.0765 16.824 21.1085 16.856C21.2045 16.952 21.3325 17.016 21.4925 17.08C21.3645 17.272 21.2365 17.464 21.1085 17.656C20.8525 17.976 20.6285 18.296 20.3405 18.552C20.0845 18.808 19.7325 19.032 19.7965 19.448C19.7965 19.512 19.8285 19.544 19.8605 19.576C19.8925 19.896 20.0205 20.216 19.8605 20.536C19.5085 21.208 18.7405 20.792 18.5805 20.216C18.4205 19.608 18.7725 19.032 18.9965 18.52C19.2525 17.976 19.5085 17.4 19.7645 16.856C19.8925 16.6 19.9885 16.344 20.1485 16.12C20.3085 15.896 20.5325 15.736 20.7245 15.512C21.0445 15.192 21.1405 14.776 21.2685 14.36C21.6205 13.4 22.3245 12.472 23.3485 12.28V12.312C23.0605 13.24 22.9325 14.168 22.9965 15.128C23.0285 16.024 23.1885 17.048 23.6045 17.848C23.6365 17.912 23.7325 17.944 23.7965 17.944C24.2445 17.88 24.6925 17.88 25.1405 17.88C25.5885 17.848 26.0365 17.848 26.4845 17.816C27.3165 17.784 28.1805 17.784 29.0125 17.656C29.0765 17.656 29.1085 17.56 29.1085 17.496C28.9805 16.568 28.9485 15.576 28.8525 14.648C28.7885 13.816 28.7245 12.984 28.5965 12.152C29.2685 12.344 29.7165 13.24 30.1645 13.72C30.7405 14.36 31.4765 14.84 31.9885 15.512C32.5965 16.28 32.7565 17.304 32.9485 18.2C33.0765 18.712 33.1405 19.192 33.2365 19.704C33.3005 19.992 33.4285 20.248 33.3645 20.536C33.3325 20.76 33.2365 21.016 33.1405 21.208C33.1405 21.24 33.1405 21.272 33.1405 21.304C33.0445 21.304 32.9485 21.336 32.9165 21.464C32.9165 21.464 32.8205 21.176 32.7885 21.144C32.7565 21.016 32.7245 20.856 32.6925 20.728C32.5965 20.504 32.4685 20.248 32.2765 20.088C32.1805 19.992 32.0525 19.96 31.9245 19.992C31.8285 20.024 31.7645 20.152 31.7325 20.248C31.6045 19.832 31.5085 19.448 31.4445 19.032C31.3485 18.552 31.4125 18.008 31.2845 17.528C31.1885 17.08 30.9005 16.792 30.6125 16.472C30.2605 16.088 29.8765 15.704 29.5245 15.32C29.3965 15.192 29.2045 15.384 29.3325 15.512C29.6525 15.864 29.9405 16.216 30.2605 16.6C30.5805 16.984 30.9325 17.336 31.0285 17.848C31.1245 18.296 31.1245 18.744 31.1885 19.192C31.2525 19.672 31.3805 20.12 31.5085 20.568C31.5405 20.664 31.6045 20.696 31.7005 20.664C31.9565 20.632 31.9245 20.408 32.0525 20.248C32.1805 20.056 32.3725 20.472 32.4365 20.6C32.5325 20.824 32.5325 21.016 32.5325 21.24C32.5325 21.496 32.5965 21.752 32.8525 21.88C33.1085 21.976 33.3645 21.88 33.4285 21.624C33.4285 21.56 33.4285 21.528 33.4285 21.496C33.5245 21.496 33.5885 21.464 33.6205 21.336C33.6525 21.112 33.6845 20.888 33.6845 20.696C33.6845 20.376 33.7805 20.12 33.8125 19.8C33.8765 19.256 33.7165 18.68 33.5885 18.136C33.5245 17.944 33.4925 17.72 33.4285 17.528H33.4605C34.6125 17.4 35.7005 18.232 36.0205 19.32C36.3405 20.504 35.8285 21.72 34.9965 22.584C34.2605 23.32 33.3325 23.928 32.9805 24.984C32.5645 26.168 33.0765 27.416 33.8125 28.312C34.1965 28.792 34.7085 29.336 35.2845 29.624C35.5405 29.752 35.8285 29.784 36.1165 29.752C36.4045 29.72 36.7245 29.752 37.0125 29.592C36.9485 29.464 36.9805 29.368 36.9165 29.304ZM27.6365 11.16C27.6045 11.32 27.5725 11.48 27.5405 11.64V11.672C27.4445 11.736 27.3165 11.8 27.2205 11.864C26.9645 11.992 26.6765 12.024 26.3885 12.056C25.7165 12.088 25.0765 11.896 24.4685 11.704C24.4685 11.64 24.4685 11.544 24.4365 11.48C24.2445 11.064 24.0845 10.584 24.0525 10.104C24.3405 9.94396 24.6285 9.81597 24.9165 9.75197C24.9485 9.75197 24.9805 9.75197 25.0125 9.75197C25.3005 9.75197 25.6845 9.78396 25.9085 9.55996C26.0045 9.55996 26.1005 9.55996 26.1965 9.55996C26.3885 9.59196 26.6125 9.68797 26.8045 9.75197C26.9965 9.84797 27.2525 9.94396 27.4765 9.97596C27.5725 10.2 27.6685 10.424 27.6685 10.68C27.6685 10.84 27.6685 11 27.6365 11.16Z" fill="#9DE539"/>
<path d="M25.3336 20.4065C25.3016 20.3425 25.2696 20.3105 25.2376 20.2785C25.1736 20.2145 25.1096 20.1505 25.0456 20.0865C24.8856 19.9585 24.7576 19.8625 24.6296 19.7025C24.5656 19.6385 24.5016 19.5745 24.4376 19.5105C24.4056 19.4785 24.3736 19.4465 24.3416 19.4145C24.3416 19.3825 24.3096 19.3825 24.3096 19.3505C24.3096 19.3505 24.3096 19.3185 24.2776 19.3185C24.1816 19.1585 24.0856 18.9985 23.9896 18.8385C23.9576 18.7425 23.7976 18.7105 23.7016 18.7425C23.6056 18.7745 23.5096 18.9025 23.5736 19.0305C23.5736 19.0625 23.6056 19.1265 23.6376 19.1585C23.5736 19.1905 23.5416 19.2545 23.5416 19.3185C23.5416 19.3505 23.5416 19.3825 23.5416 19.4465V19.4785C23.5416 19.5105 23.5096 19.5745 23.5096 19.6065C23.4136 19.7345 23.4136 19.8625 23.3816 19.9585C23.3816 20.0225 23.3816 20.0865 23.3816 20.1505C23.3816 20.2785 23.3496 20.3745 23.3496 20.5025C23.3496 20.5985 23.3816 20.6625 23.4456 20.7265V20.7585C23.4456 20.7905 23.4456 20.8225 23.4456 20.8545C23.6056 21.1105 23.8296 21.3345 24.1176 21.4945C24.2456 21.5905 24.4056 21.6545 24.5336 21.6865C24.5976 21.6865 24.6296 21.7185 24.6936 21.7185C24.7576 21.8465 24.9496 21.8785 25.0456 21.7825C25.0776 21.7505 25.1096 21.7185 25.1416 21.6865C25.2056 21.6225 25.2056 21.5585 25.2376 21.4625C25.2696 21.3665 25.3016 21.2705 25.3016 21.2065C25.3336 21.0465 25.3976 20.8545 25.4296 20.6625C25.4936 20.5665 25.4616 20.4385 25.3336 20.4065Z" fill="#9DE539"/>
<path d="M30.423 16.053C30.519 16.021 30.615 15.989 30.711 15.925C30.743 15.893 30.775 15.893 30.839 15.861C30.871 15.861 30.871 15.829 30.903 15.829L30.935 15.797C30.967 15.765 30.967 15.765 30.967 15.733C30.999 15.701 31.031 15.669 31.031 15.637C31.063 15.605 30.999 15.541 30.967 15.541C30.935 15.541 30.871 15.573 30.839 15.573C30.807 15.573 30.775 15.573 30.743 15.605C30.711 15.605 30.711 15.637 30.679 15.637C30.647 15.669 30.615 15.669 30.551 15.701C30.519 15.733 30.487 15.733 30.423 15.765H30.391C30.359 15.765 30.359 15.797 30.327 15.797C30.263 15.829 30.231 15.893 30.231 15.957C30.295 16.021 30.359 16.085 30.423 16.053Z" fill="#9DE539"/>
<path d="M31.5109 16.15C31.4789 16.182 31.4789 16.182 31.4469 16.214C31.4469 16.214 31.4469 16.214 31.4149 16.214C31.4149 16.214 31.3829 16.214 31.3829 16.246C31.3509 16.278 31.3189 16.278 31.2869 16.31L31.2549 16.342C31.2549 16.342 31.2549 16.342 31.2229 16.342C31.1909 16.374 31.1589 16.374 31.1589 16.374C31.1589 16.374 31.1269 16.374 31.1269 16.406C31.0949 16.406 31.0629 16.438 31.0309 16.438H30.9989H30.9669C30.8709 16.438 30.8069 16.502 30.8389 16.598C30.8389 16.63 30.8709 16.662 30.9029 16.694C30.9349 16.726 30.9669 16.726 31.0309 16.726C31.1909 16.694 31.3189 16.63 31.4149 16.566C31.4469 16.534 31.4789 16.534 31.5109 16.502C31.5429 16.47 31.5429 16.47 31.5749 16.438C31.5749 16.406 31.6069 16.406 31.6069 16.374C31.6389 16.31 31.6389 16.246 31.6389 16.182C31.6069 16.15 31.5429 16.118 31.5109 16.15Z" fill="#9DE539"/>
<path d="M28.1827 17.654C28.4387 17.622 28.7267 17.558 28.8867 17.334C29.1107 17.078 29.0467 16.726 28.8227 16.566C28.8547 16.502 28.8547 16.438 28.8547 16.374C28.8867 15.638 28.7907 14.902 28.6947 14.166C28.5987 13.462 28.5347 12.758 28.4067 12.054C28.4067 11.99 28.2787 11.99 28.2467 12.022C28.2147 12.086 28.1827 12.15 28.1507 12.214C28.1187 12.214 28.0867 12.246 28.0547 12.278C27.9587 12.31 27.9267 12.374 27.8947 12.47C27.8947 12.502 27.8947 12.502 27.8627 12.566C27.7987 12.662 27.7667 12.694 27.7027 12.758C27.6387 12.822 27.5747 12.886 27.4467 12.918C27.3507 12.95 27.2547 13.014 27.1587 13.046C26.9347 13.142 26.7747 13.334 26.6147 13.526C26.5507 13.622 26.4547 13.718 26.3907 13.814C26.2307 13.91 26.0387 14.006 25.9427 13.878C25.8467 13.782 25.6867 13.782 25.5907 13.846C25.5587 13.846 25.5267 13.846 25.4627 13.846C25.4627 13.846 25.4627 13.846 25.4627 13.814C25.2707 13.622 24.9827 13.878 25.1107 14.102C25.1107 14.134 25.1427 14.166 25.1427 14.166C25.1427 14.23 25.1427 14.262 25.1427 14.326C25.2067 14.55 25.2387 14.774 25.3027 14.966C25.3667 15.126 25.4947 15.222 25.6547 15.222C25.5907 15.382 25.5587 15.542 25.5267 15.702C25.4947 15.798 25.5267 15.894 25.5267 15.99C25.4947 16.086 25.4307 16.182 25.3987 16.31C25.3667 16.406 25.2707 16.566 25.2067 16.694C25.0467 16.918 24.9507 17.174 25.1427 17.43C25.3347 17.686 25.6227 17.622 25.9107 17.558C26.1347 17.494 26.3267 17.462 26.5507 17.462C26.8707 17.43 27.1907 17.366 27.5107 17.302C27.7027 17.59 27.8947 17.686 28.1827 17.654Z" fill="#9DE539"/>
<path d="M28.0225 29.1094C27.9585 29.1094 27.9265 29.1094 27.8625 29.1094C27.8305 29.1414 27.7665 29.1414 27.7345 29.1734C27.7665 29.1734 27.7665 29.1734 27.7025 29.1734C27.6065 29.2054 27.5105 29.2374 27.3825 29.2694C27.1905 29.3014 27.0305 29.5574 27.0945 29.7494C27.0945 29.7814 27.1265 29.8454 27.1585 29.8774C27.1265 29.9414 27.1265 30.0054 27.1265 30.0374C27.1585 30.1654 27.1265 30.3254 27.1265 30.4534C27.0625 30.4854 26.9985 30.5494 26.9345 30.6134C26.6465 30.9654 26.8385 31.4454 27.1265 31.7654C27.2545 31.8934 27.4145 31.9894 27.6065 32.0854C27.8305 32.1814 28.1505 32.0854 28.2785 31.8614C28.3745 31.7014 28.3425 31.5094 28.2465 31.3494C28.3425 31.1254 28.3105 30.8374 28.3105 30.5814C28.3105 30.1974 28.3105 29.7814 28.3425 29.3974C28.4065 29.2054 28.2145 29.0774 28.0225 29.1094Z" fill="#9DE539"/>
<path d="M31.0944 25.9414C31.2224 25.1094 31.3504 24.2454 31.4464 23.4134C31.5424 22.7094 31.5744 21.8774 31.2544 21.2054C31.0944 20.8854 30.8384 20.5974 30.5824 20.3094C30.2624 19.9574 29.9744 19.6054 29.6544 19.2214L29.6224 19.1894C29.7184 19.0294 29.8144 18.8694 29.9104 18.7094C30.0064 18.5494 30.0704 18.4214 30.1984 18.2934C30.4224 18.0694 30.7104 17.9734 30.9984 17.8454C31.0944 17.8134 31.1584 17.7174 31.1264 17.6214C31.0944 17.5254 30.9984 17.4614 30.9024 17.4934C30.5504 17.5894 30.2304 17.7494 29.9744 18.0054C29.8464 18.1334 29.7504 18.2934 29.6544 18.4534C29.6864 18.1334 29.7184 17.8454 29.7184 17.5254C29.7504 16.9494 29.7184 16.3734 29.5904 15.8294C29.5584 15.7334 29.4304 15.7654 29.4304 15.8614C29.4944 16.4054 29.4944 16.9814 29.4304 17.5254C29.3664 18.0694 29.2384 18.6134 29.1424 19.1574V19.1894C29.0784 19.2214 29.0144 19.2534 28.9824 19.3174C28.8864 19.4134 28.7904 19.5094 28.6944 19.6054C28.5024 19.7974 28.3424 19.9894 28.1824 20.1814C27.8624 20.5974 27.6384 21.1094 27.4784 21.6214C27.4144 21.8774 27.7664 21.9734 27.8624 21.7174C28.0224 21.2694 28.2784 20.8534 28.5344 20.4374C28.6624 20.2454 28.7904 20.0534 28.9504 19.8614C29.0144 19.7654 29.1104 19.6694 29.2064 19.6054C29.2384 19.5734 29.3024 19.5414 29.3344 19.4774C29.8144 20.1174 30.3584 20.7254 30.7424 21.3974C31.0944 22.0694 30.9984 22.8694 30.9984 23.6054C30.9984 24.4054 30.8704 25.1734 30.6464 25.9414C30.5504 26.3254 30.4224 26.7094 30.3264 27.1254C30.2304 27.4134 30.1024 27.7014 30.1344 27.9894C29.9744 27.9574 29.8144 27.9894 29.7184 28.1174C29.6544 28.1814 29.6224 28.2134 29.5904 28.2774C29.5584 28.2774 29.5584 28.2774 29.5264 28.2774C29.3984 28.2774 29.3024 28.1814 29.2064 28.0854C29.1104 27.9894 29.0144 27.8614 28.9184 27.7334C28.8544 27.6374 28.7264 27.6054 28.6624 27.6694C28.5664 27.7334 28.5664 27.8614 28.6304 27.9254C28.7264 28.0534 28.8224 28.1494 28.9504 28.2454C28.7584 28.5334 28.5984 28.8534 28.7584 29.1734C28.8224 29.3334 28.9184 29.4614 28.9824 29.6214C29.0464 29.7814 29.1104 29.9734 29.1424 30.1334C29.2064 30.4214 29.1424 30.8374 29.4944 30.9334C29.8464 31.0294 30.2304 30.9974 30.5824 30.9334C30.6144 30.9334 30.6144 30.8694 30.5824 30.8694C30.5504 30.8694 30.5504 30.8694 30.5184 30.8694C30.7104 30.8374 30.8704 30.7094 30.9984 30.5494C30.9984 30.5814 31.0304 30.5814 31.0624 30.5814C31.1904 30.5814 31.2544 30.5494 31.2864 30.4214C31.3504 30.3254 31.3824 30.2294 31.3824 30.1334C31.4144 29.9094 31.4144 29.6854 31.3824 29.4614C31.3184 29.2054 31.1904 29.0134 31.0304 28.8214C30.9024 28.6294 30.7424 28.4374 30.6784 28.2134C30.6464 28.1174 30.5504 28.0534 30.4864 28.0534C30.7104 27.7974 30.7744 27.4134 30.8704 27.0934C30.9344 26.8054 31.0304 26.3574 31.0944 25.9414Z" fill="#9DE539"/>
<path d="M33.3345 19.0294C33.3025 18.9974 33.3025 18.9654 33.2705 18.9334C33.2705 18.8054 33.2705 18.7094 33.2705 18.5814C33.2385 18.3894 33.1745 18.2294 33.1425 18.0374C33.0465 17.7174 32.9185 17.3654 32.7905 17.0454C32.6625 16.6934 32.5025 16.3734 32.3105 16.0854C32.1825 15.7334 31.9905 15.4134 31.7985 15.0934C31.7025 14.9334 31.5425 14.8054 31.3825 14.7414C30.8705 14.1334 30.2945 13.5894 29.6865 13.1094C29.6865 13.0774 29.6865 13.0774 29.6865 13.0454C29.6545 12.9814 29.6545 12.9174 29.6225 12.8534C29.6225 12.8214 29.6225 12.7574 29.6225 12.7254C29.4945 12.5014 29.3665 12.3734 29.1745 12.2454C29.0785 12.1814 28.9825 12.1174 28.8865 12.0534C28.8545 12.0534 28.8225 12.0214 28.8225 12.0214C28.6945 11.9574 28.5985 11.8934 28.4705 11.8614C28.2785 11.7974 28.0225 11.8614 27.8625 12.0214C27.8305 12.0214 27.7985 12.0214 27.7985 12.0214C27.6705 12.0534 27.5425 12.0854 27.3825 12.1494C27.2545 12.1814 27.1265 12.2134 26.9665 12.2454C26.9665 12.2454 26.9665 12.2454 26.9345 12.2454C26.9025 12.2454 26.8385 12.2454 26.8065 12.2454C26.7425 12.2454 26.6785 12.2454 26.6145 12.2454C26.5505 12.2454 26.4545 12.2454 26.3905 12.2454C26.3585 12.2454 26.2945 12.2454 26.2625 12.2454C26.2625 12.2454 26.2625 12.2454 26.2305 12.2454C26.0385 12.2134 25.8465 12.2454 25.6865 12.3734C25.6225 12.4374 25.5905 12.5334 25.5585 12.5974C25.3985 12.5334 25.2065 12.5014 25.0465 12.4694C24.9185 12.4374 24.8225 12.4054 24.6945 12.3734C24.6625 12.3094 24.5985 12.2454 24.5665 12.1814C24.2785 11.7974 23.7345 11.8934 23.4465 12.2134C23.3505 12.1814 23.2865 12.2134 23.1905 12.2134C23.1905 12.2134 23.1585 12.2134 23.1585 12.2454C22.9345 12.2134 22.6785 12.2774 22.5505 12.4374C22.4865 12.5014 22.4545 12.5974 22.4225 12.6614C22.3265 12.6934 22.1985 12.7254 22.1025 12.7894C22.0385 12.8214 21.9745 12.8854 21.9425 12.9174C21.8785 12.9814 21.8465 13.0454 21.8145 13.0774L21.7825 13.1094C21.7825 13.1414 21.7505 13.1414 21.7505 13.1734C21.7185 13.2374 21.7185 13.2694 21.7185 13.3334V13.3654V13.3974C21.5585 13.6214 21.3985 13.9094 21.2705 14.1654C21.0465 14.6134 20.7905 15.0614 20.5345 15.5094C20.4705 15.5414 20.4065 15.5734 20.3425 15.6374C20.0865 15.9574 19.8945 16.3094 19.7345 16.6934C19.5425 16.8854 19.4145 17.2054 19.2865 17.4294C19.1265 17.7494 18.9665 18.0374 18.8065 18.3574C18.6465 18.6774 18.4545 18.9974 18.3905 19.3174C18.2945 19.7654 18.3585 20.1814 18.6145 20.5014C18.7105 20.6934 18.8705 20.8854 19.0945 20.9174C19.4785 21.0134 19.8625 20.7894 19.9585 20.4374C19.9905 20.3094 20.0225 20.1814 20.0225 20.0534C20.0545 19.9574 20.0545 19.8614 20.0545 19.7654C20.0545 19.6054 19.9905 19.4774 19.8945 19.3494C19.9585 19.2214 19.9905 19.0934 20.0545 18.9654C20.0865 18.9334 20.1185 18.9014 20.1505 18.8694C20.1825 18.8694 20.1825 18.8374 20.2145 18.8054C20.2465 18.7734 20.2785 18.7414 20.3105 18.6774C20.3105 18.6774 20.3105 18.6454 20.3425 18.6454C20.4385 18.5494 20.5025 18.4214 20.5665 18.3254C20.7265 18.3254 20.8545 18.2294 20.9825 18.0694C21.3025 17.5574 21.5905 17.0774 21.9105 16.5654C21.9745 16.4694 22.0385 16.3734 22.0705 16.3094C22.1345 16.2454 22.1985 16.2134 22.2945 16.1494C22.3905 16.0854 22.4865 16.0534 22.5825 15.9894C22.6145 15.9574 22.7425 15.9574 22.8065 15.9254C22.8385 15.9574 22.8385 15.9894 22.8705 16.0214C22.9025 16.0854 22.9665 16.1174 23.0305 16.1494C23.0305 16.1814 23.0305 16.2134 23.0305 16.2454C22.9985 16.3414 22.9345 16.4374 22.9345 16.5334C22.8065 17.6214 23.2865 18.6134 23.7665 19.5734C23.8625 19.7974 23.9905 19.9894 24.0865 20.2134C24.0545 20.2454 24.0225 20.2454 23.9905 20.2774C23.8625 20.3414 23.7665 20.4374 23.7025 20.6294C23.5105 21.3334 23.7025 22.0054 23.8625 22.6774C24.0225 23.3174 24.1505 23.9894 24.3745 24.5974C24.8225 25.9414 25.4305 27.2214 26.1025 28.4374C26.1345 28.5014 26.1665 28.5654 26.2305 28.5974C26.2305 28.6934 26.2625 28.7574 26.2945 28.8534C26.2945 28.8854 26.3265 28.8854 26.3265 28.8854C26.3265 28.8854 26.3265 28.8854 26.3265 28.9174C26.3265 28.9494 26.3265 28.9494 26.3585 28.9814C26.4225 29.2694 26.6465 29.3974 26.9025 29.3654C27.0305 29.4934 27.2225 29.6214 27.4145 29.6534C27.6385 29.7174 27.9265 29.6214 28.0545 29.4294C28.2145 29.2054 28.2145 28.9814 28.1185 28.7254C27.8305 28.1494 27.6385 27.6054 27.4145 26.9974C27.3505 26.8374 27.3185 26.6774 27.2545 26.5174C27.2545 26.3254 27.2865 26.1334 27.2865 25.9414C27.2865 25.6854 27.2225 25.3974 27.1905 25.1414C27.0625 24.5654 26.8065 23.9894 26.7745 23.3814C26.7425 23.0614 26.7745 22.7414 26.8065 22.4214C26.9025 22.3574 26.9665 22.2614 27.0305 22.1654C27.2865 22.1334 27.5425 22.0054 27.7025 21.8134C27.7665 21.9414 27.8305 22.0694 27.8945 22.1974C27.9905 22.3574 28.1185 22.4534 28.2465 22.4854C28.3105 22.5814 28.3745 22.6134 28.4385 22.6454C28.5025 23.1574 28.5345 23.6694 28.5985 24.1814C28.6625 24.8214 28.7265 25.4614 28.7905 26.1334C28.8545 26.7414 28.8225 27.4454 29.0145 28.0214C29.2065 28.5974 29.9105 28.7254 30.2625 28.2454C30.6145 27.7974 30.7745 27.0614 30.9025 26.5174C31.1585 25.3334 31.2225 24.0534 31.2545 22.8374C31.2545 22.1654 31.0945 21.5574 30.7105 20.9814C30.3265 20.4054 29.8145 19.9254 29.3985 19.3814C29.3985 19.3814 29.3985 19.3814 29.3665 19.3494C29.4305 19.2534 29.4945 19.1254 29.4945 18.9654C29.5265 18.5174 29.5585 18.0694 29.5585 17.6214C29.5585 17.5574 29.5585 17.4934 29.5585 17.4294C29.5585 17.2054 29.5585 16.9814 29.5585 16.7894C29.5585 16.7574 29.5585 16.7254 29.5585 16.6614C29.5585 16.5974 29.5585 16.5334 29.5265 16.4694C29.5265 16.3414 29.5265 16.2454 29.5265 16.1174C29.5265 16.0534 29.5265 15.9894 29.5265 15.9254C29.5585 15.7974 29.5905 15.6694 29.6225 15.5414C29.6865 15.5734 29.7505 15.6374 29.8145 15.6694C30.0385 15.8294 30.2305 16.0534 30.3585 16.3094C30.6785 16.8214 30.8385 17.4934 31.0625 18.1654C31.1265 18.3574 31.2545 18.5174 31.4145 18.6454C31.4145 18.6774 31.4145 18.6774 31.4145 18.7094C31.4145 18.9014 31.4465 19.0934 31.4465 19.2854C31.4465 19.3174 31.4465 19.3174 31.4465 19.3494C31.4465 19.3814 31.4465 19.4454 31.4465 19.4774C31.4465 19.5094 31.4465 19.5414 31.4465 19.5734C31.4465 19.6054 31.4465 19.6054 31.4145 19.6374C31.3825 19.8934 31.4785 20.1814 31.7665 20.2454C31.8945 20.2774 32.0545 20.2454 32.1505 20.1814C32.1825 20.2134 32.1825 20.2454 32.2145 20.2774C32.2785 20.3414 32.3105 20.4054 32.3745 20.4694L32.4065 20.5014C32.4065 20.5014 32.4065 20.5334 32.4385 20.5334V20.5654C32.4385 20.5654 32.4385 20.5654 32.4385 20.5974C32.4385 20.6294 32.4385 20.6934 32.4385 20.7254C32.4385 20.6934 32.4385 20.6934 32.4385 20.6614C32.4385 20.6934 32.4385 20.7254 32.4385 20.7574C32.4065 21.0134 32.4705 21.2694 32.7265 21.3654C32.9505 21.4614 33.2385 21.3654 33.3665 21.1414C33.6545 20.4374 33.6545 19.6694 33.3345 19.0294ZM23.1585 15.0614C23.1265 15.0614 23.0945 15.0294 23.0625 15.0294C23.0305 14.9974 22.9985 14.9974 22.9345 14.9974C23.0305 14.8374 23.1585 14.7094 23.2545 14.5494C23.2225 14.7094 23.1905 14.8694 23.1585 15.0614ZM27.1905 17.1734C27.1585 16.9494 27.1585 16.7254 27.1905 16.4694C27.2545 16.0854 26.9665 15.7014 26.6465 15.4774C26.6465 15.4134 26.6785 15.3174 26.6785 15.3174C26.7425 15.0614 26.7105 14.8054 26.6145 14.5494C26.8705 14.5174 27.0945 14.4534 27.3185 14.3894C27.4785 14.3254 27.6705 14.2614 27.8625 14.1974C27.8945 14.3894 27.9585 14.5814 27.9585 14.7734C28.0225 15.1574 28.0225 15.5414 28.0545 15.9254C28.0225 15.9254 28.0225 15.9574 27.9905 15.9574C27.9265 16.0214 27.8305 16.0854 27.7665 16.1494C27.6705 16.2454 27.5745 16.3734 27.5105 16.5014C27.4145 16.6614 27.3185 16.8214 27.2545 16.9814C27.2225 17.0454 27.2225 17.1094 27.1905 17.1734Z" fill="#9DE539"/>
<path d="M26.7424 10.3892C26.7104 10.3572 26.6784 10.3892 26.6464 10.4212L26.4224 10.8052C26.3904 10.8372 26.4224 10.9012 26.4544 10.9332C26.4864 10.9652 26.5504 10.9332 26.5824 10.9012C26.6464 10.7732 26.7104 10.6452 26.7744 10.5172C26.7744 10.4532 26.7744 10.4212 26.7424 10.3892Z" fill="#9DE539"/>
<path d="M27.0304 10.9014C26.9984 10.9014 26.9664 10.9014 26.9344 10.9014C26.9024 10.9014 26.9024 10.9334 26.8704 10.9334H26.8384L26.8064 10.9654C26.7744 10.9974 26.7744 10.9974 26.7424 11.0294L26.7104 11.0614V11.0934V11.1254C26.7104 11.1254 26.7104 11.1574 26.7424 11.1574C26.7744 11.1894 26.7744 11.1894 26.8064 11.1894H26.8384C26.8704 11.1894 26.8704 11.1894 26.8704 11.1574C26.9024 11.1254 26.9024 11.1254 26.9344 11.0934L26.9664 11.0614C26.9984 11.0294 26.9984 11.0294 26.9984 10.9974C27.0304 10.9654 27.0304 10.9334 27.0304 10.9014Z" fill="#9DE539"/>
<path d="M26.2944 10.3255C26.2944 10.2935 26.2624 10.2935 26.2624 10.2615C26.2624 10.2295 26.1984 10.2295 26.1984 10.2295H26.1664C26.1344 10.2295 26.1344 10.2295 26.1024 10.2295C26.1024 10.2295 26.0704 10.2295 26.0704 10.2615C26.0384 10.2615 26.0384 10.2935 26.0384 10.2935C26.0064 10.3575 25.9424 10.4215 25.9104 10.4855C25.9104 10.5175 25.8784 10.5175 25.8784 10.5495C25.8784 10.5815 25.8784 10.5815 25.8784 10.6135C25.8784 10.6455 25.8784 10.6455 25.9104 10.6775C25.9104 10.7095 25.9424 10.7095 25.9424 10.7095C25.9744 10.7415 26.0384 10.7415 26.0704 10.7415C26.1024 10.7415 26.1664 10.7095 26.1664 10.6775C26.1984 10.6135 26.2304 10.5495 26.2624 10.4855V10.4535C26.2624 10.4215 26.2624 10.4215 26.2624 10.3895C26.2944 10.3575 26.2944 10.3255 26.2944 10.3255Z" fill="#9DE539"/>
</g>
<path d="M65.1277 28V15.7687H68.3027V20.6786H69.8988L69.413 20.9908L72.6573 15.7687H76.1272L72.2583 21.6328L70.9918 20.8C71.8477 20.9504 72.5475 21.2453 73.0911 21.6848C73.6463 22.1128 74.1205 22.7258 74.5137 23.5239L76.7518 28H73.2993L71.7031 24.5648C71.4718 24.0906 71.1884 23.7552 70.853 23.5586C70.5292 23.3504 70.0954 23.2463 69.5518 23.2463H68.3027V28H65.1277ZM77.8009 28V15.7687H83.7344C85.0992 15.7687 86.146 16.052 86.8746 16.6188C87.6149 17.1855 87.985 17.9547 87.985 18.9263C87.985 19.6434 87.771 20.2564 87.3431 20.7653C86.9267 21.2742 86.3542 21.6212 85.6255 21.8063V21.5287C86.493 21.679 87.158 22.0145 87.6207 22.5349C88.0949 23.0439 88.332 23.7089 88.332 24.5301C88.332 25.6058 87.9387 26.4559 87.1522 27.0805C86.3657 27.6935 85.2901 28 83.9252 28H77.8009ZM80.8717 25.6578H83.5089C84.1103 25.6578 84.5556 25.548 84.8448 25.3282C85.1455 25.1084 85.2958 24.7672 85.2958 24.3046C85.2958 23.8304 85.1455 23.4892 84.8448 23.281C84.5556 23.0728 84.1103 22.9687 83.5089 22.9687H80.8717V25.6578ZM80.8717 20.6265H83.1445C83.7575 20.6265 84.2028 20.5224 84.4804 20.3142C84.7696 20.106 84.9142 19.788 84.9142 19.36C84.9142 18.932 84.7696 18.6198 84.4804 18.4231C84.2028 18.2149 83.7575 18.1108 83.1445 18.1108H80.8717V20.6265ZM89.9658 28V15.7687H98.7446V18.2149H93.0367V20.5571H98.3282V23.0207H93.0367V25.5364H98.7446V28H89.9658ZM106.595 28.1908C105.265 28.1908 104.114 27.9306 103.143 27.4101C102.183 26.8896 101.437 26.1552 100.904 25.2067C100.384 24.2583 100.124 23.148 100.124 21.8757C100.124 20.6034 100.384 19.4988 100.904 18.5619C101.437 17.6135 102.183 16.879 103.143 16.3586C104.114 15.8381 105.265 15.5778 106.595 15.5778C107.439 15.5778 108.209 15.6935 108.903 15.9248C109.597 16.1446 110.181 16.4626 110.655 16.879L109.701 19.3947C109.169 19.013 108.677 18.747 108.226 18.5966C107.786 18.4347 107.283 18.3537 106.717 18.3537C105.676 18.3537 104.872 18.6602 104.305 19.2733C103.75 19.8747 103.472 20.7422 103.472 21.8757C103.472 23.0207 103.75 23.8998 104.305 24.5128C104.872 25.1142 105.676 25.4149 106.717 25.4149C107.283 25.4149 107.786 25.3398 108.226 25.1894C108.677 25.0275 109.169 24.7557 109.701 24.374L110.655 26.8896C110.181 27.306 109.597 27.6299 108.903 27.8612C108.209 28.081 107.439 28.1908 106.595 28.1908ZM114.954 28V18.3537H111.241V15.7687H121.877V18.3537H118.164V28H114.954ZM65.1277 50V37.7687H71.0612C72.426 37.7687 73.4728 38.052 74.2014 38.6188C74.9417 39.1855 75.3118 39.9547 75.3118 40.9263C75.3118 41.6434 75.0978 42.2564 74.6699 42.7653C74.2535 43.2742 73.681 43.6212 72.9523 43.8063V43.5287C73.8198 43.679 74.4848 44.0145 74.9475 44.5349C75.4217 45.0439 75.6588 45.7089 75.6588 46.5301C75.6588 47.6058 75.2655 48.4559 74.479 49.0805C73.6925 49.6935 72.6169 50 71.252 50H65.1277ZM68.1986 47.6578H70.8357C71.4371 47.6578 71.8824 47.548 72.1716 47.3282C72.4723 47.1084 72.6227 46.7672 72.6227 46.3046C72.6227 45.8304 72.4723 45.4892 72.1716 45.281C71.8824 45.0728 71.4371 44.9687 70.8357 44.9687H68.1986V47.6578ZM68.1986 42.6265H70.4713C71.0843 42.6265 71.5296 42.5224 71.8072 42.3142C72.0964 42.106 72.241 41.788 72.241 41.36C72.241 40.932 72.0964 40.6198 71.8072 40.4231C71.5296 40.2149 71.0843 40.1108 70.4713 40.1108H68.1986V42.6265ZM82.3597 50V37.7687H85.1356L89.1433 46.7383H88.5708L92.5612 37.7687H95.3544V50H92.4571V42.5051H93.2031L89.7332 50H87.9289L84.4417 42.5051H85.2397V50H82.3597ZM99.3585 50L101.562 45.7841L101.597 46.6689L96.01 37.7687H99.3932L103.158 43.9277H102.568L105.76 37.7687H109.057L102.655 50H99.3585ZM113.884 50.1908C112.843 50.1908 111.917 50.0752 111.108 49.8439C110.298 49.601 109.587 49.2713 108.974 48.8549L109.893 46.5475C110.356 46.8829 110.905 47.1431 111.542 47.3282C112.178 47.5133 112.872 47.6058 113.623 47.6058C114.445 47.6058 115.052 47.4901 115.445 47.2588C115.838 47.0275 116.035 46.6747 116.035 46.2005C116.035 45.7957 115.885 45.4949 115.584 45.2983C115.295 45.1017 114.838 45.0034 114.213 45.0034H111.16V42.5745H113.884C114.497 42.5745 114.948 42.4819 115.237 42.2969C115.538 42.1118 115.688 41.8169 115.688 41.412C115.688 41.0419 115.526 40.7412 115.202 40.5099C114.878 40.2786 114.364 40.1629 113.658 40.1629C113.01 40.1629 112.374 40.2554 111.75 40.4405C111.137 40.614 110.599 40.8684 110.136 41.2039L109.217 38.8964C109.772 38.4916 110.466 38.1735 111.299 37.9422C112.131 37.6993 113.034 37.5778 114.005 37.5778C115.59 37.5778 116.775 37.8901 117.562 38.5147C118.36 39.1393 118.759 39.9431 118.759 40.9263C118.759 41.6549 118.545 42.2737 118.117 42.7827C117.701 43.28 117.128 43.6212 116.399 43.8063V43.5287C117.255 43.679 117.915 44.0145 118.377 44.5349C118.851 45.0554 119.089 45.7263 119.089 46.5475C119.089 47.2646 118.898 47.9007 118.516 48.4559C118.134 48.9995 117.556 49.4275 116.781 49.7398C116.018 50.0405 115.052 50.1908 113.884 50.1908ZM120.734 50V37.7687H129.513V40.2149H123.805V42.5571H129.096V45.0207H123.805V47.5364H129.513V50H120.734ZM131.188 50V37.7687H139.966V40.2149H134.258V42.5571H139.55V45.0207H134.258V47.5364H139.966V50H131.188Z" fill="#E0214D"/>
<defs>
<clipPath id="clip0_1_8571">
<rect width="64" height="64" fill="white"/>
</clipPath>
</defs>
</svg>
