<svg width="98" height="98" viewBox="0 0 98 98" fill="none" xmlns="http://www.w3.org/2000/svg">
<path d="M69.7638 15.5401C72.7783 15.3875 75.9522 15.5929 78.8996 16.2464C79.5951 16.4006 80.2753 16.6239 80.9644 16.8046C81.0974 16.6754 81.2308 16.5298 81.4284 16.5182C81.8461 16.494 82.4953 17.0739 82.7806 17.3559C84.5511 19.1056 84.3427 21.5133 84.3647 23.8136C85.3641 24.5883 85.1902 25.1552 85.7345 26.1136C85.9007 26.4064 86.1937 26.667 86.302 26.9875C86.3438 27.111 86.3407 27.1287 86.2887 27.2406C86.1669 27.3128 86.1146 27.3254 85.9734 27.3142C85.2623 26.9 84.8839 25.1308 84.4049 24.4005L84.3593 24.3316L84.3156 26.8723C84.593 27.2569 84.9396 27.5892 85.2113 27.9826C85.4729 28.3613 85.6556 28.7867 85.9156 29.1712C86.1333 29.4933 86.4565 29.8631 86.6062 30.2183C86.6641 30.3557 86.6476 30.4546 86.5895 30.5855L86.4789 30.6243C85.8757 30.4831 84.7092 28.1394 84.2525 27.5255C84.2688 28.18 84.2087 28.8484 84.1681 29.5021C85.094 29.9648 85.4572 30.8356 85.9162 31.7076C86.0494 31.9605 86.2135 32.1962 86.3439 32.4502C86.4433 32.6437 86.5248 32.8075 86.4552 33.0225C86.3407 33.0741 86.1874 33.1 86.0722 33.0244C85.5048 32.6517 84.8319 30.39 84.1842 30.1448L84.2153 30.2176L84.1552 30.1676C83.954 30.9615 84.0441 31.8717 83.927 32.6891C84.5739 33.0961 85.1972 33.4553 85.6228 34.1121C85.8589 34.4765 86.4974 35.6765 86.4137 36.083C86.3293 36.1874 86.2631 36.2489 86.1266 36.2796C85.928 36.3242 85.8676 36.1365 85.7949 35.9825C85.6611 35.6988 85.5879 35.3763 85.4777 35.0813C85.1611 34.2335 84.6018 33.5839 83.8844 33.0429C83.8617 33.9752 83.8293 34.9073 83.7874 35.839C84.2153 36.2444 84.6718 36.5942 85.0787 37.0262C85.1831 36.9616 85.2679 36.9198 85.3868 36.8829C85.5096 36.9683 85.5263 37.1499 85.5674 37.2934L86.0923 37.7503C85.8186 38.7002 85.3418 39.7257 84.7367 40.5115C84.3636 40.9961 83.9372 41.4389 83.5606 41.9216C84.9885 42.124 86.4792 42.2097 87.8617 42.6407C89.6508 43.1986 91.4311 44.3645 92.3133 46.0605C93.0385 47.4546 93.1513 48.9829 92.6758 50.4792C92.1696 52.0722 90.9807 53.5728 89.4856 54.3372C89.8482 56.4192 89.9839 58.6608 88.9946 60.596C88.7723 61.0306 88.1308 62.2162 87.6469 62.3508C87.5378 62.3811 87.5353 62.3836 87.434 62.3256C87.3542 61.9724 87.9884 61.0253 88.0259 60.4511C88.0848 59.5495 87.4736 58.6374 86.8893 58.0131C86.0448 57.1111 84.7079 56.1187 83.4768 55.8651C82.9536 55.7573 82.3996 55.7655 81.8671 55.7459C81.7949 56.3277 81.8145 56.9386 81.7841 57.5257C81.7321 58.4023 81.6521 59.2764 81.544 60.1478C81.4064 61.3502 81.2308 62.5469 81.0171 63.7381C80.8033 64.9293 80.552 66.1125 80.2631 67.2877C79.8941 68.7453 79.4404 70.182 79.0026 71.6198C78.7534 72.4384 78.5897 73.6404 78.1434 74.3555C78.0147 74.5617 77.8408 74.7379 77.6249 74.852C76.8205 75.2774 74.3371 75.6281 73.3018 75.8656C72.6406 76.0172 72.0142 76.2633 71.5049 76.7239C70.3044 77.8098 69.4055 80.8878 68.7026 82.4624C68.1846 83.6228 67.4467 84.768 66.7674 85.8416C66.5533 86.18 65.8256 87.3788 65.4183 87.4333C65.3471 87.4428 65.3627 87.4287 65.3022 87.3707C65.287 87.2421 65.3086 87.1487 65.3743 87.0383C65.6327 86.6047 65.9613 86.1974 66.2392 85.7738C67.0387 84.5555 67.8721 83.2793 68.543 81.9861C68.2215 82.3214 67.9649 82.7174 67.6531 83.0632C67.238 83.5234 66.7742 83.9446 66.3456 84.3934C66.3439 84.5025 66.3423 84.6134 66.3269 84.7216C66.2247 85.4407 64.5246 87.5479 63.9539 87.9916C63.7988 88.1123 63.5991 88.2656 63.3922 88.2383L63.3492 88.1614C63.3843 88.0312 63.4364 87.9336 63.5186 87.8261C63.7351 87.543 64.0085 87.2921 64.2435 87.0227C64.8873 86.2849 65.5685 85.4658 66.0395 84.6092C64.4104 85.7779 62.7998 86.6698 60.8666 87.2518C58.917 87.8388 56.8543 88.1873 54.8494 88.5358C52.3078 88.9845 49.7533 89.3417 47.1861 89.6074C44.6188 89.8731 42.0454 90.0465 39.4657 90.1277C37.948 90.1795 36.4287 90.2545 34.9097 90.21C32.4847 90.1389 30.0116 89.7974 27.604 89.5059C25.3299 89.2307 22.7573 89.0302 20.7081 87.9183C18.7416 86.8513 17.3374 85.3009 16.7071 83.1241C16.4663 82.2927 16.0219 79.2524 16.4318 78.5096C16.5391 78.4611 16.5488 78.4666 16.6656 78.4896C16.79 78.7693 16.6917 79.4443 16.7072 79.772C16.7482 80.6383 16.9057 81.522 17.1465 82.3553C17.7624 84.4869 19.0157 86.0651 20.9656 87.1278C23.2086 88.3504 26.0504 88.4912 28.5525 88.7017C31.5567 88.9545 34.544 89.1113 37.5613 89.0536C43.1823 88.9461 48.8483 88.195 54.3558 87.1017C56.5178 86.6725 58.7223 86.2538 60.838 85.6336C61.7498 85.3663 62.6256 85.0149 63.4453 84.5313C65.0398 83.5905 66.8124 81.8773 67.7267 80.2492C68.2891 79.2477 68.6368 78.1421 69.1896 77.1361C69.8228 75.9839 70.6623 75.1017 71.9811 74.823C72.5082 74.7115 73.0584 74.6643 73.5745 74.5104C73.5912 74.5054 73.6077 74.5001 73.6243 74.4949C72.8817 74.4826 72.14 74.5383 71.3977 74.5428C70.6758 74.5472 69.9506 74.5046 69.2279 74.4969C68.3303 74.4874 67.4321 74.5089 66.5347 74.4877C63.3878 74.4131 60.2309 74.1953 57.0814 74.3187C54.5576 74.4175 52.0362 74.6434 49.5119 74.7315C45.0938 74.8861 40.6676 74.8637 36.2469 74.9314C34.7424 74.9545 33.2399 75.0269 31.7352 75.055C30.9476 75.0697 30.0958 75.1315 29.3184 75.0018C29.1282 74.97 28.9062 74.9326 28.7881 74.7664L28.8062 74.674C28.9246 74.6083 29.027 74.5882 29.1616 74.5745C29.7163 74.5179 30.3032 74.5587 30.8631 74.5374C32.1076 74.4901 33.3522 74.4159 34.596 74.3514L50.4298 73.6737C53.3218 73.5473 56.2076 73.2783 59.1054 73.2637C60.2132 73.2582 61.3249 73.2432 62.4325 73.2662C63.8147 73.2949 65.1976 73.3881 66.581 73.4205C69.2777 73.4899 71.9742 73.4832 74.6705 73.4004C75.0893 73.3903 76.508 73.4611 76.8182 73.2482C77.1723 73.0052 77.4494 72.0482 77.6026 71.6578C78.1911 70.1572 78.6222 68.607 79.0245 67.0477C79.9601 63.4218 80.5421 59.9921 80.8481 56.2576L80.9401 55.7715C80.1195 55.6652 79.2877 55.5248 78.4904 55.301C77.0876 54.9074 75.6154 54.1484 74.8887 52.8227C74.2985 51.7462 74.0738 49.9218 74.4256 48.7451C73.5455 48.7304 72.6541 48.8076 71.7761 48.8648C71.7825 48.9041 71.7884 48.9434 71.7939 48.9828C72.0191 50.5909 71.6064 52.1781 71.3393 53.7483C71.2532 54.254 71.2386 55.26 70.8792 55.6378C70.7861 55.7355 70.7517 55.7348 70.625 55.7481C70.5346 55.7082 70.4813 55.6585 70.4354 55.5693C70.3412 55.3864 70.3025 55.1606 70.2334 54.9659C70.1064 54.6061 69.9504 54.2595 69.7654 53.9259C68.9437 52.4464 67.7965 50.2464 66.7386 48.9387L66.6974 48.8885C64.7415 48.9624 62.8017 49.1019 60.8414 49.105C57.7886 49.1097 54.7584 48.8928 51.7172 48.6623C50.6249 48.5796 48.7323 48.5341 47.716 48.2791C47.5363 48.2341 47.3171 48.1813 47.2158 48.0177C47.2587 47.9766 47.2788 47.9462 47.3365 47.9282C48.3692 47.6068 54.0912 48.089 55.6036 48.1787C56.6212 48.2328 57.6393 48.2726 58.658 48.2981C61.1843 48.3562 63.7169 48.2767 66.2443 48.2802C65.6416 47.5141 64.9952 46.8118 64.2958 46.1338C63.6296 46.0568 62.9233 46.1098 62.2517 46.0981C59.6127 46.0518 56.9991 46.1973 54.3643 46.2943L48.8829 46.4564C48.0116 46.4783 47.1392 46.4543 46.2691 46.5135C45.9488 47.1765 45.5147 47.7674 45.1336 48.3941C44.4408 49.5335 43.4406 51.3372 43.3619 52.6639C43.3132 53.4852 43.5829 54.1119 44.1289 54.7168C44.6803 54.8505 45.2677 54.88 45.8318 54.9366C46.7957 55.041 47.7623 55.1075 48.7315 55.1361C49.7006 55.1647 50.6694 55.1554 51.6378 55.1082C53.7996 55.024 55.9641 54.8176 58.1243 54.6793C59.3086 54.6035 60.5081 54.4863 61.6941 54.5767C62.4006 54.6305 63.3035 54.7713 63.8947 55.1912C64.1732 55.3891 64.3597 55.6672 64.4051 56.0089C64.4835 56.5974 64.1563 57.0389 63.821 57.4795C64.1442 57.4852 64.476 57.5081 64.7908 57.5847C65.2483 57.6961 65.7211 57.9179 65.9651 58.341C66.1909 58.7323 66.2513 59.1834 66.1135 59.615C65.6999 60.9102 63.7784 61.7227 62.6611 62.2875C62.6676 62.2965 62.6739 62.3058 62.6808 62.3146C62.7691 62.4269 62.8622 62.5299 62.9147 62.6651C63.097 63.1349 63.0367 63.6661 62.8263 64.1148C62.1865 65.479 60.8264 66.1215 59.4875 66.5884C59.7062 66.8094 59.901 67.0076 59.9307 67.3319C59.962 67.6735 59.8193 67.9603 59.6052 68.2179C58.3531 69.7244 55.6664 70.4709 53.8222 70.9665C52.358 71.3599 50.9059 71.6744 49.4183 71.9669C47.6485 72.3149 45.8991 72.6246 44.0891 72.6732C43.0962 72.6999 42.0699 72.6006 41.0782 72.5365C39.9376 72.4628 38.8015 72.3762 37.6758 72.1679C36.569 71.9631 35.4631 71.6346 34.3826 71.3205C33.1742 70.9691 31.8941 70.4869 30.6182 70.5473C29.8801 70.5822 29.2386 70.9841 28.5058 71.0467C28.4799 71.0489 28.454 71.0506 28.4282 71.0525C28.346 71.3504 28.4224 71.7691 28.4108 72.0881C28.3953 72.4226 28.3595 72.755 28.3034 73.0851C28.1397 74.106 27.9251 75.3643 27.0082 75.9989C26.0052 76.6929 21.4204 77.7694 20.1726 77.5106C19.6355 77.3992 19.4037 77.1301 19.1272 76.6903C18.8805 76.6987 18.4906 76.9862 18.2587 77.1007C17.6883 77.3825 17.0634 77.6208 16.4634 77.8334C14.743 78.4426 12.9589 78.8081 11.213 79.3231C10.4146 79.5585 9.6442 79.8776 8.85359 80.1368C8.16555 80.3625 7.45191 80.5308 6.75537 80.7328C6.36041 80.8473 5.82074 81.08 5.41147 81.0679C5.28833 81.0643 5.23735 81.0503 5.15689 80.9588C5.23699 80.5728 5.91539 80.3879 6.23736 80.2358C7.99555 79.4048 9.93507 78.773 11.8135 78.2747C12.7025 78.0388 13.6175 77.8701 14.4966 77.6022C16.0135 77.14 18.4637 76.4468 19.6934 75.504C19.7082 75.4926 19.7228 75.4809 19.7374 75.4693C19.9408 74.8112 19.9553 74.1423 19.9985 73.4597C20.2351 69.7281 19.325 66.216 18.1077 62.7245C17.8425 61.9636 17.5127 61.249 17.1525 60.5293C16.956 60.1367 16.7118 59.7271 16.5611 59.3159C16.5157 59.1921 16.521 59.1379 16.555 59.0116L16.6407 58.9746C16.7913 59.039 16.8793 59.151 16.9752 59.2792C17.2609 59.6608 17.4784 60.1071 17.7097 60.5241C18.655 62.2287 19.2628 63.7619 19.859 65.6086C20.1925 66.6418 20.5009 67.6646 20.6641 68.7411C20.9262 70.4701 20.8497 72.3434 20.758 74.0863C20.7387 74.4525 20.7564 74.8351 20.7101 75.1976C20.6377 75.7646 20.2686 76.0596 20.2019 76.5038C20.2207 76.5565 20.2207 76.6125 20.2772 76.6351C20.9019 76.8849 24.9442 75.709 25.7419 75.4237C26.4078 75.1856 26.9585 74.9647 27.2764 74.2826C27.6161 73.5536 27.7027 72.6779 27.6724 71.8818C27.6395 71.02 27.4422 70.1376 27.2838 69.2904C27.106 68.3203 26.933 67.3494 26.7648 66.3777C26.2987 63.6522 26.0694 60.2827 25.0889 57.7194C25.017 57.5315 24.9477 57.3901 24.747 57.3123C24.4976 57.2158 23.9977 57.268 23.7137 57.2568C22.0979 57.1933 18.4262 57.1058 17.0654 57.8667C16.309 58.2897 16.266 58.7843 16.0412 59.533L7.93176 60.0214C6.9683 60.0711 5.96662 60.2131 5.00522 60.195C4.83616 60.1918 4.65525 60.1795 4.51389 60.0779C4.4466 60.0295 4.45825 60.0093 4.44238 59.9357L4.50597 59.8418C4.87315 59.639 6.2634 59.6158 6.73833 59.5642C9.51879 59.2621 12.6093 58.8186 15.3972 58.7757L15.4099 58.7213C15.5403 58.1723 15.8088 57.7244 16.2998 57.4248C16.7359 57.1587 17.2363 56.9852 17.7327 56.8737C19.0663 56.5742 23.6736 56.2065 24.881 56.5206C25.4328 56.6641 25.6939 56.9771 25.9718 57.4446C26.4318 57.1737 26.9608 57.003 27.4627 56.8261C28.693 56.3924 30.037 56.0239 31.1356 55.3048C32.5203 54.3984 33.0948 52.6822 34.2532 51.5411C35.1133 50.6937 36.2935 50.2227 37.2799 49.5391C38.6541 48.5867 39.1926 47.6636 40.248 46.4995C40.8492 45.8363 41.5797 45.198 42.0558 44.4346C41.9896 44.4394 41.9235 44.4436 41.8572 44.4471C41.0762 44.4893 40.2795 44.4649 39.4967 44.4687C37.6795 44.4772 35.4653 44.6474 34.0241 43.3261C33.5235 42.867 33.2076 42.3621 33.0103 41.7141C32.4214 39.7797 32.3093 36.8101 32.1189 34.749C31.8253 31.5685 31.4719 28.3755 31.3302 25.184C31.2376 23.0966 31.1152 19.1344 32.6309 17.5414C33.0265 17.1256 33.6677 16.8878 34.2307 16.8163C35.6164 16.6403 37.0498 16.6719 38.4448 16.6337C39.4228 16.607 40.4145 16.5104 41.3906 16.5182C42.013 16.5232 42.6383 16.6517 43.2596 16.6262L69.7638 15.5401Z" fill="#E0214D"/>
<path d="M64.758 16.3056C68.8708 16.261 73.2723 16.0778 77.3349 16.7029C78.979 16.9558 81.2557 17.3615 82.2872 18.7934C82.6516 19.2993 82.895 19.9412 82.9985 20.5542C83.2452 22.0144 83.1613 23.5664 83.1845 25.0442C83.2168 27.0988 83.2825 29.1831 83.2093 31.2357C83.1781 32.112 83.0782 32.9903 83.0326 33.8674C82.9676 35.1202 82.9614 36.3865 82.7596 37.6279C82.6782 38.1286 82.5353 38.6247 82.2577 39.0536C80.7148 41.4381 76.0913 41.7461 73.5182 42.1627C72.666 42.3007 71.5129 42.4306 70.8087 42.9704C70.6297 43.1076 70.4875 43.2766 70.4327 43.4985C70.2074 44.41 70.5124 45.5013 70.6542 46.4139C70.7263 46.878 70.7561 47.3472 70.8186 47.8125C70.8993 48.4136 71.0321 49.0297 71.0414 49.6352C71.061 50.9305 70.8136 52.2277 70.6681 53.5135C70.1582 52.6223 69.6106 51.7528 69.0768 50.8758C68.1117 49.2903 67.1626 47.7024 65.8726 46.3516C64.7164 45.1411 63.2315 44.0229 61.5457 43.7393C60.8462 43.6217 60.1228 43.6286 59.4148 43.605L56.067 43.502C54.3937 43.4577 52.7067 43.5259 51.0327 43.5523C50.0385 43.568 48.2222 43.5307 47.3088 43.7169C47.4864 42.7471 47.4876 41.853 47.1046 40.9261C46.883 40.3898 46.5062 39.6617 45.9357 39.4418C45.6736 39.3407 45.3561 39.3567 45.101 39.4741C44.8411 39.5938 44.6337 39.8509 44.4691 40.0791C44.0629 40.6423 42.7435 43.0948 42.5117 43.7473C41.1247 43.8006 39.7935 43.7547 38.4088 43.6614C37.5892 43.6062 36.7238 43.5808 35.9334 43.3421C35.4753 43.2038 35.0374 42.9795 34.6839 42.654C34.2266 42.2327 33.9328 41.6832 33.7534 41.0934C33.1863 39.2284 32.9959 36.2465 32.8026 34.2569C32.4618 30.7469 32.1259 27.2438 31.9571 23.72C31.8931 22.3825 31.9063 19.1215 32.8237 18.1616C33.1776 17.7912 33.7716 17.6253 34.265 17.5448C34.9399 17.4346 35.6502 17.424 36.3331 17.3838C38.3416 17.2656 40.3528 17.2826 42.3601 17.1827C42.8907 17.1562 43.4187 17.0767 43.9477 17.0308C44.5784 16.9761 45.2153 16.9563 45.8476 16.9245C52.1477 16.6115 58.4511 16.4052 64.758 16.3056Z" fill="#F7F5F6"/>
<path d="M69.8538 26.8455C71.1372 26.8451 72.4272 26.8251 73.7095 26.8822C74.6498 26.9241 75.5859 27.0474 76.5257 27.0905C76.8228 27.1041 77.8712 27.0239 78.0644 27.1445C78.2196 27.2414 78.3061 27.4127 78.3545 27.5815C78.341 27.66 78.3463 27.7055 78.2918 27.7682C78.1196 27.9666 77.7834 28.0156 77.5356 28.0348C76.9448 28.0806 76.3214 28.0296 75.7286 28.0195C74.409 27.9969 73.095 27.9614 71.7759 27.9107C69.2253 27.8345 67.1244 27.9346 64.7764 27.967C60.382 28.0279 56.3888 28.4697 52.1165 28.755C49.7863 28.9103 49.1766 28.8163 46.5146 29.0025C45.5981 29.0666 44.8682 29.3513 43.9835 28.9054C43.7803 28.8029 43.6459 28.6945 43.5723 28.4767C43.5801 28.3634 43.5964 28.2914 43.6739 28.2035C43.8157 28.0424 44.0367 27.963 44.241 27.9192C44.6252 27.8369 45.0699 27.8671 45.4632 27.8611C50.3666 27.7851 55.1168 27.6094 59.9459 27.3374C63.2647 27.1503 66.5257 26.8463 69.8538 26.8455Z" fill="#E0214D"/>
<path d="M46.3766 22.6645C46.8792 22.6645 49.1028 22.3732 49.7841 22.3545C51.9079 22.296 54.037 22.3609 56.1616 22.2964C60.2468 22.1722 64.3214 21.9071 68.4038 21.7206C70.9317 21.6051 73.4624 21.4595 75.9913 21.375C76.6159 21.3541 77.2599 21.1802 77.8817 21.2057C78.1564 21.2169 78.3852 21.2728 78.5638 21.4903C78.5832 21.619 78.5825 21.6712 78.5029 21.7793C78.1757 22.2238 77.0517 22.2549 76.5479 22.2977C74.9808 22.4309 73.4042 22.4564 71.8352 22.5645C69.1133 22.7519 66.7506 23.2331 64.0865 23.1722C62.3275 23.132 60.5636 23.0428 58.8034 23.082C54.6476 23.1743 50.7038 23.4087 46.7648 23.7526C46.1751 23.8007 45.564 23.8845 44.9722 23.8566C44.7435 23.8458 44.279 23.8078 44.1128 23.6328C44.0294 23.5449 43.9978 23.4336 44.0253 23.3136C44.0567 23.177 44.1763 23.0946 44.2987 23.0411C44.8748 22.7888 45.7586 22.6645 46.3766 22.6645Z" fill="#E0214D"/>
<path d="M77.3547 31.1067C77.6601 31.0914 78.3073 30.9885 78.5788 31.1619C78.6889 31.2323 78.7361 31.2948 78.7642 31.4235C78.7889 31.5363 78.7347 31.6959 78.6585 31.7759C78.4605 31.9839 78.0298 31.9769 77.7615 31.9975C74.8326 32.2224 71.8761 32.1642 68.943 32.34C67.085 32.4513 65.2474 32.7243 63.394 32.8732C60.3304 33.1193 58.132 33.0489 55.115 33.3853C54.9356 33.4111 54.753 33.4415 54.5718 33.4483C54.2769 33.4594 53.8791 33.385 53.6634 33.1663C53.5511 33.0523 53.5305 32.9542 53.5359 32.8C54.0588 31.5921 59.3953 31.9889 60.3864 31.9469C62.6954 31.8492 64.9939 31.7072 67.3006 31.5708C69.1136 31.4616 70.9277 31.3752 72.7429 31.3115C73.503 31.2864 74.2648 31.3024 75.0242 31.2673C75.8009 31.2315 76.5778 31.152 77.3547 31.1067Z" fill="#E0214D"/>
<path d="M65.0121 35.9832C67.0383 35.8978 69.1787 35.8387 71.2049 35.9122C72.3841 35.955 73.5593 36.1018 74.736 36.1345C75.2199 36.148 76.5781 35.9755 76.9139 36.1561C77.0515 36.2302 77.1221 36.3235 77.1677 36.4721C77.1448 36.6021 77.121 36.6722 77.0214 36.7644C76.3369 37.3976 73.2568 36.9891 72.3219 36.9526C71.4345 36.918 70.5393 36.9365 69.651 36.9343C65.5379 36.9595 63.9424 37.1001 60.408 37.3412C59.3655 37.4124 56.7782 37.775 55.8724 37.4493C55.6968 37.3861 55.5842 37.3109 55.5069 37.1371C55.4999 37.0186 55.5094 36.9423 55.566 36.8392C56.4986 36.1562 62.9041 36.072 65.0121 35.9832Z" fill="#E0214D"/>
<path d="M41.9474 17.4727C42.1506 17.5203 42.3408 17.5991 42.4961 17.7426C42.6579 17.8921 42.7486 18.0971 42.7447 18.3184C42.7354 18.8522 41.5285 20.3263 41.1926 20.8536C40.4995 21.9414 39.233 24.4075 38.3375 25.1352C38.2836 25.1789 38.2198 25.2177 38.1496 25.2111C37.4836 25.1488 36.9323 24.2818 36.5278 23.8015C36.1709 23.3969 35.1358 22.2952 35.109 21.7911C35.1002 21.6285 35.1947 21.4707 35.3067 21.3608C35.5623 21.1099 35.9664 20.9695 36.3212 20.9773C36.9947 20.9922 37.4959 21.3663 37.9417 21.8278C38.8114 20.7103 40.727 18.0996 41.9474 17.4727Z" fill="#E0214D"/>
<path d="M41.8664 17.9788C41.9295 17.976 42.01 17.9924 42.0645 18.025C42.1806 18.0946 42.1893 18.1711 42.2184 18.2905C42.0619 18.865 41.3055 19.6624 40.9622 20.1769C40.2793 21.2003 38.9323 23.5609 38.0978 24.2836C37.4803 23.8767 37.0019 23.2903 36.524 22.7343C36.3531 22.5364 36.0111 22.1871 35.9544 21.928C35.9264 21.7995 35.9425 21.7842 36.014 21.6856C37.1015 21.2671 37.246 22.7024 37.9481 22.8806C38.1154 22.8288 38.196 22.7334 38.3013 22.5922C38.6059 22.1838 38.7823 21.679 39.0556 21.2479C39.6528 20.3062 40.9828 18.6356 41.8664 17.9788Z" fill="#F7F5F6"/>
<path d="M47.9353 36.2062C48.4704 36.2482 51.5234 36.2506 51.7954 36.4833C51.8936 36.5674 51.9272 36.6802 51.9247 36.8062C51.8973 38.2158 49.6196 37.5449 48.9786 37.524C48.5276 37.5105 48.0756 37.5116 47.6243 37.5069C46.7868 37.524 45.7286 37.7632 44.9431 37.4785C44.5797 37.3468 43.9682 36.9416 43.8502 36.5402C43.8156 36.4228 43.8377 36.3871 43.9033 36.3C44.3676 36.0989 45.4481 36.2962 45.9887 36.2853C46.7254 36.2704 47.0875 36.1398 47.9353 36.2062Z" fill="#E0214D"/>
<path d="M48.1225 32.4448C48.6233 32.4213 49.1544 32.3871 49.6502 32.4739C49.8994 32.5175 50.1149 32.5726 50.263 32.79C50.2954 32.9302 50.2723 33.0494 50.1839 33.1673C49.9371 33.4961 49.35 33.2822 49.0046 33.3352C48.7614 33.3724 48.5353 33.4943 48.2897 33.5233C47.6059 33.6042 46.8447 33.5441 46.1195 33.6192C45.8712 33.6355 45.6365 33.6351 45.3895 33.6019C45.0366 33.5547 44.1378 33.4367 43.9497 33.0947C43.8935 32.9925 43.8926 32.9743 43.9245 32.864C44.3795 32.399 47.3793 32.4733 48.1225 32.4448Z" fill="#E0214D"/>
<path d="M40.4859 25.0566C40.633 25.1042 40.7011 25.1185 40.7778 25.2588C41.1052 25.857 41.161 27.6532 40.9826 28.313C40.935 28.4892 40.8626 28.6504 40.6915 28.7366C40.1014 29.0337 36.3781 29.284 35.7811 29.1195C35.3713 28.5987 35.2824 26.5537 35.2725 25.8948C35.2717 25.7859 35.2659 25.6708 35.279 25.5629C35.2953 25.4291 35.3398 25.3922 35.445 25.3188L35.5142 25.3413C35.7002 25.6228 35.6081 26.4147 35.6345 26.7669C35.658 27.1179 35.6983 27.4669 35.7553 27.814C35.8124 28.1611 35.886 28.5047 35.9761 28.8447C36.6741 28.7214 37.3624 28.6327 38.0684 28.5783C38.9407 28.5112 39.8168 28.4888 40.6722 28.29C40.7474 27.677 40.7984 27.0571 40.709 26.4423C40.645 26.0025 40.4452 25.4957 40.4859 25.0566Z" fill="#E0214D"/>
<path d="M45.5456 40.3398C45.6076 40.3709 45.6 40.364 45.6627 40.4112C45.9876 40.6556 46.1782 41.2564 46.2688 41.6457C46.4734 42.5256 46.3184 43.2778 46.1089 44.1363C45.4756 46.7316 44.737 47.491 43.4252 49.6509C43.0922 50.199 42.7164 50.7635 42.4801 51.3615C42.2277 52.0002 42.1808 52.6378 42.2653 53.3158C42.3708 54.1622 42.6458 54.9696 43.4086 55.4493C44.0401 55.8465 44.991 55.9058 45.7212 55.9925C47.4962 56.2031 49.3492 56.2888 51.1368 56.2372C53.1062 56.1805 62.2748 55.2006 63.2032 56.0563C63.3027 56.148 63.3108 56.217 63.3232 56.3461C62.8016 57.8255 57.0434 58.379 55.5883 58.6361C54.0044 58.9161 52.4322 59.2711 50.8412 59.5119C50.2773 59.5973 47.9615 59.7475 47.6478 60.107C47.5926 60.1702 47.6155 60.2057 47.6209 60.2827C47.7455 60.4966 47.917 60.5442 48.1508 60.5627C48.732 60.6087 49.3945 60.5147 49.9739 60.4545C51.3091 60.3157 52.633 60.1176 53.9597 59.9169C56.2297 59.5662 58.5025 59.2345 60.7781 58.9218C61.6229 58.8026 63.8839 58.3838 64.6228 58.6321C64.8344 58.7033 65.0783 58.8557 65.165 59.0716C65.2205 59.2098 65.1702 59.3406 65.1027 59.4629C64.1336 61.2204 58.2607 62.3649 56.3692 62.7934C54.9246 63.1205 53.4724 63.4778 52.0133 63.7324C51.179 63.878 50.3431 64.0316 49.5069 64.1647C49.0248 64.2414 48.4455 64.2661 47.9914 64.4238C47.857 64.4706 47.7504 64.5894 47.7095 64.7261C47.6775 64.8329 47.7004 64.8682 47.7557 64.9518C48.5626 65.3732 55.1192 63.9244 56.4636 63.6822C57.4405 63.5063 58.4336 63.4104 59.4079 63.2237C59.9625 63.1174 61.1312 62.6479 61.6267 62.7947C61.7773 62.8394 61.8362 62.9621 61.9122 63.0878C61.913 63.274 61.8904 63.4421 61.8238 63.6172C61.525 64.4025 60.6484 64.9868 59.9116 65.3192C58.5925 65.9141 57.0865 66.0935 55.6758 66.3716L49.3077 67.5766C48.7258 67.6844 47.6041 67.7765 47.1112 68.0349C46.9679 68.11 46.8715 68.2289 46.8288 68.3849C46.8075 68.4628 46.8099 68.5537 46.8601 68.6198C47.0031 68.8081 47.3277 68.7996 47.5391 68.7913C48.4819 68.7538 49.463 68.4257 50.3954 68.2569C51.9779 67.9704 53.5767 67.8292 55.1676 67.6066C55.897 67.5045 58.2881 67.0086 58.8397 67.1078C58.9457 67.1268 58.9592 67.1496 59.02 67.2303C59.0142 67.2772 59.0144 67.2993 58.9924 67.3468C58.484 68.4479 55.3965 69.3741 54.243 69.6707C50.4478 70.6463 46.5819 71.6979 42.6301 71.6019C41.1787 71.5666 39.6295 71.516 38.1986 71.2551C37.2738 71.0828 36.3534 70.889 35.4375 70.6739C33.7786 70.2668 31.8769 69.6324 30.1515 69.7532C29.5375 69.7962 28.9412 69.9975 28.3527 70.1658C27.5545 66.1124 27.097 61.9761 26.0889 57.9659C27.6361 57.6997 30.3697 56.8582 31.6278 56.0168C33.2298 54.9454 33.8286 53.0676 35.1951 51.772C36.1909 50.8279 37.4793 50.3955 38.5857 49.6202C39.4726 48.9986 40.0611 48.035 40.7807 47.2456C41.4531 46.508 42.2236 45.8448 42.8202 45.0413C43.4413 44.2044 43.9595 43.2484 44.4061 42.3086C44.6554 41.7841 44.8761 41.2172 45.1724 40.7188C45.2667 40.5603 45.4021 40.4523 45.5456 40.3398Z" fill="#F7F5F6"/>
<path d="M81.8204 43.2536C81.9331 43.2436 82.0461 43.236 82.1592 43.2307C84.8057 43.108 88.1586 43.679 90.167 45.5307C91.0601 46.3542 91.529 47.356 91.5742 48.5708C91.6434 50.433 90.4695 52.2346 88.8263 53.0684C88.3866 53.2915 87.5794 53.4573 87.2716 53.8383C87.2417 53.8753 87.1959 53.9475 87.1833 53.9917C87.1149 54.2325 87.5247 54.6952 87.6513 54.8794C88.1795 55.6485 88.3028 56.5264 88.3699 57.4343C88.1172 57.1024 87.8586 56.789 87.5722 56.4856C86.5248 55.4939 85.4015 55.0635 84.4151 54.2305C83.8753 54.2262 83.3351 54.2802 82.7949 54.28C80.9318 54.2793 78.9136 53.9987 77.4342 52.7671C76.4154 51.9189 75.862 50.6716 75.7581 49.3618C75.63 47.7485 76.2866 46.2641 77.3261 45.0555C78.5559 43.6257 80.0218 43.3927 81.8204 43.2536Z" fill="#F7F5F6"/>
<path d="M85.165 47.3876C85.9548 47.3921 88.2821 47.3195 88.9243 47.528C89.0708 47.5755 89.1664 47.6251 89.2398 47.7615L89.1882 47.8476C88.7579 48.0322 87.7657 47.8433 87.2582 47.8383C85.4059 47.8203 83.5021 47.7973 81.6609 48.0058C80.6143 48.0734 79.6019 48.1958 78.5746 48.409C78.4002 48.4452 78.1178 48.5348 77.9489 48.4693C77.8425 48.428 77.8194 48.3861 77.7705 48.2926L77.8085 48.205C78.6538 47.5299 83.8884 47.4441 85.165 47.3876Z" fill="#E0214D"/>
<path d="M85.3765 49.0117C86.3324 48.9828 88.1358 48.8531 88.9434 49.3428L88.9448 49.4357C88.8216 49.4907 88.7124 49.5 88.5794 49.5032C88.2324 49.5117 87.8744 49.4486 87.5263 49.4323C86.9244 49.4042 86.315 49.4138 85.7123 49.4222C84.0804 49.4451 82.4504 49.5733 80.8208 49.6583C80.354 49.6991 77.8661 50.0704 77.5957 49.8812C77.5829 49.8215 77.5569 49.7911 77.6001 49.7385C78.0231 49.2246 84.322 49.0359 85.3765 49.0117Z" fill="#E0214D"/>
<path d="M85.2827 45.6799C85.8866 45.6315 87.5074 45.6072 87.9842 45.9604L87.9935 46.0401C87.8609 46.155 87.6562 46.1911 87.4839 46.1904C86.8742 46.1879 86.248 46.0622 85.6301 46.0496C84.0062 46.0168 82.1798 46.1426 80.5726 46.3808C80.1626 46.4467 79.7284 46.5168 79.3321 46.6409C79.1017 46.7131 78.8895 46.8312 78.6556 46.8948C78.5093 46.9346 78.4014 46.9385 78.2685 46.8656C78.256 46.7546 78.2719 46.7033 78.346 46.6157C79.1265 45.6919 83.9439 45.727 85.2827 45.6799Z" fill="#E0214D"/>
<path d="M82.7804 50.7728C83.413 50.7285 84.5462 50.5874 85.0714 50.9735L85.0681 51.0427C84.9432 51.1035 84.8316 51.1234 84.6934 51.1378C84.2099 51.188 83.7086 51.1678 83.222 51.1913C82.1265 51.2424 81.0323 51.3143 79.9395 51.4067C79.5284 51.4337 79.1169 51.4519 78.705 51.4615C78.4522 51.4683 77.872 51.5279 77.6807 51.3462L77.6998 51.2571C78.0537 50.9822 82.0755 50.807 82.7804 50.7728Z" fill="#E0214D"/>
<path d="M71.1768 45.2832C71.4654 45.3757 71.6609 45.6027 71.8885 45.7946C72.8552 45.7498 74.4959 45.6897 75.3864 45.9728C75.1856 46.4804 75.0225 47.0039 74.8496 47.5216L74.6469 48.0575C73.663 48.0611 72.6812 48.1247 71.6972 48.1297C71.4597 47.1969 71.3922 46.2243 71.1768 45.2832Z" fill="#F7F5F6"/>
<path d="M47.9596 44.1981C47.9998 44.194 48.04 44.1891 48.0804 44.1867C48.5202 44.1614 50.8146 44.1136 51.0369 44.3023C51.2185 44.8434 51.6231 45.1713 51.9791 45.6026C51.4256 45.6731 50.8568 45.6594 50.2993 45.6686C50.1205 45.4218 49.9155 45.1997 49.7116 44.9738C49.5876 44.8438 49.4278 44.6438 49.2734 44.5565C49.16 44.4924 49.0694 44.5096 48.9491 44.5371C48.9096 44.5847 48.8736 44.6003 48.8823 44.667C48.9331 45.0525 49.4935 45.4938 49.7626 45.7335C49.0567 45.7491 48.3514 45.7785 47.6466 45.8217C47.4672 45.4219 47.2004 45.1701 46.8916 44.8701C46.9855 44.6684 47.0622 44.4686 47.1344 44.2583L47.9596 44.1981Z" fill="#F7F5F6"/>
<path d="M54.4426 44.2255C55.0842 44.1782 55.7357 44.1892 56.3789 44.1816C56.5669 44.4131 56.7657 44.6318 56.9676 44.8509L57.3906 45.2118C56.7915 45.3268 56.1037 45.2932 55.4912 45.3334C54.52 45.3971 53.5506 45.5059 52.5818 45.5994C52.259 45.1027 51.839 44.6682 51.4473 44.2257C51.6874 44.2216 51.9279 44.2083 52.1678 44.1989C52.7241 44.1995 53.2802 44.2104 53.8361 44.2315C53.9099 44.3818 53.9924 44.5273 54.0835 44.6679C54.2421 44.9171 54.4992 45.2682 54.8216 45.299C54.9422 45.3106 54.9854 45.279 55.0746 45.2124C55.1115 45.1221 55.1257 45.0741 55.112 44.9746C55.0647 44.633 54.7022 44.4041 54.4426 44.2255Z" fill="#F7F5F6"/>
<path d="M83.7122 36.4863C84.0982 36.7985 84.3904 37.2105 84.7679 37.5295C84.9563 37.6889 85.1988 37.7048 85.3832 37.8534C85.4125 38.3917 84.8994 39.1078 84.6373 39.5699C84.5523 39.6724 84.5355 39.7155 84.4048 39.7536C83.954 39.5706 83.5772 39.0278 83.2588 38.6682C83.5667 37.9612 83.6288 37.2438 83.7122 36.4863Z" fill="#F7F5F6"/>
<path d="M82.9348 39.2578C83.2479 39.405 83.8125 40.1362 84.0971 40.431C83.7272 40.853 83.3635 41.2818 82.963 41.6754L82.889 41.7217C82.6812 41.6831 82.0299 40.6327 81.8584 40.4156C82.258 40.06 82.6108 39.6835 82.9348 39.2578Z" fill="#F7F5F6"/>
<path d="M73.5635 42.957C73.9403 42.9516 75.3071 44.7863 76.0444 44.8558C76.0607 44.8573 76.077 44.8584 76.0932 44.8596L76.0987 44.9178L76.0196 45.0005C75.7982 45.0737 75.5595 45.0387 75.3297 45.0263C75.0278 44.9907 74.7224 44.9865 74.4187 44.9749C73.8763 44.3403 73.3133 43.7246 72.7295 43.1278C73.0075 43.0564 73.2794 42.9982 73.5635 42.957Z" fill="#F7F5F6"/>
<path d="M75.5423 42.5742C76.0349 42.9818 76.515 43.4639 76.9615 43.922C76.7784 44.1489 76.5366 44.5343 76.2523 44.6278L76.1355 44.5125C75.5004 44.0377 74.9593 43.3337 74.3975 42.7679C74.7841 42.7463 75.1727 42.692 75.5423 42.5742Z" fill="#F7F5F6"/>
<path d="M71.8377 43.2754C72.1046 43.3321 73.4823 44.7069 73.7707 44.978L73.1719 44.9712L72.3847 44.9714C72.3785 44.9562 72.3725 44.9411 72.3662 44.9259L72.3341 44.8509C72.086 44.2571 71.5799 44.168 71.3458 43.7319C71.2945 43.6363 71.3091 43.6123 71.3359 43.5137C71.4723 43.3763 71.6583 43.3356 71.8377 43.2754Z" fill="#F7F5F6"/>
<path d="M77.7509 42.1992C77.9709 42.2437 78.3379 42.6441 78.5134 42.7972C78.2117 43.0002 77.8996 43.2361 77.5704 43.3923C77.4288 43.4595 77.3775 43.4526 77.2312 43.4052C76.919 43.0968 76.6197 42.7349 76.2539 42.4911C76.7402 42.3692 77.2525 42.254 77.7509 42.1992Z" fill="#F7F5F6"/>
<path d="M60.4127 44.252C60.7182 44.2861 61.0465 44.2645 61.346 44.3245C61.6968 44.3948 61.8277 44.5672 62.0154 44.8566C61.7023 44.9312 61.3997 44.9814 61.0796 45.0143L60.3479 45.0522L59.4385 44.2659C59.762 44.2786 60.089 44.2607 60.4127 44.252Z" fill="#F7F5F6"/>
<path d="M57.2441 44.1973C57.6536 44.2487 58.0728 44.2276 58.4849 44.2228C58.825 44.5179 59.1527 44.8021 59.5167 45.0707L59.4871 45.1207C59.0275 45.1266 58.5694 45.1734 58.1117 45.2123C57.9221 44.9297 57.3219 44.4528 57.2441 44.1973Z" fill="#F7F5F6"/>
<path d="M81.3278 40.8418C81.5949 40.9031 81.9838 41.5224 82.1564 41.7525C81.8385 41.7642 81.5198 41.7891 81.2021 41.8078C80.9818 41.8339 80.7547 41.8334 80.533 41.8426C80.4282 41.7161 80.3388 41.5758 80.2461 41.4402C80.6113 41.2491 80.9719 41.0497 81.3278 40.8418Z" fill="#F7F5F6"/>
<path d="M79.5594 41.6552L79.6435 41.6523C79.8039 41.7779 79.8893 41.979 79.9872 42.1543C79.6873 42.2894 79.274 42.5267 78.9464 42.5436C78.7479 42.3565 78.5299 42.1902 78.3174 42.0193C78.7356 41.9123 79.1496 41.7909 79.5594 41.6552Z" fill="#F7F5F6"/>
<path d="M71.0744 44.291C71.4113 44.491 71.7246 44.7666 72.046 44.9937C71.82 45.0195 71.3628 45.1192 71.1854 44.9484C71.0258 44.7947 71.0698 44.4929 71.0744 44.291Z" fill="#F7F5F6"/>
<path d="M46.7095 45.3828C46.7191 45.389 46.7291 45.3944 46.7383 45.4012C46.9002 45.5215 47.0829 45.6706 47.113 45.8763L47.022 45.9243C46.8736 45.936 46.6807 45.9776 46.5517 45.8953C46.5132 45.7442 46.6489 45.5224 46.7095 45.3828Z" fill="#F7F5F6"/>
<path d="M32.0832 79.0898C32.1135 79.0957 32.1445 79.0994 32.1744 79.1076C32.7439 79.2652 32.4952 80.1492 32.7858 80.5549C33.0746 80.958 33.6298 80.4881 34.0045 80.5902C34.1302 80.6245 34.2355 80.699 34.2888 80.82C34.3189 80.8883 34.3027 80.9523 34.2689 81.0181C34.1819 81.1875 33.9891 81.254 33.8258 81.3268C33.9416 81.8634 34.5419 82.7076 34.3611 83.2419C34.2906 83.4502 34.1238 83.548 33.9324 83.6324C33.8436 83.6715 33.7975 83.6826 33.7015 83.6547C33.4418 83.5788 33.1617 83.3837 32.9177 83.2622C32.6319 83.12 32.3287 83.0128 32.0289 82.9041L31.9335 83.3285C31.8882 83.4222 31.8424 83.518 31.7851 83.6051C31.621 83.8546 31.0173 84.2732 30.7282 84.2904C30.5984 84.2981 30.5696 84.2732 30.4692 84.2022C30.2 83.6837 30.3855 82.852 30.3001 82.2632L30.2899 82.1948C29.9825 82.0384 29.5165 81.8675 29.2855 81.6142C29.2032 81.524 29.1651 81.4456 29.1815 81.3208C29.2518 80.786 30.1863 80.9053 30.5322 80.6575C31.1529 80.2128 31.2669 79.5666 32.0832 79.0898Z" fill="#E0214D"/>
<path d="M49.5978 78.0703C49.6282 78.0762 49.6591 78.0798 49.689 78.088C50.2586 78.2457 50.0099 79.1297 50.3005 79.5354C50.5892 79.9385 51.1445 79.4686 51.5191 79.5707C51.6448 79.605 51.7501 79.6794 51.8034 79.8005C51.8335 79.8688 51.8173 79.9328 51.7835 79.9986C51.6965 80.168 51.5037 80.2344 51.3404 80.3073C51.4562 80.8439 52.0566 81.6881 51.8758 82.2224C51.8052 82.4307 51.6384 82.5285 51.4471 82.6128C51.3582 82.652 51.3121 82.6631 51.2162 82.6351C50.9564 82.5592 50.6763 82.3642 50.4323 82.2427C50.1465 82.1004 49.8434 81.9933 49.5435 81.8846L49.4481 82.3089C49.4028 82.4026 49.357 82.4985 49.2997 82.5856C49.1357 82.8351 48.5319 83.2537 48.2429 83.2708C48.113 83.2785 48.0843 83.2537 47.9838 83.1827C47.7147 82.6642 47.9001 81.8325 47.8147 81.2436L47.8045 81.1753C47.4971 81.0189 47.0312 80.8479 46.8002 80.5947C46.7178 80.5044 46.6797 80.4261 46.6961 80.3013C46.7665 79.7665 47.701 79.8858 48.0468 79.6379C48.6675 79.1933 48.7816 78.547 49.5978 78.0703Z" fill="#E0214D"/>
<path d="M32.1315 79.8047C32.3851 80.0822 32.3662 80.6004 32.5969 80.9068C32.8043 81.182 33.117 81.2238 33.4324 81.2761C33.5049 81.6876 33.6399 82.0575 33.7412 82.459C33.778 82.6048 33.7966 82.7357 33.7175 82.87C33.3632 83.0117 32.5508 82.3551 32.0892 82.3554C31.928 82.3556 31.8713 82.4397 31.7636 82.5423C31.5375 82.9285 31.3351 83.2173 30.984 83.5009C31.0237 82.9122 31.0449 82.373 30.9456 81.7877L30.3379 81.4662C30.8494 81.1872 31.2668 80.9115 31.6207 80.4394C31.7762 80.232 31.9131 80.0146 32.1005 79.8337C32.1107 79.8238 32.1213 79.8144 32.1315 79.8047Z" fill="#F7F5F6"/>
<path d="M49.6472 78.7852C49.9007 79.0627 49.8819 79.5809 50.1125 79.8873C50.3199 80.1625 50.6326 80.2043 50.948 80.2566C51.0206 80.6681 51.1556 81.038 51.2569 81.4395C51.2936 81.5853 51.3122 81.7162 51.2332 81.8504C50.8788 81.9922 50.0665 81.3355 49.6048 81.3359C49.4436 81.3361 49.387 81.4202 49.2792 81.5228C49.0532 81.909 48.8507 82.1977 48.4996 82.4814C48.5393 81.8927 48.5605 81.3534 48.4612 80.7682L47.8535 80.4467C48.365 80.1677 48.7824 79.892 49.1364 79.4198C49.2918 79.2125 49.4288 78.9951 49.6161 78.8142C49.6263 78.8043 49.6369 78.7949 49.6472 78.7852Z" fill="#F7F5F6"/>
<path d="M41.1509 78.8253C41.2724 78.8179 41.4159 78.8027 41.5324 78.8442C41.8319 78.9509 41.87 79.3462 41.9755 79.6016C42.3261 80.4501 42.9505 79.8513 43.4716 80.1261C43.7365 80.2659 43.4679 81.2141 43.4939 81.4761C43.5306 81.8471 43.6544 82.2159 43.7186 82.5838C43.758 82.8101 43.7527 82.9603 43.6123 83.1484C43.4965 83.3035 43.3288 83.4061 43.1363 83.4323C42.6115 83.5036 42.0492 82.9117 41.6668 82.6071C41.2563 82.5926 40.9641 83.166 40.5567 83.2694C40.3889 83.3119 40.1136 83.2951 39.9757 83.1804C39.7 82.9515 39.871 82.0357 39.8895 81.7046C39.5572 81.547 39.0259 81.2941 38.8664 80.9513C38.8208 80.8534 38.7941 80.7164 38.841 80.6154C38.927 80.4303 39.6998 80.4309 39.9041 80.2489C40.3736 79.8305 40.556 79.0808 41.1509 78.8253Z" fill="#E0214D"/>
<path d="M41.428 79.4648C41.7267 79.6765 41.8376 80.1242 42.1589 80.3446C42.4697 80.5579 42.9155 80.5383 43.2143 80.7805C43.2493 80.899 43.2498 82.3822 43.2122 82.478C43.1606 82.6093 43.1354 82.6201 43.0164 82.6788C42.6416 82.6604 42.3263 82.3128 42.0306 82.1101C41.2569 82.0042 40.9895 82.5114 40.6626 82.4434C40.5009 82.1486 40.6969 81.7789 40.6307 81.47C40.5792 81.2303 40.1953 81.0362 40.0039 80.9157C40.5476 80.4927 41.0082 80.0098 41.428 79.4648Z" fill="#F7F5F6"/>
<path d="M22.8018 46.3379C23.6993 46.3583 24.5947 46.4837 25.4888 46.5576C26.3647 46.6301 27.2505 46.653 28.1289 46.6846C29.2814 46.726 30.4558 46.7071 31.6085 46.6767C32.1092 46.6635 32.6078 46.6143 33.1091 46.6132C34.3317 46.6109 35.5582 46.7567 36.7815 46.7864C37.2678 46.7982 39.3548 46.6896 39.6398 46.9135L39.636 47.0053C39.4902 47.0941 39.2854 47.1178 39.1166 47.1454C38.8315 47.1917 38.6358 47.2799 38.383 47.412C38.1879 47.4633 37.9901 47.4901 37.7902 47.5139C36.0164 47.7259 34.1996 47.5024 32.4236 47.4179C30.3806 47.3209 28.3356 47.3665 26.2916 47.242C25.7388 47.2083 25.1748 47.1897 24.6257 47.1156C24.1737 47.0545 23.72 46.9265 23.2658 46.892C22.8533 46.8606 22.0131 47.0637 21.6914 46.8116C21.6613 46.696 21.6541 46.6794 21.691 46.5672C22.0039 46.3986 22.4524 46.3732 22.8018 46.3379Z" fill="#E0214D"/>
<path d="M23.5386 79.9082C24.3715 80.0689 23.7084 81.2827 24.2913 81.8975C24.5548 81.9166 24.8432 81.7804 25.0992 81.7168C25.2723 81.6738 25.5587 81.59 25.7127 81.7187C25.7918 81.7849 25.8141 81.8552 25.8267 81.9537C25.842 82.0734 25.7929 82.2021 25.7118 82.2904C25.4991 82.5222 25.0718 82.5282 24.7801 82.5388L24.7871 82.581L24.7995 82.6512C24.8695 83.0649 25.0709 83.2511 25.251 83.604C25.3578 83.813 25.4019 83.9655 25.3341 84.1919C25.2575 84.2931 25.1825 84.3426 25.0575 84.3656C24.5441 84.4605 24.1743 84.1784 23.7823 83.8992L23.2608 83.6614C22.985 83.9064 22.2894 84.4995 21.9081 84.4518C21.8375 84.443 21.7793 84.4103 21.7357 84.3555C21.4598 84.009 21.6882 83.0411 21.7062 82.6042C21.4567 82.5238 21.0859 82.4184 20.9594 82.1624C20.9067 82.0559 20.9075 81.9165 20.9501 81.808C20.9758 81.7428 21.0324 81.7079 21.1003 81.6894C21.2302 81.6539 21.3615 81.6785 21.494 81.6266C22.2986 81.3114 22.7466 80.2918 23.5386 79.9082Z" fill="#E0214D"/>
<path d="M58.6509 77.3223C59.4838 77.483 58.8208 78.6968 59.4036 79.3116C59.6671 79.3306 59.9556 79.1945 60.2115 79.1309C60.3846 79.0878 60.671 79.004 60.825 79.1328C60.9041 79.1989 60.9264 79.2693 60.939 79.3677C60.9543 79.4874 60.9052 79.6162 60.8241 79.7045C60.6115 79.9362 60.1842 79.9422 59.8924 79.9529L59.8994 79.9951L59.9119 80.0653C59.9818 80.4789 60.1832 80.6652 60.3633 81.0181C60.4701 81.2271 60.5142 81.3795 60.4464 81.6059C60.3698 81.7071 60.2948 81.7566 60.1698 81.7797C59.6564 81.8745 59.2866 81.5925 58.8946 81.3133L58.3731 81.0754C58.0973 81.3205 57.4018 81.9136 57.0204 81.8659C56.9498 81.8571 56.8916 81.8243 56.848 81.7696C56.5721 81.423 56.8005 80.4551 56.8185 80.0182C56.5691 79.9379 56.1982 79.8325 56.0717 79.5764C56.019 79.47 56.0198 79.3305 56.0624 79.2221C56.0881 79.1569 56.1447 79.1219 56.2126 79.1034C56.3425 79.0679 56.4738 79.0926 56.6063 79.0407C57.4109 78.7255 57.8589 77.7059 58.6509 77.3223Z" fill="#E0214D"/>
<path d="M23.6256 80.668C23.7604 80.8094 23.6324 81.4254 23.7132 81.6598C23.8402 82.028 24.1277 82.114 24.3271 82.3907C24.4495 82.5608 24.5412 83.3846 24.6098 83.6437C24.2219 83.475 23.7959 83.205 23.3658 83.1893C23.1993 83.1833 23.1135 83.218 22.9894 83.3254C22.8264 83.5077 22.6221 83.7818 22.3834 83.8525C22.1886 83.7177 22.3636 82.9017 22.3425 82.6456C22.3286 82.4761 22.2694 82.3284 22.2032 82.1733L22.1768 82.1128C22.6596 81.6393 23.1049 81.0982 23.6256 80.668Z" fill="#F7F5F6"/>
<path d="M58.7388 78.082C58.8737 78.2235 58.7457 78.8394 58.8265 79.0738C58.9534 79.4421 59.241 79.5281 59.4403 79.8047C59.5628 79.9749 59.6545 80.7986 59.7231 81.0578C59.3351 80.8891 58.9092 80.6191 58.4791 80.6034C58.3126 80.5974 58.2268 80.632 58.1027 80.7394C57.9397 80.9217 57.7354 81.1959 57.4966 81.2666C57.3018 81.1318 57.4768 80.3157 57.4558 80.0596C57.4419 79.8902 57.3827 79.7425 57.3165 79.5874L57.29 79.5268C57.7728 79.0534 58.2181 78.5123 58.7388 78.082Z" fill="#F7F5F6"/>
<path d="M22.8901 70.4217C22.9182 70.4151 22.9464 70.4092 22.9748 70.404C23.0031 70.3989 23.0315 70.3944 23.0601 70.3905C23.0887 70.3867 23.1174 70.3836 23.1461 70.3812C23.1747 70.3788 23.2035 70.3771 23.2323 70.3761C23.2611 70.3751 23.2899 70.3748 23.3188 70.3752C23.3476 70.3756 23.3764 70.3767 23.4051 70.3785C23.4339 70.3803 23.4626 70.3828 23.4913 70.386C23.5199 70.3892 23.5484 70.3932 23.5769 70.3978C23.6053 70.4024 23.6337 70.4077 23.6619 70.4137C23.6901 70.4197 23.7181 70.4263 23.746 70.4337C23.7738 70.4411 23.8015 70.4492 23.8289 70.4579C23.8564 70.4666 23.8836 70.476 23.9107 70.4861C23.9377 70.4961 23.9644 70.5068 23.9909 70.5182C24.0174 70.5295 24.0436 70.5415 24.0695 70.5541C24.0954 70.5668 24.121 70.58 24.1462 70.5939C24.1715 70.6078 24.1964 70.6223 24.221 70.6375C24.2455 70.6526 24.2696 70.6682 24.2934 70.6845C24.3172 70.7008 24.3405 70.7177 24.3635 70.7351C24.3865 70.7525 24.409 70.7705 24.431 70.789C24.4531 70.8076 24.4747 70.8266 24.4958 70.8463C24.517 70.8658 24.5376 70.8859 24.5578 70.9065C24.578 70.9271 24.5976 70.9482 24.6168 70.9697C24.6359 70.9913 24.6545 71.0133 24.6725 71.0358C24.6906 71.0583 24.7081 71.0812 24.725 71.1045C24.742 71.1278 24.7583 71.1516 24.774 71.1757C24.7898 71.1998 24.805 71.2243 24.8195 71.2491C24.8341 71.274 24.8481 71.2992 24.8614 71.3247C24.8748 71.3503 24.8876 71.3761 24.8996 71.4023C24.9117 71.4285 24.9231 71.455 24.9339 71.4817C24.9447 71.5084 24.9548 71.5353 24.9643 71.5625C24.9737 71.5897 24.9825 71.6172 24.9906 71.6449C24.9988 71.6725 25.0062 71.7004 25.013 71.7284C25.0198 71.7564 25.0259 71.7845 25.0313 71.8128C25.0366 71.8412 25.0413 71.8696 25.0453 71.8981C25.0494 71.9267 25.0527 71.9553 25.0552 71.984C25.0578 72.0127 25.0597 72.0414 25.0609 72.0703C25.0621 72.0991 25.0626 72.1279 25.0624 72.1567C25.0622 72.1855 25.0613 72.2143 25.0597 72.2431C25.058 72.2718 25.0557 72.3005 25.0527 72.3292C25.0497 72.3579 25.0459 72.3865 25.0415 72.4149C25.0371 72.4434 25.032 72.4718 25.0262 72.5C25.0204 72.5283 25.0139 72.5563 25.0067 72.5842C24.9995 72.6121 24.9916 72.6399 24.9831 72.6674C24.9745 72.6949 24.9653 72.7222 24.9555 72.7493C24.9456 72.7764 24.9351 72.8032 24.9239 72.8297C24.9127 72.8563 24.9009 72.8826 24.8885 72.9086C24.876 72.9346 24.8629 72.9603 24.8492 72.9856C24.8354 73.0109 24.8211 73.0359 24.8062 73.0605C24.7912 73.0852 24.7757 73.1095 24.7596 73.1334C24.7434 73.1572 24.7267 73.1807 24.7095 73.2038C24.6922 73.2269 24.6743 73.2495 24.656 73.2717C24.6376 73.2939 24.6187 73.3157 24.5992 73.3369C24.5797 73.3582 24.5598 73.3789 24.5393 73.3992C24.5189 73.4195 24.498 73.4393 24.4765 73.4586C24.4551 73.4779 24.4332 73.4966 24.4108 73.5148C24.3885 73.533 24.3657 73.5506 24.3425 73.5677C24.3193 73.5849 24.2957 73.6014 24.2717 73.6173C24.2477 73.6333 24.2233 73.6486 24.1985 73.6633C24.1737 73.678 24.1486 73.6922 24.1232 73.7057C24.0977 73.7192 24.072 73.7321 24.0459 73.7443C24.0198 73.7566 23.9934 73.7682 23.9668 73.7792C23.9401 73.7902 23.9132 73.8005 23.886 73.8101C23.8589 73.8198 23.8315 73.8287 23.8039 73.8371C23.7763 73.8453 23.7485 73.8529 23.7205 73.8599C23.6924 73.8669 23.664 73.8732 23.6354 73.8789C23.6069 73.8844 23.5783 73.8894 23.5495 73.8936C23.5208 73.8978 23.4919 73.9013 23.463 73.904C23.4341 73.9068 23.4051 73.9089 23.3761 73.9103C23.347 73.9116 23.3179 73.9122 23.2889 73.9122C23.2598 73.9121 23.2308 73.9112 23.2017 73.9097C23.1727 73.9082 23.1438 73.906 23.1148 73.903C23.0859 73.9001 23.0571 73.8965 23.0284 73.8921C22.9996 73.8877 22.971 73.8826 22.9425 73.8769C22.914 73.8711 22.8857 73.8646 22.8576 73.8574C22.8294 73.8503 22.8014 73.8424 22.7736 73.8338C22.7459 73.8253 22.7183 73.8161 22.691 73.8062C22.6637 73.7963 22.6366 73.7857 22.6097 73.7744C22.583 73.7632 22.5565 73.7513 22.5302 73.7388C22.504 73.7262 22.4781 73.713 22.4525 73.6992C22.427 73.6854 22.4018 73.6709 22.377 73.6559C22.3521 73.6408 22.3276 73.6251 22.3035 73.6088C22.2794 73.5925 22.2557 73.5756 22.2325 73.5582C22.2093 73.5408 22.1865 73.5228 22.1642 73.5042C22.1418 73.4857 22.1199 73.4666 22.0985 73.4469C22.077 73.4272 22.0561 73.4071 22.0357 73.3864C22.0153 73.3657 21.9954 73.3446 21.9759 73.3229C21.9566 73.3012 21.9378 73.2791 21.9195 73.2565C21.9012 73.2339 21.8834 73.2109 21.8662 73.1874C21.8491 73.164 21.8325 73.1401 21.8165 73.1158C21.8006 73.0915 21.7853 73.0669 21.7705 73.0419C21.7557 73.0168 21.7416 72.9914 21.7281 72.9657C21.7146 72.9399 21.7017 72.9139 21.6894 72.8875C21.6773 72.8611 21.6657 72.8345 21.6548 72.8076C21.6439 72.7807 21.6336 72.7535 21.624 72.726C21.6145 72.6985 21.6056 72.6709 21.5974 72.6429C21.5891 72.6151 21.5816 72.587 21.5748 72.5588C21.568 72.5305 21.5618 72.5021 21.5564 72.4736C21.551 72.445 21.5463 72.4163 21.5423 72.3876C21.5383 72.3588 21.535 72.3299 21.5323 72.301C21.5298 72.272 21.5279 72.243 21.5267 72.2139C21.5256 72.1849 21.5252 72.1559 21.5255 72.1268C21.5257 72.0977 21.5267 72.0687 21.5284 72.0397C21.5302 72.0106 21.5326 71.9817 21.5357 71.9528C21.5388 71.9239 21.5426 71.8951 21.5472 71.8664C21.5518 71.8377 21.557 71.8091 21.563 71.7806C21.569 71.7522 21.5756 71.7239 21.583 71.6958C21.5904 71.6677 21.5984 71.6398 21.6071 71.612C21.6158 71.5843 21.6253 71.5569 21.6354 71.5296C21.6455 71.5023 21.6562 71.4754 21.6676 71.4486C21.6791 71.4219 21.6911 71.3954 21.7038 71.3693C21.7166 71.3432 21.7299 71.3174 21.7439 71.2919C21.7579 71.2664 21.7726 71.2413 21.7878 71.2165C21.803 71.1918 21.8189 71.1674 21.8353 71.1435C21.8517 71.1195 21.8688 71.0959 21.8863 71.0728C21.9039 71.0497 21.9221 71.027 21.9408 71.0048C21.9595 70.9825 21.9788 70.9607 21.9986 70.9395C22.0184 70.9182 22.0387 70.8974 22.0594 70.8771C22.0802 70.8568 22.1016 70.837 22.1234 70.8178C22.1452 70.7986 22.1674 70.7799 22.1901 70.7617C22.2129 70.7436 22.236 70.7261 22.2596 70.7091C22.2831 70.692 22.3071 70.6756 22.3315 70.6598C22.3559 70.644 22.3807 70.6287 22.4058 70.6141C22.4309 70.5995 22.4564 70.5856 22.4823 70.5722C22.5081 70.5589 22.5342 70.5462 22.5606 70.5342C22.5871 70.5221 22.6138 70.5107 22.6409 70.5C22.6678 70.4892 22.6951 70.4792 22.7226 70.4698C22.7501 70.4604 22.7778 70.4517 22.8058 70.4437C22.8337 70.4357 22.8618 70.4284 22.8901 70.4217Z" fill="#E0214D"/>
<path d="M23.3486 70.9941C23.578 71.0189 23.7978 71.0841 23.9812 71.2277C24.1852 71.3873 24.3059 71.6182 24.3352 71.8744C24.3722 72.1988 24.258 72.5434 24.0546 72.7956C23.8342 73.0689 23.6232 73.1593 23.2826 73.2031C23.1107 73.178 22.96 73.1412 22.8141 73.0433C22.5149 72.8427 22.292 72.5449 22.2292 72.1861C22.1848 71.9318 22.2295 71.6779 22.3832 71.4673C22.615 71.1495 22.9765 71.0443 23.3486 70.9941Z" fill="#F7F5F6"/>
<path d="M65.9489 64.8421C66.8557 64.72 68.7826 64.8688 69.7697 64.9094C70.8945 64.9558 72.0191 64.9474 73.1441 64.9747C73.5197 64.9837 74.1993 64.9454 74.4451 65.2933C74.5306 65.4143 74.5217 65.4564 74.5088 65.5956C74.418 65.7385 74.3355 65.7778 74.1831 65.8464C73.8864 65.9355 73.603 65.9735 73.2944 65.9828C71.6714 66.0314 70.0371 65.9512 68.4152 65.8962C67.6967 65.8718 66.8982 65.9244 66.1902 65.8115C66.0422 65.7878 65.903 65.7345 65.8019 65.6192C65.7192 65.525 65.6878 65.4077 65.6968 65.2847C65.7119 65.0817 65.7977 64.9683 65.9489 64.8421Z" fill="#E0214D"/>
<path d="M16.6783 72.2255C16.953 72.1963 17.1883 72.1919 17.4523 72.2864C17.8007 72.411 18.0252 72.6739 18.1756 73.0038C18.375 73.4413 18.3823 73.8922 18.2089 74.3386C18.0092 74.8529 17.6879 75.1568 17.1946 75.3844C16.8568 75.4592 16.5029 75.4958 16.1752 75.3617C15.8686 75.2362 15.6452 74.993 15.5348 74.6817C15.3621 74.1943 15.4663 73.6113 15.6854 73.156C15.9076 72.6943 16.1988 72.3999 16.6783 72.2255Z" fill="#E0214D"/>
<path d="M16.9182 72.8683C17.0471 72.8561 17.1517 72.8822 17.275 72.9126C17.518 72.9725 17.738 73.0349 17.8663 73.2705C17.989 73.4955 17.9811 73.776 17.8943 74.0117C17.7453 74.4164 17.4808 74.5987 17.1096 74.7754C17.0009 74.7839 16.8904 74.7932 16.7813 74.7903C16.5436 74.7839 16.2572 74.7263 16.1075 74.5225C15.9965 74.3712 15.9875 74.1777 16.0245 73.9998C16.1268 73.5082 16.5147 73.1327 16.9182 72.8683Z" fill="#F7F5F6"/>
<path d="M68.9174 58.3221C69.1348 58.3115 69.3524 58.2854 69.5546 58.3789C69.6542 58.4251 69.7575 58.4622 69.8599 58.5021C69.9768 58.4635 70.1086 58.4139 70.2312 58.4004C70.88 58.329 75.073 58.5677 75.5352 58.7239C75.6744 58.7709 75.7556 58.8492 75.8112 58.9848C75.8952 59.1896 75.8321 59.4168 75.7387 59.6043C75.631 59.6854 75.5765 59.6933 75.4428 59.6977C74.1808 59.3824 72.625 59.444 71.318 59.424C70.9865 59.419 70.5464 59.4878 70.226 59.4308C70.1232 59.4125 70.0145 59.344 69.9232 59.2951C69.8456 59.2536 69.3833 59.5164 69.1315 59.481C68.9411 59.4542 68.7359 59.3545 68.6365 59.1828C68.5637 59.0571 68.5545 58.9048 68.5842 58.7656C68.6315 58.543 68.7327 58.4446 68.9174 58.3221Z" fill="#E0214D"/>
<path d="M81.5617 67.5762L81.7436 67.5843C81.7999 67.6209 81.8281 67.6178 81.8391 67.6909C81.8951 68.0644 81.6539 68.5791 81.5694 68.954C81.3562 69.899 81.1778 70.8372 80.878 71.7603C80.4934 72.9452 79.9233 74.0479 79.4246 75.1857C78.5448 77.1926 77.7874 79.1113 76.6156 80.9847C76.5076 80.9569 76.4345 80.9236 76.3407 80.8635C76.3111 80.6346 77.0967 79.2959 77.2577 78.9736C77.812 77.8641 78.2636 76.7147 78.7601 75.5793C79.2137 74.5421 79.7077 73.5261 80.123 72.4716C80.3843 71.8082 80.6208 71.1183 80.7927 70.4265C81.0315 69.4656 81.1943 68.5019 81.5617 67.5762Z" fill="#E0214D"/>
<path d="M21.2607 47.1895C21.369 47.2007 21.4423 47.2233 21.541 47.269C21.5908 47.3371 21.6169 47.382 21.6317 47.4669C21.677 47.7287 21.6095 48.0948 21.5926 48.3623C21.4646 50.3901 21.1145 52.3716 20.8686 54.3849C20.7933 55.0004 20.8119 55.655 20.7062 56.2595C20.6918 56.342 20.6603 56.3972 20.6143 56.4656C20.512 56.3926 20.433 56.3335 20.375 56.2167C19.806 55.0714 20.674 50.8981 20.8765 49.5854C20.9942 48.8215 21.03 47.9226 21.2607 47.1895Z" fill="#E0214D"/>
<path d="M74.7435 76.4316C74.7999 76.4771 74.8272 76.515 74.8682 76.5736C74.9044 77.0687 74.4836 77.8529 74.3013 78.3234C73.9055 79.3454 71.4909 85.3765 70.8316 85.668C70.7406 85.5887 70.7091 85.5475 70.6748 85.4313C70.6805 85.3622 70.6854 85.2987 70.7096 85.2329C70.8426 84.8703 71.07 84.5019 71.2384 84.1515C71.5514 83.4934 71.8547 82.8308 72.1483 82.1637C72.6208 81.1095 73.0842 80.0512 73.5385 78.989C73.9076 78.1315 74.2556 77.2298 74.7435 76.4316Z" fill="#E0214D"/>
<path d="M72.1641 77.5645C72.3171 77.6108 72.3669 77.6289 72.4504 77.7631C72.627 79.4775 69.8865 84.3077 68.898 85.7505C68.8774 85.7448 68.8561 85.7412 68.8362 85.7335C68.7042 85.6822 68.6855 85.6593 68.6221 85.5404C68.6299 85.3868 68.6743 85.2711 68.7402 85.1323C68.9478 84.6953 69.245 84.2816 69.4823 83.8584C70.1786 82.616 70.8826 81.3467 71.4228 80.0274C71.5456 79.7273 71.6734 79.4195 71.7569 79.1061C71.8837 78.6308 71.912 77.9817 72.1641 77.5645Z" fill="#E0214D"/>
<path d="M83.1631 67.7051C83.2277 67.7315 83.289 67.7643 83.3514 67.7957C83.3588 67.8254 83.3693 67.8546 83.3737 67.8848C83.4969 68.7335 82.0074 72.2349 81.6341 73.2158C81.3474 73.9689 81.1089 74.7475 80.7879 75.4864C80.6098 75.8965 80.4117 76.2934 80.169 76.6693L80.0606 76.6168C80.0414 76.5672 80.0381 76.5677 80.0336 76.5053C80.0027 76.0806 82.0169 70.9846 82.2675 70.2649C82.4484 69.7424 82.6212 69.2172 82.786 68.6894C82.8678 68.4274 82.928 68.1156 83.0416 67.8684C83.0729 67.8002 83.1128 67.7593 83.1631 67.7051Z" fill="#E0214D"/>
<path d="M23.7407 11.7988C23.8344 11.8284 23.9255 11.8616 24.0156 11.901C24.9378 12.3046 27.9163 14.763 28.2074 15.7579C28.2459 15.8899 28.1249 16.0474 28.0613 16.159C27.9446 16.1803 27.8511 16.1854 27.7328 16.1756C26.8489 15.2989 26.1218 14.2837 25.2176 13.4144C24.9777 13.1838 24.7347 12.951 24.4741 12.7437C24.1991 12.5249 23.8562 12.3942 23.6462 12.1024C23.6345 11.9463 23.6615 11.928 23.7407 11.7988Z" fill="#E0214D"/>
<path d="M19.5146 18.5283C19.5873 18.5216 19.6597 18.5145 19.7326 18.5114C21.1215 18.4514 23.1526 19.16 24.4811 19.632C24.8182 19.7518 25.3115 19.8684 25.5781 20.1122C25.5729 20.2477 25.5166 20.2958 25.4435 20.4052C25.2571 20.5075 25.128 20.5935 24.9074 20.5534C24.0516 20.3979 23.1873 19.8663 22.3753 19.544C21.4944 19.1943 20.5678 18.9767 19.6428 18.7816C19.5378 18.6865 19.543 18.6694 19.5146 18.5283Z" fill="#E0214D"/>
<path d="M24.9696 26.0103C25.3035 25.9993 25.8791 25.913 26.1716 26.0685C26.2388 26.1042 26.229 26.1319 26.2482 26.1982C26.0009 26.6134 24.8642 26.6923 24.4026 26.8195C24.0652 26.9126 23.7367 27.0385 23.4096 27.1622C23.1416 27.2889 22.638 27.5658 22.3341 27.4087C22.2148 27.3471 22.2054 27.3153 22.167 27.1967C22.1897 27.0384 22.2489 26.9215 22.3583 26.8054C22.8713 26.2608 24.254 26.0533 24.9696 26.0103Z" fill="#E0214D"/>
<path d="M76.6575 76.6699L76.7593 76.7263C76.7926 76.8819 76.7629 77.0014 76.7088 77.148C76.2901 78.2829 75.5289 79.2942 74.9439 80.3486C74.5962 80.9752 74.3431 81.6451 74.0033 82.267C73.9449 82.3737 73.9019 82.4508 73.7862 82.5011C73.7618 82.48 73.737 82.4596 73.7133 82.4379C73.6598 82.3888 73.5715 82.3201 73.5753 82.2469C73.6022 81.7261 76.2029 77.1065 76.6575 76.6699Z" fill="#E0214D"/>
<path d="M29.4365 8.71233C29.5247 8.7024 29.6475 8.68056 29.7301 8.71984C30.0938 8.89264 30.8597 9.92065 31.0711 10.3121C31.3568 10.8412 31.9182 11.912 31.7332 12.5172C31.6659 12.538 31.5839 12.5705 31.514 12.5753C31.4015 12.583 31.3142 12.5709 31.2358 12.4836C30.9967 12.2178 30.8761 11.4009 30.7266 11.0392C30.4163 10.2884 29.5008 9.4389 29.4365 8.71233Z" fill="#E0214D"/>
<path d="M50.0556 10.6743C50.1732 10.6574 50.2885 10.6319 50.4056 10.6633C50.4803 10.6832 50.4798 10.7166 50.5163 10.7776C50.4483 11.0898 49.9413 11.2239 49.6657 11.3695C49.0482 11.6961 48.4735 12.1868 48.052 12.7428C47.8689 12.9846 47.7331 13.2414 47.513 13.4545C47.4424 13.4598 47.3648 13.4675 47.2947 13.4561C47.1761 13.4368 47.0986 13.3669 47.0366 13.2686C47.0299 13.174 47.0356 13.1026 47.0725 13.0157C47.3915 12.2655 48.2284 11.5306 48.9308 11.1482C49.2778 10.9593 49.6884 10.8246 50.0556 10.6743Z" fill="#E0214D"/>
<path d="M44.821 7.64648C44.8435 7.64914 44.8667 7.64833 44.8886 7.65444C44.9908 7.68303 45.0188 7.72637 45.0738 7.80824C45.0686 7.86255 45.0711 7.86971 45.047 7.92829C44.8858 8.32083 44.3533 8.7306 44.1009 9.09232C43.6439 9.74726 43.3249 10.5234 42.8346 11.1459C42.7491 11.2544 42.6356 11.2962 42.5105 11.3412C42.4701 11.319 42.4043 11.2851 42.3702 11.2566C42.2762 11.1783 42.243 11.1111 42.254 10.9891C42.3077 10.3916 44.2957 8.02162 44.821 7.64648Z" fill="#E0214D"/>
<path d="M27.5459 31.8379C27.5799 31.8388 27.6305 31.8386 27.6625 31.8478C27.7793 31.8817 27.7837 31.9278 27.826 32.0304C27.7499 32.6392 26.0156 34.3471 25.5243 34.766C25.4723 34.7867 25.4092 34.7869 25.3536 34.7934L25.2875 34.7378C25.2789 34.6536 25.2866 34.5862 25.3153 34.5071C25.4811 34.0505 26.702 32.4528 27.0811 32.1119C27.2206 31.9864 27.3751 31.9115 27.5459 31.8379Z" fill="#E0214D"/>
<path d="M37.1067 7.44141C37.1497 7.44834 37.2392 7.46084 37.278 7.47571C37.3332 7.49685 37.3837 7.5362 37.3971 7.59487C37.4866 7.98439 37.0882 8.65756 37.0304 9.07228C36.9843 9.40281 36.9976 9.75995 37.0099 10.0928C37.0169 10.2822 37.1243 10.8507 37.0927 10.9835C37.079 11.0406 37.0291 11.0822 36.9972 11.1315C36.8988 11.1181 36.7785 11.1085 36.6933 11.0539C36.5369 10.9539 36.4653 10.7053 36.4291 10.5361C36.2185 9.55078 36.58 8.27609 37.1067 7.44141Z" fill="#E0214D"/>
<path d="M67.1172 58.2281C67.3498 58.1931 67.6802 58.1616 67.9087 58.2198C68.0976 58.268 68.2827 58.3909 68.3687 58.5694C68.4573 58.7529 68.438 58.9751 68.3534 59.1569C68.2888 59.296 68.2541 59.3355 68.11 59.3833C67.8552 59.4012 67.5637 59.4419 67.3149 59.3749C67.0994 59.3168 66.8568 59.1802 66.7546 58.9735C66.689 58.841 66.6841 58.7048 66.7447 58.5679C66.8322 58.3702 66.9285 58.3082 67.1172 58.2281Z" fill="#E0214D"/>
<path d="M82.7132 59.6348L82.8794 59.6591C82.9919 59.7356 83.0485 59.8264 83.1174 59.9408C83.3945 60.4007 84.5113 62.6154 84.6201 63.0294C84.6507 63.146 84.6352 63.2064 84.6068 63.3198C84.5595 63.3214 84.5204 63.3248 84.4727 63.3157C84.2781 63.2791 84.1344 62.9934 84.0436 62.8375C83.7675 62.3636 82.6043 60.0559 82.7132 59.6348Z" fill="#E0214D"/>
<path d="M83.8264 57.3262C83.8974 57.348 83.9615 57.3494 84.0085 57.4111C84.1768 57.6319 84.3745 58.2622 84.5678 58.5877C84.9375 59.2099 85.5155 59.8125 85.7981 60.4684C85.8504 60.5897 85.8254 60.7446 85.812 60.8723C85.7594 60.8689 85.7164 60.8678 85.6639 60.8567C85.4652 60.8147 85.1581 60.3103 85.0418 60.141C84.5911 59.4849 83.6796 58.1275 83.8264 57.3262Z" fill="#E0214D"/>
<path d="M82.2861 62.4043C82.3538 62.4204 82.4015 62.429 82.4568 62.4744C82.5305 62.5348 82.6659 63.2155 82.7153 63.3617C82.9141 63.9495 83.8205 65.7009 83.8519 66.0759C83.7264 66.1052 83.6307 66.1189 83.5001 66.1138C82.912 65.5474 82.3534 63.2074 82.2861 62.4043Z" fill="#E0214D"/>
<path d="M64.399 64.8848C64.8028 64.8575 65.1389 64.842 65.4603 65.1348C65.5483 65.2149 65.6355 65.3696 65.6226 65.4935C65.6057 65.6563 65.4436 65.849 65.3144 65.9413C65.2274 65.9502 65.1402 65.9572 65.0529 65.9622C64.7825 65.9784 64.4434 65.9337 64.2469 65.7199C64.1571 65.6223 64.1227 65.5366 64.123 65.4036C64.1237 65.1982 64.2653 65.0242 64.399 64.8848Z" fill="#E0214D"/>
</svg>
