<svg width="92" height="102" viewBox="0 0 92 102" fill="none" xmlns="http://www.w3.org/2000/svg">
<path d="M58.557 31.3305C58.0568 31.0072 57.4102 30.9523 56.8551 31.1597C56.8429 31.1597 56.8369 31.1597 56.8247 31.1597C56.7942 31.1658 56.7637 31.1658 56.7393 31.1719C56.6661 31.1841 56.605 31.2329 56.5684 31.2939C56.5501 31.3061 56.5319 31.3122 56.5197 31.3183C56.4038 31.3915 56.355 31.5501 56.4282 31.6721C56.4831 31.7697 56.5989 31.8124 56.7026 31.788C56.7392 31.8063 56.7819 31.8185 56.8307 31.8124C57.0137 31.7941 57.2029 31.7758 57.3859 31.7636C57.4652 31.7636 57.5445 31.7575 57.6299 31.7636C57.6909 31.7697 57.7519 31.7697 57.8068 31.7758C57.8373 31.7758 57.8617 31.7819 57.8922 31.788C57.9044 31.788 57.9532 31.8002 57.9532 31.8002C58.0813 31.8246 58.2093 31.849 58.3374 31.8856C58.4838 31.9283 58.6364 31.849 58.6974 31.7087C58.7401 31.5684 58.6851 31.4098 58.557 31.3305Z" fill="#E0214D"/>
<path d="M55.7571 32.7944C55.6229 32.9225 55.5009 33.0811 55.3972 33.2336C55.3789 33.2641 55.3667 33.2946 55.3484 33.3251C55.2508 33.4166 55.1532 33.502 55.0739 33.6118C54.8726 33.8802 54.8116 34.2279 54.8848 34.5512C54.9702 34.9416 55.2935 35.21 55.6839 35.2588C56.0987 35.3076 56.483 35.0392 56.7453 34.7464C57.0015 34.4597 57.2089 34.112 57.3126 33.7399C57.4163 33.3739 57.3858 32.9225 57.0747 32.6602C56.6782 32.3125 56.117 32.4467 55.7571 32.7944Z" fill="#E0214D"/>
<path d="M51.9383 32.3672C51.932 32.3735 51.9383 32.3735 51.9383 32.3672V32.3672Z" fill="#E0214D"/>
<path d="M51.8044 32.4828C51.7982 32.4766 51.7982 32.4828 51.8106 32.4952C51.8106 32.4952 51.8106 32.5014 51.8168 32.5014C51.8106 32.4952 51.8106 32.489 51.8044 32.4828C51.8044 32.4766 51.8044 32.4766 51.8106 32.4766C51.8044 32.4828 51.8044 32.4828 51.8044 32.4828Z" fill="#E0214D"/>
<path d="M52.2315 31.5611C52.1949 31.5123 52.1461 31.4757 52.0668 31.4757C51.3409 31.4452 50.6272 32.0735 50.6882 32.8177C50.7187 33.2386 50.9261 33.5863 51.2738 33.8242C51.5849 34.0377 52.018 34.0804 52.3718 33.9584C52.7622 33.8242 53.0794 33.5253 53.2014 33.1227C53.3112 32.7628 53.2258 32.3419 53.0001 32.043C52.8049 31.7929 52.5365 31.6099 52.2315 31.5611Z" fill="#E0214D"/>
<path d="M61.784 21.5636C61.052 21.3501 60.4359 21.7404 59.9235 22.2467C59.1488 23.0092 58.5327 23.9426 57.8007 24.7478C56.1964 26.5046 54.4152 28.1027 52.4571 29.4569C50.5051 30.8111 48.2786 32.1653 45.8325 32.2263C43.3559 32.2873 40.7329 30.6892 40.8671 27.9503C40.8732 27.8161 40.7512 27.7733 40.6536 27.8038C40.0741 27.0108 39.458 26.1934 38.5796 25.7115C37.7622 25.2662 36.7008 25.0955 35.8773 25.6262C34.2303 26.6876 34.6573 29.1641 35.2856 30.6769C35.5052 31.2015 35.7736 31.7078 36.0969 32.1714C36.4141 32.6228 36.7862 33.117 37.2864 33.3732C37.4755 33.4708 37.7012 33.2694 37.5853 33.0742C37.3169 32.6167 36.9204 32.2325 36.6154 31.7933C36.3043 31.3419 36.0359 30.8538 35.8346 30.3414C35.4686 29.4203 35.2124 28.3406 35.432 27.3524C35.676 26.2544 36.6032 25.675 37.7073 25.9007C38.8724 26.1447 39.6654 27.1816 40.3486 28.0722C40.3974 28.1332 40.4584 28.1577 40.5194 28.1577C40.5072 30.0731 41.8736 31.7017 43.6609 32.3117C45.8508 33.062 48.2054 32.3728 50.1696 31.3236C50.7918 30.9881 51.3957 30.622 51.9935 30.2316C52.0057 30.3048 52.0484 30.3597 52.1033 30.3963C52.1338 30.4756 52.2009 30.5306 52.2985 30.5184C52.3229 30.5184 52.3412 30.5184 52.3656 30.5184C52.9024 30.7257 53.4392 30.9392 53.9821 31.1284C54.2322 31.2137 54.4335 30.86 54.2444 30.6831C54.1102 30.5611 53.9577 30.4513 53.8052 30.3659C53.7869 30.3049 53.7503 30.25 53.6954 30.2134C53.5795 30.1341 53.4636 30.073 53.3355 30.0242C53.2257 29.9815 53.1098 29.9511 52.9878 29.9328C52.8109 29.9023 52.6401 29.8962 52.4693 29.9083C53.732 29.0422 54.9337 28.0845 56.0439 27.0535C56.9406 26.2239 57.7763 25.3333 58.5571 24.3939C58.7828 24.1255 59.0146 23.7839 59.2708 23.4362C59.3074 23.4728 59.3562 23.4972 59.4233 23.4789C60.5579 23.1556 60.442 24.9125 60.4237 25.553C60.3993 26.4314 60.3383 27.3097 60.2529 28.182C60.076 29.951 59.649 31.6468 59.3196 33.3914C59.2708 33.6659 59.6368 33.7635 59.7344 33.5073C60.4664 31.4821 60.7409 29.1641 60.8324 27.0169C60.8751 26.0836 61.0093 24.9796 60.747 24.0707C60.5823 23.5034 60.1004 23.0398 59.5026 23.1252C60.1004 22.3505 60.808 21.655 61.7291 21.7892C61.8633 21.8075 61.9304 21.6063 61.784 21.5636Z" fill="#E0214D"/>
<path d="M46.5759 54.6863C46.5149 54.5826 46.4173 54.5094 46.3197 54.4606C46.6552 54.0153 46.6125 53.3809 46.1977 52.9783C46.6491 52.5635 46.6613 51.7644 46.1916 51.3374C45.9964 51.1605 45.7097 51.4411 45.8988 51.6302C46.2404 51.9657 46.1306 52.5574 45.7219 52.7892C45.5999 52.8624 45.5755 53.0881 45.7219 53.1491C46.3136 53.4053 46.3502 54.1373 45.789 54.4606C45.5877 54.5765 45.7707 54.8815 45.972 54.7717C46.2282 54.6253 46.3197 55.0157 46.3258 55.1804C46.3319 55.339 46.2892 55.4976 46.2587 55.6501C46.1916 55.9551 46.094 56.254 45.9659 56.5407C45.85 56.7908 45.7097 57.0348 45.5511 57.2544C45.4047 57.4557 45.24 57.6326 45.0997 57.8339C44.6849 58.0596 44.3128 58.3646 43.9346 58.6391C43.4161 59.0173 42.8976 59.3894 42.3852 59.7737C41.4031 60.524 40.4271 61.2743 39.4572 62.0368C39.3657 62.1039 39.4877 62.2564 39.5792 62.1954C40.5979 61.4939 41.6105 60.7741 42.617 60.0543C43.1233 59.6944 43.6174 59.3162 44.1115 58.9441C44.4958 58.6574 44.9045 58.389 45.2461 58.0535C45.5938 57.8522 45.85 57.4557 46.0513 57.1202C46.2831 56.7359 46.4539 56.3211 46.5637 55.888C46.6613 55.5281 46.7894 55.034 46.5759 54.6863Z" fill="#E0214D"/>
<path d="M37.2616 33.3799C37.5544 33.5751 38.1156 33.8069 38.3047 34.1058C38.445 34.3254 38.4206 34.7036 38.4633 34.972C38.567 35.6491 38.7073 36.3201 38.8842 36.9789C39.238 38.2599 39.7809 39.4738 40.4702 40.6084C41.7756 42.7617 43.6971 44.8784 46.0639 45.8605C46.1737 45.9032 46.2164 45.7446 46.1371 45.6836C45.0452 44.8845 43.9411 44.1037 42.9895 43.1338C42.0379 42.17 41.2266 41.0781 40.5678 39.9008C39.9273 38.754 39.4271 37.5157 39.0916 36.2408C38.9147 35.5576 38.8354 34.8744 38.7439 34.179C38.6646 33.5934 37.8899 33.386 37.4202 33.1054C37.2494 33.0017 37.0969 33.2701 37.2616 33.3799Z" fill="#E0214D"/>
<path d="M51.6029 38.4672C51.9445 38.7295 52.585 38.9003 52.8717 38.4794C52.951 38.3635 52.8595 38.2293 52.7497 38.1866C52.8107 38.211 52.7131 38.1683 52.6948 38.1683C52.6765 38.1622 52.6582 38.1622 52.6338 38.1561C52.5972 38.15 52.5667 38.1378 52.5301 38.1317C52.4691 38.1134 52.4081 38.1134 52.3471 38.1134C52.3288 38.1073 52.3105 38.1073 52.2922 38.1012C52.2129 38.0829 52.1336 38.0585 52.0604 38.028C52.0421 38.0219 52.0238 38.0097 52.0055 38.0097C52.0116 38.0097 52.0116 38.0097 52.0116 38.0097C51.975 37.9914 51.9384 37.9731 51.9018 37.9487C51.8652 37.9304 51.8347 37.906 51.7981 37.8816C51.7798 37.8694 51.7676 37.8633 51.7493 37.8511C51.6944 37.8023 51.6395 37.7474 51.5907 37.6925C51.5846 37.6864 51.5785 37.6742 51.5724 37.6681C51.5602 37.6498 51.5541 37.6376 51.5419 37.6193C51.5297 37.601 51.5236 37.5827 51.5114 37.5644C51.5053 37.5583 51.5053 37.5583 51.5053 37.5522C51.5053 37.5522 51.5053 37.5522 51.5053 37.5461C51.4931 37.5095 51.4809 37.4729 51.4748 37.4363C51.4687 37.418 51.4687 37.3997 51.4626 37.3814C51.4626 37.3753 51.4626 37.3692 51.4626 37.3692C51.4626 37.3631 51.4626 37.357 51.4626 37.3448C51.4504 37.2289 51.3711 37.1191 51.243 37.1252C51.121 37.1313 51.0295 37.2228 51.0234 37.3448C51.0295 37.7779 51.2674 38.211 51.6029 38.4672Z" fill="#E0214D"/>
<path d="M52.0298 38.002C52.0603 38.0203 52.0847 38.0142 52.0298 38.002V38.002Z" fill="#E0214D"/>
<path d="M55.6041 33.0003C56.1775 33.0308 56.7387 33.1589 57.2694 33.3663C57.5195 33.4639 57.7635 33.5798 57.9953 33.714C58.2637 33.8665 58.5199 34.0434 58.8066 34.141C59.0445 34.2203 59.2946 33.9153 59.1482 33.7018C58.7822 33.1772 58.0685 32.8905 57.4829 32.7014C56.879 32.5062 56.2385 32.4147 55.6041 32.4269C55.2259 32.4269 55.232 32.982 55.6041 33.0003Z" fill="#E0214D"/>
<path d="M49.8093 31.708C50.2363 31.7141 50.6511 31.769 51.0659 31.8788C51.2794 31.9337 51.4806 32.013 51.6941 32.0679C51.8101 32.0984 51.9321 32.1411 52.0541 32.1472C52.1517 32.1472 52.2554 32.1411 52.353 32.1411C52.5238 32.135 52.5787 31.9459 52.4811 31.8239C52.4079 31.7324 52.3347 31.6409 52.2493 31.5616C52.1578 31.4823 52.0418 31.4396 51.932 31.3847C51.7063 31.281 51.4745 31.2322 51.2305 31.1895C50.7608 31.1041 50.2851 31.0736 49.8093 31.098C49.4189 31.1163 49.4128 31.7019 49.8093 31.708Z" fill="#E0214D"/>
<path d="M39.183 31.3472C39.3599 30.908 39.5246 30.4566 39.549 29.9747C39.5795 29.4989 39.5246 28.9987 39.366 28.5473C39.0793 27.7421 38.5547 26.9918 37.7983 26.5709C37.6092 26.4672 37.3957 26.7234 37.5604 26.8759C38.1216 27.3944 38.6096 27.9861 38.8353 28.7242C39.0366 29.3708 39.1037 30.115 38.9512 30.7921C38.7194 30.3956 38.4083 30.054 38.0301 29.7795C37.8227 29.6331 37.5177 29.4684 37.2554 29.5294C37.048 29.5782 36.9077 29.7551 36.9443 29.9625C36.9504 30.0174 37.0358 29.9991 37.0358 29.9503C37.0419 29.6697 37.3286 29.688 37.4933 29.7734C37.5909 29.8222 37.6702 29.8954 37.7556 29.9625C37.9081 30.0784 38.0484 30.2004 38.1826 30.3407C38.4571 30.6335 38.6645 30.9751 38.8109 31.3472C38.8902 31.5241 39.1098 31.5241 39.183 31.3472Z" fill="#E0214D"/>
<path d="M21.0968 41.498C21.3591 41.4919 21.6458 41.4004 21.902 41.3516C22.1765 41.2967 22.451 41.2845 22.7255 41.2662C23.2745 41.2235 23.8357 41.2357 24.3786 41.3333C24.5677 41.3638 24.7568 41.2845 24.8117 41.0893C24.8544 40.9246 24.7568 40.6806 24.5677 40.6562C23.9333 40.5647 23.3111 40.5525 22.6767 40.6501C22.3778 40.6989 22.0972 40.7904 21.8044 40.888C21.536 40.9795 21.2188 41.0954 21.0053 41.2906C20.926 41.3577 20.987 41.5041 21.0968 41.498Z" fill="#E0214D"/>
<path d="M71.6411 29.0055C71.5496 28.5846 71.4154 28.1576 71.2263 27.7672C71.1287 27.572 71.0189 27.3707 70.8969 27.1877C70.7871 27.0169 70.6346 26.7851 70.4455 26.7058C70.3845 26.6814 70.3113 26.6814 70.2564 26.7058C70.1344 26.6936 70.0063 26.7424 69.9209 26.8949C69.805 27.1023 69.8111 27.4012 69.7928 27.633C69.7806 27.8648 69.8111 28.1088 69.8355 28.3406C69.8904 28.8347 69.9758 29.3227 70.0917 29.8046C70.1466 30.0364 70.2076 30.2682 70.2808 30.4939C70.3601 30.7501 70.4394 31.0307 70.5736 31.2564C70.6163 31.3235 70.6651 31.3723 70.7139 31.415C70.72 31.4394 70.72 31.4638 70.7261 31.4882C70.7383 31.5309 70.7627 31.5736 70.781 31.6163C70.7871 31.6285 70.7932 31.6468 70.7993 31.659C70.8054 31.6651 70.8054 31.6712 70.8115 31.6773C70.8359 31.7078 70.8542 31.7322 70.8786 31.7627C70.9152 31.8054 70.964 31.8359 71.0189 31.8542C71.086 31.8847 71.0616 31.8725 71.1348 31.8847C71.2019 31.8908 71.1958 31.8908 71.2629 31.8847C71.2873 31.8786 71.3117 31.8786 71.3361 31.8725C71.3483 31.8664 71.3605 31.8603 71.3727 31.8542C71.513 31.8786 71.6655 31.8237 71.696 31.6651C71.8302 30.7928 71.8302 29.8778 71.6411 29.0055Z" fill="#E0214D"/>
<path d="M75.5024 28.2548C75.5024 27.8522 74.9656 27.6021 74.6789 27.9132C74.3312 28.2914 74.0201 28.7184 73.77 29.1698C73.6602 29.3223 73.5565 29.4809 73.4711 29.6456C73.1173 30.3227 72.9221 31.073 72.916 31.8355C72.916 32.1405 73.2698 32.2015 73.4345 32.0307C73.5626 32.049 73.6907 32.0124 73.8066 31.9148C73.8371 31.8904 73.8615 31.8599 73.8798 31.8294C73.9469 31.8172 74.014 31.7928 74.0689 31.7318C74.9778 30.8046 75.4963 29.5419 75.5024 28.2548Z" fill="#E0214D"/>
<path d="M87.4159 47.3663C86.385 44.5847 84.8966 41.6933 82.6884 39.662C81.322 38.3993 79.6872 37.6429 77.9487 37.3013C77.9182 37.2098 77.8511 37.1366 77.7291 37.1061C74.1606 36.1728 70.3054 36.6974 67.1273 38.5823C65.8646 39.3326 64.7117 40.272 63.7235 41.3578C62.4364 42.3948 61.3872 43.7246 60.6613 45.2069C60.1489 46.25 59.7585 47.3602 59.5511 48.507C59.5389 48.5802 59.5267 48.6595 59.5145 48.7327C59.3681 49.2451 59.24 49.7636 59.1424 50.3004C58.7398 52.5391 58.9106 54.912 59.5877 57.0836C59.8622 57.9559 60.2709 58.9258 60.8138 59.8103C61.2347 60.6033 61.7349 61.3475 62.3632 62.0063C62.8146 62.4821 63.3087 62.9152 63.8333 63.3056C64.0102 63.4398 64.1993 63.5496 64.3945 63.6533C64.4921 63.7326 64.5897 63.818 64.6934 63.9034C64.6568 63.8912 64.6263 63.8912 64.5897 63.9156C64.1932 64.2145 64.0163 64.7879 63.8028 65.221C63.5527 65.7273 63.3087 66.2336 63.083 66.746C62.839 67.2889 62.6194 67.8379 62.3937 68.3808C62.3327 68.3076 62.2351 68.2588 62.1131 68.2771C60.1184 68.5882 58.4775 69.8143 57.1416 71.3454C57.1355 71.3149 57.1294 71.2905 57.1172 71.2661C57.4832 68.8749 57.6052 66.4471 57.4954 64.0315C57.3978 61.7806 57.1721 59.4382 56.5255 57.2666C55.9887 55.4732 55.0493 53.8018 53.4328 52.7831C51.737 51.7095 49.6752 51.4716 47.7232 51.2459C47.6744 51.2398 47.6378 51.252 47.6073 51.2642C47.5646 51.1727 47.5219 51.0812 47.467 51.0019C47.467 50.9226 47.4548 50.8433 47.4548 50.7579C47.4426 50.154 47.4731 49.5562 47.5524 48.9584C47.5585 48.9157 47.5402 48.8791 47.5158 48.8547C48.2783 48.0434 49.1445 47.3053 49.9131 46.4452C50.0778 46.2622 50.3401 45.9328 50.6024 45.5424C53.2132 44.4627 55.3726 42.651 57.0196 40.3574C57.8431 39.2167 58.5202 37.9601 59.0204 36.6486C59.2827 35.9532 59.484 35.2395 59.6365 34.5075C59.7036 34.1781 59.8256 33.7206 59.8683 33.2997C59.9476 33.2814 60.0208 33.2265 60.0696 33.135C61.0212 31.2867 61.9667 29.4384 62.8634 27.5657C63.6869 25.8455 64.7056 24.0948 65.2241 22.2526C65.6145 20.874 65.5535 19.1477 64.4067 18.129C63.7296 17.5251 62.6987 17.3177 61.8935 17.6837C61.8081 17.1896 61.6434 16.7016 61.497 16.2868C61.1493 15.3169 60.6308 14.4263 59.9781 13.6272C58.63 11.9558 56.7268 10.809 54.726 10.0831C54.2197 9.9001 53.7134 9.7476 53.1949 9.6134C53.2132 9.3755 53.2254 9.1376 53.2193 8.8997C53.9269 6.2401 53.0973 3.0559 50.8708 1.3723C48.1807 -0.665102 44.9294 0.768398 42.2881 2.1165C40.7692 2.8912 39.2747 3.7391 37.6643 4.3125C35.9258 4.9347 34.291 4.9713 32.4671 4.9103C30.997 4.8554 29.5757 5.0567 28.4167 6.0327C27.4712 6.8257 26.849 7.9786 26.5501 9.162C25.7083 12.5597 27.7152 15.7378 29.8502 18.1961C29.9539 18.312 30.0759 18.3242 30.1857 18.2815C30.1979 18.2998 30.2101 18.3181 30.2284 18.3425C29.4659 19.8858 28.9962 21.5694 28.8681 23.2896C28.5936 26.9801 29.9844 30.6096 32.5342 33.2753C33.9006 34.7027 35.5842 35.7885 37.4325 36.4778C37.0116 37.7222 36.4016 38.9056 35.6269 39.9609C34.9986 40.8149 34.2483 41.6079 33.4004 42.2423C32.9856 42.5534 32.5403 42.8401 32.0889 43.0902C31.6863 43.3159 31.2288 43.4684 30.8628 43.749C30.8506 43.7368 30.8384 43.7429 30.8201 43.7368C30.7713 43.6941 30.7164 43.6575 30.6432 43.6514C24.653 42.895 17.6929 42.2484 12.7519 46.4879C10.4217 48.4887 9.03086 51.3496 7.84136 54.119C6.54206 57.1568 5.51726 60.3044 4.54736 63.4642C2.66856 69.5642 0.57626 75.9387 2.00976 82.3681C3.22976 87.8337 6.76166 93.1102 11.1293 96.5811C12.3127 97.5205 13.6547 98.1 15.1797 97.7767C16.662 97.4656 18.0101 96.4896 19.0837 95.4587C20.383 94.2082 21.4505 92.6039 22.0727 90.8654C22.1215 90.8959 22.1825 90.9081 22.2557 90.8898C25.0739 90.1456 27.8006 91.6096 29.7953 93.5189C31.5582 95.2025 32.8819 97.5937 35.1206 98.7039C36.5175 99.3993 38.0364 99.4054 39.2381 98.6734C39.2381 98.6978 39.2381 98.7222 39.2503 98.7527C39.8786 100.296 41.3121 101.321 42.9469 101.565C44.8379 101.845 46.6801 101.089 48.1502 99.9361C51.4808 97.3253 53.0302 93.1407 54.7565 89.4258C55.2445 88.3766 55.7569 87.3396 56.3364 86.3453C56.6353 85.8329 56.9525 85.3327 57.2941 84.8508C57.6296 84.375 58.0261 83.9602 58.2396 83.4173C58.2701 83.3319 58.2518 83.2587 58.2091 83.1977C58.8191 83.0452 59.2644 82.5999 59.545 82.0509C59.5816 82.0631 59.6243 82.0692 59.6487 82.0265C60.6186 80.7943 63.9797 81.0871 63.876 79.0131C64.9252 79.2022 65.8036 78.2384 65.5413 77.2075C66.2306 77.0611 66.6759 76.4145 66.4868 75.713C67.2188 75.469 67.5543 74.5662 67.353 73.8098C67.0724 72.7606 66.0293 71.8761 65.1753 71.2173C65.2241 71.2173 65.279 71.199 65.3156 71.1441C65.9256 70.223 66.5173 69.2775 67.0541 68.3076C67.3225 67.8196 67.5726 67.3255 67.8166 66.8314C67.8776 66.7155 67.9325 66.5935 67.9874 66.4715C68.0606 66.3983 68.1338 66.3312 68.2009 66.258C68.2863 66.1665 68.3778 66.075 68.4632 65.9774C68.7926 66.014 69.1281 66.0506 69.4575 66.0872C69.6222 66.1055 69.7869 66.1299 69.9516 66.136C70.0309 66.136 70.1102 66.1421 70.1895 66.1421C70.2627 66.1421 70.3298 66.136 70.3969 66.1116C70.4213 66.1055 70.4396 66.0872 70.4579 66.075C71.4278 66.3068 72.416 66.441 73.331 66.4532C76.2712 66.502 79.1382 65.4772 81.5111 63.7692C83.9755 61.9941 86.0007 59.487 87.2146 56.6993C88.5627 53.631 88.5688 50.4895 87.4159 47.3663ZM11.2574 95.5502C10.2692 94.6901 9.33586 93.7507 8.46356 92.7564C7.90236 91.0179 7.73766 89.1635 7.99386 87.3518C8.11586 86.5039 8.32936 85.6621 8.61606 84.8508C8.92716 83.9846 9.45176 83.2221 9.77506 82.3742C9.83606 82.2156 9.60426 82.0997 9.49446 82.2095C8.89056 82.8195 8.52456 83.7711 8.22566 84.5641C7.89016 85.4425 7.67666 86.3575 7.55466 87.2908C7.35336 88.8951 7.46926 90.5238 7.89016 92.0854C6.13946 89.9504 4.69986 87.5592 3.69946 84.9911C3.80316 85.0094 3.91296 84.9728 3.93126 84.8508C4.32776 82.2034 5.48066 79.6109 7.14596 77.5186C7.97556 76.4755 8.94546 75.5422 10.0191 74.7492C11.0988 73.9562 12.3005 73.3828 13.4351 72.6813C13.6303 72.5593 13.4961 72.297 13.2887 72.3336C10.5986 72.7728 8.15246 75.0115 6.53596 77.0916C4.84016 79.2815 3.81536 81.8252 3.55916 84.5763C3.29076 83.8504 3.05286 83.1123 2.86376 82.362C1.34486 76.384 3.15046 70.4609 4.87676 64.7391C5.76736 61.7867 6.67016 58.8404 7.79256 55.9612C8.84786 53.2528 10.0374 50.4346 11.9284 48.1898C16.5583 42.6937 24.2504 43.4806 30.631 44.2553C30.7286 44.2675 30.8018 44.237 30.8506 44.1882C31.9059 45.2923 32.8941 46.4635 33.8091 47.6896C34.2727 48.3179 34.718 48.9584 35.1389 49.6172C35.3585 49.9588 35.5598 50.3004 35.7672 50.642C35.9502 50.9409 36.1088 51.2947 36.3955 51.5082C36.4687 51.5631 36.5785 51.4899 36.5724 51.4045C36.548 51.0629 36.3406 50.7701 36.1759 50.4773C35.9624 50.1113 35.7367 49.7514 35.5049 49.3976C35.0596 48.7022 34.5838 48.0251 34.0836 47.3663C33.2052 46.2012 32.2292 45.1093 31.1983 44.0784C31.607 43.9808 31.9852 43.7612 32.3512 43.5599C32.8453 43.2793 33.3211 42.9621 33.7725 42.6144C34.6448 41.9434 35.4195 41.1748 36.0905 40.3025C37.463 38.5091 38.2621 36.3741 38.3414 34.1171C38.3475 33.9646 38.2194 33.9097 38.1096 33.9402C38.1096 33.9097 38.1096 33.8792 38.1035 33.8548C38.073 33.6962 37.9693 33.6108 37.8412 33.5864C37.8168 33.5254 37.7863 33.4583 37.7558 33.3973C37.707 33.2936 37.6033 33.257 37.5057 33.2753C37.4264 33.2265 37.341 33.2204 37.2617 33.2448C37.1275 32.9276 36.9201 32.647 36.6517 32.4274C36.5602 32.3542 36.4504 32.3054 36.3406 32.2871C36.2186 32.1529 36.0905 32.0126 35.9685 31.8784C35.9136 31.8174 35.8526 31.7808 35.7916 31.7564C35.6879 31.5429 35.5964 31.3294 35.5049 31.1098C35.2975 30.3778 35.084 29.6458 34.8766 28.9138C34.9864 28.1818 35.1023 27.4437 35.2121 26.7117C35.3951 26.6751 35.5598 26.5653 35.6757 26.4067C35.7245 26.3457 35.7855 26.2908 35.8343 26.2298C35.8587 26.2298 35.8831 26.2298 35.9136 26.2237C36.2491 26.1444 36.5541 25.9614 36.7798 25.7113C37.2556 25.5283 37.768 25.5588 38.2804 25.693C38.2865 25.6991 38.2865 25.7052 38.2926 25.7113C38.9331 26.2359 39.4699 26.9496 39.9457 27.6267C40.269 28.0842 40.5679 28.56 40.8485 29.048C40.8241 29.1212 40.8119 29.2066 40.8363 29.2981C41.2084 31.0793 42.8127 32.1102 44.5329 32.3847C46.5947 32.7202 48.6382 31.9882 50.3584 30.8902C50.7061 30.6645 51.0477 30.4266 51.3771 30.1826C54.6833 28.5478 57.471 26.1566 59.5877 23.1859C59.6853 23.253 59.7829 23.3201 59.8927 23.375C59.9049 23.3811 59.9171 23.3811 59.9232 23.3872C60.4966 24.0155 60.8748 24.9061 60.8748 25.7662C60.4966 27.4498 60.1184 29.1334 59.7097 30.8048C59.6365 31.1098 59.8439 31.3599 60.094 31.4514C59.911 31.8113 59.728 32.1712 59.545 32.525C59.5389 32.5311 59.5328 32.5311 59.5328 32.5372C59.5206 32.5555 59.5206 32.5738 59.5145 32.5921C59.484 32.647 59.4535 32.708 59.4291 32.7629C59.3986 32.8178 59.3925 32.8788 59.3925 32.9276C59.2766 33.3912 59.301 33.9402 59.2156 34.3855C59.0936 35.026 58.9167 35.6482 58.7154 36.2643C58.2823 37.5758 57.6662 38.8141 56.8793 39.9487C55.4031 42.0837 53.3169 43.7917 50.9623 44.8897C51.4686 43.9442 51.7309 42.8889 50.7122 42.5168C49.8826 42.2118 49.2116 43.1512 48.748 43.6697C47.9123 44.5969 47.0095 45.4692 46.0579 46.2805C44.1242 47.9214 41.9099 49.178 39.9396 50.764C38.2316 52.1365 36.7432 53.8384 36.0661 55.9307C36.0112 55.9307 35.9502 55.9551 35.9014 56.0222C32.5464 60.3166 28.4167 63.8363 24.3236 67.3926L24.3297 67.3865C24.4273 67.2096 24.4029 66.9717 24.3968 66.7765C24.3907 66.5569 24.3785 66.3312 24.348 66.1055C24.2748 65.6175 24.165 65.1478 24.0003 64.6842C23.677 63.7753 23.2317 62.9213 22.6705 62.1405C22.518 61.927 22.2252 62.0124 22.1459 62.1893C22.0788 62.2381 22.03 62.3174 22.0239 62.4211C21.9202 63.5374 21.8714 64.6537 21.9507 65.7761C22.03 66.8924 22.2374 67.9843 22.3899 69.0884C21.4932 69.8814 20.6026 70.6805 19.7364 71.4979C14.9357 75.9997 10.0618 81.6361 10.1167 88.6145C10.1411 91.5974 11.1049 94.5681 13.1484 96.7458C12.4835 96.5079 11.8491 96.0687 11.2574 95.5502ZM18.7848 94.4949C17.8637 95.4587 16.7352 96.3432 15.4603 96.7824C14.8442 96.9959 14.2647 97.0203 13.7218 96.9166C11.6661 94.8365 10.6352 91.9756 10.5376 89.072C10.5254 88.7975 10.5376 88.523 10.5498 88.2485C11.0073 89.3648 11.6356 90.4872 12.6299 91.2131C13.7401 92.0244 15.0699 92.0122 16.3021 91.4937C17.638 90.9325 18.8885 90.048 20.0658 89.2123C20.6636 88.7914 21.2431 88.3522 21.8165 87.8947C21.4505 90.3591 20.5355 92.6588 18.7848 94.4949ZM39.1771 97.734C38.0913 98.7466 36.5053 98.6063 35.267 97.9658C34.0653 97.3436 33.1686 96.2578 32.3024 95.2452C31.4545 94.2509 30.5822 93.2688 29.5757 92.427C27.5322 90.7129 24.8909 89.621 22.2313 90.3774C22.3472 89.9992 22.4326 89.6149 22.5058 89.2245C22.6339 89.3038 22.7864 89.3099 22.9328 89.2123C23.0121 89.1574 23.0548 89.0598 23.067 88.9622C25.8974 88.34 28.7705 89.6637 31.0092 91.3046C31.1129 91.3778 31.2349 91.2131 31.1434 91.1277C30.8567 90.8715 30.5578 90.6275 30.2467 90.3896C30.1064 90.2798 29.96 90.1761 29.8197 90.0724C29.777 90.0419 29.7343 90.0114 29.6916 89.9809C28.7583 89.3099 27.764 88.7426 26.6416 88.34C25.5192 87.9374 23.7868 87.3823 22.6461 88.0472C22.6522 87.8825 22.6644 87.7117 22.6644 87.547C22.6644 87.4128 22.6156 87.3213 22.5485 87.2542C22.8535 86.998 23.1585 86.7479 23.4513 86.4856C25.7083 84.4421 27.7152 82.1302 29.4293 79.617C31.2776 76.9025 32.6196 73.9623 33.9067 70.955C34.657 69.2043 35.4256 67.4597 36.4016 65.8188C36.8957 64.9953 37.4325 64.2023 38.0486 63.4642C38.6464 62.7444 39.3662 62.1466 39.9823 61.4451C40.1104 61.2987 39.9518 61.0669 39.7688 61.1706C38.6159 61.8233 37.7192 63.0067 36.9506 64.0681C36.0661 65.2942 35.3341 66.6301 34.6875 67.9904C33.315 70.8696 32.2536 73.8769 30.6859 76.6646C27.8433 81.7276 23.8173 86.0952 19.041 89.3892C17.6746 90.3347 15.8995 91.7316 14.1305 91.4022C12.4896 91.0972 11.477 89.499 10.8609 88.0838C10.7999 87.9496 10.6108 87.9862 10.5498 88.0899C10.6596 85.1192 11.721 82.2888 13.2826 79.7634C16.9792 73.7976 22.8596 69.4544 28.0385 64.8733C30.8323 62.4028 33.5346 59.8286 35.8648 56.9189C35.938 57.0958 36.2308 57.1324 36.2796 56.9006C36.8591 54.2105 38.8416 52.1853 40.9705 50.581C43.0872 48.9889 45.3381 47.6225 47.2962 45.823C47.7903 45.3716 48.2661 44.8958 48.7236 44.4139C49.0103 44.115 50.2547 42.3765 50.7915 43.1939C51.432 44.176 49.6325 45.8596 49.0469 46.4147C47.4914 47.8909 45.2405 49.4464 45.2405 51.8193C45.2405 52.0633 45.5943 52.1121 45.6614 51.8742C45.9725 50.7518 46.5703 49.8856 47.2718 49.0926C47.1864 49.6294 47.1254 50.1723 47.1132 50.7152C47.1132 50.7823 47.1193 50.8494 47.1193 50.9104C47.1132 50.9226 47.101 50.9409 47.101 50.9531C47.0705 51.1849 47.101 51.4289 47.1437 51.6668C47.1559 51.8803 47.162 52.167 47.2718 52.3622C47.2962 52.5147 47.3145 52.6672 47.3206 52.8136C47.3328 53.509 47.223 54.2044 47.0461 54.8754C46.7106 56.1625 46.1128 57.3581 45.4174 58.4866C44.7403 59.5846 43.9778 60.6216 43.2641 61.7013C42.8981 62.2564 42.5504 62.8176 42.2271 63.3971C42.038 63.7326 41.8794 64.0986 41.7086 64.4524C41.4646 63.5618 41.1108 62.6956 40.8363 61.8233C40.7753 61.622 40.4825 61.7074 40.5252 61.9087C40.7692 63.0677 40.8973 64.2694 41.2877 65.3918C41.4097 65.7456 41.8611 65.6541 41.9038 65.3064C42.0014 64.55 42.5443 63.7326 42.9286 63.0921C43.2885 62.4882 43.6789 61.8965 44.0815 61.317C44.8745 60.158 45.7041 59.0173 46.369 57.779C46.9729 56.6566 47.4609 55.4488 47.6744 54.1861C47.7842 53.5334 47.9062 52.5391 47.7415 51.74C49.6203 51.984 51.615 52.2646 53.2254 53.3382C54.8602 54.424 55.6715 56.254 56.1229 58.1084C57.1599 62.3784 57.0745 66.9473 56.4462 71.2661C56.4279 71.4003 56.4828 71.5101 56.5682 71.5833C56.5255 71.7236 56.4889 71.8639 56.4462 72.0042C56.4157 72.1079 56.3852 72.2116 56.3547 72.3092C55.7264 73.1571 55.1774 74.0477 54.7077 74.9078C54.6162 75.0786 54.5247 75.2494 54.4393 75.4202C54.4759 74.8773 54.4515 74.31 54.4454 73.8098C54.4332 72.9131 54.36 72.0164 54.2258 71.1258C54.0123 69.6801 53.6158 68.2771 53.079 66.9229C53.0424 66.7582 53.0119 66.5935 52.9753 66.4288C52.957 66.3434 52.8899 66.319 52.8289 66.3251C52.7679 66.1787 52.7069 66.0262 52.6398 65.8798C52.5605 65.7029 52.3104 65.8554 52.3836 66.0262C52.5117 66.319 52.6154 66.6179 52.7313 66.9229C53.0851 69.6862 53.1583 72.4861 52.8716 75.2555C52.8411 75.4629 52.8045 75.6764 52.774 75.8838C52.6093 76.3047 52.4324 76.7195 52.2372 77.116C51.8956 77.6711 51.5113 78.2018 51.0721 78.6959C50.7488 79.068 50.4011 79.4279 50.0473 79.7695C49.6813 80.1233 49.2604 80.4344 48.9127 80.8004C48.87 80.8492 48.8456 80.898 48.8395 80.9529C48.7419 80.9956 48.6504 81.0444 48.5528 81.081C48.321 81.1725 48.4064 81.5446 48.6565 81.4653C48.9981 81.3616 49.3275 81.2335 49.6447 81.0932C49.8948 81.02 50.1449 80.9529 50.3828 80.8492C50.7244 80.6967 51.0599 80.5198 51.3527 80.288C51.7492 79.9769 52.0786 79.6109 52.3653 79.2144C52.3714 79.2205 52.3714 79.2327 52.3775 79.2388C52.3409 79.3242 52.3043 79.4096 52.2677 79.495C52.2189 79.6109 52.1701 79.7329 52.1213 79.8549C51.2368 81.4165 50.2242 82.8805 48.87 84.0578C47.6927 83.8504 46.4666 84.314 45.4113 85.0277C45.1307 84.8874 44.7891 84.8447 44.4963 84.7898C44.0632 84.7166 43.624 84.6617 43.1787 84.6373C42.4589 84.6007 41.7391 84.6373 41.0315 84.741C40.4337 84.7715 39.8298 84.8752 39.3296 85.1375C37.8595 85.6011 36.4931 86.3636 35.328 87.3823C35.0474 87.6263 35.4561 88.0228 35.7306 87.7849C35.8892 87.6446 36.06 87.5165 36.2247 87.3884C37.5972 86.8455 39.0368 86.4917 40.513 86.3758C41.6354 86.2904 42.8066 86.4307 43.929 86.2721C43.7277 86.4795 43.5386 86.693 43.3739 86.9004C41.7086 88.9805 41.1474 91.5242 40.7082 94.0862C40.4886 95.3977 40.1836 96.7946 39.1771 97.734ZM61.3018 80.7211C60.7162 80.9102 60.1611 81.1664 59.7402 81.6056C59.8561 81.2823 59.9415 80.9468 60.0086 80.6113C60.1001 80.166 60.1672 79.6902 60.4051 79.2937C60.5759 79.0131 60.3197 78.7508 60.0696 78.7569C59.5572 78.3604 58.9045 78.092 58.2518 78.1652C58.0566 78.1896 57.8858 78.2506 57.7394 78.3421C57.715 78.0798 57.3307 77.9151 57.1721 78.2018C56.7085 79.0253 56.2388 79.8488 55.7752 80.6723C55.5739 81.0383 55.3909 81.4226 55.4519 81.8496C55.5007 82.1729 55.6593 82.4657 55.9155 82.6731C56.3791 83.0513 57.0013 83.2343 57.6113 83.2404C56.8427 83.8077 56.2998 84.8325 55.824 85.6133C55.2018 86.632 54.665 87.6995 54.1587 88.7792C53.2742 90.6519 52.4751 92.5734 51.493 94.3973C50.7 95.0866 50.0534 95.9528 49.2482 96.6421C48.4186 97.3558 47.4731 97.9719 46.4178 98.2952C44.5451 98.8747 42.2759 98.3989 41.3548 96.5079C41.2877 96.3676 41.1352 96.3493 41.0132 96.4042C41.3426 95.5624 41.5073 94.6535 41.672 93.7629C41.916 92.4209 42.221 91.0789 42.77 89.8162C43.3556 88.462 44.2096 87.1993 45.4113 86.327C46.3446 85.6499 47.3023 85.4242 48.3393 85.1802C48.4003 85.1924 48.4613 85.1802 48.5284 85.1375C48.7236 85.0948 48.9188 85.046 49.1201 84.9972C49.3946 84.924 49.4983 84.6434 49.4312 84.4116C50.578 83.3807 51.4808 82.1607 52.2738 80.8553C52.3226 80.8248 52.3653 80.776 52.3958 80.7272C52.4873 80.6052 52.5605 80.4954 52.6093 80.349C52.6276 80.3002 52.6337 80.2514 52.652 80.2026C53.3535 78.9704 53.9818 77.6894 54.6284 76.4267C56.3608 73.0595 58.4592 70.0583 62.1863 68.82C62.0521 69.1433 61.9057 69.4666 61.7776 69.7899C61.7532 69.8509 61.7715 69.9058 61.802 69.9485C61.7105 69.9546 61.619 69.9607 61.5214 69.9729C60.8931 70.0766 60.3014 70.3328 59.7585 70.6561C59.4535 70.8391 59.1485 71.0404 58.874 71.26C58.569 71.504 58.4409 71.8029 58.1786 72.0774C58.1176 72.1445 58.1115 72.2299 58.1359 72.297C58.0505 72.4617 57.9773 72.6325 57.9285 72.8155C57.8675 73.0534 57.8187 73.3462 57.9224 73.578C57.7821 73.6878 57.6113 73.8098 57.6296 73.9989C57.6296 74.0111 57.6418 74.0294 57.6418 74.0416C57.5564 74.0416 57.471 74.0721 57.41 74.1453C57.2453 74.3466 57.1172 74.5845 57.0745 74.8468C57.0501 75.0054 57.0379 75.1579 57.0623 75.3104C57.0867 75.4446 57.1416 75.6032 57.227 75.7069C57.1599 75.8045 57.0989 75.9143 57.0501 76.0241C57.0013 76.1339 56.9586 76.2498 56.9342 76.3657C56.9159 76.4572 56.8976 76.5548 56.9037 76.6524C56.8366 76.689 56.7573 76.7195 56.6963 76.7622C56.007 77.2563 56.5499 78.3238 57.3368 77.9639C57.6235 77.8358 57.41 77.4271 57.1355 77.482C56.9281 77.5247 56.9952 77.3173 57.0928 77.2502C57.2087 77.1709 57.3612 77.1282 57.4954 77.0794C57.7638 76.9879 58.0322 76.9147 58.3128 76.872C58.9045 76.7744 59.5084 76.8049 60.094 76.9025C61.253 77.1038 62.3754 77.6772 63.1623 78.5617C63.2233 78.6349 63.2965 78.6471 63.3636 78.6288C63.3636 78.6593 63.3575 78.6837 63.3636 78.7142C63.8333 80.0074 62.1619 80.4466 61.3018 80.7211ZM63.6747 78.4397C63.6381 78.4275 63.5954 78.4275 63.5588 78.4397C63.5649 78.3787 63.5527 78.3116 63.51 78.2567C62.4669 76.9147 60.8321 76.14 59.1302 76.1705C58.63 76.1766 58.0444 76.2498 57.5198 76.4206C57.5381 76.3657 57.5503 76.3108 57.5686 76.2559C57.5747 76.2376 57.5747 76.2437 57.5625 76.2681C57.5686 76.2559 57.5747 76.2437 57.5747 76.2376C57.5869 76.2132 57.5991 76.1888 57.6113 76.1644C57.6357 76.1217 57.654 76.079 57.6784 76.0424C57.7028 75.9997 57.7272 75.9631 57.7577 75.9265C57.7638 75.9204 57.7638 75.9204 57.7638 75.9143C57.7638 75.9143 57.7699 75.9082 57.776 75.9021C57.7882 75.8838 57.8065 75.8655 57.8187 75.8472C57.8797 75.774 57.9468 75.713 58.02 75.652C58.02 75.652 58.0505 75.6276 58.0566 75.6215C58.0688 75.6093 58.0871 75.5971 58.0993 75.591C58.1359 75.5666 58.1786 75.5422 58.2152 75.5178C58.2579 75.4934 58.2945 75.4751 58.3372 75.4507C58.3433 75.4446 58.3738 75.4385 58.3738 75.4324C58.3921 75.4263 58.4104 75.4202 58.4287 75.4141C58.5263 75.3775 58.6239 75.3592 58.7215 75.3409C58.8069 75.3287 58.8679 75.2494 58.8862 75.1701C59.4169 74.9749 59.9598 74.7431 60.521 74.6699C61.1066 74.5967 61.7166 74.6699 62.2534 74.9139C63.2599 75.3592 63.8028 76.4389 64.8154 76.8537C64.791 76.9269 64.7971 77.0062 64.8459 77.0855C65.3217 77.909 64.547 78.7264 63.6747 78.4397ZM65.3339 76.6341C65.3217 76.5487 65.2668 76.4694 65.1631 76.4328C64.547 76.2254 64.1383 75.6825 63.7052 75.2311C63.2538 74.7614 62.7475 74.4015 62.1253 74.1941C61.0395 73.8342 59.5206 73.9135 58.7642 74.8773C58.7337 74.859 58.6971 74.8468 58.6605 74.8529C58.3494 74.8895 58.0627 75.0054 57.8065 75.1762C57.8065 75.1335 57.8004 75.0908 57.8065 75.042C57.8187 74.9688 57.837 74.8956 57.8675 74.8224C57.8797 74.798 57.8919 74.7675 57.9102 74.7431C57.9224 74.7248 57.9346 74.7004 57.9468 74.6821C57.9529 74.6699 57.959 74.6638 57.9651 74.6516C57.9712 74.6394 57.9651 74.6455 57.959 74.6577C58.0139 74.5845 58.0566 74.5113 58.0566 74.4198C58.0566 74.3466 58.0261 74.2673 57.9773 74.2063C58.0749 74.1758 58.1542 74.1026 58.2518 74.0233C58.386 73.9135 58.5202 73.8098 58.6605 73.7122C58.9472 73.5109 59.2461 73.3401 59.5633 73.1937C60.1916 72.9009 60.8687 72.724 61.558 72.6752C61.6495 72.6691 61.7105 72.6203 61.7471 72.5532C61.7288 72.6081 61.741 72.6752 61.802 72.7057C62.6438 73.1327 63.4307 73.6573 64.181 74.2307C64.547 74.5113 64.9008 74.8102 65.2363 75.1274C65.4071 75.286 65.5718 75.4568 65.7365 75.6215C65.7914 75.6764 65.8463 75.7313 65.9073 75.7801C66.0476 76.201 65.7914 76.6341 65.3339 76.6341ZM65.9256 72.9131C66.2367 73.1876 66.5722 73.4987 66.743 73.883C66.9687 74.3893 66.743 75.1823 66.0964 75.1884C65.9317 75.0237 65.767 74.8651 65.5901 74.7126C65.2302 74.3954 64.852 74.0965 64.4616 73.8159C63.6747 73.2486 62.8024 72.8216 61.9057 72.4556C61.8447 72.4312 61.802 72.4617 61.7715 72.5044C61.8142 72.3641 61.7471 72.1872 61.558 72.1994C60.8077 72.2421 60.0757 72.4129 59.3864 72.7118C59.0509 72.8582 58.7215 73.0351 58.4165 73.2364C58.3921 73.2486 58.3738 73.2669 58.3555 73.2852C58.3555 73.2791 58.3555 73.273 58.3555 73.2669C58.3494 73.1449 58.3494 73.0229 58.3677 72.9009C58.3677 72.9192 58.3677 72.9131 58.3677 72.8826C58.3677 72.8643 58.3738 72.8521 58.3738 72.8338C58.3799 72.8094 58.386 72.785 58.386 72.7606C58.3982 72.6996 58.4165 72.6325 58.4409 72.5715C58.4653 72.4983 58.5019 72.4373 58.5324 72.3702C58.7276 72.2665 58.9472 72.2055 59.1424 72.0896C59.3681 71.9554 59.5694 71.7907 59.7829 71.6443C60.1733 71.382 60.5881 71.138 61.0334 70.9794C61.9728 70.65 62.8939 70.7842 63.7601 71.26C64.547 71.7114 65.2546 72.3214 65.9256 72.9131ZM87.0743 54.485C86.3301 57.2239 84.5184 59.7188 82.4383 61.6159C80.2118 63.6411 77.4302 65.1356 74.3863 65.3613C72.9406 65.4711 71.4827 65.3186 70.098 64.8794C68.9756 64.5256 67.9996 63.94 67.0297 63.3117C67.0236 63.3056 67.0175 63.2995 67.0114 63.2934C66.7308 63.0494 66.4502 62.7993 66.1818 62.5431C65.645 62.0307 65.1143 61.5 64.6202 60.9449C63.6442 59.8591 62.7414 58.6635 61.985 57.4069C61.0944 55.1377 60.7772 52.6428 61.192 50.1296C62.1314 44.4932 66.3587 39.9548 71.8365 38.4176C74.6791 37.6185 77.9609 37.5514 80.5656 39.113C82.9385 40.5343 84.4513 43.017 85.6286 45.4448C87.0133 48.2752 87.9283 51.3496 87.0743 54.485Z" fill="#E0214D"/>
<path d="M54.0127 36.461C54.0313 36.4548 54.0561 36.4424 54.0127 36.461V36.461Z" fill="#E0214D"/>
<path d="M54.7327 36.076C54.6656 35.6368 54.3545 35.3196 54.0434 35.0268C53.9397 34.9353 53.7689 34.917 53.6713 35.0268C53.5737 35.1305 53.5676 35.2952 53.6713 35.3989C53.7323 35.4599 53.7933 35.5209 53.8482 35.5819C53.8787 35.6124 53.9031 35.6429 53.9336 35.6795C53.9336 35.6795 53.958 35.71 53.9641 35.7161C53.9763 35.7344 53.9885 35.7466 54.0007 35.7649C54.0251 35.8015 54.0495 35.8381 54.0678 35.8747C54.08 35.8991 54.0922 35.9174 54.1044 35.9418C54.1044 35.9418 54.1044 35.9479 54.1105 35.954C54.1227 35.9906 54.1349 36.0211 54.1471 36.0577C54.1532 36.076 54.1532 36.0943 54.1593 36.1126C54.1593 36.1187 54.1654 36.137 54.1654 36.1492C54.1654 36.1797 54.1715 36.2285 54.1654 36.259C54.1654 36.2651 54.1654 36.2651 54.1593 36.2712C54.1532 36.2895 54.1471 36.3078 54.141 36.3261C54.141 36.3322 54.141 36.3261 54.141 36.3322C54.1288 36.3505 54.1227 36.3688 54.1105 36.3871C54.0983 36.3993 54.0861 36.4115 54.0739 36.4237C54.0617 36.4298 54.0373 36.4481 54.0373 36.4481L54.0007 36.4664C54.0007 36.4664 54.0068 36.4603 54.0129 36.4603C54.0068 36.4664 53.9946 36.4725 53.9824 36.4725C53.9763 36.4725 53.9702 36.4786 53.9702 36.4786C53.9214 36.4969 53.8909 36.5152 53.8543 36.5457C53.8543 36.5457 53.8543 36.5457 53.8482 36.5457C53.836 36.5518 53.8238 36.5518 53.8177 36.5579C53.7872 36.5579 53.7628 36.5579 53.7323 36.564C53.7018 36.5701 53.6713 36.5884 53.6469 36.6067C53.5493 36.6738 53.5554 36.8141 53.6225 36.8995C53.7384 37.0459 54.0007 37.1252 54.1776 37.0825C54.3667 37.0337 54.5375 36.8873 54.6351 36.7165C54.7449 36.5213 54.7693 36.2956 54.7327 36.076Z" fill="#E0214D"/>
<path d="M53.8481 36.5529C53.855 36.546 53.8619 36.5391 53.8481 36.5529V36.5529Z" fill="#E0214D"/>
<path d="M21.2128 39.4414C20.6089 39.5146 20.0172 39.6549 19.4499 39.8806C19.3035 39.9416 19.1815 40.027 19.0412 40.1002C18.9131 40.1673 18.7911 40.2405 18.6691 40.3137C18.4007 40.4784 18.1811 40.6675 17.9615 40.8932C17.8334 41.0213 17.992 41.2043 18.1445 41.1311C18.3885 41.0152 18.6386 40.9115 18.8826 40.7956C19.0046 40.7407 19.1327 40.6858 19.2608 40.637C19.3889 40.5882 19.517 40.5699 19.6451 40.5211C20.1453 40.332 20.6699 40.2039 21.2006 40.1429C21.3897 40.1246 21.5544 39.9965 21.5544 39.7891C21.5666 39.6244 21.408 39.417 21.2128 39.4414Z" fill="#E0214D"/>
<path d="M88.9046 40.0224C88.7765 39.7296 88.6423 39.4429 88.4776 39.1684C88.1665 38.6316 87.8005 38.1253 87.3918 37.6556C86.5744 36.6979 85.5374 35.9659 84.415 35.4047C84.2137 35.301 84.0368 35.5938 84.2381 35.7097C85.2812 36.3075 86.1718 37.1371 86.9404 38.0521C87.3125 38.4974 87.6419 38.9854 87.9286 39.4917C88.075 39.754 88.2214 40.0224 88.3495 40.2969C88.4776 40.5714 88.6423 40.8215 88.7948 41.0838C88.9046 41.279 89.1669 41.1387 89.1364 40.9435C89.0876 40.6202 89.0327 40.3152 88.9046 40.0224Z" fill="#E0214D"/>
<path d="M90.3075 39.027C90.2526 38.8623 90.1855 38.7098 90.1001 38.5573C89.9476 38.2889 89.7768 38.0327 89.5877 37.7887C89.2034 37.2885 88.7337 36.8676 88.2152 36.5077C88.0749 36.4101 87.8675 36.4833 87.7821 36.6175C87.6845 36.7822 87.7577 36.9469 87.8919 37.0506C88.3189 37.3739 88.6971 37.7765 89.0021 38.2035C89.1668 38.4292 89.3071 38.6671 89.4413 38.9111C89.5755 39.1673 89.7158 39.4052 89.8744 39.6431C89.9415 39.7468 90.0635 39.8017 90.1855 39.7712C90.2953 39.7407 90.399 39.6248 90.3868 39.5089C90.3746 39.3442 90.3624 39.1795 90.3075 39.027Z" fill="#E0214D"/>
<path d="M86.1228 40.0586C84.793 38.2774 83.146 36.7829 81.2184 35.6666C80.8707 35.4653 80.5718 35.9838 80.9073 36.2034C82.6885 37.3624 84.2623 38.8691 85.4823 40.6137C86.074 41.4555 86.5925 42.3583 87.0378 43.2916C87.2696 43.7735 87.5136 44.2493 87.7149 44.7434C87.904 45.2131 88.0565 45.7133 88.2944 46.1647C88.3859 46.3416 88.6604 46.2562 88.6604 46.0671C88.6543 45.0179 88.2456 43.8711 87.8247 42.9256C87.3611 41.9069 86.7877 40.9492 86.1228 40.0586Z" fill="#E0214D"/>
<path d="M66.6151 17.9335C66.4809 17.8481 66.2918 17.903 66.2125 18.0372C66.1271 18.1836 66.1881 18.3483 66.3162 18.4398C66.7066 18.7143 67.0238 19.123 67.1885 19.5622C67.3776 20.0624 67.3959 20.5199 67.341 21.0445C67.3227 21.2031 67.4752 21.3434 67.6216 21.3617C67.7802 21.38 67.9266 21.2885 67.9754 21.1299C68.3353 19.9343 67.6338 18.574 66.6151 17.9335Z" fill="#E0214D"/>
<path d="M69.9761 19.2399C69.9395 19.1057 69.8968 18.9471 69.8114 18.8373C69.7687 18.7824 69.7382 18.7214 69.7016 18.6665C69.6589 18.6055 69.6101 18.5445 69.5552 18.4835C69.4637 18.3798 69.2746 18.5201 69.36 18.636C69.4271 18.7214 69.5003 18.8251 69.5369 18.9288C69.5491 18.9593 69.5491 19.002 69.5613 19.0325C69.5735 19.063 69.5796 19.0996 69.5857 19.1301C69.5979 19.1911 69.604 19.2338 69.6101 19.2887C69.6162 19.4107 69.6223 19.5327 69.6162 19.6547C69.6162 19.7096 69.6101 19.7767 69.604 19.8133C69.5918 19.8926 69.5674 19.9719 69.5979 20.0512C69.6284 20.1366 69.726 20.1915 69.8053 20.1366C69.9395 20.0512 69.9761 19.8682 69.9944 19.7157C70.0066 19.6364 70.0188 19.551 70.0188 19.4778C70.0127 19.3985 69.9944 19.3192 69.9761 19.2399Z" fill="#E0214D"/>
<path d="M84.9817 52.973C85.0976 52.1129 85.1403 51.2467 85.0915 50.3805C85.0854 50.3195 85.0854 50.2524 85.0793 50.1914C85.0976 49.7888 85.0854 49.3862 84.9695 49.0446C84.9024 48.6786 84.7987 48.3187 84.6157 48.0259C84.5669 47.9527 84.4632 47.9893 84.4571 48.0686C84.4022 48.5749 84.4998 49.0934 84.5791 49.6058C84.512 50.0084 84.4815 50.4293 84.4083 50.8136C84.2802 51.4663 84.1704 52.1251 83.9935 52.7717C83.6336 54.1381 83.0968 55.4557 82.4014 56.6879C81.0045 59.1706 79.022 61.2507 76.6613 62.8428C76.5515 62.916 76.5454 63.0441 76.5942 63.1295C76.5881 63.1295 76.5881 63.1356 76.582 63.1356C76.4112 63.2088 76.4783 63.4894 76.6613 63.4223C79.5283 62.3121 81.9439 60.2625 83.4445 57.5724C83.9813 56.6086 84.3778 55.5777 84.6584 54.5102C84.6828 54.4431 84.7011 54.376 84.7133 54.3089C84.8292 53.8636 84.9207 53.4244 84.9817 52.973Z" fill="#E0214D"/>
<path d="M46.9724 29.0068C47.3689 29.0129 47.7715 28.958 48.1558 28.8482C48.2473 28.8177 48.3449 28.7872 48.4364 28.7567C48.5279 28.7201 48.6377 28.6896 48.717 28.6347C48.7963 28.5798 48.8756 28.5249 48.9549 28.47C49.0342 28.4151 49.1257 28.3602 49.1806 28.2748C49.2294 28.1894 49.1501 28.1101 49.0647 28.1223C48.9732 28.1345 48.8878 28.2016 48.8024 28.2382C48.7231 28.2748 48.6499 28.2992 48.5645 28.3297C48.473 28.3602 48.3815 28.4212 48.29 28.4578C48.2107 28.4883 48.1375 28.5188 48.0582 28.5493C47.7105 28.6713 47.3445 28.7384 46.9785 28.7567C46.8077 28.7567 46.8077 29.0068 46.9724 29.0068Z" fill="#F7F5F6"/>
<path d="M52.5786 27.4443C50.6571 28.5667 48.9674 30.1161 46.6616 30.3784C44.7218 30.598 42.5319 29.7135 41.9097 27.7249C41.8365 27.487 41.4644 27.5846 41.5315 27.8286C42.0988 29.8843 44.1667 30.9457 46.198 30.8298C48.638 30.6956 50.9682 29.2316 52.6579 27.5419C52.7006 27.4931 52.6396 27.4138 52.5786 27.4443Z" fill="#F7F5F6"/>
<path d="M63.7102 21.4849C63.8139 21.8082 63.8627 22.1437 63.8505 22.4853C63.8383 22.8208 63.759 23.1563 63.7041 23.4857C63.6858 23.6077 63.8444 23.6931 63.9115 23.5711C64.003 23.4125 64.0762 23.2539 64.1067 23.0709C64.1372 22.8818 64.1494 22.6927 64.1433 22.5036C64.1311 22.1315 64.0579 21.7716 63.9176 21.4239C63.8688 21.2958 63.6675 21.3446 63.7102 21.4849Z" fill="#F7F5F6"/>
<path d="M64.1863 20.7278C64.0826 20.3618 63.9423 20.0019 63.7776 19.6542C63.7227 19.5322 63.5397 19.6359 63.5946 19.7579C63.7471 20.0934 63.8752 20.4472 63.9667 20.8071C64.0582 21.1487 64.0765 21.5269 64.229 21.8502C64.2473 21.8929 64.3144 21.8807 64.3266 21.838C64.412 21.472 64.29 21.0755 64.1863 20.7278Z" fill="#F7F5F6"/>
<path d="M64.742 20.0319C64.742 20.0075 64.742 19.977 64.742 19.9526C64.7359 19.8245 64.6993 19.6964 64.6627 19.5744C64.5834 19.3243 64.4614 19.1108 64.2967 18.9034C63.9917 18.5191 63.5586 18.2324 63.0767 18.1104C62.8388 18.0494 62.7412 18.4093 62.973 18.4764C63.3573 18.5923 63.7111 18.8424 63.949 19.1657C64.071 19.3304 64.1747 19.5195 64.254 19.7086C64.2906 19.8001 64.3211 19.8977 64.3516 19.9953C64.3577 20.0197 64.3699 20.0502 64.376 20.0746C64.3821 20.0868 64.3882 20.1051 64.3943 20.1173C64.4126 20.1478 64.4309 20.1661 64.4614 20.1844C64.4431 20.1539 64.4553 20.1966 64.4614 20.2088C64.4736 20.2332 64.4858 20.2637 64.498 20.2881C64.5346 20.343 64.6139 20.3491 64.6444 20.2881C64.6566 20.2637 64.6688 20.2332 64.681 20.2088C64.681 20.2027 64.7054 20.1173 64.6871 20.16C64.7115 20.1112 64.742 20.0929 64.742 20.0319Z" fill="#F7F5F6"/>
<path d="M55.1833 22.2076C54.8295 22.8908 54.4086 23.5435 53.9267 24.1413C53.6949 24.4341 53.4448 24.7147 53.1825 24.977C53.0544 25.1051 52.9263 25.2332 52.7921 25.3613C52.6579 25.4894 52.4993 25.6053 52.3895 25.7578C52.3346 25.831 52.4383 25.9103 52.5054 25.8737C52.664 25.7883 52.7921 25.648 52.9202 25.526C53.0605 25.3918 53.1947 25.2576 53.3228 25.1173C53.5851 24.8367 53.8291 24.55 54.0609 24.245C54.5367 23.6289 54.9454 22.964 55.2931 22.2686C55.3358 22.1954 55.226 22.1283 55.1833 22.2076Z" fill="#F7F5F6"/>
<path d="M60.271 17.3161C59.1852 16.9379 58.2397 17.9139 57.8433 18.8106C57.5993 19.3596 57.4406 19.9391 57.2271 20.5003C56.9892 21.1225 56.7086 21.7325 56.3975 22.3242C55.7692 23.5259 55.0068 24.6727 54.1406 25.7158C54.0003 25.8805 54.2321 26.1245 54.3846 25.9598C55.7327 24.4836 56.7879 22.8061 57.5565 20.9578C57.9225 20.0733 58.0995 18.9082 58.801 18.2128C59.1609 17.859 59.7952 17.5479 60.2527 17.9139C60.5577 18.1579 60.6736 18.5971 60.515 18.9509C60.454 19.0851 60.5883 19.2864 60.7408 19.1766C61.4606 18.6642 60.9969 17.5723 60.271 17.3161Z" fill="#F7F5F6"/>
<path d="M54.0915 8.77051C51.7674 8.59971 49.303 9.00232 47.0338 9.46592C44.7951 9.92342 42.5991 10.5944 40.4946 11.4789C36.1941 13.2906 32.1742 15.9136 28.8497 19.1893C28.5935 19.4455 28.9839 19.8359 29.2462 19.5858C32.6317 16.4321 36.5174 13.9494 40.8301 12.2658C42.9224 11.4484 45.0757 10.7957 47.2778 10.3382C49.547 9.86852 51.7979 9.77702 54.0915 9.55742C54.5978 9.51472 54.6039 8.80711 54.0915 8.77051Z" fill="#F7F5F6"/>
<path d="M63.376 23.6135C63.315 23.8209 63.2479 24.0344 63.1869 24.2418C63.1259 24.4492 63.0954 24.6749 63.0527 24.8884C63.0466 24.9311 63.1015 24.9433 63.1198 24.9067C63.1991 24.6993 63.2906 24.498 63.3455 24.2845C63.4004 24.071 63.4614 23.8636 63.5163 23.6501C63.5407 23.5586 63.4004 23.522 63.376 23.6135Z" fill="#F7F5F6"/>
<path d="M49.2789 2.56078C49.1142 2.35948 48.8946 2.19478 48.6811 2.04838C48.2541 1.75558 47.7539 1.56038 47.2415 1.48108C46.174 1.31638 45.0821 1.70068 44.3135 2.44488C44.2037 2.55468 44.3684 2.70718 44.4843 2.61568C45.2407 1.99348 46.2716 1.72508 47.2354 1.92028C47.6746 2.00568 48.0833 2.18868 48.4493 2.43878C48.6323 2.56688 48.797 2.72548 48.9617 2.87798C49.1203 3.02438 49.2423 3.21958 49.4192 3.33548C49.5412 3.41478 49.6632 3.28058 49.6449 3.16468C49.6022 2.94508 49.4192 2.73158 49.2789 2.56078Z" fill="#F7F5F6"/>
<path d="M50.8955 39.466C50.7613 39.4355 50.6332 39.4111 50.4929 39.4538C50.438 39.4721 50.3831 39.4965 50.3282 39.5148C50.2916 39.5209 50.255 39.5209 50.2306 39.5331C50.1574 39.5575 50.0903 39.5941 50.0232 39.6246C49.9866 39.6429 49.9561 39.6551 49.9195 39.6734C49.828 39.71 49.7365 39.7344 49.645 39.7588C49.6389 39.7588 49.6389 39.7588 49.6328 39.7588C49.5779 39.7466 49.523 39.7344 49.4681 39.7222C49.4132 39.71 49.3583 39.6917 49.3034 39.6734C49.279 39.6673 49.2607 39.6551 49.2363 39.649C49.2302 39.649 49.2363 39.649 49.2302 39.649C49.1326 39.6002 49.0411 39.5453 48.9496 39.4904C49.0045 39.344 48.9801 39.1793 48.8337 39.0939C48.6934 39.0085 48.5226 39.0634 48.4311 39.1915C48.3335 39.1976 48.242 39.2281 48.181 39.3013C48.0224 39.4721 48.0407 39.6856 48.181 39.8625C48.1993 39.8869 48.2237 39.9052 48.242 39.9296C48.242 40.0394 48.2786 40.1492 48.3213 40.2529C48.3335 40.2834 48.3457 40.3139 48.364 40.3444C48.3884 40.4542 48.4616 40.5701 48.5409 40.6494C48.6507 40.7592 48.7788 40.8446 48.913 40.9178C48.9984 40.9605 49.0838 41.0093 49.1814 41.0276C49.2851 41.052 49.3949 41.0642 49.4986 41.0703C49.8158 41.1008 50.1208 41.0154 50.4075 40.8934C50.6271 40.8019 50.865 40.7043 50.9809 40.4786C50.9138 40.6006 50.9321 40.5518 50.987 40.503C51.0053 40.4847 51.0236 40.4725 51.0419 40.4542C51.1456 40.3505 51.2066 40.2285 51.2371 40.0882C51.3042 39.832 51.17 39.5209 50.8955 39.466Z" fill="#F7F5F6"/>
</svg>
