<svg width="23" height="24" viewBox="0 0 23 24" fill="none" xmlns="http://www.w3.org/2000/svg">
<path d="M11.1751 1.20359C11.5723 0.624014 12.4277 0.624014 12.8249 1.20359L16.031 5.88175C16.1611 6.07148 16.3525 6.21059 16.5731 6.27563L22.0131 7.87923C22.687 8.07789 22.9514 8.89136 22.5229 9.44822L19.0645 13.9431C18.9242 14.1254 18.8511 14.3505 18.8574 14.5804L19.0133 20.2496C19.0326 20.952 18.3406 21.4547 17.6786 21.2193L12.335 19.3191C12.1183 19.2421 11.8817 19.2421 11.665 19.3191L6.32136 21.2193C5.65935 21.4547 4.96738 20.952 4.98669 20.2496L5.14262 14.5804C5.14894 14.3505 5.07581 14.1254 4.93555 13.9431L1.4771 9.44822C1.04864 8.89136 1.31295 8.07789 1.9869 7.87923L7.42686 6.27562C7.64748 6.21059 7.83894 6.07148 7.96897 5.88175L11.1751 1.20359Z" fill="#EBEAEA"/>
<g clip-path="url(#clip0_2_17199)">
<path d="M11.1751 1.20359C11.5723 0.624014 12.4277 0.624014 12.8249 1.20359L16.031 5.88175C16.1611 6.07148 16.3525 6.21059 16.5731 6.27563L22.0131 7.87923C22.687 8.07789 22.9514 8.89136 22.5229 9.44822L19.0645 13.9431C18.9242 14.1254 18.8511 14.3505 18.8574 14.5804L19.0133 20.2496C19.0326 20.952 18.3406 21.4547 17.6786 21.2193L12.335 19.3191C12.1183 19.2421 11.8817 19.2421 11.665 19.3191L6.32136 21.2193C5.65935 21.4547 4.96738 20.952 4.98669 20.2496L5.14262 14.5804C5.14894 14.3505 5.07581 14.1254 4.93555 13.9431L1.4771 9.44822C1.04864 8.89136 1.31295 8.07789 1.9869 7.87923L7.42686 6.27562C7.64748 6.21059 7.83894 6.07148 7.96897 5.88175L11.1751 1.20359Z" fill="#9DE539"/>
</g>
<defs>
<clipPath id="clip0_2_17199">
<rect width="12" height="24" fill="white"/>
</clipPath>
</defs>
</svg>
