<svg width="38" height="36" viewBox="0 0 38 36" fill="none" xmlns="http://www.w3.org/2000/svg">
<path d="M18.1751 1.20359C18.5723 0.624013 19.4277 0.624014 19.8249 1.20359L25.8524 9.99847C25.9824 10.1882 26.1739 10.3273 26.3945 10.3923L36.6216 13.4071C37.2955 13.6058 37.5598 14.4192 37.1313 14.9761L30.6295 23.4264C30.4893 23.6087 30.4161 23.8337 30.4225 24.0637L30.7156 34.7218C30.7349 35.4241 30.0429 35.9269 29.3809 35.6915L19.335 32.1191C19.1183 32.0421 18.8817 32.0421 18.665 32.1191L8.61908 35.6915C7.95707 35.9269 7.26509 35.4241 7.28441 34.7218L7.57755 24.0637C7.58387 23.8337 7.51074 23.6087 7.37047 23.4264L0.868651 14.9761C0.440189 14.4192 0.704499 13.6058 1.37845 13.4071L11.6055 10.3923C11.8261 10.3273 12.0176 10.1882 12.1476 9.99847L18.1751 1.20359Z" fill="#9DE539"/>
</svg>
