<svg width="40" height="36" viewBox="0 0 40 36" fill="none" xmlns="http://www.w3.org/2000/svg">
<path d="M19.1751 1.20359C19.5723 0.624013 20.4277 0.624014 20.8249 1.20359L26.8524 9.99847C26.9824 10.1882 27.1739 10.3273 27.3945 10.3923L37.6216 13.4071C38.2955 13.6058 38.5598 14.4192 38.1314 14.9761L31.6295 23.4264C31.4893 23.6087 31.4161 23.8337 31.4225 24.0637L31.7156 34.7218C31.7349 35.4241 31.0429 35.9269 30.3809 35.6915L20.335 32.1191C20.1183 32.0421 19.8817 32.0421 19.665 32.1191L9.61908 35.6915C8.95707 35.9269 8.26509 35.4241 8.28441 34.7218L8.57755 24.0637C8.58387 23.8337 8.51074 23.6087 8.37047 23.4264L1.86865 14.9761C1.44019 14.4192 1.7045 13.6058 2.37845 13.4071L12.6055 10.3923C12.8261 10.3273 13.0176 10.1882 13.1476 9.99847L19.1751 1.20359Z" fill="#EBEAEA"/>
</svg>
