<svg width="24" height="24" viewBox="0 0 24 24" fill="none" xmlns="http://www.w3.org/2000/svg">
<rect width="24" height="24" rx="12" fill="#25A2E0"/>
<path fill-rule="evenodd" clip-rule="evenodd" d="M16.6411 6.46925C16.8024 6.40136 16.9789 6.37795 17.1523 6.40144C17.3257 6.42494 17.4897 6.49448 17.6271 6.60284C17.7645 6.71119 17.8704 6.8544 17.9336 7.01755C17.9969 7.1807 18.0153 7.35783 17.9869 7.5305L16.5066 16.5094C16.3631 17.3755 15.4128 17.8722 14.6184 17.4408C13.954 17.0799 12.9672 16.5238 12.0795 15.9435C11.6357 15.6531 10.2762 14.723 10.4432 14.0612C10.5868 13.4953 12.8712 11.3689 14.1766 10.1047C14.6889 9.60798 14.4553 9.32146 13.8502 9.77833C12.3478 10.9127 9.93546 12.6377 9.13789 13.1233C8.4343 13.5515 8.06749 13.6246 7.62889 13.5515C6.82871 13.4183 6.08661 13.2121 5.48092 12.9608C4.66246 12.6214 4.70228 11.4962 5.48027 11.1685L16.6411 6.46925Z" fill="#F7F5F6"/>
</svg>
