<svg width="24" height="24" viewBox="0 0 24 24" fill="none" xmlns="http://www.w3.org/2000/svg">
<path d="M4 21C4 21 4.80401 15.7401 11 15.2252M16.6768 14.4142L17.3839 13.7071C17.7127 13.3783 17.8771 13.2139 18.0481 13.1151C18.5122 12.8472 19.084 12.8472 19.5481 13.1151C19.7191 13.2139 19.8835 13.3783 20.2123 13.7071C20.5411 14.0359 20.7055 14.2003 20.8042 14.3713C21.0722 14.8354 21.0722 15.4072 20.8042 15.8713C20.7055 16.0423 20.5411 16.2067 20.2123 16.5355L19.5052 17.2426M16.6768 14.4142L14.0086 17.0823C13.8176 17.2733 13.7221 17.3688 13.6463 17.4776C13.5789 17.5742 13.5232 17.6783 13.4802 17.7879C13.4317 17.9114 13.4053 18.0438 13.3523 18.3087L13.023 19.955C12.9443 20.3484 12.905 20.5451 12.963 20.6855C13.0138 20.8081 13.1112 20.9056 13.2339 20.9563C13.3742 21.0144 13.5709 20.975 13.9644 20.8963L15.6107 20.5671C15.8755 20.5141 16.0079 20.4876 16.1314 20.4392C16.241 20.3962 16.3452 20.3405 16.4418 20.2731C16.5506 20.1972 16.6461 20.1017 16.837 19.9107L19.5052 17.2426M16.6768 14.4142L19.5052 17.2426M16.5 7.5C16.5 9.98528 14.4853 12 12 12C9.51472 12 7.5 9.98528 7.5 7.5C7.5 5.01472 9.51472 3 12 3C14.4853 3 16.5 5.01472 16.5 7.5Z" stroke="#5A5758" stroke-width="1.5" stroke-linecap="round"/>
</svg>
