<svg width="24" height="24" viewBox="0 0 24 24" fill="none" xmlns="http://www.w3.org/2000/svg">
<rect width="24" height="24" rx="12" fill="#0DC043"/>
<path fill-rule="evenodd" clip-rule="evenodd" d="M11.9998 5.54492C8.27187 5.54492 5.25 8.56679 5.25 12.2947C5.25 13.5704 5.60436 14.7651 6.22061 15.783L5.61854 17.8295C5.58397 17.947 5.58169 18.0716 5.61195 18.1903C5.64221 18.309 5.70389 18.4173 5.79049 18.5039C5.8771 18.5905 5.98544 18.6522 6.10413 18.6825C6.22281 18.7127 6.34745 18.7105 6.46496 18.6759L8.51148 18.0738C9.56359 18.7103 10.7701 19.046 11.9998 19.0444C15.7276 19.0444 18.7495 16.0226 18.7495 12.2947C18.7495 8.56679 15.7276 5.54492 11.9998 5.54492ZM10.473 13.8221C11.8384 15.1869 13.1418 15.3672 13.6021 15.384C14.3021 15.4097 14.9838 14.8751 15.2491 14.2548C15.2823 14.1776 15.2943 14.0929 15.2839 14.0095C15.2734 13.9261 15.2409 13.847 15.1897 13.7803C14.8198 13.3078 14.3196 12.9683 13.831 12.6308C13.729 12.5601 13.6036 12.5317 13.4811 12.5516C13.3586 12.5715 13.2486 12.6381 13.1742 12.7375L12.7692 13.3551C12.7478 13.3881 12.7147 13.4118 12.6764 13.4214C12.6382 13.4309 12.5978 13.4255 12.5634 13.4064C12.2886 13.2491 11.8884 12.9818 11.6008 12.6943C11.3133 12.4067 11.0622 12.0247 10.9211 11.7675C10.9041 11.7348 10.8993 11.697 10.9075 11.661C10.9158 11.625 10.9367 11.5931 10.9664 11.5711L11.59 11.1081C11.6793 11.0308 11.7369 10.9234 11.7519 10.8063C11.7668 10.6892 11.738 10.5708 11.671 10.4736C11.3687 10.0308 11.0163 9.46788 10.5054 9.09462C10.4393 9.04714 10.3621 9.01753 10.2812 9.00866C10.2003 8.99979 10.1185 9.01196 10.0437 9.044C9.4227 9.30994 8.88542 9.99166 8.91107 10.693C8.92794 11.1533 9.10816 12.4567 10.473 13.8221Z" fill="#F7F5F6"/>
</svg>
