<svg width="387" height="327" viewBox="0 0 387 327" fill="none" xmlns="http://www.w3.org/2000/svg">
<g clip-path="url(#clip0_0_57)">
<path d="M185.078 0.897461C185.332 0.899117 185.356 0.892078 185.648 0.938039C191.663 1.88127 198.575 7.90009 203.626 11.3231C208.862 14.8721 214.378 18.0297 219.556 21.6461C229.228 28.4003 238.558 36.0572 246.69 44.622C249.404 47.4799 251.901 50.5146 254.442 53.5232C256.79 56.3023 259.324 59.0563 261.398 62.0487C264.444 61.3427 273.937 59.8786 276.478 61.0222C276.95 61.7444 277.077 62.7526 277.19 63.606C277.539 66.2262 277.484 68.9176 277.765 71.5547C278.069 74.4093 278.852 77.3069 278.756 80.1788C277.666 82.4065 273.561 80.9295 271.715 82.4144C270.5 83.3915 269.449 86.7633 268.168 88.3156C266.401 90.4563 263.974 91.8682 262.021 93.7994C260.422 95.3807 259.226 97.4933 257.532 98.9226C256.716 99.612 255.178 100.532 254.043 100.27C253.516 100.148 253.475 100.049 253.246 99.6079C253.483 96.0453 261.121 91.4227 262.605 88.6477C262.856 88.1769 262.564 87.6034 262.433 87.1239C262.281 86.5662 262.071 85.7517 262.473 85.2532C262.767 84.8888 262.948 84.7965 263.394 84.7373C263.998 85.1758 264.348 85.9786 264.718 86.6159C266.32 85.4064 267.344 84.2424 268.246 82.4417C266.711 82.5353 265.361 82.7895 263.912 83.2971C262.978 84.4664 261.429 85.3331 260.808 86.6742C260.811 86.9628 260.832 87.2883 260.804 87.5781C260.746 88.1603 260.704 88.1864 260.284 88.5611C259.889 88.5984 259.399 88.6133 259.026 88.7499C257.19 89.4244 255.762 92.8061 254.775 94.4234L253.009 94.9795L252.518 114.639C252.407 118.873 252.189 123.114 252.278 127.35C257.572 126.481 262.922 125.943 268.248 125.296C284.863 123.277 301.554 121.848 318.152 119.721C320.796 119.382 337.104 116.671 337.973 116.934C338.803 118.032 338.387 119.677 338.489 120.971C338.573 122.032 338.825 123.088 339.046 124.128C339.817 127.744 340.682 131.333 341.228 134.993C341.975 139.998 342.29 145.081 342.824 150.113C344.131 162.449 345.023 174.704 345.809 187.079C346.254 193.993 346.663 200.909 347.036 207.827C347.398 213.698 347.865 219.57 347.954 225.453C348.191 241.196 346.729 256.678 348.691 272.425C354.113 272.463 359.433 272.908 364.836 273.161C366.585 273.243 371.28 272.981 372.664 273.509C373.155 273.696 373.517 274.002 373.687 274.508C373.79 274.818 373.667 274.907 373.54 275.183C372.427 276.005 370.815 276.081 369.47 276.158C363.766 276.489 357.915 275.868 352.186 275.89C345.767 275.916 339.458 276.634 333.071 277.162C332.764 277.813 332.445 278.524 331.867 278.982C329.152 281.137 322.524 279.701 319.243 279.286C318.655 278.64 318.237 278.029 317.832 277.255C311.49 277.942 304.946 277.794 298.565 278.051C291.133 278.35 283.351 279.207 275.944 278.591C275.951 279.351 276.049 280.42 275.748 281.123C275.513 281.673 275.032 281.937 274.485 282.089C271.515 282.916 267.928 282.08 264.851 282.147C256.541 282.328 248.197 282.634 239.892 282.978C229.484 283.408 219.062 283.458 208.662 283.881C200.721 284.204 192.781 284.932 184.842 285.153C179.47 285.303 174.091 284.842 168.709 285.031C162.307 285.268 155.913 285.64 149.527 286.148C144.883 286.536 140.241 287.083 135.589 287.356C130.09 287.68 124.526 287.635 119.018 287.656C115.348 287.671 111.133 288.116 107.53 287.468C106.724 287.323 106.077 286.998 105.375 286.59C97.4923 286.921 89.6525 287.076 81.7638 287.165C81.6296 288.19 81.5596 289.311 80.888 290.15C80.2011 291.008 79.0061 291.183 77.9805 291.322C75.2357 291.693 69.2963 291.867 67.0169 290.099C66.5818 289.394 66.5896 288.6 66.5205 287.794C57.7976 288.227 49.0705 288.544 40.3393 288.745C32.8547 288.848 25.3966 288.675 17.9157 288.583C16.2933 288.563 12.9751 289.135 11.6541 288.362C11.3028 287.95 11.0475 287.614 11.0533 287.042C11.0592 286.464 11.3356 286.132 11.7009 285.724C12.2121 285.473 12.6431 285.328 13.2162 285.295C15.6571 285.152 18.2467 285.395 20.6976 285.462C24.6656 285.59 28.6339 285.601 32.6025 285.494L36.1552 285.392C35.5995 278.732 35.7254 272.105 35.6707 265.428C35.6078 257.807 35.4948 250.163 35.6277 242.544C35.7738 234.167 36.2231 225.769 36.445 217.388C36.7953 204.155 36.0699 190.938 35.8616 177.708C35.8099 174.424 36.0082 171.153 36.0517 167.871C36.1439 162.418 36.056 156.969 35.7879 151.523C35.0294 152.007 34.1329 152.718 33.1802 152.534C32.3181 152.367 31.7823 151.532 31.2953 150.882L32.5851 148.088C33.3826 147.717 34.0985 147.315 34.7316 146.692C37.9017 143.578 48.3506 126.179 50.8706 125.621C51.7952 125.416 52.755 126.284 53.4742 126.775C57.9668 126.773 62.4747 126.446 66.9755 126.407C74.3177 126.343 81.6242 126.572 88.9614 126.751C95.6705 126.914 102.304 126.993 109.001 127.48C111.257 127.644 116.133 127.599 117.97 128.036C118.931 128.264 119.531 128.652 120.058 129.481C120.103 129.968 120.165 130.216 119.802 130.617C119.272 131.202 118.26 131.345 117.518 131.343C116.263 131.339 114.979 131.007 113.735 130.846C111.638 130.573 109.532 130.382 107.42 130.274C97.8145 129.804 88.1585 129.697 78.5436 129.442C70.8565 129.237 59.8292 128.757 52.3653 130.182C51.3008 137.189 51.0821 144.173 50.8337 151.238C50.3207 165.835 50.6081 180.478 50.8929 195.078C51.1797 215.22 51.9359 235.343 53.1616 255.449C53.7392 265.339 54.2038 275.343 55.3122 285.189C59.0206 284.767 62.8664 284.871 66.5979 284.78C66.8588 280.705 67.8123 272.723 70.7588 269.961C72.1658 268.642 73.9413 268.174 75.839 268.282C77.467 268.374 79.0107 268.927 80.0831 270.2C82.8718 273.507 81.8466 280.374 81.6155 284.442C83.996 284.518 86.4336 284.31 88.8169 284.244C94.656 284.082 100.492 283.828 106.332 283.708C106.674 280.604 107.198 277.52 107.462 274.406C107.861 269.694 107.723 264.558 109.097 260.002C113.454 260.137 117.936 259.801 122.245 260.061C121.648 255.647 121.401 251.267 121.63 246.817C126.955 246.749 132.652 247.538 137.885 246.434C138.189 240.394 136.958 231.901 136.566 225.569C136.097 218.008 136.133 210.387 135.516 202.849C134.927 195.667 133.846 188.525 133.061 181.362C132.398 175.312 132.004 169.167 131.546 163.095C131.257 159.263 131.349 155.405 131.181 151.565C130.89 144.901 130.405 138.242 130.229 131.573C130.068 125.476 130.182 119.45 129.513 113.376C121.802 107.945 113.445 102.874 105.03 98.6174C103.157 97.6697 97.8783 96.8403 97.2981 96.3559C96.7686 95.0896 96.8257 81.5109 97.0779 79.4712C97.8629 78.5118 98.8339 79.1491 99.8964 79.1031C101.668 79.0265 104.053 78.128 105.784 77.586C109.39 76.4572 112.171 74.5194 114.94 71.9787C118.563 68.6542 121.775 64.7322 125.07 61.0765L139.979 44.7579C149.599 34.2825 159.755 24.5889 170.04 14.7789C174.941 10.105 179.545 4.82484 185.078 0.897461ZM252.357 130.304C251.763 136.378 252 142.403 251.763 148.483C251.473 155.931 250.697 163.356 250.57 170.813C250.38 181.938 250.85 193.078 250.564 204.203C250.309 214.156 249.459 224.095 249.189 234.061C249.127 236.345 248.595 239.672 249.286 241.821C251.426 244.187 259.384 241.528 260.361 245.175C261.218 248.379 260.259 254.116 260.286 257.69C263.382 257.66 268.632 257.095 271.482 258.321C273.468 260.573 273.642 272.221 274.365 275.902L278.423 275.686L305.06 274.729C309.474 274.574 313.9 274.25 318.314 274.213C318.45 270.981 317.695 259.629 319.689 257.686C321.501 255.92 326.984 255.817 329.468 255.981C330.169 256.027 331.338 256.183 331.816 256.754C333.596 258.885 332.905 271.192 332.833 274.312C337.002 273.202 341.221 272.994 345.425 272.161C344.924 267.622 344.967 262.975 344.926 258.412C344.886 253.936 344.775 249.459 344.852 244.984C344.956 238.89 345.268 232.784 345.243 226.691C345.217 220.438 344.89 214.157 344.617 207.91C344.143 196.265 343.465 184.632 342.583 173.011C341.496 158.057 340.415 140.098 336.921 125.599C336.511 123.897 336.207 121.866 335.506 120.271C335.135 120.212 334.948 120.201 334.565 120.258L287.228 125.823C275.6 127.13 263.873 128.195 252.357 130.304ZM140.929 93.3195C139.167 94.2508 136.782 95.859 134.734 95.413C133.156 94.0561 135.824 93.6297 130.843 93.6984C131.462 103.483 132.519 113.284 132.927 123.077C133.082 126.806 132.873 130.543 132.973 134.273C133.137 140.356 133.574 146.453 133.886 152.532C134.096 156.643 134.152 160.766 134.425 164.872C134.756 169.833 135.095 174.849 135.74 179.78C136.365 184.557 137.281 189.284 137.731 194.084C138.347 200.646 138.536 207.229 138.817 213.811C139.13 219.987 139.399 226.164 139.623 232.343C139.768 237.007 140.802 241.769 139.542 246.334C142.859 247.087 146.827 246.82 150.236 246.826C150.467 236.478 149.851 226.115 149.917 215.759C149.977 206.377 150.739 196.97 150.509 187.59C150.39 182.714 150 177.839 149.82 172.962C149.577 165.94 149.49 158.916 149.561 151.89C149.587 145.913 149.558 139.934 150.549 134.019C153.064 133.123 165.219 130.538 167.377 131.366C167.677 131.482 167.688 131.511 167.908 131.68C167.867 132.147 167.634 132.212 167.281 132.507C166.088 133.501 163.135 134.866 163.05 136.57C163.046 136.649 163.055 136.729 163.058 136.808C163.632 137.285 164.257 137.019 164.666 137.628C164.317 139.408 162.418 140.247 162.557 142.156C162.608 142.849 162.568 143.104 162.218 143.69C162.162 143.783 162.109 143.879 162.053 143.972C160.413 146.658 157.927 148.723 156.422 151.527L156.957 154.178C156.384 154.749 155.774 155.173 155.561 155.966C155.768 156.385 155.993 156.775 156.241 157.17C155.118 158.826 153.535 160.693 153.192 162.7C152.681 165.691 153.143 169.122 153.228 172.159C153.306 175.97 153.321 179.78 153.271 183.591C153.166 193.829 152.592 204.063 152.507 214.304C152.468 218.947 152.722 223.577 152.807 228.216C152.864 231.367 152.692 234.565 152.88 237.706C154.085 238.434 154.806 238.883 155.476 240.183C160.232 240.865 164.855 241.143 169.654 241.282C170.273 240.611 170.889 239.79 171.899 239.794C172.527 239.796 173.222 239.995 173.836 240.124C173.8 233.361 173.631 226.602 173.327 219.847C172.848 209.993 172.055 200.154 171.57 190.301C171.263 184.05 171.355 177.75 171.196 171.49C171.007 164.07 170.584 156.654 170.449 149.234C170.383 145.621 170.578 141.966 170.43 138.362C170.342 136.217 169.866 134.02 169.864 131.897C169.863 131.277 169.993 130.603 170.465 130.168C170.68 129.969 170.989 129.896 171.281 129.918C171.769 129.955 172.172 130.237 172.437 130.636C172.804 131.189 172.864 132.032 172.879 132.674C172.999 137.676 172.519 142.695 172.65 147.7C172.847 155.192 173.652 162.672 173.833 170.148C173.952 175.087 173.629 180.032 173.898 184.974C173.951 197.744 175.084 210.539 175.826 223.284C176.281 231.118 176.173 239.149 177.211 246.914C178.472 246.773 179.69 246.668 180.959 246.681C179.844 238.942 181.285 228.399 181.591 220.412C181.937 211.412 181.65 202.461 181.395 193.463C181.038 179.981 180.54 166.504 179.901 153.033C179.602 147.526 179.343 142.018 179.121 136.508C179.046 134.598 178.678 132.299 178.985 130.451C180.798 129.261 199.981 127.671 202.39 128.154C203.017 128.28 203.613 128.504 203.957 129.077C205.039 130.879 204.685 137.434 204.763 139.756C205.099 149.7 205.617 159.571 205.393 169.529C205.105 182.358 204.012 195.157 203.921 207.993C203.832 220.606 205.377 233.296 204.226 245.909C206.311 245.731 208.362 245.652 210.453 245.635C209.906 240.748 210.331 235.64 210.402 230.723C210.538 221.286 210.765 211.842 210.804 202.406C210.842 193.31 210.731 184.203 210.856 175.108C210.951 168.211 211.285 161.334 211.278 154.431C211.272 149.019 211.314 143.591 211.183 138.181C211.106 134.988 210.768 131.754 210.931 128.564C211.394 127.905 211.835 127.292 212.407 126.723C215.886 126.38 219.373 126.203 222.869 126.192C226.365 126.182 229.853 126.339 233.334 126.662C234.891 151.641 235.658 176.644 235.634 201.671C235.609 210.393 235.32 219.122 235.188 227.845C235.131 231.594 234.682 235.417 235.093 239.148C235.189 240.024 235.314 241.729 235.937 242.337C237.199 243.565 240.134 243.262 241.762 243.101C243.252 242.953 244.777 242.782 246.236 242.454C246.417 236.262 246.527 230.08 246.831 223.89C247.213 216.137 247.791 208.404 248.01 200.641C248.322 189.558 247.66 178.466 247.872 167.382C248.03 159.171 248.993 151.045 249.238 142.849C249.381 138.065 249.288 133.273 249.418 128.488C249.627 120.775 250.028 113.058 250.09 105.341C250.15 97.875 249.867 90.4058 249.963 82.9315C248.215 82.9249 246.463 82.8872 244.719 83.033C236.972 83.428 229.873 84.7965 222.26 85.9128C218.169 86.5128 214.056 86.8825 209.941 87.2622L176.544 90.2074C173.229 90.4791 169.722 89.9867 166.469 90.7076C163.389 91.39 160.312 92.833 157.355 93.953L143.748 99.0241C141.972 99.7002 137.572 101.812 135.868 100.408C135.515 100.117 135.28 99.6584 135.308 99.1951C135.448 96.8954 139.425 94.8135 140.929 93.3195ZM137.951 72.1266C151.195 71.5659 164.394 69.9337 177.575 68.5967C186.177 67.8105 194.786 67.124 203.403 66.5371C212.923 66.0982 222.374 64.9732 231.876 64.3078C237.939 63.8834 244.016 63.5961 250.067 63.0358C252.536 62.8073 255.109 62.6532 257.544 62.1853C255.918 59.5962 253.863 57.2634 251.903 54.9223C245.084 46.7739 239.468 41.5716 231.46 34.6237C228.185 31.782 224.972 28.8483 221.472 26.2832C215.103 21.6163 208.277 17.5134 201.772 13.0295C197.012 9.74888 192.634 5.56767 187.269 3.31062C181.184 12.5351 172.958 20.4197 165.947 28.9614C161.101 34.8659 157.347 41.948 153.15 48.3445C150.434 52.4848 147.687 56.604 144.909 60.7022C142.478 64.3066 139.622 68.094 137.951 72.1266ZM137.36 284.293C142.079 283.797 146.833 283.142 151.564 282.819C153.973 282.654 156.393 282.71 158.805 282.58C163.101 282.349 167.408 281.949 171.71 281.9C175.564 281.857 179.421 282.072 183.274 282.007C192.897 281.846 202.543 281.395 212.165 281.095C220.246 280.877 228.324 280.598 236.401 280.258C248.18 279.696 259.967 278.981 271.765 279.139C270.561 274.643 270.323 266.181 269.911 261.253C265.645 260.963 261.377 260.898 257.105 261.057C251.916 261.304 246.719 261.647 241.524 261.703C230.517 261.822 219.498 261.462 208.497 261.872C201.535 262.131 194.6 262.896 187.652 263.385C179.121 263.952 170.582 264.25 162.032 264.279C154.437 264.329 146.846 264.152 139.261 263.748C134.849 263.528 130.392 263.036 125.982 262.998C125.117 270.003 124.112 277.756 125.074 284.777C129.173 284.717 133.268 284.555 137.36 284.293ZM148.333 261.347C156.541 261.496 164.742 261.195 172.943 260.914C177.993 260.742 183.035 260.687 188.081 260.383C194.109 260.021 200.132 259.226 206.166 259.03C214.303 258.779 222.442 258.613 230.583 258.532C234.328 258.512 238.072 258.708 241.815 258.669C247.028 258.614 252.406 258.224 257.589 257.709C257.566 253.976 257.393 250.155 257.64 246.43C254.526 245.871 251.266 245.296 248.096 245.509C242.046 245.997 235.975 246.186 229.93 246.704C223.544 247.251 217.181 248.041 210.793 248.569C203.292 249.115 195.782 249.466 188.263 249.623C176.315 249.789 164.366 249.855 152.417 249.818C147.799 249.806 142.94 249.238 138.352 249.563C138.321 253.437 138.111 257.05 137.299 260.854C140.972 261.04 144.656 261.296 148.333 261.347ZM194.386 131.073C193.547 131.328 193.153 131.668 192.732 132.437C191.929 133.903 191.62 135.515 190.692 136.951C188.712 140.013 183.305 144.982 182.576 148.145C181.999 150.642 182.753 160.451 182.853 163.799C183.319 179.291 184.014 194.758 184.217 210.259C184.349 220.238 183.455 230.217 183.498 240.2C185.889 240.497 188.285 240.752 190.685 240.964C194.4 241.136 197.973 240.93 201.67 240.643C202.053 227.167 201.554 213.721 201.716 200.244C201.853 188.805 202.693 177.372 202.925 165.933C203.096 157.464 202.795 149.059 202.453 140.6C202.358 138.251 202.622 133.217 201.608 131.252C199.859 130.337 196.349 130.923 194.386 131.073ZM105.086 80.5809C105.595 82.1224 106.624 85.4395 105.832 86.9533C105.699 87.2076 105.663 87.2237 105.487 87.4055C105.056 87.3458 105.179 87.4448 104.933 87.1355C103.776 85.6801 104.068 82.4641 104.244 80.7643C103.277 80.973 102.29 81.1511 101.339 81.4248C101.039 81.5378 100.633 81.5808 100.48 81.8839C99.7987 83.2309 100.232 92.1908 100.356 94.0578C115.64 90.0058 131.72 87.8245 147.474 86.6457C156.53 85.9678 165.599 85.707 174.658 84.9575L203.121 82.491C210.552 81.7866 218.048 80.8985 225.509 80.6074C233.07 80.3446 240.633 80.163 248.197 80.0625C255.578 80.0024 269.352 80.4774 276.089 78.5048C275.473 74.4635 274.81 70.4488 274.55 66.3645C274.518 65.8655 274.524 63.5956 274.188 63.3348C267.729 64.3318 261.257 64.7596 254.745 65.2763L227.509 67.3955L160.741 73.0818C151.698 73.7518 142.65 74.3614 133.599 74.9107C129.109 75.1832 124.502 75.0656 120.063 75.7898C116.668 76.3438 112.942 77.3471 109.855 78.8861C110.171 80.542 111.582 85.5049 110.722 86.9363C110.687 86.9939 110.637 87.0403 110.595 87.0924C110.172 87.0726 110.063 87.0829 109.747 86.7608C108.527 85.5211 108.178 81.3121 108.054 79.5606C107.057 79.8799 106.055 80.183 105.086 80.5809ZM44.9391 179.413C45.5581 180.04 46.0641 180.465 46.0625 181.411C46.0554 184.912 43.4104 189.421 42.5152 192.952L42.6725 193.146C43.7359 192.236 45.8202 187.472 46.2447 185.96C46.5424 184.899 46.6918 183.76 46.7805 182.664C46.9995 179.951 47.2769 175.915 46.544 173.317C45.6869 175.336 45.2517 177.248 44.9391 179.413ZM219.695 240.219C223.55 241.068 227.611 240.696 231.521 240.43C230.933 238.188 230.91 235.772 231.142 233.475C231.577 232.855 232.086 232.206 232.245 231.451C232.781 228.904 232.637 226.11 232.686 223.509L232.888 211.651C233.112 197.93 233.037 184.21 232.663 170.492C232.207 156.766 231.306 143.036 231.019 129.309C229.731 129.216 228.436 129.09 227.144 129.121C222.078 138.35 216.563 148.32 214.316 158.697C213.959 160.349 213.802 162.03 213.744 163.718C213.457 172.012 213.738 180.408 213.713 188.714C213.545 202.071 213.521 215.428 213.638 228.785C213.67 231.136 213.252 237.994 213.703 239.796C213.721 239.867 213.765 239.929 213.797 239.995C216.125 239.444 217.416 239.616 219.695 240.219ZM42.3086 251.968C43.5048 249.343 44.6157 246.529 46.0658 244.041C46.7043 242.945 48.1597 241.825 48.5825 240.713C48.8756 239.942 48.7605 238.944 48.4806 238.185C48.3415 237.808 48.1667 237.506 47.8334 237.276C45.2712 241.583 42.1347 246.925 42.0113 252.069L42.2386 252.162L42.3086 251.968ZM40.6395 219.292C42.6879 214.976 45.0807 211.092 47.4525 206.971C47.4417 205.248 47.303 196.467 46.7018 195.472C44.6629 198.785 41.873 205.18 40.9442 208.919C41.9782 207.212 44.1102 201.56 45.7511 200.932C46.1453 201.204 46.2467 201.312 46.3689 201.813C46.7676 203.456 44.4327 207.389 43.7238 208.882C42.0717 212.492 41.1326 215.322 40.6395 219.292ZM147.874 41.5783C149.017 41.045 150.08 40.6259 151.315 40.3489C152.026 41.2951 151.808 42.3281 151.73 43.449C153.005 42.5058 154.797 41.124 154.95 39.4256C154.996 38.9183 154.804 38.4649 154.432 38.1188C154.269 37.9664 154.074 37.8645 153.883 37.7536C151.007 40.5112 151.176 36.6348 147.874 41.5783ZM46.2885 152.833C45.5246 154.221 44.9221 156.828 45.27 158.395L45.5735 158.469C46.5643 157.266 46.9382 156.155 46.7738 154.581C46.7105 153.973 46.5767 153.378 46.2885 152.833ZM184.476 136.991C183.875 137.086 183.026 137.118 182.633 137.642C181.958 138.541 182.131 139.806 182.367 140.823C182.599 141.824 182.852 142.807 183.242 143.76L185.982 140.196C186.748 139.336 187.591 138.499 188.175 137.502L187.946 137.319C186.594 137.549 185.157 139.435 184.041 139.072C183.937 138.524 184.83 137.26 184.476 136.991ZM47.6508 230.955C44.9383 234.088 42.0457 237.143 39.4553 240.373C39.2822 241.585 38.8876 243.353 39.2983 244.521C40.0499 243.931 40.7016 243.334 41.3012 242.587C42.7438 240.792 47.4951 233.665 47.7299 231.616C47.7597 231.355 47.7895 231.186 47.6508 230.955ZM47.1804 213.491L47.031 213.782C45.2339 217.233 38.758 224.769 40.0987 228.601C40.1861 228.852 40.3298 229.075 40.466 229.3C41.562 227.304 42.2444 225.074 43.1197 222.974C44.1901 220.408 45.7387 218.281 47.5369 216.183C47.5212 215.502 47.6732 213.981 47.1804 213.491ZM118.853 98.7872C117.612 99.1098 115.993 99.7549 114.729 99.617L114.638 99.4398C114.39 98.9678 114.19 98.6348 113.781 98.2759C113.467 98.2829 113.143 98.3106 112.831 98.3094C112.427 98.3077 111.809 98.092 111.564 97.7616C111.317 97.4287 111.239 97.0742 111.12 96.683L110.769 96.5745C110.225 96.7724 109.736 96.8697 109.34 97.3065C110.616 98.5094 118.953 103.614 120.439 103.602C120.509 103.602 120.578 103.588 120.648 103.581C120.578 102.987 120.647 102.872 120.215 102.475L119.807 102.461C119.42 102.446 119.091 102.388 118.717 102.281C118.382 101.809 118.299 101.408 118.376 100.841C118.47 100.157 118.682 99.4568 118.853 98.7872ZM325.173 259.563C325.789 262.817 325.837 266.164 325.902 269.468C325.95 271.848 325.67 274.727 326.448 276.99C327.189 277.483 328.148 277.306 328.991 277.237C329.62 277.148 329.937 277.21 330.392 276.75C330.655 274.635 330.439 260.547 329.42 259.34C329.152 259.024 328.775 258.844 328.359 258.848C328.132 258.85 327.902 258.877 327.676 258.902L325.173 259.563ZM48.0943 224.348C48.1274 223.445 48.2342 222.547 47.9473 221.677L47.5229 221.319C45.2687 224.504 39.4772 230.279 39.9435 234.263L40.1629 234.573C42.7868 231.132 45.1623 227.544 48.0943 224.348ZM75.2406 271.297C73.7219 271.992 72.7119 272.66 72.1099 274.293C71.8201 275.081 71.7886 275.989 72.1629 276.756C72.2523 276.94 72.3252 277.043 72.4391 277.226C73.2341 277.058 73.9736 276.834 74.7814 277.042C75.2017 277.415 75.2257 277.445 75.3553 277.991C74.921 279.944 73.5202 281.694 72.4478 283.349C73.3749 282.513 74.68 281.005 75.959 280.848C76.2625 281.045 76.2961 280.961 76.3309 281.262C76.3839 281.723 76.2037 282.169 76.07 282.604C75.7118 283.629 74.8228 285.389 75.2394 286.447C75.3677 286.774 75.5901 286.902 75.9184 287.019C76.405 287.192 77.055 287.093 77.5022 286.878C78.9929 284.151 78.9655 276.815 78.1184 273.908C77.8923 273.132 77.5126 272.116 76.7619 271.694C76.3259 271.449 75.7234 271.375 75.2406 271.297Z" fill="#151314"/>
<path d="M304.373 134.736C306.78 134.557 309.234 134.618 311.557 135.325C315.838 136.627 318.698 139.986 320.697 143.853C323.719 149.699 324.116 156.391 322.141 162.64C324.105 162.625 326.667 162.327 328.487 163.135C329.056 163.388 329.5 163.765 329.651 164.391C329.777 164.912 329.595 165.256 329.316 165.668C327.435 166.702 322.402 165.9 320.046 165.923C312.354 165.996 304.788 167.07 297.174 168.019C297.889 170.388 298.402 172.813 298.95 175.225C299.41 177.538 301.228 185.694 300.025 187.458C299.691 187.947 299.556 187.957 299.015 188.052C298.461 187.855 298.171 187.781 297.969 187.164C297.468 185.627 297.44 183.65 297.227 182.038C296.5 176.548 295.294 171.091 291.922 166.59C290.925 166.549 289.805 166.612 288.855 166.276C288.216 166.05 288.064 165.591 287.82 165.019C287.863 164.504 287.87 164.299 288.323 163.954C290.062 162.633 294.821 163.197 296.965 163.259C296.64 162.617 296.335 161.966 296.05 161.305C293.565 155.421 293.454 149.132 295.884 143.185C297.505 139.218 300.44 136.39 304.373 134.736ZM304.107 163.788C306.426 163.462 308.707 163.302 311.036 163.094C313.839 163.013 316.782 163.028 319.555 162.631C321.026 155.616 321.561 148.573 317.446 142.252C315.709 139.584 313.216 137.785 310.069 137.166C308.844 136.925 307.639 136.945 306.397 136.979C303.283 137.956 301.143 139.544 299.602 142.479C297.431 146.612 296.883 152.014 298.321 156.463C299.364 159.688 301.619 161.628 304.107 163.788Z" fill="#151314"/>
<path d="M301.974 147.038L302.181 147.35C301.86 149.12 301.299 151.291 301.472 153.078C301.586 154.259 302.419 156.688 301.873 157.749C301.745 157.997 301.505 158.019 301.264 158.116C301.213 158.069 301.159 158.026 301.112 157.977C299.74 156.53 299.686 154.066 299.825 152.178C299.969 150.225 300.437 148.347 301.974 147.038Z" fill="#151314"/>
<path d="M303.116 152.361C303.298 152.48 303.399 152.533 303.553 152.71C304.841 154.194 305.535 159.202 305.447 161.178C304.939 160.938 304.517 160.702 304.167 160.245C302.627 158.235 302.789 154.755 303.116 152.361Z" fill="#151314"/>
<path d="M307.992 156.47C309.616 157.392 308.922 158.838 309.976 159.909C310.507 160.45 311.324 159.984 311.988 160.378C312.126 160.941 311.841 161.429 311.634 161.942C311.34 161.999 310.988 162.087 310.691 162.071C310.045 162.036 309.453 161.636 309.046 161.152C308.015 159.924 307.816 158 307.992 156.47Z" fill="#151314"/>
<path d="M305.249 167.691C305.848 167.722 306.258 167.705 306.743 168.111C308.119 170.844 308.398 182.374 307.685 185.549C307.34 185.469 306.981 185.364 306.661 185.207C306.13 184.946 305.714 184.482 305.543 183.913C305.211 182.805 304.677 170.513 304.833 168.935C304.879 168.467 305.042 168.107 305.249 167.691Z" fill="#151314"/>
<path d="M322.114 168.319C322.807 168.404 323.391 168.417 323.955 168.876C324.897 171.15 324.48 183.413 324.471 186.648C323.718 186.612 323.098 186.62 322.427 186.252C321.353 184.542 321.809 170.982 322.114 168.319Z" fill="#151314"/>
<path d="M314.016 168.647C314.797 168.907 315.257 169.103 315.637 169.891C316.945 172.598 316.854 182.118 315.862 184.9C315.43 184.991 315.085 184.978 314.646 184.939C314.316 184.66 314.16 184.574 314.047 184.139C313.557 182.247 313.326 171.597 313.63 169.597C313.686 169.226 313.823 168.963 314.016 168.647Z" fill="#151314"/>
<path d="M191.103 93.5305C191.608 93.4887 192.15 93.4283 192.652 93.5036C193.79 93.6742 194.962 94.5835 196.022 95.0278C197.037 95.453 198.174 95.5247 199.217 95.8733C201.12 96.5085 203.231 98.7129 204.293 100.386C205.473 102.248 205.987 104.396 205.42 106.558C204.538 109.928 201.828 111.758 199 113.4C199.061 115.829 199.25 118.806 197.429 120.698C195.791 122.399 193.508 122.381 191.324 122.401C190.861 122.386 190.405 122.336 189.946 122.277C188.077 122.038 186.107 121.235 184.962 119.672C183.88 118.193 183.941 116.981 184.194 115.279C183.472 114.86 182.74 114.443 182.052 113.969C179.644 112.313 177.508 109.881 177.027 106.917C176.647 104.584 177.378 102.335 178.734 100.438C181.417 96.6865 186.668 94.2676 191.103 93.5305ZM191.172 95.9896C189.949 96.4646 189.478 96.7685 188.923 97.9722C187.955 100.072 187.724 103.705 188.565 105.892C188.899 106.763 189.573 107.675 190.452 108.055C191.243 108.397 192.327 108.237 193.16 108.144C194.255 107.789 195.08 107.359 195.596 106.278C196.586 104.202 195.933 101.464 195.114 99.4164C194.668 98.3026 193.78 96.5842 192.58 96.1279C192.141 95.9607 191.634 95.966 191.172 95.9896ZM189.705 111.299C188.421 112.75 186.661 114.651 186.831 116.734C186.909 117.695 187.397 118.451 188.16 119.027C189.045 119.694 190.118 119.975 191.174 120.246C192.944 119.997 194.267 119.792 195.45 118.295C196.309 117.206 196.608 115.746 196.388 114.389C196.201 113.231 195.589 112.317 194.643 111.633C193.667 110.928 192.746 111.081 191.611 111.184L189.705 111.299ZM179.476 106.445C180.244 108.503 181.245 109.912 183.11 111.135C183.724 111.382 184.252 111.739 184.929 111.505C185.795 111.206 186.554 110.296 187.312 109.782C185.616 106.235 185.632 103.313 185.693 99.476C185.701 98.9908 185.863 98.8545 185.446 98.5941L184.979 98.5858C182.601 99.6806 181.005 101.074 180.122 103.627C179.813 104.521 179.618 105.512 179.476 106.445ZM199.598 109.907C201.152 108.657 202.574 107.291 202.736 105.172C202.862 103.54 202.108 101.852 201.05 100.641C199.99 99.4288 198.721 98.6305 197.14 98.3088C198.142 100.808 199.569 104.345 198.451 107.01C197.974 108.148 196.287 109.179 196.578 110.479C197.103 110.825 197.683 110.72 198.28 110.577C198.753 110.465 199.192 110.163 199.598 109.907Z" fill="#151314"/>
<path d="M155.588 97.9536C155.639 97.9523 155.69 97.9428 155.74 97.9498C156.24 98.0198 156.333 98.0277 156.67 98.4107C156.628 98.6483 156.64 98.6434 156.53 98.9047C155.338 101.731 143.48 107.29 140.369 108.572C140.118 108.559 139.891 108.482 139.649 108.417L139.479 107.99C139.742 107.248 140.286 106.867 140.904 106.42C142.949 104.943 145.411 103.858 147.638 102.659C150.346 101.187 152.996 99.6189 155.588 97.9536Z" fill="#151314"/>
<path d="M231.898 90.7412L232.668 91.0894C232.944 91.4973 233.127 91.6724 232.959 92.1983C232.323 94.1899 224.722 98.7252 222.69 99.9669C222.166 99.7417 221.868 99.5703 221.451 99.1616C221.365 98.7947 221.28 98.6473 221.384 98.2713C222.035 95.9352 229.512 92.0182 231.898 90.7412Z" fill="#151314"/>
<path d="M233.72 102.563C234.299 102.568 234.645 102.662 235.176 102.863C235.568 103.294 235.548 103.258 235.53 103.842C234.056 106.453 229.7 108.539 227.231 110.105C227.186 110.115 227.141 110.133 227.094 110.135C226.498 110.166 226.367 110.045 225.882 109.725C225.609 109.209 225.528 109.116 225.73 108.525C226.381 106.63 231.924 103.433 233.72 102.563Z" fill="#151314"/>
<path d="M150.244 109.182C150.388 109.245 150.657 109.358 150.781 109.443C150.983 109.581 151.147 109.733 151.143 109.985C151.119 111.551 147.182 114.358 146.045 115.528C145.701 115.403 145.517 115.274 145.227 115.059C145.146 114.656 145.134 114.441 145.266 114.04C145.899 112.11 148.512 110.109 150.244 109.182Z" fill="#151314"/>
<path d="M184.717 13.6621C185.204 13.699 185.729 13.7416 186.145 14.0319C186.623 14.3652 186.676 14.5987 186.792 15.1237C186.668 15.7569 186.413 16.1875 186.042 16.7129C185.109 18.0317 183.903 19.2358 182.858 20.4767C180.958 22.7265 179.139 25.0404 177.402 27.4185C169.584 38.2951 163.616 50.3286 154.355 60.1373C154.048 60.3286 153.736 60.4698 153.408 60.6218L153.083 60.4694C153.268 58.4662 160.771 49.0421 162.483 46.5925C168.354 38.1928 173.397 29.2002 179.23 20.7542C180.936 18.2839 182.731 15.9159 184.717 13.6621Z" fill="#151314"/>
<path d="M174.324 39.8115C174.534 39.8935 174.872 39.9958 175.064 40.1303C175.29 40.2889 175.547 40.474 175.574 40.7664C175.772 42.9224 164.922 56.1206 162.749 58.5839L162.238 58.677L161.907 58.4166C161.921 58.1611 161.913 58.075 162.004 57.8009C162.814 55.3608 170.893 43.2921 172.7 41.2082C173.19 40.6421 173.692 40.2107 174.324 39.8115Z" fill="#151314"/>
<path d="M120.66 79.6768C120.852 79.7215 120.934 79.7331 121.132 79.8192C121.974 80.1848 122.491 80.8419 122.79 81.699C123.453 83.6021 123.045 85.86 122.227 87.6417C121.612 87.4586 121.306 87.2247 121 86.6479C119.952 84.6761 119.968 81.7417 120.66 79.6768Z" fill="#151314"/>
<path d="M114.493 79.6318C115.264 79.8153 115.677 79.9142 116.097 80.6546C116.784 81.8665 116.442 83.9737 116.106 85.2531C115.465 84.9459 114.991 84.5588 114.642 83.9381C113.879 82.5804 114.116 81.0661 114.493 79.6318Z" fill="#151314"/>
<path d="M125.838 79.1943C126.471 79.3653 127.123 79.5459 127.589 80.0398C128.413 80.9119 128.43 82.0178 128.476 83.1557C127.945 83.0803 127.311 82.995 126.883 82.6323C125.886 81.7876 125.93 80.3926 125.838 79.1943Z" fill="#151314"/>
<path d="M143.531 252.122L144.053 252.355C144.432 252.84 144.623 253.276 144.76 253.881C145.041 255.115 145.028 256.295 144.324 257.353C144.215 257.299 144.105 257.246 143.997 257.189C143.41 256.881 143.031 256.446 142.845 255.798C142.488 254.558 142.963 253.22 143.531 252.122Z" fill="#151314"/>
<path d="M147.36 252.929C148.196 253.259 148.703 253.69 149.048 254.535C149.41 255.421 149.364 256.248 148.991 257.11C148.439 256.967 147.88 256.851 147.528 256.353C146.84 255.382 147.195 254.016 147.36 252.929Z" fill="#151314"/>
<path d="M151.307 253.401C152.028 253.451 152.77 253.487 153.266 254.102C153.82 254.787 153.691 255.741 153.635 256.554C153.057 256.631 152.476 256.696 152 256.277C151.294 255.654 151.368 254.271 151.307 253.401Z" fill="#151314"/>
<path d="M365.335 279.169C365.471 279.199 365.61 279.215 365.741 279.258C366.165 279.399 366.799 280.114 366.969 280.509C367.177 280.993 367.06 281.204 366.865 281.637C363.075 284.515 347.656 288.201 342.136 290.009C331.366 293.536 320.779 297.602 310.052 301.263C299.325 304.871 288.478 308.071 277.51 310.862C270.651 312.558 263.713 313.807 256.76 315.044C251.002 316.069 245.234 317.128 239.439 317.93C232.862 318.84 226.25 319.46 219.677 320.409C219.362 320.864 219.046 321.336 218.665 321.74C218.034 322.408 217.159 322.946 216.211 322.911C214.864 322.862 214.066 321.921 213.219 321.01C203.933 321.039 194.605 322.067 185.327 321.878C179.447 321.759 173.631 320.791 167.761 320.493C163.962 320.301 160.154 320.322 156.358 320.13C151.627 319.889 146.898 319.309 142.173 318.952C136.714 318.54 131.228 318.327 125.782 317.764C120.506 317.219 115.285 316.168 110.037 315.409C99.3946 313.869 88.6634 312.42 78.1462 310.161C68.9656 308.189 59.9663 305.531 50.987 302.807C41.9832 300.075 33.1057 297.34 24.5031 293.483C23.6526 293.048 22.581 292.57 21.9512 291.834C21.4549 291.254 21.1915 290.534 21.2658 289.775C21.4779 289.546 21.455 289.485 21.7029 289.422C23.5487 288.957 27.3527 291.569 29.0872 292.419C33.7479 294.704 39.2458 295.946 44.239 297.391C51.8539 299.594 59.5292 301.561 67.265 303.292C75.0008 305.023 82.7824 306.515 90.6099 307.769C97.0415 308.786 103.509 309.478 109.964 310.313C125.768 312.359 141.439 315.753 157.334 317.092C162.097 317.493 166.828 317.26 171.585 317.509C175.967 317.738 180.311 318.421 184.707 318.512C188.602 318.592 192.466 318.428 196.356 318.385C201.628 318.327 206.96 318.372 212.22 318.009C219.464 317.509 226.688 316.514 233.882 315.54C239.811 314.778 245.719 313.886 251.609 312.863C257.498 311.84 263.362 310.688 269.2 309.406C275.039 308.124 280.846 306.714 286.622 305.176C292.398 303.637 298.138 301.972 303.84 300.181C317.779 295.888 331.417 290.664 345.168 285.817C351.845 283.464 358.635 281.453 365.335 279.169Z" fill="#151314"/>
<path d="M79.2428 144.646C79.4437 144.634 79.6448 144.626 79.846 144.623C80.0473 144.62 80.2484 144.621 80.4493 144.626C80.6506 144.632 80.8515 144.642 81.0522 144.656C81.2532 144.67 81.4536 144.689 81.6534 144.712C81.8533 144.735 82.0526 144.763 82.2513 144.794C82.4501 144.826 82.648 144.863 82.8451 144.903C83.0422 144.943 83.2383 144.988 83.4335 145.037C83.6286 145.086 83.8227 145.139 84.0157 145.197C84.2086 145.254 84.4002 145.316 84.5904 145.382C84.7803 145.447 84.9688 145.517 85.156 145.591C85.3431 145.666 85.5286 145.744 85.7125 145.826C85.8961 145.908 86.0778 145.994 86.2578 146.085C86.4378 146.175 86.6157 146.269 86.7915 146.367C86.9674 146.464 87.141 146.566 87.3124 146.671C87.4838 146.777 87.6528 146.886 87.8192 146.999C87.986 147.112 88.1501 147.228 88.3116 147.348C91.7346 149.87 94.1904 153.652 94.7925 157.886C95.5274 163.052 94.2563 167.463 91.1479 171.575C93.4472 171.49 97.2189 170.819 99.3546 171.779C99.8287 171.992 100.019 172.156 100.206 172.632C100.131 172.812 100.099 172.928 99.95 173.08C99.331 173.712 98.1737 174.004 97.3311 174.134C94.7602 174.532 91.9288 174.412 89.3314 174.449C86.04 174.495 82.8211 174.642 79.5475 174.986C75.905 175.074 72.1602 175.649 68.5732 176.269C66.8751 176.562 65.1178 177.086 63.3929 177.14C62.4654 177.169 61.4323 177.029 60.6373 176.516C60.0903 176.164 59.8882 175.782 59.7441 175.168C59.8539 174.911 59.9574 174.59 60.1744 174.402C61.5424 173.214 66.9468 173.448 68.9686 173.326C67.6925 171.827 66.6105 170.35 65.9944 168.459C64.5224 163.941 65.9058 158.956 68.0656 154.906C70.5209 150.301 74.1382 146.223 79.2428 144.646ZM69.8199 157.238C70.9433 156.205 73.674 153.04 75.1154 153.091C75.1891 153.659 74.8202 154.129 74.4645 154.563C71.3288 158.389 68.0424 158.79 68.5575 165.097C68.7459 167.405 70.2274 170.32 72.0878 171.792C72.2588 171.927 72.3561 171.981 72.5503 172.107C75.1125 172.592 78.3451 171.984 80.9607 171.817C82.9644 171.688 84.9895 171.672 86.9965 171.684C89.702 170.136 91.2854 167.658 92.0977 164.69C93.1462 160.861 92.8215 156.711 90.798 153.253C89.1281 150.4 86.3642 147.943 83.1325 147.08C82.2228 146.838 81.222 146.74 80.2808 146.726C76.6176 147.572 74.1457 150.229 72.202 153.291C71.3793 154.588 70.624 155.929 69.8199 157.238Z" fill="#151314"/>
<path d="M74.3121 156.936L74.6107 157.043C74.7784 157.312 74.9647 157.476 74.9428 157.809C74.8007 159.969 70.933 162.743 69.3318 164.063C69.0829 164.025 69.2374 164.071 68.9219 163.806C69.0672 162.149 73.1329 158.237 74.3121 156.936Z" fill="#151314"/>
<path d="M75.5511 161.309C75.9974 161.643 76.1022 161.698 76.3063 162.208C75.7664 163.805 73.2658 164.92 72.0481 166.078C71.5069 166.593 71.0543 167.231 70.6063 167.826C70.3836 168.03 70.5376 167.929 70.0858 168.017C70.0068 167.679 69.9629 167.635 69.9993 167.306C70.2651 164.884 73.7474 162.711 75.5511 161.309Z" fill="#151314"/>
<path d="M79.3773 164.361L79.8489 164.565C79.8601 164.639 79.8816 164.712 79.8833 164.787C79.9168 166.712 76.6308 170.043 75.3183 171.319L74.9808 171.33L74.7456 171.054C75.0789 169.059 77.9662 165.822 79.3773 164.361Z" fill="#151314"/>
<path d="M75.2831 164.264C75.2935 164.382 75.3229 164.5 75.3133 164.619C75.2343 165.635 73.2882 169.934 72.6016 170.399L72.0447 170.084C71.7876 169.903 71.4828 169.754 71.2034 169.608C71.157 169.584 71.1098 169.562 71.063 169.538C71.5826 167.715 73.8832 165.475 75.2831 164.264Z" fill="#151314"/>
<path d="M81.321 165.446L81.6974 165.879C81.8129 167.689 80.6275 169.351 79.5584 170.712L79.2636 170.445C79.1265 170.105 79.0689 169.873 79.0752 169.498C79.0988 168.043 80.3658 166.436 81.321 165.446Z" fill="#151314"/>
<path d="M84.7763 168.052C84.9121 168.07 85.0508 168.075 85.1841 168.107C85.7137 168.239 85.7688 168.366 85.9866 168.817C85.9431 169.585 85.5696 170.156 85.2098 170.821C85.0926 170.785 84.9696 170.764 84.8582 170.714C84.3398 170.477 84.2819 170.266 84.0864 169.773C84.156 169.055 84.3928 168.655 84.7763 168.052Z" fill="#151314"/>
<path d="M85.3956 34.3474C87.1504 34.1987 89.4414 34.0157 91.0881 34.7117C91.5647 34.913 91.4587 34.8914 91.6347 35.3175C91.4662 35.52 91.4662 35.5423 91.2173 35.7167C89.6679 36.8032 85.367 36.6139 83.4706 36.7257C70.7423 37.4735 58.2174 39.0006 45.9214 42.487C44.3641 42.9942 42.4917 43.7735 40.8934 42.9922C40.2806 42.6924 40.1071 42.2725 39.9092 41.6556C39.9928 41.1562 40.0872 40.8076 40.4342 40.4204C41.8466 38.8457 45.0229 38.4321 47.0306 37.9435C54.5562 36.1125 62.2574 34.8215 70.0107 34.5478C75.1347 34.3668 80.2741 34.6355 85.3956 34.3474Z" fill="#151314"/>
<path d="M291.034 11.1548C295.097 10.7031 305.458 11.6877 309.463 12.884C310.105 13.0753 310.775 13.2881 311.122 13.8988C311.12 14.4081 311.168 14.7096 310.761 15.0967C309.176 16.6064 300.184 14.8272 297.65 14.6955C295.402 14.5783 293.189 14.7096 290.951 14.8835C287.749 15.1733 284.455 15.4553 281.302 16.0834C278.908 16.5604 276.481 17.3517 274.072 17.6825C273.563 17.7521 273.114 17.7521 272.645 17.5227C272.225 17.3173 271.955 16.7675 271.869 16.3261C271.76 15.7725 271.832 15.4135 272.193 14.9638C274.268 12.3784 287.132 11.4873 291.034 11.1548Z" fill="#151314"/>
<path d="M107.347 18C108.989 18.0133 111.484 17.9478 112.981 18.6182C113.399 18.8058 113.417 18.8207 113.599 19.2588C113.156 20.1117 112.335 20.2956 111.435 20.45C108.549 20.9461 103.541 20.2566 100.136 20.4898C89.1859 21.2409 77.7243 23.6317 67.3851 27.3131C66.3781 27.7255 64.4999 28.7147 63.4403 28.3031C62.8342 28.0675 62.4905 27.4642 62.2946 26.8771C62.0855 26.2518 62.1062 25.7326 62.4118 25.1459C63.5782 24.1347 65.7127 23.8515 67.2009 23.4553C79.3573 20.2181 94.7484 18.4886 107.347 18Z" fill="#151314"/>
<path d="M298.807 22.7565C303.865 22.7213 308.712 23.0459 313.7 23.9374C315.881 24.3266 318.024 24.9083 320.199 25.2963C322.191 25.652 324.224 25.8147 326.208 26.2093C327.401 26.4462 328.568 26.7749 329.273 27.8312C329.351 28.3169 329.44 28.567 329.086 28.9844C328.371 29.8262 327.065 29.8183 326.069 29.8572C323.523 29.6643 321.049 28.808 318.574 28.2138C315.088 27.3774 311.368 26.7903 307.776 26.7083C305.763 26.6627 297.12 27.3397 296.023 26.8482C295.405 26.5708 294.956 25.9278 294.834 25.2715C294.822 25.2096 294.814 25.1473 294.809 25.0843C294.805 25.0217 294.803 24.9589 294.806 24.8959C294.808 24.833 294.815 24.7705 294.824 24.7084C294.834 24.646 294.847 24.5844 294.864 24.5237C294.88 24.463 294.9 24.4035 294.924 24.3452C294.947 24.2867 294.973 24.2297 295.003 24.1742C295.033 24.1187 295.066 24.0652 295.102 24.0136C295.138 23.9617 295.177 23.9121 295.218 23.8649C296.013 22.9461 297.685 22.8948 298.807 22.7565Z" fill="#151314"/>
<path d="M64.6963 179.696C64.9923 179.736 65.4246 179.712 65.6615 179.91C67.2018 181.197 68.0229 193.056 68.2986 195.562L67.4883 197.298C67.1889 197.328 66.9637 197.156 66.6933 197.034C65.8788 196.086 65.7339 194.545 65.5542 193.34C65.1542 190.656 63.9684 182.896 64.269 180.556C64.3141 180.206 64.4913 179.971 64.6963 179.696Z" fill="#151314"/>
<path d="M94.3063 176.367C95.2901 176.7 95.8814 177.043 96.4283 177.946C98.3123 181.056 97.4453 186.715 96.565 190.049C96.4047 190.271 96.2387 190.415 96.035 190.594L95.5559 190.408C94.5344 188.638 94.1555 178.794 94.3063 176.367Z" fill="#151314"/>
<path d="M74.8889 178.813C75.5307 178.961 75.9514 179.07 76.3799 179.621C78.0527 181.772 77.4267 189.426 77.1546 192.12C76.63 192.051 75.7203 191.962 75.3709 191.503C74.2256 190 74.5775 180.82 74.8889 178.813Z" fill="#151314"/>
<path d="M83.9777 179.222C84.188 179.255 84.3992 179.284 84.6062 179.333C85.1838 179.47 85.5172 179.862 85.8 180.357C87.3883 183.135 86.6889 188.924 85.8761 191.925C85.6066 192.013 85.3254 192.081 85.0522 192.157C84.7449 191.935 84.6468 191.928 84.5002 191.554C83.6841 189.471 84.453 185.386 84.34 183.034C84.2824 181.827 83.4688 180.3 83.9777 179.222Z" fill="#151314"/>
<path d="M383.079 272.642C383.629 272.602 384.171 272.586 384.721 272.633C385.659 272.714 386.143 272.888 386.745 273.614C386.791 273.912 386.906 274.062 386.687 274.31C385.655 275.48 382.445 275.402 381.016 275.421C380.208 275.43 378.904 275.575 378.174 275.275C377.683 275.073 377.185 274.666 376.996 274.158C376.884 273.857 377.054 273.743 377.198 273.488C378.774 272.527 381.266 272.708 383.079 272.642Z" fill="#151314"/>
<path d="M4.0283 286.347C4.78157 286.251 5.87871 285.985 6.58323 286.336C7.11199 286.599 7.18971 286.773 7.40386 287.282C7.33757 287.758 7.22553 288.045 6.90007 288.409C5.88761 289.544 4.67221 289.588 3.26179 289.651C2.67146 289.641 2.06879 289.639 1.48807 289.522C0.778161 289.379 0.161041 289.103 -0.252441 288.49C-0.205777 287.955 -0.178862 287.836 0.220087 287.429C1.26038 286.366 2.65738 286.422 4.0283 286.347Z" fill="#151314"/>
<path d="M103.962 295.287C104.491 295.308 105.006 295.341 105.517 295.487C106.16 295.672 106.441 295.948 106.748 296.523C106.682 297.29 106.487 297.463 106.047 298.075C105.505 298.175 104.833 298.33 104.296 298.109C104.011 297.992 103.738 297.766 103.625 297.477C103.325 296.71 103.653 295.989 103.962 295.287Z" fill="#151314"/>
<path d="M96.1797 296.086C96.6024 296.174 97.0869 296.249 97.462 296.472C97.8417 296.698 98.1253 297.049 98.2102 297.487C98.3502 298.206 98.0098 298.753 97.6757 299.36C97.4131 299.402 97.1072 299.47 96.8368 299.458C96.2712 299.433 96.0294 299.244 95.6368 298.869C95.3018 297.794 95.73 297.047 96.1797 296.086Z" fill="#151314"/>
<path d="M286.179 23.3789C286.412 23.4249 286.849 23.477 287.071 23.5963C287.371 23.7586 287.631 23.9495 287.74 24.2778C288.023 25.1238 287.481 25.8972 287.106 26.6268L286.163 26.537C285.889 26.3113 285.667 26.2248 285.57 25.8645C285.328 24.9772 285.803 24.154 286.179 23.3789Z" fill="#151314"/>
</g>
<defs>
<clipPath id="clip0_0_57">
<rect width="387" height="327" fill="white"/>
</clipPath>
</defs>
</svg>
