<svg width="264" height="287" viewBox="0 0 264 287" fill="none" xmlns="http://www.w3.org/2000/svg">
<g clip-path="url(#clip0_0_100)">
<path d="M123.881 -0.391705C132.038 -0.918992 144.064 0.593407 150.657 5.48729C156.863 10.0946 159.498 16.1498 160.576 23.5923C163.306 23.3505 165.8 23.4077 168.342 24.5609C172.137 26.283 175.171 30.1562 176.6 34.0011C179.714 42.3815 175.068 53.0648 171.586 60.7201C172.088 60.9478 172.561 61.2169 173.022 61.5187C177.368 64.366 179.43 69.9046 180.421 74.7641C182.255 83.7569 180.682 92.5003 175.558 100.169C171.127 106.801 165.36 110.868 157.63 112.775C155.736 113.243 153.757 113.384 151.88 113.861C151.541 113.947 151.347 114.045 151.177 114.364C150.456 115.713 151.063 118.717 151.099 120.276C151.289 128.524 151.376 136.708 153.165 144.814C153.589 146.735 154.194 148.63 154.745 150.517C156.492 151.231 159.318 152.061 160.455 153.636C160.675 153.939 160.723 154.096 160.645 154.455C159.07 155.224 156.096 152.331 153.899 152.518C153.592 153.302 157.51 155.258 157.844 156.525C157.772 156.894 157.83 156.99 157.531 157.24C156.053 157.313 152.74 154.455 151.481 153.532C152.775 155.527 154.734 157.132 155.882 159.165C156.171 159.675 156.286 160.05 156.123 160.618C155.734 160.783 155.549 160.788 155.145 160.636C153.497 160.016 151.676 157.115 150.964 155.594C149.681 156.398 148.464 157.23 147.252 158.139C148.058 159.459 150.597 163.068 150.455 164.634C150.433 164.878 150.403 164.819 150.179 164.994C149.973 164.973 149.939 164.982 149.72 164.893C148.023 164.205 146.569 160.566 145.876 159.013L140.882 161.559C141.608 163.635 143.275 166.276 143.274 168.471C143.274 168.837 143.267 169.045 142.997 169.311C142.808 169.294 142.779 169.302 142.58 169.222C140.9 168.542 139.932 163.76 139.395 162.016C137.712 162.5 136.025 162.887 134.313 163.249C134.758 165.379 135.723 168.501 135.086 170.629C134.99 170.949 134.987 171.011 134.69 171.182C134.607 171.119 134.513 171.068 134.44 170.994C133.276 169.802 133.063 165.169 132.932 163.455C131.824 163.655 128.954 163.565 128.259 164.4C127.554 165.248 127.907 167.473 127.956 168.561C128.021 169.406 128.043 170.834 127.743 171.623C127.593 172.018 127.381 172.335 126.996 172.498L126.722 172.255C125.745 169.822 126.13 166.87 126.434 164.333C124.733 164.355 123.033 164.411 121.335 164.503C120.981 166.803 120.76 170.12 119.01 171.817L118.685 171.735C117.943 169.849 119.402 166.513 119.966 164.582C118.649 164.381 117.34 164.304 116.01 164.26C115.242 165.935 114.08 170.312 112.444 171.073C112.089 171.238 111.847 171.252 111.49 171.122C111.426 171.008 111.383 170.955 111.369 170.809C111.216 169.204 113.757 165.355 114.563 163.944C113.279 163.591 112.035 163.054 110.828 162.498C110.126 163.846 108.421 167.545 107.101 168.113C106.76 168.26 106.587 168.301 106.23 168.166C105.963 166.727 108.732 163.158 109.535 161.866L108.428 160.555C105.907 162.5 104.519 166.013 101.794 167.625C101.416 167.849 101.041 167.994 100.602 167.885C100.398 167.666 100.388 167.728 100.35 167.466C100.014 165.142 106.106 160.397 107.475 158.234L107.392 158.006L106.985 157.888L107.029 158.097L106.952 157.897C104.599 158.198 99.8182 161.366 97.9777 161.143C97.588 161.096 97.4311 161.063 97.1795 160.759C97.205 160.61 97.201 160.571 97.2887 160.422C98.5514 158.271 105.718 155.835 108.177 154.958C108.262 154.005 108.682 151.829 107.929 151.056C107.061 150.166 102.824 150.947 101.509 150.945C97.5864 150.94 93.0712 149.96 90.2492 147.034C89.2208 145.968 88.6077 144.737 88.1521 143.35C87.5874 141.63 87.3886 139.753 87.0536 137.974C86.5795 135.574 86.0817 133.18 85.5602 130.791C82.5289 116.652 79.3841 102.461 78.0875 88.0267C77.2609 78.8265 77.2237 69.6382 77.2976 60.4119C76.188 59.2691 75.1655 58.0657 74.4256 56.646C74.3366 56.4783 74.2519 56.3085 74.1716 56.1366C74.091 55.9646 74.0148 55.7906 73.943 55.6149C73.8712 55.4391 73.8038 55.2618 73.7409 55.0827C73.6779 54.9035 73.6195 54.7229 73.5655 54.541C73.5116 54.3589 73.4622 54.1756 73.4173 53.991C73.3724 53.8066 73.3322 53.6211 73.2967 53.4345C73.2612 53.2481 73.2303 53.0609 73.2041 52.8728C73.1778 52.6847 73.1563 52.4962 73.1395 52.3071C73.1227 52.118 73.1106 51.9285 73.1032 51.7386C73.0958 51.5489 73.0931 51.3592 73.0952 51.1695C73.0974 50.9796 73.1043 50.7899 73.1158 50.6004C73.1273 50.4109 73.1436 50.2218 73.1647 50.0329C73.1856 49.8442 73.2113 49.6561 73.2416 49.4687C73.272 49.2815 73.307 49.095 73.3468 48.9091C73.3864 48.7236 73.4307 48.539 73.4797 48.3554C73.5285 48.1721 73.582 47.99 73.64 47.8091C72.7224 46.9269 71.8269 46.064 71.1827 44.9523C69.6982 42.3904 69.716 38.8851 70.4724 36.0917C72.0567 30.2405 77.1087 24.9775 82.2579 22.0406C82.7944 18.4298 84.5207 15.2193 86.9878 12.5561C89.0578 10.3216 91.65 8.61693 94.2811 7.11489C103.514 1.84402 113.38 0.0581543 123.881 -0.391705ZM84.6435 20.8283C86.0659 20.6394 89.123 20.1709 90.3178 21.1322C90.6318 21.3848 90.8136 21.6629 90.8081 22.0788C90.8007 22.6285 90.5233 23.0401 90.1104 23.3735C88.5945 23.7033 87.0118 23.3738 85.49 23.6658C81.4021 24.4499 77.2809 28.9226 75.1301 32.2978C73.544 34.7864 72.2043 38.3237 72.8666 41.3039C73.3161 43.3253 74.5321 44.6803 76.2018 45.8087C78.4588 45.9382 79.6714 45.1513 81.3203 43.7077C81.9672 43.141 82.8267 41.8358 82.8417 40.9542C82.8479 40.601 82.6882 40.314 82.5221 40.0178C82.1441 39.8495 81.9641 39.804 81.5642 39.964C80.6567 40.3272 79.9101 41.0671 78.919 41.2012C78.6932 41.1024 78.5855 41.1249 78.4939 40.8711C78.2896 40.3066 78.4327 39.5305 78.7071 39.007C79.0694 38.316 79.7606 37.9121 80.4962 37.722C81.4919 37.4649 82.5633 37.5104 83.4548 38.0595C83.5528 38.1185 83.6475 38.1826 83.7387 38.2517C83.83 38.3207 83.9174 38.3943 84.0008 38.4726C84.0843 38.551 84.1635 38.6334 84.2383 38.7199C84.313 38.8065 84.383 38.8967 84.4484 38.9907C84.5136 39.0846 84.5738 39.1817 84.629 39.282C84.6842 39.3822 84.7338 39.4852 84.7779 39.5908C84.8222 39.6962 84.8608 39.8037 84.8939 39.9132C84.9267 40.0229 84.9537 40.134 84.9751 40.2463C85.2258 41.6063 84.6139 43.0346 83.8393 44.1226C82.8719 45.482 81.5587 46.4113 80.1972 47.3394C81.6116 48.7538 83.161 49.6013 85.2045 49.6164C87.2114 49.6311 89.2331 48.987 91.0825 48.2632C89.8474 46.5094 88.8818 44.3823 89.3131 42.1822C89.3379 42.0505 89.3693 41.9205 89.4072 41.7921C89.4452 41.6635 89.4892 41.5372 89.5395 41.4131C89.5899 41.2891 89.6464 41.1678 89.709 41.0492C89.7713 40.9307 89.8395 40.8156 89.9135 40.7041C89.9874 40.5923 90.0666 40.4845 90.1513 40.3808C90.2358 40.2768 90.3253 40.1773 90.4199 40.0824C90.5144 39.9876 90.6134 39.8977 90.7167 39.8126C90.8203 39.7275 90.9278 39.6477 91.0391 39.5733C91.1724 39.4863 91.3097 39.4061 91.451 39.3327C91.5923 39.2595 91.7369 39.1934 91.8848 39.1343C92.0326 39.0754 92.183 39.0241 92.336 38.9802C92.489 38.9363 92.6439 38.9002 92.8005 38.8719C92.9572 38.8434 93.1148 38.8228 93.2733 38.8101C93.4321 38.7974 93.591 38.7926 93.7502 38.7959C93.9093 38.799 94.0679 38.8101 94.226 38.8291C94.3839 38.848 94.5406 38.8748 94.6961 38.9094C95.8379 39.1589 96.8848 39.9218 97.4889 40.9209C97.7083 41.2833 97.8575 41.6881 98.007 42.0828C97.4366 44.2724 96.4147 45.7548 95.064 47.543C98.4087 48.5271 101.326 48.1807 104.383 46.5217C103.681 44.5256 103.12 42.2237 104.143 40.2199C104.202 40.1016 104.268 39.9865 104.339 39.8747C104.411 39.763 104.488 39.6552 104.57 39.5514C104.652 39.4475 104.74 39.3481 104.833 39.2533C104.925 39.1584 105.022 39.0685 105.124 38.9836C105.226 38.8985 105.332 38.8189 105.442 38.7449C105.552 38.6706 105.665 38.6022 105.782 38.5397C105.899 38.4771 106.019 38.4207 106.142 38.3705C106.264 38.3202 106.389 38.2764 106.516 38.2388C107.927 37.8155 109.552 38.0869 110.828 38.7876C111.366 39.0829 111.922 39.5179 112.137 40.115C112.486 41.0834 111.851 42.3175 111.353 43.1278C110.583 44.381 108.861 45.5441 108.384 46.8355C108.563 47.3418 108.862 47.5399 109.271 47.8792C111.623 49.1639 114.634 48.5742 117.093 47.8688C117.889 47.6402 118.675 47.3692 119.459 47.1022C119.327 44.7474 119.168 41.9567 120.883 40.075C121.623 39.2638 122.642 38.8224 123.734 38.7765C124.464 38.7458 125.167 38.8784 125.876 39.0337L126.048 39.1854C126.834 39.888 127.414 40.5838 127.473 41.6897C127.552 43.1512 126.55 44.5705 125.58 45.5709C124.836 46.3375 123.972 46.981 123.208 47.7291C123.252 48.0829 123.17 47.9641 123.448 48.1696C124.642 49.0559 126.69 48.752 128.068 48.4886C133.716 47.4098 139.917 43.8221 143.135 38.9765C144.353 37.1428 145.279 34.8473 144.834 32.6251C144.053 28.7328 141.975 24.1912 138.483 22.0391C135.039 19.9172 130.116 20.302 126.374 21.2688C125.244 21.5611 124.04 21.893 122.974 22.3729C122.285 22.6836 121.692 23.2628 120.956 23.4649C120.618 23.5581 120.35 23.5181 120.019 23.4308C119.736 23.1207 119.68 23.057 119.715 22.6057C119.798 21.5592 120.934 20.6524 121.743 20.1556C125.755 17.6937 131.785 17.1018 136.29 18.2616C139.857 19.1798 142.507 21.2587 144.346 24.4394C145.462 26.37 146.057 28.2982 146.465 30.4755C149.696 26.5048 153.496 25.2162 158.328 23.93C156.618 16.8302 154.086 10.4311 147.555 6.4689C142.17 3.20129 135.762 2.52128 129.604 2.135C127.419 1.99796 125.111 1.84704 122.935 2.06902C111.573 2.60455 96.8974 5.35311 88.9313 14.1128C87.0973 16.1298 85.662 18.2997 84.6435 20.8283ZM143.981 44.0916C148.123 41.5697 150.505 40.6921 155.391 40.3875C156.525 40.3171 157.788 40.1587 158.894 40.4531C159.229 40.5423 159.457 40.6801 159.729 40.8883C159.933 41.2858 159.932 41.3255 159.878 41.7703C159.573 42.1662 159.257 42.2923 158.774 42.3415C157.609 42.46 156.418 42.383 155.247 42.4701C150.799 42.8008 147.389 44.1817 143.667 46.5922C143.256 47.8648 142.996 49.1602 142.726 50.4678C144.158 49.8372 145.589 49.1909 147.066 48.6754C149.508 47.8239 157.95 45.37 160.051 46.183C160.393 46.3159 160.422 46.395 160.588 46.7014C160.507 47.1157 160.465 47.2745 160.1 47.5135C158.729 48.4099 156.636 48.1718 155.055 48.4274C154.118 48.5788 153.181 48.8495 152.264 49.0922C148.833 50.0003 145.773 51.507 142.536 52.8956C142.351 54.0126 142.201 55.1344 142.086 56.2609L142.012 57.875C146.565 53.8664 152.458 51.3919 158.385 50.2279C159.38 50.0326 160.613 49.665 161.624 49.7277C162.361 49.7732 163.568 49.9292 164.092 50.5275C164.189 50.6386 164.21 50.7284 164.256 50.8573C164.095 51.3209 163.789 51.6472 163.325 51.857C162.175 52.3766 160.29 51.7915 158.95 52.0275C154.799 52.7596 149.693 54.8286 146.225 57.229C144.655 58.3161 143.24 59.625 141.808 60.8853C141.583 62.1918 141.408 63.4982 141.385 64.8259C143.578 63.5849 145.808 62.7089 148.239 62.0499C149.326 61.7556 150.503 61.5516 151.556 61.1612C152.771 60.7112 153.693 59.6118 154.961 59.2555C155.99 58.9664 157.017 58.9116 158.054 59.2048C160.027 59.7625 161.443 61.4049 162.36 63.1635C162.889 64.1768 163.214 65.2599 163.548 66.3489C168.931 60.0498 172.636 54.0504 174.378 45.8296C174.854 43.5806 175.256 41.223 175.067 38.9168C175.045 38.6691 175.017 38.4221 174.983 38.1758C174.949 37.9297 174.909 37.6844 174.863 37.4399C174.817 37.1957 174.765 36.9526 174.708 36.7106C174.65 36.4688 174.586 36.2285 174.517 35.9898C174.448 35.7509 174.373 35.514 174.292 35.2789C174.211 35.0437 174.125 34.8106 174.033 34.5797C173.941 34.3488 173.843 34.1201 173.74 33.8937C173.637 33.6675 173.528 33.4439 173.414 33.2228C173.301 33.002 173.181 32.7839 173.057 32.5685C172.932 32.3534 172.803 32.1413 172.668 31.9324C172.533 31.7234 172.394 31.5178 172.249 31.3156C172.104 31.1134 171.955 30.9148 171.801 30.7197C171.646 30.5247 171.488 30.3336 171.324 30.1463C171.16 29.9589 170.993 29.7756 170.82 29.5963C170.648 29.4173 170.471 29.2425 170.291 29.0718C170.11 28.9012 169.925 28.735 169.736 28.5732C169.61 28.4663 169.481 28.3626 169.35 28.2619C169.219 28.161 169.086 28.0633 168.95 27.9687C168.814 27.874 168.677 27.7825 168.537 27.6943C168.397 27.6061 168.255 27.5212 168.111 27.4396C167.968 27.358 167.822 27.2798 167.675 27.2049C167.527 27.1301 167.378 27.0587 167.227 26.9908C167.077 26.9229 166.924 26.8585 166.77 26.7976C166.617 26.7369 166.462 26.6797 166.305 26.626C166.149 26.5724 165.991 26.5225 165.833 26.4762C165.674 26.4298 165.514 26.3873 165.354 26.3485C165.193 26.3095 165.031 26.2744 164.869 26.243C164.707 26.2116 164.544 26.184 164.38 26.1602C164.216 26.1365 164.052 26.1165 163.888 26.1003C163.723 26.0841 163.558 26.0718 163.393 26.0633C163.228 26.0547 163.063 26.05 162.898 26.0492C162.732 26.0486 162.567 26.0517 162.402 26.0584C158.161 26.3805 152.646 27.4756 149.706 30.8606C148.046 32.7722 147.384 35.1205 146.847 37.5402C149.796 35.9825 157.202 32.8198 160.393 33.8891C160.686 33.9873 160.839 34.1149 161.031 34.3604C161.022 34.7652 161.005 34.8584 160.704 35.1694C159.832 36.068 157.76 35.7096 156.611 35.8757C153.234 36.3636 148.568 37.9343 146.148 40.4595C145.148 41.5033 144.503 42.7571 143.981 44.0916ZM140.836 44.9074C136.451 48.0355 129.862 52.0281 124.221 51.0145C122.711 50.7432 121.61 50.0501 120.48 49.0556C116.972 50.4039 112.865 52.2551 109.132 50.6346C108.008 50.147 107.026 49.3663 106.152 48.5185C102.31 50.646 98.5696 51.463 94.2703 50.215C93.6705 50.0409 93.1054 49.7969 92.5338 49.5481C89.6022 51.3436 86.228 52.6378 82.7485 51.8081C80.8345 51.3516 79.4681 50.2654 78.1564 48.8701C77.3345 48.8649 76.1972 48.7584 75.4955 49.2257C75.3799 51.6676 75.621 54.6416 77.3363 56.5584C78.2118 57.5369 79.374 57.7999 80.6441 57.8531C83.5889 57.9765 86.7349 57.4181 89.6795 57.1585L105.007 55.9139C113.134 55.2072 121.272 54.652 129.42 54.2482C132.777 54.0931 136.141 54.1636 139.495 53.9891C140.005 51.0246 140.562 48.0592 140.957 45.0772L140.836 44.9074ZM147.044 74.2713C145.426 75.3584 141.22 78.062 140.883 79.996C140.824 80.3375 140.962 80.6768 141.073 80.9927L141.095 81.0582C143.156 80.0459 146.333 78.2014 147.139 75.8933C147.308 75.4067 147.259 74.924 147.188 74.4251L147.044 74.2713ZM164.861 73.5739C164.449 74.8936 164.083 76.2575 163.541 77.5299C165.402 77.037 172.026 75.3778 173.594 76.356C173.965 76.5873 174.185 76.8414 174.265 77.277C174.318 77.5649 174.217 77.6858 174.111 77.9445C173.061 78.9018 169.322 78.3549 167.733 78.6037C165.953 78.8828 164.215 79.6321 162.472 80.0852C161.531 81.7433 160.607 83.4111 159.702 85.0886C162.157 84.2574 171.91 81.3295 173.981 82.1453C174.218 82.4379 174.179 82.2807 174.136 82.6461C174.047 83.4078 173.719 84.1725 173.512 84.9111C173.358 85.4621 173.369 86.0453 173.199 86.5843C172.793 87.8726 171.615 89.1104 170.554 89.9305C170.292 90.1317 170.023 90.3215 169.746 90.4999C165.793 90.0748 159.879 92.3647 156.796 94.8764C155.204 96.1736 153.545 97.5739 152.024 98.948C151.9 99.7847 151.8 100.61 151.741 101.454C153.282 100.599 154.82 99.7401 156.417 98.9911C158.453 98.0359 160.548 97.2097 162.493 96.0709C164.107 95.1262 165.493 93.7997 167.047 92.76C167.829 92.237 168.654 91.7873 169.557 91.5154C169.987 91.631 170.032 91.6412 170.323 91.9743C170.55 93.1079 169.765 94.2129 169.158 95.1169C165.504 100.557 157.051 100.114 151.92 104.675C151.646 105.697 151.556 106.693 151.484 107.745C153.028 107.176 154.47 106.347 155.969 105.669C157.786 104.846 159.786 104.13 161.521 103.161C162.563 102.579 162.917 101.209 164.218 101.123C164.403 101.211 164.508 101.201 164.58 101.414C164.815 102.107 164.279 103.225 163.918 103.803C162.367 106.287 157.596 107.596 155.006 108.661C154.415 108.903 153.879 109.252 153.297 109.493C152.615 109.776 151.816 109.812 151.342 110.436L151.435 110.86C153.641 111.644 161.199 108.842 163.387 107.808C170.234 104.573 174.584 98.5456 177.051 91.512C179.562 84.3531 179.398 75.9782 176.069 69.0845C174.695 66.2415 172.847 64.6416 170.128 63.1263C169.011 65.3904 168.06 67.3812 165.941 68.8978C165.724 69.7278 165.573 70.5482 165.438 71.3944C167.105 70.3258 169.801 68.4345 171.878 68.8221C172.32 68.9046 172.519 69.0353 172.821 69.3568C172.836 69.7637 172.83 69.861 172.549 70.1944C172.233 70.5691 166.056 73.0171 164.861 73.5739ZM155.809 62.6483C154.236 62.9494 153.246 63.4674 152.306 64.8105C151.265 66.2978 150.63 68.1961 150.109 69.92C151.137 68.3419 152.053 66.4356 154.048 65.9438C154.609 65.8056 155.169 65.8699 155.655 66.1985C157.078 67.1613 157.805 69.7631 158.045 71.388C158.396 73.7622 158.195 76.2852 157.755 78.6342C157.334 80.4144 156.975 82.2407 156.407 83.9797C159.537 78.8465 162.382 73.7397 160.919 67.5274C160.536 65.9025 159.785 64.3082 158.333 63.3847C157.536 62.878 156.722 62.7615 155.809 62.6483ZM153.239 95.28C156.582 91.6353 158.779 90.6143 163.333 88.9163C164.414 88.5127 165.483 87.9753 166.57 87.6099C167.731 87.2195 169.074 87.3585 170.179 86.771C170.832 86.4237 171.233 85.7986 171.176 85.0471C171.15 84.6983 171.173 84.7004 170.891 84.4703L170.715 84.4783C166.666 85.3181 157.662 86.4674 155.358 89.9567C154.702 90.9493 152.73 94.2076 152.874 95.3144C153.107 95.3956 152.985 95.3953 153.239 95.28ZM141.504 67.5415C141.457 68.1512 141.141 70.1883 141.44 70.5946C143.584 68.7191 146.064 67.3631 148.58 66.0603C148.812 65.4414 149.185 64.709 149.212 64.0488L149.028 64.0091C146.409 64.8373 143.669 65.7939 141.504 67.5415ZM149.585 73.154C149.571 73.2072 149.557 73.2598 149.544 73.313C148.654 76.9528 149.468 78.3226 145.77 80.5913C144.549 81.3403 141.854 82.4247 141.512 83.9809C141.398 84.5014 141.641 85.0142 141.821 85.4913C144.08 85.0139 145.816 82.6151 147.451 81.1025C148.178 80.4301 148.985 79.8521 149.789 79.2771C149.881 77.5615 150.191 74.7751 149.585 73.154ZM122.499 45.589C123.336 44.8827 124.825 43.8199 124.995 42.6479C125.034 42.3757 124.933 42.1769 124.826 41.9376C124.366 41.483 123.929 41.3052 123.287 41.2166C122.306 41.6771 121.984 42.3181 121.613 43.3176C121.31 44.1352 121.085 44.9886 121.368 45.8367L121.638 46.0243C121.988 45.9299 122.204 45.7982 122.499 45.589ZM107.627 40.4608C106.798 40.8499 106.233 41.2175 105.903 42.1099C105.644 42.8134 105.441 43.8688 105.813 44.5761C105.987 44.9058 106.179 44.9397 106.503 45.0378C106.704 44.9538 106.926 44.8741 107.12 44.7763C107.98 44.0214 109.493 42.6578 109.484 41.4402C109.481 41.096 109.349 40.8188 109.055 40.6327C108.655 40.3786 108.076 40.4432 107.627 40.4608ZM110.019 159.673C111.488 160.646 112.881 161.367 114.6 161.793C119.612 163.036 129.174 162.124 134.334 161.059C140.567 159.773 147.896 155.955 151.866 150.822C151.24 148.167 150.572 145.516 150.129 142.823C147.835 128.884 148.108 113.888 149.185 99.8404C149.258 98.8773 150.126 92.5693 150.018 92.269C149.977 92.154 149.843 92.0998 149.755 92.0152C148.608 91.7396 147.549 92.1737 146.41 92.2183C143.973 92.3133 141.269 90.7205 139.965 88.6751C137.517 84.8345 138.494 65.8582 138.817 60.3291C138.848 59.7926 139.23 56.6448 138.744 56.5085C138.685 56.4922 138.481 56.5128 138.415 56.5181C130.449 57.2074 122.449 57.0518 114.476 57.639C102.91 58.4911 91.2871 60.0655 79.6868 60.2519C78.3954 79.4712 81.7632 101.478 85.7038 120.353C86.4759 124.05 87.5049 127.692 88.2856 131.386C89.035 134.932 89.4743 142.479 91.7965 145.01C94.1079 147.528 98.8914 148.518 102.151 148.58C111.361 148.753 120.207 141.291 126.453 135.187C128.126 133.563 129.74 131.883 131.295 130.146C133.113 128.099 134.929 125.621 137.147 124C137.625 123.651 138.066 123.441 138.668 123.448C138.805 123.449 138.942 123.461 139.078 123.471C139.413 124.53 139.077 125.147 138.58 126.088C137.518 128.102 136.197 130.03 134.963 131.943C129.531 140.366 123.201 148.953 115.617 155.572C113.85 157.113 111.947 158.353 110.019 159.673ZM147.718 69.0691C145.587 70.1458 141.794 71.9002 141.017 74.3934C140.828 74.9982 140.845 75.7435 141.149 76.3015C142.294 75.3427 143.432 74.3663 144.634 73.481C145.614 72.7593 146.739 72.0918 147.632 71.2698C147.71 70.6282 147.996 69.6401 147.718 69.0691ZM93.4355 46.2313C94.1079 45.3457 95.4248 43.8559 95.275 42.6516C95.2209 42.2166 95.0431 41.8961 94.6825 41.6472C94.25 41.3485 93.7052 41.2935 93.1955 41.2476C92.6283 41.3885 92.1176 41.4974 91.7922 42.0416C91.408 42.6827 91.4433 43.6104 91.686 44.2927C91.9318 44.984 92.5246 45.9179 93.2417 46.1824C93.3041 46.2055 93.3709 46.215 93.4355 46.2313Z" fill="#E0214D"/>
<path d="M98.5127 74.8828C98.9572 74.9157 99.2608 74.9225 99.6364 75.1957C100.614 77.975 96.614 93.5281 95.9148 97.1712C95.3035 100.521 94.7698 103.884 94.3137 107.258C95.9591 107.212 97.9996 107.188 99.5709 106.686C101.048 106.214 103.259 104.094 104.8 104.518L104.97 104.838C104.873 106.001 104.158 106.606 103.374 107.379C102.033 108.693 100.263 109.466 98.4438 109.839C96.9752 110.14 92.8894 110.631 91.7008 109.75C91.443 109.56 91.3793 109.313 91.3646 109.001C91.275 107.101 91.7263 105.034 92.0416 103.16C92.4729 100.597 92.8968 98.0209 93.4683 95.4855C94.1549 92.4407 94.9889 89.43 95.6404 86.3772C96.3572 83.0205 96.69 79.3876 97.7698 76.136C97.9371 75.6325 98.162 75.2781 98.5127 74.8828Z" fill="#E0214D"/>
<path d="M115.603 77.3984C115.33 78.1107 116.525 78.6521 116.855 77.941C117.515 76.5474 120.357 76.6345 121.519 77.3476C121.775 77.4965 121.972 77.7015 122.139 77.9347C122.11 77.9341 122.082 77.9048 122.054 77.9042C122.026 77.8749 121.968 77.8738 121.94 77.8445C121.883 77.8146 121.854 77.814 121.798 77.7841C121.741 77.7542 121.712 77.7536 121.655 77.7525C121.597 77.7513 121.569 77.722 121.512 77.7208C121.454 77.7196 121.426 77.6903 121.369 77.6891C121.311 77.688 121.283 77.6874 121.225 77.6862C121.168 77.685 121.139 77.6844 121.082 77.6832C121.024 77.6821 120.996 77.6815 120.938 77.6803C120.881 77.6791 120.852 77.6785 120.794 77.7061C120.737 77.7049 120.707 77.733 120.65 77.7318C120.593 77.7306 120.563 77.7587 120.506 77.7576C120.477 77.757 120.448 77.7851 120.419 77.7845C120.39 77.7839 120.361 77.812 120.333 77.8114C120.304 77.8108 120.274 77.839 120.246 77.8384C120.217 77.8378 120.188 77.8659 120.159 77.894C120.129 77.9221 120.101 77.9215 120.071 77.9497C120.042 77.9778 120.013 77.9772 119.984 78.0053C119.955 78.0334 119.926 78.0328 119.897 78.0609C119.867 78.089 119.839 78.0885 119.809 78.1166C119.78 78.1447 119.751 78.1441 119.722 78.1722C119.693 78.2003 119.663 78.2284 119.635 78.2279C119.605 78.256 119.576 78.2841 119.576 78.3128C119.546 78.3409 119.517 78.369 119.516 78.3977C119.487 78.4258 119.458 78.454 119.457 78.4827C119.428 78.5108 119.427 78.5395 119.398 78.5676C119.369 78.5957 119.368 78.6244 119.339 78.6525C119.31 78.6806 119.309 78.7093 119.28 78.7375C119.25 78.7656 119.25 78.7943 119.22 78.8224C119.191 78.8505 119.191 78.8792 119.161 78.9073C119.161 78.936 119.131 78.9642 119.131 78.9929C119.13 79.0216 119.101 79.0497 119.1 79.0784C119.1 79.1071 119.07 79.1352 119.07 79.1639C119.069 79.1926 119.04 79.2207 119.039 79.2494C119.039 79.2781 119.038 79.3068 119.009 79.335C119.008 79.3637 119.008 79.3924 118.978 79.4492C118.977 79.4779 118.977 79.5066 118.976 79.564C118.975 79.5927 118.974 79.6214 118.973 79.6788C118.973 79.7075 118.972 79.7362 118.971 79.7936C118.97 79.8223 118.97 79.8511 118.968 79.9085C118.968 79.9372 118.967 79.9659 118.966 80.0233C118.965 80.052 118.965 80.0807 118.964 80.1381C118.963 80.1668 118.963 80.1955 118.991 80.2248C118.99 80.2535 119.018 80.2828 119.018 80.3115C119.017 80.3402 119.045 80.3695 119.045 80.3982C119.044 80.4269 119.072 80.4562 119.071 80.4849C119.071 80.5136 119.099 80.5429 119.098 80.5716C119.098 80.6003 119.126 80.6296 119.125 80.6583C119.153 80.6876 119.153 80.7163 119.181 80.7456C119.209 80.7749 119.208 80.8036 119.237 80.8329C119.265 80.8622 119.264 80.8909 119.292 80.9202C119.32 80.9495 119.32 80.9782 119.348 81.0075C119.376 81.0368 119.375 81.0655 119.404 81.0948C119.432 81.1241 119.46 81.1534 119.459 81.1821C119.487 81.2114 119.515 81.2407 119.515 81.2694C119.543 81.2987 119.571 81.328 119.6 81.3286C119.628 81.3579 119.656 81.3872 119.685 81.3877C119.713 81.417 119.741 81.4176 119.77 81.4469C119.798 81.4762 119.826 81.4768 119.855 81.5061C119.883 81.5354 119.911 81.536 119.939 81.5653C119.968 81.5946 119.996 81.5952 120.024 81.6245C120.053 81.6538 120.081 81.6544 120.109 81.6836C120.137 81.7129 120.166 81.7135 120.195 81.7141C120.224 81.7147 120.252 81.744 120.28 81.7446C120.309 81.7452 120.337 81.7745 120.366 81.7751C120.395 81.7757 120.423 81.805 120.451 81.8055C120.48 81.8061 120.508 81.8354 120.537 81.836C120.566 81.8366 120.594 81.8372 120.622 81.8665C120.651 81.8671 120.68 81.8677 120.737 81.8689C120.766 81.8694 120.795 81.87 120.852 81.8712C120.881 81.8718 120.91 81.8724 120.967 81.8736C120.996 81.8742 121.024 81.8748 121.082 81.8759C121.11 81.8765 121.139 81.8771 121.197 81.8783C121.225 81.8789 121.254 81.8795 121.311 81.8806C121.34 81.8812 121.369 81.8818 121.398 81.8537C121.427 81.8543 121.456 81.8549 121.485 81.8268C121.542 81.828 121.572 81.7998 121.629 81.801C121.686 81.8022 121.716 81.7741 121.774 81.7466C121.832 81.719 121.86 81.7196 121.89 81.6915C121.919 81.6634 121.976 81.6646 122.006 81.6365C122.035 81.6083 122.093 81.5808 122.122 81.5814C122.151 81.5533 122.209 81.5258 122.238 81.4977C122.268 81.4695 122.326 81.442 122.355 81.4139C122.384 81.3858 122.413 81.3577 122.471 81.3301C122.501 81.302 122.53 81.2739 122.559 81.2458C122.589 81.2177 122.618 81.1896 122.648 81.1327C122.677 81.1046 122.707 81.0478 122.736 81.0197C122.766 80.9916 122.795 80.9348 122.825 80.9067C122.854 80.8785 122.884 80.8217 122.884 80.793C122.914 80.7649 122.915 80.7075 122.944 80.6794C122.974 80.6225 122.975 80.5938 123.005 80.537C123.034 80.4802 123.035 80.4515 123.036 80.3941C123.037 80.3367 123.067 80.3086 123.068 80.2512C123.069 80.1937 123.098 80.1656 123.1 80.1082C123.101 80.0508 123.101 80.0221 123.103 79.9647C123.241 80.1973 123.381 80.4012 123.578 80.6062C123.746 80.782 124.148 80.7903 124.268 80.5343C126.757 75.4164 117.449 72.8129 115.603 77.3984Z" fill="#E0214D"/>
<path d="M87.9547 71.4885C85.9424 71.5908 83.5709 72.4035 82.6978 74.3671C82.4277 74.9359 83.1927 75.4398 83.5483 74.9015C84.3481 73.7118 86.0494 73.3734 87.3985 73.4011C88.1449 73.4165 88.9175 73.5472 89.4517 74.1038C89.2795 74.1003 89.1067 74.1254 88.9625 74.1512C88.4142 74.2835 87.9467 74.6759 87.7064 75.1879C87.6461 75.3303 87.6144 75.4732 87.6115 75.6167C87.523 75.7298 87.4339 75.8715 87.3454 75.9846C87.1386 76.2675 87.1884 76.6418 87.3254 76.9605C87.7383 77.8305 88.819 78.3409 89.7716 78.1021C90.8103 77.8649 91.3769 76.8428 91.254 75.8352C91.23 75.6049 91.1773 75.3741 91.0661 75.1995C91.2108 75.1451 91.3567 75.0332 91.417 74.8908C92.6938 72.8494 89.5646 71.4067 87.9547 71.4885Z" fill="#E0214D"/>
<path d="M111.271 114.928C109.639 114.665 107.788 115.287 106.255 115.859C104.402 116.567 102.577 117.362 100.696 118.042C98.9023 118.694 97.0247 119.23 95.0986 119.334C93.1437 119.437 89.9089 118.94 90.1647 116.275C90.2368 115.558 89.1203 115.392 88.9339 116.077C87.6514 121.191 94.1843 121.9 97.6425 121.31C100.006 120.899 102.235 120.026 104.436 119.124C105.623 118.631 106.81 118.167 107.969 117.674C109.07 117.209 110.399 116.805 111.361 116.136C111.798 115.829 111.872 115.026 111.271 114.928Z" fill="#E0214D"/>
<path d="M119.873 10.0957C120.033 10.1067 120.384 10.1465 120.539 10.2264C120.702 10.3101 120.898 10.4459 120.939 10.6366C121.137 11.5418 120.133 12.9573 119.671 13.7157C118.929 14.9357 118.144 16.1093 117.677 17.4705C117.013 19.403 116.81 21.4557 115.902 23.3085C115.609 23.3608 115.331 23.3002 115.087 23.1095C114.808 22.8914 114.74 22.5951 114.718 22.2571C114.495 18.8231 117.601 12.6408 119.873 10.0957Z" fill="#E0214D"/>
<path d="M109.425 12.2919C109.859 12.2779 110.192 12.3007 110.615 12.3934C110.871 12.6123 110.947 12.6244 111.06 12.9617C111.485 14.2188 111.941 20.927 111.784 22.3266C111.744 22.6798 111.592 23.0163 111.444 23.3353C111.18 23.3516 110.99 23.3101 110.733 23.2572C110.287 22.9173 110.118 22.5577 109.958 22.0372C109.395 20.2087 108.598 13.862 109.425 12.2919Z" fill="#E0214D"/>
<path d="M99.6409 16.6943C100.259 16.746 100.661 16.8771 101.171 17.2413C102.628 18.2826 106.137 22.2468 106.318 24.0162C106.366 24.485 106.198 24.6653 105.929 25.0274C105.678 25.0083 105.371 24.9978 105.137 24.9083C104.423 24.6349 103.505 22.9405 103.016 22.3031C101.905 20.8546 100.274 19.601 99.3613 18.0368C99.2782 17.48 99.4068 17.1976 99.6409 16.6943Z" fill="#E0214D"/>
<path d="M157.451 146.793C159.709 146.717 161.912 147.219 163.976 148.119C168.989 150.305 173.89 154.594 175.89 159.78C177.061 162.817 176.884 165.935 175.538 168.885C173.18 174.055 168.517 176.827 163.409 178.747C165.875 184.831 162.194 190.85 163.273 193.803C163.485 194.382 164 194.505 164.552 194.633C165.965 194.961 167.51 194.943 168.957 195.004C172.841 195.169 178.44 195.088 181.923 196.859C182.903 197.357 184.031 198.123 184.338 199.243C184.566 200.077 184.356 201.449 184.449 202.386C184.905 206.966 185.551 211.563 185.687 216.167C186.003 226.792 185.268 237.482 184.587 248.079C184.378 251.326 184.59 254.609 184.144 257.841C184.009 258.818 183.722 260.366 183.094 261.13C182.311 262.083 180.413 262.798 179.234 262.985C177.52 263.256 175.764 263.092 174.036 263.158L161.677 263.542C153.134 263.829 144.589 264.069 136.044 264.264C131.017 264.404 125.993 264.656 120.964 264.682C110.949 264.734 100.961 264.333 90.9564 263.911C85.0775 263.663 78.7966 263.745 73.0106 262.618C71.343 262.294 69.3826 261.815 68.1684 260.549C67.4179 259.767 66.9657 258.769 66.7322 257.719C66.0554 254.677 66.7134 249.304 66.7359 245.982C66.7553 242.248 66.5615 238.522 66.4636 234.792L66.0277 217.244C65.9013 212.251 65.4968 206.987 66.224 202.025C66.4772 200.296 66.9457 198.501 68.0762 197.124C68.613 196.47 69.278 195.942 70.0541 195.602C74.8791 193.487 83.7926 194.488 89.318 193.828C87.3339 188.964 90.0776 184.52 90.2443 179.597C89.3177 179.419 88.3444 179.197 87.464 178.856C85.5968 178.132 84.0655 176.872 83.2709 175.002C82.0995 172.246 82.6394 168.878 83.6933 166.175C85.0935 162.584 89.0843 156.581 92.7335 155.027C93.278 154.796 93.9243 154.681 94.4783 154.957C94.6903 155.063 94.6611 155.182 94.721 155.39C94.2488 156.711 92.4945 157.774 91.4351 158.643C88.0002 161.462 85.2646 165.26 84.905 169.818C84.7736 171.487 85.0877 173.018 86.2093 174.306C90.5239 179.262 110.632 179.59 117.54 179.97C131.715 180.749 144.726 180.522 158.628 177.274C162.47 176.376 166.825 175.474 169.832 172.741C172.106 170.674 174.18 167.91 174.252 164.722C174.391 158.637 168.461 153.611 163.563 151.064C161.611 150.049 158.868 149.215 157.345 147.663C157.256 147.248 157.294 147.193 157.451 146.793ZM170.612 260.922C173.114 260.735 179.436 260.81 181.171 258.926C181.677 258.377 181.865 257.137 181.962 256.405C182.389 253.204 182.256 249.915 182.468 246.693C182.876 240.479 183.169 234.31 183.364 228.082C183.461 224.979 183.62 221.91 183.553 218.801C183.448 213.869 182.961 208.882 182.351 203.986C182.172 202.55 181.867 200.274 180.663 199.337C178.26 197.468 173.571 197.405 170.631 197.227C165.193 196.898 159.715 197.06 154.267 197.058C148.164 197.057 142.024 196.92 135.925 197.079C131.573 197.193 127.224 197.514 122.868 197.501C119.456 197.491 116.044 197.314 112.631 197.279C108.826 197.239 105 197.329 101.198 197.174C97.6689 197.031 94.151 196.659 90.6233 196.498C87.1549 196.34 83.6511 196.402 80.1809 196.486C77.4354 196.572 72.2644 196.337 70.2642 198.515C69.0433 199.844 68.6588 201.791 68.4496 203.53C67.7369 209.455 68.0239 215.671 68.2029 221.627L69.0113 243.044C69.1137 245.416 69.2589 247.81 69.2368 250.185C69.2199 251.993 69.0233 253.845 69.1257 255.648C69.1903 256.783 69.2362 257.969 70.1261 258.762C71.4095 259.905 73.1371 260.23 74.7791 260.498C82.5295 261.764 90.5848 261.5 98.4149 261.733C104.053 261.95 109.692 262.126 115.332 262.261C117.584 262.328 119.848 262.501 122.1 262.503C125.492 262.507 128.888 262.198 132.28 262.122C135.789 262.044 139.3 262.168 142.811 262.086C147.436 261.978 152.052 261.656 156.672 261.443C160.938 261.247 165.26 261.366 169.511 261.019C169.878 260.99 170.245 260.957 170.612 260.922Z" fill="#E0214D"/>
<path d="M75.5353 198.534C75.9023 198.639 76.2234 198.772 76.4461 199.102C77.7535 201.039 77.5385 207.064 77.7218 209.535C78.0276 213.651 78.533 217.732 78.7446 221.861C79.2138 231.018 79.1867 240.164 79.343 249.326C79.3823 251.635 79.9068 256.668 79.4565 258.59C79.3199 259.173 79.1138 259.6 78.6007 259.93C78.1482 259.953 78.1442 259.953 77.7757 259.69C77.5751 259.213 77.4933 258.824 77.4606 258.308C77.2807 255.478 77.5194 252.563 77.5108 249.726L77.428 229.068C77.387 226.934 77.2652 224.805 77.0626 222.68C76.9718 222.725 76.8817 222.771 76.7897 222.813C76.3228 223.029 76.0358 223.123 75.5291 222.924C73.6908 222.2 72.7916 219.643 72.1072 217.966C72.6129 221.913 72.891 225.773 73.6865 229.691L74.071 230.959C74.3463 231.882 74.9259 233.462 74.2799 234.331C74.0252 234.674 73.8234 234.714 73.4376 234.807C73.0233 234.716 72.8166 234.62 72.5388 234.287C72.0081 233.652 71.7667 232.645 71.6125 231.851C70.8469 227.909 70.6605 223.702 70.191 219.701C69.6456 215.053 68.2395 209.902 68.7714 205.238C68.8591 204.471 68.995 203.379 69.6106 202.883C70.0292 203.222 70.1461 203.94 70.2498 204.459C70.4605 205.515 70.4325 206.646 70.558 207.721C70.9342 210.941 71.3295 214.404 72.1752 217.526L72.2321 217.733C72.2219 214.526 72.0238 211.293 71.7525 208.098C71.5799 206.065 71.2871 203.973 71.2766 201.932C71.2735 201.352 71.2517 200.689 71.7187 200.272C71.9208 200.091 71.9801 200.162 72.2268 200.188C73.6939 201.625 73.9978 214.442 74.1504 217.084C75.0468 218.297 76.0327 219.372 76.8393 220.662C76.8836 215.885 76.5421 211.067 76.0425 206.315C75.8327 204.32 75.4055 202.322 75.2849 200.322C75.2461 199.68 75.2052 199.104 75.5353 198.534Z" fill="#E0214D"/>
<path d="M88.1104 206.297C88.2217 206.343 88.3715 206.4 88.4675 206.47C89.0218 206.869 88.9631 207.584 88.9855 208.204C89.064 210.384 88.8056 212.602 88.7914 214.791C88.7506 223.35 88.5478 231.904 88.183 240.455C88.1079 242.704 88.0141 244.961 88.0547 247.212C88.0959 249.502 88.2866 251.856 88.1716 254.142C88.1377 254.817 88.0867 255.438 87.6074 255.952C87.3389 255.697 87.0605 255.453 86.9451 255.087C86.3151 253.085 86.8759 243.601 86.9303 241.029L87.2561 223.678C87.3272 218.775 87.0042 213.772 87.3426 208.885C87.4121 207.881 87.6357 207.183 88.1104 206.297Z" fill="#E0214D"/>
<path d="M81.9421 203.078C82.2429 203.213 82.3337 203.261 82.4699 203.578C83.0154 204.846 82.6684 213.607 82.7367 215.773C82.872 220.079 83.5202 224.346 83.7186 228.646C83.9884 234.5 83.6598 240.333 83.7456 246.186C83.7942 249.505 84.2846 252.844 84.2569 256.145C84.2517 256.764 84.1846 257.27 83.893 257.82C83.6226 257.464 83.4368 257.157 83.3254 256.719C82.9434 255.215 83.1092 253.365 83.0698 251.812C82.9071 245.428 83.2267 239.001 82.9455 232.63C82.7284 227.711 81.9519 222.84 81.512 217.94C81.2078 214.55 81.1718 211.124 81.1558 207.721C81.1481 206.141 81.0851 204.465 81.9421 203.078Z" fill="#E0214D"/>
<path d="M123.985 206.07C124.133 206.226 124.185 206.375 124.272 206.569C124.237 207.154 124.148 207.687 123.924 208.233C121.866 213.241 118.091 217.54 115.23 222.098C111.836 227.506 108.991 233.27 105.148 238.391C104.317 239.498 103.583 240.58 102.265 241.119C102.007 240.851 101.96 240.698 101.894 240.334C102.204 238.888 103.66 237.458 104.537 236.292C108.252 231.353 111.278 226.16 114.603 220.973C116.499 218.015 118.616 215.199 120.503 212.234C121.73 210.306 122.112 207.5 123.985 206.07Z" fill="#E0214D"/>
<path d="M69.3514 231.122C69.6366 231.159 70.0408 231.172 70.3022 231.283C70.696 231.45 70.8153 231.739 70.9239 232.122C72.1326 236.392 71.5973 245.025 71.5908 249.786C71.5875 252.105 71.8025 254.551 71.5758 256.857C71.5299 257.325 71.3835 257.708 71.1694 258.122C70.8803 258.203 70.5151 258.267 70.2192 258.197C70.0014 258.147 69.8547 258.015 69.7485 257.83C69.0982 256.701 69.4757 252.612 69.5191 251.203C69.6212 247.872 69.823 244.515 69.7738 241.184C69.7298 238.231 68.7525 233.73 69.3514 231.122Z" fill="#E0214D"/>
<path d="M129.931 216.625C130.232 216.711 130.442 216.827 130.704 216.997C130.713 217.043 130.729 217.088 130.731 217.135C130.797 218.69 124.607 227.714 123.432 229.617C120.749 233.959 118.342 238.396 115.292 242.507C115.165 242.481 114.931 242.44 114.817 242.39C114.491 242.247 114.477 242.114 114.401 241.805C114.768 240.505 117.339 237.226 118.251 235.746L125.961 223.102C127.272 220.944 128.521 218.719 129.931 216.625Z" fill="#E0214D"/>
<path d="M93.0885 206.454C93.1322 206.468 93.1771 206.48 93.2199 206.497C93.5804 206.638 93.9388 206.854 94.087 207.23C95.0114 209.579 95.5261 225.921 95.2652 228.853C95.2209 229.352 95.0966 229.775 94.901 230.234C94.8518 230.22 94.801 230.209 94.753 230.19C94.346 230.035 94.0938 229.89 93.9012 229.478C93.7194 229.089 92.8273 209.621 92.8603 207.446C92.8658 207.074 92.9529 206.796 93.0885 206.454Z" fill="#E0214D"/>
<path d="M74.8993 236.329C75.2127 236.377 75.4453 236.463 75.7329 236.596C75.9787 236.932 76.0162 237.275 76.0741 237.678C76.5727 241.144 76.4211 255.674 74.6092 258.099C74.1788 257.965 73.7937 257.901 73.5249 257.508C73.1465 255.538 74.0063 253.185 74.189 251.193C74.4157 248.721 74.5446 246.196 74.5203 243.713C74.5006 241.681 74.305 239.558 74.5237 237.538C74.5717 237.094 74.7024 236.726 74.8993 236.329Z" fill="#E0214D"/>
<path d="M110.521 247.273C110.755 247.317 111.085 247.346 111.297 247.449C111.625 247.61 111.784 247.891 111.846 248.241C112.137 249.892 109.959 253.843 109.033 255.215C108.69 255.1 108.305 254.98 108.045 254.712C107.808 254.467 107.697 254.108 107.681 253.774C107.598 251.949 109.29 248.608 110.521 247.273Z" fill="#E0214D"/>
<path d="M97.7857 245.933C98.2324 245.932 98.4628 245.921 98.8614 246.154C99.1964 246.593 99.2737 246.942 99.2001 247.479C98.9906 249.007 97.639 251.463 96.4048 252.389C96.0766 252.401 95.7198 252.287 95.4524 252.09C95.1291 251.851 94.9993 251.531 94.9778 251.139C94.8815 249.394 96.7094 247.194 97.7857 245.933Z" fill="#E0214D"/>
<path d="M134.334 210.565C134.821 210.663 134.954 210.783 135.251 211.153C135.414 211.866 135.269 212.415 134.919 213.053C134.342 214.107 133.886 214.578 132.747 214.933C132.656 214.908 132.563 214.89 132.474 214.856C132.109 214.718 131.866 214.586 131.761 214.186C131.533 213.321 132.437 211.92 132.814 211.169C133.312 210.947 133.826 210.76 134.334 210.565Z" fill="#E0214D"/>
<path d="M91.5767 242.019C91.7139 242.126 91.8415 242.214 91.948 242.359C92.6395 243.299 92.1655 245.259 91.8708 246.305C91.7696 246.221 91.7206 246.191 91.6425 246.067C91.031 245.101 91.2669 243.069 91.5767 242.019Z" fill="#E0214D"/>
<path d="M18.88 274.076C21.9125 274.766 24.7706 275.954 27.8467 276.528C32.9523 277.481 38.1452 278.009 43.3104 278.515C50.2354 279.187 57.1722 279.701 64.1207 280.059C71.3032 280.376 78.5104 280.433 85.6994 280.693C110.636 281.642 135.576 281.764 160.521 281.061C167.699 280.815 174.853 280.03 182.028 279.701C187.417 279.454 192.82 279.571 198.205 279.261C202.113 279.036 205.949 278.284 209.848 277.999C216.647 277.502 223.469 277.416 230.244 276.574C231.241 276.45 232.296 276.324 233.264 276.046C235.216 275.485 237.254 274.438 239.318 274.504C239.955 274.525 240.304 274.636 240.742 275.102C240.802 275.399 240.812 275.552 240.718 275.85C240.509 276.508 239.982 276.814 239.41 277.121C234.36 278.922 229.041 279.528 223.784 280.418C219.532 281.137 215.18 282.065 210.871 282.255C206.935 282.429 202.998 281.925 199.07 282.173C191.566 282.648 184.105 283.56 176.585 283.915C165.59 284.432 154.607 284.061 143.607 284.122C138.642 284.15 133.69 284.659 128.726 284.688C123.992 284.715 119.234 284.245 114.498 284.137C96.1103 283.835 77.7449 283.03 59.4015 281.723C54.9716 281.417 50.5381 281.179 46.1011 281.009C42.2731 280.85 38.4282 280.768 34.618 280.347C31.5412 280.006 20.2541 278.56 18.3008 276.411C18.0295 276.112 17.9147 275.75 17.9636 275.352C18.0328 274.788 18.4767 274.421 18.88 274.076Z" fill="#E0214D"/>
<path d="M189.349 234.895C192.79 234.839 196.285 235.922 199.692 236.388C218.802 239.003 239.651 242.218 256.979 251.099C258.827 252.046 260.984 252.928 262.638 254.179C263.081 254.515 263.564 254.909 263.567 255.519C263.569 256.136 263.149 256.579 262.744 256.987C260.419 256.235 258.425 254.758 256.293 253.598C253.556 252.122 250.747 250.8 247.865 249.632C236.054 244.905 219.998 241.718 207.267 239.969C203.59 239.463 199.892 239.071 196.206 238.639C194.416 238.429 192.486 238.35 190.745 237.91C190.108 237.75 189.316 237.471 188.848 236.985C188.533 236.658 188.532 236.403 188.507 235.97C188.714 235.452 188.916 235.24 189.349 234.895Z" fill="#E0214D"/>
<path d="M55.5164 239.551C56.1508 239.645 56.4741 239.872 56.8792 240.338C56.9401 240.569 57.0342 240.745 56.9653 240.983C56.5285 242.493 53.1638 242.765 51.825 243.045C47.9694 243.849 44.2087 244.927 40.4097 245.953C36.422 247.029 32.3935 248.017 28.4698 249.309C25.1949 250.387 22.0495 251.78 18.9011 253.178C15.3044 254.774 11.6933 256.406 8.2763 258.366C5.86027 259.752 3.98098 261.865 1.6266 263.244C1.58279 263.27 1.53822 263.294 1.49402 263.319C1.29686 263.291 1.09873 263.263 0.904406 263.219C0.402928 263.105 0.116136 262.852 -0.151245 262.415C-0.208769 261.967 -0.0683091 261.639 0.182522 261.277C1.70175 259.09 4.8085 257.446 7.09351 256.126C19.0069 249.247 30.8978 245.541 44.1811 242.241C47.9201 241.313 51.722 240.212 55.5164 239.551Z" fill="#E0214D"/>
<path d="M192.85 117.263C193.984 117.235 194.894 117.336 195.906 117.887C196.977 118.47 197.66 119.4 197.984 120.568C198.473 122.328 198.157 123.906 197.226 125.454C195.559 128.227 192.987 130.06 189.865 130.811C188.493 130.801 187.149 130.779 185.924 130.067C185.066 129.568 184.486 128.796 184.25 127.832C183.82 126.079 184.509 124.299 185.448 122.835C187.164 120.16 189.69 117.933 192.85 117.263ZM189.158 127.832C191.466 127.285 193.69 125.821 194.917 123.756C195.286 123.134 195.708 122.231 195.572 121.486C195.48 120.984 195.138 120.697 194.717 120.47C194.141 120.16 193.706 119.981 193.047 119.957C190.345 121.069 187.961 122.917 186.788 125.685C186.602 126.122 186.479 126.547 186.678 127.005C186.838 127.373 187.241 127.566 187.604 127.683C188.116 127.848 188.627 127.851 189.158 127.832Z" fill="#E0214D"/>
<path d="M28.4508 192.76C30.4389 192.379 32.9989 193.398 34.6342 194.497C35.5275 195.097 36.5476 195.984 36.7177 197.112C36.8042 197.686 36.6168 198.215 36.2603 198.657C34.8674 200.386 31.4218 200.792 29.381 201.084C27.0905 201.127 24.4346 201.404 22.3612 200.207C21.6632 199.804 21.0099 199.195 20.8339 198.378C20.6995 197.755 20.8905 197.114 21.228 196.587C22.6984 194.291 25.9265 193.268 28.4508 192.76ZM29.1839 198.387C30.31 198.258 32.7476 198.199 33.4437 197.136C33.6662 196.797 33.5742 196.623 33.4705 196.273C32.623 195.35 31.1068 195.206 29.9145 195.176C29.669 195.17 29.4281 195.191 29.1836 195.211C27.8445 195.445 25.4239 195.984 24.5985 197.132C24.3936 197.417 24.4179 197.509 24.4478 197.839C24.9104 198.357 25.5792 198.476 26.2501 198.516C27.2074 198.571 28.2287 198.469 29.1839 198.387Z" fill="#E0214D"/>
<path d="M215.213 176.898C216.1 176.831 216.822 176.847 217.658 177.182C218.472 177.509 219.117 178.025 219.443 178.857C219.934 180.109 219.664 181.675 219.135 182.87C217.853 185.766 215.06 187.448 212.229 188.55C211.172 188.817 210.228 188.915 209.201 188.439C208.645 188.181 208.266 187.726 208.064 187.15C207.557 185.701 208.043 183.984 208.697 182.662C210.095 179.837 212.24 177.922 215.213 176.898ZM212.197 185.642C213.791 184.735 216.662 183.039 217.212 181.162C217.333 180.749 217.279 180.37 217.05 180.003C216.845 179.673 216.573 179.478 216.182 179.455C216.053 179.447 215.833 179.477 215.699 179.492C213.577 180.658 211.203 182.513 210.528 184.962C210.43 185.317 210.387 185.571 210.475 185.93C211.002 186.127 211.328 186.076 211.849 185.831C211.968 185.775 212.082 185.707 212.197 185.642Z" fill="#E0214D"/>
<path d="M220.056 204.763C221.406 204.679 222.811 204.903 223.969 205.636C224.83 206.181 225.535 207.024 225.714 208.048C225.862 208.893 225.655 209.731 225.162 210.428C223.887 212.232 221.355 212.675 219.325 213.013C217.822 213.151 215.859 213.321 214.52 212.503C213.989 212.178 213.601 211.684 213.466 211.073C213.235 210.026 213.772 208.876 214.365 208.043C215.747 206.106 217.774 205.132 220.056 204.763ZM220.146 209.969C220.849 209.871 222.014 209.792 222.519 209.217C222.812 208.884 222.792 208.714 222.768 208.307C222.466 207.844 222.203 207.657 221.674 207.534C221.144 207.41 220.627 207.36 220.084 207.363C219.117 207.619 217.881 208.048 217.362 208.981C217.215 209.245 217.251 209.311 217.257 209.599C217.566 209.947 217.829 210.125 218.311 210.139C218.909 210.156 219.554 210.043 220.146 209.969Z" fill="#E0214D"/>
<path d="M218.733 57.5869C219.957 57.3679 221.797 57.3264 222.969 57.7343C223.566 57.9416 224.335 58.3717 224.538 59.0207C224.646 59.364 224.559 59.6397 224.348 59.9153C224.096 60.2435 223.615 60.4422 223.222 60.4869C220.712 60.772 218.147 60.4767 215.62 60.6167C211.362 60.8523 207.095 61.4826 202.835 61.5386C201.302 61.6463 198.838 62.1689 197.481 61.3177C197.107 61.0836 196.873 60.7323 196.795 60.2992C196.733 59.947 196.782 59.5354 197.025 59.2613C197.359 58.8854 197.793 58.7756 198.274 58.7227C199.745 58.5602 201.337 58.8691 202.837 58.7953C208.12 58.5356 213.467 58.1037 218.733 57.5869Z" fill="#E0214D"/>
<path d="M40.0621 168.111C40.693 168.109 41.3064 168.176 41.9176 168.34C42.0634 168.38 42.2082 168.423 42.352 168.47C42.4958 168.517 42.6384 168.567 42.7799 168.621C42.9212 168.674 43.0612 168.731 43.1998 168.792C43.3384 168.852 43.4755 168.915 43.6111 168.982C43.7468 169.049 43.8808 169.119 44.0131 169.192C44.1454 169.265 44.2758 169.342 44.4044 169.421C44.5332 169.5 44.6599 169.583 44.7846 169.668C44.9093 169.754 45.0318 169.842 45.1522 169.933C45.2728 170.025 45.3911 170.119 45.5072 170.216C45.6231 170.313 45.7367 170.412 45.8481 170.515C45.9592 170.617 46.0679 170.722 46.1741 170.83C46.2804 170.937 46.384 171.047 46.4851 171.16C46.586 171.272 46.6843 171.387 46.7798 171.504C46.8754 171.622 46.9681 171.741 47.0579 171.863C47.1477 171.984 47.2346 172.108 47.3185 172.234C47.4023 172.359 47.4833 172.487 47.5612 172.617C48.0992 173.518 48.6163 174.658 48.3028 175.723C48.0275 176.657 47.523 177.087 46.6897 177.534C45.4306 177.792 44.1654 178.019 42.8949 177.675C41.4977 177.296 40.4454 176.305 39.7689 175.049C38.9211 173.474 38.3542 171.025 38.9005 169.302C39.1134 168.63 39.4644 168.407 40.0621 168.111ZM45.5269 175.334C44.832 173.362 43.592 171.913 41.642 171.068C41.4215 170.973 41.3851 170.969 41.1837 170.914C41.4827 172.333 41.7718 174.138 43.0909 174.979C43.8861 175.486 44.6388 175.388 45.5269 175.334Z" fill="#E0214D"/>
<path d="M50.207 129.222C50.8789 129.128 51.4858 129.137 52.1447 129.317C54.4789 129.957 56.1748 131.896 57.3514 133.909C57.2671 134.632 57.1881 135.358 57.0838 136.079C56.8839 137.463 56.4849 138.153 55.3695 138.986C54.7499 139.208 54.0685 139.284 53.421 139.146C51.9094 138.823 50.6912 137.618 49.8545 136.381C48.8898 134.956 48.2315 133.046 48.6253 131.327C48.8612 130.297 49.3368 129.781 50.207 129.222ZM55.188 136.234C54.9735 134.828 53.9763 133.722 52.8664 132.894C52.341 132.502 51.8079 132.213 51.1846 132.012C51.4926 133.397 51.9257 135.158 53.1755 135.992C53.8547 136.445 54.4214 136.407 55.188 136.234Z" fill="#E0214D"/>
<path d="M25.9752 53.8193C29.0104 53.8283 32.7209 55.4359 35.423 56.7097C36.9257 57.4178 39.4528 58.4487 40.0524 60.1206C40.0631 60.7229 39.7383 61.0902 39.4101 61.5719C37.4834 61.3784 35.7279 59.6462 33.9662 58.8461C31.7104 57.8211 29.1043 57.5649 26.9036 56.4009C26.2511 56.0557 25.6916 55.7155 25.4731 54.9781C25.5141 54.45 25.6522 54.2325 25.9752 53.8193Z" fill="#E0214D"/>
<path d="M204.008 37.5225C204.249 37.5342 204.543 37.5314 204.775 37.6C205.143 37.7092 205.559 38.0082 205.74 38.3626C205.921 38.7185 205.953 39.0587 205.784 39.4291C205.064 41.0068 197.002 44.5934 195.072 45.51C194.663 45.5214 194.189 45.471 193.857 45.2055C193.446 44.8782 193.275 44.3383 193.223 43.8403C193.45 43.3223 193.827 42.9845 194.28 42.6587C195.346 41.8909 196.691 41.3812 197.862 40.7801C199.924 39.7216 201.963 38.6133 204.008 37.5225Z" fill="#E0214D"/>
<path d="M29.9118 76.0492C31.4142 75.8538 35.6983 75.593 36.8781 76.5253C37.2426 76.8133 37.2506 76.944 37.3404 77.3744C37.2669 77.6632 37.2127 77.9635 37.0073 78.1942C36.1715 79.1339 33.3285 78.5138 32.1075 78.5559C30.3763 78.5996 26.2213 79.2133 24.8259 78.3203C24.4925 78.1071 24.2624 77.869 24.2095 77.4617C24.1526 77.0258 24.3667 76.7619 24.6078 76.4352C25.9312 75.6856 28.3654 76.171 29.9118 76.0492Z" fill="#E0214D"/>
<path d="M39.4019 90.7743C39.5524 90.7681 39.7677 90.7537 39.9123 90.7746C40.2565 90.825 40.5733 90.9435 40.7496 91.2649C40.8699 91.4846 40.9046 91.747 40.8505 91.9866C40.757 92.4013 40.586 92.6009 40.235 92.8135C38.9753 93.5764 37.3486 93.9803 35.9812 94.5438C33.9337 95.3876 32.0167 96.4123 30.1368 97.5757C29.9039 97.6609 29.6948 97.6532 29.4487 97.6646C29.1494 97.4951 28.7664 97.2096 28.6344 96.8697C28.4923 96.5037 28.5329 96.1896 28.7138 95.8481C29.9101 93.5887 36.8752 91.4043 39.4019 90.7743Z" fill="#E0214D"/>
<path d="M197.107 74.1302C197.865 74.1145 198.297 74.2379 198.939 74.643C200.077 75.361 205.202 78.8687 205.331 80.014C205.407 80.6904 204.911 81.1808 204.525 81.6751C202.242 81.3183 197.951 78.6866 196.632 76.769C196.301 76.2866 196.078 75.7283 196.227 75.137C196.356 74.6212 196.696 74.4074 197.107 74.1302Z" fill="#E0214D"/>
</g>
<defs>
<clipPath id="clip0_0_100">
<rect width="264" height="287" fill="white"/>
</clipPath>
</defs>
</svg>
