<svg width="212" height="275" viewBox="0 0 212 275" fill="none" xmlns="http://www.w3.org/2000/svg">
<g clip-path="url(#clip0_0_137)">
<path d="M68.4367 34.4984C67.0758 32.4966 66.0044 30.5722 65.6593 28.1449C64.9821 23.3816 66.8485 18.7549 69.6759 15.0062C76.3271 6.18706 87.136 2.41122 97.6923 0.951752C109.565 -0.689673 123.71 -1.38798 133.766 6.31267C148.663 17.7199 150.411 41.9778 151.594 59.1838C152.017 65.3472 152.564 71.5214 152.738 77.6986C152.895 83.2686 152.734 88.8501 152.859 94.4222C153.039 102.534 153.878 110.581 154.454 118.667C154.727 122.506 154.574 126.385 155.07 130.206C155.406 129.895 155.744 129.567 156.127 129.315C156.909 128.8 157.885 128.751 158.779 128.943C160.923 129.402 163.267 130.515 164.86 132.04C168.217 135.253 168.606 140.267 171.754 143.636C173.173 145.155 175.013 146.247 176.803 147.268C181.085 149.711 184.645 151.964 187.319 156.259C194.117 167.176 196.67 188.197 197.651 200.955C197.843 203.444 198.635 206.767 197.958 209.165C197.844 209.57 197.755 209.733 197.399 209.951C197.266 209.926 197.154 209.914 197.03 209.846C195.784 209.171 195.955 203.765 195.847 202.341C194.913 189.985 193.117 174.453 188.437 162.955C186.587 158.407 184.217 154.251 180.028 151.518C179.38 151.095 178.685 150.591 177.969 150.306C177.877 150.27 177.785 150.237 177.693 150.203C179.126 151.318 180.477 152.415 181.343 154.048C181.697 154.334 182.099 154.929 182.339 155.32C184.586 158.975 183.537 163.485 184.81 167.408C185.991 171.045 189.168 174.02 189.653 177.864C189.903 179.847 189.138 181.967 188.843 183.918C188.617 185.407 188.597 186.895 188.687 188.395C188.886 191.729 189.633 195.012 190.143 198.309C190.435 200.199 190.573 202.121 190.736 204.026C191.501 212.63 191.988 221.249 192.194 229.884C192.401 238.519 192.328 247.151 191.975 255.781C191.898 257.421 191.768 259.061 191.709 260.701C191.623 263.081 191.805 265.774 191.182 268.076C191.093 268.408 190.876 269.09 190.548 269.242C188.414 270.233 177.795 269.965 174.786 270.075C135.547 271.562 96.2936 272.309 57.0263 272.315C54.7933 272.322 43.5187 272.736 42.4522 272.203C41.6308 271.792 40.3821 267.562 40.0485 266.601C34.8141 268.891 28.0369 270.889 22.3455 269.445C17.4541 268.204 13.9174 264.732 11.4283 260.472C5.77226 250.793 5.48284 237.546 8.88912 227.004C10.0548 223.398 11.8543 220.032 13.444 216.602C15.5162 212.129 17.4712 207.741 20.4176 203.746C23.8262 199.125 29.2337 195.632 31.8459 190.48C33.3602 187.494 32.6115 185.041 33.4503 182.131C34.5261 178.402 39.7008 175.769 42.8912 173.957C42.0344 172.448 41.0151 171.032 40.2051 169.496C39.5064 168.171 38.6673 166.333 39.1793 164.833C39.6516 163.451 40.8702 162.804 42.0812 162.169C42.6863 162.227 43.2958 162.34 43.8982 162.426C44.3581 161.778 44.8086 161.111 45.3038 160.49C46.198 159.369 46.9258 159.055 48.307 158.905C48.6485 158.335 49.0631 157.828 49.4738 157.308C50.176 157.167 51.042 157.213 51.7024 156.946C52.9198 156.452 52.7638 155.066 53.2346 154.063C53.378 153.757 53.4263 153.753 53.726 153.647C54.223 153.838 54.4529 154.275 54.7477 154.693C53.8555 150.058 50.7658 142.165 52.6372 137.771C52.8922 137.173 53.2908 136.575 53.9353 136.357C54.5319 136.155 55.1793 136.314 55.7284 136.58C58.4066 137.879 59.614 142.148 60.4817 144.772C62.2036 143.279 63.5739 141.472 65.046 139.744C66.2622 138.315 67.5375 136.941 68.8718 135.623C71.1172 135.209 73.0389 133.086 74.8968 131.79C78.2465 129.455 81.7135 127.861 85.7719 127.265C84.6057 121.191 85.9863 114.486 87.5509 108.608C84.9237 107.452 82.7148 106.03 80.6641 104.007C72.4898 95.943 68.1667 79.7875 66.6592 68.711C66.0818 64.4692 65.8651 60.2397 65.818 55.9619C65.3572 56.0007 64.8417 56.0402 64.385 55.9627C63.7764 55.8591 63.3713 55.572 63.0271 55.0659C63.0238 54.8047 62.9667 54.7164 63.1469 54.5015C63.6351 53.9197 64.4557 54.0186 65.1479 53.9983C64.7112 47.2037 66.7278 40.9724 68.4367 34.4984ZM41.6261 265.807C42.1198 267.389 42.6722 268.959 43.1085 270.558C48.4793 270.623 53.8491 270.572 59.2177 270.405C62.8837 270.399 66.5573 270.027 70.2142 270.026C77.5343 270.023 84.9013 270.238 92.2179 269.973C87.8789 264.16 83.3755 258.591 79.6389 252.348C78.9711 251.232 75.6432 244.711 75.1276 244.451C72.7365 246.651 70.0078 248.464 67.3567 250.33C63.2661 253.225 59.0736 255.964 54.7792 258.547C50.4848 261.13 46.1004 263.55 41.6261 265.807Z" fill="#E0214D"/>
<path d="M159.248 131.172C166.17 133.036 165.965 139.092 169.696 143.945C171.167 145.858 172.974 147.102 174.986 148.369C175.88 148.932 176.715 149.825 177.693 150.202C179.127 151.318 180.478 152.415 181.344 154.048C177.99 151.342 173.515 150.717 170.36 148.032C166.702 144.92 166.615 139.115 163.591 135.474C162.9 134.642 161.922 133.817 160.787 133.771C160.371 133.755 160.003 133.864 159.673 134.126C158.439 135.102 156.108 139.296 155.167 140.758C151.282 146.796 147.207 152.725 143.222 158.698C141.703 160.975 138.964 165.866 137.111 167.504L136.941 167.652C137.852 164.889 139.313 162.372 140.671 159.809C142.586 156.148 144.621 152.555 146.775 149.029C148.928 145.502 151.196 142.051 153.579 138.675C155.394 136.112 157.569 133.836 159.248 131.172Z" fill="#F7F5F6"/>
<path d="M90.7734 21.3752C95.156 20.7767 103.705 22.1184 108.041 23.4327C120.166 27.1072 124.33 38.5724 128.713 49.1819C129.569 51.2538 130.268 53.6755 131.368 55.6141C131.607 56.0357 131.857 56.4844 132.347 56.6269C132.847 56.5719 133.238 56.2983 133.664 56.0504C134.012 55.8479 134.36 55.6188 134.747 55.4957C136.019 55.0912 137.609 55.2734 138.785 55.8838C140.064 56.5471 140.977 57.7251 141.392 59.0954C142.023 61.1741 141.719 63.592 140.629 65.4551C138.808 68.567 135.816 69.7347 132.51 70.6457C132.401 70.5217 132.292 70.3969 132.178 70.2765C131.645 69.7132 130.947 69.0784 130.102 69.1732C129.736 69.2141 129.515 69.4149 129.309 69.7035C128.825 70.3819 129.161 71.4857 129.325 72.2165C128.019 74.2062 126.461 76.2882 126.271 78.7417C126.034 81.8149 127.546 84.1029 129.41 86.3589C129.321 95.3638 129.232 104.446 128.247 113.405C127.646 118.871 126.774 124.319 125.894 129.747C125.417 132.69 123.937 137.125 124.281 139.934C124.341 140.42 124.449 140.697 124.826 141.007L125.196 140.961C125.658 140.578 125.873 140.15 126.08 139.589C126.716 137.871 126.963 135.837 127.277 134.032C128.066 129.499 128.619 124.938 129.316 120.392C136.869 127.947 142.514 132.448 151.909 137.574C147.235 144.432 142.896 151.496 138.89 158.765C129.685 163.95 110.388 164.716 100.178 163.118C97.3807 162.68 94.5954 161.881 91.934 160.914C88.851 159.774 85.8568 158.435 82.9515 156.897C81.0174 155.852 79.108 154.603 77.1124 153.693C76.6828 153.497 76.1664 153.291 75.6853 153.323C75.3349 153.347 75.3113 153.39 75.1029 153.644C75.104 153.997 75.193 154.224 75.3823 154.516C77.1665 157.269 90.5393 162.569 94.1155 163.674C96.3487 164.364 98.6323 164.799 100.926 165.227L101.075 165.97C101.109 166.147 101.135 166.391 101.218 166.547C101.404 166.897 101.619 166.939 101.963 167.031C102.781 166.759 103.066 166.191 103.479 165.478C106.228 165.407 109.023 165.73 111.785 165.737C120.446 165.759 128.91 164.691 137.142 161.931C136.651 163.383 135.948 164.724 135.251 166.084C131.987 167.281 128.701 168.22 125.313 168.99C118.164 170.481 110.871 170.697 103.604 170.242C103.221 169.64 102.809 168.98 102.185 168.606C101.689 168.308 101.109 168.165 100.541 168.326C99.46 168.633 98.9232 169.601 98.4295 170.516C92.6471 168.036 87.1554 165.273 81.8869 161.82C79.1863 160.051 76.8474 157.914 74.0167 156.327C74.4189 154.628 75.1841 152.992 75.6464 151.298C76.623 147.72 77.1427 143.941 78.5863 140.508C79.3065 138.796 80.3102 137.266 81.6548 135.979C85.3782 132.417 92.5762 129.732 97.3242 127.793C96.899 128.973 95.2302 132.173 95.537 133.269C95.6012 133.5 95.7278 133.502 95.9212 133.608C96.3193 133.57 96.5557 133.504 96.8793 133.257C97.5824 132.722 98.103 131.276 98.4083 130.455C100.851 123.892 101.134 116.775 101.592 109.867C108.631 108.138 114.423 102.099 118.58 96.4105C119.268 95.4683 120.633 94.0147 120.379 92.7981C120.283 92.3409 120.063 92.1292 119.681 91.893C118.206 92.0517 117.581 94.429 116.831 95.5454C116.312 96.3183 115.658 97.0329 115.047 97.7328C110.788 102.608 104.815 108.251 98.0111 108.66C97.6674 108.677 97.3235 108.687 96.9794 108.688C96.6353 108.689 96.2914 108.681 95.9477 108.666C95.604 108.65 95.2608 108.627 94.9181 108.595C94.5756 108.562 94.2339 108.522 93.8932 108.474C93.5526 108.425 93.2133 108.369 92.8753 108.304C92.5373 108.24 92.2011 108.167 91.8666 108.086C91.5321 108.005 91.1998 107.916 90.8697 107.819C90.5395 107.723 90.2118 107.618 89.8866 107.506C89.5615 107.393 89.2393 107.273 88.9199 107.145C88.6004 107.017 88.2842 106.881 87.9713 106.738C87.6584 106.595 87.3491 106.444 87.0435 106.286C86.7379 106.128 86.4362 105.963 86.1384 105.79C85.8407 105.618 85.5472 105.438 85.2581 105.252C84.969 105.065 84.6845 104.872 84.4048 104.671C84.1249 104.471 83.85 104.264 83.5801 104.051C83.3102 103.837 83.0456 103.618 82.7864 103.391C72.6994 94.4228 68.674 74.1897 67.8522 61.2772C69.5584 62.9213 71.5732 64.0587 73.9287 64.4388C76.4093 64.8386 79.7637 64.5459 81.808 62.9693C83.4662 61.6903 83.71 60.0626 83.9614 58.1226C84.3518 57.8921 84.9984 57.5988 85.2198 57.1793C85.4247 56.7909 85.3561 56.6166 85.2484 56.2256C83.6782 54.431 76.2641 53.9326 73.7547 53.909C72.2139 53.8946 68.8424 54.2326 67.536 53.7689C67.1682 53.6381 67.0746 53.4933 66.918 53.1535C66.9789 52.5988 67.2931 52.1928 67.6367 51.7717C69.5422 49.4387 72.8196 47.0373 75.9064 46.7667C79.3018 46.469 81.0624 48.7771 82.8817 51.1944C83.2919 51.7391 83.7173 52.4095 84.2576 52.8311C84.5865 53.0879 84.7458 53.1397 85.1545 53.1029C85.3824 52.8626 85.4925 52.6768 85.5328 52.34C85.6735 51.1717 84.7317 49.9162 84.0371 49.0562C82.2858 46.888 80.0399 45.0219 77.1545 44.7722C73.1605 44.4269 69.9718 46.954 67.0808 49.3474C67.2351 43.2353 71.0315 30.4278 74.9289 25.7205C78.2498 21.7097 85.9421 21.7972 90.7734 21.3752Z" fill="#F7F5F6"/>
<path d="M104.913 55.09C107.925 54.8097 111.203 54.9867 114.198 55.3282C116.712 55.6147 124.023 56.445 125.486 58.2828L125.447 58.5578C125.41 58.5832 125.375 58.6123 125.335 58.6338C124.322 59.1785 122.805 58.8956 121.731 58.6841C122.29 59.2889 123.286 60.2753 123.395 61.102C123.444 61.4786 123.393 61.5481 123.185 61.8334C122.946 61.9388 122.725 62.0542 122.455 62.0351C121.021 61.9338 119.834 58.8464 118.761 57.9298C118.401 57.6224 118.122 57.5388 117.643 57.568C117.577 57.6215 117.491 57.6572 117.444 57.7284C117.258 58.0146 117.174 59.3019 117.088 59.7105C116.954 60.3495 116.727 60.946 116.488 61.5519C116.415 61.6826 116.341 61.8127 116.265 61.942C115.164 63.824 113.429 65.1976 111.288 65.7143C111.143 65.7484 110.996 65.7789 110.849 65.8056C110.702 65.8325 110.554 65.8556 110.406 65.875C110.257 65.8945 110.109 65.9102 109.96 65.9222C109.81 65.9341 109.661 65.9425 109.512 65.9472C109.362 65.9519 109.213 65.9528 109.063 65.9498C108.913 65.9471 108.764 65.9406 108.615 65.9304C108.465 65.9202 108.317 65.9063 108.168 65.8886C108.019 65.8709 107.871 65.8496 107.724 65.8247C107.576 65.7998 107.43 65.7711 107.284 65.7387C107.137 65.7065 106.992 65.6706 106.848 65.631C106.704 65.5915 106.561 65.5485 106.418 65.502C106.276 65.4553 106.135 65.4051 105.996 65.3515C105.856 65.298 105.718 65.2408 105.581 65.1802C105.444 65.1197 105.309 65.0559 105.175 64.9888C105.042 64.9215 104.91 64.8509 104.78 64.7771C104.65 64.7033 104.521 64.6264 104.395 64.5463C101.676 62.8427 100.711 60.3471 100.007 57.3816C98.2778 57.6404 96.1729 57.994 94.4534 57.59C94.1422 57.3371 94.1395 57.3483 94.0674 56.9555C94.1498 56.7809 94.1531 56.7483 94.2953 56.5857C95.4659 55.2461 102.891 55.1878 104.913 55.09Z" fill="#E0214D"/>
<path d="M103.54 57.0261C105.289 56.8977 107.039 56.8692 108.791 56.9407C108.359 63.233 111.184 60.9417 112.014 63.1187C111.549 63.7055 110.734 63.8121 110.028 63.9573C108.443 64.0438 106.909 63.8351 105.525 62.9956C103.313 61.6533 102.326 59.501 101.719 57.1035L103.54 57.0261Z" fill="#F7F5F6"/>
<path d="M110.745 56.8114C111.445 56.7967 112.717 56.6631 113.246 57.1592C113.152 57.4565 113.215 57.3888 113.026 57.5796C112.697 57.9106 112.168 58.2951 111.951 58.7102C111.761 59.0733 111.808 59.1746 111.928 59.5314C112.29 59.91 112.685 60.0372 113.168 60.2201C113.306 60.3328 113.227 60.2481 113.32 60.5322L113.118 60.7727C112.737 60.899 112.409 60.937 112.022 60.8098C111.49 60.6349 110.913 60.2127 110.653 59.7092C110.208 58.8457 110.454 57.6833 110.745 56.8114Z" fill="#F7F5F6"/>
<path d="M87.2999 51.3252C87.5814 51.4153 87.8731 51.5195 88.1358 51.6576C88.8816 52.0498 88.6984 53.2222 88.5765 53.9156C87.3626 60.813 84.0891 77.3241 85.987 83.649C87.7492 83.2006 89.7554 82.4174 90.9076 80.9453C91.4525 80.249 91.8912 79.4349 92.5054 78.7983C92.965 78.3216 93.3484 78.0231 94.0218 78.0216C94.3109 78.2736 94.4033 78.3608 94.5235 78.7397C94.6963 79.2853 94.5556 79.6436 94.29 80.1259C93.1211 81.8162 91.6952 83.2168 89.9362 84.2877C88.7508 85.0093 87.0855 85.8646 85.6764 85.4692C84.9026 85.2522 84.3332 84.6769 83.9649 83.98C82.044 80.3426 84.4112 67.5693 85.0837 63.1943C85.6982 59.1965 86.0868 55.202 87.2999 51.3252Z" fill="#E0214D"/>
<path d="M107.799 45.927C110.968 45.7998 114.251 46.5427 116.958 48.2359C117.837 48.7856 119.373 49.8747 119.579 50.9179C119.654 51.301 119.583 51.5766 119.377 51.9031C119.071 52.0344 118.967 52.1271 118.637 51.9861C118.146 51.7759 117.561 51.1994 117.121 50.8755C115.897 49.9754 114.814 49.3244 113.394 48.7736C106.308 46.1887 103.449 50.8119 101.557 50.5655C101.157 50.2554 101.05 50.2042 100.865 49.7155C100.896 49.4455 100.929 49.2697 101.078 49.0347C102.047 47.5063 106.125 46.338 107.799 45.927Z" fill="#E0214D"/>
<path d="M97.6284 87.1895C97.7924 87.2136 98.0324 87.233 98.1887 87.3043C98.5361 87.4624 98.8306 87.7262 98.9563 88.0951C99.1651 88.7075 98.7352 89.5046 98.4307 90.0086C97.3051 91.8706 95.79 93.1564 93.6654 93.6702C92.3593 93.3357 91.6568 92.9267 90.7043 92.0084C90.1914 91.2653 89.922 90.3961 90.0712 89.4978C90.2193 89.3256 90.2606 89.1875 90.5029 89.1604C91.9291 89.0011 92.0766 90.6785 92.9369 91.3901C93.2832 91.5214 93.5182 91.5588 93.875 91.4714C95.8827 90.9803 96.64 88.7735 97.6284 87.1895Z" fill="#E0214D"/>
<path d="M134.397 59.8516C134.959 59.9119 135.499 59.9705 135.933 60.3686C136.371 60.7708 136.595 61.3302 136.612 61.9196C136.644 62.9613 136.139 63.8797 135.457 64.6249C134.883 64.4865 134.416 64.3999 134.063 63.8968C134.047 63.3041 134.488 62.6999 134.767 62.1908C134.369 61.8396 134.026 61.5852 133.854 61.0705C133.858 60.5712 134.131 60.2493 134.397 59.8516Z" fill="#E0214D"/>
<path d="M95.2684 96.0083C95.6947 95.9152 95.9639 95.9043 96.3967 95.9629C96.7149 96.2011 96.7041 96.1811 96.7741 96.5721C96.6961 96.8009 96.6131 96.9834 96.4529 97.1683C95.6862 98.0537 94.8103 98.2506 93.6811 98.3025C92.8129 98.1058 92.3241 97.7613 91.7511 97.0912C91.7232 96.9048 91.6472 96.8026 91.7915 96.6501C92.3532 96.0563 94.4278 96.1034 95.2684 96.0083Z" fill="#E0214D"/>
<path d="M132.461 64.6592C132.577 64.668 132.693 64.6793 132.809 64.693C133.724 64.802 135.031 65.127 135.582 65.9361C135.852 66.3327 135.804 66.656 135.754 67.1041C135.257 67.0788 134.763 67.0253 134.271 66.9437C133.576 66.8212 132.883 66.6407 132.496 65.9947C132.242 65.5687 132.373 65.1135 132.461 64.6592Z" fill="#E0214D"/>
<path d="M29.3774 196.454L29.5428 196.626C30.1061 200.146 22.6078 206.031 20.5488 208.996C20.0144 209.765 19.2663 211.036 19.5422 212.014C20.1355 214.119 24.4674 213.133 25.9985 212.766C27.6935 212.359 29.3924 211.866 31.1024 211.536C38.4317 210.123 47.7884 209.72 54.8363 212.239C58.047 213.386 60.8851 215.512 64.183 216.389C65 216.606 65.8851 216.78 66.7322 216.8C68.5202 216.843 70.7249 216.271 72.349 217.189C72.5863 217.529 72.6061 217.537 72.5881 217.947L72.4094 217.917C72.0225 218.598 58.5158 222.394 56.7056 222.962C56.1262 221.21 55.4637 219.4 54.5109 217.812C54.1647 217.236 53.7148 216.503 53.0243 216.326L52.7794 216.524C52.4025 218.578 54.5969 221.511 55.658 223.194C50.6635 224.815 45.7128 226.56 40.806 228.429C42.6312 227.034 44.8126 226.125 46.573 224.655C46.0793 222.975 42.4822 214.198 41.3772 213.544C41.1231 213.394 41.2365 213.435 40.9029 213.516C40.7928 213.683 40.7674 213.705 40.6871 213.912C40.0764 215.483 42.7781 220.534 43.516 222.091C38.6605 219.484 33.9502 218.541 28.4549 219.282C25.6072 219.666 19.3741 220.994 17.5194 223.409L17.5919 223.626C19.3585 223.748 21.7083 222.713 23.4246 222.225C27.7003 221.011 34.2476 220.009 38.4473 221.929L38.4903 222.098C38.2094 222.263 37.9783 222.412 37.7454 222.641C37.7887 222.802 37.8222 222.963 37.9112 223.108C38.5498 224.144 41.7238 224.374 42.9021 224.546C41.563 225.629 38.3711 227.26 37.9842 229.055C37.8906 229.489 37.9627 229.596 38.1517 229.973C38.2291 230.03 38.306 230.088 38.3846 230.143C39.6012 231.001 42.9524 229.532 44.2779 229.068C54.6069 225.454 65.2076 222.51 75.6988 219.405C83.6016 217.066 91.548 214.169 99.7364 213.027C107.641 211.924 114.99 213.159 121.427 218.084C122.199 218.677 122.925 219.32 123.607 220.015C124.288 220.709 124.918 221.447 125.497 222.229C127.641 225.187 130.166 231.006 130.602 234.612C130.687 235.321 130.768 236.042 130.313 236.63C128.591 236.701 124.773 228.502 123.454 226.858C121.679 224.645 118.98 222.248 116.5 220.851C115.849 220.484 115.092 220.078 114.333 220.297C114.099 220.609 114.072 220.667 114.121 221.08C114.239 222.07 115.214 222.722 115.922 223.298C117.38 224.727 118.69 226.589 119.493 228.469C120.832 231.607 120.755 235.363 119.454 238.501C118.974 239.661 118.133 240.871 116.94 241.361C116.736 241.341 116.556 241.378 116.402 241.224C115.496 240.315 116.553 238.115 116.613 236.99C116.83 232.934 115.053 228.28 112.292 225.309C111.843 224.827 111.18 224.154 110.464 224.18C110.219 224.189 110.162 224.318 109.994 224.475C109.535 226.226 111.759 228.569 112.586 230.015C113.217 231.118 113.745 232.338 113.986 233.59C114.237 234.889 114.195 239.342 113.41 240.404C113.146 240.761 112.853 240.909 112.426 240.974C110.938 240.389 111.12 237.093 110.825 235.826C110.649 235.071 109.903 234.463 109.653 233.723C109.458 233.146 109.439 232.491 109.302 231.895C108.88 230.069 107.785 227.973 106.399 226.702C105.988 226.324 105.628 226.038 105.055 226.061C104.005 227.738 107.471 231.123 107.387 233.895C107.327 235.842 106.376 239.207 104.889 240.54C104.421 240.959 103.734 241.381 103.084 241.317C102.822 241.292 102.787 241.171 102.62 240.992C102.25 239.645 103.008 238.175 103.177 236.832C103.281 236.011 103.186 235.038 102.63 234.38C99.2424 230.376 90.8302 235.114 87.0373 236.359C85.8257 236.756 84.535 237.016 83.2601 237.076C79.8782 237.234 79.0621 235.185 76.6948 234.992L76.4572 235.203C76.4031 235.488 76.3813 235.685 76.4431 235.975C76.6595 236.986 78.4561 237.812 79.274 238.266C77.4032 240.275 75.1199 241.947 72.9717 243.651C63.2411 251.366 52.4249 258.332 41.2141 263.709C39.2956 262.35 37.998 260.221 37.095 258.092C34.7395 252.54 35.0805 245.451 36.8197 239.773C37.2861 238.251 37.958 236.789 38.5492 235.313C38.8348 234.599 39.3736 233.438 39.0624 232.713C38.7238 232.701 38.664 232.731 38.3943 232.952C36.906 234.168 35.145 240.664 34.7708 242.513C34.4494 244.096 34.2396 245.694 34.1413 247.306C33.7308 253.894 34.6106 259.686 39.0815 264.76C38.5955 264.983 38.1041 265.194 37.6073 265.393C37.1107 265.591 36.6094 265.778 36.1034 265.951C35.5973 266.125 35.0873 266.286 34.5732 266.434C34.0591 266.582 33.5417 266.717 33.021 266.839C32.5002 266.962 31.9766 267.071 31.4502 267.167C30.9239 267.263 30.3956 267.345 29.8652 267.415C29.3349 267.484 28.803 267.54 28.2697 267.583C27.7364 267.626 27.2024 267.656 26.6677 267.672C22.6458 267.757 19.1685 266.546 16.2507 263.74C10.5694 258.276 8.79838 248.735 8.63203 241.103C8.43417 232.023 11.9361 224.472 15.6098 216.442C17.0984 213.188 18.4737 209.872 20.4799 206.891C23.0182 203.121 26.2375 199.721 29.3774 196.454Z" fill="#F7F5F6"/>
<path d="M37.6371 225.675C37.8078 225.795 37.9389 225.979 38.0767 226.135C38.0931 226.267 38.1547 226.401 38.1258 226.531C37.9327 227.398 36.0342 229.693 35.4757 230.579C34.7234 231.774 33.9576 233.061 33.4273 234.373C31.0633 240.224 29.4746 246.619 28.4399 252.834C27.9859 255.563 27.9659 258.468 27.1697 261.125C25.7356 259.122 26.772 253.643 27.1206 251.198C28.2262 243.44 31.2241 230.493 37.6371 225.675Z" fill="#E0214D"/>
<path d="M28.7376 228.533C29.063 228.694 29.2547 228.798 29.4767 229.088C29.6669 230.592 25.7212 235.228 24.739 236.805C22.2702 240.769 20.4023 245.132 18.6554 249.45L18.4375 249.469C18.0939 249.267 18.0495 249.238 17.9641 248.819C17.8001 248.013 18.3383 246.611 18.6024 245.832C20.7665 239.454 24.6889 233.848 28.7376 228.533Z" fill="#E0214D"/>
<path d="M31.6469 229.25C31.936 229.313 32.0429 229.4 32.2528 229.606C32.5926 230.992 30.412 233.978 29.7719 235.283C26.883 241.174 25.7111 247.419 24.1671 253.735C24.1033 253.929 24.1574 253.819 23.9528 254.033C23.7517 253.709 23.7567 253.395 23.7405 253.023C23.611 250.093 27.4383 236.647 28.7776 233.663C29.5208 232.007 30.4244 230.589 31.6469 229.25Z" fill="#E0214D"/>
<path d="M27.6222 225.589C27.8063 225.681 28.0527 225.781 28.2076 225.915C28.5247 226.188 28.5088 226.303 28.5361 226.692C27.5086 228.919 18.3562 236.419 16.0278 237.978C15.7923 237.982 15.6088 237.937 15.3807 237.886L15.2432 237.648C15.6742 236.368 25.959 227.274 27.6222 225.589Z" fill="#E0214D"/>
<path d="M26.5996 224C26.8286 224.017 27.0497 224.05 27.2667 224.132C27.6489 224.278 27.8244 224.456 27.951 224.822C27.0639 226.03 24.389 227.369 23.1094 228.325C20.6674 230.149 18.3929 232.156 15.887 233.904L14.7949 234.596C18.2716 230.374 22.0515 227.031 26.5996 224Z" fill="#E0214D"/>
<path d="M106.906 216.328C107.615 216.354 108.373 216.487 109.055 216.679C109.66 216.85 110.306 217.163 110.571 217.772C110.766 218.22 110.567 218.615 110.4 219.033C110.103 219.098 109.845 219.107 109.543 219.079C108.621 218.992 107.755 218.723 107.172 217.965C106.749 217.416 106.833 216.982 106.906 216.328Z" fill="#E0214D"/>
<path d="M43.7189 213.81C43.7716 213.829 43.8258 213.845 43.8768 213.868C45.2035 214.484 47.1276 217.759 47.5863 219.045C46.2587 218.052 44.6373 216.51 43.8188 215.067C43.5326 214.564 43.5667 214.334 43.7189 213.81Z" fill="#E0214D"/>
<path d="M106.44 220.288C106.472 220.283 106.504 220.278 106.537 220.276C106.57 220.273 106.603 220.272 106.635 220.273C106.668 220.273 106.701 220.276 106.733 220.279C106.766 220.283 106.799 220.289 106.831 220.296C106.863 220.303 106.894 220.311 106.925 220.321C106.957 220.331 106.987 220.343 107.018 220.356C107.048 220.369 107.077 220.384 107.106 220.4C107.134 220.416 107.162 220.433 107.189 220.452C107.216 220.47 107.242 220.49 107.267 220.511C107.292 220.533 107.316 220.555 107.339 220.579C107.362 220.602 107.383 220.627 107.404 220.652C107.424 220.678 107.443 220.705 107.461 220.733C107.479 220.76 107.495 220.788 107.51 220.818C107.526 220.847 107.539 220.876 107.551 220.907C107.563 220.938 107.574 220.969 107.583 221C107.592 221.032 107.6 221.064 107.605 221.096C107.611 221.128 107.616 221.161 107.618 221.193C107.621 221.226 107.623 221.259 107.622 221.292C107.622 221.324 107.62 221.357 107.616 221.39C107.612 221.422 107.607 221.455 107.6 221.487C107.594 221.519 107.585 221.551 107.575 221.582C107.565 221.613 107.554 221.644 107.541 221.674C107.528 221.704 107.514 221.734 107.498 221.762C107.482 221.791 107.465 221.819 107.447 221.846C107.428 221.873 107.408 221.9 107.387 221.925C107.366 221.95 107.344 221.974 107.32 221.997C107.297 222.02 107.273 222.042 107.247 222.062C107.221 222.083 107.195 222.102 107.167 222.12C107.14 222.138 107.112 222.155 107.083 222.17C107.054 222.185 107.024 222.199 106.993 222.211C106.963 222.223 106.932 222.234 106.901 222.243C106.869 222.253 106.837 222.26 106.805 222.267C106.772 222.273 106.74 222.277 106.707 222.28C106.674 222.283 106.641 222.285 106.608 222.284C106.575 222.284 106.542 222.282 106.509 222.279C106.476 222.275 106.443 222.27 106.411 222.263C106.379 222.256 106.347 222.248 106.315 222.238C106.284 222.228 106.253 222.217 106.222 222.204C106.192 222.191 106.162 222.176 106.133 222.161C106.104 222.145 106.076 222.127 106.049 222.109C106.021 222.09 105.995 222.07 105.97 222.049C105.944 222.028 105.92 222.005 105.897 221.981C105.874 221.958 105.852 221.933 105.831 221.907C105.811 221.882 105.791 221.855 105.773 221.827C105.755 221.799 105.739 221.771 105.723 221.742C105.708 221.712 105.694 221.682 105.682 221.651C105.67 221.621 105.659 221.589 105.65 221.558C105.641 221.526 105.633 221.494 105.627 221.461C105.621 221.429 105.617 221.396 105.614 221.363C105.611 221.33 105.61 221.297 105.61 221.264C105.611 221.231 105.613 221.198 105.617 221.165C105.621 221.132 105.626 221.1 105.633 221.067C105.64 221.035 105.648 221.003 105.658 220.972C105.668 220.94 105.68 220.909 105.693 220.879C105.706 220.848 105.721 220.819 105.737 220.79C105.753 220.761 105.771 220.733 105.789 220.706C105.808 220.679 105.828 220.652 105.85 220.627C105.871 220.602 105.894 220.578 105.918 220.555C105.941 220.532 105.966 220.51 105.992 220.49C106.018 220.469 106.045 220.45 106.073 220.432C106.101 220.414 106.129 220.398 106.159 220.383C106.188 220.368 106.218 220.354 106.249 220.342C106.28 220.33 106.311 220.319 106.343 220.311C106.375 220.302 106.407 220.294 106.44 220.288Z" fill="#E0214D"/>
<path d="M131.584 230.543C133.201 231.108 134.754 232.605 135.984 233.75C141.458 238.844 151.906 253.502 158.954 253.826C160.241 253.886 161.067 253.505 161.99 252.643C162.915 254.148 163.945 255.419 165.331 256.528C167.786 258.494 170.741 259.651 173.913 259.257C175.166 259.101 176.409 258.7 177.176 257.633C178.074 256.384 177.706 254.955 177.452 253.572C178.862 254.338 180.304 255.092 181.958 254.648C186.435 253.446 188.026 244.311 190.166 240.642L190.278 240.452C190.473 245.88 190.088 251.291 189.937 256.714C189.837 260.296 190.099 264.07 189.441 267.606L130.611 269.249C125.013 269.287 119.429 269.587 113.834 269.727C107.382 269.844 100.928 269.923 94.4749 269.965C91.2353 265.131 87.4357 260.688 84.151 255.882C81.4172 251.882 79.2393 247.547 76.5176 243.536C78.3183 242.033 80.0672 240.46 81.8265 238.908C83.5966 238.863 85.2463 238.761 86.946 238.239C90.9173 237.019 95.8461 233.36 100.123 234.956C102.595 235.878 99.346 239.938 100.359 241.934C100.717 242.637 101.484 243.136 102.215 243.377C103.205 243.704 104.297 243.574 105.209 243.082C107.406 241.896 108.077 239.594 108.686 237.364C108.875 238.702 109.046 240.045 109.722 241.245C110.151 242.004 110.783 242.688 111.656 242.907C112.65 243.157 113.576 242.795 114.411 242.274C115.414 242.965 116.389 243.407 117.536 243.798C118.279 243.401 119.003 242.92 119.61 242.331C122.456 239.573 122.613 235.276 122.616 231.573C124.258 233.627 125.757 236.17 127.802 237.838C128.511 238.416 129.358 238.857 130.297 238.725C131.473 238.559 132.092 237.71 132.759 236.83C132.856 234.634 132.214 232.615 131.584 230.543Z" fill="#F7F5F6"/>
<path d="M126.297 240.472C128.756 240.863 130.336 243.298 132.141 244.788C133.113 245.59 134.261 246.25 135.319 246.939C141.657 251.065 148.121 254.912 154.624 258.771C156.351 259.795 158.236 260.618 159.919 261.681C160.395 261.982 160.853 262.341 161.208 262.781C161.489 263.128 161.621 263.409 161.563 263.851C161.45 263.926 161.385 263.981 161.241 264.012C158.948 264.507 149.795 258.371 147.428 256.943C144.251 254.998 141.023 253.159 137.829 251.244C139.669 253.357 141.253 255.683 143.088 257.799C144.009 258.862 145.107 259.753 146.073 260.774C146.667 261.401 147.26 262.098 147.24 262.998C147.028 263.358 146.993 263.405 146.625 263.6C146.272 263.587 146.026 263.531 145.726 263.334C144.688 262.656 143.908 261.521 143.072 260.621C140.355 257.7 137.828 254.622 135.493 251.387C134.21 249.624 133.046 247.621 131.615 245.986C130.303 244.487 126.64 242.277 126.297 240.472Z" fill="#E0214D"/>
<path d="M126.928 247.842C126.983 247.841 127.039 247.838 127.095 247.839C128.378 247.859 129.314 248.819 130.161 249.689C132.553 252.143 139.427 260.759 140.755 263.643C140.919 264 140.929 264.308 140.925 264.696C140.686 264.671 140.519 264.63 140.307 264.508C139.352 263.959 137.293 260.74 136.527 259.736C134.594 257.201 132.621 254.655 130.527 252.251C129.488 251.06 128.125 249.957 127.221 248.679C127.04 248.422 126.988 248.144 126.928 247.842Z" fill="#E0214D"/>
<path d="M121.418 247.26C121.733 247.365 121.955 247.427 122.188 247.678C123.229 248.797 126.838 258.175 127.347 260.03C127.459 260.437 127.473 260.813 127.44 261.231C127.023 261.038 126.786 260.841 126.519 260.465C124.948 258.252 120.948 249.767 121.418 247.26Z" fill="#E0214D"/>
<path d="M135.669 237.022C136.389 237.165 136.741 237.417 137.253 237.933C138.349 239.038 142.432 244.744 143.04 246.029C143.17 246.304 143.171 246.622 143.169 246.919C142.975 246.897 142.782 246.88 142.6 246.801C141.278 246.221 136.348 238.603 135.669 237.022Z" fill="#E0214D"/>
<path d="M73.6883 156.859C73.7881 157.172 73.8885 157.489 74.0257 157.788C74.5851 159.004 76.2937 160.182 77.3245 160.989C83.5947 165.9 90.3496 169.389 97.7875 172.178C97.0482 174.801 96.0295 179.313 96.4158 181.943C96.5058 182.557 96.7046 183 97.2316 183.348C98.498 184.186 101.456 184.501 102.937 184.143C103.424 184.026 103.821 183.81 104.085 183.363C105.288 181.322 104.679 174.474 104.15 172.21C115.022 172.348 123.71 171.965 134.169 168.705C130.344 176.105 126.559 183.525 122.816 190.966C120.772 194.967 118.902 199.05 116.969 203.104C115.592 205.992 114.085 208.781 112.925 211.769C107.728 210.607 102.645 210.278 97.4077 211.441C96.5509 210.231 95.3941 209.172 94.3618 208.107C92.1871 205.826 89.9421 203.615 87.6267 201.477C87.6891 201.384 87.7498 201.289 87.8151 201.198C88.0819 200.827 88.3342 200.525 88.4455 200.069C88.6955 199.046 88.4411 197.842 87.8416 196.985C87.4032 196.358 86.7428 195.856 85.9732 195.738C84.7307 195.547 83.9654 196.198 83.0459 196.909C80.5889 194.232 77.1505 190.984 76.42 187.312C76.1527 185.969 76.2861 184.587 76.3402 183.229C76.4362 180.821 76.3355 178.367 75.8727 175.998C74.8787 170.913 73.1424 166.91 68.7695 163.979C68.9012 163.933 69.0323 163.885 69.1626 163.834C71.4936 162.921 72.7688 159.006 73.6883 156.859Z" fill="#F7F5F6"/>
<path d="M54.4875 138.089C55.5489 138.569 56.1172 139.295 56.7052 140.269C58.2427 142.817 59.0156 145.811 60.1538 148.551C61.5338 151.873 63.2086 155.084 64.295 158.523C65.0487 160.909 67.61 170.465 68.478 171.788C68.6703 172.081 68.9067 172.253 69.2715 172.268C69.6489 172.282 69.7382 172.117 69.9557 171.86C70.39 170.19 69.4019 167.951 68.8652 166.355C73.5728 170.939 73.8269 177.119 74.1152 183.279C74.2179 185.471 74.2706 187.595 75.1551 189.643C76.5378 192.842 79.2118 195.497 81.4945 198.082C80.7349 198.435 79.9543 198.766 79.4579 199.478C79.0231 200.103 78.8694 200.86 79.0445 201.601C79.2754 202.579 79.9723 203.439 80.8447 203.923C81.5746 204.329 82.4264 204.481 83.2299 204.208C84.4126 203.806 84.8357 202.924 85.3607 201.887C88.7708 205.036 91.7125 208.683 95.2303 211.711C92.4532 212.446 89.6514 213.035 86.8932 213.858C82.8271 215.07 78.8608 216.514 74.7311 217.522C73.5834 215.909 72.7684 214.061 71.904 212.287C72.6195 212.265 73.3364 212.195 74.0095 211.933C75.2835 211.439 75.7896 210.435 76.3267 209.271C76.801 209.176 77.2862 209.079 77.7405 208.911C78.4457 208.649 79.2171 208.088 79.5083 207.37C79.8595 206.505 79.6331 205.752 79.2754 204.938C79.113 204.734 78.9459 204.534 78.774 204.338C78.1389 203.62 76.8284 202.481 75.797 202.514C73.9585 202.571 73.6435 204.655 72.6654 205.773C71.6258 205.724 70.8541 206.146 69.984 206.648C67.8897 204.429 66.5194 201.646 64.4284 199.454C63.341 198.314 61.8712 197.755 60.6022 196.859C59.368 195.988 58.2515 194.833 57.1921 193.756C56.2588 192.81 55.3654 191.827 54.5119 190.808C53.6585 189.789 52.8479 188.736 52.0802 187.651C51.3125 186.566 50.5902 185.452 49.9132 184.308C49.2364 183.164 48.6071 181.994 48.0253 180.799C46.9736 178.606 46.1286 176.315 45.0327 174.143C44.1079 172.312 42.8366 170.72 41.8723 168.924C41.2843 167.828 40.6445 166.277 41.0997 165.038C41.2042 164.753 41.4186 164.486 41.703 164.376C44.2869 163.37 46.408 169.742 48.4458 170.43C48.8076 170.552 49.0196 170.523 49.3617 170.378C49.945 169.344 47.2931 165.021 46.9492 163.313C46.7993 162.568 46.7566 161.727 47.2407 161.09C47.4912 160.76 47.7218 160.679 48.111 160.616C50.4193 161.378 51.7234 166.119 52.8914 168.046C53.1387 168.454 53.3869 168.713 53.8698 168.817C54.1766 168.677 54.3008 168.644 54.4112 168.291C54.6889 167.403 54.0223 166.095 53.6301 165.307C53.1134 164.269 52.4692 162.803 52.9167 161.65C53.071 161.253 53.3763 160.902 53.7982 160.785C56.4228 160.061 57.0408 165.42 58.5162 166.111C58.7155 166.204 58.8339 166.106 59.0276 166.042C59.2906 165.687 59.4239 165.545 59.4027 165.096C59.3409 163.783 58.5639 162.375 58.2132 161.094C57.6444 159.014 57.1409 156.919 56.5618 154.841C55.1252 149.687 52.8407 143.379 54.4875 138.089Z" fill="#F7F5F6"/>
<path d="M68.7941 254.708C69.0818 254.786 69.3689 254.847 69.608 255.036C71.2512 256.338 72.1351 259.901 72.3665 261.896C71.9039 261.802 71.5736 261.6 71.2621 261.251C70.0104 259.852 68.697 256.566 68.7941 254.708Z" fill="#E0214D"/>
<path d="M64.9338 256.175C65.3039 256.316 65.6472 256.454 65.9163 256.76C67.2774 258.31 67.6499 260.582 67.5309 262.565C67.238 262.446 67.013 262.334 66.8155 262.077C65.8115 260.774 64.7365 257.801 64.9338 256.175Z" fill="#E0214D"/>
<path d="M73.7135 256.868C74.116 257.025 74.3913 257.206 74.681 257.528C75.7645 258.731 76.467 260.408 76.3919 262.027C76.3213 262.005 76.2497 261.986 76.1806 261.961C75.312 261.641 74.7134 260.522 74.3209 259.724C73.9014 258.871 73.407 257.807 73.7135 256.868Z" fill="#E0214D"/>
<path d="M134.842 71.832C135.945 71.8465 137.015 72.1965 137.955 72.7672C139.456 73.6781 140.466 75.1747 140.856 76.8771C140.883 77 140.907 77.1236 140.928 77.2478C140.949 77.3719 140.967 77.4964 140.981 77.6214C140.996 77.7465 141.008 77.8717 141.016 77.9971C141.025 78.1228 141.03 78.2485 141.033 78.3743C141.035 78.5001 141.034 78.6259 141.031 78.7518C141.027 78.8776 141.02 79.0032 141.01 79.1286C141 79.2541 140.987 79.3792 140.971 79.504C140.955 79.6289 140.935 79.7532 140.913 79.8771C140.891 80.0009 140.866 80.1242 140.837 80.2469C140.809 80.3696 140.778 80.4915 140.744 80.6126C140.709 80.7337 140.672 80.8539 140.632 80.9732C140.592 81.0924 140.549 81.2106 140.503 81.3277C140.457 81.4449 140.408 81.5609 140.356 81.6758C140.305 81.7904 140.25 81.9037 140.193 82.0158C140.136 82.1279 140.076 82.2385 140.013 82.3476C139.95 82.4568 139.885 82.5644 139.817 82.6703C138.564 84.6404 136.8 85.6235 134.575 86.1016C133.455 86.0772 132.35 85.8334 131.364 85.2905C129.925 84.4979 128.97 83.1573 128.533 81.5886C127.98 79.5985 128.185 77.4742 129.214 75.6714C130.486 73.4426 132.491 72.4836 134.842 71.832Z" fill="#F7F5F6"/>
<path d="M134.817 74.0322C135.501 73.9229 136.212 74.054 136.832 74.3613C138.177 75.0271 138.644 76.5675 139.075 77.8845C138.843 78.8932 138.598 79.9299 138.119 80.8547C137.321 82.397 136.128 83.0968 134.539 83.6203C133.724 83.6972 133.046 83.5673 132.314 83.1908C131.473 82.7585 130.934 82.026 130.648 81.1345C130.593 80.9639 130.546 80.7909 130.508 80.6157C130.47 80.4404 130.441 80.2636 130.42 80.0854C130.4 79.9072 130.388 79.7284 130.385 79.5492C130.383 79.3698 130.389 79.1907 130.404 79.0119C130.419 78.8333 130.444 78.6558 130.476 78.4796C130.509 78.3031 130.551 78.1288 130.601 77.9567C130.651 77.7845 130.71 77.6153 130.777 77.4491C130.844 77.2826 130.92 77.12 131.003 76.9612C131.846 75.3577 133.135 74.5354 134.817 74.0322Z" fill="#E0214D"/>
<path d="M86.2185 129.134C87.0138 129.1 87.8453 129.228 88.6388 129.298C75.8863 133.818 76.378 140.928 73.058 152.143C72.2507 154.871 71.2779 157.453 69.5352 159.723L70.8566 154.705C71.8956 150.803 72.3593 146.72 73.6678 142.886C74.1209 141.558 74.9115 140.319 75.473 139.03C75.7639 138.362 76.1896 137.363 75.8086 136.65C75.6484 136.35 75.2863 136.061 74.9503 135.979C73.6019 135.65 71.8379 137.598 70.6973 138.176C70.3619 138.346 70.1932 138.359 69.852 138.227L69.7377 137.941C70.3663 137.21 71.5358 136.719 72.3255 136.103C76.6781 132.707 80.5551 129.824 86.2185 129.134Z" fill="#F7F5F6"/>
<path d="M172.85 177.494C173.04 177.594 172.942 177.515 173.076 177.796C172.541 178.863 168.167 182.439 167.039 183.441C160.101 189.602 153.211 195.541 146.459 201.94C144.138 204.14 141.837 206.362 139.555 208.604C138.026 210.125 136.571 211.923 134.804 213.163C134.507 212.791 134.199 212.445 134.312 211.93C134.742 209.963 163.959 184.281 168.26 180.771C169.723 179.578 171.226 178.461 172.85 177.494Z" fill="#F7F5F6"/>
<path d="M70.2691 55.9755C72.1205 55.9463 73.9645 56.0052 75.8144 56.067C75.5883 57.0887 75.3121 58.1275 75.5359 59.1756C75.8836 60.8068 77.2807 61.6436 78.5786 62.4815L76.6059 62.6773C74.5587 62.7073 72.5489 62.4226 70.78 61.3129C68.8841 60.1237 68.0753 58.3821 67.6201 56.2811C68.5005 56.0897 69.3729 56.0346 70.2691 55.9755Z" fill="#F7F5F6"/>
<path d="M141.122 128.63C143.136 128.935 145.118 129.574 147.103 130.035C150.194 130.728 153.294 131.38 156.402 131.992L154.487 134.291L153.033 136.057C149.013 133.758 144.672 131.635 141.122 128.63Z" fill="#F7F5F6"/>
<path d="M172.477 192.938C172.542 192.984 172.614 193.022 172.673 193.075C172.967 193.34 173.047 193.646 173.071 194.015C171.654 195.938 155.536 204.472 152.565 205.982C152.309 206.037 152.446 206.047 152.163 205.893C152.089 205.697 151.958 205.512 152.024 205.301C152.243 204.609 153.205 204.037 153.799 203.655C155.285 202.7 156.929 201.993 158.471 201.131C163.174 198.499 167.961 195.877 172.477 192.938Z" fill="#F7F5F6"/>
<path d="M99.5044 173.282C99.9843 173.647 100.354 174.192 100.737 174.658C101.364 174.348 101.971 173.978 102.581 173.636C103.175 176.28 102.835 179.23 102.566 181.907C101.539 181.971 100.263 182.114 99.2547 181.894C99.0286 181.844 98.7389 181.774 98.6235 181.558C97.8853 180.179 99.0457 174.834 99.5044 173.282Z" fill="#F7F5F6"/>
<path d="M39.4455 184.165C39.4655 184.173 39.4859 184.179 39.5053 184.188C40.4045 184.606 40.1642 184.979 40.1427 185.852C40.0697 188.793 40.7955 191.017 42.4075 193.475C43.3991 194.987 44.5845 196.226 45.8936 197.463C46.9123 198.425 51.4795 201.616 51.7878 202.546C51.857 202.754 51.7168 202.866 51.6161 203.039C47.2285 200.805 42.5447 196.448 40.3624 192.033C39.0563 189.391 38.4701 187.024 39.4455 184.165Z" fill="#F7F5F6"/>
<path d="M128.385 12.5367L129.109 12.4893L129.212 12.6407C127.981 13.3025 126.113 13.4868 124.751 13.8811C120.136 15.2172 117.038 18.3299 114.063 21.9208C113.842 22.0065 113.726 22.0592 113.484 22.0153C113.261 21.9753 113.336 21.9882 113.184 21.7718C113.339 21.1279 113.792 20.527 114.195 20.007C117.72 15.463 122.758 13.2309 128.385 12.5367Z" fill="#F7F5F6"/>
<path d="M102.721 4.0957L102.81 4.16854L102.725 4.36699C99.2288 6.90054 96.8224 10.174 95.2042 14.1748C94.6289 15.5975 94.1917 17.07 93.576 18.4774L93.4963 18.6564C93.4118 18.4968 93.3585 18.4102 93.2957 18.2518C92.8341 17.0841 93.5413 15.2039 94.0047 14.0835C95.6951 9.99729 98.4978 5.82761 102.721 4.0957Z" fill="#F7F5F6"/>
<path d="M110.531 5.88086L110.612 5.95541C110.447 6.2032 110.511 6.17161 110.306 6.30186C106.033 9.0152 103.961 10.6638 101.335 15.1587C100.673 16.2932 100.115 17.4833 99.4338 18.6071C99.3569 18.4637 99.311 18.3872 99.2504 18.2282C98.9727 17.5024 99.46 16.3459 99.7765 15.6728C99.9088 15.3913 100.048 15.1133 100.194 14.8387C100.34 14.5641 100.493 14.2932 100.652 14.0261C100.811 13.759 100.977 13.4959 101.149 13.2369C101.321 12.9779 101.5 12.7233 101.684 12.4731C101.869 12.2229 102.06 11.9773 102.257 11.7365C102.453 11.4956 102.656 11.2597 102.864 11.0288C103.072 10.7979 103.286 10.5722 103.506 10.3518C103.725 10.1314 103.95 9.91652 104.18 9.70714C104.41 9.49776 104.645 9.29415 104.885 9.09631C105.125 8.89846 105.369 8.70661 105.619 8.52079C105.868 8.33496 106.122 8.15536 106.38 7.98198C106.638 7.80862 106.901 7.64169 107.167 7.48121C107.433 7.32073 107.704 7.16687 107.978 7.01963C108.252 6.87242 108.529 6.732 108.81 6.59839C109.091 6.46479 109.375 6.33816 109.662 6.21848C109.949 6.09883 110.239 5.98629 110.531 5.88086Z" fill="#F7F5F6"/>
<path d="M123.02 7.97949C123.116 7.98279 123.204 8.03508 123.295 8.06649C122.42 8.59362 119.632 9.02684 118.497 9.31465C112.657 10.7951 109.504 14.887 106.043 19.4666C105.844 19.4972 105.965 19.5001 105.692 19.3662C105.699 18.2011 107.107 16.3965 107.799 15.4841C111.47 10.6476 117.207 8.76662 123.02 7.97949Z" fill="#F7F5F6"/>
<path d="M93.1308 4.96777L93.195 5.01841C93.202 5.46424 91.1245 8.26455 90.7441 8.84708C89.5564 10.6662 88.6142 12.8114 87.937 14.8712C87.4512 16.3486 87.1076 17.9271 86.3383 19.2882C86.3044 19.252 86.2641 19.2208 86.237 19.1796C85.926 18.705 86.1042 17.7504 86.1852 17.2081C86.8323 12.8592 89.5835 7.63438 93.1308 4.96777Z" fill="#F7F5F6"/>
<path d="M130.73 19.1599C131.023 19.1255 131.316 19.1023 131.611 19.0901C132.276 19.0613 133.743 18.9361 134.225 19.3786C133.65 19.7944 129.878 19.9519 128.795 20.2369C125.941 20.988 123.271 22.4584 120.965 24.2768C120.409 24.8244 119.834 25.4578 119.101 25.7501L118.912 25.6568C118.912 25.3167 119.044 25.1009 119.235 24.8306C121.759 21.2571 126.624 19.7705 130.73 19.1599Z" fill="#F7F5F6"/>
<path d="M84.8948 7.3125C84.9843 8.12628 83.2925 9.80339 82.7782 10.5459C81.3248 12.6442 80.5181 15.0949 79.8229 17.5252C79.525 18.5672 79.2997 19.7028 78.8151 20.6741C78.465 20.0231 78.5931 19.0624 78.6982 18.3481C79.2991 14.2618 81.5489 9.79983 84.8948 7.3125Z" fill="#F7F5F6"/>
<path d="M131.777 27.2686C133.161 27.2815 134.948 27.2144 136.155 27.9843L136.182 28.1875C135.332 28.363 134.292 28.1872 133.425 28.1383C131.211 28.0138 128.902 28.3538 126.85 29.2039C125.63 29.8124 124.483 30.4534 123.189 30.9054L123.342 30.7317C125.587 28.1934 128.502 27.4602 131.777 27.2686Z" fill="#F7F5F6"/>
<path d="M69.1313 138.354C69.3041 138.54 69.4189 138.809 69.5435 139.032C69.2149 139.944 67.3332 141.647 66.6566 142.521C65.8687 143.537 65.2312 144.58 64.6415 145.722L64.5037 145.678C64.3035 145.445 64.209 145.331 64.2346 144.993C64.3995 142.822 67.5781 139.697 69.1313 138.354Z" fill="#F7F5F6"/>
<path d="M132.373 33.3021C133.932 33.2282 135.352 33.5638 136.772 34.1777C135.131 34.4801 133.389 34.3891 131.725 34.4124C130.341 34.5614 129.012 34.7442 127.614 34.7725C129.177 33.8527 130.584 33.4726 132.373 33.3021Z" fill="#F7F5F6"/>
<path d="M77.9001 56.3359C78.9365 56.4031 79.9278 56.5618 80.9419 56.7794C80.2994 57.0326 78.9168 57.4041 78.4978 57.9538C78.3438 58.1555 78.2452 58.2989 78.2873 58.5539C78.3888 59.1657 78.996 59.5538 79.4488 59.913C79.7683 60.0249 80.007 60.1223 80.2776 60.3275L80.0153 60.4736C79.3245 60.4303 78.6992 60.2775 78.1109 59.8953C77.6236 59.5788 77.2467 59.1304 77.1413 58.5474C76.985 57.6818 77.4284 57.0146 77.9001 56.3359Z" fill="#F7F5F6"/>
<path d="M68.8039 21.5811L68.9399 21.733C68.9823 22.9984 68.8398 24.4491 69.0506 25.6866C69.262 26.9276 70.1389 28.6898 69.8774 29.8996C69.6798 29.5524 69.4901 29.2008 69.3086 28.845C68.2018 26.6403 68.0299 23.915 68.8039 21.5811Z" fill="#F7F5F6"/>
<path d="M74.1034 14.9385C74.1457 15.0978 74.1714 15.1634 74.1722 15.3471C74.1755 16.3353 73.8911 17.4223 73.7986 18.4181C73.7056 19.4197 74.0524 22.3514 73.5101 22.9921C73.4173 22.76 73.3293 22.526 73.2616 22.2854C72.6553 20.1302 73.0349 16.8988 74.1034 14.9385Z" fill="#F7F5F6"/>
<path d="M131.017 39.1518C132.186 39.1442 133.553 39.2319 134.659 39.6214C135.318 39.8537 135.828 40.1149 136.125 40.7724C134.94 40.6037 131.944 40.472 131.104 39.7442C130.926 39.5902 131.01 39.3668 131.017 39.1518Z" fill="#F7F5F6"/>
<path d="M101.138 170.063C101.414 170.182 101.587 170.326 101.755 170.573C101.967 170.885 102.03 171.161 101.981 171.534L101.737 171.678C101.214 171.659 100.823 171.713 100.438 171.321C100.489 170.816 100.843 170.455 101.138 170.063Z" fill="#F7F5F6"/>
<path d="M40.1979 81.2669C40.3304 81.2569 40.4629 81.2463 40.5957 81.2428C41.4054 81.221 42.4038 81.3311 43.0018 81.9423C43.502 82.4535 43.5288 83.247 43.505 83.9194C43.3931 87.0804 39.892 89.7318 37.7474 91.708C37.2403 92.223 36.8155 92.6876 36.072 92.8018C35.6896 92.672 35.5951 92.6502 35.391 92.2716C34.7018 90.9931 36.2937 86.3202 36.8034 85.0159C37.4994 83.2343 38.4195 82.0301 40.1979 81.2669Z" fill="#E0214D"/>
<path d="M1.75312 235.422C2.0078 235.539 2.25718 235.67 2.50833 235.794C2.73298 236.2 2.72739 236.351 2.72474 236.82C2.71708 238.077 2.45445 239.386 2.35169 240.647C2.16169 243.087 2.11713 245.53 2.21802 247.975C2.29605 249.771 2.72474 251.74 3.18994 253.473C3.4296 254.366 3.67869 255.308 4.03584 256.163C4.73452 257.835 6.52437 259.818 6.31768 261.697C6.26292 262.196 6.11688 262.49 5.70998 262.795C3.54826 260.835 2.3411 257.553 1.5267 254.823C0.0480647 249.868 -0.692431 239.953 1.75312 235.422Z" fill="#E0214D"/>
<path d="M180.242 80.0752C180.592 80.0902 180.949 80.1032 181.29 80.1888C181.917 80.3467 182.495 80.6614 182.786 81.262C183.065 81.8397 182.822 82.6447 182.632 83.2059C181.685 85.9956 179.308 88.1591 176.735 89.4484C176.24 89.4867 175.638 89.5579 175.159 89.3936C174.729 89.2458 174.375 88.9214 174.233 88.4818C173.936 87.562 174.447 86.4019 174.851 85.5834C175.904 83.4541 177.922 80.8434 180.242 80.0752Z" fill="#E0214D"/>
<path d="M175.515 136.85C175.783 136.891 176.05 136.936 176.313 137.001C181.328 138.238 190.076 146.763 192.706 151.392C193.385 152.587 193.63 153.272 193.276 154.597C193.192 154.604 193.11 154.62 193.026 154.617C192.944 154.615 192.863 154.606 192.783 154.589C192.702 154.572 192.624 154.548 192.549 154.516C192.473 154.485 192.4 154.447 192.332 154.402C192.263 154.357 192.199 154.306 192.139 154.25C190.974 153.13 190.046 151.281 189.12 149.936C188.464 148.995 187.76 148.09 187.01 147.222C186.259 146.353 185.466 145.526 184.63 144.74C183.831 143.985 183 143.256 182.074 142.659C180.146 141.416 177.663 140.449 176.163 138.672C175.66 138.077 175.431 137.63 175.515 136.85Z" fill="#E0214D"/>
<path d="M190.222 83.9746C190.667 84.0556 191.145 84.1448 191.557 84.3344C192.179 84.6203 192.667 85.1255 192.891 85.7756C193.266 86.8589 192.871 88.084 192.406 89.0742C191.506 90.9918 190.059 92.8217 188.024 93.5513C187.673 93.5781 187.31 93.614 186.957 93.5957C186.449 93.5695 185.887 93.2778 185.612 92.8417C185.282 92.3203 185.317 91.6678 185.453 91.0925C185.96 88.952 188.342 85.1067 190.222 83.9746Z" fill="#E0214D"/>
<path d="M52.2072 129.849C53.0943 129.717 54.5733 129.591 55.35 130.106C55.6662 130.316 55.8811 130.6 55.9389 130.985C55.9998 131.395 55.9297 131.489 55.6753 131.764C54.7585 132.027 53.6314 131.587 52.673 131.588C51.9546 131.589 51.061 131.919 50.3744 132.138C46.0622 133.514 41.5883 135.933 38.3407 139.113C37.8746 139.803 37.922 140.836 37.1809 141.318C36.9504 141.468 36.9192 141.398 36.6733 141.34C36.5417 141.171 36.4487 141.018 36.3936 140.808C36.1975 140.059 36.2287 139.175 36.6477 138.509C39.1133 134.593 47.7878 130.764 52.2072 129.849Z" fill="#E0214D"/>
<path d="M201.687 195.402C201.966 195.438 202.271 195.47 202.529 195.588C203.56 196.061 204.195 197.755 204.546 198.78C205.48 201.504 207.53 212.717 206.338 215.17C206.032 215.227 205.824 215.219 205.518 215.166C205.292 214.988 205.143 214.833 205.038 214.565C204.32 212.743 204.415 209.003 204.229 206.932C204.034 204.761 203.567 202.372 202.842 200.316C202.372 198.986 201.07 196.769 201.687 195.402Z" fill="#E0214D"/>
<path d="M184.804 136.313C185.337 136.458 185.875 136.623 186.377 136.851C190.056 138.526 195.719 143.512 197.072 147.37C197.396 148.291 197.374 148.761 196.943 149.631C196.847 149.613 196.647 149.58 196.56 149.549C195.684 149.233 194.218 146.443 193.64 145.611C192.755 144.338 191.658 142.883 190.468 141.885C188.814 140.499 185.439 139.28 184.498 137.304C184.495 136.837 184.587 136.715 184.804 136.313Z" fill="#E0214D"/>
<path d="M49.431 86.0889C50.2577 86.2661 51.1675 86.5947 51.7331 87.2581C52.0055 87.5775 52.1147 87.9665 52.0697 88.3819C51.7953 90.9149 47.9671 92.6868 46.1802 94.0577C45.8207 94.3577 45.4915 94.4598 45.0545 94.5938C44.7498 94.5093 44.6135 94.5064 44.4695 94.1896C44.0706 93.3116 46.0612 89.6571 46.5082 88.7081C47.173 87.2963 48.0006 86.6168 49.431 86.0889Z" fill="#E0214D"/>
<path d="M47.2744 123.376C47.6719 123.351 48.0856 123.308 48.4698 123.436C48.9518 123.596 49.4282 123.846 49.6529 124.317C49.4844 125.135 48.9126 125.185 48.2016 125.244C47.338 125.316 46.4006 125.312 45.5641 125.532C42.4092 126.362 38.2751 130.082 35.9135 132.37C35.6088 132.599 35.3458 132.788 34.9516 132.839C34.6003 132.886 34.3674 132.767 34.0975 132.569C34.0156 132.088 34.1125 131.823 34.3878 131.419C36.4862 128.336 43.6497 124.073 47.2744 123.376Z" fill="#E0214D"/>
<path d="M207.618 203.675C207.94 203.677 208.319 203.658 208.624 203.774C209.274 204.023 209.759 204.802 210.04 205.397C211.076 207.595 211.528 211.105 210.708 213.407C210.611 213.413 210.514 213.433 210.418 213.425C210.051 213.395 209.888 213.216 209.711 212.915C209.294 212.202 209.481 210.807 209.332 209.977C209.008 208.172 207.073 205.277 207.618 203.675Z" fill="#E0214D"/>
<path d="M197.963 155.335C198 155.349 198.038 155.361 198.075 155.376C198.801 155.666 199.651 156.109 199.951 156.884C200.283 157.741 199.952 158.4 199.58 159.178C199.43 159.116 199.281 159.053 199.136 158.981C198.512 158.67 197.958 157.968 197.745 157.309C197.499 156.551 197.608 156.029 197.963 155.335Z" fill="#E0214D"/>
</g>
<defs>
<clipPath id="clip0_0_137">
<rect width="212" height="275" fill="white"/>
</clipPath>
</defs>
</svg>
