<svg width="116" height="100" viewBox="0 0 116 100" fill="none" xmlns="http://www.w3.org/2000/svg">
<g clip-path="url(#clip0_0_342)">
<path d="M91.9348 13.8059C91.6526 13.2264 91.2924 12.7062 90.9606 12.156C88.5161 8.10247 84.4585 4.32555 79.9388 2.76765C76.9751 1.746 73.7165 1.43383 70.6041 1.6403C69.9636 1.68275 69.1389 1.68816 68.5495 1.9596C68.4018 2.02765 68.3634 2.07047 68.2749 2.19991C68.2643 2.37563 68.2601 2.40786 68.3404 2.56241C69.0278 2.83115 71.1903 2.65777 72.0532 2.67832C72.7857 2.70219 73.517 2.74702 74.247 2.81281C74.9992 2.88196 75.7644 3.07416 76.5038 3.23191C77.5108 3.44675 78.5317 3.69013 79.4943 4.05891C85.0694 6.19549 89.2562 11.0914 91.6105 16.4591C92.6879 18.9156 93.2112 21.4788 93.728 24.0966C94.2965 26.9766 94.7856 29.8916 94.936 32.8264C95.0292 34.6482 94.8925 36.474 94.9773 38.2901C94.683 37.8905 94.1807 37.6028 93.8251 37.2447C93.5514 36.969 93.3624 36.6534 93.2374 36.2875C92.952 35.4521 92.8216 34.5706 92.6537 33.7067L91.8758 29.7587C91.7123 28.9554 91.3568 28.1329 91.3579 27.3146C91.2703 26.56 90.6651 24.7198 90.4361 23.8792C89.975 22.2076 89.4082 20.5847 88.824 18.9531C88.3853 17.7278 87.9752 16.4713 87.3346 15.3348C87.1225 14.7039 86.9281 14.0506 86.6523 13.4443C85.3148 10.5023 82.8313 8.02803 79.9527 6.58469C79.1492 6.18171 78.3695 5.97844 77.514 5.72595C77.0082 5.57669 76.5258 5.35373 76.017 5.21407C74.9102 4.91051 73.6703 4.85576 72.527 4.79534C72.0956 4.77258 70.6594 4.83398 70.3749 4.75191C70.1339 4.68239 70.1806 4.20053 69.7799 4.18281C69.5739 4.17371 69.3479 4.27707 69.1388 4.29676C68.8414 4.32481 68.5418 4.2783 68.2398 4.3098C67.2199 4.41599 66.1185 4.71512 65.1459 5.03971C61.7797 6.1635 57.5463 10.3061 55.5309 13.2724C54.9675 14.1017 54.513 15.0357 54.0694 15.9344C53.6884 16.7063 53.3083 17.529 53.0573 18.3522C52.8453 19.0474 52.7069 19.7832 52.4442 20.4598C52.1005 21.5457 51.8331 22.6741 51.5816 23.7849C51.4251 24.4324 51.2723 25.0808 51.1232 25.73C50.8544 26.6806 50.5872 27.8613 50.0256 28.6759L49.9516 28.6977L49.9244 28.6769C50.1214 26.0153 50.5419 23.2825 51.2272 20.7028C51.4546 19.8471 51.8448 18.9984 52.1441 18.1618C54.0566 12.8166 57.0267 7.00157 62.2842 4.26304C62.9847 3.89821 63.7949 3.50397 64.5668 3.32518C65.0715 3.20816 66.5092 3.27141 66.8217 3.05952C66.9284 2.98705 66.9972 2.87606 67.0004 2.74366C67.0052 2.54728 66.8905 2.34437 66.7532 2.21099C66.5188 1.98311 66.2075 1.94595 65.8935 1.94841C65.3422 1.95271 64.7839 2.09717 64.2532 2.23142C61.4723 2.935 59.1568 4.5853 57.2002 6.62837C54.4206 9.53129 52.6382 13.2009 51.2373 16.9251C50.8976 17.8282 50.5292 18.7441 50.2757 19.6753C50.0401 20.573 49.8289 21.4765 49.6419 22.3856C49.455 23.2948 49.2927 24.2083 49.155 25.1261C49.0173 26.044 48.9043 26.9649 48.8161 27.8889C48.728 28.8128 48.6648 29.7385 48.6265 30.6658C48.5726 32.0443 48.7469 33.4224 48.7773 34.8008C48.4575 35.4279 48.0014 36.0052 47.6408 36.6129C45.3516 40.4697 45.2224 44.271 46.3139 48.4996C45.8987 48.8685 45.3771 49.1409 44.9143 49.4483C43.6878 50.2629 42.4476 51.1469 41.4738 52.2597C40.0996 53.83 39.1934 56.0447 39.2221 58.1447C39.2342 59.0402 39.3924 59.9472 39.4509 60.8437C38.4127 61.5462 37.2512 61.95 36.2793 62.7862C35.0633 63.8323 33.9352 65.1283 33.8257 66.8017C33.7355 68.1802 33.9743 69.9388 34.7222 71.1294C34.9162 71.4381 35.18 71.716 35.4189 71.9906C34.6599 72.1213 33.8866 72.1884 33.1565 71.8782C32.4034 71.5582 32.2714 71.1756 31.9622 70.5041C31.895 70.3582 31.8246 70.3178 31.6796 70.2678C31.3645 70.3676 31.2096 70.6584 31.0458 70.9239C31.0879 71.0537 31.13 71.1812 31.145 71.3176C31.1513 71.3745 31.155 71.4318 31.1619 71.4887C31.2106 71.8928 31.6798 72.3695 31.9975 72.5991C33.0076 73.3295 34.3243 73.2875 35.487 73.0761C34.7403 74.4261 33.8052 77.1068 33.4707 78.6465C32.2558 77.1304 28.8159 73.0423 27.1504 72.2658C26.959 72.1764 26.8352 72.182 26.6388 72.2455C26.5474 72.3683 26.5055 72.4123 26.4947 72.5705C26.4823 72.7509 26.5674 72.9525 26.673 73.096C27.1023 73.679 27.7308 74.2145 28.2247 74.7544C29.0305 75.653 29.8158 76.5693 30.5805 77.5033L33.5634 81.1601C34.2705 82.0303 35.0295 82.8939 35.6242 83.8453C37.2304 86.4155 37.4875 89.5184 37.2152 92.4616C37.235 92.5059 37.2544 92.5503 37.2764 92.5935C37.3933 92.8236 37.5416 93.0922 37.8094 93.1607C37.9436 93.1951 38.1088 93.1244 38.2153 93.042C38.6564 92.7005 38.6612 91.9528 38.7184 91.4435C39.2624 86.5968 36.9536 82.8959 34.0652 79.2741C35.1141 77.3734 35.874 75.3311 36.7641 73.3562C37.1132 72.5816 37.5617 71.8592 37.943 71.1014C38.446 70.1016 38.8698 69.0418 39.5214 68.1233C43.1756 62.9723 49.7025 60.4635 55.3961 58.3173C55.2167 58.9105 54.9209 59.6773 54.9909 60.3102C55.0171 60.5483 55.1615 60.8729 55.3758 60.9993C55.4631 61.0508 55.5583 61.0769 55.6571 61.0552C55.8317 61.0169 55.9379 60.9148 56.016 60.7584C56.2941 60.2015 56.4097 59.484 56.6167 58.8891C56.9287 57.9918 57.4115 57.0941 57.8979 56.2784C59.6381 53.3602 62.0785 52.0533 65.2883 51.243C65.1752 51.7207 65.1133 52.1851 65.0875 52.6753C64.8238 52.7279 64.5617 52.7978 64.3029 52.8709C62.5489 53.3669 61.2776 54.2967 60.3939 55.9066C57.053 61.9921 59.7973 72.2133 61.9291 78.4337C62.4045 79.8207 63.2088 81.1276 63.6003 82.5255C63.6075 82.551 63.614 82.5766 63.6208 82.6022C62.8206 81.9278 61.9482 81.3241 61.1148 80.6903C59.8063 79.6952 58.509 78.6736 57.1442 77.7562C56.0797 77.0407 54.9429 76.4225 53.8431 75.7624C50.9695 74.0373 45.3712 70.5195 42.2285 70.2573C41.8262 70.2237 41.3276 70.2329 41.0029 70.5032C40.974 70.6695 41.005 70.8688 41.1208 71.0054C41.3215 71.242 42.6746 71.7792 43.0585 71.9558C44.7854 72.7501 46.4939 73.5568 48.1407 74.5098C50.6487 75.9612 53.0038 77.6064 55.4127 79.2082C56.7815 80.1184 58.1979 80.9572 59.5602 81.8747C60.1002 82.2383 60.6429 82.6082 61.1577 83.0069C61.8526 83.5447 62.4832 84.1132 63.2606 84.5346C63.3997 84.6101 63.5281 84.6859 63.6877 84.7085C64.0609 84.7614 64.3032 84.5882 64.5953 84.3828C65.4197 85.6857 66.1633 87.0591 66.9651 88.3797C65.8247 87.5374 64.8003 86.558 63.6496 85.723C59.8301 82.9511 55.8232 80.4934 51.7957 78.0424C48.9389 76.3039 46.3425 74.55 43.2665 73.1738C42.1384 72.6692 41.0102 72.1453 39.8244 71.7779C39.5928 71.7061 39.352 71.622 39.1293 71.7412C39.1693 72.1247 39.6893 72.3536 39.9987 72.5255C41.244 73.2169 42.579 73.7354 43.8255 74.4293C46.1478 75.722 48.3813 77.1863 50.6214 78.6141C52.3046 79.6872 53.9978 80.7004 55.6419 81.835C56.5042 82.4301 57.5078 82.8985 58.2925 83.5917C58.3141 83.6108 58.3354 83.6305 58.357 83.6498C57.3476 83.2366 55.7009 82.3347 54.5893 82.5276C54.3624 82.567 54.3266 82.6466 54.1987 82.8196C53.59 82.6146 52.9897 82.243 52.41 81.9616L49.1295 80.3857C47.7969 79.7404 46.4374 79.1601 45.0967 78.5334C43.4213 77.7506 41.7417 76.8697 40.0318 76.1736C39.3212 75.8842 38.5781 75.661 37.8564 75.3995C37.4745 75.2612 36.8076 74.8897 36.4199 74.9596C36.3167 74.9782 36.303 75.033 36.2422 75.1094C36.1968 75.3449 36.2996 75.5384 36.3834 75.755C37.2938 76.5287 38.5303 76.9641 39.6103 77.457C40.5788 77.8969 41.5422 78.348 42.5003 78.8103C43.5293 79.3061 44.4171 79.9734 45.4085 80.5258C46.7135 81.2527 48.1629 81.8165 49.4023 82.6445L49.5062 82.7147C49.7865 82.9013 49.8846 83.2481 50.0811 83.5108C50.3204 83.8306 56.3198 86.8162 57.1859 87.2683C58.9008 88.1634 60.6677 89.1731 62.1787 90.3805C62.4825 90.6231 62.818 90.9186 63.2188 90.9664C63.5188 91.0022 63.7654 90.8049 63.9756 90.6165C64.1462 90.4637 64.2786 90.258 64.2675 90.0198C64.2158 88.9039 60.6658 86.613 59.763 85.7757L59.693 85.71C61.3613 86.6207 63.0373 87.5702 64.549 88.7276C65.1546 89.1912 65.6595 89.7676 66.2733 90.2213C66.9961 90.7556 67.7895 91.1878 68.5071 91.7265C69.1722 92.2259 69.8867 92.7109 70.5205 93.2445C70.7089 93.4031 70.8606 93.6121 71.0534 93.7598C71.1432 93.8286 71.2283 93.8756 71.3396 93.9006C71.4381 93.9228 71.4155 93.9076 71.5204 93.8503C71.5813 93.7112 71.6221 93.582 71.7512 93.4916C72.2594 93.5738 72.1024 94.2947 72.6808 94.3195C73.7579 94.3656 79.3773 93.8184 79.7815 94.0387C79.789 94.0708 79.7958 94.103 79.8041 94.135C79.8291 94.2316 79.868 94.4044 79.9703 94.4488C80.2699 94.5792 82.2055 94.2814 82.6662 94.2486C84.7189 94.1024 86.7793 94.0251 88.8295 93.8439C92.0929 93.545 95.3464 93.1623 98.59 92.6956C100.85 92.3775 103.119 92.0629 105.351 91.5726C106.247 91.3757 107.305 91.2656 108.149 90.92C108.36 90.8338 108.675 90.6499 108.731 90.409C108.763 90.2732 108.734 90.1416 108.642 90.0351C108.63 90.0213 108.516 89.9303 108.489 89.9218C108.323 89.8713 106.322 90.2482 106.03 90.2882C104.781 90.4596 103.554 90.7459 102.305 90.9285C98.1105 91.5173 93.9068 92.029 89.6938 92.4634C85.9783 92.8159 82.2376 92.7926 78.5118 92.8559C76.9049 92.8834 75.2972 93.0351 73.6901 93.0244C77.3256 89.4025 80.2321 84.3448 82.3943 79.7183C82.8958 78.6451 83.4116 77.5629 83.8214 76.4508C84.1619 75.5144 84.4786 74.5699 84.7714 73.6174C85.0643 72.6651 85.3329 71.7059 85.5774 70.7399C85.8218 69.7738 86.0416 68.8022 86.2369 67.8251C86.4322 66.848 86.6028 65.8665 86.7485 64.8809C86.899 63.8388 86.9286 62.7822 87.045 61.7363C87.3027 59.4209 87.6613 58.018 86.5946 55.7937C86.3158 55.2124 86.0066 54.6164 85.6129 54.1032C84.9951 53.2978 84.1664 52.6896 83.1441 52.5601L83.1177 51.6671C83.8133 51.7649 84.4898 51.8715 85.1423 52.1423C86.8535 52.8525 87.4727 53.844 88.3708 55.3749C88.5978 55.7617 88.9056 56.1159 89.0729 56.5327C89.2693 57.0225 89.7121 58.196 90.2188 58.4216C90.3495 58.4798 90.4338 58.4589 90.5573 58.3936C90.7559 58.2885 90.8373 58.09 90.9086 57.8907C90.9171 57.8671 90.9249 57.8432 90.933 57.8193C91.371 57.7678 94.1568 59.1738 94.721 59.4872C95.5807 59.9649 96.4098 60.4945 97.2534 60.9991C100.768 63.1017 103.581 64.3562 106.256 67.6521C107.607 69.3172 108.228 71.6356 108.925 73.6344C109.422 75.0625 110.074 76.4281 110.52 77.8784C111.157 80.0011 111.752 82.1354 112.306 84.2812C112.547 85.2013 112.744 86.1473 113.021 87.0562C113.097 87.3054 113.153 87.52 113.375 87.6615C113.739 87.704 113.953 87.5146 114.23 87.3156C114.342 85.5382 113.708 83.7693 113.254 82.071C112.883 80.6281 112.488 79.1916 112.069 77.7615C113.476 77.0275 114.887 76.0655 115.523 74.5426C116.333 72.6051 115.891 70.6388 115.129 68.7651C113.972 65.919 111.752 63.8903 108.939 62.7006C109.468 62.1345 110.008 61.5972 110.259 60.8463C110.929 58.839 110.179 56.6773 109.261 54.892C108.368 53.155 106.638 51.6409 104.853 50.8533C104.393 50.6502 103.901 50.533 103.423 50.3806L103.388 50.3084C103.547 50.1229 103.664 49.951 103.756 49.7248C104.395 48.1535 104.207 46.394 103.546 44.8577C102.835 43.2032 100.834 40.838 99.298 39.9369C98.649 39.5562 97.8365 39.3615 97.1353 39.0734C96.9184 38.9842 96.6208 38.8776 96.4435 38.7244C96.3371 38.6324 96.4008 35.3426 96.3981 34.8317C96.3866 32.6607 96.1629 30.5603 95.8903 28.4112C95.3407 24.0791 94.5389 19.7703 92.8785 15.7155C92.6061 15.0618 92.3327 14.3952 91.9348 13.8059Z" fill="#151314"/>
<path d="M91.3583 27.3145L91.0365 27.3792C91.4491 28.8757 91.3564 30.3292 90.5896 31.6953C89.9819 32.778 89.0039 33.6583 87.822 34.0587C87.4709 37.559 87.1143 41.1505 88.0485 44.5929C88.1876 45.1057 88.2948 45.6535 88.5873 46.1016C88.7595 46.3653 89.0012 46.7106 88.8969 47.0467C88.8531 47.1881 88.7619 47.2423 88.6199 47.2795C88.4338 47.3285 88.2579 47.2535 88.1167 47.1377C87.0325 46.2483 86.4853 42.7031 86.3918 41.3348C86.3642 40.9312 86.3747 40.6647 86.2047 40.2884C86.1932 40.2628 86.1836 40.2365 86.1726 40.2108C86.1661 40.1952 86.1592 40.1799 86.1525 40.1645L86.2883 40.1049C86.3979 39.6078 86.3144 38.319 86.3174 37.7269C86.2566 37.7321 86.1537 37.7422 86.0956 37.7405C85.9295 37.7357 85.9052 37.7144 85.794 37.6042L85.8364 37.5072C86.0656 37.4717 86.1215 37.5314 86.3243 37.6334C86.3716 36.4164 86.5419 35.1981 86.6924 33.9899C86.4436 33.9917 86.1939 33.9979 85.9452 33.9879C85.8198 34.331 85.7859 34.5086 85.8766 34.8751L85.8234 34.9141C85.7837 34.9437 85.6628 35.0221 85.6397 35.0635C85.2987 35.6719 84.5163 42.0416 84.296 43.3101C84.0344 44.8163 83.6013 46.282 83.3967 47.8024C83.2956 48.553 83.2771 49.2841 83.3167 50.0397C85.1297 50.4251 86.2925 50.6689 87.7278 51.9002C88.1929 52.2992 88.6296 52.7053 88.9626 53.2241C89.5223 54.0958 90.0129 55.0172 90.5666 55.896C91.2423 55.9726 92.0563 56.4476 92.6713 56.7337C95.3101 57.9608 97.8716 59.3323 100.356 60.8482C101.547 61.5698 102.734 62.2788 103.81 63.1713C104.098 62.7111 104.441 62.2863 104.728 61.8248C105.364 60.7999 105.65 59.4831 105.62 58.2851C105.554 55.6679 104.409 53.2781 102.538 51.4815C102.441 51.5197 102.476 51.4953 102.398 51.5696C102.304 51.6599 102.212 51.7523 102.114 51.8398C101.254 52.6129 100.172 53.4476 98.9376 53.3408C98.677 53.3183 98.4081 53.2499 98.2329 53.0447C98.21 52.8878 98.2031 52.8408 98.2883 52.6948C98.369 52.5568 98.5531 52.3696 98.6919 52.2856C98.9454 52.132 99.2617 52.0812 99.5253 51.9286C99.927 51.6962 100.335 51.3385 100.774 51.1967C100.788 50.9547 100.913 50.7353 101.008 50.5157C101.376 49.667 101.555 49.0684 101.47 48.131C101.258 45.7748 99.9823 43.1623 98.3219 41.487C97.7095 40.8691 96.9804 40.3434 96.314 39.7832C96.4115 40.4346 96.2158 41.2856 96.1243 41.9371C95.8565 43.8417 95.5398 46.3782 96.1016 48.228C96.1636 48.432 96.2919 48.6057 96.3878 48.7935C96.4693 48.953 96.502 49.234 96.4199 49.3998C96.3291 49.5831 96.1597 49.6705 95.9691 49.7096C95.8249 49.6767 95.7293 49.643 95.626 49.5313C95.3421 49.2236 95.1884 48.7423 95.0578 48.3501C94.5741 46.8955 94.5197 45.1391 94.666 43.6174C94.7549 42.6941 94.9294 41.7704 94.9887 40.8454C95.0427 40.0044 94.9741 39.1351 94.9777 38.2899C94.6834 37.8903 94.1811 37.6027 93.8255 37.2445C93.5518 36.9688 93.3628 36.6532 93.2378 36.2873C92.9524 35.4519 92.8221 34.5704 92.6541 33.7065L91.8762 29.7585C91.7127 28.9552 91.3572 28.1327 91.3583 27.3145Z" fill="#151314"/>
<path d="M87.3831 48.5215C87.3374 48.529 87.2683 48.5391 87.2256 48.5522C87.076 48.5988 87.0744 48.6252 87.0128 48.76C87.0801 49.0603 87.3614 49.261 87.5793 49.4602C87.6123 49.4096 87.6295 49.3882 87.652 49.3268C87.6956 49.2082 87.6991 49.1094 87.6399 48.9994C87.513 48.9663 87.3854 48.9365 87.2569 48.9099C87.2146 48.7406 87.3013 48.6685 87.3831 48.5215Z" fill="#151314"/>
<path d="M86.1142 41.71C85.9333 41.7421 85.7763 41.7655 85.614 41.858C85.685 41.9756 85.7755 41.9719 85.9022 42.0119C85.9836 42.095 86.0474 42.1623 86.1526 42.2159C86.2416 42.2613 86.2064 42.2531 86.3027 42.2168C86.2993 41.9867 86.2282 41.9062 86.1142 41.71Z" fill="#151314"/>
<path d="M89.1556 49.3525L89.031 49.4966C89.0492 49.6778 89.136 49.704 89.2702 49.8205C89.3407 49.7786 89.3939 49.7196 89.4531 49.6634C89.4179 49.5081 89.2788 49.4484 89.1556 49.3525Z" fill="#151314"/>
<path d="M53.619 20.4326C53.4598 21.4028 53.1451 22.3761 52.8806 23.3237C52.5489 24.9413 51.9045 26.4363 51.6801 28.0802C51.4855 29.0329 51.5926 30.0982 51.5664 31.0703C51.5642 31.1533 51.5702 31.2141 51.5895 31.294C51.781 32.1136 51.8148 32.9868 51.9097 33.8228C51.9881 34.5124 52.1255 35.2043 52.239 35.8899C52.5248 37.6187 52.9671 39.3231 53.2295 41.0537C53.3789 42.0394 53.4116 43.0724 53.4585 44.0681C53.501 44.9741 53.5389 45.9157 53.3818 46.812C53.2575 47.521 53.0252 48.169 52.7351 48.8254C52.7945 49.1108 52.7548 49.1901 52.6 49.431C52.3889 49.7591 52.186 49.9059 51.8362 50.0656L51.797 50.0607C51.6331 50.1593 51.5275 50.221 51.3294 50.2298C51.1 50.168 50.9601 49.9892 50.7991 49.8248C52.6711 46.8884 52.187 42.756 51.5453 39.499C51.243 37.9647 50.7145 35.796 50.7391 34.2872C50.7454 33.9067 50.8088 33.5281 50.859 33.1517C50.8921 32.9026 50.8586 32.5132 50.9647 32.2982C51.02 32.1857 51.0124 32.2595 50.9957 32.1341C50.9797 32.1255 50.963 32.1179 50.9474 32.1083C50.7869 32.0094 50.7044 31.9141 50.663 31.7311C50.7157 31.6255 50.7583 31.5898 50.8614 31.5381C50.8961 31.5207 50.9312 31.5043 50.9662 31.4873C50.9367 31.3838 50.9105 31.2794 50.8809 31.1761C50.8243 30.9786 50.788 30.8688 50.8442 30.6632C50.8814 30.527 50.9002 30.4358 50.8911 30.2914L50.7696 30.0679C50.8018 29.6919 50.7891 29.6011 50.5429 29.3069C50.7274 29.2278 50.9238 29.1181 51.0178 28.9355C50.9943 28.8501 50.9717 28.797 50.923 28.7207C50.9078 28.6969 50.8916 28.6741 50.8758 28.6508C51.0487 28.3737 51.0855 28.0598 51.0978 27.7394L51.0465 27.6896C50.8201 28.1436 50.5968 28.5992 50.3768 29.0562C50.2464 29.1511 50.1184 29.1662 49.9641 29.1936C49.9589 29.1618 49.9462 29.1304 49.9486 29.0984C49.9739 28.7516 50.3739 28.3625 50.6035 28.1159L50.5971 28.1317L50.6703 27.9985L50.5969 27.7592C50.6649 27.6501 50.7324 27.5392 50.787 27.4225C50.9578 27.0581 51.2497 26.1064 51.1239 25.7305C50.8552 26.6811 50.5879 27.8618 50.0263 28.6764L49.9524 28.6982L49.9252 28.6774C49.6381 29.3284 49.8705 30.4609 49.8838 31.1779C49.9025 32.1937 49.8664 33.1998 49.9509 34.2146C50.214 37.3732 51.2924 43.6482 50.2536 46.464C49.8223 47.6331 48.9503 48.5205 47.8598 49.0849C48.8441 51.068 49.022 53.6475 48.3109 55.75C47.6276 57.77 46.1299 59.3095 44.2228 60.235C43.2584 60.7029 37.9816 62.7703 37.683 63.2267C37.4969 63.5299 37.2828 63.8157 37.0995 64.1194C37.1148 64.2587 37.193 64.5767 37.1631 64.6989C37.0772 65.0501 36.6978 65.4421 36.5714 65.8208C36.4084 66.3095 36.5356 66.8091 36.4032 67.282C36.6922 68.1224 37.0281 69.1225 36.7513 70.004L36.8174 70.1738C37.1976 69.6002 37.4679 68.9605 37.8759 68.3969C40.0563 65.3845 42.9125 62.7375 46.2001 60.9723C46.988 60.5492 47.8522 60.2305 48.6753 59.88C50.975 58.9004 53.273 58.0452 55.6344 57.23C56.2748 56.1076 56.954 55.0741 57.7996 54.0963C59.7245 51.8701 62.3412 50.5012 65.2871 50.2861C65.2887 49.5397 65.2018 48.7966 65.1312 48.0544C62.7197 47.9587 60.2157 47.2303 58.205 45.8877C56.3159 44.6265 54.431 42.1765 53.6953 40.0268C53.3076 38.8941 53.1409 37.6769 52.9401 36.4987C52.8239 35.8164 52.8261 34.925 52.6955 34.3322C52.6893 34.3043 52.6825 34.2765 52.676 34.2487C52.6476 33.5742 52.6468 32.8998 52.6737 32.2253C52.8107 31.5193 52.7331 30.7117 52.7888 29.9894C52.8761 28.8573 53.0282 27.7311 53.1213 26.6001C53.2169 25.4395 53.2693 24.2986 53.4239 23.1411C53.4879 22.3764 53.7399 21.6509 53.8143 20.8913L53.7497 20.9077C53.6123 20.7736 53.6395 20.6188 53.619 20.4326Z" fill="#151314"/>
<path d="M52.6734 32.2246C52.4431 32.3356 52.2663 32.6246 52.1921 32.8652C52.0706 33.2593 52.0822 34.0499 52.268 34.4162C52.3021 34.4834 52.3215 34.4945 52.3709 34.5386L52.3859 34.5199C52.5285 34.465 52.5767 34.4471 52.6551 34.3061C52.6652 34.2881 52.6689 34.2673 52.6758 34.248C52.6474 33.5735 52.6466 32.8991 52.6734 32.2246Z" fill="#151314"/>
<path d="M50.5045 29.7666C50.4002 29.7778 50.3144 29.8011 50.2152 29.8351C50.1519 29.923 50.0992 29.9984 50.0777 30.1077C50.0157 30.4231 50.1594 30.6429 50.327 30.8952L50.4484 30.7716C50.4114 30.5621 50.5291 30.4191 50.5902 30.2282C50.6567 30.0195 50.5897 29.9552 50.5045 29.7666Z" fill="#151314"/>
<path d="M102.882 50.9707L102.538 51.4817C104.409 53.2783 105.554 55.6681 105.62 58.2853C105.65 59.4833 105.364 60.8002 104.728 61.825C104.441 62.2866 104.098 62.7113 103.81 63.1715C104.152 63.4158 104.486 63.6269 104.861 63.8173C106.273 63.1638 108.003 62.3299 108.794 60.9083C109.357 59.8955 109.282 58.5619 108.97 57.4784C108.038 54.2412 105.686 52.5373 102.882 50.9707Z" fill="#F7F5F6"/>
<path d="M87.3351 15.335C87.1802 16.0998 87.551 17.4501 87.5795 18.2981C87.6087 19.1657 87.365 20.009 87.3022 20.8679C87.2577 21.4756 87.3823 22.0881 87.3313 22.6937C87.3066 22.9869 87.2729 23.3725 87.1555 23.6428C86.9307 23.719 86.721 23.6753 86.4921 23.6436L86.4096 23.5875C86.2673 23.4889 86.1434 23.3677 86.0173 23.2498L85.9497 23.2742C85.9735 23.4175 86.0141 23.4508 86.1044 23.5599L86.0698 23.6042C85.9907 23.7074 85.9495 23.7463 85.9271 23.8788C86.401 24.3488 86.1415 24.7928 86.4941 25.1957C87.0943 24.9892 87.5645 24.9877 88.1869 25.0554C89.5011 25.3345 90.2384 25.9555 90.9866 27.0414L90.8966 27.1551C90.9336 27.2768 90.937 27.2895 91.0366 27.3795L91.3584 27.3148C91.2708 26.5602 90.6656 24.72 90.4367 23.8793C89.9755 22.2077 89.4087 20.5849 88.8245 18.9533C88.3858 17.728 87.9757 16.4714 87.3351 15.335Z" fill="#151314"/>
<path d="M90.4367 23.8789C90.2841 24.0983 90.2833 24.1309 90.3258 24.3914C90.4368 25.0734 90.8911 25.6731 90.9537 26.385L90.9192 26.3171C90.9698 26.5327 91.0922 26.835 90.9866 27.041L90.8966 27.1547C90.9336 27.2764 90.937 27.289 91.0366 27.3791L91.3584 27.3144C91.2708 26.5597 90.6656 24.7196 90.4367 23.8789Z" fill="#151314"/>
<path d="M100.774 51.1973C101.458 50.6596 102.082 49.9645 102.472 49.1823C103.008 48.1093 102.916 46.9842 102.544 45.8755C101.697 43.3519 98.8404 40.6459 96.4834 39.4893C96.36 39.5529 96.3589 39.6571 96.3137 39.7837C96.9802 40.3439 97.7092 40.8696 98.3216 41.4875C99.982 43.1628 101.258 45.7754 101.47 48.1316C101.554 49.069 101.376 49.6676 101.008 50.5162C100.913 50.7359 100.788 50.9553 100.774 51.1973Z" fill="#F7F5F6"/>
<path d="M37.6826 63.2266C36.7171 63.8179 35.5431 64.8986 35.2566 66.0434C34.8705 67.5857 35.1248 69.6185 35.9612 70.982C36.0392 71.1093 36.121 71.1724 36.2528 71.2377L36.3722 71.2294C36.5417 70.8868 36.6762 70.5287 36.817 70.1737L36.7509 70.0039C37.0278 69.1224 36.6918 68.1222 36.4028 67.2818C36.5352 66.809 36.408 66.3094 36.571 65.8206C36.6974 65.4419 37.0769 65.05 37.1627 64.6987C37.1926 64.5765 37.1144 64.2586 37.0991 64.1193C37.2825 63.8156 37.4966 63.5297 37.6826 63.2266Z" fill="#F7F5F6"/>
<path d="M37.0986 64.1191C36.5925 64.9021 36.0286 65.7459 36.2411 66.7288C36.2817 66.9166 36.3407 67.0998 36.4023 67.2817C36.5347 66.8088 36.4074 66.3093 36.5705 65.8205C36.6968 65.4418 37.0763 65.0499 37.1622 64.6986C37.1921 64.5764 37.1138 64.2584 37.0986 64.1191Z" fill="#151314"/>
<path d="M52.444 20.46C52.1003 21.5458 51.833 22.6742 51.5814 23.7851C51.6681 23.7125 51.7565 23.6455 51.8107 23.5438C52.1991 22.8152 52.7149 21.2681 52.444 20.46Z" fill="#151314"/>
<path d="M53.8144 20.8905C53.8853 20.5867 53.9923 20.292 53.9249 19.9809L53.832 19.9521C53.6689 20.1109 53.6713 20.214 53.6191 20.4318C53.6395 20.618 53.6123 20.7727 53.7498 20.9069L53.8144 20.8905Z" fill="#151314"/>
<path d="M67.3171 7.20508C66.9182 7.53903 66.5732 7.93721 66.1937 8.2938C65.8948 8.57459 65.297 9.19253 64.8684 9.17924C64.6295 9.08437 64.4865 8.90423 64.3172 8.72003C63.8394 8.92306 63.3678 9.08204 62.8741 9.23892C62.6797 9.16583 62.5063 9.08007 62.325 8.97892C61.5776 9.52131 61.0182 10.2598 60.2941 10.83C60.0287 11.1065 59.7271 11.5083 59.4191 11.724C58.1382 13.4424 57.3182 14.8378 56.3849 16.769C56.348 17.1105 56.1131 17.5787 56.0015 17.9214C55.6663 18.9503 55.3178 19.9919 55.1118 21.0559C54.6783 23.296 54.5741 25.5526 54.4126 27.821C54.3011 29.3853 54.1253 30.9416 54.0426 32.5083C53.7918 37.2614 54.4774 40.3181 57.7356 43.8945C59.0632 45.3517 62.0289 46.3376 63.9641 46.6336C65.8578 46.9233 69.1457 46.9012 71.0021 46.4628C71.9431 46.2406 77.3212 44.4485 77.7138 44.5124C77.8513 44.5347 78.0062 44.5998 78.0856 44.7208C78.1719 44.8525 78.2031 45.0606 78.1652 45.2118C78.0491 45.674 76.4063 46.0356 75.9401 46.3369C75.3496 46.7186 74.9283 47.3662 74.4263 47.8541C74.0163 48.2524 73.4982 48.5902 73.0201 48.9012C71.8516 49.6612 70.2268 50.554 68.9598 51.1132C68.1656 51.4638 67.2692 51.7205 66.5185 52.1451C66.1403 52.5999 66.2 53.7989 66.1109 54.3792C65.8923 55.8015 65.2819 56.4679 64.1389 57.297C63.6112 57.6798 62.8863 58.1359 62.2066 58.0041C61.9337 57.9512 61.68 57.7895 61.5365 57.548C61.4326 57.3731 61.463 57.2735 61.5172 57.0947C61.569 57.0407 61.6114 56.9916 61.6811 56.9596C62.0694 56.7814 62.5274 56.6911 62.9316 56.5427C63.4796 56.3418 64.0067 56.0783 64.5329 55.8267C64.8925 55.1745 64.9638 54.374 65.1371 53.6555C64.0919 53.9303 63.1391 54.3837 62.3862 55.1687C60.8066 56.8162 60.5135 59.1521 60.2968 61.3248C60.227 62.0243 60.1286 62.7408 60.1467 63.4441C60.1514 63.6293 60.1529 63.9024 60.2933 64.0339C60.6119 63.8988 60.8351 63.9377 61.1581 64.0424C62.9642 64.6282 62.4272 65.4582 63.1585 66.8381C63.6746 67.8121 64.817 68.2193 65.8773 68.1251C66.3836 68.0802 66.8925 67.9378 67.401 67.9367C67.8549 67.9356 68.2406 68.0292 68.6694 68.1595C69.1981 68.7414 69.3999 69.3887 70.1852 69.7167C71.3035 70.1839 72.7747 69.8641 73.7533 69.1909C74.1397 68.9251 74.4537 68.4691 74.9549 68.4336C75.5525 68.3912 76.1508 68.7345 76.698 68.9415C77.6284 69.2935 78.832 69.3855 79.7587 68.9938C80.7942 68.5564 80.9645 67.3702 81.3661 66.4635C81.6665 65.7855 83.1404 66.0206 83.9479 65.6794C84.3948 65.4905 84.9299 65.1093 85.1069 64.6372C85.2705 64.2006 85.7344 58.9419 85.711 58.4639C85.6833 57.8968 85.5642 57.3603 85.3344 56.8406C85.0248 56.1407 84.1056 54.8024 83.3854 54.5223L83.2986 54.5685C83.1925 54.8913 83.3223 55.3725 83.3484 55.7158C83.373 56.04 83.3613 56.3937 83.1417 56.6508C82.9929 56.7047 82.9548 56.7276 82.8003 56.659C82.5647 56.554 82.3827 56.1952 82.2907 55.9729C81.836 54.8756 81.9315 53.5914 81.9306 52.4306C81.9292 50.4525 81.9319 48.5125 82.2026 46.5449C82.3897 45.1839 82.7334 43.8174 82.9688 42.4585C83.1561 41.378 83.3042 40.2857 83.5221 39.2113C83.899 37.4419 84.3476 35.6909 84.8679 33.9583C85.0053 33.5081 85.0324 33.0293 85.217 32.5949C85.8663 31.9752 86.363 32.7902 87.0715 32.723C87.73 32.6605 88.6287 32.0444 89.0457 31.5527C89.6848 30.7989 89.9417 29.633 89.8487 28.6619C89.7759 27.9016 89.4723 27.2078 88.8581 26.7319C87.6595 25.8031 85.9454 26.5858 84.9551 27.4778C84.5667 27.8276 84.2683 28.282 83.8728 28.6198C83.7738 28.7043 83.6762 28.7655 83.5402 28.7667C83.3814 28.7682 83.2498 28.6894 83.1381 28.5824C83.0178 28.467 82.9681 28.3363 82.9703 28.1709C82.9806 27.3621 84.0244 26.5116 84.5823 26.0169C84.563 25.9664 84.545 25.9153 84.5248 25.8651C84.2222 25.1153 83.9868 23.3083 83.7499 22.3717C82.9051 19.0316 80.9398 13.63 78.1377 11.441C77.7338 11.1254 77.2753 10.866 76.8384 10.5992C74.6346 9.25356 72.9775 9.1662 70.4688 9.48821C70.2149 9.23609 69.9513 9.02174 69.6657 8.80666C69.4923 8.88368 69.26 9.01338 69.0687 9.01362C68.7415 9.01424 68.5172 8.7599 68.2999 8.54887C68.0513 8.70059 67.7881 8.88516 67.5163 8.98914C67.3016 9.07121 67.102 9.0872 66.8878 8.99836C66.8076 8.90583 66.7643 8.87642 66.7337 8.7535C66.6034 8.22883 67.0623 7.62368 67.3171 7.20508Z" fill="#F7F5F6"/>
<path d="M64.468 26.873C63.9152 27.1798 63.7729 28.3478 63.4915 28.9278C63.032 29.8753 62.4756 30.8003 61.8261 31.6299C61.1412 32.5048 60.3394 33.2301 59.8827 34.2635C59.9393 34.4983 60.0007 34.7269 60.1027 34.9466C60.4046 35.5973 60.9806 36.0523 61.6441 36.2977C62.5539 36.6344 63.4625 36.6002 64.341 36.1957C64.6037 36.0629 64.8131 35.9166 65.0421 35.7329C65.1363 35.4504 65.2474 35.2298 65.1114 34.9431C64.632 34.6442 63.3425 35.2364 62.6652 35.1836C61.9863 35.1307 61.5942 34.8162 61.1612 34.3324C61.5284 33.7033 62.0548 33.1339 62.4967 32.5534C63.4371 31.3179 64.5101 29.561 64.6976 27.9872C64.7498 27.5493 64.7439 27.2253 64.468 26.873Z" fill="#151314"/>
<path d="M73.6384 20.9022C72.6597 20.8019 71.7641 20.9404 70.8771 21.3688C70.4264 21.5864 69.7514 21.9159 69.58 22.4116C69.5876 22.5908 69.6074 22.6725 69.6992 22.8337C70.2261 23.166 71.0421 22.3237 71.524 22.0991C71.9886 21.8827 72.7847 21.7868 73.2912 21.8189C73.3088 21.82 73.3265 21.8219 73.3441 21.8232C74.1064 21.8877 75.1689 22.1032 75.7444 22.6363C76.0254 22.8967 76.2649 23.305 76.6365 23.436C76.7885 23.4897 76.8514 23.485 76.9969 23.4225C77.0284 23.3574 77.0371 23.3499 77.0483 23.2683C77.0798 23.0366 76.8894 22.6747 76.7525 22.4991C75.9724 21.4985 74.8693 21.0367 73.6384 20.9022Z" fill="#151314"/>
<path d="M70.1766 36.6592C70.1303 36.6627 70.0747 36.665 70.0309 36.6795C69.8783 36.7301 69.8468 36.7843 69.7651 36.9118C69.7545 37.2921 70.0348 37.5599 70.2601 37.8378C70.1927 37.9241 70.1233 38.0059 70.0475 38.0853C68.923 39.2617 67.2888 39.5854 65.7367 39.6241C65.4909 39.6301 65.1806 39.638 65.0023 39.8257C65.0077 39.9556 65.055 40.0131 65.1549 40.0929C65.6369 40.4781 66.4677 40.3999 67.0464 40.3747C68.3926 40.1661 69.6179 39.4133 70.6572 38.5722C70.7949 38.7625 70.9332 38.9626 71.099 39.1298C71.2359 39.2679 71.3967 39.3797 71.5964 39.3768L71.6786 39.29C71.716 39.1258 71.7209 39.0051 71.6819 38.8394C71.5159 38.1334 70.7875 37.0577 70.1766 36.6592Z" fill="#151314"/>
<path d="M72.9739 27.8271C72.8962 27.8399 72.8174 27.8504 72.7448 27.8834C72.4486 28.018 72.2355 28.3057 72.1478 28.6116C71.9466 29.3132 72.101 30.4825 72.4671 31.103C72.6472 31.4084 72.8522 31.5013 73.1847 31.5941C73.2975 31.5871 73.4096 31.585 73.5146 31.5382C73.74 31.4378 73.904 31.2368 73.9889 31.009C74.2451 30.322 74.0447 28.9808 73.7191 28.3441C73.5578 28.0288 73.297 27.924 72.9739 27.8271Z" fill="#151314"/>
<path d="M59.4856 20.2285C58.9706 20.2685 58.4675 20.3316 58.0116 20.5948C57.6993 20.7752 57.2621 21.1447 57.1739 21.5105C57.1327 21.6816 57.1433 21.8313 57.2329 21.9851C57.7212 22.1873 58.389 21.4472 58.8425 21.2691C59.0845 21.1743 59.3937 21.1553 59.6515 21.1211C60.0567 21.2854 60.4408 21.457 60.8096 21.6934C61.3672 21.9808 62.0708 23.0238 62.5568 23.0774C62.6836 22.9885 62.7519 22.9399 62.7942 22.7778C62.8456 22.5801 62.6967 22.3343 62.5897 22.1786C61.8593 21.1168 60.7387 20.4475 59.4856 20.2285Z" fill="#151314"/>
<path d="M59.1082 27.1377C59.0621 27.143 59.0158 27.1483 58.9701 27.1565C58.7257 27.2003 58.5485 27.2834 58.4128 27.5027C58.0812 28.0382 58.1658 28.9832 58.3003 29.581C58.3802 29.9361 58.4709 30.0821 58.7748 30.2808C58.8506 30.2861 58.9265 30.2911 59.0025 30.2905C59.207 30.2886 59.372 30.2117 59.5099 30.0576C59.8733 29.6511 59.8682 28.8279 59.7934 28.3132C59.7142 27.7686 59.5517 27.4576 59.1082 27.1377Z" fill="#151314"/>
<path d="M60.2428 64.4307C60.1003 65.2401 60.4196 67.05 60.5695 67.905C60.7071 68.6755 60.8604 69.4429 61.0296 70.2071C61.1988 70.9713 61.3837 71.7317 61.5843 72.4883C61.7848 73.2448 62.0008 73.9969 62.2324 74.7446C62.4639 75.4923 62.7108 76.2349 62.973 76.9723C63.2352 77.7098 63.5125 78.4416 63.8049 79.1676C64.0973 79.8937 64.4044 80.6134 64.7264 81.3267C65.0485 82.0402 65.3851 82.7466 65.7363 83.4461C66.0874 84.1456 66.4529 84.8375 66.8326 85.522C67.2814 86.3479 67.7507 87.1872 68.2709 87.9694C68.7959 88.7588 69.4694 89.5213 69.8613 90.3843C69.9681 90.6196 69.9972 90.8809 70.0317 91.1347C70.7109 91.6678 71.0541 92.4025 71.5202 93.1054C71.5302 93.0832 71.5398 93.061 71.5498 93.0389C71.5637 93.0089 71.5788 92.9795 71.5922 92.9494C71.693 92.7212 71.9516 92.4676 72.188 92.3714C72.6923 92.1662 73.0297 91.6811 73.3931 91.2864C75.9083 88.5539 77.8222 85.294 79.6167 82.0627C82.1881 77.0719 83.8239 72.2309 84.9873 66.7425C84.2051 67.2696 83.5705 67.3845 82.6445 67.4729C82.5417 67.8313 82.4178 68.1816 82.2351 68.5076C81.6904 69.4793 80.8172 70.079 79.7577 70.3752C78.3148 70.7785 76.8444 70.5681 75.5519 69.8501C75.0387 70.0949 74.6204 70.4298 74.1327 70.7063C73.0276 71.3331 71.7336 71.4641 70.4957 71.2796C69.1536 71.0795 68.3471 70.2807 67.571 69.2264C67.446 69.2797 67.3223 69.3257 67.1928 69.3673C66.0546 69.7331 64.7249 69.7538 63.6527 69.1678C62.1445 68.3439 61.6533 66.6199 61.218 65.0881L61.0718 64.9982L61.0811 65.0042C60.8243 64.7704 60.5129 64.6491 60.2428 64.4307Z" fill="#F7F5F6"/>
<path d="M111.567 76.4892C112.539 76.0692 113.507 75.5524 114.169 74.6993C114.788 73.9032 114.905 72.8463 114.775 71.8709C114.649 70.9218 114.291 69.9643 113.923 69.0858C112.967 66.7973 111.69 65.7282 109.666 64.4137C109.191 64.1051 108.68 63.8294 108.234 63.4798C108.218 63.4669 108.202 63.4536 108.185 63.4404C107.957 63.5886 107.735 63.7488 107.511 63.9031C106.932 64.144 106.393 64.5482 105.848 64.8627C108.245 67.2361 109.163 69.2959 110.143 72.4664C110.327 73.0616 110.437 73.9257 110.802 74.4206C111.135 75.0862 111.358 75.7767 111.567 76.4892Z" fill="#151314"/>
<path d="M111.567 76.4892C112.539 76.0692 113.507 75.5524 114.169 74.6993C114.788 73.9032 114.905 72.8463 114.775 71.8709C114.649 70.9218 114.291 69.9643 113.923 69.0858C112.967 66.7973 111.69 65.7282 109.666 64.4137C109.191 64.1051 108.68 63.8294 108.234 63.4798C108.218 63.4669 108.202 63.4536 108.185 63.4404C107.957 63.5886 107.735 63.7488 107.511 63.9031C108.352 64.3342 109.268 64.7373 110.057 65.2564C111.501 66.2069 113.138 67.9626 113.666 69.6438C113.935 70.5004 113.911 71.3857 113.476 72.1839C112.884 73.2671 111.865 73.8723 110.802 74.4206C111.135 75.0862 111.358 75.7767 111.567 76.4892Z" fill="#F7F5F6"/>
<path d="M48.9517 37.0483L48.9336 36.7758L48.8637 36.7246C48.2651 37.2511 47.2991 40.0073 47.0877 40.8286C46.9236 41.4657 46.8057 42.1249 46.7645 42.7822C46.6538 44.5484 46.9811 46.2161 47.427 47.9125C47.7412 47.5941 48.0786 47.3041 48.2302 46.8718C48.3007 46.8335 48.3215 46.8265 48.3891 46.7651C49.0112 46.2001 49.2189 45.4127 49.1984 44.6061C49.4083 44.2236 49.2309 43.0332 49.2088 42.5925C49.2345 41.47 49.0893 40.3608 49.0715 39.2401C49.0233 38.5058 48.9658 37.7845 48.9517 37.0483Z" fill="#F7F5F6"/>
<path d="M49.2098 42.5923C49.0052 42.5521 48.9115 42.5032 48.7168 42.5867C48.6738 42.6783 48.6352 42.7651 48.6017 42.8609C48.5441 43.9819 48.3474 45.1362 48.3534 46.2536C48.2974 46.4589 48.2628 46.6612 48.2312 46.8716C48.3017 46.8334 48.3225 46.8264 48.3901 46.765C49.0122 46.1999 49.2199 45.4125 49.1993 44.606C49.4093 44.2234 49.2318 43.0331 49.2098 42.5923Z" fill="#151314"/>
<path d="M49.1988 44.6064L49.0566 44.7967C49.0632 44.8229 49.07 44.849 49.0763 44.8753C49.1218 45.0665 49.1455 45.1113 49.0486 45.2805L48.9765 45.3045C48.8123 45.3607 48.6858 45.3877 48.5831 45.538C48.5219 45.7216 48.5397 45.8283 48.5778 46.0105C48.5073 46.1642 48.5002 46.1702 48.3529 46.254C48.2969 46.4594 48.2623 46.6617 48.2307 46.8721C48.3012 46.8338 48.322 46.8268 48.3895 46.7654C49.0117 46.2004 49.2194 45.413 49.1988 44.6064Z" fill="#151314"/>
<path d="M49.0725 39.2402C49.0467 39.4616 49.0573 39.7867 48.9166 39.9649L48.8135 39.9591C48.7588 39.8937 48.7184 39.8155 48.6369 39.7871L48.5331 39.9212C48.5445 40.9024 48.6106 41.8793 48.6017 42.8613C48.6352 42.7654 48.6739 42.6787 48.7168 42.587C48.9116 42.5036 49.0052 42.5524 49.2098 42.5926C49.2356 41.4702 49.0904 40.3609 49.0725 39.2402Z" fill="#151314"/>
<path d="M48.9524 37.0488L48.897 37.4411C48.7757 38.3044 48.5658 39.0263 48.5328 39.9215L48.6367 39.7874C48.7181 39.8158 48.7585 39.894 48.8133 39.9594L48.9164 39.9652C49.057 39.787 49.0464 39.4619 49.0723 39.2405C49.024 38.5063 48.9666 37.785 48.9524 37.0488Z" fill="#151314"/>
<path d="M46.9072 50.2602C46.8466 50.105 46.8402 49.9854 46.6898 49.9023C46.2701 50.0107 45.8854 50.2663 45.5146 50.4847C43.9428 51.4106 42.4003 52.5872 41.4569 54.1775C40.2663 56.1843 40.0715 58.0024 40.4743 60.2656C40.5974 60.1074 41.395 58.4695 41.3748 58.4176C41.3138 58.2607 41.2223 58.277 41.2147 58.072C41.1181 55.4804 43.8167 53.0762 45.5663 51.4631C45.9898 51.0726 46.4908 50.7268 46.8733 50.2992C46.8848 50.2864 46.8959 50.2732 46.9072 50.2602Z" fill="#F7F5F6"/>
<path d="M76.8279 6.6084C75.5733 7.14414 74.1521 7.51612 73.0132 8.27962C73.8551 8.33647 74.6707 8.44844 75.5011 8.59241C75.6474 8.6276 75.8194 8.68543 75.9679 8.64236C76.4112 8.51366 76.859 8.25956 77.3023 8.10219C77.9659 7.8668 78.6795 7.75889 79.3662 7.60889C78.5432 7.23089 77.6938 6.87467 76.8279 6.6084Z" fill="#F7F5F6"/>
<path d="M73.2451 5.83003L72.6963 5.82031C71.7687 6.42644 70.9688 7.11046 70.1609 7.86301C70.4256 7.98692 70.7407 8.17001 71.0308 8.21C71.4188 8.26341 71.6315 8.06567 71.9121 7.83742C73.0621 7.07477 74.3142 6.60252 75.6357 6.22932C74.8565 6.04906 74.0415 5.90103 73.2451 5.83003Z" fill="#F7F5F6"/>
<path d="M81.0427 10.7515C80.6508 10.7011 80.2627 10.708 79.8684 10.7112C80.2293 11.0934 80.5415 11.5454 80.9487 11.8788C81.0837 11.9893 81.2398 12.0828 81.4053 12.1395C81.7655 12.2628 82.1792 12.2716 82.5531 12.3511C83.0496 12.4566 83.5359 12.6312 84.0179 12.7894C84.338 12.9181 84.68 12.9956 85.0127 13.0858L84.5176 12.4475C83.3757 10.9784 82.8169 10.9729 81.0427 10.7515Z" fill="#F7F5F6"/>
<path d="M80.3781 8.19434L80.2423 8.21501C79.7282 8.29462 77.8314 8.57701 77.5152 9.00768C77.6622 9.22313 78.1437 9.31554 78.3754 9.46246C78.5562 9.57714 78.7193 9.74054 78.8772 9.88475L79.7818 9.7734C80.7694 9.69169 81.5754 9.86753 82.5244 10.1104C81.8618 9.3922 81.1406 8.79985 80.3781 8.19434Z" fill="#F7F5F6"/>
<path d="M81.9911 13.1992C81.9213 13.2086 81.9598 13.1942 81.8946 13.2761C81.9912 13.616 82.2821 13.9957 82.4669 14.3011C82.4866 14.3052 82.5064 14.309 82.5261 14.3135C83.7751 14.6002 85.494 15.598 86.1766 16.7019L86.231 16.7021C86.2513 16.3173 85.5399 14.5617 85.2941 14.2036C84.2233 13.8189 83.0955 13.471 81.9911 13.1992Z" fill="#F7F5F6"/>
<path d="M83.1717 15.6523L83.1316 15.6954C83.1789 15.9936 83.454 16.4818 83.6793 16.6814C83.6997 16.6995 83.7214 16.7161 83.7419 16.734C84.2414 17.1717 84.8526 17.4285 85.3663 17.8712L85.418 17.8102C85.4124 17.762 85.4086 17.7105 85.3966 17.6629C85.1412 16.6559 83.9809 16.1615 83.1717 15.6523Z" fill="#F7F5F6"/>
<path d="M71.5156 5.74301C71.1001 5.72049 70.3886 5.74929 70.0053 5.91602C69.7756 6.01593 68.9705 7.42223 68.835 7.72997C68.9035 7.74437 68.9825 7.74683 69.0485 7.71472C69.2998 7.59253 69.7878 6.9725 70.0269 6.75446C70.4927 6.32958 70.9522 6.02577 71.5156 5.74301Z" fill="#F7F5F6"/>
<path d="M84.3421 18.3535C84.3846 18.8973 85.5295 20.0538 85.9227 20.5215C85.9243 20.4979 85.9288 20.4742 85.9275 20.4506C85.8902 19.7279 84.8363 18.7864 84.3421 18.3535Z" fill="#F7F5F6"/>
<path d="M27.9573 47.2789C27.754 47.2608 27.5442 47.255 27.3401 47.259C26.1974 47.2818 25.0425 47.8144 24.2622 48.6423C22.6931 50.3074 21.357 53.0672 21.4096 55.3885C20.4911 55.1205 19.5965 54.8555 18.6398 54.7596C15.5451 54.4495 9.39852 55.0394 6.63686 56.4714C4.58837 57.5338 5.99431 58.1658 5.72262 59.0298C5.55688 59.0595 5.37809 59.0914 5.22219 59.1577C4.70933 59.3756 4.31201 60.0563 4.12584 60.5666C3.60978 61.9805 4.67487 62.4317 4.7492 62.776C4.84898 63.2382 4.34388 63.5171 4.86166 64.5914C5.42804 65.7668 6.60289 66.2 7.74538 66.608C7.60769 66.7583 7.46312 66.9205 7.35582 67.0936C7.16608 67.3995 7.13852 67.8404 7.22969 68.1814C7.70982 69.9768 11.5274 71.0695 13.1498 71.2552C13.6844 71.3163 14.7706 71.1691 15.2126 71.3654C15.605 71.5395 15.9798 73.1772 16.339 73.6305C16.6674 74.045 17.1422 74.3083 17.5902 74.5715C17.5399 75.8062 17.4293 77.1116 17.5574 78.3408C17.6589 79.3155 17.9462 80.248 18.2424 81.1777C18.4834 81.9339 18.708 82.7242 19.0164 83.4561C20.3733 86.6764 23.0743 90.702 25.4736 93.2542C26.5759 94.4267 27.8669 95.4681 29.1211 96.4752C30.9391 97.935 35.1787 100.2 37.5187 99.9261C40.5293 99.5737 44.3091 95.5552 45.8519 93.1376C46.1882 92.6106 46.4451 92.0539 46.6985 91.4834C46.7788 91.3023 46.8365 90.986 46.9489 90.842C47.0958 91.7331 47.0446 92.7639 47.2405 93.6317C47.2981 93.8867 47.4785 94.1936 47.7129 94.3219C47.8622 94.4037 47.9407 94.386 48.0975 94.3418C48.3703 94.0783 48.4212 93.7014 48.4583 93.3381C48.6841 91.1282 48.2091 88.9964 47.806 86.8447C47.6504 86.0139 47.5987 84.8115 47.0296 84.156C46.9177 84.0271 46.8167 83.9642 46.6447 83.9463C46.473 84.0389 46.3904 84.1708 46.34 84.3594C46.0637 85.3929 46.5444 87.6475 46.363 88.921C46.2373 89.8042 45.8464 90.591 45.4665 91.3877C45.2997 90.7543 45.2196 90.0956 45.0821 89.4548C44.6777 87.5693 43.9437 85.7157 42.6088 84.2934C41.9715 83.6145 38.6829 80.6963 37.8621 80.6707C37.6802 80.7634 37.6507 80.8484 37.5435 81.0184C37.8884 81.6492 39.2251 82.6813 39.8049 83.2571C40.5852 84.022 41.3065 84.839 41.9688 85.7082C43.511 87.7731 43.8259 89.7673 44.927 91.9323L44.965 92.0053C44.679 92.391 44.4383 92.7987 44.1317 93.1726C42.988 94.5675 40.6834 96.8193 39.1784 97.7811C38.5702 98.1698 38.0449 98.3593 37.3225 98.1918C35.7648 97.8308 34.2269 96.5516 33.0216 95.5421C28.1194 91.4368 25.0202 87.4564 22.2787 81.6487C21.7745 80.5806 21.2627 79.3456 20.9499 78.2073C20.8173 77.7245 20.8843 77.0534 20.5976 76.6369C20.5233 76.5289 20.5631 76.566 20.419 76.5339C20.3095 76.5784 20.1966 76.6221 20.103 76.6967C19.9326 76.8323 19.8955 77.0473 19.8861 77.2528C19.7558 80.0772 24.5717 88.3921 26.3657 90.8195C27.6595 92.57 29.1998 94.1493 30.6802 95.7412C29.717 95.1619 28.5885 94.1712 27.7921 93.3691C27.2271 92.805 26.6841 92.2205 26.1629 91.6156C25.6419 91.0107 25.1441 90.3872 24.6697 89.745C22.451 86.6993 19.3186 80.9855 18.6941 77.2912C18.5651 76.5281 18.6296 75.705 18.6352 74.9317C20.0303 74.9537 21.9226 74.936 23.2334 74.4715C24.2497 74.1113 25.0661 73.3965 25.5215 72.4145C25.8784 71.6447 26.0932 70.5918 25.7746 69.7801C25.5373 69.1757 25.1008 68.9388 24.5396 68.6978C24.9825 66.8741 25.4885 65.0863 25.6546 63.2056C25.8455 61.0431 25.4778 58.6533 26.1253 56.593C26.7505 54.6038 28.0919 52.9277 28.9556 51.055C29.3143 50.2775 29.7593 49.1765 29.4194 48.3275C29.1733 47.7131 28.518 47.5074 27.9573 47.2789Z" fill="#151314"/>
<path d="M27.4061 48.6982C27.0346 48.6996 26.6536 48.8284 26.3245 48.9945C24.229 50.053 23.3523 52.8572 22.7139 54.9379C22.5917 55.3363 22.5254 55.7556 22.38 56.1454C22.1932 56.6456 21.7601 56.6083 21.296 56.6057C20.2819 56.6003 19.2578 56.4255 18.2402 56.385C15.1831 56.2637 12.0455 56.4173 9.06937 57.1617C8.58161 57.2836 7.99862 57.4107 7.54839 57.6297C7.36074 57.721 7.25726 57.8234 7.1827 58.0224C7.18614 58.127 7.18958 58.2078 7.24729 58.3002C7.7385 59.0872 10.4962 58.865 11.4053 58.909C11.9826 58.9371 12.5793 59.0188 13.1314 59.1949C13.4642 59.3011 14.0851 59.5206 14.2173 59.8591C14.2707 59.9958 14.2674 60.1475 14.1954 60.2772C14.0893 60.4683 13.8873 60.5625 13.6778 60.5837C13.0326 60.6488 12.049 60.4133 11.3756 60.3465C10.4703 60.2567 9.57965 60.3007 8.67304 60.2959C7.83325 60.2915 6.94287 60.0749 6.12486 60.3552C5.872 60.442 5.57854 60.6164 5.47604 60.879C5.40135 61.0704 5.39212 61.2573 5.46976 61.4496C5.58961 61.7469 5.87557 61.9323 6.17629 62.0103C6.78415 62.1683 7.51443 62.0789 8.14209 62.1089C9.86623 62.1916 11.691 62.4075 13.2957 63.0755C13.5245 63.1709 13.9022 63.4498 13.9569 63.7074C13.9948 63.8855 13.9556 63.9166 13.8585 64.0557C13.6723 64.1566 13.5446 64.1989 13.331 64.1934C12.8031 64.1796 12.234 63.9793 11.7218 63.8538C10.9985 63.6767 10.2591 63.528 9.51541 63.4704L9.41267 63.4631C8.69519 63.3542 8.00194 63.3726 7.28396 63.3382C7.01449 63.3253 6.6894 63.2373 6.42472 63.2704C6.30094 63.2861 6.23056 63.3264 6.12782 63.3924C6.07343 63.4796 6.02286 63.5292 6.01793 63.636C6.00194 63.9805 6.2858 64.3774 6.5709 64.5515C7.40947 65.0641 10.1887 65.61 11.2233 65.794C11.7994 65.8964 12.418 65.9386 12.9799 66.0972C13.1705 66.151 13.3647 66.2026 13.4936 66.3658C13.6206 66.5264 13.6823 66.8071 13.6233 67.0052C13.3707 67.855 9.91212 67.0045 9.04107 67.4779C8.87988 67.5654 8.77935 67.6807 8.73432 67.8607C8.76053 67.9279 8.78403 67.9906 8.82771 68.049C9.46989 68.9041 12.6445 69.7171 13.6963 69.8814C14.4022 69.9916 15.2068 69.9099 15.8832 70.1409C16.6289 70.3956 16.8266 71.0687 17.9568 71.2868C19.6026 71.6044 21.7165 70.5068 23.0465 69.6045C23.0048 69.4192 22.956 69.2227 22.9894 69.0322C23.0728 68.5583 23.2835 68.0694 23.416 67.6037C23.6427 66.8067 23.837 65.9853 24.0052 65.1736C24.1857 64.3021 24.3165 63.4113 24.3502 62.5213C24.4299 60.4116 24.2228 58.376 24.8231 56.3147C25.4555 54.1426 26.7726 52.2462 27.7527 50.2317C27.9066 49.9153 28.1738 49.3461 28.0042 49.0054C27.8896 48.775 27.6309 48.7446 27.4061 48.6982Z" fill="#F7F5F6"/>
<path d="M18.1469 58.0039C17.7723 58.0487 17.5425 58.1912 17.311 58.4945C16.1891 59.9658 16.0243 64.8369 16.2691 66.7002C16.368 66.7331 16.4718 66.7475 16.5741 66.7669C16.6536 66.7408 16.7211 66.7383 16.7728 66.6663C17.0476 66.2836 17.0198 64.8538 17.0539 64.3337C17.1087 63.498 17.1615 62.6167 17.312 61.7921C17.4844 60.8475 18.2367 58.7888 18.1469 58.0039Z" fill="#151314"/>
<path d="M24.2687 69.7441C23.9288 69.9007 23.4809 70.7542 23.2306 71.109C23.3782 71.1255 23.5122 71.1503 23.6555 71.1893C23.7722 71.3191 23.8039 71.3468 23.8035 71.5318C23.8025 71.8984 23.3944 72.3589 23.1238 72.5682C22.8759 72.7601 22.5886 72.8822 22.2717 72.8322C22.0673 72.8 21.7788 72.6718 21.6508 72.5101C21.7479 72.1594 22.5942 72.0865 22.8893 71.8278C22.9057 71.6851 22.9193 71.5763 22.8902 71.4337C22.6374 71.3944 21.902 71.8599 21.6027 71.9692C21.0767 72.1612 20.5145 72.3036 19.9618 72.3924C19.2277 72.5101 18.3718 72.5583 17.6349 72.441C17.3922 72.4022 17.1052 72.1883 16.8759 72.2105C16.8472 72.2132 16.8189 72.2184 16.7904 72.2223C16.914 72.4026 17.0374 72.5982 17.192 72.7539C17.5671 73.132 17.9322 72.7242 18.3503 72.7344C18.6527 72.7417 18.9153 72.9438 19.1153 73.1518C19.1676 73.3211 19.1676 73.311 19.0903 73.4709C18.9256 73.5844 18.8233 73.6215 18.627 73.6603C18.3689 73.5193 18.089 73.4442 17.8096 73.357C18.0448 73.5437 18.29 73.7371 18.5859 73.8153C19.7051 74.1111 22.4671 73.6623 23.4222 73.0441C23.9997 72.6702 24.5642 72.0468 24.6992 71.3533C24.8168 70.7492 24.5989 70.2379 24.2687 69.7441Z" fill="#F7F5F6"/>
<path d="M20.6783 72.7461C20.4495 72.7304 20.2113 72.7117 19.9827 72.7255C19.7998 72.7365 19.6945 72.8002 19.5697 72.9326C19.5 73.1489 19.5137 73.2031 19.5544 73.4189C19.6578 73.4279 19.7609 73.4335 19.8648 73.438C20.1103 73.4485 20.3796 73.4613 20.5581 73.2562C20.6875 73.1077 20.6793 72.9295 20.6783 72.7461Z" fill="#151314"/>
<path d="M49.2902 83.5752C48.9799 83.6222 48.6966 83.7248 48.4889 83.9699C48.3839 84.094 48.318 84.2495 48.3487 84.415C48.3932 84.6547 48.6071 84.8413 48.7832 84.9901C49.4375 85.5433 50.2539 85.9767 50.985 86.4239C51.977 87.0305 52.9958 87.6896 53.9088 88.4098C53.2355 88.0911 52.157 87.4539 51.4018 87.5892C51.2027 87.6248 50.9788 87.7774 50.8736 87.9516C50.7899 88.0903 50.7515 88.2281 50.8037 88.3873C50.8733 88.5998 51.0673 88.7645 51.2477 88.8832C52.0477 89.41 54.0401 90.0908 55.0203 90.5232C55.8708 90.8725 56.694 91.3379 57.4832 91.8089C57.6497 91.7621 57.8206 91.714 57.9797 91.6456C58.2445 91.5319 58.5067 91.3174 58.5991 91.0359C58.6908 90.7565 58.6033 90.483 58.462 90.2378C57.6457 88.8208 51.0279 84.0172 49.2902 83.5752Z" fill="#151314"/>
<path d="M43.4036 67.5156L43.2721 67.5586C43.1482 67.6959 43.1338 67.6905 43.1308 67.8728C43.2623 68.1694 43.5159 68.3291 43.7839 68.4967C44.9667 69.2362 46.3143 69.7399 47.5168 70.4555C48.6817 71.1487 49.8143 71.8975 50.9814 72.586C52.2307 73.3231 53.5339 73.9862 54.8006 74.6949C55.8193 75.2651 56.8354 75.9515 57.9154 76.3895C58.1157 76.2 58.3067 75.9676 58.4584 75.7366C58.6296 75.4761 58.7426 75.1702 58.67 74.8567C58.3329 73.4012 52.1887 69.9302 50.7741 69.0708C50.3278 68.824 49.8826 68.3776 49.3896 68.239C49.2203 68.1914 49.1567 68.2025 49.0045 68.2836C48.9754 68.3498 48.9557 68.3857 48.9426 68.4612C48.9157 68.6157 48.9678 68.7707 49.0693 68.8859C49.2977 69.1448 49.9858 69.4721 50.3113 69.704C51.1771 70.3314 52.0556 70.9404 52.9467 71.5311C54.1466 72.3306 56.7856 73.9838 57.666 75.0424C56.0432 74.2666 54.4899 73.323 52.9367 72.4187C50.6962 71.1143 48.4328 69.8133 46.104 68.673C45.2535 68.2566 44.3321 67.7267 43.4036 67.5156Z" fill="#151314"/>
<path d="M101.111 73.2197L100.919 73.2384C100.722 73.3801 100.578 73.9643 100.476 74.2191C100.217 74.8662 99.8167 75.4867 99.4742 76.0957C97.1775 80.1799 93.5922 84.7049 89.674 87.3018C88.4355 88.1227 87.0516 88.6369 85.6966 89.2233C85.2351 89.423 84.428 89.3017 84.0848 89.6515C83.9779 89.7605 83.9101 89.974 83.9272 90.1288C83.9438 90.2786 83.995 90.2938 84.1077 90.3768C84.3421 90.4142 84.5956 90.4639 84.8333 90.45C85.5467 90.4084 86.311 90.061 86.9649 89.7945C90.2733 88.4454 92.1739 86.7719 94.6068 84.2214C96.9346 81.781 98.9454 78.91 100.534 75.9419C100.833 75.3831 101.469 74.2542 101.378 73.607C101.349 73.4018 101.253 73.3516 101.111 73.2197Z" fill="#151314"/>
<path d="M51.0676 93.5018C50.5846 93.4527 49.98 93.4584 49.5651 93.7508C49.4337 93.8435 49.4041 93.9082 49.3757 94.0612C49.421 94.1975 49.4869 94.2711 49.5932 94.363C50.6533 95.2793 64.6317 94.9767 66.9453 94.8071C67.346 94.7539 67.8959 94.8448 68.2558 94.6641C68.4102 94.5867 68.4523 94.4827 68.5137 94.3316C68.5027 94.2243 68.4989 94.1275 68.4306 94.0375C68.2875 93.8491 68.0588 93.8138 67.8402 93.8143C66.0712 93.8184 64.2982 93.9051 62.5285 93.924C60.6426 93.944 58.772 93.8535 56.8889 93.7986C55.9052 93.7698 54.9179 93.8148 53.9348 93.7758C52.9818 93.738 52.0168 93.6017 51.0676 93.5018Z" fill="#151314"/>
<path d="M46.9252 64.6338C46.6894 64.6826 46.5989 64.7376 46.456 64.9255C46.4328 65.0829 46.4157 65.1321 46.509 65.2745C46.8565 65.8042 54.7811 70.3964 55.8615 70.8648C56.113 70.9738 56.4329 70.9781 56.7039 71.002C56.7432 70.9983 56.784 71.0013 56.822 70.9908C56.9573 70.9531 57.0593 70.8411 57.1103 70.7143C57.1767 70.5489 57.1114 70.3162 57.0316 70.1647C56.8108 69.7454 56.3231 69.4203 55.9291 69.1719C54.2217 68.0953 52.2926 67.3327 50.4911 66.4254C49.3431 65.8472 48.1565 64.9935 46.9252 64.6338Z" fill="#151314"/>
<path d="M10.4232 37.0577C10.3041 37.0435 10.2084 37.047 10.0895 37.0638C9.91182 37.1801 9.75347 37.3092 9.69933 37.5266C9.6602 37.6837 9.7056 37.8701 9.8204 37.9865C10.0901 38.2603 10.5188 38.4568 10.8268 38.7075C11.8022 39.5012 12.565 40.3987 13.2448 41.4493C14.1037 42.7765 15.4104 45.6231 15.5463 47.1839C15.5992 47.7923 15.3687 48.5545 15.7134 49.0733C15.8347 49.0872 15.9299 49.0829 16.0481 49.0433C16.2118 48.9884 16.3338 48.8742 16.4121 48.7229C16.8128 47.9495 16.4179 46.3898 16.1871 45.5986C15.2633 42.4321 13.4076 38.7009 10.4232 37.0577Z" fill="#151314"/>
<path d="M4.35249 40.6797C4.0984 40.8168 3.83238 40.7684 3.56635 40.8533C3.40664 40.9044 3.24347 41.0264 3.19056 41.1917C3.16251 41.2793 3.17075 41.4635 3.2073 41.5474C3.24372 41.6313 3.60215 41.7651 3.6889 41.7986C4.37354 42.0627 5.01215 42.3242 5.58751 42.7935C7.57706 44.4161 8.64683 46.2591 9.8068 48.5042C9.94842 48.6745 10.124 48.7908 10.3387 48.8451C10.4308 48.816 10.4759 48.8224 10.5338 48.7362C10.6761 48.5242 10.6251 48.2223 10.5782 47.9867C10.4698 47.4406 10.092 46.8741 9.83165 46.3846C8.3541 43.6067 6.90793 42.3673 4.35249 40.6797Z" fill="#151314"/>
<path d="M49.5443 61.8497C49.4921 61.8485 49.456 61.845 49.4057 61.8514C49.2305 61.8736 48.9808 61.9694 48.8766 62.1155C48.8797 62.2263 48.8696 62.2689 48.9243 62.3705C49.4011 63.2554 52.5365 64.5038 53.5371 65.0677C54.3779 65.5416 55.2542 66.3249 56.1781 66.602C56.4137 66.542 56.7079 66.4819 56.8469 66.2591C56.8566 66.2437 56.8653 66.2277 56.873 66.2112C56.8808 66.1948 56.8876 66.1779 56.8933 66.1606C56.8991 66.1434 56.9038 66.1259 56.9075 66.108C56.9112 66.0902 56.9138 66.0722 56.9153 66.0541C56.9169 66.0359 56.9174 66.0178 56.9167 65.9996C56.9161 65.9814 56.9144 65.9634 56.9117 65.9453C56.9089 65.9273 56.9052 65.9096 56.9003 65.892C56.8954 65.8745 56.8895 65.8573 56.8826 65.8405C56.3862 64.6134 52.6932 63.3013 51.4186 62.7497C50.7818 62.4742 50.1625 62.1642 49.5443 61.8497Z" fill="#151314"/>
<path d="M0.910959 47.8529C0.726881 47.847 0.55424 47.8585 0.385051 47.9406C0.198758 48.0309 0.0380621 48.2387 0.00262451 48.4426C-0.0261683 48.6089 0.0264945 48.7254 0.12604 48.8546C0.304581 49.0863 0.612817 49.0587 0.874414 49.0939C1.34458 49.1573 1.83418 49.333 2.27838 49.4928C3.9795 50.1049 4.3762 50.8548 5.42702 52.224C5.62119 52.2372 5.85399 52.261 6.02651 52.1504C6.21686 52.0283 6.31641 51.7979 6.33572 51.58C6.39036 50.9628 5.99636 50.2812 5.60606 49.8269C4.68025 48.7494 2.29782 47.9479 0.910959 47.8529Z" fill="#151314"/>
<path d="M40.308 78.7808C40.1844 78.7718 40.0136 78.7551 39.8962 78.795C39.7426 78.8473 39.7167 78.9292 39.6641 79.0634C39.6751 79.2263 39.7184 79.324 39.8104 79.4551C40.3414 80.2102 42.7119 81.996 43.5557 82.4286C43.8109 82.5594 44.0564 82.6217 44.3382 82.6666C44.4398 82.649 44.5454 82.6321 44.6409 82.591C44.8032 82.521 44.9139 82.3897 44.9737 82.2267C45.0805 81.9348 45.06 81.6519 44.9137 81.3792C44.2925 80.2208 41.5482 79.153 40.308 78.7808Z" fill="#151314"/>
<path d="M53.0385 60.3782C52.7838 60.3638 52.6836 60.3695 52.4856 60.5284C52.459 60.6089 52.4207 60.6556 52.4565 60.7391C52.7019 61.3112 55.3476 62.7101 56.013 62.9686C56.2603 62.9289 56.4628 62.786 56.625 62.5994C56.6427 62.4577 56.6514 62.409 56.5849 62.2761C56.2556 61.6193 53.8002 60.6497 53.0385 60.3782Z" fill="#151314"/>
</g>
<defs>
<clipPath id="clip0_0_342">
<rect width="116" height="100" fill="white" transform="matrix(-1 0 0 1 116 0)"/>
</clipPath>
</defs>
</svg>
