<svg width="268" height="226" viewBox="0 0 268 226" fill="none" xmlns="http://www.w3.org/2000/svg">
<path d="M158.552 65.289C158.38 65.1172 158.38 65.1172 158.38 65.1172C158.552 65.1172 158.552 65.289 158.552 65.289Z" fill="#E0214D"/>
<path d="M160.099 73.7086C159.411 71.8187 160.614 70.616 161.989 69.5851C164.394 67.6951 166.112 65.2897 166.628 62.3689C166.628 62.0253 166.112 61.8534 166.112 62.1971C165.768 63.9152 164.909 65.6334 163.707 67.0079C162.504 68.2106 160.786 69.0696 159.755 70.2723C158.724 71.475 158.552 73.1932 159.24 74.7395C159.927 76.4576 161.301 77.6603 162.848 78.5194C163.707 78.863 164.222 77.8322 163.535 77.3167C162.16 76.2858 160.614 75.255 160.099 73.7086Z" fill="#E0214D"/>
<path d="M159.067 65.6332C159.239 65.8051 159.411 65.8051 159.583 65.8051C159.754 65.8051 159.754 65.8051 159.926 65.8051C160.098 65.8051 160.098 65.8051 160.27 65.8051C160.442 65.8051 160.614 65.8051 160.614 65.8051H160.785C161.129 65.6332 161.301 65.6332 161.473 65.2896C161.644 65.1178 161.816 64.946 161.816 64.7742C161.988 64.6024 161.988 64.4306 162.16 64.2587C162.16 64.0869 162.332 63.7433 162.332 63.5715C162.332 63.2279 162.332 62.8842 162.16 62.3688C162.16 62.197 161.988 62.0252 161.988 61.8533C161.816 61.6815 161.816 61.6815 161.644 61.5097C161.473 61.5097 161.473 61.5097 161.301 61.3379C161.129 61.3379 160.785 61.3379 160.614 61.3379C160.442 61.3379 160.442 61.3379 160.27 61.3379C160.098 61.3379 159.926 61.5097 159.754 61.5097C159.583 61.5097 159.411 61.6815 159.411 61.6815L159.239 61.8533C159.067 62.0252 159.067 62.0251 159.067 62.197V62.3688C158.895 62.5406 158.724 62.7124 158.724 62.8842C158.724 63.056 158.552 63.2278 158.552 63.2278C158.552 63.3997 158.552 63.5715 158.552 63.7433C158.552 63.9151 158.552 64.0869 158.552 64.2587C158.552 64.4306 158.724 64.6024 158.895 64.7742C158.724 65.4614 158.724 65.4614 159.067 65.6332Z" fill="#E0214D"/>
<path d="M179.169 61.8531C178.998 61.5095 178.826 61.3377 178.482 61.1659C178.138 60.9941 177.967 60.9941 177.623 60.8223C177.451 60.8223 177.451 60.8223 177.279 60.8223C176.936 60.8223 176.764 60.8223 176.592 61.1659C176.42 61.3377 176.248 61.5095 176.077 61.6813C175.733 61.6813 175.389 61.8531 175.218 62.025C174.874 62.3686 174.702 62.7122 174.702 63.2277C174.702 63.7431 174.874 64.0867 175.218 64.4304C175.389 64.6022 175.733 64.774 175.905 64.774C176.077 64.774 176.248 64.774 176.42 64.9458H176.592C177.108 64.9458 177.623 64.774 177.967 64.4304C178.31 64.2585 178.826 63.9149 178.998 63.5713C179.169 63.2277 179.169 63.0558 179.341 62.7122C179.513 62.3686 179.341 62.025 179.169 61.8531Z" fill="#E0214D"/>
<path d="M185.869 90.2031C185.354 90.3749 184.839 90.7186 184.323 91.0622C183.808 91.4058 183.292 91.5776 182.777 91.9213C182.433 92.0931 182.09 92.4367 182.09 92.9521C181.918 93.2958 181.746 93.6394 181.574 93.983C180.715 95.0139 179.169 95.873 177.794 95.3575C176.763 95.0139 176.42 96.5603 177.451 96.9039C179.169 97.4193 181.23 96.7321 182.433 95.3575C182.605 95.0139 182.777 94.6703 182.949 94.3267C182.949 94.1549 183.12 93.983 183.12 93.6394C183.12 93.4676 183.12 93.124 183.292 92.9521C183.464 92.7803 183.808 92.6085 183.98 92.6085L184.839 92.0931C185.354 91.7494 186.041 91.5776 186.385 91.0622C186.557 90.7186 186.213 90.2031 185.869 90.2031Z" fill="#E0214D"/>
<path d="M181.746 79.7218C181.918 78.8628 180.544 78.3473 180.372 79.3782C178.997 83.3299 177.966 88.1407 173.843 89.8588C171.953 90.5461 170.063 90.3743 168.517 89.1716C166.627 87.7971 165.252 85.9071 163.706 84.189C166.798 84.8762 169.891 84.7044 172.812 83.6735C176.076 82.6427 179.684 80.7527 181.574 77.8319C181.746 77.66 181.403 77.3164 181.231 77.4882C178.138 78.8627 175.561 80.9245 172.296 81.9554C168.86 82.9863 165.252 83.3299 161.644 82.299C160.785 81.9554 160.441 83.3299 161.3 83.6735C161.644 83.8454 161.988 83.8454 162.331 84.0172C161.988 84.3608 161.988 84.7044 162.331 85.0481C164.049 87.1098 165.768 89.5152 168.001 91.0616C169.891 92.4361 172.296 92.6079 174.53 91.7488C179.169 89.8589 181.059 84.5326 181.746 79.7218Z" fill="#E0214D"/>
<path d="M172.984 94.8428C171.953 95.1865 171.094 96.2174 169.891 96.3892C169.204 96.561 168.001 96.2174 167.83 95.5301C167.658 95.1865 166.97 95.0147 166.799 95.3583C166.627 95.5301 166.283 95.7019 166.111 95.8737C165.94 96.0455 165.596 96.0456 165.424 96.2174C164.909 96.3892 164.393 96.3892 164.05 96.2174C163.191 95.8737 162.503 94.8428 162.675 93.9838C162.675 93.4683 162.503 93.1247 161.988 92.9529C161.472 92.7811 160.957 93.1247 160.957 93.6402C160.613 95.5301 161.472 97.5919 163.362 98.2791C164.221 98.6228 165.252 98.6228 165.94 98.1073C166.283 97.9355 166.627 97.5919 166.97 97.2482L167.142 97.0764C167.658 97.7637 168.517 98.1073 169.548 98.1073C170.235 98.1073 171.094 97.9355 171.781 97.4201C172.469 96.9046 173.156 96.3892 173.499 95.7019C173.671 95.1865 173.328 94.671 172.984 94.8428Z" fill="#E0214D"/>
<path d="M191.025 79.0351C191.025 78.8633 190.853 78.6915 190.853 78.3478C190.853 78.176 190.509 78.3478 190.509 78.3478C190.509 78.5197 190.509 78.6915 190.337 78.8633C190.337 79.0351 190.337 79.2069 190.337 79.3787C190.337 79.7224 190.166 80.2378 190.166 80.5814C189.994 81.2687 189.478 81.9559 188.963 82.6432C188.619 82.9868 189.135 83.3305 189.478 83.1586C190.166 82.4714 190.509 81.7841 190.853 80.9251C191.025 80.5814 191.025 80.066 191.025 79.5505C191.197 79.5505 191.197 79.3787 191.025 79.0351Z" fill="#E0214D"/>
<path d="M194.975 77.1441C194.803 76.8004 194.459 76.8004 194.116 76.9722C193.772 77.144 193.772 77.4877 193.944 77.8313C194.288 78.3467 194.459 78.8622 194.631 79.5494V79.7213V79.8931C194.631 80.0649 194.631 80.2367 194.631 80.4085C194.631 80.5803 194.631 80.7521 194.631 80.924V81.0958C194.631 81.0958 194.631 81.4394 194.631 81.2676C194.631 81.6112 194.803 81.9548 195.147 82.1267C195.49 82.1267 195.834 81.9548 195.834 81.4394C196.006 79.8931 195.662 78.3468 194.975 77.1441Z" fill="#E0214D"/>
<path d="M202.363 69.2402C202.02 69.2402 201.848 69.4121 201.676 69.5839C201.504 70.4429 201.333 71.1302 200.989 71.9893C200.817 72.3329 200.645 72.6765 200.645 73.0202C200.474 73.3638 200.13 73.8792 200.302 74.2228C200.302 74.5665 200.645 74.7383 200.989 74.5665C201.333 74.3947 201.504 73.8792 201.676 73.5356C201.848 73.192 202.02 72.6765 202.192 72.3329C202.535 71.4738 202.707 70.7866 202.879 69.9275C202.707 69.5839 202.707 69.2402 202.363 69.2402Z" fill="#E0214D"/>
<path d="M203.91 64.6011C203.394 63.9138 202.363 64.6011 202.879 65.2883C203.394 66.1474 203.566 67.0065 203.566 68.0374C203.566 68.5528 203.566 68.8964 203.394 69.4119C203.394 69.7555 203.222 69.9273 203.222 70.2709C203.222 70.4428 203.222 70.7864 203.222 70.9582C203.222 71.4736 203.738 71.4736 204.081 71.3018C204.253 71.13 204.597 70.9582 204.769 70.6146C204.941 70.4428 204.941 70.0991 205.112 69.7555C205.284 69.2401 205.284 68.5528 205.284 67.8655C204.941 66.8347 204.425 65.632 203.91 64.6011Z" fill="#E0214D"/>
<path d="M231.572 139.17C227.62 139.342 224.012 137.108 220.06 137.452C216.624 137.624 213.188 138.827 210.095 140.201C204.081 142.95 198.927 147.589 195.319 153.087C194.975 153.603 195.834 154.118 196.178 153.603C199.958 148.105 205.284 143.809 211.469 141.404C214.734 140.201 218.342 138.998 221.778 139.342C225.215 139.686 228.307 141.404 231.915 140.717C232.774 140.717 232.603 138.998 231.572 139.17Z" fill="#E0214D"/>
<path d="M193.256 160.304C193.256 159.789 192.913 159.273 192.569 158.929C192.225 158.758 192.054 158.586 191.71 158.414C191.71 158.414 191.538 158.414 191.366 158.414C191.195 158.414 191.023 158.414 190.851 158.414C190.507 158.414 190.164 158.586 189.82 158.758C189.476 158.929 189.305 159.101 189.133 159.445C189.133 159.617 188.961 159.789 188.961 159.789V159.96C188.961 160.304 188.961 160.648 188.961 160.991C188.961 161.335 189.133 161.507 189.476 161.85C189.648 162.022 189.992 162.194 190.335 162.366C190.507 162.366 190.679 162.366 190.851 162.366C191.023 162.538 191.195 162.538 191.366 162.538C191.882 162.709 192.569 162.538 192.913 162.194C193.084 161.507 193.256 160.819 193.256 160.304Z" fill="#E0214D"/>
<path d="M257.343 151.026C255.281 146.387 252.36 142.091 248.752 138.311C245.316 134.703 241.192 131.611 236.725 129.377C231.914 126.972 226.245 125.254 222.808 120.615C222.465 120.099 221.949 120.099 221.606 120.271C221.262 119.755 220.918 119.24 220.747 118.896C217.31 113.055 213.015 106.869 205.971 105.323C205.627 104.979 205.455 104.636 205.111 104.292C205.111 103.433 205.283 102.574 205.283 101.715C205.971 95.3579 207.517 89.0008 209.75 82.9873C209.922 82.4718 209.063 82.1282 208.891 82.6436C205.971 88.6571 203.909 94.8425 202.878 101.371C202.362 104.464 202.191 107.729 202.191 110.993C202.191 114.086 202.019 117.522 203.393 120.443C203.737 121.13 204.94 120.958 204.94 120.271C205.455 117.35 204.768 114.257 204.596 111.508C204.596 109.79 204.596 107.9 204.596 106.182C206.486 109.618 208.548 112.883 210.266 116.491C211.469 119.068 211.812 121.817 210.266 124.394C209.063 126.456 207.173 128.003 205.627 129.721C199.957 135.906 194.459 143.294 191.538 151.197C191.195 150.854 190.851 150.51 190.507 150.338C189.992 149.823 189.133 150.682 189.648 151.197C190.164 151.713 190.679 152.228 191.366 152.744C191.366 152.916 191.366 153.259 191.538 153.431C192.569 154.462 193.772 155.493 194.803 156.696C195.834 157.726 197.723 158.757 197.208 160.475C196.864 161.678 195.834 163.224 195.318 164.255C194.631 165.63 193.944 167.004 193.256 168.379C192.054 170.956 192.054 172.846 192.225 175.595C192.569 178.344 192.569 181.265 193.6 184.014C193.944 184.873 194.974 184.701 195.146 183.842C195.49 180.749 194.974 177.657 194.631 174.564C194.459 172.846 194.631 171.643 195.318 169.925C195.834 168.551 196.521 167.176 197.036 165.63C197.723 164.084 198.411 162.709 198.926 161.163C199.27 160.132 199.442 159.101 198.754 158.242C198.067 157.211 196.864 156.352 195.834 155.493C196.005 155.493 196.005 155.321 196.005 155.149C196.005 154.977 195.662 154.634 195.49 154.462C195.318 154.118 194.974 153.946 194.631 153.775C194.115 153.431 193.6 153.087 193.084 152.744C192.913 152.572 192.741 152.4 192.397 152.228C194.974 147.933 197.38 143.638 200.301 139.514C203.222 135.219 206.83 131.782 210.266 127.831C213.187 124.566 214.218 120.958 212.499 116.663C211.125 113.227 209.063 110.134 206.83 107.213C212.843 109.618 216.279 115.976 219.2 121.474C220.918 124.566 222.637 127.487 224.87 130.236C226.932 132.985 228.994 135.734 230.712 138.655C231.227 139.514 232.602 138.999 232.43 137.968C231.399 134.36 229.337 131.611 227.104 128.69C226.245 127.659 225.557 126.628 224.698 125.425C226.932 127.144 229.509 128.346 232.086 129.549C236.725 131.782 241.021 134.36 244.801 138.14C248.409 141.576 251.501 145.699 253.735 150.167C256.14 154.977 256.999 160.132 258.889 164.943C259.061 165.286 259.748 165.458 259.92 164.943C261.123 160.304 259.233 155.321 257.343 151.026Z" fill="#E0214D"/>
<path d="M224.356 25.2556C224.012 24.7401 223.497 24.3965 222.81 24.3965C222.466 24.3965 222.122 24.7401 221.951 24.9119C221.779 25.0837 221.435 25.2556 221.263 25.4274C220.233 26.2864 219.373 27.1455 218.686 28.3482C218.343 28.8637 218.514 29.5509 219.03 29.7227C219.202 29.7227 219.202 29.7227 219.373 29.8945C219.202 29.8945 219.202 30.0664 219.03 30.0664H218.858C218.686 30.0664 218.686 30.2382 218.514 30.2382C218.343 30.41 218.171 30.41 217.999 30.5818C217.483 30.9254 217.655 31.7845 218.343 31.7845C218.686 31.7845 219.03 31.7845 219.202 31.7845C219.545 31.7845 219.717 31.6127 220.061 31.4409C220.576 31.269 220.92 30.9254 221.435 30.7536C222.294 30.0664 223.153 29.3791 223.669 28.52C224.356 27.3173 224.7 26.1146 224.356 25.2556Z" fill="#E0214D"/>
<path d="M227.965 32.816C227.278 32.1287 226.247 31.7851 225.216 31.6133C224.014 31.6133 222.983 31.9569 222.124 32.816C221.78 33.1596 222.124 33.8469 222.639 33.675C222.639 33.8469 222.467 33.8469 222.467 34.0187C222.295 33.8469 221.952 33.8469 221.78 33.675C221.265 33.675 220.749 34.0187 221.093 34.5341C221.265 34.8777 221.608 35.0496 221.952 35.2214C222.295 35.3932 222.467 35.565 222.811 35.565C223.498 35.9086 224.014 36.0804 224.701 36.2523C225.388 36.4241 226.075 36.4241 226.591 36.4241C227.278 36.4241 227.965 36.2523 228.309 35.7368C229.34 34.8777 228.824 33.5032 227.965 32.816Z" fill="#E0214D"/>
<path d="M164.051 55.8395C161.302 54.6368 158.037 56.0113 156.147 58.4167C155.632 59.104 156.834 59.963 157.35 59.2758C158.037 58.4167 159.068 57.7294 160.271 57.3858C160.786 57.214 161.302 57.214 161.989 57.214C162.504 57.214 163.192 57.214 163.707 57.3858C164.566 57.5576 164.91 56.3549 164.051 55.8395Z" fill="#E0214D"/>
<path d="M186.387 56.0095C185.356 55.3222 184.325 54.8068 183.122 54.635C180.717 54.1195 178.312 54.1195 175.906 54.9786C174.704 55.494 175.219 57.384 176.422 56.8686C178.312 56.1813 180.373 56.3531 182.435 56.8686C183.294 57.2122 184.325 57.7276 185.012 58.2431C185.871 58.7585 186.902 59.6176 187.933 59.4458C188.105 59.4458 188.277 59.274 188.277 59.1021C188.449 58.5867 188.105 57.8994 187.761 57.5558C187.59 56.6967 186.902 56.3531 186.387 56.0095Z" fill="#E0214D"/>
<path d="M154.088 75.2532C153.572 76.2841 153.057 77.4868 153.057 78.6895C153.057 79.2049 153.228 79.7204 153.4 80.2358C153.572 80.4076 153.572 80.5795 153.744 80.9231C153.916 81.0949 154.088 81.2667 154.431 81.2667C154.775 81.4385 154.947 80.9231 154.775 80.7513C154.603 80.5795 154.603 80.4076 154.431 80.2358C154.259 80.064 154.259 79.8922 154.088 79.7204C153.916 79.3768 153.916 79.0331 153.916 78.5177C153.916 77.4868 154.431 76.4559 154.775 75.5969C154.947 75.2532 154.259 74.7378 154.088 75.2532Z" fill="#E0214D"/>
<path d="M156.492 85.3906C156.148 85.3906 155.805 85.5624 155.805 85.7343C155.633 86.7651 155.633 87.6242 155.805 88.6551C155.976 89.1705 155.976 89.5142 156.32 90.0296C156.492 90.5451 156.836 90.8887 157.179 91.2323C157.351 91.4041 157.695 91.4041 157.866 91.2323C157.866 91.2323 157.866 91.2323 158.038 91.0605C158.21 90.8887 158.21 90.7169 158.21 90.545C158.21 90.3732 158.038 90.2014 157.866 89.8578C157.866 89.686 157.695 89.686 157.695 89.5142C157.523 89.1705 157.351 88.8269 157.351 88.3115C157.179 87.6242 157.007 86.937 157.179 86.0779C157.007 85.9061 156.836 85.5624 156.492 85.3906Z" fill="#E0214D"/>
<path d="M192.059 101.025C191.543 101.197 191.2 101.713 191.028 102.056C190.684 102.572 190.169 102.915 189.653 103.431C188.107 104.633 184.327 106.695 182.953 104.462C182.609 103.946 181.922 104.29 181.922 104.805C181.922 104.977 181.922 104.977 182.093 105.149C182.093 105.664 180.891 106.352 180.547 106.523C180.032 106.695 179.516 106.867 179.001 106.867C177.798 107.039 176.595 106.695 175.736 106.008C174.877 105.321 173.503 106.523 174.362 107.382C175.908 108.585 177.97 109.272 179.86 108.757C180.891 108.413 182.265 107.726 182.781 106.523C183.983 107.554 186.217 107.211 187.592 106.695C188.622 106.352 189.653 105.664 190.512 104.977C191.371 104.29 192.574 103.431 192.918 102.4C193.09 101.713 193.09 100.682 192.059 101.025Z" fill="#E0214D"/>
<path d="M200.134 77.8313C200.134 77.8313 200.306 77.6595 200.306 77.4877V77.3159C200.306 77.144 200.306 77.144 200.306 76.9722C200.306 76.6286 200.134 76.4568 200.134 76.1132C199.963 75.9413 199.791 75.7695 199.619 75.7695C199.447 75.7695 199.275 76.1132 199.275 76.285C199.275 76.4568 199.275 76.4568 199.447 76.6286V76.8004C199.447 76.9722 199.447 76.9722 199.447 77.144V77.3159V77.4877C199.447 77.6595 199.447 77.8313 199.447 78.0031C199.447 78.1749 199.275 78.3467 199.275 78.6904C199.275 78.6904 199.275 78.8622 199.447 78.8622C199.619 78.8622 199.619 78.8622 199.791 78.6904C199.791 78.5186 199.963 78.5186 199.963 78.3467C200.134 78.3467 200.134 78.0031 200.134 77.8313Z" fill="#E0214D"/>
<path d="M202.368 89.6862C203.227 87.6244 204.602 84.1881 202.712 82.9854C204.258 80.4082 205.289 77.3156 203.227 74.7384C202.712 74.0511 201.681 75.082 202.197 75.7692C204.087 78.0028 202.368 81.0955 200.994 83.1573C200.822 83.5009 200.994 84.1881 201.509 84.1881C203.571 84.5318 200.994 89.1707 200.65 90.2016C200.478 90.7171 200.994 91.2325 201.681 91.2325C203.399 90.7171 202.54 93.6379 202.197 94.1534C201.681 95.1842 200.822 95.6997 200.135 96.5588C199.791 97.0742 200.135 97.9333 200.822 97.7615C202.712 97.0742 203.915 94.8406 204.258 92.9507C204.258 91.5761 203.571 90.0298 202.368 89.6862Z" fill="#E0214D"/>
<path d="M198.761 97.4162C198.417 97.0725 198.073 97.0725 197.73 96.9007C197.558 96.7289 197.558 96.9007 197.558 96.5571C197.558 95.8698 198.245 95.1826 198.417 94.4953C198.761 93.4644 197.214 92.949 196.871 93.9799C196.699 94.6671 196.183 95.1826 195.84 95.8698C195.668 96.5571 195.668 97.2444 196.012 97.7598C196.183 98.1034 196.355 98.2752 196.699 98.4471C196.871 98.4471 196.871 98.6189 197.042 98.6189C197.042 98.9625 196.527 99.1343 196.183 99.3061C195.324 99.8216 195.496 101.024 196.527 101.368C197.042 101.54 197.214 102.399 197.042 102.914C196.871 103.258 196.699 103.601 196.355 103.945C196.012 104.289 195.496 104.632 195.324 104.976C195.152 105.32 195.324 105.663 195.668 105.663C196.355 105.835 197.214 105.148 197.73 104.804C198.245 104.289 198.761 103.601 198.932 102.914C199.276 101.883 199.104 101.024 198.589 100.165C198.761 99.9934 198.932 99.8216 199.104 99.4779C199.448 99.1343 199.448 98.1034 198.761 97.4162Z" fill="#E0214D"/>
<path d="M221.268 67.0064C220.581 65.9755 219.722 64.9446 218.691 64.2573C220.409 60.6492 221.612 56.5257 221.784 52.574C221.955 47.5914 220.753 42.6088 219.378 37.798C219.378 37.6262 219.55 37.4543 219.378 37.2825C216.629 29.0354 208.382 23.5374 200.307 21.4756C189.654 18.8984 178.486 22.3347 168.865 26.6301C168.349 26.8019 168.521 27.3173 168.693 27.6609C167.834 28.0046 166.975 28.3482 166.116 28.52C164.054 29.3791 161.992 30.0663 160.274 31.269C158.728 32.4717 157.525 34.0181 156.666 35.7362C155.979 36.5953 155.463 37.4543 154.948 38.4852C154.776 38.657 154.776 39.0007 154.776 39.1725C154.089 40.3752 153.402 41.7497 152.714 42.9524C150.996 46.2169 149.45 50.5122 152.371 53.6049L152.542 53.7767C152.542 53.9485 152.542 53.9485 152.542 54.1203C152.542 54.6358 152.886 54.8076 153.23 54.8076C152.886 56.5257 152.542 58.072 152.542 59.7902C152.371 62.1956 152.542 64.601 152.714 67.0064C152.886 68.2091 152.886 69.4118 152.542 70.4426C152.371 71.1299 152.027 71.6453 151.855 72.3326C150.137 74.5662 148.419 77.6588 148.419 80.7515C148.419 82.126 149.106 83.3287 150.309 83.6723C149.622 84.875 149.106 86.4214 149.278 87.9677C149.45 88.9986 149.793 89.6858 150.309 90.5449C150.996 91.7476 150.309 93.1221 150.481 94.4966C150.653 99.3074 154.261 102.572 158.041 105.149C158.041 105.321 158.212 105.665 158.212 105.836C158.9 107.383 160.961 108.585 162.508 107.726C162.68 108.242 163.023 108.757 163.539 109.101C164.226 109.788 165.085 110.132 165.944 110.132C166.631 110.132 167.147 110.132 167.834 109.788C162.164 115.63 166.459 123.877 170.583 129.203C173.676 133.155 176.94 136.935 180.205 140.715C183.469 144.323 186.733 148.274 191.029 151.023C191.544 151.367 192.06 150.68 191.716 150.336C189.654 146.9 186.562 143.979 183.813 140.886C180.892 137.622 177.799 134.357 174.878 131.093C170.411 125.939 161.992 117.52 168.178 110.475C168.521 110.132 168.178 109.788 167.834 109.616C168.006 109.444 168.178 109.273 168.521 109.101C168.865 110.475 168.865 112.022 168.693 113.396C168.693 114.083 168.521 114.771 168.349 115.458C168.178 116.145 168.006 116.832 167.834 117.52C167.662 118.207 167.318 119.41 168.349 119.581C169.208 119.925 169.896 118.722 170.239 118.207C170.927 116.832 171.27 115.286 171.442 113.568C171.614 111.85 171.442 109.96 170.927 108.414C170.927 108.242 170.927 108.242 170.755 108.242C171.27 108.414 171.786 108.585 172.301 108.585C172.473 108.585 172.473 108.242 172.301 108.242C171.442 108.07 170.411 107.554 169.896 106.867C169.724 106.695 169.552 106.695 169.38 106.867C168.693 107.898 167.318 108.414 166.116 108.242C165.085 108.242 163.71 107.211 163.71 106.18C163.71 105.665 163.023 105.149 162.508 105.493C161.305 106.18 159.93 105.665 159.587 104.462C159.071 102.916 159.93 101.369 160.961 100.166C161.477 99.651 160.618 98.792 160.102 99.3074C159.071 100.338 158.212 101.713 158.041 103.087C155.463 100.51 152.714 97.5893 152.714 93.9812C152.714 92.0912 153.058 90.7167 152.199 88.9986C151.168 86.9368 150.824 84.7032 152.714 82.9851C153.402 82.2978 152.542 81.4388 151.855 81.7824C149.965 82.8133 150.481 79.0333 150.653 78.6897C150.824 78.0025 150.996 77.487 151.168 76.7998C151.683 75.4253 152.371 74.0507 153.23 72.8481C154.604 72.5044 155.12 70.099 155.292 68.8963C155.463 66.4909 154.948 64.0855 154.948 61.6801C154.776 56.1821 155.979 50.684 158.212 45.7014C158.384 45.3578 158.041 45.0142 157.869 45.0142C158.041 44.8423 158.041 44.6705 158.212 44.4987C159.243 43.8115 160.274 43.4678 161.305 43.1242C165.085 42.0933 168.865 41.7497 172.473 39.8597C173.676 39.1725 175.05 38.3134 176.596 37.4543H176.768C179.689 36.2516 182.438 34.8771 185.015 33.159C188.967 31.7845 192.747 31.7845 196.011 35.0489C196.355 35.3926 196.699 35.3926 197.042 35.0489C199.62 38.657 201.338 42.6088 202.369 46.9041C203.399 51.3713 203.056 55.6666 203.056 60.1338C203.056 60.6492 203.915 60.8211 204.087 60.3056C204.43 58.9311 204.602 57.5566 204.774 56.1821C204.946 57.213 204.946 58.072 205.118 59.1029C205.289 60.3056 205.977 61.3365 207.351 61.3365C208.554 61.3365 209.757 60.3056 209.585 59.1029C209.413 57.3848 209.413 55.8385 209.069 54.1203C209.757 53.7767 210.1 53.0894 210.1 52.2304C210.1 52.2304 210.1 52.2303 210.1 52.0585C210.444 51.8867 210.787 51.7149 210.959 51.3713C211.818 51.3713 212.849 51.0276 213.193 50.3404C213.365 52.0585 213.536 53.7767 213.536 55.6666C213.536 56.8693 214.224 57.5566 215.083 57.7284C214.911 58.9311 214.739 59.962 214.396 61.1647C214.052 62.5392 215.942 63.3983 216.629 62.1956C217.145 61.1647 217.66 60.1338 218.004 59.1029C218.347 59.2747 218.691 59.2747 219.035 59.1029C219.035 59.2747 218.863 59.4465 218.863 59.6184C218.519 60.8211 218.004 62.0238 217.488 63.2264C216.801 63.0546 215.942 62.8828 215.083 63.0546C214.052 63.2265 213.193 63.9137 212.506 64.4292C211.818 64.9446 212.506 66.3191 213.193 65.8037C213.88 65.2882 214.739 64.7728 215.598 64.7728C216.457 64.7728 217.145 65.1164 217.832 65.6318C218.519 66.1473 219.035 67.0064 219.55 67.6936C219.894 68.2091 220.581 69.0681 220.581 69.7554C220.581 70.4426 219.894 70.9581 219.378 71.4735C218.691 71.989 218.175 72.6762 217.488 73.0199C216.801 73.5353 215.942 73.8789 215.255 74.3944C214.567 74.9098 213.88 75.2534 213.193 75.7689C212.849 75.9407 213.021 76.628 213.365 76.628C215.083 76.9716 216.801 76.2843 218.175 75.4253C219.722 74.5662 221.268 73.3635 222.299 71.989C222.814 71.3017 223.158 70.4427 223.158 69.4118C222.471 68.7245 221.784 67.8654 221.268 67.0064Z" fill="#E0214D"/>
<path d="M218.341 56.1832C217.998 56.0114 217.654 56.0114 217.31 56.0114C217.139 55.8396 216.967 55.8396 216.795 55.6678C216.795 54.4651 215.936 53.2624 214.733 53.0905C215.077 52.0597 214.39 50.857 213.359 50.5133C213.187 50.5133 213.187 50.5133 213.015 50.5133C213.187 50.1697 213.187 49.9979 213.359 49.6543C213.702 48.7952 213.015 47.5925 212.156 47.2489C211.125 46.9052 210.266 47.2489 209.751 48.1079C209.235 48.7952 208.72 49.6543 208.376 50.3415C208.204 50.1697 207.861 50.1697 207.517 50.5133C206.314 51.8879 205.971 53.4342 205.455 55.1523C205.284 55.3241 205.284 55.3241 205.284 55.4959C204.424 55.4959 203.565 55.8396 203.565 56.6986C202.706 57.0423 202.363 58.0731 202.019 58.9322C201.847 59.104 201.847 59.2759 201.675 59.6195C201.504 60.8222 201.16 62.1967 201.16 63.3994C200.988 64.2585 201.847 65.1175 202.534 65.4612C202.534 65.9766 202.706 66.4921 202.706 66.8357C202.878 67.3511 202.878 68.0384 203.05 68.5538C202.878 69.0693 202.534 69.5847 202.363 70.1001C201.847 71.3028 201.332 72.3337 200.988 73.5364C200.816 73.88 200.988 74.5673 201.16 74.9109C201.332 75.2546 201.847 75.5982 202.191 75.77C202.534 75.9418 202.878 75.77 203.222 75.5982C203.737 76.2855 204.768 76.6291 205.627 76.1136C205.799 75.9418 205.971 75.77 206.143 75.77C206.314 75.77 206.486 75.77 206.658 75.77C207.517 75.77 208.376 75.0827 208.204 74.2237C208.204 73.5364 207.861 72.6774 207.689 71.9901C207.689 71.6465 207.517 71.4747 207.345 71.131C207.517 70.4438 207.517 69.5847 207.345 68.8974C207.517 68.7256 207.517 68.382 207.689 68.2102C209.407 66.3202 211.125 64.7739 213.531 64.0866C214.905 63.743 216.451 63.9148 217.654 62.7121C218.857 61.5094 219.029 59.6195 219.372 58.0731C219.888 57.5577 219.372 56.5268 218.341 56.1832Z" fill="#E0214D"/>
<path d="M213.874 68.7246C213.359 68.5527 212.843 68.5527 212.328 68.7246C211.984 68.8964 211.813 69.4118 211.984 69.7554C212.156 70.0991 212.672 70.2709 213.015 70.0991C213.015 70.0991 213.015 70.0991 213.015 70.2709C213.015 70.2709 213.015 70.2709 213.015 70.4427V70.6145C213.015 70.6145 213.015 70.6145 213.015 70.7863L212.843 70.9581C212.672 71.13 212.672 71.3018 212.672 71.4736C212.672 71.6454 212.5 71.989 212.5 72.1608C212.5 72.3327 212.672 72.5045 212.843 72.5045C213.187 72.5045 213.359 72.3327 213.703 72.1608C214.218 71.989 214.562 71.3018 214.562 70.9581C214.733 70.4427 214.733 69.9273 214.39 69.4118C214.562 69.24 214.218 68.8964 213.874 68.7246Z" fill="#E0214D"/>
<path d="M46.8728 120.956C46.1855 119.41 45.4982 118.036 44.6392 116.489C43.4365 114.084 42.062 111.85 40.6875 109.617C39.8284 107.383 38.2821 105.15 37.2512 103.26C35.8767 100.339 34.5021 97.4179 33.2994 94.3252C31.2377 88.8272 29.6913 82.9855 28.8323 77.1438C29.0041 77.1438 29.1759 76.972 29.1759 76.8002C29.1759 76.6284 29.3477 76.6284 29.3477 76.4566C29.3477 76.4566 29.3477 76.4566 29.5195 76.2847C29.6914 76.1129 29.8632 75.9411 30.035 75.7693C30.035 75.7693 30.035 75.7693 30.2068 75.5975C30.2068 75.5975 30.3786 75.4257 30.5504 75.4257C30.7222 75.2539 30.894 75.2538 31.0659 75.082C31.0659 75.082 31.0659 75.082 31.2377 75.082C31.4095 75.082 31.4095 75.082 31.5813 74.9102C31.7531 74.9102 31.9249 74.7384 32.0967 74.7384C32.2686 74.7384 32.4404 74.5666 32.784 74.5666C32.9558 74.5666 32.9558 74.5666 33.1276 74.5666C33.2994 74.5666 33.2994 74.3948 33.4713 74.3948C33.6431 74.3948 33.6431 74.223 33.6431 74.0512C34.3303 74.223 34.8458 74.3948 35.3612 74.7384C35.8767 75.082 36.2203 75.4257 36.5639 75.7693C36.5639 75.9411 36.5639 75.9411 36.5639 76.1129C37.0794 76.972 37.5948 77.6592 37.9384 78.5183V78.6901C37.9384 78.8619 38.1102 78.862 38.1102 79.0338C38.1102 79.2056 38.2821 79.3774 38.1102 79.5492C38.1102 79.3774 37.9384 79.8928 38.1102 79.5492C38.1102 79.5492 38.1102 79.721 37.9384 79.721C38.1102 79.5492 37.7666 79.8928 37.7666 79.8928C37.5948 80.0646 37.423 80.0646 37.2512 80.2365C37.0794 80.2365 37.0794 80.2365 36.9075 80.4083C36.7357 80.4083 36.7357 80.4083 36.5639 80.4083C36.3921 80.4083 36.2203 80.4083 35.8767 80.4083C35.1894 80.4083 34.5021 80.0647 33.9867 79.721C33.6431 79.5492 33.2994 79.3774 32.9558 79.721C32.6122 80.0647 32.6122 80.4083 32.9558 80.7519C34.1585 81.9546 35.8767 82.47 37.5948 82.1264C38.4539 81.9546 39.3129 81.4392 39.8284 80.5801C40.3438 79.5492 40.0002 78.5183 39.4848 77.4874C39.3129 77.1438 39.1411 76.8002 38.7975 76.4566C38.7975 76.1129 38.4539 75.7693 38.2821 75.5975C37.9384 75.2539 37.7666 75.082 37.423 74.7384C36.7357 74.223 36.0485 73.7075 35.3612 73.3639C34.1585 72.8485 32.6122 72.6766 31.2377 73.1921C30.8941 73.1921 30.3786 73.3639 30.035 73.5357C29.1759 73.8793 28.4887 74.5666 27.9732 75.2538C27.4578 75.082 26.7705 75.2538 26.7705 75.9411C27.286 82.47 28.4887 88.8272 30.7222 95.0125C31.7531 97.9333 32.9558 101.026 34.3303 103.775C35.533 106.18 36.9075 109.617 39.1411 111.335C40.172 113.225 41.2029 115.115 42.062 117.005C42.7492 118.379 43.4365 119.926 44.1237 121.3C44.4674 122.159 44.811 122.846 45.1546 123.705C45.4982 124.565 45.8419 125.08 46.5291 125.595C47.0446 125.939 47.56 125.767 47.56 125.08C47.7318 124.221 47.56 123.534 47.2164 122.675C47.56 122.503 47.2164 121.644 46.8728 120.956Z" fill="#E0214D"/>
<path d="M120.41 182.981C117.661 182.466 114.569 183.325 111.82 184.012C108.727 184.7 105.462 185.73 102.37 186.59C96.0127 188.308 89.4837 190.026 82.9548 190.713C81.9239 190.713 81.9239 192.259 82.9548 192.259C89.3119 191.744 95.669 190.369 102.026 188.823C105.119 187.964 108.383 187.277 111.476 186.59C114.397 185.902 117.833 185.387 120.582 184.012C120.754 183.669 120.754 182.981 120.41 182.981Z" fill="#E0214D"/>
<path d="M108.727 90.0299C106.665 88.3117 105.119 86.0781 104.26 83.5009C103.916 82.2982 103.573 81.0955 103.573 79.721C103.573 78.3465 103.744 76.972 103.573 75.7693C103.573 75.4256 103.057 75.2538 102.885 75.5975C102.542 76.1129 102.198 76.6283 102.026 77.3156L101.854 77.4874C101.854 77.831 101.683 78.1747 101.683 78.5183C101.683 78.5183 101.683 78.5183 101.683 78.6901C101.167 82.47 99.4491 86.0781 96.8719 89.1708C96.5282 89.5144 96.7001 90.0299 97.0437 90.0299C99.9645 90.8889 101.511 93.6379 101.339 96.387C100.995 97.246 100.652 98.2769 100.48 99.3078C100.308 100.167 101.511 100.854 102.026 99.9951C102.542 99.136 102.885 98.1051 102.885 97.246C103.229 96.5588 103.573 95.8715 104.088 95.1843C104.604 94.3252 106.493 91.2325 107.696 91.5762C108.727 91.748 109.414 90.5453 108.727 90.0299ZM103.744 92.9507C103.401 93.2943 103.229 93.8098 102.885 94.1534C102.198 91.9198 100.652 90.2017 98.4182 89.1708C100.136 86.9372 101.339 84.5318 102.026 81.7828C102.198 82.6418 102.37 83.3291 102.542 84.0164C103.229 86.2499 104.604 88.3117 106.322 90.0299C105.291 90.7171 104.432 92.0916 103.744 92.9507Z" fill="#E0214D"/>
<path d="M53.2321 146.385C53.0603 145.526 51.6858 145.698 51.8576 146.557C52.5449 153.258 53.2321 159.958 55.4657 166.316C57.1838 171.642 59.9329 177.312 64.5718 180.748C65.0873 181.092 65.7745 180.404 65.4309 179.889C62.1664 175.078 59.2456 170.439 57.1838 164.941C55.1221 158.928 54.0912 152.57 53.2321 146.385Z" fill="#E0214D"/>
<path d="M67.8369 175.251C66.2905 172.502 64.916 169.753 63.7133 167.004C63.3697 166.145 61.6516 166.832 62.167 167.691C63.3697 170.612 64.7442 173.361 66.1187 176.11C66.806 177.485 67.6651 178.859 68.3523 180.234C68.6959 180.921 69.2114 181.608 69.555 182.296C69.8986 182.811 70.2423 183.67 70.9295 184.014C71.445 184.186 72.1322 184.014 72.1322 183.327C72.1322 182.639 71.6168 181.952 71.2732 181.265C70.9295 180.577 70.4141 179.89 70.0705 179.203C69.3832 177.828 68.5241 176.454 67.8369 175.251Z" fill="#E0214D"/>
<path d="M105.636 65.9767C105.121 65.6331 104.605 65.4612 104.09 65.2894C98.2481 62.1968 91.3755 61.5095 85.0184 60.135C77.974 58.7605 70.9297 57.386 63.8853 56.3551C50.8274 54.4651 37.7695 53.2624 24.7117 53.4342C24.5399 53.4342 24.368 53.4342 24.1962 53.4342C23.3372 53.4342 22.4781 53.4342 21.7908 53.4342C21.1036 53.4342 21.1036 54.4651 21.7908 54.4651C22.4781 54.4651 22.9935 54.4651 23.6808 54.4651C23.6808 54.8088 23.8526 55.1524 24.368 55.3242C30.897 57.7296 37.0823 60.4786 43.2676 63.5713C42.2367 63.9149 41.3776 64.6022 41.034 65.633C40.6904 66.4921 40.5186 67.3512 40.6904 68.2103C39.4877 68.0384 38.1132 68.2103 37.0823 68.8975C35.8796 69.7566 34.6769 71.3029 34.6769 72.8492C34.6769 73.1929 35.1923 73.3647 35.3641 73.0211C35.8796 71.9902 36.5668 70.9593 37.7695 70.4438C38.8004 69.9284 39.8313 69.7566 40.8622 70.1002C40.8622 70.272 41.034 70.6157 41.3776 70.7875C41.5495 70.9593 41.8931 71.1311 42.0649 71.3029C42.0649 71.3029 42.2367 71.3029 42.2367 71.4747C42.4085 71.4747 42.4085 71.6465 42.5803 71.6465C42.924 71.9902 43.4394 72.3338 43.783 72.8492C43.783 73.0211 43.9548 73.0211 43.9548 73.1929L44.1267 73.3647C44.2985 73.5365 44.4703 73.8801 44.6421 74.0519C44.8139 74.2238 44.9857 74.5674 45.1575 74.7392C45.3294 75.0828 45.5012 75.5983 46.0166 75.5983H46.1884C46.3603 75.9419 46.5321 76.1137 46.7039 76.2855C46.8757 76.6292 47.0475 76.9728 47.2193 77.3164C47.2193 77.4882 47.3911 77.66 47.3911 77.8318C47.3911 78.0037 47.3911 78.1755 47.3911 78.3473C47.3911 78.3473 47.2193 78.5191 47.2193 78.6909C47.2193 78.6909 47.2193 78.6909 47.0475 78.8627C46.8757 78.8627 46.8757 79.0346 46.7039 79.0346C46.8757 79.0346 46.5321 79.0346 46.5321 79.0346H46.3602C46.3602 79.0346 46.3603 79.0346 46.1884 79.0346C46.0166 79.0346 46.0166 79.0346 45.8448 79.0346C45.673 79.0346 45.5012 79.0346 45.1575 78.8627C44.9857 78.8627 44.6421 78.6909 44.4703 78.6909H44.2985C44.1267 78.5191 43.783 78.5191 43.6112 78.5191C43.4394 78.5191 43.4394 78.5191 43.2676 78.5191C43.4394 78.5191 43.4394 78.5191 43.2676 78.5191C43.0958 78.5191 43.0958 78.5191 42.924 78.5191C42.4085 78.5191 42.0649 79.2064 42.4085 79.55C42.5803 79.7218 42.7522 79.8936 42.924 80.0654C43.0958 80.2373 43.2676 80.4091 43.4394 80.5809C43.783 80.7527 43.9549 80.7527 44.2985 80.9245C44.8139 81.0963 45.3294 81.0963 45.8448 81.0963C46.7039 81.0963 47.5629 80.7527 48.2502 80.2372C48.7656 79.7218 49.2811 79.0346 49.2811 78.1755C49.2811 77.4882 48.9375 76.801 48.5938 76.1137C48.2502 75.7701 48.0784 75.2546 47.9066 74.911C47.9066 74.7392 47.7348 74.5674 47.7348 74.2238C47.7348 74.0519 47.7348 74.0519 47.5629 74.0519C47.5629 73.8801 47.3911 73.7083 47.3911 73.5365C47.0475 73.0211 46.7039 72.5056 46.1884 71.9902C45.5012 71.3029 44.8139 70.6157 44.1267 70.1002C44.1267 69.9284 44.1267 69.7566 43.9548 69.5848C42.924 68.0385 43.783 65.9767 45.673 65.633C46.0166 65.633 46.3602 65.4612 46.3602 65.1176C47.7348 65.8049 49.1093 66.4921 50.4838 67.3512C50.6556 67.523 50.8274 67.523 50.9992 67.6948C50.9992 67.8666 50.8274 68.0384 50.9992 68.2103C51.8583 69.413 52.8892 71.1311 52.3737 72.6774C52.2019 73.1929 51.8583 73.7083 51.3429 74.0519L51.171 74.2238C50.9992 74.2238 50.8274 74.3956 50.4838 74.3956H50.312C50.312 74.3956 49.9683 74.3956 49.7965 74.5674C49.2811 74.911 49.2811 75.4265 49.6247 75.7701C49.9683 76.1137 50.4838 76.2855 50.9992 76.2855C51.6865 76.2855 52.0301 75.9419 52.5456 75.5983C53.2328 75.0828 53.7483 74.0519 53.9201 73.1929C54.2637 71.4747 53.5764 69.9284 52.7174 68.3821C53.061 68.5539 53.2328 68.7257 53.5764 68.8975C54.4355 71.4747 54.951 74.2238 55.4664 76.801C55.81 78.5191 55.9818 80.4091 56.1537 82.1272C56.3255 82.9863 56.3255 83.8453 56.3255 84.7044C56.3255 85.5635 56.3255 86.2507 56.6691 86.938C57.0127 87.6253 57.8718 87.2816 58.0436 86.7662C58.3872 86.0789 58.2154 85.048 58.2154 84.3608C58.2154 83.5017 58.0436 82.6426 58.0436 81.7836C57.8718 80.0654 57.5282 78.1755 57.1845 76.4573C56.6691 74.2238 56.1537 72.162 55.4664 69.9284C56.6691 70.6157 57.7 71.3029 58.9027 71.8184C59.0745 71.9902 59.4181 72.162 59.5899 72.162C60.1054 72.5056 60.6208 72.8492 61.1363 73.0211C63.198 77.4882 64.7444 82.299 64.7444 87.2816C64.7444 93.1233 62.5108 98.965 62.6826 104.807C62.5108 106.525 62.339 108.071 62.339 109.789C62.339 111.164 62.339 112.538 62.6826 113.741C62.8544 115.116 63.0262 116.146 63.8853 117.177C63.8853 117.349 64.0571 117.349 64.2289 117.349C62.6826 119.411 60.9644 121.301 58.9027 123.019C56.4973 124.909 53.7483 126.627 50.6556 126.455C48.9375 126.455 47.0475 125.596 46.0166 124.393C46.0166 123.878 45.8448 123.363 45.8448 122.847C45.8448 122.332 45.5012 122.16 45.1575 122.16C45.1575 121.816 45.1576 121.301 45.3294 120.957C45.5012 120.442 44.6421 120.098 44.4703 120.785C44.2985 121.473 44.2985 122.16 44.2985 123.019L47.2193 149.478C47.9066 156.523 48.7656 163.567 50.6556 170.268C52.5456 176.625 55.6382 182.81 60.7926 187.106C63.3698 189.339 66.4625 191.057 69.8988 191.573C73.8505 192.088 78.1459 191.573 81.9258 191.057C82.613 190.886 82.613 189.683 81.9258 189.511C78.6613 188.996 75.3968 189.683 72.1324 189.339C72.1324 189.167 72.3042 189.167 72.3042 188.996C72.476 188.48 72.3042 187.965 71.9606 187.621C71.4451 187.277 70.9297 187.106 70.4142 186.934C70.2424 186.934 70.0706 186.762 69.8988 186.762C69.727 186.762 69.5552 186.59 69.3833 186.59C69.2115 186.59 69.0397 186.418 68.6961 186.418C68.6961 186.418 68.5243 186.418 68.5243 186.247C68.1806 186.075 67.837 185.903 67.4934 185.731C67.1498 185.559 66.8061 185.388 66.4625 185.044C66.2907 184.872 66.2907 184.872 66.1189 184.7C66.1189 184.7 65.9471 184.7 65.9471 184.528L65.7752 184.357C65.088 183.841 64.5725 183.154 64.0571 182.638C61.4799 179.374 58.9027 176.281 57.1845 172.33C55.2946 168.206 54.0919 163.739 53.4046 159.272C51.5147 148.791 50.9992 138.139 48.0784 128.002C48.0784 127.83 47.9066 127.658 47.7348 127.486C50.312 128.861 53.5764 128.173 55.9818 126.799C58.9027 125.253 61.3081 122.847 63.5417 120.442C64.7444 119.067 66.2907 117.349 67.1498 115.459C67.4934 117.693 67.837 119.926 68.3525 121.988C68.6961 123.878 69.0397 125.768 69.5552 127.486C69.8988 128.861 70.0706 130.235 70.9297 131.438C71.7887 132.469 72.8196 132.812 74.0223 133.328C75.3968 134.015 76.5995 135.218 77.4586 136.592C79.1767 139.169 79.6922 142.434 78.8331 145.355C78.8331 145.527 79.0049 145.698 79.1767 145.355C79.3486 144.839 79.5204 144.152 79.6922 143.637C79.5204 145.355 79.1767 147.073 79.0049 148.619C78.6613 150.166 78.3177 151.884 79.0049 153.43C79.3486 154.117 79.864 154.633 80.2076 155.32C80.5512 156.007 80.5513 156.866 80.3794 157.725C80.0358 159.272 78.6613 160.646 78.6613 162.193C78.6613 162.708 79.1767 162.88 79.5204 162.708C80.8949 162.021 81.754 159.959 82.0976 158.584C82.613 157.038 82.4412 155.32 81.4103 153.946C80.8949 153.258 80.2076 152.571 80.0358 151.712C79.864 150.853 79.864 149.822 80.0358 148.791C80.0358 146.729 80.2076 144.668 80.2076 142.606C80.2076 142.262 79.6922 142.262 79.5204 142.606C79.5204 142.778 79.5204 142.949 79.3486 143.293C80.0358 138.998 77.974 134.702 74.366 132.125C73.8505 131.781 73.1632 131.438 72.476 130.922C71.6169 130.235 71.4451 129.376 71.1015 128.345C70.586 126.455 70.2424 124.393 69.727 122.504C68.8679 118.552 68.0088 114.6 67.3216 110.648C67.3216 110.305 66.8061 110.133 66.6343 110.305C66.2907 109.961 65.9471 109.446 65.4316 109.274C65.088 109.102 64.7444 108.93 64.2289 108.93C64.2289 108.415 64.2289 107.899 64.0571 107.384C64.4007 107.212 64.7444 107.04 64.7444 106.353C64.5725 102.917 64.9162 99.4804 65.2598 95.8723C65.7752 92.436 66.2907 88.9998 66.1189 85.3917C65.9471 81.0963 64.4007 77.3164 62.5108 73.5365C65.4316 75.4264 68.5243 77.66 71.6169 79.0346C71.6169 79.3782 71.6169 79.55 71.6169 79.8936C72.1324 80.9245 73.1633 79.8936 73.6787 79.3782C73.8505 79.2064 73.8505 79.2064 74.0223 79.0346C74.5378 78.5191 74.8814 78.0037 75.225 77.3164C75.7405 76.6292 76.2559 75.9419 76.9432 75.2546C78.3177 73.7083 79.5204 72.162 81.0667 70.7875C81.5821 70.272 81.2385 69.5848 80.7231 69.2411C80.8949 69.413 81.2385 69.2411 81.4103 69.2411C81.5821 69.413 81.9258 69.5848 82.0976 69.413C86.0493 68.3821 89.8292 67.6948 93.9528 67.3512C95.8427 67.1794 97.7327 67.1794 99.6226 67.1794C101.513 67.1794 103.231 67.523 105.121 67.8666C105.98 68.3821 106.839 66.8358 105.636 65.9767ZM64.7444 111.851C65.6034 113.226 64.7444 115.116 63.8853 116.318C63.8853 116.318 63.8853 116.318 63.8853 116.49C64.0571 115.459 63.8853 114.6 63.7135 113.569C63.5417 112.71 63.5417 111.851 63.3698 110.992C64.0571 111.164 64.4007 111.507 64.7444 111.851ZM81.4103 68.2103C81.2385 68.0384 81.0667 67.6948 80.7231 67.523C76.9432 65.9767 73.1633 64.6022 69.2115 63.5713C67.3216 63.0558 65.2598 62.3686 63.198 62.1968C61.3081 62.025 59.4181 61.3377 57.5282 61.3377C57.0127 61.3377 57.0127 62.025 57.3564 62.1968C59.2463 63.0558 61.3081 63.3995 63.3698 64.2585C65.088 64.9458 67.1498 65.2894 68.8679 65.9767C72.6478 67.1794 76.2559 68.3821 79.864 69.7566C79.5204 69.7566 79.3486 69.7566 79.0049 70.1002C76.5995 72.5056 74.3659 75.0828 72.3042 77.66C69.727 74.911 65.9471 73.0211 62.8544 71.1311C61.6517 70.4439 60.6208 69.7566 59.4181 69.2411C59.0745 68.3821 58.559 67.6948 58.0436 67.0076C57.0127 65.8049 56.1536 64.4303 55.1228 63.2276C54.4355 62.3686 53.061 60.135 51.6865 61.3377C51.171 61.8531 51.171 62.3686 50.9992 63.0558C50.9992 63.5713 50.9992 64.2585 50.9992 64.774C50.6556 64.6022 50.4838 64.4304 50.1402 64.4304C42.7522 60.8223 35.1923 57.9014 27.4607 55.1524C39.4877 55.496 51.6865 57.2142 63.5417 59.4477C70.4142 60.8223 77.2868 62.1968 84.1594 63.7431C87.252 64.4304 90.3447 65.1176 93.2655 65.8049C89.4856 65.9767 85.3621 67.0076 81.4103 68.2103Z" fill="#E0214D"/>
<path d="M153.741 205.318C153.913 205.489 153.913 205.661 154.084 205.833C154.084 205.833 154.084 205.833 154.084 206.005L154.256 206.177C154.428 206.348 154.6 206.692 154.772 206.864C154.772 206.864 154.944 206.864 154.944 207.036L155.115 207.208C155.459 207.551 155.631 207.895 155.974 208.067C156.146 208.238 156.49 208.067 156.49 207.723C156.49 207.379 156.318 207.208 156.146 206.864C156.146 206.692 155.974 206.52 155.803 206.348V206.177C155.803 206.005 155.803 206.005 155.631 205.833C155.631 205.661 155.459 205.661 155.459 205.489C155.287 205.146 155.115 204.974 154.944 204.63C154.6 204.115 154.256 203.771 153.913 203.428C153.569 203.084 153.054 203.084 152.882 203.428C152.538 203.771 152.538 204.287 152.882 204.459C153.225 204.802 153.397 204.974 153.741 205.318Z" fill="#E0214D"/>
<path d="M266.795 188.309C256.83 188.652 246.865 190.37 237.071 191.917C227.106 193.635 217.141 195.525 207.176 197.587C187.589 201.71 168.174 206.521 148.931 212.191C137.935 215.455 126.938 218.892 115.942 222.671C114.74 223.015 115.255 224.905 116.458 224.39C154.601 212.019 193.774 202.569 233.291 195.697C244.459 193.635 255.799 192.26 266.795 189.683C267.654 189.683 267.482 188.309 266.795 188.309Z" fill="#E0214D"/>
<path d="M256.658 195.525C222.295 201.71 188.62 212.535 155.631 224.046C154.772 224.39 155.116 225.592 155.975 225.249C189.307 214.425 223.326 206.349 257.174 197.243C258.204 196.9 257.689 195.353 256.658 195.525Z" fill="#E0214D"/>
<path d="M257.173 203.772C244.63 205.49 232.26 208.239 219.889 210.988C207.518 213.737 195.32 216.83 183.121 220.266C182.605 220.438 182.777 221.125 183.293 220.953C195.491 217.517 207.69 214.424 220.061 211.675C232.431 208.926 244.974 206.864 257.344 204.287C257.688 204.287 257.516 203.6 257.173 203.772Z" fill="#E0214D"/>
<path d="M151.506 205.318C150.991 204.459 150.476 203.6 149.96 202.741C148.929 201.023 147.727 199.305 146.524 197.759C146.18 197.415 145.665 197.243 145.321 197.415C144.978 197.587 144.806 198.274 144.978 198.618C146.008 200.336 147.211 202.054 148.07 203.772C148.586 204.631 149.101 205.49 149.617 206.349C150.132 207.208 150.647 208.239 151.506 208.583C151.678 208.755 152.022 208.411 152.194 208.239C152.537 207.208 151.85 206.178 151.506 205.318Z" fill="#E0214D"/>
<path d="M145.494 204.115C144.979 202.569 144.291 201.022 143.604 199.476C142.23 196.383 140.511 193.463 138.621 190.714C137.762 189.511 135.872 190.714 136.731 191.744C138.621 194.493 140.168 197.242 141.542 200.335C142.23 201.881 142.745 203.428 143.26 204.974C143.604 205.833 143.776 206.52 144.119 207.208C144.463 207.895 144.463 208.754 145.15 209.269C145.666 209.613 146.181 209.441 146.353 208.926C146.697 208.239 146.353 207.38 146.181 206.692C146.009 205.661 145.838 204.802 145.494 204.115Z" fill="#E0214D"/>
<path d="M136.044 196.04C133.295 189.511 130.375 183.326 127.11 177.14C126.767 176.281 125.907 176.281 125.22 176.797C124.361 175.25 123.502 173.532 122.471 172.158C121.956 171.47 120.925 172.158 121.44 172.845C124.877 178.343 127.11 184.357 128.656 190.542C129.344 193.463 130.031 196.555 130.546 199.476C131.428 204.474 132.683 208.783 133.639 213.565C133.811 214.424 133.983 215.455 134.67 216.142C135.529 217.001 136.732 217.173 137.763 216.829C138.45 216.658 139.137 216.142 139.481 215.627C139.653 215.97 139.824 216.142 139.996 216.486C140.512 217.345 141.886 217.001 141.886 215.97C142.058 212.362 140.855 209.098 139.653 205.833C138.622 202.569 137.247 199.304 136.044 196.04Z" fill="#E0214D"/>
<path d="M86.9035 156.867C85.529 155.32 83.9827 153.946 82.4364 152.571C82.0927 152.4 81.7491 152.228 81.5773 152.571C81.4055 152.743 81.2337 153.259 81.5773 153.431C83.1236 154.633 84.67 156.008 85.8727 157.554C86.5599 158.241 87.2472 159.1 87.7626 159.788C88.4499 160.647 88.9653 161.506 89.6526 162.193C89.9962 162.537 90.8553 162.193 90.5116 161.678C90.168 160.647 89.4807 159.788 88.7935 159.1C88.1062 158.413 87.5908 157.554 86.9035 156.867Z" fill="#E0214D"/>
<path d="M177.966 136.077C177.107 134.874 175.56 134.359 174.186 133.672C172.64 132.984 170.921 132.297 169.203 131.782C166.282 130.923 163.533 131.782 160.784 133.156C156.833 135.218 153.396 138.311 151.335 142.262C151.335 136.421 150.819 130.579 152.366 124.737C153.225 121.645 154.771 119.411 157.176 117.349C159.754 115.287 162.331 113.226 164.736 111.164C165.08 110.82 164.564 110.305 164.221 110.648C160.613 113.398 156.317 116.147 153.568 119.755C153.568 119.067 153.225 118.552 152.366 118.552C148.414 118.896 144.29 119.239 140.51 120.614C136.73 121.988 133.466 124.565 130.373 126.971C126.593 129.892 122.813 132.812 119.205 135.733C116.113 138.139 112.161 140.716 109.412 143.809C109.24 143.98 109.068 143.98 108.897 144.152C107.007 145.011 105.288 145.87 103.398 146.558C99.6186 148.104 95.8387 149.478 92.0588 150.681C90.5124 151.197 87.9352 152.227 86.3889 151.197C85.1862 150.509 84.8426 148.619 83.9835 147.589C82.0935 145.355 79.5163 146.901 77.7982 148.276C77.1109 148.791 78.1418 149.65 78.6573 149.135C79.6881 148.448 80.719 147.417 82.0935 147.932C82.9526 148.276 83.1244 148.963 83.6399 149.65C84.1553 150.681 84.6708 151.712 85.7016 152.399C88.2788 153.946 92.0588 152.399 94.636 151.712C98.2441 150.681 101.852 149.478 105.46 148.104C107.178 147.417 108.725 146.729 110.443 146.042C112.161 145.183 113.879 144.496 115.254 143.293C115.597 142.95 115.597 142.434 115.425 142.09C116.972 140.888 118.518 139.513 120.064 138.311C123.673 135.562 127.109 132.812 130.717 130.235C133.81 127.83 136.902 125.081 140.682 123.363C144.462 121.645 148.757 121.129 152.881 120.786C153.053 120.786 153.053 120.786 153.225 120.614C152.709 121.645 152.194 122.675 151.85 123.878C150.819 126.971 150.304 130.235 149.96 133.5C149.445 137.108 149.273 140.888 149.96 144.496C150.132 145.527 151.678 145.355 152.022 144.668L152.194 144.496C154.084 140.029 157.864 136.764 162.159 134.702C164.736 133.5 167.313 132.813 170.062 133.843C172.64 134.702 175.389 136.764 178.309 136.421C178.138 136.764 178.309 136.421 177.966 136.077Z" fill="#E0214D"/>
<path d="M150.304 23.1942C149.789 21.6479 149.101 20.1016 148.586 18.3834C148.242 17.5244 148.07 16.8371 147.727 15.978C147.555 15.6344 147.383 15.119 147.211 14.7753C147.04 14.2599 146.868 13.9163 146.352 13.4008C145.665 12.7136 144.462 13.229 144.462 14.2599C144.291 15.119 144.806 15.978 144.978 16.8371C145.15 17.5244 145.493 18.3834 145.665 19.0707C146.18 20.617 146.696 22.1633 147.211 23.7097C147.383 24.3969 148.242 24.9124 149.101 24.7406C149.96 24.7406 150.476 23.8815 150.304 23.1942Z" fill="#E0214D"/>
<path d="M136.388 39.3446C135.185 37.7983 134.154 36.4238 132.952 34.8774C132.436 34.1902 131.749 33.3311 131.233 32.6438C130.718 31.9566 130.203 31.0975 129.515 30.5821C129.172 30.2384 128.656 30.7539 128.828 31.0975C129.344 31.9566 129.859 32.6439 130.374 33.3311C130.89 34.0184 131.577 34.8774 132.093 35.5647C133.295 37.111 134.326 38.4855 135.529 40.0318C135.872 40.7191 136.903 40.0319 136.388 39.3446Z" fill="#E0214D"/>
<path d="M130.202 50.8579C128.483 49.4833 126.422 48.6243 124.36 47.7652C123.329 47.4216 122.298 47.0779 121.267 46.9061C120.924 46.9061 120.752 46.9061 120.408 46.9061C120.065 46.9061 119.893 46.9061 119.549 46.7343C119.034 46.7343 118.518 46.5625 117.831 46.5625C116.8 46.5625 116.456 48.2806 117.659 48.4525C118.175 48.4525 118.69 48.6243 119.205 48.7961C119.377 48.7961 119.721 48.9679 119.893 48.9679C120.065 49.1397 120.408 49.3115 120.58 49.3115C121.439 49.6552 122.47 49.827 123.329 50.1706C125.219 50.8579 126.937 51.8887 128.483 53.0914C128.999 53.6069 130.03 53.2633 130.373 52.576C131.061 52.0606 130.717 51.3733 130.202 50.8579Z" fill="#E0214D"/>
<path d="M239.991 0C238.617 0 237.242 0.515442 235.868 0.859071C234.493 1.2027 233.119 1.71814 231.916 2.23358C229.339 3.43628 226.934 4.98261 224.872 6.87256C224.356 7.38801 225.215 8.24708 225.731 7.73164C227.793 6.01349 230.026 4.46717 232.432 3.43628C233.634 2.92084 234.837 2.23358 236.04 1.88995C237.242 1.37451 238.617 1.20269 239.82 0.687253C240.335 0.343624 240.335 0 239.991 0Z" fill="#E0214D"/>
<path d="M258.203 17.5244C257.516 17.1807 256.829 16.8371 256.142 16.6653C255.454 16.4935 254.767 16.1498 254.252 15.978C252.877 15.6344 251.159 15.6344 249.785 15.8062C246.864 15.978 243.771 16.6653 241.022 17.6962C240.507 17.868 240.163 18.3834 240.335 19.0707C240.507 19.5861 241.194 20.1016 241.709 19.7579C244.286 18.7271 247.035 18.0398 249.785 18.0398C251.159 18.0398 252.534 18.0398 253.908 18.2116C254.595 18.2116 255.283 18.2116 255.97 18.2116C256.657 18.2116 257.344 18.3834 258.032 18.3834C258.547 18.5552 258.547 17.868 258.203 17.5244Z" fill="#E0214D"/>
<path d="M262.842 50.3403C262.671 49.653 261.983 49.1376 261.468 48.9658C260.952 48.6221 260.265 48.4503 259.578 48.1067C258.547 47.5913 257.344 47.4194 256.313 47.0758C253.908 46.5604 251.503 46.2167 249.097 46.0449C247.379 46.0449 247.379 48.6221 249.097 48.6221C251.331 48.7939 253.564 49.1376 255.626 49.8248C256.657 50.1685 257.688 50.5121 258.719 50.8557C259.75 51.1994 261.124 52.2302 262.327 51.543C262.842 51.3712 262.842 50.8557 262.842 50.3403Z" fill="#E0214D"/>
<path d="M64.2245 31.6135C64.0527 31.7853 63.8809 31.9571 63.7091 32.129C63.3655 31.7853 62.6782 31.4417 62.6782 31.2699C62.3346 30.9263 61.8191 30.4108 61.4755 29.8954C60.6164 29.0363 59.9292 28.1772 59.4137 27.1463C58.211 25.0846 57.352 22.851 56.3211 20.6174C55.9775 20.102 54.9466 20.102 54.9466 20.7892C54.9466 22.3356 55.2902 23.7101 55.8056 25.2564C55.6338 29.0363 54.2593 32.8162 51.8539 35.737C51.3385 36.2525 51.8539 37.1116 52.5412 36.9398C53.9157 36.5961 55.1184 37.7988 55.8056 38.8297C56.4929 40.0324 57.1802 41.0633 57.8674 42.266C58.211 42.7814 59.2419 42.7814 59.4137 42.0942C59.9292 38.8297 61.4755 35.9089 63.8809 33.8471C64.5682 33.8471 65.2554 33.3317 65.2554 32.3008C65.4272 31.7853 64.74 31.4417 64.2245 31.6135ZM58.3829 39.517C57.352 37.627 55.9775 35.5652 53.9157 35.3934C55.462 32.8162 56.4929 30.0672 56.8365 27.1463C57.352 28.1772 58.0392 29.2081 58.8983 30.239C59.9292 31.4417 60.9601 32.6444 62.3346 33.3317C60.4446 35.0498 59.0701 37.1116 58.3829 39.517Z" fill="#E0214D"/>
<path d="M13.1962 74.0525C12.8526 73.8807 12.5089 74.0525 12.1653 74.2243C11.8217 74.568 11.478 75.0834 11.3062 75.5989C10.9626 75.427 10.7908 75.0834 10.4472 74.9116C10.1035 74.568 9.75991 74.0525 9.41628 73.7089C8.72903 72.678 8.3854 71.4753 8.21358 70.4444C8.04177 69.0699 8.04177 67.6954 8.04177 66.4927C8.04177 65.29 8.3854 63.9155 8.21358 62.7128C8.21358 62.3692 7.69814 62.3692 7.52633 62.7128C6.49544 64.7746 6.15182 67.5236 6.32363 69.7572C6.49544 71.8189 7.01088 73.7089 8.3854 75.427C8.90084 76.1143 9.58809 76.8016 10.4472 77.1452C9.07265 79.207 8.04177 81.4405 8.04177 83.8459C6.49544 82.1278 4.43367 80.7533 2.02828 80.2378C4.26186 75.5989 5.63637 70.4444 6.15182 65.29C6.15182 64.6028 5.29274 64.6028 5.12093 65.29C4.43367 70.6162 2.71553 75.7707 0.138321 80.4096C-0.205307 80.9251 0.13832 81.4405 0.653762 81.6124C4.09004 82.4714 7.01088 84.5332 8.55721 87.7977C9.07265 88.8285 10.4472 87.9695 9.93172 86.9386C8.55721 83.6741 9.93173 80.4096 11.8217 77.6606C12.1653 77.6606 12.5089 77.6606 12.8526 77.4888C14.2271 76.4579 14.3989 74.9116 13.1962 74.0525Z" fill="#E0214D"/>
<path d="M97.3845 47.0758C97.0409 46.3886 96.1818 46.904 95.6664 47.0758C94.8073 47.5913 93.9483 48.1067 93.261 48.794C92.4019 49.6531 91.7147 50.5121 91.0274 51.3712C90.6838 51.8866 90.8556 52.7457 91.371 52.9175C91.8865 53.2611 92.5737 53.0893 92.9174 52.5739C93.0892 52.4021 93.261 52.2303 93.261 52.0584C93.261 52.0584 93.261 51.8866 93.4328 51.8866C93.4328 51.7148 93.6046 51.7148 93.6046 51.543C93.9483 51.1994 94.2919 50.8558 94.6355 50.5121C94.9791 50.1685 95.3228 49.8249 95.6664 49.4812C96.01 49.1376 96.3537 48.794 96.6973 48.4503C97.0409 48.2785 97.7282 47.5913 97.3845 47.0758Z" fill="#E0214D"/>
<path d="M88.7944 43.6412C88.7944 43.1258 88.1071 42.954 87.9353 43.4694C87.5917 44.3285 87.5917 45.3594 87.5917 46.2185C87.4199 47.0775 87.4199 48.1084 87.248 48.9675C87.248 49.3111 87.5917 49.4829 87.7635 49.4829C88.1071 49.4829 88.2789 49.1393 88.2789 48.9675L88.6226 46.2185C88.6226 45.3594 88.7944 44.5003 88.7944 43.6412Z" fill="#E0214D"/>
<path d="M84.4983 52.2314C83.811 50.3415 82.952 48.6233 81.7493 46.9052C81.2338 46.0461 80.5466 45.187 80.0311 44.4998C79.5157 43.8125 78.8284 42.7816 77.7975 42.438C77.2821 42.2662 76.9385 42.7816 76.9385 43.2971C76.9385 43.8125 77.2821 44.1561 77.6257 44.4998C77.7975 44.8434 78.1412 45.187 78.4848 45.7025C79.0002 46.5615 79.5157 47.2488 80.0311 48.1079C81.062 49.826 81.9211 51.3723 82.7801 53.0905C83.2956 53.7777 84.8419 53.0905 84.4983 52.2314Z" fill="#E0214D"/>
</svg>
