<svg width="200" height="200" viewBox="0 0 200 200" fill="none" xmlns="http://www.w3.org/2000/svg">
<path d="M91.2998 18.1005C91.7998 18.2005 91.9998 17.5005 91.4998 17.3005C90.3998 17.0005 89.5998 17.8005 89.0998 18.7005C88.8998 19.2005 88.6998 19.8005 88.3998 20.3005C88.0998 20.8005 87.7998 21.3005 87.4998 21.8005C86.8998 22.7005 86.2998 23.7005 85.9998 24.8005C85.7998 25.3005 85.7998 25.9005 85.6998 26.5005C85.6998 26.8005 85.5998 27.0005 85.4998 27.3005C85.3998 27.6005 85.1998 27.8005 85.0998 28.1005C84.9998 28.4005 85.3998 28.7005 85.5998 28.5005C86.2998 28.0005 86.3998 26.8005 86.5998 26.0005C86.7998 24.9005 87.1998 24.0005 87.7998 23.1005C88.2998 22.2005 88.8998 21.4005 89.2998 20.5005C89.7998 19.8005 90.0998 17.9005 91.2998 18.1005Z" fill="#151314"/>
<path d="M91.2997 23.8001C90.8997 23.7001 90.3997 23.7001 89.8997 23.9001C89.3997 24.1001 89.0997 24.3001 88.7997 24.7001C88.6997 24.9001 88.7997 25.1001 88.8997 25.3001C89.0997 25.4001 89.2997 25.4001 89.4997 25.3001C89.5997 25.2001 89.5997 25.2001 89.6997 25.1001L89.7997 25.0001C89.7997 25.0001 89.7997 25.0001 89.8997 25.0001C89.9997 25.0001 89.9997 24.9001 90.0997 24.9001C90.0997 24.9001 90.0997 24.9001 90.1997 24.9001C90.1997 24.9001 90.1997 24.9001 90.2997 24.9001H90.3997C90.3997 25.0001 90.2997 25.0001 90.2997 25.1001V25.2001C90.2997 25.3001 90.2997 25.3001 90.3997 25.4001L90.4997 25.5001C90.5997 25.6001 90.5997 25.6001 90.6997 25.7001C90.7997 25.7001 90.7997 25.7001 90.8997 25.7001H90.9997C90.9997 25.7001 91.0997 25.7001 91.0997 25.6001C91.0997 25.6001 91.1997 25.5001 91.1997 25.4001C91.1997 25.4001 91.1997 25.4001 91.1997 25.3001C91.1997 25.2001 91.1997 25.2001 91.1997 25.1001C91.1997 25.1001 91.1997 25.1001 91.1997 25.0001C91.1997 24.9001 91.1997 24.9001 91.1997 24.8001C91.1997 24.7001 91.1997 24.7001 91.0997 24.6001C91.2997 24.6001 91.4997 24.5001 91.5997 24.3001C91.6997 24.2001 91.4997 23.9001 91.2997 23.8001Z" fill="#151314"/>
<path d="M97.2999 23.1C97.0999 23 96.8999 23 96.6999 23C96.2999 23 95.9999 23.2 95.6999 23.4C95.5999 23.6 95.4999 23.8 95.6999 24C95.8999 24.1 96.0999 24.2 96.2999 24H96.3999C96.3999 24.1 96.3999 24.1 96.3999 24.2V24.3C96.3999 24.3 96.3999 24.4 96.4999 24.4C96.4999 24.4 96.4999 24.5 96.5999 24.5L96.6999 24.6C96.6999 24.6 96.6999 24.6 96.7999 24.7H96.8999H96.9999H97.0999C97.0999 24.7 97.1999 24.7 97.1999 24.6C97.2999 24.5 97.2999 24.5 97.2999 24.4V24.3C97.2999 24.3 97.2999 24.3 97.2999 24.2V24.1V24H97.3999C97.5999 24 97.5999 23.8 97.5999 23.7C97.6999 23.4 97.4999 23.2 97.2999 23.1Z" fill="#151314"/>
<path d="M101 40.6998C100.8 40.6998 100.6 40.7998 100.4 40.8998C100.2 40.9998 99.9999 41.0998 99.7999 41.2998C99.4999 41.5998 99.1999 41.8998 98.9999 42.2998C98.8999 42.3998 98.9999 42.5998 99.0999 42.6998C99.1999 42.7998 99.3999 42.6998 99.4999 42.5998C99.6999 42.1998 99.8999 41.8998 100.2 41.6998C100.3 41.5998 100.5 41.4998 100.7 41.3998C100.9 41.2998 101 41.1998 101.2 41.0998C101.2 40.7998 101.1 40.5998 101 40.6998Z" fill="#151314"/>
<path d="M103.7 37.5001C103.7 37.4001 103.7 37.4001 103.7 37.3001C103.4 37.2001 103 37.1001 102.7 37.0001C101.5 36.6001 100.1 36.6001 99.1999 35.6001C99.0999 35.5001 99.0999 35.5001 98.9999 35.5001C99.0999 35.0001 98.9999 34.6001 98.9999 34.1001C98.8999 33.0001 98.8999 31.9001 98.9999 30.8001C98.9999 30.7001 98.9999 30.7001 98.8999 30.6001C98.9999 30.5001 98.9999 30.3001 98.9999 30.0001C99.2999 28.1001 99.2999 26.1001 99.1999 24.1001C99.2999 24.5001 99.3999 24.8001 99.4999 25.1001C99.6999 25.7001 99.7999 26.2001 100.2 26.7001C100.3 26.8001 100.5 26.8001 100.6 26.6001C100.7 25.9001 100.5 25.2001 100.3 24.5001C100.1 23.7001 99.8999 23.0001 99.6999 22.2001C99.2999 20.9001 98.6999 19.8001 97.6999 18.8001C97.1999 18.4001 96.6999 18.0001 96.1999 17.6001C95.6999 17.2001 95.0999 16.8001 94.4999 16.6001C93.3999 16.3001 92.1999 16.8001 91.5999 17.8001C91.2999 18.3001 91.9999 18.7001 92.2999 18.2001C92.5999 17.7001 92.9999 17.4001 93.4999 17.3001C93.9999 17.2001 94.4999 17.5001 94.8999 17.7001C95.7999 18.3001 96.6999 19.0001 97.3999 19.8001C97.8999 20.4001 98.1999 21.0001 98.3999 21.6001C98.3999 21.6001 98.2999 21.7001 98.2999 21.8001C98.6999 24.3001 98.6999 26.8001 98.2999 29.3001C98.0999 30.4001 97.7999 31.4001 97.1999 32.3001C96.4999 33.2001 95.6999 33.8001 94.9999 34.7001C94.9999 34.7001 94.9999 34.7001 94.9999 34.8001C94.8999 34.8001 94.7999 34.9001 94.6999 34.9001H94.2999C93.9999 34.9001 93.6999 34.8001 93.3999 34.7001C92.6999 34.5001 92.0999 34.4001 91.3999 34.2001C91.1999 34.2001 91.0999 34.5001 91.2999 34.5001C91.9999 34.7001 92.6999 34.9001 93.4999 35.0001C93.7999 35.1001 94.0999 35.2001 94.4999 35.2001C94.7999 35.2001 95.1999 35.2001 95.2999 35.0001C95.2999 34.9001 95.2999 34.9001 95.2999 34.8001C96.4999 34.1001 97.4999 33.1001 98.0999 31.9001C97.9999 32.4001 97.9999 33.0001 97.9999 33.5001C97.9999 34.1001 97.9999 34.6001 98.0999 35.2001C98.0999 35.6001 98.0999 36.4001 98.6999 36.4001C98.7999 36.4001 98.7999 36.4001 98.8999 36.4001V36.7001C99.3999 37.6001 100.2 38.0001 101.2 38.3001C102.2 38.6001 103.2 38.9001 104.3 39.1001C104.1 38.6001 103.9 38.0001 103.7 37.5001Z" fill="#151314"/>
<path d="M119.1 39.9C118.2 38 116.5 37 114.4 37C113.7 37 113 37.1 112.3 37.3C112.6 37.3 112.8 37.4 113 37.6C113.1 37.7 113.2 37.7 113.3 37.8C114.9 37.5 116.6 37.6 117.7 39.1C118.4 40 118.7 41.2 118.7 42.4C118.7 43.6 118.3 44.8 118.5 45.9C118.6 46.2 118.9 46.2 119 46C119.5 45.1 119.6 43.6 119.6 42.6C119.7 41.8 119.5 40.8 119.1 39.9Z" fill="#151314"/>
<path d="M92.1 42.8996C92.2 42.8996 92.4 42.8996 92.5 42.8996C92.8 42.8996 93.1 42.8996 93.3 42.9996C93.9 43.0996 94.5 43.1996 95 43.2996C95.2 43.3996 95.3 42.9996 95.1 42.9996C94.5 42.7996 93.9 42.6996 93.4 42.6996C93.1 42.6996 92.8 42.5996 92.5 42.5996C92.4 42.5996 92.2 42.5996 92.1 42.5996C92 42.5996 91.8 42.5996 91.7 42.6996C91.6 42.7996 91.6 42.7996 91.7 42.8996C91.8 42.9996 91.9 42.8996 92.1 42.8996Z" fill="#151314"/>
<path d="M91.6999 119.9C88.7999 122.1 87.3999 125.4 87.4999 128.9C87.4999 131.1 87.1999 133.1 86.6999 135.3C86.2999 137.2 85.6999 139.2 86.1999 141.1C85.9999 141.1 85.8999 141.2 85.8999 141.4C86.0999 142.2 86.2999 143 86.4999 143.8L86.7999 144.9C86.8999 145.1 86.8999 145.3 86.9999 145.5C87.0999 145.7 87.0999 145.8 87.2999 146C87.3999 146.2 87.5999 146 87.5999 145.9C87.5999 145.7 87.5999 145.5 87.4999 145.3C87.3999 145.1 87.3999 144.9 87.2999 144.8L86.8999 143.6C86.6999 142.9 86.4999 142.1 86.1999 141.4C86.3999 141.5 86.6999 141.3 86.7999 141C86.7999 139.1 86.9999 137.3 87.4999 135.4C87.8999 133.7 88.2999 131.9 88.2999 130.2C88.2999 128.3 88.0999 126.5 88.7999 124.7C89.3999 123 90.4999 121.5 91.8999 120.3C92.1999 120.1 91.8999 119.7 91.6999 119.9Z" fill="#151314"/>
<path d="M94.7999 103.3C92.2999 104.3 90.2999 106.5 88.1999 108.1C85.9999 109.7 82.8999 112 80.0999 110.8V110.7C79.3999 109.8 78.9999 108.5 79.2999 107.4C79.5999 106.1 80.7999 105.1 81.5999 104.2C81.9999 103.7 82.4999 103.2 82.8999 102.8C83.3999 102.3 83.9999 102.1 84.5999 101.8C85.2999 101.5 85.9999 101.2 86.6999 101C87.2999 100.8 87.9999 100.6 88.4999 100.1C88.6999 99.9 88.4999 99.5 88.2999 99.5C87.4999 99.6 86.6999 100 85.8999 100.3C85.1999 100.6 84.4999 100.9 83.7999 101.2C82.3999 101.8 81.3999 103.2 80.3999 104.3L80.2999 104.4C80.1999 104.3 80.1999 104.3 80.0999 104.2C79.9999 104.2 79.9999 104.1 79.8999 104.1C79.8999 104.1 79.8999 104.1 79.7999 104.1C79.4999 104.1 79.2999 104 79.0999 103.8C78.9999 103.8 78.9999 103.8 78.8999 103.8C78.6999 103.7 78.5999 103.6 78.4999 103.4C78.4999 103.5 78.4999 103.5 78.4999 103.6C78.5999 103.9 78.7999 104.2 78.9999 104.5C79.0999 104.6 79.1999 104.7 79.3999 104.8C79.4999 104.9 79.5999 104.9 79.6999 104.9C78.9999 105.7 78.4999 106.5 78.3999 107.7C78.2999 109 78.7999 110.2 79.5999 111.2C79.7999 111.4 79.9999 111.4 80.0999 111.2C80.8999 111.5 81.7999 111.6 82.6999 111.5C82.5999 114.3 82.4999 117.1 82.9999 119.9C83.2999 121.2 83.6999 122.5 84.2999 123.6C84.5999 124.2 84.9999 124.7 85.3999 125.3C85.7999 125.9 86.1999 126.6 86.5999 127.2C86.7999 127.4 87.0999 127.4 87.1999 127.1C87.2999 125.8 86.1999 124.8 85.5999 123.9C84.7999 122.7 84.1999 121.4 83.8999 120C83.1999 117.3 83.1999 114.4 83.1999 111.6C84.8999 111.3 86.5999 110.3 87.8999 109.4C89.0999 108.6 90.2999 107.6 91.3999 106.6C92.5999 105.6 93.8999 104.7 94.9999 103.6C95.0999 103.5 94.9999 103.3 94.7999 103.3Z" fill="#151314"/>
<path d="M84.7998 29.4998C84.7998 29.3998 84.8998 29.3998 84.7998 29.4998V29.4998Z" fill="#151314"/>
<path d="M87.3997 43.5998C88.4997 42.5998 90.0997 41.2998 90.2997 39.7998C90.3997 39.8998 90.3997 39.8998 90.4997 39.9998C90.6997 40.2998 91.0997 40.1998 91.1997 39.7998C91.2997 39.2998 91.1997 38.9998 91.0997 38.5998C90.9997 38.1998 90.7997 37.7998 90.5997 37.3998C90.1997 36.5998 89.7997 35.8998 89.2997 35.1998C88.2997 33.7998 87.1997 32.4998 86.0997 31.1998C85.9997 31.0998 85.8997 30.9998 85.6997 31.0998C85.6997 30.9998 85.6997 30.8998 85.5997 30.7998L85.4997 30.6998C85.4997 30.6998 85.4997 30.6998 85.4997 30.5998L85.3997 30.4998C85.2997 30.3998 85.2997 30.3998 85.1997 30.2998L85.0997 30.1998L84.9997 30.0998C84.9997 30.0998 84.9997 30.0998 84.9997 29.9998V29.8998C84.9997 29.8998 84.9997 29.8998 84.9997 29.7998C85.2997 29.7998 85.4997 29.5998 85.4997 29.2998C85.4997 28.9998 85.2997 28.7998 84.9997 28.7998C84.3997 28.7998 83.9997 29.1998 83.8997 29.7998C83.8997 30.0998 83.7997 30.2998 83.8997 30.5998C83.9997 30.8998 84.1997 31.0998 84.3997 31.2998C84.4997 31.3998 84.6997 31.4998 84.7997 31.5998C84.8997 31.5998 84.9997 31.6998 85.0997 31.6998C85.1997 31.6998 85.2997 31.6998 85.2997 31.6998C85.1997 31.8998 85.0997 32.0998 85.2997 32.2998C86.2997 33.5998 87.2997 34.8998 88.1997 36.2998C88.5997 36.9998 88.9997 37.6998 89.2997 38.3998C89.3997 38.4998 89.3997 38.6998 89.4997 38.7998C89.4997 38.8998 89.3997 38.8998 89.4997 38.9998C90.2997 40.8998 88.1997 42.2998 87.0997 43.2998C85.9997 44.2998 84.9997 45.1998 83.8997 46.0998C83.1997 46.6998 82.3997 47.1998 81.6997 47.6998C82.5997 47.0998 83.5997 46.6998 84.3997 46.0998C85.4997 45.2998 86.4997 44.4998 87.3997 43.5998Z" fill="#151314"/>
<path d="M97.1998 67.4998C96.0998 66.6998 94.5998 66.7998 93.3998 66.0998C92.0998 65.3998 91.2998 64.0998 90.8998 62.6998C90.3998 61.1998 90.1998 59.5998 89.9998 58.0998C89.6998 56.3998 89.4998 54.6998 89.1998 53.0998C89.1998 52.8998 88.8998 52.9998 88.8998 53.0998C89.0998 54.8998 89.1998 56.7998 89.3998 58.5998C89.4998 60.1998 89.6998 61.7998 90.1998 63.3998C90.0998 63.2998 89.8998 63.2998 89.6998 63.2998H89.1998C88.7998 63.1998 88.3998 63.1998 87.8998 63.1998C86.5998 63.0998 85.3998 63.2998 84.1998 63.5998C82.4998 63.9998 80.6998 64.7998 79.3998 66.1998C79.2998 65.1998 79.1998 64.1998 79.0998 63.1998C78.9998 61.5998 78.8998 59.9998 78.8998 58.3998C78.8998 56.7998 79.0998 55.1998 79.1998 53.5998C79.2998 51.9998 79.2998 49.9998 80.3998 48.7998C79.6998 49.4998 79.0998 50.1998 78.8998 51.1998C78.1998 53.8998 77.9998 56.7998 78.0998 59.5998C78.0998 62.0998 78.0998 64.8998 78.7998 67.3998C78.7998 67.3998 78.7998 67.4998 78.6998 67.4998C78.5998 67.5998 78.3998 67.6998 78.4998 67.8998C78.4998 67.8998 78.4998 67.9998 78.3998 67.9998C78.1998 68.3998 78.6998 68.7998 78.9998 68.5998C80.8998 70.4998 83.8998 70.5998 86.3998 69.7998C87.6998 69.3998 88.7998 68.7998 89.7998 67.8998C90.1998 67.4998 90.7998 66.8998 91.0998 66.1998C91.3998 66.5998 91.6998 66.8998 92.0998 67.2998V67.3998C93.7998 73.1998 90.6998 78.6998 87.8998 83.5998C87.5998 84.0998 87.2998 84.6998 86.9998 85.2998C87.0998 85.2998 87.0998 85.2998 87.1998 85.1998C87.5998 84.7998 88.0998 84.3998 88.5998 84.0998C88.8998 83.4998 89.2998 82.7998 89.5998 82.1998C91.8998 77.7998 93.9998 72.6998 92.6998 67.6998C93.9998 68.5998 95.4998 68.6998 96.8998 69.1998C97.3998 68.7998 97.6998 67.8998 97.1998 67.4998Z" fill="#151314"/>
<path d="M79.0997 34.1C79.3997 34.8 80.0998 35.3 80.8998 35.1C81.8998 35.9 83.2998 35.6 84.3998 36.1C84.7998 36.3 85.1998 35.8 84.8998 35.4C84.3998 34.8 83.6998 34.6 82.8998 34.5C82.3998 34.4 81.6998 34.4 81.2998 34C80.8998 33.6 80.9997 32.7 80.9997 32C80.9997 30.8 80.9998 29.6 80.7998 28.4C80.5998 27 79.9998 25.5 80.3998 24C80.3998 23.9 80.4997 23.8 80.4997 23.7C80.7997 23.3 80.9998 22.9 81.2998 22.5C82.2998 20.9 82.6997 19.2 83.1997 17.5V17.4C83.1997 17.3 83.2998 17.2 83.2998 17C83.4998 16.3 83.8998 15.6 84.3998 15.1C84.6998 14.8 84.9998 14.5 85.3998 14.3C85.7998 14.1 86.2998 13.9 86.7998 13.9C87.0998 13.9 87.4998 14 87.7998 14.3C88.0998 14.5 88.3998 14.3 88.3998 14C88.5998 14.1 88.8997 14.1 89.0997 14.2C89.4997 14.4 89.8997 13.7 89.4997 13.6C88.7997 13.3 87.9997 13.1 87.1997 13.2C85.5997 12.8 83.8997 13.9 82.9997 15.4C82.3997 16.5 82.0998 17.8 81.7998 19C81.3998 20.4 80.7997 21.6 79.9997 22.8C79.2997 23.8 78.7997 24.8 78.6997 26C78.5997 27.5 79.0997 28.9 79.0997 30.4C79.0997 31.6 78.4997 32.9 79.0997 34.1Z" fill="#151314"/>
<path d="M102.2 22.9998C102 20.9998 101.2 18.8998 100.2 17.1998C99.3002 15.5998 97.9002 14.4998 96.1002 13.9998C95.7002 13.8998 95.2002 13.7998 94.8002 13.6998C93.3002 13.1998 91.7002 13.3998 90.1002 13.8998C89.9002 13.9998 90.0002 14.2998 90.2002 14.2998H90.3002C90.3002 14.4998 90.4002 14.5998 90.6002 14.5998C92.2002 14.4998 93.8002 14.4998 95.4002 14.8998C95.6002 14.9998 95.9002 14.9998 96.1002 15.0998C96.1002 15.0998 96.1002 15.0998 96.2002 15.0998C97.6002 16.1998 98.7002 17.6998 99.6002 19.2998C100.5 20.7998 101.1 22.3998 101.1 24.1998C101.1 24.7998 101 25.3998 100.9 25.9998C100.8 26.2998 100.7 26.5998 100.5 26.9998C100.5 26.9998 100.4 26.8998 100.3 26.8998C100.3 26.8998 100.3 26.8998 100.3 26.7998C100.3 26.6998 100.3 26.6998 100.3 26.5998C100.3 26.4998 100.2 26.2998 100 26.2998H99.9002C99.9002 25.9998 99.9002 25.6998 99.9002 25.3998C99.9002 24.8998 99.1002 24.8998 99.1002 25.3998C99.1002 25.9998 99.0002 26.6998 99.0002 27.2998C99.0002 27.5998 99.0002 27.8998 99.0002 28.1998C99.0002 28.3998 99.0002 28.4998 99.0002 28.6998C99.0002 28.8998 99.1002 28.9998 99.2002 29.1998C99.3002 29.3998 99.6002 29.3998 99.7002 29.1998C99.7002 29.1998 99.7002 29.1998 99.7002 29.0998C100 28.8998 100.2 28.6998 100.4 28.3998H100.5C101.9 27.0998 102.3 24.6998 102.2 22.9998Z" fill="#151314"/>
<path d="M94.6003 25.3998C94.5003 25.2998 94.3003 25.3998 94.4003 25.4998C94.6003 25.8998 94.9003 26.3998 95.1003 26.7998C95.2003 26.9998 95.3003 27.1998 95.5003 27.3998C95.5003 27.4998 95.6003 27.4998 95.6003 27.5998C95.6003 27.5998 95.5003 27.5998 95.5003 27.6998V27.7998C95.5003 27.7998 95.5003 27.7998 95.5003 27.8998C95.5003 27.8998 95.5003 27.9998 95.4003 27.9998C95.4003 27.9998 95.4003 27.9998 95.4003 28.0998L95.3003 28.1998L95.2003 28.2998L95.1003 28.3998C95.1003 28.4998 95.1003 28.5998 95.2003 28.5998C95.3003 28.5998 95.4003 28.5998 95.4003 28.5998L95.5003 28.4998C95.6003 28.3998 95.6003 28.2998 95.7003 28.1998C95.7003 28.0998 95.8003 27.9998 95.8003 27.9998C96.1003 27.6998 95.9003 27.1998 95.7003 26.8998C95.3003 26.3998 94.9003 25.8998 94.6003 25.3998Z" fill="#151314"/>
<path d="M96.1 29.7997C95.9 29.8997 95.7 29.9997 95.5 29.9997C95.3 30.0997 95.1 30.0997 94.9 30.0997C94.5 30.1997 94 30.0997 93.6 29.9997C93.3 29.8997 93.2 30.3997 93.5 30.4997C94 30.5997 94.5 30.6997 95 30.5997C95.2 30.5997 95.5 30.4997 95.7 30.3997C95.9 30.2997 96.1 30.1997 96.3 29.9997C96.4 29.9997 96.3 29.6997 96.1 29.7997Z" fill="#151314"/>
<path d="M124.4 163.3C123.9 158.8 123.2 154.2 122.2 149.8C120.1 140.4 117.7 131 115.4 121.6C115.3 121.3 114.9 121.5 115 121.7C117.1 131.1 119.3 140.4 121.5 149.8C122.6 154.5 123.2 159.3 123.8 164.1C124.1 166.5 124.4 168.8 124.6 171.2C124.9 173.5 124.9 175.9 125.5 178.1C125.6 178.3 125.9 178.3 125.9 178C126 175.6 125.5 173 125.2 170.6C125 168.2 124.7 165.7 124.4 163.3Z" fill="#151314"/>
<path d="M134.7 181.5C134 183.7 133.7 186 133.4 188.3C131 187.8 128.8 189.1 126.8 190.3C124.5 191.7 122.3 193.1 120.1 194.7C118.9 194.1 117.3 194 116 193.8C114.2 193.6 112.4 193.5 110.7 193.6C108.4 193.7 106 193.9 103.7 194.1C104 193.9 104.3 193.7 104.6 193.4C105.1 192.8 104.8 191.6 103.9 191.7C99.7999 192.2 95.6999 192.7 91.5999 192.2C87.6999 191.7 83.7999 191 79.7999 190.4C81.8999 189.8 83.9999 189.3 86.1999 188.8C88.1999 188.4 90.0999 188 92.0999 188.2C92.3999 188.4 92.7999 188.6 93.1999 188.7C93.5999 188.9 94.0999 188.9 94.5999 188.9C94.6999 188.9 94.6999 188.9 94.6999 188.8C98.1999 189.2 101.7 189.7 105.3 190.1C107.2 190.3 109.2 190.6 111.1 190.8C112.8 191 114.7 191.3 116.4 190.9C116.7 190.8 116.8 190.3 116.4 190.2C114.7 189.9 112.8 190 111.1 189.8C109.2 189.6 107.2 189.4 105.3 189.2C101.5 188.8 97.7999 188.5 93.9999 188.1C93.8999 188.1 93.8999 188 93.7999 188C93.7999 187.8 93.7999 187.7 93.5999 187.6C93.0999 187.4 92.5999 187.3 92.0999 187.2C91.6999 186.9 91.1999 186.5 91.3999 186.3C91.4999 186.1 91.8999 186.1 92.0999 186C92.4999 185.9 92.8999 185.8 93.3999 185.8C94.2999 185.6 95.0999 185.5 95.9999 185.3C96.3999 185.2 96.3999 184.7 96.0999 184.5C95.6999 184.3 95.2999 184.1 94.8999 183.9C95.2999 183.3 95.6999 182.8 96.0999 182.2C96.2999 182 95.8999 181.7 95.6999 181.9C95.1999 182.5 94.6999 183.2 94.0999 183.8C93.8999 184 93.9999 184.2 94.1999 184.3C94.3999 184.4 94.4999 184.5 94.6999 184.6C93.9999 184.7 93.1999 184.9 92.4999 185C91.7999 185.1 90.7999 185.3 90.5999 186.1C90.4999 186.5 90.5999 186.8 90.7999 187.1C89.3999 187.1 87.9999 187.4 86.6999 187.7C84.0999 188.3 81.4999 189 78.8999 189.7C78.4999 189.8 78.4999 190.3 78.7999 190.5C78.6999 190.6 78.5999 190.7 78.5999 190.8C78.5999 190.8 78.5999 190.8 78.4999 190.8C78.4999 190.7 78.4999 190.6 78.4999 190.5C78.4999 190.1 77.8999 190 77.7999 190.4C77.5999 191.4 77.4999 193.1 78.3999 193.7C79.0999 194.2 80.6999 194.3 81.4999 194.4C82.4999 194.6 83.5999 194.8 84.5999 194.9C88.5999 195.5 92.5999 195.7 96.5999 195.7C100.6 195.6 104.6 195.2 108.7 194.9C110.7 194.8 112.7 194.7 114.8 194.8C115.8 194.9 116.8 195 117.9 195.1C118.6 195.2 119.3 195.4 120.1 195.5C120.2 195.7 120.5 195.8 120.7 195.6C120.7 195.6 120.8 195.6 120.8 195.5C120.9 195.5 121 195.4 121 195.3C122.9 194 124.9 192.7 126.9 191.6C127.9 191 129 190.4 130 189.8C131.2 189.1 132.5 188.4 133.8 188.9C134 189 134.2 188.8 134.2 188.6C134.8 186.2 135.6 183.8 135.9 181.4C135.7 181.1 134.8 181 134.7 181.5Z" fill="#151314"/>
<path d="M125.5 114.6C126.4 114.6 127.1 115 127.5 115.8C127.8 116.2 128.2 116.3 128.6 116.1C129 115.9 129.1 115.4 128.9 115C128.8 114.9 128.8 114.8 128.7 114.7C128.7 114.6 128.7 114.6 128.6 114.5C128.6 114.6 128.6 114.3 128.6 114.3C128.6 114.4 128.6 114.2 128.6 114.1C128.7 113.8 128.9 113.6 129.1 113.5C129.5 113.3 129.9 112.8 129.6 112.4C129.1 111.7 128.6 110.9 128.3 110C128.1 109.6 128 109.1 127.9 108.7C127.8 108.5 127.8 108.3 127.7 108.1C127.6 107.8 127.4 107.7 127.2 107.5C127 107.4 126.7 107.5 126.6 107.7C126.6 107.7 126.6 107.8 126.5 107.8C126.4 107.9 126.3 108 126.2 108.2C125.7 110 125.1 111.9 124.6 113.7C124.5 114.1 124.9 114.6 125.5 114.6ZM128 112.4C127.7 112.7 127.5 113 127.3 113.3C127 113.2 126.8 113.1 126.5 113C126.7 112.2 126.9 111.4 127.1 110.6C127.4 111.3 127.7 111.9 128 112.4Z" fill="#151314"/>
<path d="M134.1 182.101C134 180.601 133.6 179.001 133.3 177.401C133 175.601 132.6 173.901 132.3 172.101C132 170.401 131.6 168.701 131.3 167.101C130.9 165.301 130.5 163.501 130.6 161.601C130.7 159.901 131.4 158.301 131.7 156.601C132 155.001 131.9 153.401 131.7 151.901C131.3 148.701 130.1 145.701 128.9 142.801C128.6 141.901 128.2 141.001 127.9 140.101C127.3 138.501 126.8 136.801 126.3 135.101C125.3 131.701 124.4 128.201 123.7 124.801C123.3 122.901 122.9 120.901 122.4 119.001C122.5 119.001 122.5 118.901 122.5 118.801C121.9 116.301 120.9 114.001 120.8 111.401C120.7 108.901 121.1 106.301 121.6 103.901C121.6 103.801 121.6 103.801 121.5 103.801C121.8 103.601 122.1 103.401 122.5 103.401C122.8 103.401 122.9 103.101 122.8 102.901C122.5 102.501 122.2 102.401 121.8 102.501C121.1 102.701 120.7 103.101 119.9 102.801C119.2 102.601 118.6 102.201 117.9 102.001C117.2 101.801 116.4 101.601 115.7 101.401C114.1 101.101 112.2 101.101 110.5 101.601C112.7 100.201 115.2 98.9005 117 97.1005C117.2 96.9005 117 96.6005 116.8 96.7005C114.2 97.5005 111.8 99.5005 109.5 101.001C107.1 102.601 104.7 104.201 102.4 106.001C98.6998 108.901 96.3998 112.801 94.3998 116.901C94.2998 116.901 94.1998 117.001 94.0998 117.101C92.5998 120.201 91.6998 123.501 90.7998 126.701C89.7998 130.301 88.8998 133.901 87.8998 137.501C87.7998 137.801 87.6998 138.101 87.6998 138.501C87.7998 135.801 87.6998 133.001 87.8998 130.301C88.0998 126.501 88.8998 122.701 91.7998 120.001C92.4998 119.301 91.4998 118.301 90.7998 119.001C88.8998 120.801 87.7998 123.001 87.0998 125.501C86.5998 124.201 85.8998 122.901 85.2998 121.601C83.7998 118.501 83.1998 115.201 83.6998 111.801C83.7998 111.101 82.6998 110.801 82.5998 111.501C81.9998 114.701 82.2998 118.101 83.4998 121.101C84.0998 122.501 84.7998 123.901 85.2998 125.401C85.4998 126.101 85.7998 126.901 85.7998 127.601C85.8998 128.301 85.8998 128.901 86.3998 129.301C86.1998 131.401 86.1998 133.601 86.0998 135.701C85.9998 138.001 85.9998 140.401 86.1998 142.701C86.1998 143.201 86.5998 143.301 86.8998 143.301C86.7998 144.701 86.7998 146.101 86.9998 147.601C87.3998 150.601 87.7998 154.301 89.4998 157.001C89.5998 157.301 89.6998 157.601 89.7998 157.901C89.6998 158.901 89.6998 159.901 89.9998 161.001C90.4998 163.201 91.6998 165.201 92.5998 167.201C93.5998 169.201 94.4998 171.201 95.5998 173.001C95.5998 173.101 95.5998 173.201 95.6998 173.301C95.4998 173.501 95.3998 173.801 95.5998 174.101C96.2998 175.601 96.5998 177.301 96.4998 178.901C96.4998 179.301 96.7998 179.601 97.0998 179.601V180.001C96.6998 180.101 96.2998 180.201 95.9998 180.301C95.2998 180.701 94.7998 181.501 94.7998 182.301C94.7998 182.501 94.7998 182.701 94.8998 182.901C94.8998 183.001 94.9998 183.101 94.9998 183.201C94.8998 183.201 94.7998 183.301 94.6998 183.401C94.1998 183.801 94.1998 184.201 94.2998 184.701C94.0998 184.801 93.8998 184.901 93.6998 184.901C93.2998 185.101 92.5998 185.201 92.3998 185.601C92.2998 185.801 92.2998 186.201 92.5998 186.301C93.0998 186.601 93.5998 186.301 94.0998 186.201C94.5998 186.101 95.0998 186.001 95.5998 185.801C96.0998 185.701 96.2998 185.101 96.0998 184.601C96.2998 184.501 96.4998 184.401 96.6998 184.201C96.9998 183.701 96.9998 183.101 96.7998 182.601C96.6998 182.201 96.6998 182.101 96.9998 181.901C97.3998 181.601 97.8998 181.601 98.3998 181.601C98.7998 181.601 99.1998 181.301 99.1998 180.801C99.1998 180.001 99.0998 179.201 98.7998 178.401C98.9998 178.201 99.2998 178.001 99.5998 177.801C101.2 177.301 102.3 175.901 103.2 174.501C103.7 173.801 104.3 173.201 104.7 172.501C106.5 169.801 107.9 166.701 108.4 163.501C108.5 163.001 107.8 162.801 107.6 163.301C107.6 163.301 107.6 163.401 107.5 163.401C107.4 163.401 107.3 163.401 107.2 163.601C106.4 164.801 105.9 166.301 105.2 167.601C104.5 169.001 103.9 170.401 103.2 171.801C103 172.101 102.9 172.501 102.7 172.801C102 173.701 101.2 174.601 100.4 175.401C99.9998 175.801 99.4998 176.101 98.9998 176.501C99.2998 176.001 99.4998 175.501 99.6998 174.901C100.1 173.901 100.5 172.901 100.9 171.801C101.7 169.601 102.4 167.301 102.8 165.001C102.9 164.701 102.4 164.501 102.3 164.901C101.8 167.201 101.1 169.401 100.1 171.501C99.6998 172.501 99.1998 173.501 98.6998 174.401C98.3998 175.001 97.9998 175.701 97.7998 176.301C97.5998 175.401 97.3998 174.601 96.9998 173.801V173.701C96.6998 172.701 96.2998 171.701 95.7998 170.701C97.3998 169.201 98.8998 167.401 99.9998 165.501C101.2 163.401 101.6 161.001 101.8 158.601C102.3 152.701 102.2 146.801 101.5 141.001C101.6 139.701 101.8 138.401 101.9 137.101C101.9 136.801 101.4 136.701 101.3 137.001C100.4 140.601 100.1 144.301 99.9998 148.001C99.8998 151.801 99.8998 155.601 100.3 159.401C100.4 159.901 100.8 160.101 101.1 160.001C100.9 161.701 100.5 163.401 99.6998 164.901C98.5998 166.901 96.9998 168.301 95.4998 169.901C94.8998 168.401 94.0998 167.001 93.2998 165.701C93.1998 165.501 93.0998 165.401 92.9998 165.201C92.2998 163.901 91.7998 162.501 91.2998 161.101C90.5998 158.801 91.0998 156.701 91.6998 154.401C92.2998 152.001 92.8998 149.601 93.4998 147.201C93.5998 146.601 92.6998 146.301 92.5998 146.901C91.8998 149.401 90.9998 151.901 90.3998 154.401C90.3998 154.501 90.3998 154.601 90.2998 154.601C89.9998 152.301 89.1998 149.901 88.7998 147.601C88.4998 145.901 88.2998 144.201 88.4998 142.401C88.6998 140.701 89.1998 138.901 89.5998 137.201C90.3998 133.901 91.1998 130.601 91.9998 127.301C92.1998 126.301 92.3998 125.301 92.6998 124.301C92.7998 123.901 92.8998 123.401 92.9998 123.001C93.4998 121.001 94.0998 119.101 94.7998 117.201C94.7998 117.101 94.7998 117.101 94.7998 117.101C95.6998 115.401 96.5998 113.701 97.5998 112.101C99.0998 109.801 101 107.901 103.3 106.301C104.9 105.201 106.4 104.101 108 103.001C108.1 103.101 108.3 103.201 108.4 103.101C110.4 101.601 113.7 101.901 116 102.401C117.3 102.701 118.3 103.301 119.6 103.601C120.1 103.701 120.6 103.801 121 103.701C121.1 103.701 121.2 103.601 121.3 103.601C120.7 106.101 120.3 108.701 120.3 111.301C120.3 112.101 120.4 112.901 120.6 113.701C119.8 111.901 118.8 110.301 117.4 108.901C117.2 108.701 116.9 109.001 117.1 109.201C121.3 113.701 121.9 120.201 123.1 125.901C123.8 129.201 124.6 132.501 125.6 135.801C126.1 137.501 126.6 139.101 127.1 140.801C127.5 142.001 127.8 143.301 128.5 144.401C129.5 147.001 130.4 149.601 130.6 152.401C130.8 154.101 130.7 155.801 130.3 157.501C129.9 159.001 129.5 160.501 129.5 162.101C129.5 165.301 130.5 168.601 131.1 171.701C131.5 173.501 131.8 175.201 132.2 177.001C132.4 177.901 132.5 178.801 132.7 179.701C132.3 179.101 131.9 178.501 131.6 177.801C130.8 176.401 130.2 175.001 129.6 173.501C129.5 173.101 128.8 173.301 129 173.701C129.5 175.201 130.1 176.701 130.8 178.101C131.5 179.401 132.2 180.801 133.3 181.801C133.3 181.901 133.4 182.101 133.4 182.201C133.5 182.601 134.2 182.501 134.1 182.101ZM101 147.101C101.1 145.901 101.1 144.701 101.3 143.401C101.7 147.601 101.8 151.801 101.5 156.001C101.3 153.101 101.2 150.201 101.1 147.301C101.1 147.201 101.1 147.101 101 147.101Z" fill="#151314"/>
<path d="M128 181.501C127.5 180.401 126.8 179.401 126 178.501C124.5 176.601 122.5 175.101 120.3 174.101C119.8 173.901 119.4 174.601 119.9 174.801C122 175.801 123.8 177.201 125.2 179.001C125.9 179.901 126.5 180.901 127 181.901C127.2 182.401 127.5 182.901 127.6 183.401C127.8 183.901 128.1 184.401 128.3 184.901C128.4 185.101 128.7 185.001 128.7 184.801C128.7 184.201 128.7 183.601 128.4 183.001C128.5 182.601 128.3 182.001 128 181.501Z" fill="#151314"/>
<path d="M120.1 128.4C120.2 128.9 121 128.7 120.9 128.2C120.2 123.8 117.7 119.6 113.9 117.2C109.9 114.6 104.9 114.4 100.7 116.6C100.1 116.9 100.6 117.8 101.2 117.5C105.2 115.3 109.9 115.7 113.6 118.2C117.2 120.6 119.2 124.4 120.1 128.4Z" fill="#151314"/>
<path d="M130.4 163.101C130.4 163.001 130.4 163.001 130.4 162.901C130.8 159.701 131.4 156.501 131 153.401C130.5 149.401 129.3 145.501 128.4 141.601C126.6 133.401 124.7 125.301 122.6 117.201C121.4 112.501 121.3 108.001 122.2 103.301C122.3 102.701 121.5 102.501 121.3 103.101C120.3 106.801 119.8 110.601 120.3 114.501C120.9 118.701 122.1 122.801 123 126.901C125 135.101 127.2 143.201 128.9 151.501C129.4 154.001 129.4 156.301 129 158.801C128.7 160.901 128.3 163.001 129.1 165.101C129.1 165.201 129.2 165.301 129.3 165.301C129.2 168.601 129.8 171.801 130.8 175.001C131.6 177.701 132.5 180.301 133.3 182.901C130.9 183.601 128.5 184.701 126.4 186.101C125.4 186.801 124.4 187.601 123.4 188.401C122.9 188.801 122.4 189.301 122 189.801C121.6 190.201 121.2 190.901 120.7 191.001C120.1 191.101 119.3 191.001 118.6 190.901C117.8 190.901 117 190.801 116.2 190.801C114.6 190.701 113.1 190.701 111.5 190.801C108.4 191.001 105.5 191.601 102.6 192.501H102.5C101.7 192.701 101.8 193.901 102.7 194.001C105.6 194.301 108.5 194.701 111.4 194.901C112.9 195.001 114.4 195.001 115.9 195.101C117.2 195.201 118.6 195.301 120 195.201C122.4 195.001 124.4 192.901 126.4 191.701C128.1 190.601 129.9 189.601 131.8 188.601C132.3 189.201 133.4 189.301 133.9 188.501C134.2 187.901 134.5 187.301 134.7 186.601C134.7 186.701 134.8 186.801 134.8 186.901C135 187.601 136.1 187.501 136.1 186.701C135.7 178.601 130.3 171.401 130.4 163.101Z" fill="#151314"/>
<path d="M93.5 99.9004C92.1 99.1004 90.2 99.5004 88.7 99.9004C87 100.3 85.4 100.9 83.8 101.7C81.1 102.9 78.6 105.2 78.5 108.3C78.5 108.4 78.5 108.5 78.6 108.6C78.4 109.7 78.8 110.9 79.7 111.6C80.8 112.4 82.3 112.3 83.5 111.9C84.7 111.5 86 110.9 87.1 110.1C87.7 109.7 88.3 109.3 88.8 108.8C89.2 108.4 89.9 107.8 90 107.3C90.1 106.9 89.8 106.6 89.4 106.7C88.9 106.8 88.5 107.2 88.2 107.5C87.8 107.8 87.3 108.1 86.9 108.4C86 109 85.1 109.5 84.1 109.9C83.2 110.2 82.2 110.6 81.3 110.6C80.4 110.5 79.7 109.8 79.8 108.9C79.8 108.7 79.8 108.6 79.7 108.4C79.9 105.5 82.6 104 84.9 102.9C86.2 102.3 87.6 101.8 89 101.4C89.7 101.2 90.5 101.1 91.3 101C92 100.9 92.8 100.9 93.5 100.7C93.7 100.6 93.8 100.1 93.5 99.9004Z" fill="#151314"/>
<path d="M81.2999 49.8004C84.6999 46.9004 90.2999 44.6004 90.6999 39.5004C90.7999 38.7004 89.5999 38.7004 89.4999 39.5004C89.1999 42.1004 86.8999 43.8004 84.8999 45.3004C83.6999 46.2004 82.3999 47.1004 81.1999 48.0004C80.3999 48.6004 79.4999 49.2004 79.0999 50.2004C78.5999 51.3004 78.5999 52.7004 78.5999 53.8004C78.4999 55.4004 78.4999 56.9004 78.3999 58.5004C78.3999 60.0004 78.3999 61.5004 78.4999 63.0004C78.5999 64.4004 78.4999 65.9004 79.2999 67.1004C79.3999 67.3004 79.6999 67.3004 79.7999 67.1004C80.3999 65.9004 80.1999 64.5004 80.0999 63.2004C79.9999 61.7004 79.9999 60.2004 79.9999 58.7004C79.9999 57.1004 79.9999 55.6004 79.9999 54.0004C80.0999 52.5004 79.9999 50.9004 81.2999 49.8004Z" fill="#151314"/>
<path d="M91.8999 71C91.7999 72.4 91.5999 73.7 91.2999 75C91.2999 75.2 91.1999 75.4 91.0999 75.7C90.0999 78.1 88.8999 80.4 87.7999 82.7C87.2999 83.6 86.8999 84.6 86.3999 85.6C86.5999 85.5 86.8999 85.4 87.0999 85.3C87.4999 84.9 87.9999 84.5 88.3999 84.2C88.8999 83.3 89.2999 82.5 89.7999 81.6C92.1999 77.4 95.4999 71.5 93.0999 66.6C92.9999 66.3 92.5999 66.3 92.2999 66.4C92.1999 66.4 92.1999 66.3 92.0999 66.3C91.9999 66.3 91.9999 66.2 91.8999 66.2C91.7999 66.1 91.6999 66 91.5999 65.9C91.5999 65.9 91.5999 65.9 91.5999 65.8C91.5999 65.7 91.4999 65.7 91.4999 65.6C91.4999 65.5 91.3999 65.5 91.3999 65.4V65.3C91.3999 65.3 91.3999 65.3 91.3999 65.2C91.3999 65.1 91.2999 65 91.2999 64.9V64.8C91.2999 64.7 91.2999 64.7 91.2999 64.6C91.2999 64.3 90.9999 64 90.6999 64C90.3999 64 90.1999 64.3 90.0999 64.6C89.9999 65.3 90.2999 66 90.5999 66.6C90.7999 66.9 91.0999 67.2 91.3999 67.4C91.4999 67.5 91.5999 67.5 91.6999 67.6C91.7999 67.7 91.8999 67.7 91.9999 67.7C91.9999 67.8 91.9999 67.8 91.9999 67.9C91.8999 68.8 91.9999 69.9 91.8999 71Z" fill="#151314"/>
<path d="M94.1001 104C93.5001 103.9 92.9001 104.2 92.4001 104.5C91.8001 104.7 91.3001 105 90.8001 105.3C89.7001 106 88.8001 107 87.8001 107.9C86.7001 108.8 85.3001 109.3 84.0001 109.7C83.3001 109.9 82.7001 110.1 82.0001 110.3C81.7001 110.4 80.8001 110.8 80.6001 110.4C80.3001 109.8 79.2001 110.2 79.5001 110.9C80.0001 112.1 81.3001 112.2 82.5001 111.9C84.1001 111.6 85.7001 110.9 87.2001 110.1C88.6001 109.4 89.5001 108.2 90.7001 107.2C91.0001 106.7 91.7001 106.2 92.4001 105.8C93.0001 105.4 93.8001 105.2 94.3001 104.6C94.5001 104.4 94.3001 104.1 94.1001 104Z" fill="#151314"/>
<path d="M113.9 98.6002C112.8 99.1002 111.8 100.1 110.9 100.9C110 101.7 109 102.6 108 103.3C106.2 104.5 104.1 105.2 102.3 106.6C101.9 106.9 102.4 107.5 102.8 107.2C104.6 105.9 106.9 105.4 108.8 104.1C109.8 103.4 110.7 102.5 111.6 101.7C112.6 100.8 113.6 100 114.3 98.9002C114.4 98.8002 114.1 98.5002 113.9 98.6002Z" fill="#151314"/>
<path d="M106.2 93.1006C105.8 93.3006 105.3 93.6006 104.9 93.9006C104.8 94.1006 104.6 94.3006 104.3 94.5006C103.7 94.9006 103.1 95.4006 102.4 95.8006C102.1 96.0006 101.9 96.1006 101.6 96.1006C101.4 96.2006 101.3 96.3006 101.1 96.4006C100.7 96.8006 100.3 97.3006 99.9003 97.8006C98.5003 99.5006 97.1003 101.201 95.9003 103.001C95.8003 103.101 95.8003 103.201 95.7003 103.401C95.5003 103.701 95.4003 103.901 95.2003 104.201C95.1003 104.401 95.0003 104.601 94.9003 104.801C94.9003 104.801 94.9003 104.901 94.8003 104.901C94.1003 106.301 93.4003 107.801 92.8003 109.201C91.8003 111.401 90.7003 113.601 89.9003 115.901C89.8003 115.901 89.8003 116.001 89.8003 116.001C89.7003 116.101 89.7003 116.301 89.6003 116.401C89.5003 116.601 89.6003 116.901 89.8003 117.001C89.9003 117.001 90.1003 117.101 90.2003 117.101C90.4003 117.101 90.6003 117.001 90.7003 116.901C90.9003 116.701 91.2003 116.501 91.4003 116.301C91.8003 115.901 92.2003 115.401 92.4003 114.901C92.8003 114.001 93.1003 113.001 93.2003 112.001C93.3003 111.601 93.4003 111.101 93.5003 110.701C94.5003 108.501 95.5003 106.301 96.7003 104.301C97.5003 103.001 98.3003 101.901 99.2003 100.701C100.1 100.001 100.9 99.4006 101.7 98.6006C103.2 97.1006 104.1 95.2006 106 94.1006C106.1 94.1006 106.2 94.0006 106.3 94.0006C106.3 93.6006 106.2 93.4006 106.2 93.1006Z" fill="#151314"/>
<path d="M123 98.1005C122.8 97.4005 122.4 96.9005 122 96.3005C121.2 95.3005 121.6 94.6005 121.5 93.4005C121.4 92.1005 120.9 91.4005 120.2 91.0005C120 90.2005 119.6 89.3005 119.3 88.6005C118.9 87.4005 118.5 86.1005 118.2 84.8005C117.6 82.2005 117.2 79.6005 117.1 77.0005C116.8 71.9005 117.2 67.0005 118.6 62.1005C119.2 61.0005 119.6 59.9005 119.8 58.8005C120.5 56.1005 119.6 53.6005 118.3 51.4005C118.4 51.4005 118.4 51.4005 118.5 51.3005C118.7 50.8005 118.8 50.3005 118.8 49.8005V49.7005C118.9 49.5005 119 49.4005 119 49.2005C119.2 48.5005 119.3 47.8005 119.5 47.1005C119.8 45.7005 120 44.3005 120 42.9005C119.9 40.4005 118.1 38.8005 116.2 37.4005C115.6 37.0005 114.9 37.9005 115.4 38.4005C116.1 39.0005 116.9 39.7005 117.4 40.5005C118 41.4005 118.2 42.4005 118.1 43.5005C118 44.7005 117.7 45.9005 117.4 47.0005C117.3 47.6005 117.1 48.2005 117 48.8005C116.9 49.1005 116.9 49.4005 116.9 49.6005C116.7 49.3005 116.5 49.0005 116.2 48.7005C115.8 48.1005 114.8 48.7005 115.2 49.3005C117.4 52.2005 119.4 55.4005 118.2 59.1005C117.7 60.7005 117 62.5005 115.7 63.6005C115.4 63.9005 115 64.1005 114.6 64.4005C114.5 64.4005 114.3 64.5005 114.2 64.5005C114.1 64.6005 114 64.6005 113.9 64.7005C113.7 64.8005 113.6 64.9005 113.4 64.9005C113 65.0005 112.7 65.2005 112.3 65.3005C111.9 65.4005 111.5 65.9005 111.7 66.4005C111.9 66.9005 112.3 67.1005 112.8 67.0005C113.1 66.9005 113.3 66.8005 113.6 66.8005H113.8C113.9 66.8005 114 66.7005 114.1 66.7005C114.4 66.6005 114.6 66.5005 114.9 66.4005C115 66.4005 115.1 66.3005 115.2 66.2005C115.3 66.2005 115.3 66.1005 115.4 66.0005C114.3 70.1005 114 74.3005 114.5 78.5005C114.8 80.8005 115.3 83.0005 116.1 85.2005C116.4 86.2005 116.8 87.5005 117.3 88.6005C117.6 88.6005 117.8 88.7005 118 88.9005C119 89.6005 119.8 90.8005 120 92.0005C120.7 93.2005 120 95.2005 120.8 96.4005C121.4 97.3005 121.9 97.9005 122.1 99.0005C122.3 100 122.3 101.2 122.2 102.3C122.2 102.5 122.5 102.6 122.5 102.4C123.6 101 123.5 99.6005 123 98.1005Z" fill="#151314"/>
<path d="M24.2001 138.201C24.2001 138.001 24.2001 137.901 24.1001 137.801C24.0001 137.701 24.0001 137.701 23.9001 137.701C23.8001 137.701 23.8001 137.601 23.7001 137.601C23.6001 137.601 23.5001 137.601 23.4001 137.501C23.5001 137.501 23.3001 137.501 23.3001 137.501C23.1001 137.501 23.0001 137.401 22.8001 137.401C22.9001 137.401 22.7001 137.301 22.7001 137.301C22.6001 137.301 22.6001 137.201 22.5001 137.201C22.6001 137.301 22.4001 137.101 22.4001 137.101C22.4001 137.101 22.2001 136.901 22.3001 137.001C22.2001 136.901 22.2001 136.901 22.2001 136.801C22.2001 136.801 22.2001 136.701 22.1001 136.701C22.1001 136.601 22.1001 136.601 22.1001 136.701C22.0001 136.401 21.9001 136.101 22.0001 135.701C22.0001 135.201 22.3001 134.501 22.9001 134.201C23.4001 133.901 24.1001 134.001 24.5001 134.401C24.8001 134.701 25.3001 134.301 25.0001 134.001C24.6001 133.401 23.9001 133.101 23.2001 133.201C22.4001 133.301 21.8001 133.701 21.4001 134.301C20.5001 135.601 20.8001 137.501 22.1001 138.501C22.5001 138.801 22.9001 138.901 23.4001 138.901C23.7001 138.901 23.9001 138.901 24.1001 138.701C23.9001 138.601 24.1001 138.401 24.2001 138.201Z" fill="#151314"/>
<path d="M37.1001 140.4C37.1001 140.5 37.1001 140.6 37.1001 140.7C37.1001 140.9 37.1001 141 37.2001 141.2C37.2001 141.3 37.3001 141.3 37.3001 141.4C37.4001 141.5 37.5001 141.5 37.5001 141.6C37.7001 141.7 37.9001 141.8 38.1001 141.8C38.1001 141.8 38.1001 141.8 38.2001 141.8C38.3001 141.8 38.4001 141.8 38.4001 141.8C38.5001 141.8 38.6001 141.7 38.7001 141.7C38.9001 141.6 39.0001 141.5 39.1001 141.3C39.2001 141.2 39.2001 141.1 39.2001 141V140.9C39.2001 140.8 39.2001 140.7 39.2001 140.6C39.2001 140.5 39.2001 140.4 39.2001 140.4C39.2001 140.4 39.2001 140.4 39.2001 140.3C39.1001 140.1 39.0001 139.9 38.9001 139.8L38.8001 139.7C38.7001 139.6 38.6001 139.6 38.5001 139.5C38.5001 139.5 38.4001 139.5 38.4001 139.4H38.3001C38.2001 139.4 38.1001 139.4 38.0001 139.4C37.9001 139.4 37.9001 139.4 37.9001 139.4C37.8001 139.4 37.7001 139.5 37.7001 139.5C37.6001 139.6 37.4001 139.7 37.4001 139.9C37.4001 140 37.4001 140 37.4001 140.1C37.3001 140.1 37.1001 140.2 37.1001 140.4Z" fill="#151314"/>
<path d="M85.7005 165.4C83.4005 164.6 80.7005 164.7 78.4005 164.5C75.8005 164.3 73.1005 164.4 70.4005 164.5C65.3005 164.7 60.2005 165.2 55.1005 166C54.5005 166.1 54.8005 167 55.3005 166.9C60.4005 166.2 65.5005 165.8 70.6005 165.8C73.0005 165.8 75.4005 165.9 77.8005 166C80.3005 166.1 83.0005 166.6 85.5005 166.3C86.1005 166.3 86.3005 165.6 85.7005 165.4Z" fill="#151314"/>
<path d="M50.2002 128.9C50.5002 128.8 50.8002 128.7 51.1002 128.6C51.4002 128.5 51.8002 128.4 52.1002 128.3C52.3002 128.2 52.4002 127.9 52.4002 127.7C52.4002 127.6 52.3002 127.5 52.3002 127.4C52.2002 127.3 52.0002 127.2 51.9002 127.2C51.6002 127.2 51.2002 127.4 50.9002 127.5C50.6002 127.6 50.3002 127.7 50.0002 127.7C49.7002 127.8 49.5002 128.1 49.6002 128.4C49.5002 128.8 49.8002 129 50.2002 128.9Z" fill="#151314"/>
<path d="M55.7003 160.4C55.5003 160 55.1003 159.7 54.7003 159.5C54.7003 159.5 54.7003 159.5 54.6003 159.5C54.6003 159.4 54.6003 159.4 54.6003 159.3C54.2003 158.5 53.0003 158 52.2003 157.7C51.3003 157.3 50.4003 156.9 49.5003 156.5C47.9003 155.9 46.0003 155.7 44.8003 154.4C45.9003 153.7 46.8003 152.7 47.4003 151.4C48.6003 148.9 49.2003 145.8 49.1003 143C49.1003 139.6 47.9003 136.3 46.2003 133.4C46.1003 133.3 46.0003 133.2 45.9003 133.1C43.4003 128.8 37.5003 128.3 33.1003 129.3C29.0003 130.2 24.6003 133.4 24.6003 138C24.6003 138.3 25.1003 138.4 25.2003 138.1C26.1003 134.1 29.2003 131.4 33.2003 130.6C35.3003 130.2 37.4003 130.3 39.5003 130.6C41.6003 130.8 43.4003 131.6 44.6003 133.3C40.4003 134 36.4003 135.3 32.4003 136.5C30.9003 136.9 29.3003 137.3 28.6003 138.8C28.0003 140 28.1003 141.5 27.9003 142.8C26.5003 142 25.3003 140.7 24.9003 139.1C24.7003 138.4 23.7003 138.7 23.8003 139.4C24.0003 140.4 24.4003 141.4 24.9003 142.2C24.4003 142.4 24.0003 142.7 23.7003 143.1C23.0003 143.9 22.8003 145 23.0003 146C23.3003 148 25.5003 149.9 27.5003 149.5C28.5003 149.3 29.3003 148.3 29.1003 147.3C29.1003 147 28.6003 147.1 28.6003 147.4C28.5003 148.3 27.4003 148.4 26.8003 148.2C26.1003 147.9 25.3003 147.3 24.9003 146.7C24.5003 146 24.3003 145.3 24.6003 144.6C24.7003 144.3 24.9003 144 25.1003 143.9C25.3003 143.8 25.4003 143.7 25.6003 143.7C25.7003 143.7 25.9003 143.7 26.0003 143.7C26.1003 143.7 26.1003 143.7 26.2003 143.7C26.8003 144.2 27.5003 144.6 28.3003 144.9C28.7003 145.1 29.2003 144.7 29.3003 144.3C29.7003 142.8 29.2003 141.1 29.7003 139.7C30.3003 138.1 32.7003 137.6 34.2003 137.1C37.7003 135.9 41.4003 134.8 45.1003 134.3C46.8003 137.2 47.6003 140.3 47.9003 143.6C48.2003 146.9 48.1003 150.9 45.6003 153.3C43.2003 155.7 38.7003 155.6 35.7003 154.7C34.1003 154.2 32.7003 153.4 31.6003 152.3C30.6003 151.3 30.2003 149.9 29.3003 148.9C29.2003 148.8 29.0003 148.8 28.9003 149C28.4003 151.3 30.9003 153.6 32.7003 154.6C35.1003 156 38.3003 156.5 41.1003 156C42.2003 155.8 43.3003 155.5 44.2003 155C44.2003 155.1 44.2003 155.1 44.3003 155.2C45.4003 156.6 47.2003 157 48.8003 157.6C49.8003 158 50.7003 158.4 51.6003 158.9C52.1003 159.2 52.5003 159.4 53.0003 159.7C53.1003 159.8 53.3003 159.9 53.4003 159.9C53.3003 159.9 53.2003 160 53.1003 160.1L52.8003 160.5C52.8003 160.6 52.7003 160.6 52.7003 160.7C52.2003 160.5 51.7003 160.5 51.2003 160.3C50.5003 160.1 49.8003 159.9 49.2003 159.7C47.9003 159.3 46.5003 158.8 45.2003 158.3C44.7003 157.6 44.2003 156.9 43.7003 156.2C43.4003 155.8 42.7003 156.2 43.0003 156.6C47.4003 162.6 50.5003 169.8 51.4003 177.2C51.4003 177.5 51.8003 177.6 51.9003 177.3C52.4003 175.5 52.1003 173.6 51.6003 171.8C51.1003 169.9 50.4003 168 49.7003 166.2C48.7003 163.8 47.4003 161.5 45.9003 159.2C46.9003 159.7 47.9003 160.1 48.9003 160.5C49.6003 160.8 50.3003 161 51.0003 161.1C51.5003 161.2 52.2003 161.4 52.7003 161.3C52.6003 161.4 52.5003 161.6 52.5003 161.8C52.5003 162 52.7003 162.3 52.8003 162.4C53.0003 162.7 53.3003 162.9 53.6003 163C54.0003 163.3 54.6003 163.1 54.8003 162.7C54.9003 162.6 54.9003 162.5 54.9003 162.4C55.3003 162.4 55.7003 162.1 55.8003 161.7C56.0003 161.3 55.9003 160.8 55.7003 160.4ZM54.9003 161.3C54.9003 161.4 54.9003 161.4 54.9003 161.3C54.9003 161.4 54.8003 161.4 54.8003 161.4C54.7003 161.2 54.5003 161 54.2003 161.1C53.9003 161.2 53.8003 161.4 53.9003 161.7C53.9003 161.8 53.9003 161.8 54.0003 161.9V162C54.0003 162 53.9003 162 53.9003 161.9L53.8003 161.8L53.7003 161.7L53.6003 161.6V161.5C53.6003 161.5 53.6003 161.4 53.5003 161.4C53.5003 161.3 53.4003 161.3 53.3003 161.2C53.3003 161.1 53.2003 161.1 53.1003 161.1C53.2003 161 53.2003 160.9 53.2003 160.8L53.3003 160.7C53.4003 160.6 53.6003 160.5 53.7003 160.3C53.8003 160.2 53.8003 160.1 53.8003 160C53.8003 159.9 53.8003 159.9 53.8003 159.8C53.9003 159.8 54.0003 159.9 54.2003 159.9C54.2003 160 54.3003 160.2 54.4003 160.3C54.4003 160.3 54.5003 160.3 54.5003 160.4C54.6003 160.4 54.6003 160.5 54.7003 160.5C54.8003 160.5 54.8003 160.6 54.8003 160.6L54.9003 160.7C54.9003 160.8 55.0003 160.8 55.0003 160.9C55.0003 160.9 55.0003 160.9 55.0003 161V161.1C54.9003 161.2 54.9003 161.2 54.9003 161.3Z" fill="#151314"/>
<path d="M21.3002 136C21.1002 136 21.0002 136 20.8002 135.9C20.9002 135.4 20.7002 134.9 20.2002 134.7C20.2002 134.5 20.1002 134.3 19.9002 134.2C19.5002 134 19.1002 133.8 18.7002 133.7C17.9002 133.3 17.0002 133.2 16.2002 133.4C15.3002 133.5 14.5002 133.8 13.8002 134.5C11.5002 136.7 12.9002 139.9 13.6002 142.4C14.4002 145.2 13.9002 148.2 12.4002 150.8C11.7002 152 10.5002 153.6 8.90022 153.4C7.50022 153.2 7.20022 151.4 5.90022 151.1C5.30022 151 4.70022 151.6 5.10022 152.2C5.30022 152.5 5.60022 152.9 5.90022 153.2C6.90022 155.3 8.70022 156.9 11.1002 157.3C13.9002 157.9 16.7002 156.8 18.5002 154.7C20.4002 152.5 21.2002 149.6 21.2002 146.7C21.2002 145 21.0002 143.3 20.7002 141.7C20.5002 140.9 20.3002 140.1 20.3002 139.2C20.3002 138.5 20.8002 137.6 21.4002 137.3C21.9002 136.8 21.8002 136.1 21.3002 136Z" fill="#151314"/>
<path d="M45.7 145.9C45.6 145.1 45.6 144.4 45.5 143.6C45.5 143.4 45.2 143.4 45.2 143.6C45.1 143.8 45.1 144 45.1 144.1C44.6 144.1 44.3 144.5 43.9 144.7C43.5 144.9 43 145.1 42.6 145.3C41.7 145.6 40.7 145.7 39.8 145.5C39.6 145.5 39.3 145.6 39.3 145.8C39.2 146 39.4 146.2 39.6 146.3C39.5 146.3 39.3 146.5 39.3 146.6C39.1 147.8 38.8 149.1 39.3 150.3C39.7 151.3 40.5 152.2 41.6 152.4C42.8 152.6 43.8 151.9 44.5 151C45.2 150.1 45.9 149 46 147.9C45.8 147.3 45.7 146.6 45.7 145.9ZM44.8 147.6C44.5 148.7 43.7 149.8 42.8 150.5C42 151.1 41.1 151.3 40.4 150.4C39.6 149.4 39.8 148 39.9 146.8C39.9 146.6 39.8 146.5 39.7 146.4C40.6 146.5 41.6 146.4 42.5 146.2C43 146.1 43.5 145.9 44 145.6C44.3 145.5 44.6 145.3 44.8 145.1C44.9 145.9 45 146.8 44.8 147.6Z" fill="#151314"/>
<path d="M46.4001 134.6C46.3001 134.5 46.3001 134.4 46.3001 134.3C46.3001 134.2 46.3001 134.2 46.3001 134.1C46.3001 134.3 46.3001 134.2 46.3001 133.9C46.2001 133.5 45.9001 133.3 45.6001 133.1C45.4001 133 45.2001 132.9 45.0001 132.8C45.0001 132.7 45.1001 132.6 45.1001 132.4C45.1001 131.4 44.4001 130.9 43.6001 130.6C42.7001 130.3 41.8001 130 40.9001 129.8C39.0001 129.4 37.0001 129.5 35.1001 129.8C32.7001 130.2 29.9001 131.1 27.9001 132.7C27.8001 132.8 27.7001 132.9 27.6001 133C26.9001 133.7 26.2001 134.5 25.9001 135.5V135.6C25.7001 135.9 25.6001 136.3 25.6001 136.7V136.8C25.5001 136.9 25.5001 136.9 25.4001 137C24.0001 139.2 26.0001 141.4 27.8001 142.5C27.9001 142.6 28.0001 142.6 28.1001 142.6C28.1001 142.7 28.0001 142.9 28.0001 143C27.8001 144.1 29.5001 144.7 29.8001 143.5C30.2001 142 30.9001 140.6 31.8001 139.4C31.9001 139.3 32.0001 139.2 32.1001 139C33.3001 137.8 34.6001 136.7 36.2001 136.1C36.5001 136 36.6001 135.8 36.7001 135.7C36.8001 135.7 36.9001 135.6 37.1001 135.6C38.3001 135.2 39.5001 134.8 40.7001 134.5C40.9001 134.4 41.2001 134.4 41.4001 134.3C41.8001 134.3 42.2001 134.4 42.6001 134.4C43.7001 134.5 44.8001 134.5 45.7001 135.2C46.0001 135.4 46.3001 135.5 46.6001 135.3C46.5001 135.3 46.6001 134.9 46.4001 134.6Z" fill="#151314"/>
<path d="M43.8003 139.8C43.4003 139.9 43.2003 140.1 43.1003 140.5C43.0003 140.7 43.2003 141 43.4003 141.1C43.6003 141.2 43.9003 141 44.0003 140.8C44.0003 140.8 44.0003 140.8 44.1003 140.8H44.2003H44.3003H44.4003C44.4003 140.9 44.4003 140.9 44.4003 141V141.1C44.4003 141.1 44.4003 141.1 44.4003 141.2C44.4003 141.3 44.4003 141.3 44.4003 141.4C44.4003 141.4 44.4003 141.4 44.4003 141.5L44.3003 141.6C44.3003 141.6 44.3003 141.6 44.3003 141.7L44.2003 141.8C44.1003 141.8 44.1003 141.9 44.1003 142C44.0003 142.2 44.1003 142.4 44.3003 142.4C44.4003 142.4 44.5003 142.4 44.6003 142.3C44.7003 142.2 44.8003 142.2 44.8003 142.1C44.9003 142 45.0003 141.9 45.1003 141.7C45.3003 141.4 45.4003 141 45.3003 140.7C45.1003 140 44.4003 139.7 43.8003 139.8Z" fill="#151314"/>
<path d="M45.8 137.5C45.8 137.4 45.8 137.3 45.8 137.3C45.8 137.2 45.7 137.1 45.7 137C45.6 136.8 45.5 136.7 45.3 136.6C45.2 136.6 45.1 136.5 45.1 136.5C45.1 136.5 45.1 136.5 45 136.5C44.9 136.5 44.8 136.5 44.7 136.5H44.6C44.5 136.5 44.4 136.5 44.3 136.6L44.2 136.7C44.2 136.7 44.1 136.8 44.1 136.9C44.1 137 44.1 137 44 137.1C44 137.2 44 137.3 44 137.4C44 137.5 44 137.5 44 137.6C44 137.7 44.1 137.8 44.1 137.8C44.1 137.9 44.1 138 44.2 138.1C44.2 138.1 44.2 138.2 44.3 138.2C44.3 138.3 44.4 138.3 44.4 138.4L44.5 138.5C44.6 138.5 44.6 138.6 44.7 138.5C44.8 138.5 44.8 138.5 44.9 138.5H45H45.1C45.2 138.5 45.2 138.5 45.3 138.5C45.4 138.5 45.4 138.5 45.5 138.4C45.5 138.3 45.6 138.3 45.6 138.2C45.6 138.1 45.7 138.1 45.7 138C45.7 138 45.7 138 45.7 137.9C45.8 137.7 45.8 137.6 45.8 137.5Z" fill="#151314"/>
<path d="M24.1 166.8C24 166.6 23.9 166.4 23.8 166.3C23.7 166.2 23.6 166.1 23.5 166.1C23.4 166.1 23.3 166.1 23.2 166.1C23.1 166.2 23 166.2 23 166.4C23 166.5 23 166.6 23 166.7C23.1 166.9 23.2 167.1 23.3 167.3C23.4 167.4 23.4 167.5 23.5 167.6C23.6 167.7 23.7 167.8 23.8 167.8C23.8 167.8 23.8 167.8 23.9 167.8C24 167.8 24 167.8 24.1 167.9C24.2 167.9 24.2 167.9 24.3 167.8C24.4 167.8 24.4 167.7 24.4 167.6C24.4 167.5 24.4 167.5 24.4 167.4C24.4 167.3 24.4 167.2 24.3 167.1C24.2 167 24.1 166.9 24.1 166.8Z" fill="#151314"/>
<path d="M28.5 160.1C27.2 162 26 163.9 24.6 165.8C24.4 166 24.3 166.2 24.2 166.5C24.1 166.7 24 166.9 24.1 167.1C24.3 167.5 25.1 167.1 25.3 166.9C25.7 166.6 26 166.1 26.3 165.7C26.6 165.2 26.9 164.8 27.2 164.3C27.9 163.2 28.7 162 29.4 160.9C30.1 160.1 29 159.4 28.5 160.1Z" fill="#151314"/>
<path d="M31.2999 154.2C29.0999 155.6 26.9999 157.3 25.3999 159.4C24.6999 160.4 23.9999 161.4 23.5999 162.5C23.3999 163.1 23.1999 163.6 23.0999 164.2C22.9999 164.7 22.7999 165.4 23.0999 165.8C23.1999 166 23.4999 165.9 23.5999 165.8C23.9999 165.5 23.8999 164.8 23.9999 164.4C24.0999 163.9 24.2999 163.3 24.4999 162.8C24.8999 161.7 25.4999 160.7 26.1999 159.8C27.6999 157.8 29.5999 156.2 31.6999 154.8C32.1999 154.6 31.7999 153.9 31.2999 154.2Z" fill="#151314"/>
<path d="M50.4998 175C49.0998 176 47.5998 176.4 45.9998 177C44.2998 177.6 42.5998 178.2 40.8998 178.7C37.3998 179.7 33.2998 180.4 29.8998 178.8H29.7998C28.9998 175.6 28.6998 172.5 28.8998 169.2C29.0998 165.8 29.7998 162.4 30.4998 159.1C30.4998 158.9 30.1998 158.8 30.1998 159C28.2998 165.4 25.8998 173 28.7998 179.4C28.8998 179.6 29.0998 179.7 29.2998 179.7L29.3998 179.8C29.8998 180.1 30.4998 180.3 31.0998 180.5C31.0998 180.6 31.0998 180.7 31.0998 180.8C31.4998 181.8 31.7998 182.9 32.0998 184C32.1998 184.5 32.2998 185.1 32.3998 185.6C32.3998 185.9 32.4998 186.1 32.4998 186.4C32.4998 186.7 32.4998 187 32.6998 187.3C32.6998 187.3 32.6998 187.3 32.5998 187.3C31.8998 187.8 31.2998 188.5 30.7998 189.2C30.4998 189.6 30.1998 190.1 30.2998 190.6C30.3998 191.1 30.8998 191.4 31.3998 191.4C31.8998 191.4 32.2998 191.3 32.7998 191.2C33.2998 191.1 33.6998 190.9 34.0998 190.7C34.9998 190.3 35.5998 189.4 35.3998 188.4C35.2998 187.9 34.9998 187.5 34.5998 187.3C34.1998 187.1 33.6998 187.1 33.2998 187.3C33.2998 187.3 33.1998 187.3 33.1998 187.2C33.1998 187.2 33.1998 187.2 33.2998 187.1C33.4998 186.8 33.3998 186.5 33.3998 186.2C33.3998 185.9 33.3998 185.7 33.2998 185.4C33.1998 184.8 33.0998 184.3 32.9998 183.7C32.7998 182.7 32.4998 181.7 32.0998 180.7C33.2998 180.9 34.4998 181 35.6998 181C35.5998 181.1 35.3998 181.2 35.3998 181.4C35.2998 182.4 35.1998 183.5 35.0998 184.5C35.0998 185 34.8998 185.5 34.9998 186.1C35.0998 186.6 34.9998 187.1 35.0998 187.6C35.1998 187.8 35.3998 187.8 35.4998 187.6C35.6998 187.1 35.6998 186.6 35.8998 186.1C35.9998 185.9 35.9998 185.6 35.9998 185.3C35.9998 185 35.9998 184.8 35.9998 184.5C36.0998 183.5 36.0998 182.4 36.1998 181.4C36.1998 181.2 36.0998 181.1 35.9998 181C37.6998 180.9 39.3998 180.6 40.9998 180.1C41.8998 179.9 42.7998 179.6 43.6998 179.2C43.5998 179.3 43.5998 179.5 43.6998 179.6C43.9998 180.5 44.2998 181.5 44.3998 182.5C44.3998 183 44.4998 183.5 44.3998 184C44.3998 184.3 44.3998 184.5 44.3998 184.7C44.3998 184.9 44.3998 185.2 44.5998 185.4C44.6998 185.5 44.8998 185.6 45.0998 185.5C45.4998 185.2 45.5998 184.5 45.6998 184.1C45.6998 183.6 45.6998 183 45.6998 182.5C45.5998 181.4 45.3998 180.3 44.9998 179.3C44.8998 179.1 44.7998 179 44.6998 178.9C45.4998 178.6 46.3998 178.3 47.1998 178C47.5998 177.8 48.0998 177.7 48.4998 177.5C48.6998 178.7 48.5998 179.9 48.3998 181.1C48.2998 181.7 48.0998 182.3 47.8998 182.9C47.6998 183.5 47.3998 184 47.0998 184.5C46.9998 184.7 46.7998 185 46.7998 185.3C46.6998 185.3 46.6998 185.3 46.5998 185.3H46.4998C46.0998 185.3 45.7998 185.5 45.7998 185.9C45.7998 186 45.7998 186.2 45.8998 186.3C45.9998 186.6 46.1998 186.8 46.3998 186.9C46.6998 187.1 46.8998 187.1 47.1998 187.2C47.2998 187.2 47.3998 187.2 47.4998 187.3H47.3998C47.1998 187.4 47.0998 187.4 46.8998 187.5C46.7998 187.5 46.7998 187.5 46.6998 187.6H46.5998H46.4998H46.3998C46.2998 187.6 46.1998 187.6 46.1998 187.6H46.0998C45.9998 187.6 45.9998 187.6 45.8998 187.6C45.8998 187.6 45.8998 187.6 45.7998 187.6C45.6998 187.6 45.6998 187.5 45.5998 187.5C45.6998 187.6 45.5998 187.5 45.4998 187.4V187.3C45.4998 187.3 45.4998 187.3 45.4998 187.2C45.4998 187.2 45.4998 187.2 45.4998 187.1C45.4998 187.1 45.4998 186.9 45.4998 187V186.9C45.4998 186.9 45.4998 186.9 45.4998 186.8V186.7C45.9998 186.3 45.5998 185.5 44.9998 185.8C44.2998 186.2 44.0998 187 44.3998 187.7C44.6998 188.5 45.5998 188.8 46.2998 188.9C46.6998 188.9 47.1998 188.8 47.5998 188.8C47.8998 188.7 48.2998 188.6 48.5998 188.4C48.9998 188.1 49.2998 187.7 49.1998 187.2C49.1998 186.7 48.8998 186.3 48.4998 186C48.2998 185.8 47.9998 185.8 47.7998 185.7C47.9998 185.5 48.1998 185.1 48.2998 184.9C48.8998 183.8 49.1998 182.6 49.3998 181.4C49.5998 180 49.5998 178.7 49.2998 177.3C49.2998 177.3 49.2998 177.3 49.2998 177.2C49.9998 176.8 50.6998 176.2 50.9998 175.4C50.9998 175.1 50.6998 174.9 50.4998 175ZM33.6998 188.6C33.7998 188.6 33.7998 188.6 33.8998 188.5H33.9998C33.9998 188.5 33.9998 188.5 34.0998 188.5V188.6C34.0998 188.7 34.0998 188.7 34.0998 188.8V188.9V189C34.0998 189.1 33.9998 189.1 33.9998 189.2L33.8998 189.3L33.7998 189.4C33.6998 189.5 33.4998 189.6 33.3998 189.6C33.0998 189.7 32.7998 189.8 32.4998 189.9C32.2998 189.9 32.1998 190 31.9998 190C31.8998 190 31.7998 190 31.7998 190H31.6998C31.6998 190 31.6998 190 31.5998 190C31.4998 190 31.4998 190 31.4998 190C31.5998 189.8 31.7998 189.5 31.8998 189.3C32.1998 188.8 32.5998 188.4 32.9998 188C33.0998 188.5 33.3998 188.7 33.6998 188.6Z" fill="#151314"/>
<path d="M20.1999 166.2C18.9999 165.7 17.4999 165.8 16.1999 165.7C14.7999 165.6 13.3999 165.7 11.8999 165.8C8.99989 166 6.19989 166.4 3.39989 167C2.49989 167.2 2.89989 168.5 3.79989 168.3C6.49989 167.7 9.29989 167.3 12.0999 167.2C13.4999 167.1 14.7999 167.1 16.1999 167.1C16.7999 167.1 17.4999 167.1 18.0999 167.1C18.7999 167.1 19.4999 167.2 20.0999 167C20.3999 166.9 20.4999 166.4 20.1999 166.2Z" fill="#151314"/>
<path d="M23.8999 168C23.6999 167.9 23.5999 168 23.3999 168.1L23.2999 168.2C23.2999 168.2 23.1999 168.3 23.1999 168.4L23.0999 168.5C23.0999 168.5 23.0999 168.5 23.0999 168.6C22.9999 168.4 22.7999 168.2 22.5999 168.1C22.3999 168 22.0999 168.1 21.8999 168.2C21.7999 168.2 21.7999 168.3 21.6999 168.3V168.2C21.6999 168.1 21.7999 168 21.8999 167.9C21.8999 167.8 21.9999 167.8 21.9999 167.7C21.9999 167.7 21.9999 167.7 21.9999 167.6L22.0999 167.5L22.1999 167.4C22.3999 167.2 22.5999 167 22.7999 166.8C22.9999 166.6 22.9999 166.2 22.7999 166C22.5999 165.8 22.2999 165.8 21.9999 166C21.4999 166.4 21.0999 166.8 20.7999 167.3C20.3999 167.8 20.1999 168.5 20.6999 169.1C20.8999 169.4 21.2999 169.6 21.6999 169.6C21.8999 169.6 21.9999 169.5 22.1999 169.4C22.2999 169.8 22.5999 170 23.0999 170C23.3999 169.9 23.6999 169.7 23.8999 169.5C24.0999 169.2 24.3999 168.9 24.3999 168.5C24.1999 168.3 24.0999 168.1 23.8999 168Z" fill="#151314"/>
<path d="M188 134.3L187.9 134.2C187.9 134.2 187.8 134.1 187.7 134.1C187.6 134 187.5 134 187.3 134C187.2 134 187.1 134 186.9 134C186.5 134 186.2 134.1 185.8 134.3C185.3 134.6 184.8 135.1 184.5 135.6C184.4 135.8 184.4 136 184.4 136.2C184.4 136.4 184.6 136.6 184.8 136.7C185 136.8 185.2 136.8 185.4 136.8C185.6 136.7 185.8 136.6 185.9 136.4C186 136.3 186 136.2 186.1 136.1C186.2 136 186.3 135.9 186.4 135.9C186.6 135.8 186.8 135.7 186.9 135.6C187 135.5 187.2 135.5 187.3 135.5C187.2 135.5 187.2 135.5 187.1 135.5C187.3 135.5 187.4 135.5 187.6 135.4C187.6 135.4 187.8 135.3 187.7 135.4C187.9 135.3 188 135.2 188.1 135C188.2 134.6 188.1 134.4 188 134.3Z" fill="#151314"/>
<path d="M190.1 140.5C190.1 140.4 190 140.3 189.9 140.1C189.9 140 189.8 139.9 189.8 139.8C189.8 139.7 189.7 139.5 189.7 139.4C189.7 139.3 189.6 139.2 189.6 139.2V139.1C189.6 139 189.5 138.9 189.5 138.8C189.4 138.7 189.3 138.6 189.2 138.6C189 138.5 188.8 138.4 188.6 138.3C188.2 138.2 187.8 138.2 187.4 138.2C187.1 138.2 186.9 138.4 186.9 138.7C186.9 139 187.1 139.2 187.4 139.2C187.6 139.2 187.7 139.2 187.9 139.2C188 139.2 188 139.2 188.1 139.2H188.2H188.3H188.4C188.4 139.2 188.5 139.2 188.5 139.3C188.5 139.3 188.5 139.3 188.6 139.3C188.7 139.4 188.7 139.4 188.8 139.4C188.8 139.5 188.9 139.5 188.9 139.6C189 139.7 189 139.8 189.1 140C189.2 140.2 189.4 140.5 189.7 140.6C190 140.9 190.2 140.7 190.1 140.5Z" fill="#151314"/>
<path d="M163.2 139.9C163 140 162.9 140.1 162.8 140.3C162.8 140.3 162.8 140.3 162.8 140.4C162.7 140.4 162.6 140.4 162.5 140.4C162.4 140.5 162.3 140.6 162.3 140.7C162.2 140.9 162.2 141.1 162.1 141.3C162.1 141.4 162.1 141.6 162.2 141.7C162.2 141.8 162.3 141.8 162.3 141.8C162.4 141.8 162.5 141.9 162.5 141.9C162.6 141.9 162.7 141.9 162.7 141.9C162.8 141.9 162.9 141.9 163 141.8C163.2 141.7 163.4 141.6 163.6 141.5C163.7 141.4 163.8 141.3 163.8 141.2C163.9 141.1 163.9 140.9 164 140.7C164.1 140.2 163.6 139.7 163.2 139.9Z" fill="#151314"/>
<path d="M185.6 139.4C185.4 139.2 185.2 139.2 185 139.3C185.1 137.4 183.9 135.9 182.3 135C180.2 133.8 177.7 134 175.3 133.8C172.6 133.6 170 132.6 167.6 131.5C165.6 130.5 162.5 129.7 161.4 127.5C161.4 127.1 160.8 126.9 160.7 127.4C159.6 131.2 160.9 135.5 163.7 138.3C165.1 139.8 167 140.8 168.9 141.5C170.2 142 171.8 142.3 173.3 142.3C172.8 143.1 172.5 144 172.4 144.9C172.2 146.4 172.6 148.3 173.8 149.4C174.5 150 175.3 150.1 176.1 149.9C176.6 149.8 177.6 149.3 177.7 150.2C177.8 150.8 177.6 151.9 177.2 152.4C176.9 152.7 176.4 152.7 176 152.8C175.6 152.8 175.3 152.7 175.1 152.3C174.9 151.9 174.5 151.7 174.1 152C173.5 152.7 173.8 153.6 174.5 154C175.2 154.5 176.1 154.3 176.9 154.2C178.5 153.8 179 152.2 179.2 150.7C179.4 149.1 178.3 148 176.7 148.3C176.1 148.4 175.3 148.7 174.8 148.1C174.3 147.6 174.1 146.8 174 146.1C173.7 144.7 174.1 143.3 174.9 142.2H175C175.2 142.2 175.3 142 175.3 141.8C175.3 141.7 175.4 141.7 175.4 141.6C175.9 141.1 175.1 140.3 174.6 140.8C174.4 141 174.3 141.1 174.1 141.3C172.6 141.1 171.1 141 169.6 140.5C167.8 139.9 166.1 139 164.8 137.6C162.4 135.3 161 131.9 161.4 128.6C162.2 129.7 163.3 130.5 164.5 131.2C166.6 132.4 168.8 133.5 171.1 134.3C173.4 135.1 175.7 135.2 178.2 135.4C180.6 135.6 184.1 136.4 184.1 139.5C184.1 139.9 184.5 140 184.7 139.9C184.7 140.1 184.7 140.3 184.8 140.4C187.4 143 187.1 147.1 185.3 150.1C184.3 151.8 182.9 153.1 181.3 154.3C180.5 154.9 179.8 155.4 178.9 155.9C178.4 156.2 177.9 156.4 177.4 156.6C176.9 156.8 176.5 156.8 176.1 157.1C175.9 157.2 175.8 157.6 176.1 157.7C177 158.1 178.1 157.6 179 157.2C180.1 156.7 181.1 156 182 155.2C183.7 153.9 185.3 152.3 186.4 150.4C188.4 146.8 188.6 142.2 185.6 139.4Z" fill="#151314"/>
<path d="M165 144C165 144 164.9 144.1 164.9 144.2C164.8 144.5 164.8 144.9 165 145.2C165.1 145.3 165.1 145.4 165.3 145.4C165.4 145.4 165.5 145.4 165.6 145.4C166.2 145.3 166.6 144.7 166.6 144.2C166.6 143.6 166.2 143.1 165.6 142.9C165.2 142.8 164.9 143 164.8 143.4C164.8 143.7 164.8 143.8 165 144Z" fill="#151314"/>
<path d="M165.4 149.4C165.7 149.2 165.8 148.7 165.3 148.6C164.9 148.5 164.5 148.3 164.1 148.2C163.7 148.1 163.4 148 163 147.8C162.3 147.4 161.7 146.9 161.2 146.3C161 146.1 160.8 146 160.6 146.1C160.4 146.2 160.3 146.5 160.4 146.7L160.5 146.8C160.4 146.8 160.4 146.9 160.4 146.9C159.9 147.8 159.5 148.7 159.4 149.7C159.3 150.1 159.3 150.6 159.5 151C159.7 151.4 160.1 151.6 160.4 151.7C161.3 152 162.3 151.8 163.1 151.5C163.6 151.3 164 151.1 164.5 150.9C164.7 150.8 164.9 150.7 165.2 150.6C165.4 150.5 165.6 150.3 165.9 150.1C166.1 149.8 165.8 149.3 165.4 149.4ZM164.2 149.9C163.8 150.1 163.5 150.3 163.1 150.4C162.4 150.7 161.6 150.9 160.9 150.8C160.7 150.8 160.4 150.7 160.2 150.6C160 150.4 160.1 149.9 160.1 149.6C160.2 148.8 160.5 148 160.8 147.3C161.2 147.9 161.8 148.3 162.4 148.7C162.8 149 163.2 149.2 163.7 149.3C164.1 149.5 164.7 149.5 165.1 149.4H165.2C164.9 149.6 164.6 149.7 164.2 149.9Z" fill="#151314"/>
<path d="M178.1 170.6C177.8 169.6 177.3 168.7 176.9 167.8C176 166 174.8 164.2 173.5 162.7C173.4 162.5 173.2 162.5 173.1 162.5C173 161.8 172.9 161.1 172.8 160.4C172.8 160.2 172.6 160.1 172.5 160.1C173.6 159.7 174.6 159.2 175.5 158.5C175.8 158.3 175.4 157.8 175.1 158C170 161.1 163.5 160 160.3 154.8C158.7 152.2 158.5 149.2 159.2 146.3C159.9 143.4 160.8 140.3 162.9 138C163.3 137.6 162.7 136.9 162.3 137.4C159.8 139.9 158.6 143.5 158 146.8C157.4 150 157.8 153.1 159.6 155.9C160 156.5 160.5 157.1 161 157.6C161 157.6 161 157.6 160.9 157.7C157.4 163.8 155.4 171.2 156.3 178.1C156.4 178.6 157 178.7 157.2 178.3C157.2 178.3 157.2 178.4 157.3 178.4C159.8 180 162.5 180.9 165.4 181.4C166.8 181.6 168.2 182.1 169.6 182.3C170.2 182.4 171 182.5 171.7 182.3C171.9 182.4 172.1 182.3 172.2 182.2V182.1C172.4 182 172.6 181.8 172.8 181.6C172.9 181.4 172.8 181.2 172.6 181.1C172.7 180.6 172.8 180.1 172.9 179.7C173 178.9 173.2 178 173.3 177.2C173.5 175.3 173.7 173.4 173.8 171.5C173.9 169 173.7 166.6 173.5 164.1C174.5 165.4 175.3 166.9 176 168.4C176.4 169.3 176.7 170.1 177 171C177.3 171.9 177.5 172.9 178.1 173.6C178.3 173.8 178.6 173.8 178.7 173.5C178.7 172.6 178.4 171.5 178.1 170.6ZM172.6 171.5C172.5 173.3 172.4 175 172.2 176.8C172.1 177.8 171.9 178.9 171.7 179.9C171.6 180.4 171.5 180.8 171.5 181.3C171.2 181.3 171 181.4 170.7 181.4C170.1 181.4 169.5 181.2 168.9 181.1C167.7 180.8 166.4 180.6 165.2 180.4C162.6 180 160.1 179.1 157.8 177.7C157.6 177.6 157.4 177.6 157.3 177.7C157.2 170.9 158.4 164.3 161.7 158.3C164.6 160.7 168.7 161.6 172.3 160.4C172.2 160.5 172.2 160.5 172.2 160.7C172.6 164.1 172.7 167.8 172.6 171.5Z" fill="#151314"/>
<path d="M158.6 186.3C158.6 186.1 158.6 186.2 158.6 185.9C158.6 185.7 158.5 185.5 158.5 185.3C158.3 184.6 158.1 184 158 183.3C157.7 181.9 157.7 180.4 157.9 179C158 178.6 157.4 178.4 157.3 178.8C157 180.3 156.8 181.8 156.9 183.3C156.9 184.1 157.1 184.8 157.2 185.5C157.3 185.7 157.3 185.9 157.4 186.1C157.5 186.3 157.6 186.4 157.7 186.6C157.9 186.9 158 187.2 158.3 187.4C158.5 187.5 158.7 187.4 158.7 187.2C158.8 186.9 158.6 186.6 158.6 186.3Z" fill="#151314"/>
<path d="M167.8 186.1C167.7 185.5 167.7 184.9 167.5 184.3C167.2 183.1 166.2 182.7 165 182.6C163.8 182.5 162.5 182.7 161.5 183.4C160.6 184 159.9 185 159.7 186.1C159.6 186.8 160.6 187.1 160.8 186.4C161.1 184.4 163.2 183.5 165 183.6C165.4 183.6 165.9 183.6 166.3 183.9C166.7 184.2 166.8 184.7 166.9 185.1C167 185.7 167.1 186.2 167.2 186.8C167.3 187.3 167.3 187.9 167.6 188.4C167.7 188.5 167.8 188.5 167.9 188.4C168.1 187.5 167.8 186.7 167.8 186.1Z" fill="#151314"/>
<path d="M160.7 187.6C160.6 187.6 160.4 187.6 160.3 187.7H160.2C159.7 187.6 159.1 187.6 158.6 187.6C158.2 187.6 157.8 187.6 157.4 187.7C157.5 187.5 157.3 187.2 157 187.2C156.5 187.2 156 187.3 155.6 187.5C155.2 187.7 154.8 187.9 154.4 188.1C153.7 188.7 153.8 189.7 154.5 190.2C155.3 190.8 156.5 190.6 157.5 190.5C158.6 190.4 159.7 190.3 160.8 190.1C161.1 190 161.4 190 161.6 189.7C161.7 189.5 161.7 189.2 161.7 189C161.4 188.6 161.3 187.7 160.7 187.6Z" fill="#151314"/>
<path d="M169.7 187.4C169.8 186.9 169.8 186.5 169.9 186C170.1 185 170.3 184 170.6 183.1C170.8 182.5 169.8 182.2 169.7 182.8C169.4 183.8 169.2 184.8 169 185.8C168.9 186.3 168.8 186.8 168.8 187.4C168.8 187.7 168.8 187.9 168.8 188.2C168.8 188.5 168.8 188.7 168.9 188.9C168.9 189 169 189 169.1 189V189.1C169.1 189.1 169 189.1 169 189C168.5 188.9 167.9 188.8 167.4 188.7C167.5 188.5 167.4 188.3 167.2 188.2C166.2 187.8 165 187.5 164 188.1C163.2 188.5 162.8 189.4 163 190.3C163.1 190.7 163.3 191.1 163.6 191.3C164 191.6 164.5 191.6 165 191.7C165.6 191.7 166.2 191.7 166.8 191.7C167.4 191.7 168 191.7 168.5 191.5C169 191.3 169.4 190.9 169.7 190.5C170 190.1 170.2 189.5 170.2 189C170.2 188.7 170 188.6 169.8 188.6C169.8 188.5 169.8 188.4 169.8 188.3C169.6 187.9 169.7 187.7 169.7 187.4Z" fill="#151314"/>
<path d="M182.1 175.2C181.9 174.9 181.8 174.7 181.6 174.4C181.5 174.3 181.4 174.1 181.3 174C181.2 173.8 181 173.7 180.8 173.7C180.9 173.6 180.9 173.4 181 173.3C181.1 173.1 181 172.9 180.8 172.8C181 172.7 181.1 172.5 181 172.3C180.9 172 180.9 171.7 180.7 171.4C180.6 171.1 180.4 170.9 180.3 170.6C180 170.1 179.8 169.5 179.6 169C179.1 168 178.7 167 178.3 165.9C177.5 164.1 176.6 162.4 174.9 161.4C174.3 161 173.7 162 174.3 162.4C175.9 163.4 176.6 165.2 177.3 166.8C177.7 167.8 178.1 168.8 178.5 169.7C178.7 170.2 179 170.7 179.3 171.2C179.4 171.5 179.6 171.7 179.7 172C179.9 172.3 180.1 172.4 180.3 172.7L180.4 172.8C180.3 172.8 180.3 172.9 180.2 172.9C180.2 172.9 180.2 172.9 180.2 173C180.1 173.1 180.1 173.1 180 173.2C180 173.2 179.9 173.2 179.9 173.3C179.9 173.3 179.9 173.3 179.8 173.3C179.8 173.3 179.8 173.3 179.7 173.3H179.6C179.6 173.3 179.6 173.3 179.5 173.3C179.4 173.3 179.3 173.3 179.2 173.3H179.1C179.1 173.3 179.1 173.3 179 173.3C179 173.3 179 173.3 178.9 173.3C178.7 173.2 178.3 173.2 178.2 173.5C178.1 173.6 178.1 173.8 178.1 173.9C177.9 173.9 177.7 174.1 177.7 174.3C177.6 174.8 177.5 175.3 177.6 175.9C177.6 176.4 177.7 177 178.2 177.3C178.6 177.5 179.1 177.5 179.5 177.3C179.7 177.2 179.8 177 180 176.9C180.5 177.3 181.3 177.3 181.9 177C182.2 176.8 182.4 176.5 182.5 176.2C182.4 175.8 182.3 175.5 182.1 175.2ZM181.2 176C181.1 176 181.1 176.1 181.2 176C181.1 176 181 176 180.9 176H180.8C180.7 176 180.7 176 180.6 175.9C180.6 175.9 180.6 175.9 180.5 175.9C180.5 175.7 180.4 175.5 180.1 175.4C179.9 175.3 179.6 175.4 179.5 175.6C179.4 175.7 179.3 175.9 179.3 176C179.3 176.1 179.3 176.1 179.2 176.1L179.1 176.2C179.1 176.2 178.9 176.3 179 176.3C179 176.3 178.8 176.3 178.9 176.3H178.8C178.8 176.2 178.8 176.2 178.8 176.1C178.8 176.1 178.8 176.1 178.8 176V175.9C178.8 175.8 178.8 175.7 178.8 175.6C178.8 175.2 178.8 174.9 178.9 174.6C178.9 174.5 178.9 174.5 178.9 174.4C179.3 174.5 179.6 174.5 180 174.3C180.2 174.2 180.4 174.1 180.5 174V174.1C180.5 174.3 180.6 174.4 180.7 174.6C180.8 174.8 181 175 181.1 175.2C181.2 175.4 181.4 175.6 181.5 175.8C181.5 175.8 181.5 175.9 181.6 175.9C181.3 176 181.3 176 181.2 176Z" fill="#151314"/>
<path d="M154.8 142.1C154.6 141.9 154.3 141.8 154.1 141.8C153.9 141.8 153.7 141.7 153.5 141.7C153.3 141.6 153.1 141.6 152.9 141.5C152.8 141.5 152.7 141.4 152.6 141.4C152.6 141.4 152.5 141.4 152.5 141.3C152.5 141.3 152.3 141.2 152.4 141.3C152.3 141.3 152.3 141.3 152.2 141.2C152.2 140.9 152.2 140.6 152.1 140.4C152 140 151.5 140.1 151.4 140.4C151.2 141.1 151.1 141.8 150.9 142.5C150.7 143.2 150.4 143.9 150.1 144.6C149.5 145.9 148.9 147.3 148.8 148.8C148.7 149.4 149.6 149.4 149.7 148.8C149.9 147.3 150.6 146 151.2 144.6C151.5 143.9 151.8 143.3 152 142.6C152 142.5 152.1 142.3 152.1 142.2C152.5 142.4 152.9 142.5 153.3 142.6C153.5 142.7 153.7 142.7 153.9 142.8C154 142.8 154.2 142.9 154.3 142.9C154.4 142.9 154.4 142.9 154.5 142.9C154.6 142.9 154.7 142.8 154.8 142.7C154.8 142.5 154.9 142.3 154.8 142.1Z" fill="#151314"/>
<path d="M159.7 157.8C157.1 157 154.9 155.1 153.6 152.7C153.4 152.4 153.3 152 153 151.8C152.9 151.7 152.8 151.7 152.7 151.6C152.7 151.6 152.7 151.6 152.7 151.5C152.7 151.3 152.7 151.2 152.5 151C152.4 150.9 152.1 150.8 151.9 150.8C151.7 150.8 151.7 150.8 151.5 150.8C151.5 150.8 151.5 150.8 151.4 150.8C151.3 150.8 151.3 150.8 151.2 150.9C150.9 151 150.6 151.2 150.3 151.5C150.2 151.6 150.1 151.8 150 151.9C150 151.8 149.9 151.7 149.9 151.6V151.5C149.9 151.6 149.9 151.4 149.9 151.4C149.9 151.3 149.9 151.2 149.9 151.1V151V150.9C149.9 150.8 149.9 150.8 150 150.7C150 150.7 150 150.7 150.1 150.8C150.3 151.1 150.6 151.1 150.8 150.9C151 150.7 151.1 150.4 151.1 150.1C151.1 150 151.1 149.9 151.1 149.8V149.9C151.1 150 151.1 150 151.2 150.1C151.2 150.2 151.2 150.2 151.2 150.3C151.2 150.4 151.3 150.5 151.3 150.6C151.5 150.9 151.8 150.8 152 150.5C152 150.4 152.1 150.3 152.1 150.2C152.1 150.1 152.1 150 152.1 149.9C152.1 149.7 152 149.5 151.9 149.4C151.7 149 151.2 148.8 150.8 148.9C150.5 149 150.2 149.2 150.1 149.5C150 149.4 149.9 149.3 149.8 149.3C149.6 149.3 149.5 149.4 149.4 149.5C148.7 150.4 148.6 151.8 149.1 152.8C149.2 153 149.4 153 149.5 153C149.5 153.2 149.5 153.3 149.5 153.5C149.5 153.7 149.7 153.8 149.8 153.9C149.8 154 149.8 154 149.8 154.1C150.4 155.9 151.8 157.2 153.1 158.6C153.8 159.3 154.5 160.1 155.2 160.8C155.5 161.1 155.8 161.4 156.2 161.7C156.6 162 157 162.1 157.5 162C157.7 162 157.8 161.7 157.7 161.5C157.3 160.8 156.6 160.3 156 159.8C155.3 159.1 154.7 158.4 154 157.8C152.9 156.6 151.4 155.4 150.9 153.8C150.9 153.7 150.8 153.6 150.7 153.6C150.7 153.5 150.8 153.3 150.7 153.2V153.3C150.7 153.2 150.7 153.1 150.7 153C150.7 152.9 150.7 152.9 150.8 152.8C150.8 152.7 150.9 152.7 150.9 152.6C151 152.5 151 152.5 151.1 152.4C151.2 152.4 151.2 152.3 151.3 152.3H151.4C151.5 152.3 151.5 152.3 151.5 152.2C151.5 152.3 151.5 152.4 151.5 152.5C151.6 152.8 151.8 153.2 152 153.5C152.7 154.7 153.6 155.8 154.7 156.6C155.9 157.6 157.3 158.4 158.8 158.8C160.1 159 160.3 158 159.7 157.8Z" fill="#151314"/>
<path d="M154.9 143C154.7 142.9 154.3 142.9 154.2 143.2C153.8 144 153.5 144.7 153.1 145.5C152.9 145.9 152.8 146.3 152.6 146.6C152.5 146.8 152.5 146.9 152.4 147.1C152.3 147.1 152.2 147.1 152.1 147.2C151.8 147.3 151.4 147.4 151.1 147.6C150.5 147.9 149.9 148.3 149.4 148.7C149.2 148.8 149.2 149.2 149.4 149.3C149.5 149.5 149.8 149.6 150 149.4C150.3 149.2 150.5 149.1 150.8 148.9C150.9 148.8 151.1 148.8 151.2 148.7C151.3 148.7 151.3 148.6 151.4 148.6H151.5C151.8 148.5 152 148.4 152.3 148.3C152.5 148.6 152.9 148.6 153.2 148.4C153.6 148.1 153.7 147.6 153.8 147.2C153.9 146.8 154.1 146.4 154.2 146C154.5 145.3 154.8 144.5 155.1 143.8C155.2 143.5 155.2 143.2 154.9 143Z" fill="#151314"/>
<path d="M151 138.7C150.9 138 150.8 137.4 150.7 136.7C150.6 136.4 150.6 136.1 150.5 135.7C150.5 135.6 150.4 135.4 150.4 135.3C150.4 135.1 150.3 135 150.2 134.8C150.1 134.5 149.6 134.6 149.5 134.9C149.5 135.1 149.4 135.3 149.4 135.5C149.4 135.7 149.4 135.8 149.4 136C149.4 136.4 149.5 136.7 149.5 137.1C149.6 137.8 149.7 138.4 149.8 139.1C149.8 139.4 150.2 139.6 150.5 139.5C150.9 139.3 151.1 139 151 138.7Z" fill="#151314"/>
<path d="M148.8 139.5C148.5 139.3 148.3 139.1 148 138.8C147.9 138.7 147.7 138.6 147.6 138.5C147.5 138.4 147.4 138.4 147.3 138.3C147.2 138.3 147.1 138.2 147.1 138.2C147 138.1 146.8 138.1 146.7 138.3C146.6 138.4 146.6 138.6 146.6 138.7C146.7 138.9 146.8 139 147 139.2C147.1 139.3 147.3 139.4 147.4 139.6C147.7 139.8 147.9 140.1 148.2 140.3C148.4 140.5 148.7 140.5 148.9 140.3C149 140 149 139.7 148.8 139.5Z" fill="#151314"/>
<path d="M146.1 141.6C145.6 141.5 145.1 141.4 144.7 141.3C144.4 141.3 144.2 141.2 143.9 141.2C143.6 141.2 143.2 141.1 142.9 141.3C142.6 141.5 142.5 141.8 142.7 142.1C142.8 142.3 143 142.4 143.3 142.5C143.4 142.5 143.5 142.6 143.6 142.6C143.8 142.7 144.1 142.7 144.3 142.8C144.8 142.9 145.3 143 145.7 143.1C146.1 143.2 146.5 143 146.6 142.6C146.7 142.1 146.5 141.7 146.1 141.6Z" fill="#151314"/>
<path d="M72.0001 16.1997C71.1001 15.6997 70.2001 15.1997 69.3001 14.6997C68.8001 14.4997 68.4001 14.1997 67.9001 13.9997C67.4001 13.7997 66.9001 13.5997 66.5001 13.3997C66.3001 13.2997 66.1001 13.6997 66.3001 13.7997C66.7001 14.0997 67.1001 14.4997 67.5001 14.7997C67.9001 15.0997 68.4001 15.3997 68.8001 15.6997C69.7001 16.2997 70.5001 16.8997 71.4001 17.3997C72.0001 17.7997 72.8001 16.5997 72.0001 16.1997Z" fill="#151314"/>
<path d="M65.0998 27.2998C64.1998 26.9998 63.1998 26.8998 62.1998 26.7998C61.1998 26.7998 60.1998 26.7998 59.2998 27.1998C58.9998 27.2998 58.9998 27.7998 59.3998 27.6998C60.2998 27.5998 61.1998 27.4998 62.0998 27.4998C62.9998 27.4998 63.8998 27.6998 64.7998 27.9998C65.3998 28.1998 65.5998 27.3998 65.0998 27.2998Z" fill="#151314"/>
<path d="M64.0002 42.1004C62.9002 42.7004 61.9002 43.3004 60.8002 44.0004C60.3002 44.3004 59.8002 44.7004 59.3002 45.0004C58.8002 45.4004 58.3002 45.8004 57.9002 46.2004C57.6002 46.5004 58.0002 47.0004 58.4002 46.8004C58.9002 46.5004 59.4002 46.2004 59.9002 45.9004C60.4002 45.6004 60.9002 45.2004 61.4002 44.9004C62.4002 44.3004 63.5002 43.7004 64.6002 43.1004C65.2002 42.8004 64.6002 41.8004 64.0002 42.1004Z" fill="#151314"/>
<path d="M126 7.5C125.6 7.5 125.2 7.6 124.9 7.8C124.5 7.9 124.2 8.1 123.8 8.2C123.1 8.5 122.3 8.9 121.6 9.2C120.2 9.9 118.9 10.9 117.7 11.9C117.2 12.3 117.9 13.1 118.5 12.7C119.7 11.7 121 10.9 122.3 10.2C122.9 9.8 123.6 9.5 124.3 9.2C124.7 9 125 8.9 125.4 8.7C125.7 8.6 126.1 8.4 126.4 8.2C126.5 7.9 126.3 7.5 126 7.5Z" fill="#151314"/>
<path d="M139.8 25.1996C139.3 24.3996 138.4 23.7996 137.6 23.3996C136.7 22.7996 135.8 22.4996 134.9 22.0996C132.9 21.4996 130.8 21.1996 128.7 20.8996C128.1 20.7996 127.8 21.7996 128.4 21.8996C130.4 22.1996 132.3 22.3996 134.2 22.9996C135.1 23.2996 136 23.5996 136.9 23.9996C137.8 24.3996 138.6 24.9996 139.4 25.4996C139.7 25.5996 139.9 25.3996 139.8 25.1996Z" fill="#151314"/>
<path d="M139.9 44.5996C139.4 43.8996 138.7 43.2996 138.1 42.6996C137.5 42.0996 136.8 41.4996 136.1 40.8996C134.6 39.7996 133.1 38.7996 131.5 37.9996C130.9 37.6996 130.3 38.5996 130.9 38.9996C132.4 39.7996 133.9 40.7996 135.4 41.7996C136.1 42.2996 136.8 42.7996 137.5 43.2996C138.2 43.7996 138.9 44.3996 139.6 44.9996C139.8 45.0996 140.1 44.7996 139.9 44.5996Z" fill="#151314"/>
<path d="M191.6 170.9C191.1 170.7 190.5 170.7 190 170.7C189.5 170.7 188.9 170.7 188.4 170.7C187.3 170.7 186.3 170.6 185.2 170.4C184.8 170.3 184.4 170.5 184.3 171C184.2 171.5 184.6 171.7 185 171.8C186.1 171.9 187.2 172 188.3 172.1C188.8 172.1 189.4 172.1 189.9 172.1C190.4 172.1 191.1 172.1 191.6 171.8C191.9 171.6 192 171.1 191.6 170.9Z" fill="#151314"/>
<path d="M152.8 169.4C152.3 169.1 151.6 169 151 168.9C150.4 168.8 149.9 168.6 149.3 168.6C147.9 168.5 146.6 168.4 145.2 168.3C142.5 168.2 139.8 168.1 137.1 168.2C136.3 168.2 136.3 169.5 137.1 169.5C139.8 169.5 142.4 169.5 145.1 169.6C146.4 169.7 147.7 169.8 149.1 169.9C149.7 170 150.3 169.9 150.9 169.9C151.5 169.9 152.2 170 152.8 169.8C152.9 169.8 153 169.5 152.8 169.4Z" fill="#151314"/>
<path d="M61.3998 66.1998C61.2998 66.2998 61.0998 66.3998 60.9998 66.4998C60.4998 66.2998 58.7998 65.1998 58.6998 65.0998C57.9998 64.4998 57.4998 63.6998 57.0998 62.8998C56.0998 60.8998 56.0998 58.5998 56.0998 56.3998C56.0998 55.9998 55.4998 55.8998 55.3998 56.2998C54.8998 59.0998 55.3998 62.2998 57.0998 64.5998C57.4998 65.0998 58.8998 66.5998 60.1998 67.2998C58.8998 68.4998 58.0998 69.9998 57.7998 71.6998C56.4998 69.5998 54.2998 68.0998 51.8998 67.8998C53.4998 64.0998 54.6998 60.0998 55.3998 55.9998C55.4998 55.6998 54.9998 55.4998 54.8998 55.8998C53.9998 60.0998 52.6998 64.1998 50.8998 68.1998C50.7998 68.4998 50.8998 68.8998 51.2998 68.8998C54.3998 68.9998 57.0998 71.1998 57.7998 74.1998C57.8998 74.6998 58.7998 74.5998 58.7998 74.0998C58.4998 71.5998 59.4998 69.1998 61.4998 67.6998C61.7998 67.6998 62.0998 67.3998 62.2998 66.9998C62.2998 66.3998 61.7998 65.9998 61.3998 66.1998Z" fill="#151314"/>
<path d="M154.6 70.4004C149.6 70.0004 148.2 64.4004 147.2 60.4004C147.1 60.1004 146.7 60.1004 146.6 60.3004C146.6 59.6004 146.6 58.9004 146.5 58.2004C146.5 57.8004 145.8 57.8004 145.8 58.2004C146 62.8004 144.7 67.3004 142.1 71.1004C141.8 71.5004 142.2 72.0004 142.6 72.0004C146.2 72.0004 147.7 75.7004 148.4 78.7004C148.6 79.5004 149.7 79.1004 149.6 78.4004C149 75.3004 151.4 72.0004 154.6 71.6004C155.3 71.4004 155.3 70.5004 154.6 70.4004ZM148.7 75.4004C147.7 73.1004 146.2 71.1004 143.7 70.8004C145.4 67.8004 146.4 64.5004 146.6 61.0004C147.4 64.8004 148.9 69.4004 152.6 70.9004C150.7 71.8004 149.3 73.5004 148.7 75.4004Z" fill="#151314"/>
<path d="M41.3999 121.7C41.0999 121.2 40.8999 120.7 40.5999 120.1C40.4999 120 40.3999 120.1 40.3999 120.2L41.0999 121.8C41.2999 122 41.4999 121.8 41.3999 121.7Z" fill="#151314"/>
<path d="M48.1 121.1C47.9 121.1 47.7 121.1 47.6 121.2H47.5C47.6 121.2 47.6 121.2 47.6 121.2C47.5 121.2 47.2 121.3 47.1 121.3C46.8 121.5 46.5 121.8 46.2 122C45.7 122.5 45.3 123.1 45 123.7C44.8 124 44.9 124.4 45.2 124.6C45.5 124.8 45.9 124.7 46.1 124.4C46.2 124.1 46.4 123.9 46.6 123.6C46.6 123.5 46.7 123.5 46.7 123.4C46.7 123.4 46.7 123.3 46.8 123.3C46.9 123.2 47 123.1 47.1 122.9C47.2 122.8 47.3 122.7 47.4 122.6C47.5 122.5 47.5 122.5 47.6 122.4C47.6 122.4 47.7 122.4 47.7 122.3C47.8 122.2 47.9 122.2 48 122.1L48.1 122C48.1 122 48.1 122 48.1 122.1C48.1 122.1 48.1 122.1 48.2 122C48.2 122 48.2 121.9 48.3 121.9C48.4 121.8 48.6 121.7 48.6 121.5C48.6 121.4 48.4 121.1 48.1 121.1Z" fill="#151314"/>
<path d="M71.8001 117.9C70.6001 117.2 69.5001 116.4 68.6001 115.3C68.2001 114.8 67.8001 114.3 67.5001 113.8C67.5001 113.4 67.4001 113.1 67.3001 112.7C67.2001 112.4 66.9001 112.3 66.7001 112.4C66.6001 112.2 66.5001 112 66.4001 111.9C66.2001 111.5 65.7001 111.8 65.7001 112.2C65.9001 113 66.1001 113.6 66.5001 114.3C66.5001 114.4 66.6001 114.4 66.6001 114.5C66.7001 116.1 66.3001 117.8 65.4001 119.2C65.2001 119.6 65.5001 120 65.9001 120C67.5001 120.1 69.0001 121.2 69.5001 122.7C69.7001 123.3 70.7001 123.3 70.7001 122.5C70.6001 121.2 71.0001 119.9 71.9001 118.9C72.1001 118.5 72.1001 118.1 71.8001 117.9ZM66.7001 118.9C67.2001 117.9 67.4001 116.8 67.5001 115.7C67.6001 115.8 67.6001 115.9 67.7001 116C68.5001 117 69.5001 117.8 70.6001 118.5C70.1001 119.1 69.8001 119.9 69.6001 120.6C68.9001 119.8 67.8001 119.2 66.7001 118.9Z" fill="#151314"/>
<path d="M107.2 47.6997C106.4 50.7997 103.6 52.7997 101.4 54.8997C99.5 56.7997 97.4 59.7997 97.9 62.5997C97.9 62.7997 98.3 62.8997 98.4 62.6997C99 61.3997 99.4 59.8997 100.1 58.5997C100.8 57.1997 101.9 55.9997 103 54.8997C105 52.8997 107.2 50.7997 107.7 47.7997C107.8 47.4997 107.3 47.3997 107.2 47.6997Z" fill="#151314"/>
<path d="M105.9 56.7C103.9 59.3 102.7 62.2 101.4 65.1C100.1 68.1 98.6 70.9 96.6 73.5C94.3 76.5 91.6 79.1 88.8 81.5C88.9 81.3 89.1 81.1 89.2 81C90.8 78.4 92.1 75.5 93 72.6C93.2 72.1 92.4 71.9 92.2 72.4C91 75.5 89.4 78.3 87.4 81C85.6 83.4 83.3 85.5 81.3 87.8C79.4 89.9 77.7 92.3 76.8 95.1C76.3 96.6 76 98.1 75.9 99.7C75.8 101.2 75.6 103 76.2 104.4C76.4 104.8 77 104.8 77.3 104.6C77.6 105.1 78.1 105.5 78.7 105.7C79.1 105.8 79.4 105.3 79.1 105C79 104.9 78.9 104.8 78.8 104.7C78.7 104.6 78.6 104.5 78.5 104.4C78.5 104.3 78.4 104.3 78.4 104.2C78.5 104.3 78.3 104.1 78.3 104.1C78.3 104.1 78.3 104.1 78.2 104L78.1 103.9C78.1 103.8 78 103.8 78 103.7C78 103.6 77.9 103.6 77.9 103.5C78.2 102.4 78.2 101.1 78.3 99.9C78.5 98.3 78.8 96.6 79.3 95.1C80.3 92.4 82.1 90.1 83.9 88C84.2 87.8 84.5 87.6 84.7 87.4C84.8 87.1 84.9 86.9 85.1 86.6C85.7 86 86.3 85.6 87.1 85.3C87.7 84.7 88.3 84.2 89 83.9C89.1 83.8 89.3 83.8 89.4 83.8C92.5 81.2 95.4 78.3 97.9 75.1C99.9 72.5 101.3 69.8 102.5 66.8C103.7 63.6 104.8 60.2 106.6 57.3C106.8 56.8 106.2 56.3 105.9 56.7Z" fill="#151314"/>
<path d="M116.5 49.8C116.4 49.1 116.4 48.5 116.4 47.8C116.4 46.5 116.5 45.1 116.5 43.8C116.5 41.5 116.2 39.1 114.6 37.4C114.6 37.3 114.5 37.3 114.4 37.3C114.3 37.1 114.1 37 114 36.9C113.9 36.7 113.7 36.6 113.5 36.5C113.3 36.4 113 36.3 112.8 36.2C112.4 36 111.9 35.9 111.4 35.8C110.5 35.6 109.5 35.5 108.5 35.6C108.1 35.6 107.9 35.9 107.9 36.2C107.7 36.2 107.5 36.3 107.3 36.3C107 36.3 106.7 36.3 106.4 36.2C105.7 36 105.1 35.6 104.5 35.3C103.4 34.6 101.9 34.1 100.7 34.8C99.5999 34.3 98.6999 35.9 99.7999 36.5C102.4 37.8 103.4 40.9 102.6 43.6C101.7 46.7 99.1999 48.8 96.4999 50.4C93.8999 52 91.7999 53.8 90.4999 56.7C89.9999 58 89.5999 59.3 89.2999 60.6C89.0999 61.9 88.6999 63.6 89.0999 64.9C89.2999 65.6 90.0999 65.4 90.2999 64.9C90.5999 64.1 90.5999 63.3 90.7999 62.4C90.9999 61.6 91.0999 60.7 91.2999 59.9C91.6999 58.4 92.2999 56.9 93.1999 55.6C95.1999 52.8 98.7999 51.8 101.3 49.4C103.5 47.3 105 44.4 104.8 41.4C104.8 41.1 104.7 40.8 104.7 40.5C104.1 39.7 104 38.7 103.6 37.8C103.6 37.7 103.6 37.6 103.6 37.6C103.1 36.8 102.5 36.2 101.8 35.6C102.8 35.6 103.9 36.5 104.6 37C104.6 37 104.7 37 104.7 37.1C104.8 37.1 104.9 37.1 105 37.2C105.2 37.3 105.3 37.4 105.5 37.6C105.8 37.7 106.2 37.9 106.5 37.9C106.7 37.9 106.9 37.9 107.1 37.9C107.3 38.1 107.4 38.2 107.5 38.4C107.6 38.5 107.7 38.6 107.8 38.7C107.8 38.8 107.9 38.8 107.9 38.9C108 39 108.1 39.2 108.2 39.3C108.3 39.4 108.3 39.5 108.4 39.7C108.5 39.9 108.6 40 108.7 40.2C108.9 40.7 109.1 41.1 109.2 41.6C109.3 41.8 109.4 42.1 109.4 42.3C109.5 42.6 109.5 42.9 109.8 43C109.9 43.1 110.1 43 110.2 42.9C110.4 42.7 110.4 42.3 110.4 42.1C110.4 41.8 110.3 41.5 110.3 41.2C110.2 40.6 110 40.1 109.7 39.5C109.6 39.3 109.5 39.2 109.4 39C109.3 38.9 109.3 38.9 109.2 38.8C109.1 38.7 109 38.5 109 38.3C108.8 38 108.5 37.6 108.2 37.3C108.3 37.2 108.3 37.1 108.4 36.9C109.2 36.9 110 37 110.8 37.2C110.9 37.2 110.9 37.3 111 37.3C111.2 37.3 111.3 37.3 111.5 37.4C111.6 37.5 111.7 37.5 111.7 37.6C111.7 37.6 111.7 37.6 111.8 37.6C112.2 37.6 112.6 37.7 112.9 37.9C113 38 113.2 38.1 113.3 38.3C113.4 38.3 113.6 38.4 113.7 38.4C113.8 38.4 113.9 38.5 114 38.5C115.5 40.4 115.5 42.9 115.3 45.2C115.1 47.5 114.7 50.5 116.4 52.4C116.5 52.5 116.7 52.4 116.7 52.2C116.7 51.1 116.5 50.5 116.5 49.8Z" fill="#151314"/>
<path d="M101.9 93.2001C99.9 95.1001 97.7999 97.1001 95.4999 98.4001C95.4999 98.4001 95.4999 98.4001 95.3999 98.4001C94.9999 98.3001 94.7 98.2001 94.3 98.4001C94 98.5001 93.7999 98.6001 93.4999 98.7001C92.8999 98.9001 92.4 99.0001 91.8 99.1001C90.7 99.3001 89.5 99.3001 88.3 99.2001C87.5 99.1001 87.3999 100.4 88.0999 100.6C89.3999 100.9 90.6999 101 91.9999 100.9C92.6999 100.8 93.2999 100.7 93.9999 100.5C94.2999 100.4 94.6999 100.3 94.9999 100.1C95.3999 99.9001 95.4999 99.7001 95.6999 99.3001C95.6999 99.2001 95.6999 99.2001 95.6999 99.1001C98.1999 97.7001 100.3 95.6001 102 93.4001C102.1 93.3001 102 93.1001 101.9 93.2001Z" fill="#151314"/>
<path d="M121.5 93.6996C121.3 93.2996 121.2 92.7996 121 92.3996C120.8 92.0996 120.7 91.6996 120.5 91.3996C120.5 91.2996 120.4 91.1996 120.4 91.1996C120.4 90.9996 120.3 90.8996 120.3 90.6996C120.3 89.9996 119.8 89.2996 119.5 88.6996C119.2 88.0996 118.9 87.4996 118.7 86.7996C118.2 85.3996 117.7 84.0996 117.5 82.5996C117.4 82.1996 117 82.0996 116.7 82.1996C116.7 80.2996 116.5 78.3996 116.4 76.4996C116.3 75.7996 115.3 75.7996 115.3 76.4996C115.3 79.4996 115.2 82.3996 114.6 85.3996C114.4 86.5996 114 87.8996 113.5 88.9996C113.3 89.5996 113 90.0996 112.7 90.6996C112.5 91.2996 112.1 91.7996 112.1 92.3996C112.1 92.6996 112.4 92.8996 112.7 92.7996C113.8 92.3996 114.7 90.8996 115.2 89.8996C115.8 88.6996 116.2 87.2996 116.4 85.8996C116.4 85.7996 116.4 85.6996 116.4 85.5996C116.5 86.1996 116.6 86.6996 116.7 87.1996C116.9 87.8996 117.2 88.6996 117.6 89.3996C117.7 89.5996 117.8 89.7996 117.9 89.9996C118.1 90.5996 118.3 91.2996 118.6 91.8996C118.8 92.2996 119 92.6996 119.2 93.0996C119.4 93.4996 119.6 93.7996 119.9 94.1996C120.2 94.5996 120.6 94.7996 121.1 94.5996C121.3 94.5996 121.6 94.0996 121.5 93.6996Z" fill="#151314"/>
</svg>
