<svg width="200" height="200" viewBox="0 0 200 200" fill="none" xmlns="http://www.w3.org/2000/svg">
<path d="M133.829 81.3369C135.071 81.2397 136.362 81.2926 137.608 81.2885L144.261 81.2705C152.059 81.25 160.448 81.1354 168.196 81.8747C170.798 82.123 173.312 82.6943 175.893 83.0343C177.39 83.2313 179.322 82.9966 180.65 83.8235C182.085 84.7173 183.82 88.1816 184.743 89.673C185.727 91.264 186.953 92.7232 187.974 94.2979C190.63 98.3942 192.845 103.203 194.032 107.949C194.942 111.586 195.585 115.559 195.558 119.312C195.549 120.582 195.406 121.829 195.329 123.093C195.263 124.195 195.39 125.827 195.018 126.849C194.88 127.231 194.582 127.61 194.372 127.961C195.197 128.419 196.649 127.381 197.509 128.199C197.898 128.568 197.996 129.194 198 129.704C198.017 132.35 197.036 136.407 195.071 138.277C194.002 139.295 189.171 140.21 187.61 140.392C186.169 140.559 184.663 140.54 183.212 140.613C181.444 140.702 179.619 140.896 177.85 140.827C177.668 140.666 177.228 140.362 177.179 140.116C177.091 139.679 177.204 139.03 177.195 138.569C177.167 137.132 176.721 135.523 176.073 134.244C175.361 132.837 174.323 131.748 172.791 131.256C170.867 130.638 168.929 130.477 167.084 131.459C164.665 132.747 162.595 135.937 161.813 138.51C161.335 140.081 161.312 141.892 162.115 143.363C162.478 144.029 163.071 144.798 163.824 145.024C163.857 144.995 163.909 144.98 163.923 144.938C163.98 144.765 163.503 143.248 163.446 142.959C163.263 142.037 163.162 140.98 163.261 140.042C163.485 137.921 164.99 135.568 166.612 134.232C167.641 133.384 169.006 132.826 170.353 132.983C172.227 133.202 173.934 134.35 175.048 135.844C176.315 137.542 176.879 139.816 176.574 141.916C176.235 144.251 175.018 146.145 173.149 147.521C174.182 147.527 179.826 147.541 180.394 147.867C180.612 147.993 180.754 148.146 180.797 148.403C180.837 148.636 180.751 148.846 180.619 149.025C179.555 149.439 176.637 149.161 175.358 149.157C171.67 149.145 167.968 149.263 164.283 149.116C163.152 149.071 162.028 148.928 160.897 148.899C158.565 148.838 156.228 148.898 153.896 148.836C152.483 148.799 151.072 148.599 149.657 148.644L149.484 148.65C147.486 148.778 145.516 148.692 143.517 148.686C138.761 148.692 134.01 148.552 129.262 148.266C127.778 148.188 126.292 147.98 124.808 147.928C123.882 147.896 123.077 148.476 122.156 148.465C121.108 148.452 120.059 148.336 119.011 148.305C117.205 148.251 115.39 148.267 113.583 148.275C111.105 148.287 108.64 148.446 106.165 148.515L96.37 148.705C92.7356 148.791 89.0715 148.68 85.4311 148.719C84.143 148.733 82.7547 148.63 81.4778 148.769C81.3281 148.786 81.2438 148.697 81.1152 148.624C80.9855 148.378 80.9898 148.341 81.0121 148.062C81.3553 147.499 81.9656 147.357 82.5861 147.288C84.2737 147.102 86.109 147.262 87.8129 147.246C91.1224 147.215 94.4257 147.123 97.7372 147.119C103.621 147.111 109.497 146.841 115.382 146.8C116.703 146.784 118.024 146.795 119.345 146.833C120.083 146.857 120.933 146.977 121.664 146.905C121.838 146.888 121.987 146.8 122.137 146.717C122.302 146.626 122.458 146.527 122.65 146.507C123.41 146.429 124.266 146.526 125.036 146.538C127.822 146.58 130.596 146.792 133.379 146.907C130.758 145.059 129.502 143.864 128.733 140.643C125.522 140.837 111.958 141.359 109.618 140.326C107.469 139.378 106.104 137.19 103.865 136.292C101.556 135.367 98.7511 135.546 96.6363 134.213C95.5964 133.558 95.0765 131.904 94.8351 130.752C94.6019 129.641 94.1041 127.042 94.8064 126.06C95.7325 124.764 97.8562 124.722 99.3009 124.515C99.4978 119.609 98.8041 114.683 98.5606 109.785C98.436 107.065 98.3874 104.344 98.4149 101.622C98.4254 100.633 98.5208 99.6432 98.5078 98.6556C98.4971 97.8289 98.4041 97.0042 98.3817 96.1777C98.3336 94.4202 98.4759 84.8825 99.458 84.0536C100.481 83.1901 103.966 83.2327 105.311 83.0916C114.79 82.0689 124.296 81.484 133.829 81.3369Z" fill="#151314"/>
<path d="M101.815 86.4876C108.494 86.2146 115.147 85.2771 121.827 84.8797C129.181 84.4416 136.54 84.2328 143.906 84.2533C151.273 84.2738 158.631 84.5236 165.982 85.0026C168.505 85.1363 171.026 85.2955 173.546 85.4802C174.843 85.5669 176.165 85.5913 177.454 85.7486C179.919 86.0496 181.019 88.268 182.419 90.0609C179.459 90.1365 176.51 89.9874 173.541 90.0981C172.739 90.0929 170.676 89.9971 170.039 89.5545C169.947 89.2816 169.955 89.1881 169.712 89.022C169.256 89.1119 168.975 89.3981 168.731 89.7821C168.471 90.1898 168.335 90.7332 168.496 91.2084C168.635 91.6198 168.933 91.8571 169.264 92.1139C169.83 95.2536 170.06 98.6152 169.998 101.809C169.92 105.819 169.575 109.869 169.299 113.869C169.134 116.265 167.651 127.22 169.119 128.691L169.335 128.701C169.51 128.496 169.559 128.325 169.588 128.063C169.69 127.127 169.526 126.102 169.471 125.16C169.421 124.308 169.444 123.453 169.492 122.601C169.965 114.235 171.506 105.747 170.875 97.353C170.806 96.4338 170.173 92.0558 170.462 91.5102L170.63 91.4337C170.871 91.3218 171.082 91.1735 171.299 91.0213C171.89 90.9992 172.502 91.0058 173.089 90.9333C174.523 91.1146 176.05 90.8525 177.495 90.849C179.242 90.8447 181.644 91.241 183.257 91.0989C183.551 91.0729 183.866 90.9323 184.165 90.8761C184.839 91.1752 186.488 94.4103 186.969 95.2096C191.224 102.286 193.48 108.808 193.836 117.102C193.898 118.471 193.896 119.841 193.832 121.21C193.77 122.352 193.342 126.61 193.514 127.438C193.557 127.645 193.779 127.874 193.909 128.035L194 128.147C192.557 128.827 190.32 127.628 188.83 128.986C187.491 130.206 187.091 135.545 186.928 137.367C185.591 137.466 184.254 137.426 182.915 137.461C181.59 137.495 180.258 137.614 178.935 137.692C178.773 136.612 178.558 135.604 178.143 134.591C177.341 132.634 176.134 131.052 174.142 130.238C172.053 129.384 169.274 129.116 167.164 130.028C164.274 131.278 161.465 134.752 160.342 137.637C157.568 137.574 154.762 137.545 151.988 137.621C150.657 137.657 149.344 137.818 148.008 137.81C147.942 136.272 147.493 134.594 146.677 133.279C145.608 131.559 143.367 130.09 141.4 129.658C138.849 129.098 135.772 129.934 133.617 131.34C131.179 132.93 129.804 134.781 129.188 137.621C125.977 138.099 114.025 138.714 111.3 137.718C109.06 136.899 107.246 135.19 104.96 134.368C102.864 133.613 100.455 133.755 98.4571 132.669C97.4372 131.146 97.1768 129.488 97.0231 127.688C96.9704 127.071 96.9762 126.525 97.3909 126.036C98.7022 125.207 139.468 124.902 143.573 125.025C144.292 125.046 144.999 125.193 145.713 125.261C146.206 125.308 146.66 125.369 147.059 125.035C147.128 124.853 147.168 124.761 147.13 124.562C147.095 124.376 146.987 124.306 146.832 124.203C146.5 123.982 145.904 123.942 145.51 123.911C143.696 123.767 141.851 123.808 140.032 123.791C136.557 123.755 133.081 123.742 129.606 123.754C127.551 123.744 125.501 123.683 123.446 123.711C120.179 123.755 116.915 123.906 113.649 123.952C111.187 123.972 108.726 124.017 106.265 124.086C105.249 124.11 104.196 124.072 103.185 124.151C102.719 124.187 102.254 124.288 101.791 124.356C101.458 124.406 101.297 124.401 101.027 124.198C100.93 123.839 100.979 123.566 101.035 123.202C101.185 122.224 100.956 121.243 101.083 120.265C101.133 120.195 101.157 120.096 101.232 120.057C101.312 120.016 107.326 119.902 107.892 119.888C114.367 119.734 120.829 119.283 127.31 119.229C129.838 119.208 132.386 119.19 134.913 119.273C137.126 119.345 139.348 119.5 141.562 119.477C141.921 119.474 142.472 119.451 142.775 119.235C143.005 119.07 143.019 119.013 143.062 118.753C142.963 118.468 142.863 118.323 142.58 118.196C141.674 117.792 139.39 118.035 138.327 118.018C129.774 117.808 121.225 117.929 112.681 118.382C109.544 118.518 106.377 118.49 103.251 118.798C102.461 118.876 101.776 118.988 101.034 119.279C100.843 117.244 100.757 115.196 100.638 113.155C102.457 113.766 108.622 113.428 110.875 113.399L121.735 113.29C126.095 113.3 130.453 113.363 134.811 113.48C137.06 113.551 139.308 113.649 141.555 113.773C142.534 113.832 143.563 114.027 144.534 114.023C144.785 114.021 144.966 113.963 145.194 113.865C145.372 113.66 145.508 113.53 145.507 113.234C145.506 113.09 145.448 112.911 145.338 112.813C144.698 112.247 141.242 112.274 140.213 112.215C132.612 111.811 125.005 111.632 117.394 111.68C111.823 111.677 106.192 111.64 100.639 112.103C100.608 109.117 100.332 106.13 100.296 103.143C100.247 99.0177 100.655 94.6697 101.233 90.5896C101.424 89.2354 101.493 87.8161 101.815 86.4876Z" fill="#D5EEC7"/>
<path d="M159.084 92.2784C159.118 92.2745 159.153 92.2697 159.188 92.267C160.368 92.1786 163.971 92.474 164.807 93.2821C166.631 95.0447 166.971 102.158 166.998 104.704C167.02 106.909 166.908 112.166 165.334 113.66C165.011 113.966 164.6 114.044 164.174 114.111C162.741 114.335 161.214 114.226 159.767 114.221L153.929 114.242C152.259 114.062 150.18 114.541 148.742 113.503C147.388 112.526 146.713 109.805 146.427 108.249C146.007 105.956 145.559 96.7013 146.875 94.9649C148.501 92.8189 156.335 92.6496 159.084 92.2784Z" fill="#151314"/>
<path d="M175.086 93.2791C177.371 93.1712 179.706 93.3733 181.883 94.0988C184.254 94.8885 185.053 96.7971 186.077 98.8534C186.788 100.28 187.484 101.758 188.012 103.261C188.578 104.873 188.88 106.539 189.257 108.199C189.504 109.285 189.842 110.395 189.958 111.501C190.02 112.084 190.039 112.752 189.828 113.306C189.491 114.19 188.733 114.626 187.903 114.981C183.605 115.868 178.116 114.308 173.706 114.148C173.516 112.853 173.548 111.536 173.442 110.233C173.319 108.719 173.107 107.213 173.04 105.694C172.888 102.197 173.166 96.8632 173.912 93.4602C174.306 93.4428 174.698 93.3516 175.086 93.2791Z" fill="#151314"/>
<path d="M182.51 96.252C182.687 96.2747 182.796 96.2583 182.942 96.3723C183.439 96.7584 183.812 97.7378 184.097 98.3005C184.35 98.8024 184.592 99.3099 184.823 99.8231C185.054 100.336 185.273 100.854 185.481 101.378C185.689 101.901 185.885 102.429 186.07 102.961C186.254 103.494 186.427 104.03 186.588 104.571C186.75 105.111 186.899 105.655 187.036 106.203C187.173 106.75 187.298 107.301 187.411 107.854C187.524 108.407 187.625 108.963 187.714 109.521C187.802 110.079 187.878 110.638 187.942 111.2C187.99 111.59 188.092 112.426 187.809 112.726C187.081 113.495 181.933 113.21 180.715 113.155C181.676 111.89 185.699 106.444 186.026 105.41C186.145 105.035 186.152 104.766 185.971 104.418L185.752 104.4C185.473 104.564 185.279 104.746 185.096 105.02C184.399 106.062 183.826 107.232 183.156 108.301C182.139 109.923 180.959 111.46 179.771 112.953C178.713 112.942 177.674 112.809 176.624 112.686L177.289 111.745C179.205 108.856 181.507 106.221 183.632 103.498C184.28 102.668 184.992 101.457 184.878 100.363L184.75 100.259C184.124 100.75 183.635 101.872 183.148 102.546C182.152 103.921 176.539 111.666 175.751 112.074C175.274 111.258 175.327 108.376 175.031 107.234C175.021 107.196 175.011 107.158 175 107.119C176.132 104.618 178.13 102.24 179.713 100.009C180.591 98.7728 181.444 97.3164 182.51 96.252Z" fill="#D5EEC7"/>
<path d="M180.018 95.252L181 95.6014C180.373 96.7669 179.424 97.8465 178.653 98.9273C177.259 100.882 175.921 102.879 174.514 104.824C174.404 104.974 174.283 105.111 174.163 105.252L174 105.136C174.013 104.694 174.029 104.259 174.116 103.825C174.546 101.67 178.267 96.4381 180.018 95.252Z" fill="#D5EEC7"/>
<path d="M176.919 95.252C177.62 95.2881 178.305 95.3767 179 95.4799C177.776 96.7707 176.806 98.2114 175.846 99.7147C175.539 100.21 175.275 100.737 175 101.252C175.088 99.2562 175.344 97.2507 175.601 95.2711L176.919 95.252Z" fill="#D5EEC7"/>
<path d="M162.56 119.258C162.726 119.249 162.893 119.25 163.059 119.261C163.225 119.272 163.39 119.294 163.554 119.325C163.718 119.357 163.879 119.398 164.038 119.449C164.197 119.501 164.352 119.561 164.503 119.632C165.218 119.965 165.721 120.414 166 121.154C165.876 122.049 165.761 124.298 165.075 124.879C164.279 125.554 161.989 125.123 160.987 125.037C160.013 124.976 158.198 125.044 157.416 124.464C157.196 124.301 157.068 124.012 157.022 123.749C156.911 123.1 157.231 122.396 157.604 121.884C158.778 120.273 160.674 119.582 162.56 119.258Z" fill="#151314"/>
<path d="M162.517 121.258C163.503 121.203 164.21 121.514 165 121.917C164.929 122.707 164.733 123.474 164.545 124.252C163.292 124.23 162.054 124.183 160.806 124.1C160.195 124.087 158.897 124.101 158.38 123.873C158.121 123.76 158.103 123.671 158 123.469C158.036 123.235 158.107 123.099 158.302 122.922C159.337 121.981 160.933 121.343 162.517 121.258Z" fill="#D5EEC7"/>
<path d="M159.35 140.298C159.625 140.263 159.873 140.237 160.152 140.261C160.763 140.671 160.649 142.152 160.871 142.838C161.633 145.189 163.949 146.182 166 147.252C162.197 147.069 158.38 146.956 154.573 146.859C152.609 146.809 150.697 146.65 148.729 146.773C146.549 147.036 144.199 146.782 142 146.749C142.306 146.579 142.607 146.404 142.906 146.222C145.012 144.919 146.695 142.679 147.256 140.299C151.294 140.408 155.311 140.458 159.35 140.298Z" fill="#D5EEC7"/>
<path d="M195.863 129.252L195.973 129.328C196.209 131.216 194.83 135.002 193.706 136.557C191.815 137.026 189.931 137.115 188 137.252C188.165 134.789 188.182 132.476 188.972 130.108C191.321 129.873 193.544 129.808 195.863 129.252Z" fill="#D5EEC7"/>
<path d="M139.085 131.262C139.283 131.252 139.48 131.25 139.678 131.254C141.078 131.287 142.626 131.485 143.619 132.659C144.859 134.124 145.068 136.171 144.984 138.051C144.468 136.303 143.651 134.593 142.107 133.645C140.867 132.885 139.19 132.745 137.823 133.175C135.656 133.857 134.423 135.861 133.423 137.872C132.057 141.209 133.3 142.296 134.247 145.252C133.834 144.82 133.353 144.561 132.898 144.192C131.875 143.361 131.162 141.484 131.036 140.152C131.024 140.031 131.016 139.911 131.01 139.79C131.003 139.669 131 139.548 131 139.427C131 139.306 131.002 139.185 131.008 139.064C131.013 138.943 131.021 138.822 131.032 138.702C131.044 138.581 131.057 138.461 131.074 138.341C131.091 138.222 131.11 138.103 131.133 137.984C131.155 137.865 131.18 137.747 131.208 137.63C131.236 137.513 131.267 137.396 131.3 137.28C131.333 137.165 131.369 137.05 131.408 136.936C131.447 136.823 131.488 136.71 131.532 136.598C131.576 136.487 131.623 136.377 131.672 136.268C131.722 136.159 131.773 136.051 131.828 135.945C131.882 135.839 131.939 135.734 131.998 135.631C132.057 135.528 132.119 135.426 132.183 135.326C132.247 135.227 132.313 135.129 132.382 135.032C132.451 134.936 132.521 134.842 132.595 134.749C134.232 132.643 136.562 131.53 139.085 131.262Z" fill="#D5EEC7"/>
<path d="M14.3206 104.668C13.7548 102.576 12.9806 100.452 13.0791 98.2587C13.1357 96.9962 13.4069 95.7533 13.4023 94.4916C13.4029 94.2542 13.4125 94.0173 13.4311 93.7807C12.5324 92.9196 8.31664 88.7935 7.5119 88.6134C6.13838 88.3061 3.74295 88.1937 2.57118 87.7818C2.29178 87.6834 2.12321 87.58 2 87.3123C2.14275 86.1345 2.69238 85.0223 3.15975 83.9414C3.32211 83.5744 3.4901 83.21 3.66369 82.848C3.83731 82.4861 4.01646 82.1269 4.20115 81.7704C4.38585 81.414 4.576 81.0605 4.7716 80.7098C4.96721 80.3591 5.16818 80.0114 5.37451 79.6669C5.58085 79.3223 5.79245 78.981 6.00933 78.6429C6.22619 78.3047 6.44822 77.97 6.67543 77.6386C6.90263 77.3073 7.13489 76.9794 7.3722 76.655C7.60953 76.3308 7.8518 76.0102 8.099 75.6933C8.34622 75.3763 8.59827 75.0632 8.85515 74.7539C9.11203 74.4448 9.37361 74.1395 9.63992 73.8383C9.90622 73.5368 10.1771 73.2396 10.4526 72.9467C10.728 72.6535 11.008 72.3647 11.2923 72.0802C11.5767 71.7956 11.8654 71.5155 12.1585 71.2398C12.4515 70.9639 12.7487 70.6927 13.0501 70.4261C13.3515 70.1594 13.657 69.8973 13.9665 69.6398C14.276 69.3823 14.5894 69.1297 14.9066 68.8819C21.9773 63.3428 33.7207 58.305 42.7689 59.4039C43.5257 59.4957 44.7233 59.6515 45.1955 60.3089C45.5374 60.7849 45.3241 61.6226 45.1789 62.146C44.4539 64.7567 41.4638 70.6885 39.794 72.7741C39.7847 72.7857 39.7759 72.7975 39.7668 72.8091C40.1803 75.0171 40.2391 77.291 40.3704 79.5283C40.4154 80.2938 40.545 81.0608 40.5278 81.8271C42.0464 82.4145 43.5701 83.0986 45.1168 83.6033C46.5982 84.0869 48.1934 84.3958 49.6267 84.9991C50.0342 85.1705 50.3726 85.3347 50.6581 85.6756C50.6763 85.817 50.731 85.8862 50.619 85.9986C49.8236 86.7972 46.4354 86.8192 45.3095 86.8669C46.6152 88.7572 47.5831 90.8546 48.4538 92.9748C48.7807 93.7712 49.0059 94.6989 49.4192 95.4464C50.3895 94.9812 51.7476 94.36 52.8373 94.7127C53.1708 94.8207 53.4466 95.0404 53.5997 95.3573C53.7877 95.7465 53.8271 96.2637 53.874 96.6899C53.7546 96.937 53.7221 96.9409 53.477 97.0751C53.2154 97.0715 53.005 97.0864 52.8058 96.8866C52.7105 96.7909 52.6365 96.6542 52.5623 96.542C52.3963 96.2917 52.242 96.0826 51.9155 96.055C51.3269 96.005 50.3149 96.6563 49.8281 96.9756C51.3857 101.477 51.5493 106.888 49.4017 111.228C47.5911 114.887 44.3883 118.631 40.6918 120.502C42.1999 121.147 43.516 122.342 44.8303 123.308C46.1812 124.301 47.6195 125.29 49.0345 126.191C50.0683 126.849 51.6237 127.275 52.4497 128.15C53.3202 127.1 54.7434 125.799 56.1578 125.627C57.0519 125.518 57.6077 125.868 58.3317 126.319C59.3984 125.662 60.1881 124.944 61.0088 124.002C62.439 122.361 66.4137 116.055 68.7176 116.535C68.8575 116.564 68.9991 116.577 69.0863 116.702C69.555 117.374 68.9075 119.281 68.7047 120.012C68.3857 121.163 68.09 122.34 67.7068 123.471C67.5449 123.948 66.8478 124.183 66.5953 124.742C66.3259 125.338 66.2273 126.03 66.0721 126.663C65.5091 128.958 65.0467 131.128 65.714 133.494L65.8052 133.547C65.8707 133.402 65.8818 133.257 66.0446 133.199C66.4621 133.048 68.224 133.558 68.7745 133.635C69.9853 133.802 77.2631 134.669 77.8143 134.179C77.634 133.971 77.5477 133.927 77.2664 133.911C75.3402 133.803 67.0527 133.355 65.8027 132.003C65.62 131.806 65.6272 131.754 65.6338 131.503L65.9139 131.12C66.9691 131.067 68.1938 131.62 69.256 131.801C71.2102 132.133 78.6229 133.021 80.3942 132.428C81.1297 131.483 80.049 124.284 79.9943 122.654C79.9442 121.159 80.0177 119.679 80.2567 118.202C80.3326 117.734 80.2929 116.866 80.8985 116.805C81.7564 116.719 82.7781 117.845 83.3093 118.422C84.8194 120.06 85.917 122.335 86.5147 124.46C86.7256 125.21 86.8244 125.988 87.0461 126.734C87.5317 128.367 88.083 129.642 87.9895 131.387C87.9102 132.866 87.5071 134.746 86.3384 135.761C85.8138 136.216 85.1696 136.378 84.4833 136.309C83.5777 136.217 82.4779 135.368 82.1544 135.338C81.9508 135.318 81.3904 135.703 81.2133 135.811C81.2209 137.201 81.2813 141.107 82.1795 142.014C82.2338 142.068 82.289 142.121 82.3451 142.173C82.6729 143.235 82.1551 145.314 81.6315 146.295C81.0559 147.374 80.0767 148.077 78.9036 148.407C77.9275 148.681 76.5094 148.828 75.6102 148.308C75.2304 148.089 74.9127 147.726 74.8268 147.29C74.7533 146.916 74.8784 146.504 74.9614 146.141C76.062 145.524 77.8225 144.743 79.1107 145.065C79.3191 145.117 79.4594 145.179 79.5938 145.347C79.3891 145.83 78.5904 146.079 78.1157 146.273C77.6552 146.46 77.1818 146.625 76.7379 146.849C77.6441 146.876 78.9512 147.073 79.6779 146.432C80.4094 145.787 80.587 144.169 80.8015 143.244C80.1049 143.459 79.4044 143.717 78.6716 143.753C78.0676 143.782 77.3774 143.939 76.8791 143.528C76.6756 143.36 76.501 143.14 76.472 142.873C76.6294 142.637 76.7574 142.63 77.0398 142.571C78.2236 142.326 79.4399 142.26 80.6324 142.004C80.0736 140.076 79.9477 138.261 79.8694 136.269C77.8424 137.02 75.9618 136.8 73.8444 136.752C74.5431 138.983 76.1629 143.4 74.961 145.597C74.2085 146.973 72.4686 147.835 70.999 148.241C69.9561 148.529 68.1967 148.807 67.212 148.279C66.9757 148.152 66.7794 147.946 66.7262 147.677C66.6313 147.195 66.9711 146.606 67.2681 146.253C67.8134 145.605 68.6927 145.137 69.4732 144.821C68.6001 141.974 67.6219 139.304 66.4652 136.561C66.2079 135.951 65.9525 135.088 65.5321 134.582L65.393 134.573C65.0097 134.545 64.6748 134.552 64.4031 134.241C63.7686 133.516 63.9278 130.864 63.988 129.972C62.9482 130.965 61.2396 131.835 59.7603 131.77C59.5258 131.76 59.2903 131.716 59.0593 131.675C58.688 131.822 58.5524 132.332 58.2335 132.586C57.4008 133.249 54.8084 132.641 53.8988 132.252C53.6695 132.154 53.447 132.038 53.2259 131.923C51.4307 133.104 49.7823 133.827 47.593 133.382C45.9595 133.05 44.6896 132.133 43.5505 130.964C43.8641 132.494 44.3006 135.342 43.5228 136.741C43.312 136.861 43.282 136.828 43.0494 136.815C43.0202 137.301 43.8033 137.928 43.9504 138.499C44.2675 139.729 44.6101 140.961 44.8801 142.202C45.0081 142.789 45.042 143.51 45.2541 144.066C45.335 144.278 45.4803 144.477 45.632 144.645C45.6944 144.714 45.7694 144.772 45.8284 144.844C45.864 144.888 45.9416 145.02 45.978 145.081C45.9903 146.208 45.8077 146.871 44.9781 147.719C44.1615 148.553 43.0691 149.234 41.8629 149.217C41.1486 149.207 40.4123 148.936 39.9082 148.424C39.4631 147.972 39.2572 147.413 39.2963 146.783C39.338 146.113 39.6417 145.642 39.9875 145.091C39.6489 145.079 38.5475 145.231 38.3134 145.088C38.0985 144.957 38.0023 144.585 37.6924 144.648C37.3488 144.717 36.6793 145.153 36.1428 145.281C36.7322 145.732 37.1542 146.113 37.2521 146.889C37.3338 147.538 36.9929 148.129 36.585 148.607C35.8831 149.43 34.7492 150.207 33.6311 150.25C33.0444 150.272 32.325 150.108 31.8947 149.686C31.6041 149.401 31.4706 148.979 31.4829 148.58C31.5069 147.807 31.6362 146.878 32.2364 146.339C32.5147 146.089 32.8348 145.875 33.1404 145.659C32.0575 145.596 31.2353 145.529 30.2444 145.045C29.5157 142.864 29.7734 140.71 30.357 138.54L29.8593 138.356C29.7223 138.937 29.1056 139.495 28.6169 139.81C28.0516 140.174 27.3057 140.343 26.6446 140.186C25.7433 139.972 25.0681 139.298 24.6214 138.519C23.037 135.759 24.0906 131.385 24.9372 128.539C25.4493 126.817 26.0279 124.646 27.0297 123.153C27.4113 122.584 28.2396 122.203 28.1357 121.459C27.701 121.018 25.6848 120.815 24.9353 120.565C24.0178 120.253 23.1422 119.851 22.3086 119.36C20.7049 118.433 19.2274 117.266 18.1447 115.755C17.6508 115.066 17.2303 114.281 16.622 113.685C15.9574 114.17 15.8599 114.393 14.9451 114.275C13.758 114.122 12.6189 113.614 11.8961 112.647C10.9497 111.38 10.6681 109.524 10.9302 107.984C11.1122 106.914 11.568 105.934 12.4807 105.293C13.0493 104.894 13.6399 104.752 14.3206 104.668Z" fill="#151314"/>
<path d="M44.0995 88.252C46.0342 91.0484 48.1553 97.5606 48.7842 100.915C49.5729 105.122 48.1197 109.761 45.7329 113.238C43.2328 116.881 39.2474 120.396 34.7727 121.177C32.3245 121.605 25.8881 120.104 23.6743 118.961C22.347 118.275 21.0978 117.258 20.0621 116.189C19.1607 115.258 17.3294 112.491 16.6029 111.977C16.3113 111.939 16.251 111.941 15.9774 112.047C15.8301 112.348 15.8733 112.473 15.9035 112.801L15.8215 112.873C15.204 112.624 14.5768 112.593 13.9401 112.423C13.3118 112.256 12.7632 111.93 12.4333 111.357C11.9427 110.504 11.8862 108.591 12.1757 107.654C12.8241 105.558 14.7639 107.164 15.9269 106.395C16.2185 106.202 16.2571 105.962 16.3411 105.653C16.2754 105.282 16.1751 104.918 16.0968 104.549C16.0064 104.124 15.9545 103.708 15.9854 103.272C16.0417 102.476 16.5116 99.717 16.8862 99.1454C17.4314 99.2276 17.3264 100.533 17.8752 100.887C18.6225 100.949 19.3294 100.695 19.9575 100.301C23.0298 98.3721 24.0031 93.8162 24.7531 90.5288C25.3708 92.0856 25.5654 95.1171 24.8982 96.6591C24.5993 97.3502 23.7813 97.9028 23.7414 98.693C23.8617 98.9013 23.8099 98.894 24.0588 98.9794C24.4806 98.8889 24.8718 98.7689 25.2506 98.5573C27.8267 97.1178 28.8808 93.7854 29.5586 91.1306C29.5676 92.3246 29.6732 93.5838 29.56 94.7694C29.4921 95.4816 28.8728 96.7462 29.2109 97.3371C29.3339 97.3704 29.3451 97.3817 29.4921 97.3754C30.2114 97.3441 31.2086 96.4575 31.7165 95.9818C33.449 94.3602 34.0079 92.4536 34.0847 90.1381C34.6585 91.1463 35.3056 92.3111 35.5223 93.4593C35.6273 94.0145 35.6178 94.5971 35.7435 95.146C35.7975 95.3823 35.8278 95.49 36.0607 95.5969C36.2936 95.7036 36.5531 95.6398 36.7696 95.5274C38.1573 94.8062 39.3898 92.0006 39.8802 90.5797C40.2045 90.8708 40.5907 91.1749 40.8553 91.5204C41.2901 92.0881 41.3235 92.8452 41.9718 93.2465C42.2579 93.26 42.326 93.2719 42.5624 93.0799C43.7197 92.1402 43.9462 89.6201 44.0995 88.252Z" fill="#D5EEC7"/>
<path d="M37.0856 107.277C37.5211 107.238 37.971 107.257 38.4086 107.254C39.58 108.005 40.3363 109.231 40.7435 110.559C41.1306 111.822 41.1091 113.225 40.4752 114.404C39.9738 115.336 39.1759 115.942 38.1871 116.251C37.7248 116.259 37.2743 116.223 36.8635 115.988C35.5285 115.227 34.8377 113.371 34.4155 111.959C34.1298 111.004 33.7283 109.585 34.2615 108.663C34.7351 107.844 36.2287 107.506 37.0856 107.277Z" fill="#151314"/>
<path d="M27.9482 104.252C28.3019 104.262 28.6219 104.343 28.9082 104.542C29.5706 105.003 29.8913 105.795 29.9721 106.547C30.0905 107.651 29.8391 108.379 29.0861 109.213C28.9123 109.233 28.7237 109.264 28.5469 109.247C28.1471 109.21 27.7679 108.925 27.5475 108.622C26.9158 107.753 26.908 106.393 27.1384 105.4C27.2714 104.828 27.421 104.57 27.9482 104.252Z" fill="#151314"/>
<path d="M40.5558 100.252C40.57 100.254 40.5842 100.255 40.5984 100.257C40.9311 100.289 41.1512 100.337 41.3947 100.615C41.8403 101.124 42.0012 101.93 42 102.624C41.9986 103.371 41.9018 103.729 41.4382 104.252C41.1344 104.225 40.8942 104.224 40.6619 103.97C40.1598 103.419 39.9741 102.396 40.0029 101.637C40.0263 101.021 40.1572 100.671 40.5558 100.252Z" fill="#151314"/>
<path d="M40.2715 60.2569C40.4228 60.2504 40.5437 60.2434 40.6915 60.2851C41.2286 60.4364 40.1123 62.5525 40.4157 63.1442C41.4158 63.4066 41.6076 60.885 42.5813 60.5045C43.0734 60.3124 43.5564 60.5 43.9997 60.7199C44.0434 61.7555 39.7801 69.8886 38.9003 71.0122L38.8104 70.9849C38.7529 70.7897 38.6907 70.6558 38.5755 70.4877C38.0062 70.1579 37.2668 70.3507 36.6484 70.461C30.5664 71.5444 21.2438 76.664 15.9134 79.869C13.2877 81.4481 10.9976 82.6625 8.84644 84.9186C8.47974 85.3031 8.02028 85.73 7.73992 86.18C7.60169 86.4017 7.58811 86.5106 7.65528 86.7551C7.71706 86.7851 7.77185 86.8448 7.84061 86.8448C8.19846 86.8448 10.0281 85.0954 10.3947 84.7603C13.022 82.3598 16.4723 80.7196 19.6349 79.1429C20.6455 78.639 21.6124 78.0545 22.6212 77.5492C24.0282 76.8442 25.5019 76.2392 26.9294 75.5713C28.2027 74.9757 29.4212 74.2524 30.7159 73.7067C32.6407 72.8951 34.7337 72.1178 36.7537 71.5721C37.0835 71.483 37.5331 71.3424 37.8522 71.5216C38.3709 72.5011 38.3721 74.181 38.5108 75.2843L38.783 78.8636L38.7461 78.9406L38.7911 79.1121L38.6951 79.1952C36.5294 78.5154 25.3991 84.3482 22.8206 85.662C21.7032 86.2313 20.5477 86.7284 19.4475 87.3312C17.5455 88.3729 14.0741 90.7646 12.1166 91.252C11.2597 90.4057 8.99218 87.865 7.94706 87.4936C7.22346 87.2365 6.32924 87.1536 5.57048 87.0105C4.78226 86.8618 3.71743 86.7682 3 86.4272C3.19099 85.6706 3.71964 84.8254 4.06012 84.1128C4.37862 83.4592 4.71512 82.8149 5.06965 82.1798C5.42417 81.5447 5.79617 80.9198 6.18564 80.3051C6.5751 79.6904 6.98144 79.0869 7.40467 78.4945C7.82789 77.9021 8.26734 77.3218 8.72301 76.7535C9.17867 76.1852 9.64987 75.6298 10.1366 75.0874C10.6233 74.545 11.1249 74.0163 11.6411 73.5014C12.1574 72.9865 12.6877 72.4861 13.232 72.0002C13.7763 71.5143 14.3337 71.0437 14.9043 70.5885C19.5663 66.8135 25.2809 64.1555 30.9746 62.2913C31.8687 61.9988 32.7954 61.8672 33.6884 61.5902C34.805 61.2438 36.4873 60.4565 37.6426 60.5719C38.2102 60.9574 37.4672 61.9462 37.7483 62.6106C37.8903 62.7022 37.982 62.7775 38.1582 62.7839C38.2877 62.7886 38.2589 62.7843 38.3566 62.6818C38.6808 62.341 39.1642 61.3477 39.1259 60.8866C39.1112 60.7109 39.118 60.637 39.1707 60.4705C39.4605 60.2614 39.9192 60.2834 40.2715 60.2569Z" fill="#D5EEC7"/>
<path d="M24.1917 77.252C24.332 77.2663 24.4399 77.2453 24.548 77.3477C24.9316 77.7115 24.9453 78.5064 25.0067 79.0006C25.3963 78.6846 25.8918 78.2696 26.4279 78.2594C26.7106 78.2542 26.8283 78.3111 27.0296 78.4931C27.0571 78.6325 27.0727 78.6736 27.0648 78.8283C27.0292 79.5166 26.2259 79.9195 25.7142 80.2505C25.9886 80.4091 26.2609 80.5693 26.5488 80.704C26.8285 80.8351 27.0878 80.9526 27.3298 81.1464C27.5996 81.3623 27.9588 81.66 28 82.0144L27.8384 82.187C26.8567 82.381 25.9899 81.9938 25.0636 81.7302C25.2645 82.1531 25.5072 82.6103 25.6193 83.0629C25.7182 83.4627 25.7479 83.8745 25.5112 84.2199L25.2366 84.2526C24.7948 84.0952 24.524 83.7902 24.1981 83.4735C24.0766 82.9971 23.9035 82.5272 23.7512 82.0592C23.4533 82.588 23.232 83.1651 22.9898 83.72C22.8731 84.1614 22.7898 84.6752 22.4576 85.0144C22.271 85.2049 22.1313 85.2422 21.8727 85.252C21.7076 85.1243 21.6405 85.0477 21.5588 84.8516C21.2157 84.0258 21.6754 83.1335 22.017 82.3914C21.1309 82.2836 20.292 82.6471 19.4599 82.5301C19.1714 82.4895 19.1425 82.4552 19 82.2353C19.0941 81.8441 19.2801 81.705 19.551 81.4085C20.3428 81.2705 21.1549 81.1225 21.9605 81.2324C22.2806 81.2761 22.5908 81.2973 22.9139 81.3102C22.8908 81.2934 22.868 81.2763 22.845 81.2601L22.7281 81.1793C22.0857 80.7279 21.3475 80.5809 20.7296 80.141C20.5854 79.8786 20.5961 79.8503 20.6315 79.5516C21.2722 78.791 22.623 80.0508 23.4751 79.9259C24.0666 79.2686 23.3525 78.4254 23.603 77.6804C23.7135 77.3515 23.8969 77.3533 24.1917 77.252Z" fill="#151314"/>
<path d="M8.44517 81.252C8.74612 81.3425 8.78637 81.3401 8.98488 81.6024C9.18063 82.9343 7.41725 83.9164 7.06288 84.5601C6.97555 84.7186 6.9251 85.0048 6.86854 85.1876C6.67578 85.2737 6.6171 85.2573 6.41692 85.2303C6.19022 85.0776 6.11991 84.9719 6 84.7094C6.03756 83.9861 6.05288 82.4225 6.53575 81.9198L6.71232 81.973C6.98541 82.3489 6.99151 82.7949 7.04745 83.2591C7.54808 82.6248 7.98414 81.9228 8.44517 81.252Z" fill="#151314"/>
<path d="M38.8347 121.751L39.7147 121.252C39.9756 123.032 40.4993 124.672 40.9379 126.405C41.5518 128.764 42.0839 131.142 42.5343 133.54C42.6888 134.331 42.9541 135.131 43 135.937L42.7423 135.813L42.6037 135.945C42.591 136.177 42.5689 136.38 42.5123 136.605C41.4437 137.636 35.9447 137.662 34.2118 137.7C33.2682 137.721 32.0722 137.627 31.1759 137.915C31.1129 137.935 31.0508 137.959 30.9882 137.98C30.6764 138.073 30.3209 138.22 30 138.252C30.2219 135.955 30.552 133.572 30.9496 131.302C31.1135 130.367 31.433 129.482 31.5574 128.531C31.7966 126.703 31.5819 124.813 31.8342 123.002C31.9231 122.984 31.9474 122.977 32.0496 122.969C32.2983 122.95 33.0574 122.888 33.226 123.038C33.1372 123.125 33.0777 123.18 32.9956 123.279C32.8562 123.448 32.7991 123.665 32.7705 123.881C32.6769 124.585 32.7339 125.344 32.6934 126.057C32.59 127.879 32.3822 129.685 32.457 131.513C32.6488 131.833 32.8596 132.137 33.0715 132.443C34.8119 132.548 36.53 132.458 38.1974 131.885C38.9299 131.633 39.8247 131.247 40.1587 130.469C40.647 129.331 39.3318 123.145 38.8347 121.751Z" fill="#D5EEC7"/>
<path d="M38.1984 80.252L38.351 80.2546C38.6613 80.5656 38.7715 81.4588 39 81.9054C36.7339 82.2075 34.5693 83.2395 32.4599 84.08C27.511 86.0517 22.7091 88.1612 18.064 90.7876C16.6863 91.5667 15.2925 92.2938 14.0252 93.252C13.6666 92.7495 13.3354 92.2282 13 91.7099C18.1681 88.6057 23.8326 86.057 29.379 83.7146C32.2824 82.4883 35.2076 81.2415 38.1984 80.252Z" fill="#D5EEC7"/>
<path d="M42 123.252C44.3016 125.276 48.9241 129.121 51.9387 129.349C51.9009 129.868 52.0773 130.604 51.9579 131.076C51.8759 131.399 51.5998 131.442 51.3327 131.574C51.0853 131.695 50.8358 131.815 50.5775 131.91C49.1777 132.423 47.7319 132.366 46.3875 131.693C45.4581 131.228 44.2704 130.511 43.718 129.59C43.1442 128.634 43.0515 127.113 42.7926 126.02C42.5783 125.082 42.3142 124.16 42 123.252Z" fill="#D5EEC7"/>
<path d="M31 139.316C32.7971 139.316 34.5603 139.344 36.3583 139.252C36.3837 140.996 37.0463 142.953 36.9974 144.581L36.8331 144.681C35.8081 144.838 32.3385 145.675 31.5084 144.98C30.8748 144.45 31.2119 140.467 31.0199 139.415C31.0138 139.382 31.0066 139.349 31 139.316Z" fill="#D5EEC7"/>
<path d="M66.9393 118.252L66.9786 118.393L66.9989 118.305C67.0611 118.862 64.4197 127.335 64.0311 128.686C62.6893 129.61 61.1061 131.343 59.4069 131.248C59.4518 129.967 59.329 129.038 59 127.803C60.8168 126.86 62.4215 125.002 63.4884 123.167C64.0454 122.21 64.537 121.186 65.1614 120.278C65.6865 119.515 66.2882 118.888 66.9393 118.252Z" fill="#D5EEC7"/>
<path d="M25.8312 130.252C27.2711 130.829 28.4598 131.052 30 131.202C29.7035 132.592 29.267 133.974 29.0663 135.379C28.958 136.138 29.0411 136.923 28.9202 137.671C28.8781 137.933 28.7259 138.162 28.5816 138.383C28.317 138.624 28.0385 138.898 27.7088 139.056C27.3601 139.224 26.8878 139.326 26.5134 139.186C26.0797 139.024 25.8004 138.572 25.6057 138.196C24.5285 136.118 25.0685 132.392 25.8312 130.252Z" fill="#D5EEC7"/>
<path d="M42.5111 137.252C42.8265 137.571 43.3204 141.035 43.4978 141.765C43.626 142.29 43.8088 142.79 44 143.289C42.2138 143.744 41.3019 144.138 39.3943 144.252L39.2379 144.183C38.8771 143.748 38.2597 139.438 38 138.407C39.2673 138.201 41.3546 137.786 42.5111 137.252Z" fill="#D5EEC7"/>
<path d="M86.2602 128.252C86.294 128.301 86.3353 128.346 86.3618 128.399C87.1377 129.946 87.2365 132.915 86.4904 134.458C86.3342 134.782 86.1381 135.032 85.7644 135.142C85.3084 135.277 84.139 135.331 83.724 135.048C83.4184 134.839 83.4432 134.654 83.3921 134.334C83.1525 133.87 82.7707 133.482 82.428 133.085C82.3994 131.699 82.1534 130.345 82 128.969C83.5978 129.148 84.791 128.8 86.2602 128.252Z" fill="#D5EEC7"/>
<path d="M67 136.252C68.7815 136.559 70.5726 136.757 72.3674 136.991C72.7396 138.714 73.4144 140.49 74 142.168C72.3894 142.294 70.994 142.29 69.3876 142.075C68.422 140.229 67.7877 138.169 67 136.252Z" fill="#D5EEC7"/>
<path d="M34.6797 128.878C34.9341 128.461 35.1902 128.163 35.1104 127.673C34.9955 127.562 34.9775 127.482 34.7884 127.479C34.4963 127.476 34.2407 127.609 34.0288 127.774C33.7387 127.999 33.5624 128.218 33.5677 128.567C33.5755 129.098 34.1085 129.656 34.534 129.995C35.0226 130.384 35.7094 130.813 36.4065 130.777C36.6439 130.765 36.6228 130.751 36.8602 130.848C36.2435 131.201 34.325 131.315 33.575 131.22C33.2758 131.182 33.188 131.139 33.0227 130.926C33.0395 130.737 33.0634 130.585 33.0135 130.4C32.9579 130.193 33.0878 127.492 33.1494 127.329C33.7897 126.88 34.8229 127.127 35.6069 127.015C36.0764 126.669 36.5026 126.324 37.1365 126.252L37.2921 126.45C36.9579 126.654 36.6005 126.929 36.4934 127.288C36.4446 127.45 36.4394 127.556 36.5504 127.693C36.8434 128.054 37.5336 128.183 38 128.32C37.74 128.76 37.475 129.179 37.3259 129.659C36.8455 129.701 36.3686 129.684 35.8866 129.674C35.4719 129.424 35.078 129.147 34.6797 128.878Z" fill="#D5EEC7"/>
<path d="M38.0833 124.523C37.6914 124.22 37.5792 124.077 37.0812 124.113C37.1061 123.749 37.5677 123.085 37.6472 122.424L37.8002 122.252C38.0428 122.613 39.0708 129.038 38.9961 129.592C38.9889 129.646 38.9785 129.698 38.9698 129.751C38.782 129.754 38.8837 129.766 38.6662 129.699C38.638 129.724 38.6103 129.75 38.5815 129.775C38.2286 130.078 38.0152 130.114 37.582 130.177C37.4194 130.201 37.1936 130.292 37.0392 130.232C37.1605 130.024 37.2692 129.86 37.428 129.684C37.5965 129.497 37.6643 129.345 37.7545 129.105C37.9186 128.564 38.0464 128.016 38.1753 127.464C38.2182 127.207 38.273 126.959 38.2334 126.697C38.163 126.228 37.4114 126.22 37.0966 125.985C37.0639 125.961 37.0321 125.935 37 125.91C37.1272 125.266 37.6332 124.928 38.0833 124.523Z" fill="#D5EEC7"/>
<path d="M72.3543 143.298C72.5788 143.246 72.7073 143.211 72.9202 143.35C73.0812 143.834 72.9565 144.512 72.9094 145.036L70.7859 145.247C70.5468 145.258 70.4054 145.266 70.1802 145.111C69.9712 144.65 70.014 143.946 70 143.393C70.7882 143.402 71.5677 143.372 72.3543 143.298Z" fill="#D5EEC7"/>
<path d="M71.5926 146.264C71.7775 146.248 71.8241 146.239 72 146.296C71.3969 146.802 69.4411 147.071 68.5666 147.245C68.3922 147.256 68.2294 147.252 68.0545 147.247L68 147.13C68.0188 147.111 68.0349 147.089 68.0565 147.071C68.7107 146.534 70.6582 146.296 71.5926 146.264Z" fill="#D5EEC7"/>
<path d="M36.8715 122.252L36.9378 122.263L37 122.39C36.5477 123.004 36.1082 123.624 35.6813 124.252C35.3339 124.068 35.0036 123.862 34.6701 123.66C34.4018 123.391 34.0647 123.154 34 122.798C34.5023 122.525 36.1979 122.391 36.8715 122.252Z" fill="#D5EEC7"/>
<path d="M33.1455 124.252C33.2824 124.338 33.2266 124.294 33.3345 124.399C33.5481 124.609 33.9028 124.835 34 125.08L33.8808 125.159C33.7029 125.197 33.5249 125.224 33.3437 125.252C33.2004 125.191 33.1179 125.167 33.0568 125.046C32.9411 124.815 33.018 124.475 33.1455 124.252Z" fill="#D5EEC7"/>
<path d="M76.2116 74.2942C76.7683 74.2598 77.3206 74.2351 77.8781 74.2662C81.5902 74.4732 85.4224 76.0324 87.918 78.9022C91.529 83.0546 92.9346 86.4207 93.1561 91.9796C93.2245 93.6975 93.2352 95.3864 93.1339 97.1028C93.4124 97.0794 93.7016 97.0485 93.9803 97.0786C94.759 97.163 95.4903 97.6908 95.9634 98.3066C96.7971 99.3915 97.1344 101.019 96.9517 102.371C96.7904 103.564 96.1639 104.714 95.2157 105.439C94.083 106.306 92.985 106.277 91.6562 106.091C91.4382 106.572 91.2004 107.043 90.9426 107.504C90.685 107.964 90.4084 108.412 90.1127 108.849C89.8171 109.285 89.5037 109.707 89.1724 110.115C88.8411 110.524 88.4931 110.917 88.1286 111.294C84.9075 114.693 81.7361 116.321 77.0943 116.39L77.0982 116.5L77.1024 116.683C77.1452 118.138 76.6265 118.789 76.0361 120.006C76.247 120.194 76.4791 120.394 76.5928 120.663C77.0038 121.632 77.3746 125.36 76.9762 126.297C76.8333 126.634 76.5887 126.794 76.2614 126.913C74.6119 127.518 70.5737 127.282 68.9921 126.444C68.7049 126.292 68.3879 126.086 68.2943 125.752C68.0108 124.744 68.8368 120.423 69.3907 119.517C69.6277 119.129 70.061 119.03 70.4676 118.947L70.5861 118.924C70.2602 118.092 70.0282 117.31 69.9342 116.417C67.1131 116.255 63.6162 114.914 61.2351 113.391C56.9645 110.659 55.5692 106.626 54.5051 101.872C53.5004 102.721 53.0235 102.941 51.7101 102.867C51.4017 102.579 51.0692 102.309 51 101.867C51.5709 101.3 52.5843 101.783 53.2072 101.001C53.3531 100.122 52.0712 99.3502 51.8818 98.497L51.9943 98.3352C52.4704 98.2628 53.0346 98.4704 53.501 98.582C53.6882 98.8068 53.8534 98.9953 54.0935 99.1658C54.3674 98.275 54.2311 97.029 54.2913 96.0812C54.5942 91.3321 54.8647 88.0118 57.4388 83.817C59.5008 80.4565 62.7278 76.4136 66.7117 75.5156C67.7512 75.2812 69.0574 75.1887 69.9746 75.8275C70.3026 76.0558 70.6947 76.4823 70.7091 76.9174C70.7192 77.2252 70.678 77.289 70.5039 77.5188C69.9523 77.6221 68.9817 77.1256 68.3513 77.0721C66.214 76.8904 63.4583 79.0038 61.9188 80.3393C59.7141 82.2519 57.0262 86.0592 56.7812 89.076C59.5317 86.9112 62.0382 84.4249 64.4749 81.9043C64.9926 81.3688 65.4036 80.7338 65.9368 80.2132C66.17 79.9857 66.4407 79.7386 66.779 79.7467C66.8959 79.9575 66.8872 79.8687 66.8732 80.0831C66.7042 82.6678 60.3758 88.184 58.4083 89.8525C57.8191 90.3521 57.1603 90.7945 56.602 91.3278C55.7159 92.1744 55.9113 93.7089 55.8979 94.8465C59.8812 92.3517 63.6338 89.4578 66.6944 85.8196C67.6712 84.6586 68.5019 83.3503 69.4317 82.1453C69.1985 81.6017 68.6793 80.8547 68.687 80.2599C68.6909 79.9597 68.7776 79.8681 68.9708 79.6544C69.4826 79.5476 69.7428 79.839 70.0357 80.2377C70.6646 81.0938 71.0113 82.2913 71.5179 83.2441C72.3922 84.889 73.7021 86.402 74.9083 87.802C77.4647 90.7694 82.4213 93.5519 85.9251 95.2874C87.0753 95.8572 88.4795 96.2643 89.5213 96.9935C89.7454 97.1505 89.8572 97.2293 89.9 97.5133C89.8091 97.5946 89.8095 97.6022 89.6835 97.6684C88.8591 98.1023 87.1053 97.4913 86.2675 97.2028C84.7916 96.6947 83.4137 96.0231 82.0192 95.325C80.7394 94.6845 79.4358 94.0725 78.2501 93.2593C74.8039 90.8959 71.801 86.9848 69.9734 83.1962C69.5088 84.1237 69.04 85.0614 68.4498 85.9134C66.2175 89.1362 62.368 92.4477 59.2116 94.7291C58.5743 95.1895 56.014 96.7749 55.7059 97.1018C55.2195 99.5738 56.1238 103.568 57.1281 105.853C57.1787 105.971 57.2307 106.089 57.2841 106.205C57.3377 106.322 57.3927 106.438 57.4489 106.553C57.5052 106.668 57.5629 106.783 57.6221 106.896C57.6813 107.01 57.7419 107.123 57.8037 107.235C57.8657 107.347 57.9289 107.459 57.9935 107.569C58.0581 107.68 58.1242 107.79 58.1916 107.899C58.2588 108.007 58.3274 108.115 58.3974 108.223C58.4673 108.33 58.5386 108.436 58.6113 108.541C58.6838 108.646 58.7576 108.751 58.8327 108.854C58.9079 108.958 58.9843 109.06 59.0618 109.162C59.1395 109.263 59.2184 109.363 59.2985 109.463C59.3786 109.562 59.4599 109.661 59.5424 109.758C59.625 109.856 59.7087 109.952 59.7935 110.047C59.8783 110.142 59.9644 110.236 60.0517 110.329C60.1388 110.422 60.2271 110.514 60.3165 110.605C60.4059 110.696 60.4965 110.785 60.5881 110.874C60.6797 110.962 60.7723 111.049 60.8661 111.136C60.9599 111.222 61.0547 111.306 61.1505 111.39C61.2464 111.474 61.3433 111.556 61.4411 111.637C61.5389 111.718 61.6378 111.798 61.7376 111.877C61.8375 111.956 61.9382 112.033 62.0398 112.109C62.1416 112.185 62.2442 112.26 62.3477 112.333C62.4513 112.407 62.5558 112.479 62.6611 112.549C62.7663 112.62 62.8725 112.69 62.9795 112.758C63.0865 112.826 63.1944 112.892 63.303 112.958C63.4117 113.023 63.5211 113.087 63.6312 113.149C63.7415 113.212 63.8525 113.273 63.9642 113.332C64.0759 113.392 64.1882 113.45 64.3014 113.507C64.4145 113.564 64.5283 113.619 64.6427 113.673C64.7573 113.727 64.8725 113.779 64.9882 113.83C65.104 113.881 65.2203 113.93 65.3372 113.978C65.4543 114.026 65.5719 114.073 65.69 114.118C68.8557 115.322 76.5195 115.237 79.9156 114.585C81.0262 114.372 82.1138 113.983 83.1385 113.501C85.7861 112.253 89.1497 109.202 90.461 106.521C90.7752 105.878 90.8491 105.115 91.1569 104.488C91.4504 103.89 92.8114 104.772 93.7544 104.439C94.5142 104.171 94.9108 103.546 95.263 102.857C95.075 101.725 95.4032 100.627 94.8475 99.5429C94.6947 99.2444 94.4635 98.9781 94.1321 98.8912C93.745 98.7896 93.3434 98.914 93.0089 99.1173C92.5849 99.3751 92.4126 99.5414 92.2888 100.021C92.1557 100.002 91.8567 99.9411 91.7934 99.7969C91.7254 99.6422 91.9227 94.9257 91.8748 94.1044C91.5474 88.493 90.4955 84.9734 86.8804 80.6396C84.0953 77.3007 78.8387 75.798 74.6795 76.2715C73.629 76.3912 72.4805 77.0028 71.4466 76.9215C71.4004 76.8498 71.3291 76.7486 71.3058 76.6673C71.2349 76.42 71.3019 76.2006 71.445 75.9994C72.1773 74.9689 75.0081 74.5099 76.2116 74.2942Z" fill="#151314"/>
<path d="M75.8803 124.252C75.9361 124.65 76.1148 125.375 75.888 125.731C75.6814 126.054 75.2694 126.169 74.9136 126.207C73.8165 126.325 69.8172 126.235 69.0673 125.625C69.0422 125.605 69.0225 125.579 69 125.555C69.0243 125.263 69.0319 125.068 69.211 124.822C70.4271 124.551 71.1849 126.867 72.3837 124.924L72.4787 124.767C72.6759 124.709 72.7191 124.674 72.9086 124.787C73.3571 125.054 73.7123 125.789 74.2516 125.798C74.469 125.795 74.3751 125.773 74.5568 125.851C74.7395 125.931 74.6355 125.906 74.8477 125.917L74.6666 125.792L74.9624 125.768C75.2601 125.257 75.59 124.769 75.8803 124.252Z" fill="#D5EEC7"/>
<path d="M70.1154 121.252C71.0038 121.902 71.9061 122.216 72.9422 122.562L73 122.683C72.7302 123.073 72.6675 123.337 72.6441 123.812C72.6417 123.86 72.6407 123.909 72.639 123.957L72.6606 124.056L72.5639 124.161C72.1664 124.246 71.7838 124.284 71.3788 124.219C71.3274 124.211 71.2766 124.2 71.2264 124.187C71.1762 124.174 71.1268 124.158 71.0783 124.139C71.0296 124.121 70.9821 124.1 70.9357 124.077C70.8892 124.054 70.8441 124.028 70.8002 124C70.7563 123.972 70.714 123.942 70.6732 123.91C70.6325 123.878 70.5934 123.843 70.556 123.807C70.5188 123.771 70.4834 123.733 70.45 123.693C70.4165 123.653 70.3852 123.612 70.356 123.568C69.9148 122.903 69.9465 121.996 70.1154 121.252Z" fill="#D5EEC7"/>
<path d="M71.8501 116.252C72.2258 116.316 72.6189 116.306 73 116.315C72.9289 116.931 72.9051 117.609 72.7024 118.199L72.514 118.252C72.3694 118.228 72.2033 118.207 72.0673 118.156C71.7025 118.02 71.2069 117.227 71.0753 116.886C70.984 116.649 70.9661 116.548 71.0755 116.319L71.8501 116.252Z" fill="#D5EEC7"/>
<path d="M75.3274 116.283L76 116.252C75.8736 117.321 75.7789 118.213 75.465 119.069C75.3746 119.207 75.2924 119.21 75.187 119.252C75.1165 119.177 75.0819 119.189 75.0501 119.002C74.9383 118.345 75.0339 117.236 75.1391 116.582C75.1751 116.358 75.2401 116.368 75.3274 116.283Z" fill="#D5EEC7"/>
<path d="M70.6351 120.252C71.1469 120.272 72.6328 120.305 73 120.528L72.9988 120.703C72.9626 120.737 72.8174 120.872 72.792 120.906C72.6967 121.031 72.6588 121.091 72.5271 121.199C72.3737 121.193 72.2369 121.195 72.0852 121.217C71.5149 121.299 70.9607 121.233 70.4183 121.061C70.1798 120.985 70.0949 120.903 70 120.724C70.15 120.463 70.3364 120.41 70.6351 120.252Z" fill="#D5EEC7"/>
<path d="M73.9851 122.314C74.3148 122.264 74.5801 122.226 74.9163 122.275C74.9815 122.878 75.158 123.553 74.6554 124.054C74.5676 124.141 74.5117 124.18 74.4159 124.252C74.1154 124.229 73.8596 124.184 73.5705 124.109C73.2448 123.865 73.0097 123.592 73.0002 123.198C72.9934 122.915 73.1471 122.627 73.3638 122.423C73.5238 122.272 73.7606 122.32 73.9851 122.314Z" fill="#D5EEC7"/>
<path d="M74 121.505C74.3634 121.06 74.693 120.739 75.1538 120.42L75.305 120.314C75.3353 120.293 75.3663 120.272 75.397 120.252C75.5424 120.83 76.1667 122.814 75.9575 123.252C75.6032 123.174 75.2305 123.136 74.872 123.08C74.9241 122.601 75.2936 122.519 75.3616 122.022L75.1764 121.777C74.7774 121.575 74.4359 121.542 74 121.505Z" fill="#D5EEC7"/>
<path d="M104.04 55.2587C104.243 55.2428 104.411 55.2545 104.608 55.3006C104.961 55.3831 105.15 55.4844 105.34 55.7907C105.31 56.0304 105.297 56.1033 105.129 56.2942C104.817 56.6479 104.226 56.6067 103.785 56.6379C102.631 57.704 101.657 58.6577 101.115 60.1483C100.264 62.4887 100.57 66.0348 102.652 67.686C103.368 68.254 105.705 68.8324 106 69.4421C105.968 69.7592 105.841 69.8828 105.633 70.106C104.623 70.3838 103.901 70.2621 102.966 69.7663C101.177 68.8185 99.9777 66.9809 99.3937 65.1067C99.3509 64.9732 99.3114 64.8386 99.2755 64.7031C99.2394 64.5676 99.2069 64.4314 99.1779 64.2943C99.149 64.1571 99.1235 64.0194 99.1015 63.8811C99.0796 63.7427 99.0612 63.6038 99.0463 63.4645C99.0315 63.3253 99.0202 63.1857 99.0124 63.0459C99.0047 62.906 99.0006 62.7661 99 62.6262C98.9996 62.486 99.0027 62.3461 99.0092 62.2062C99.0159 62.0663 99.0261 61.9266 99.0399 61.7872C99.0537 61.6479 99.071 61.509 99.0919 61.3704C99.1127 61.2318 99.1372 61.0939 99.1652 60.9565C99.193 60.8192 99.2244 60.6827 99.2593 60.5469C99.2943 60.4112 99.3327 60.2764 99.3746 60.1425C99.4163 60.0086 99.4616 59.8759 99.5103 59.7443C99.5589 59.6127 99.6108 59.4824 99.6662 59.3533C99.7215 59.2243 99.78 59.0966 99.8418 58.9705C99.9037 58.8444 99.9687 58.7198 100.037 58.5969C100.908 56.9939 102.258 55.7838 104.04 55.2587Z" fill="#151314"/>
<path d="M75 79.252C75.2816 79.3239 75.5312 79.4695 75.7927 79.6009C76.8053 81.698 77.5922 83.9753 78.9573 85.8481C80.6819 88.2137 82.9946 90.4922 85.4221 91.9719C86.1737 92.4301 89.6554 94.1297 89.9554 94.6052C90.0425 94.7431 89.9815 94.8094 89.9445 94.9571C89.7917 95.0649 89.6333 95.1891 89.4499 95.2283C88.0552 95.527 84.0485 92.9188 82.9454 92.019C82.7383 91.8501 82.534 91.6772 82.3324 91.5005C82.131 91.3238 81.9326 91.1432 81.7371 90.9588C81.5417 90.7744 81.3493 90.5864 81.16 90.3948C80.9706 90.203 80.7845 90.0078 80.6017 89.8091C80.4189 89.6103 80.2393 89.408 80.0631 89.2023C79.8869 88.9967 79.7141 88.7877 79.5449 88.5753C79.3755 88.3631 79.2096 88.1477 79.0473 87.9292C78.8852 87.7106 78.7266 87.4889 78.5717 87.2642C78.4168 87.0396 78.2656 86.8121 78.1182 86.5815C77.9707 86.3511 77.8271 86.118 77.6874 85.8821C77.5476 85.6462 77.4118 85.4076 77.28 85.1665C77.148 84.9254 77.0202 84.6818 76.8963 84.4358C76.7724 84.1898 76.6526 83.9416 76.5369 83.691C76.4212 83.4404 76.3097 83.1877 76.2023 82.933C76.095 82.6781 75.9919 82.4213 75.893 82.1625C75.7941 81.9037 75.6994 81.6431 75.6091 81.3807C75.3745 80.687 75.093 79.986 75 79.252Z" fill="#151314"/>
<path d="M58.7881 147.295C59.9602 147.238 64.0254 147.21 65.0057 147.393C65.3555 147.458 65.7921 147.555 66 147.855L65.9426 148.081C65.6339 148.357 65.256 148.488 64.8407 148.542C64.0777 148.642 62.2695 148.493 61.3151 148.513C58.6479 148.567 55.9898 148.726 53.3255 148.855C51.7887 149.049 47.881 149.49 46.508 149.089C46.249 149.013 46.1268 148.955 46 148.726L46.1402 148.497C46.4973 148.271 46.8219 148.154 47.244 148.08C48.3723 147.885 49.602 147.891 50.7483 147.812L58.7881 147.295Z" fill="#151314"/>
<path d="M74.4858 105.252C74.7132 105.265 74.9408 105.281 75.1652 105.32C75.4175 105.365 75.6127 105.434 75.7585 105.655C76.1219 106.203 76.0097 106.919 75.8458 107.511C75.4688 108.87 74.5763 110.263 73.2736 110.936C72.582 111.293 71.8119 111.345 71.0695 111.104C69.7323 110.669 69.0726 109.521 68.4839 108.377C68.1779 107.621 67.8589 106.808 68.0661 105.981C68.0964 105.861 68.1514 105.749 68.2758 105.705C70.2384 105.011 69.7975 108.562 71.5687 109.314C71.9893 109.492 72.4411 109.414 72.8509 109.247C74.9569 108.388 73.7914 106.764 74.4007 105.428C74.4278 105.369 74.4575 105.311 74.4858 105.252Z" fill="#151314"/>
<path d="M72.45 52.2626C72.6517 52.2554 72.8694 52.2418 73.0698 52.2645C73.4939 52.3122 73.7492 52.5865 74 52.8787C73.9895 53.7386 72.1915 54.0712 71.4884 54.4446C71.3433 54.5213 71.203 54.6051 71.0676 54.6958C70.9322 54.7864 70.8025 54.8836 70.6783 54.9874C70.5541 55.0911 70.4363 55.2006 70.3248 55.3161C70.2133 55.4315 70.1088 55.5522 70.0114 55.678C68.929 57.0745 68.3271 59.3875 69.2464 60.9607C69.5393 61.4621 70.2941 62.1558 70.3947 62.6889L70.0049 63.0908L69.8471 63.239C69.4187 63.3039 69.0032 63.1108 68.6055 62.9784C67.9848 62.4428 67.4969 61.5593 67.2552 60.8081C66.7078 59.1084 67.0786 56.9452 68.0081 55.4079C69.0363 53.7071 70.4342 52.7984 72.45 52.2626Z" fill="#151314"/>
<path d="M80 78.252C82.7707 79.5061 84.6348 84.2627 86.5893 86.6157C87.82 88.0974 89.0225 88.7435 90.3608 89.9632C90.8003 90.3637 90.9424 90.5757 91 91.2037C90.1449 91.3831 89.3394 91.0362 88.6008 90.5868C87.5986 89.9768 86.6034 89.1345 85.8426 88.1957C84.6599 86.7359 83.9429 84.8393 82.9592 83.2186C82.1704 81.9187 81.1959 80.7388 80.4459 79.415C80.2331 79.0392 80.1069 78.6765 80 78.252Z" fill="#151314"/>
<path d="M28.8215 148.331C29.3108 148.268 29.8984 148.228 30.3888 148.268C30.6743 148.291 30.8128 148.344 31 148.556C30.9368 148.779 30.8925 148.833 30.7228 148.984C30.3003 149.361 29.6411 149.502 29.096 149.587C27.6783 149.811 26.1519 149.758 24.7169 149.845C21.8519 150.019 18.9695 150.311 16.097 150.241C15.6414 150.213 15.1526 150.244 14.7031 150.179C14.4548 150.144 14.2342 150.018 14.109 149.793C13.9681 149.541 13.9815 149.328 14.0499 149.06C14.3046 148.842 14.432 148.84 14.7693 148.819C15.855 148.755 16.9629 148.84 18.0534 148.809C21.6275 148.706 25.2581 148.594 28.8215 148.331Z" fill="#151314"/>
<path d="M62.7739 49.252C62.9991 49.2652 63.2605 49.264 63.4822 49.3128C63.7262 49.3666 63.8349 49.4695 63.9829 49.6707C63.996 49.8512 64.0299 49.9142 63.9387 50.0794C63.7131 50.4891 63.3098 50.5416 62.9089 50.6564C62.4318 51.508 62.0057 52.3427 61.7622 53.3041C61.4922 54.3704 61.2006 56.782 62.2302 57.4771C62.8163 57.8726 63.4523 57.7675 63.8533 58.5039C63.8668 58.8588 63.8179 58.9398 63.6732 59.2483C63.2225 59.1593 62.862 59.1915 62.4126 59.252C61.8278 58.9331 61.3124 58.6755 60.8741 58.1268C60.0715 57.1224 59.9219 55.7592 60.0319 54.4935C60.2334 52.1792 61.1075 50.73 62.7739 49.252Z" fill="#151314"/>
<path d="M112.526 58.2631C112.755 58.2536 112.998 58.2395 113.226 58.2733C113.528 58.3181 113.818 58.4557 113.997 58.7106C114.029 59.1538 113.79 59.3641 113.488 59.658C111.91 61.1974 110.589 61.6701 110.307 64.201C110.266 64.566 110.379 65.1084 110.208 65.4198C110.185 65.4624 110.157 65.5026 110.131 65.544C110.369 66.9794 111.525 67.4811 111.922 68.6557C111.931 68.6824 111.938 68.71 111.946 68.7371C111.864 68.9 111.787 68.9989 111.671 69.1358C111.435 69.2461 111.294 69.2877 111.035 69.2172C110.444 69.0564 109.968 68.3176 109.702 67.806C108.904 66.2752 108.814 64.4201 109.292 62.7741C109.71 61.3345 111.223 58.9713 112.526 58.2631Z" fill="#151314"/>
<path d="M55.6226 53.252C55.8205 53.2654 55.9479 53.2846 56.1261 53.3804C56.4438 54.0668 55.578 55.4509 55.4156 56.2284C55.1651 57.4277 55.3868 58.2778 55.9556 59.2913C56.4832 59.5763 57.429 59.8721 57.82 60.3115C57.9937 60.5065 57.9905 60.5903 58 60.8405C57.846 61.0957 57.751 61.1408 57.5013 61.252C57.2296 61.2377 56.9616 61.2107 56.6939 61.1553C56.6389 61.1438 56.5841 61.1306 56.5295 61.1159C56.4751 61.1012 56.421 61.0851 56.3673 61.0676C56.3137 61.0498 56.2604 61.0307 56.2076 61.0102C56.1547 60.9895 56.1024 60.9675 56.0506 60.944C55.9989 60.9205 55.9477 60.8955 55.8971 60.8691C55.8466 60.8428 55.7966 60.8151 55.7474 60.7859C55.6982 60.7568 55.6496 60.7264 55.6018 60.6946C55.5539 60.6628 55.5069 60.6296 55.4606 60.5951C55.4144 60.5606 55.369 60.5249 55.3245 60.488C55.28 60.4511 55.2363 60.4129 55.1935 60.3735C55.1507 60.3342 55.109 60.2936 55.0682 60.2519C55.0274 60.2102 54.9876 60.1674 54.9488 60.1235C54.9099 60.0796 54.8722 60.0346 54.8357 59.9886C54.799 59.9426 54.7634 59.8955 54.7289 59.8475C54.6946 59.7996 54.6613 59.7507 54.6292 59.7007C54.5971 59.651 54.5662 59.6003 54.5364 59.5488C53.9418 58.5342 53.8994 57.3131 54.1296 56.1672C54.3309 55.1661 54.8059 53.8257 55.6226 53.252Z" fill="#151314"/>
<path d="M95.0798 55.252C95.3799 55.2695 95.7129 55.2587 95.979 55.3948C96.1335 55.4737 96.112 55.5476 96.1542 55.6877C95.996 56.087 95.8727 56.4452 95.8494 56.8702C95.8375 57.0912 95.8246 57.3127 95.817 57.5339C95.7562 59.3041 96.478 59.4892 97.6558 60.6298C97.8565 60.8243 98.0321 61.0499 97.995 61.3261C97.9384 61.7478 97.6141 61.9914 97.273 62.252C96.7595 62.1742 96.353 61.9743 95.938 61.6966C94.8572 60.9728 94.2047 59.7534 94.038 58.5793C93.8732 57.4188 94.2482 56.1684 95.0798 55.252Z" fill="#151314"/>
<path d="M65.6423 97.252C65.8428 97.2718 65.8696 97.2526 66.0416 97.3776C66.6524 97.8221 66.8969 98.7752 66.971 99.4653C67.0562 100.259 66.9774 101.214 66.408 101.846C66.1002 102.188 65.8435 102.224 65.3843 102.252C64.8313 101.997 64.488 101.66 64.2453 101.114C63.8558 100.236 63.9554 99.1356 64.3665 98.2824C64.6803 97.6311 64.9384 97.4862 65.6423 97.252Z" fill="#151314"/>
<path d="M78.9354 97.252C78.9932 97.2708 79.0529 97.2863 79.1089 97.3086C79.4723 97.4543 79.6315 97.6936 79.7498 97.9893C80.183 99.0697 80.0527 100.724 79.3662 101.729C79.1673 102.019 78.9533 102.151 78.5532 102.252C78.3952 102.21 78.3091 102.191 78.1523 102.129C77.6872 101.944 77.4323 101.578 77.2657 101.204C76.8325 100.231 76.9271 98.9139 77.5635 98.0071C77.9093 97.5147 78.282 97.3953 78.9354 97.252Z" fill="#151314"/>
</svg>
