<svg width="200" height="200" viewBox="0 0 200 200" fill="none" xmlns="http://www.w3.org/2000/svg">
<path d="M56.69 72.0994C56.36 71.1494 55.68 70.4894 54.75 70.1294C54.31 69.9594 53.82 69.9194 53.34 69.9794C55.08 70.1694 55.02 72.9594 53.16 72.9594C51.78 72.9594 51.39 71.4394 51.98 70.5694C51.31 71.1094 50.89 71.9094 50.84 72.7794C50.83 72.9194 50.84 73.0594 50.86 73.2094C50.82 73.4094 50.81 73.6094 50.82 73.8094C50.86 74.7294 51.34 75.6494 52.2 76.0594C52.93 76.4094 53.76 76.4994 54.54 76.2594C55.35 76.0094 56.07 75.4494 56.45 74.6794C56.82 73.8794 56.99 72.9394 56.69 72.0994Z" fill="#151314"/>
<path d="M77.4101 75.3796C77.3001 74.9496 77.0701 74.5796 76.7801 74.2396C76.2901 73.6696 75.5101 73.3796 74.7701 73.3496C74.6201 73.3396 74.4701 73.3496 74.3201 73.3696C76.1501 73.4796 76.1101 76.3596 74.2201 76.3596C72.8401 76.3596 72.4501 74.8296 73.0401 73.9596C72.8801 74.0996 72.7501 74.2296 72.6001 74.4296C72.3601 74.7496 72.2701 75.1396 72.2301 75.5296C72.1901 75.5996 72.1301 75.6596 72.1001 75.7396C71.9301 76.1096 71.8301 76.4696 71.8301 76.8896C71.8301 77.2896 71.9301 77.6696 72.1101 78.0296C72.3001 78.3896 72.6301 78.6996 72.9701 78.9096C73.3501 79.1496 73.7701 79.2496 74.2201 79.2796C74.5601 79.3096 74.9201 79.2596 75.2401 79.1596C75.6901 79.0196 76.0401 78.8096 76.4001 78.5196C76.6701 78.2996 76.9001 78.0096 77.0701 77.7096C77.2401 77.4096 77.3801 77.0796 77.4301 76.7396C77.5101 76.2796 77.5301 75.8496 77.4101 75.3796Z" fill="#151314"/>
<path d="M110.27 82.2095C109.13 82.5795 107.96 82.9295 106.76 83.0095C105.54 83.0895 104.34 82.9595 103.17 82.6195C102.91 82.5395 102.7 82.5995 102.54 82.7195C102.47 82.6695 102.41 82.6295 102.33 82.6095C101.89 82.4895 101.56 82.7595 101.4 83.1395C100.42 85.4895 100.82 88.4095 102.8 90.1295C103.77 90.9695 104.97 91.4895 106.26 91.5295C107.51 91.5695 108.67 91.0695 109.57 90.2195C110.33 89.4995 111.11 88.1395 110.92 87.0095C110.95 86.7695 110.98 86.5395 110.99 86.2995C111.02 85.4695 110.94 84.6395 110.78 83.8295C110.83 83.8095 110.87 83.7895 110.92 83.7695C111.77 83.3195 111.19 81.9095 110.27 82.2095ZM109.58 86.2995C109.57 86.5395 109.54 86.7695 109.51 86.9995C109.47 87.1595 109.43 87.3295 109.36 87.4895C109.28 87.6995 109.16 87.9095 109.03 88.0895C108.74 88.4995 108.37 88.8195 107.96 89.0595C107.07 89.5695 106.11 89.6095 105.13 89.2495C103.09 88.5095 102.29 86.1695 102.73 84.0995C102.74 84.0995 102.75 84.1095 102.76 84.1195C104.85 84.8595 107.31 85.0195 109.48 84.3695C109.57 84.9895 109.62 85.6395 109.58 86.2995Z" fill="#151314"/>
<path d="M93.7099 101.72C92.2299 102.75 90.8899 103.98 89.4799 105.09C87.9499 106.29 86.3899 107.44 84.7899 108.55C81.7099 110.69 78.5199 112.67 75.2399 114.48C74.3199 114.99 75.1399 116.4 76.0699 115.9C79.4099 114.07 82.6499 112.08 85.7799 109.91C87.2799 108.87 88.7499 107.79 90.1999 106.67C91.7199 105.5 93.3299 104.34 94.6499 102.94C95.2299 102.32 94.4599 101.2 93.7099 101.72Z" fill="#151314"/>
<path d="M109.61 59.3298C109.53 58.8198 108.96 58.3298 108.32 58.6098C108.24 58.6398 108.17 58.6798 108.09 58.7098C103.44 58.4498 98.7603 59.4198 94.6303 61.5498C93.6503 59.6598 91.6203 58.0798 89.9103 56.8798C87.9803 55.5198 85.8403 54.4698 83.6203 53.6698C78.3503 51.7598 72.6703 51.3498 67.1203 50.9298C66.9503 50.9198 66.8203 50.9498 66.7003 51.0098C66.6203 51.0098 66.5403 50.9998 66.4703 51.0198C66.3103 50.7098 65.9903 50.4898 65.5503 50.5898C59.3803 51.9398 53.7503 55.1698 49.4503 59.7998C47.7603 61.6198 46.3203 63.6398 45.1103 65.7998C45.0903 65.7898 45.0703 65.7798 45.0503 65.7698C42.2903 65.3298 39.4103 66.7698 38.3003 69.3898C37.7703 70.6498 37.7003 72.0798 38.0603 73.3998C38.2403 74.0498 38.5203 74.6998 38.9103 75.2498C39.2803 75.7798 40.0203 76.4298 40.6803 76.4798C41.0003 76.5098 41.2403 76.2598 41.3203 75.9798C41.1603 76.7698 41.0103 77.5698 40.9003 78.3698C39.9903 84.8398 40.3103 92.3198 45.8303 96.7398C48.3903 98.7898 51.4503 99.9798 54.5503 100.94C58.2003 102.07 61.9403 102.87 65.7203 103.37C68.4403 103.73 71.2303 103.94 74.0303 104C74.0103 104.14 74.0303 104.28 74.1203 104.41C74.1703 104.48 74.2203 104.56 74.2903 104.62C74.3203 104.64 74.5003 104.74 74.5103 104.78C74.5103 104.79 74.4003 104.68 74.4603 104.74C74.4803 104.76 74.5103 104.78 74.5303 104.8C74.5703 104.84 74.6103 104.88 74.6503 104.92C74.6803 104.95 74.7203 104.99 74.7503 105.02C74.7703 105.04 74.7803 105.06 74.8003 105.07C74.8603 105.13 74.7503 105.01 74.7603 105.01C74.8003 105.01 74.9103 105.23 74.9303 105.27C74.9603 105.32 74.9803 105.37 75.0003 105.42C75.0003 105.42 75.0003 105.42 75.0003 105.43C75.0303 105.53 75.0603 105.63 75.0903 105.73C75.1003 105.76 75.1003 105.8 75.1103 105.83C75.1103 105.85 75.1103 105.87 75.1103 105.87C75.1103 105.98 75.1203 106.09 75.1103 106.2C75.1103 106.2 75.1103 106.21 75.1103 106.23C75.1003 106.27 75.1003 106.3 75.0903 106.34C75.0803 106.39 75.0703 106.43 75.0503 106.48C75.0403 106.5 75.0303 106.52 75.0303 106.55C75.0003 106.66 75.0503 106.51 75.0503 106.51C75.0703 106.54 74.9203 106.75 74.9003 106.78C74.9003 106.78 74.8903 106.79 74.8903 106.8C74.8503 106.84 74.8203 106.88 74.7903 106.92C74.7603 106.95 74.7203 106.99 74.6903 107.02C74.6703 107.04 74.6503 107.05 74.6403 107.07C74.5803 107.13 74.6903 107.02 74.6903 107.03C74.6803 107.08 74.4503 107.18 74.4103 107.21C74.4003 107.21 74.3803 107.23 74.3503 107.24C74.3503 107.24 74.3503 107.24 74.3403 107.24C74.3203 107.25 74.2903 107.26 74.2703 107.26C74.1703 107.29 74.0703 107.32 73.9703 107.34C73.9503 107.34 73.9203 107.35 73.9003 107.35C73.8503 107.35 73.8003 107.36 73.7503 107.36C73.6903 107.36 73.6403 107.36 73.5803 107.36C73.5603 107.36 73.5303 107.36 73.5103 107.36C73.4803 107.36 73.4803 107.36 73.4703 107.36C73.3703 107.34 73.2203 107.29 73.2103 107.29C73.1903 107.28 73.1703 107.27 73.1403 107.27C73.0903 107.25 73.0203 107.21 73.0103 107.2C72.6903 107.02 72.2303 107.12 72.0503 107.45C71.8703 107.79 71.9603 108.21 72.3003 108.41C73.3703 109.04 74.7303 108.84 75.6703 108.06C76.6103 107.28 76.8003 105.92 76.3403 104.83C76.2203 104.53 76.0503 104.27 75.8403 104.03C81.1103 104.01 86.4003 103.38 91.3603 101.93C92.8303 101.5 92.2103 99.3698 90.7303 99.6498C83.6903 101.02 76.7503 101.83 69.5703 101.27C63.0603 100.77 56.0203 99.4898 50.1103 96.5798C47.2903 95.1898 44.9103 93.1498 43.7403 90.1598C42.6503 87.3598 42.5503 84.2398 42.7403 81.2698C42.9003 78.7998 43.2903 76.3298 43.9303 73.9298C44.0003 74.1898 44.0703 74.4498 44.1403 74.6998C45.1803 78.2498 47.7203 81.6498 51.6803 81.9298C53.6603 82.0698 55.4703 81.2498 56.9203 79.9798C56.6603 80.5398 56.5703 81.1898 56.6803 81.7998C56.8403 82.7598 57.7003 83.4998 58.6103 83.7298C59.1503 83.8698 60.0003 83.9198 60.4103 83.4598C60.5603 83.3598 60.7003 83.2398 60.7803 83.0798C60.8903 82.8698 60.9003 82.6198 60.7803 82.4098C60.6503 82.1898 60.4503 82.1098 60.2103 82.0798C60.1803 82.0798 60.1603 82.0798 60.1403 82.0798C60.0903 82.0898 60.0303 82.0898 59.9803 82.0998C60.0403 82.0898 60.0003 82.0898 59.9503 82.0998C59.9003 82.0898 59.8503 82.0798 59.7903 82.0798C59.7303 82.0898 59.6703 82.0998 59.6103 82.1098C59.5903 82.1098 59.5203 82.1198 59.5003 82.1198C59.4403 82.1198 59.3903 82.1298 59.3303 82.1298C59.2503 82.1298 59.1703 82.1198 59.0903 82.1198C59.0403 82.1098 58.9903 82.0998 58.9403 82.0798C58.9003 82.0698 58.8503 82.0498 58.8103 82.0398C58.7303 81.9998 58.6503 81.9598 58.5703 81.9098C58.5603 81.8998 58.5603 81.9098 58.5603 81.8998C58.5303 81.8798 58.5103 81.8498 58.4803 81.8298C58.4403 81.7998 58.4103 81.7598 58.3803 81.7198C58.3203 81.6298 58.2703 81.5398 58.2303 81.4498C58.2203 81.4298 58.2103 81.4098 58.2003 81.3898C58.1903 81.3698 58.1903 81.3498 58.1803 81.3298C58.1503 81.2398 58.1303 81.1598 58.1203 81.0698C58.1203 81.0198 58.1103 80.9598 58.1103 80.9098C58.1103 80.8798 58.1403 80.7098 58.1103 80.8398C58.0803 80.9698 58.1203 80.7898 58.1303 80.7698C58.1503 80.6798 58.1903 80.5998 58.2103 80.5098C58.2203 80.4898 58.2203 80.4798 58.2303 80.4598C58.2503 80.4198 58.2703 80.3898 58.2903 80.3498C58.3103 80.3198 58.3503 80.2798 58.3703 80.2398C58.3903 80.2198 58.4003 80.2098 58.4203 80.1898C58.6603 79.9298 58.7003 79.4798 58.4203 79.2298C58.2703 79.0898 58.0803 79.0298 57.8903 79.0498C58.6603 78.1698 59.2803 77.1698 59.7203 76.1398C59.8203 76.1998 59.9303 76.2398 60.0503 76.2198C60.9303 76.1298 61.8203 76.1398 62.7003 76.2398C63.5403 76.3398 64.3603 76.5998 65.2003 76.7798C65.3603 76.8198 65.5203 76.7998 65.6603 76.7398C65.8403 78.1398 66.3403 79.4898 67.2403 80.6798C69.0803 83.1098 72.1403 84.4198 75.1603 83.7798C77.7503 83.2298 79.8203 81.4498 81.2903 79.3198C81.2903 79.3898 81.2903 79.4698 81.2903 79.5398C81.3203 80.0998 81.4103 80.6598 81.5503 81.1998C81.7003 81.7798 81.9303 82.5098 82.4303 82.8598C82.4803 82.8898 82.5203 82.9098 82.5703 82.9298C82.2803 84.5998 82.2203 86.3298 82.4203 88.0698C82.8403 91.5698 84.1703 94.8698 86.8503 97.2298C87.5603 97.8498 88.4703 96.9198 87.8803 96.1998C82.5703 89.8398 83.3303 81.1598 87.9703 74.6798C92.9403 67.7298 101 63.9098 108.56 60.4098C108.67 60.4198 108.79 60.4098 108.9 60.4198C109.54 60.4498 109.78 59.8198 109.61 59.3298ZM41.3603 75.8498C41.3703 75.7698 41.3803 75.6898 41.3503 75.6098C41.2703 75.3298 41.1003 75.1698 40.9303 74.9398C40.7603 74.7098 40.6803 74.4698 40.5203 74.2298C40.2603 73.8298 40.0503 73.4098 39.9203 72.9498C39.6503 72.0198 39.6503 71.0098 40.0203 70.1098C40.6703 68.4998 42.4903 67.3898 44.2403 67.4898C42.9403 70.1398 41.9703 72.9498 41.3603 75.8498ZM65.9403 52.2098C65.9403 52.3498 65.9503 52.4998 65.9603 52.6398C65.9403 52.6698 65.9203 52.6798 65.9003 52.7098C64.5303 55.5198 61.9103 57.4998 59.0803 58.6998C57.4503 59.3898 55.7103 59.8398 53.9803 60.1798C53.1003 60.3598 52.1903 60.4798 51.2903 60.6198C55.2703 56.5298 60.3903 53.5898 65.9403 52.2098ZM58.5303 73.3798C57.9303 76.1198 56.3003 78.8298 53.3703 79.4198C50.4803 79.9998 48.1203 77.9998 46.9403 75.5398C46.2503 74.1198 45.7503 72.3698 45.7703 70.7798C45.7903 69.1098 46.6103 68.1998 47.9603 67.3698C48.3003 67.1598 48.4103 66.8298 48.3503 66.5198C50.7303 65.4098 53.4703 64.8598 55.9203 66.0798C58.7503 67.4698 59.1403 70.5598 58.5303 73.3798ZM66.3303 71.7498C65.8503 72.9098 65.5903 74.1398 65.5703 75.3698C64.7003 74.9998 63.7703 74.8298 62.8303 74.7298C61.9503 74.6298 61.0603 74.6398 60.1803 74.7298C61.1003 71.5398 60.9403 67.6298 58.2103 65.4198C55.0903 62.8898 51.0203 63.5298 47.6903 65.2298C48.2503 64.3398 48.8503 63.4598 49.5203 62.6398C51.1803 62.6598 52.9003 62.3598 54.4903 62.0498C56.4403 61.6698 58.3403 61.1098 60.1403 60.2598C62.5903 59.1098 64.7503 57.3598 66.2103 55.0998C66.8703 58.8698 68.6303 62.4298 71.4003 65.1198C71.6803 65.3998 71.9903 65.6498 72.2903 65.8998C69.6703 67.0698 67.4503 69.0498 66.3303 71.7498ZM82.0603 72.3598C81.9103 73.7398 81.2603 75.1298 80.6403 76.3598C79.5103 78.5998 77.8103 80.7498 75.3403 81.5498C73.1003 82.2698 70.7703 81.5998 69.1703 79.8998C67.4303 78.0598 67.1003 75.3298 67.7403 72.9498C68.4603 70.2598 70.8203 68.2698 73.2903 67.2198C73.4403 67.1498 73.5403 67.0398 73.6003 66.9198C74.8503 67.8098 76.2003 68.5698 77.6303 69.1498C78.7803 69.6198 79.9903 69.9898 81.2203 70.2098C81.3603 70.2298 81.5103 70.2598 81.6703 70.2898C81.7403 70.3898 81.8003 70.4998 81.8403 70.6098C82.0803 71.1598 82.1203 71.7698 82.0603 72.3598ZM82.4203 68.2898C82.2603 68.1998 82.0803 68.1098 81.8903 68.0598C81.7103 68.0098 81.5303 68.0298 81.3703 68.0998C80.4703 67.9098 79.5903 67.6698 78.7303 67.3498C76.6103 66.5598 74.6303 65.3098 72.9903 63.7498C69.9503 60.8398 68.0103 56.8898 67.5603 52.7098C72.6303 53.1398 77.7603 53.5998 82.6003 55.2998C84.6103 56.0098 86.5503 56.9298 88.3203 58.1098C89.2703 58.7398 90.1703 59.4498 91.0003 60.2398C91.7203 60.9298 92.3203 61.7398 93.0103 62.4598C92.3803 62.8498 91.7603 63.2598 91.1603 63.6998C88.4603 65.7098 85.9003 68.3998 84.0703 71.4498C84.0403 71.1198 83.9903 70.7798 83.9003 70.4498C84.2303 70.4098 84.5303 70.3098 84.7603 70.1398C85.1103 69.8798 85.3203 69.2998 84.9103 68.9598C84.2603 68.4398 83.2903 68.3898 82.4203 68.2898ZM89.3803 70.2598C86.5203 73.1898 84.2103 76.7498 83.0703 80.6398C82.9503 80.2298 82.8403 79.7898 82.8003 79.3998C82.7503 78.9198 82.7403 78.4398 82.7903 77.9598C83.8103 75.4598 84.8403 73.0098 86.3803 70.7798C87.9703 68.4798 89.9703 66.4498 92.2603 64.8398C95.8503 62.3198 100.06 60.8198 104.39 60.4198C98.9503 62.9998 93.6303 65.9098 89.3803 70.2598Z" fill="#151314"/>
<path d="M71.3705 109.76C70.9305 110.11 70.3005 110.18 69.8205 109.89C69.4405 109.66 68.7805 109.86 68.7105 110.34C68.5105 111.58 67.0005 112.24 65.9805 111.41C65.5105 111.03 64.9005 111.07 64.5605 111.59C64.2105 112.12 63.1705 112.01 62.8605 111.54C62.4605 110.94 63.0805 110.02 63.7505 110.01C64.9805 109.92 65.0105 108.05 63.7505 108.07C62.8205 108.13 61.8205 107.41 61.8805 106.4C61.9305 105.54 62.8805 104.75 63.7405 104.88C64.2105 104.95 64.6905 104.76 64.8305 104.26C64.9505 103.83 64.6905 103.26 64.2105 103.17C62.2405 102.83 60.2405 104.2 60.0305 106.25C59.9105 107.44 60.5305 108.57 61.4705 109.27C60.7705 110.18 60.5405 111.44 61.2105 112.49C62.1505 113.98 64.0805 114.09 65.4005 113.18C66.2205 113.63 67.1804 113.76 68.0904 113.4C68.9504 113.07 69.6004 112.37 69.9504 111.54C70.8705 111.72 71.8305 111.37 72.4005 110.54C72.8405 109.89 71.9005 109.33 71.3705 109.76Z" fill="#151314"/>
<path d="M67.2801 119.03C67.2901 118.94 67.3001 118.86 67.3201 118.77C67.3601 118.52 67.2501 118.31 67.1001 118.17C67.0101 117.79 66.9201 117.41 66.8301 117.03C66.5701 115.89 66.3001 114.74 66.0401 113.6C65.9301 113.13 65.3901 112.85 64.9301 112.97C64.4201 113.11 64.2201 113.6 64.3001 114.08C64.5001 115.24 64.7001 116.4 64.9001 117.57C65.0001 118.14 65.0801 118.72 65.2001 119.28C65.2601 119.57 65.3201 119.87 65.4101 120.15C65.4701 120.35 65.5601 120.51 65.6701 120.65C64.3701 128.57 62.9801 136.49 61.9401 144.45C58.9301 144.53 56.0001 144.34 53.1101 143.38C50.1601 142.4 47.4801 140.75 45.2601 138.59C45.9401 135.76 46.5101 132.9 47.3101 130.09C48.1901 127.02 49.2101 123.99 50.3401 121C52.6601 114.88 55.5601 108.97 58.9501 103.37C59.1901 102.98 58.9001 102.62 58.5501 102.55C58.4801 102.09 57.9101 101.74 57.5201 102.18C53.5901 106.58 47.6401 109.41 41.7701 107.41C39.1201 106.51 36.8301 104.6 35.7601 101.99C34.7201 99.4495 35.0001 96.8095 35.9201 94.2895C35.9901 94.0895 35.9701 93.9295 35.9001 93.7995C35.9601 93.6195 35.9601 93.4195 35.8201 93.2395C34.9601 92.1095 33.8301 91.2995 32.4801 90.8495C31.8901 90.6595 31.2701 90.5495 30.6501 90.5195C31.0201 90.2495 31.2101 89.7095 30.7901 89.2895C29.7901 88.2595 29.2401 86.5295 29.9301 85.1795C30.1501 84.7395 30.5801 84.2395 31.1101 84.2895C31.4801 84.3195 32.0301 84.6695 31.9701 85.0095C31.7801 86.0695 33.3501 86.5395 33.6101 85.4595C33.6801 85.1795 33.8801 84.0695 34.3601 84.2495C35.1001 84.5195 34.6301 85.8595 34.5001 86.3395C34.3801 86.7695 34.6101 87.2495 35.0301 87.4195C35.4101 87.5695 35.9901 87.4695 36.1701 87.0495C36.3001 86.7595 36.4901 86.6595 36.8101 86.7195C37.0001 86.7595 37.0601 86.7895 37.1701 86.9195C37.3001 87.0795 37.3701 87.3095 37.4001 87.5095C37.5501 88.8795 36.0901 89.3895 35.5101 90.3795C35.1401 90.9995 35.7501 91.5895 36.3701 91.4895C37.3701 91.3295 38.3601 90.2195 38.8101 89.3595C39.2801 88.4595 39.3901 87.3795 38.9901 86.4295C38.5501 85.3795 37.5101 84.8695 36.5201 84.9195C36.5001 84.6695 36.4701 84.4295 36.3901 84.1895C36.1501 83.4695 35.5601 82.8095 34.8201 82.5995C33.9601 82.3595 33.3001 82.6995 32.8201 83.2595C32.5901 83.0595 32.3201 82.8995 32.0101 82.7795C30.9201 82.3495 29.7101 82.7495 28.9601 83.6295C27.2801 85.6295 27.9001 88.6895 29.6301 90.4395C29.6701 90.4795 29.7101 90.4895 29.7401 90.5195C29.1401 90.5795 28.5301 90.7595 28.3401 91.3395C28.2801 91.5195 28.3401 91.7195 28.4501 91.8795C25.6701 96.9495 25.7101 103.13 28.4801 108.24C31.4401 113.69 37.3801 116.77 43.5001 116.71C46.2201 116.68 49.0301 115.99 51.4101 114.62C50.5101 116.51 49.6501 118.41 48.8601 120.36C46.4401 126.39 44.2901 132.94 43.4601 139.41C43.3801 140.06 44.1401 140.32 44.6301 140.07C46.9101 142.21 49.7701 143.94 52.8301 145C52.8201 145.01 52.8101 145.02 52.8101 145.04C51.1901 149.73 50.0001 154.53 49.3001 159.44C48.9701 161.78 48.7201 164.14 48.5901 166.5C48.5401 167.43 48.5001 168.37 48.4801 169.3C48.3301 169.11 48.1801 168.89 48.0301 168.66C47.7401 168.23 47.2301 168.18 46.8501 168.51C46.7101 168.63 46.5701 168.75 46.4201 168.87C46.4201 168.87 46.4201 168.88 46.4101 168.88C46.1301 167.66 45.8501 166.45 45.6401 165.21C45.2101 162.67 44.9801 160.1 44.9001 157.53C44.7401 152.43 45.2401 147.27 46.4701 142.31C46.7001 141.4 45.3301 141.02 45.0701 141.92C43.6001 147.01 42.7901 152.22 42.7801 157.52C42.7801 162.63 43.2701 168.38 45.2701 173.13C45.5101 173.7 46.0201 173.89 46.4701 173.81C46.7301 174.29 47.1501 174.71 47.6401 174.94C48.0301 175.13 48.4301 175.24 48.8601 175.26C49.0701 175.27 49.2901 175.23 49.4901 175.16C49.6901 175.1 49.8301 175.01 49.9901 174.88C50.1301 174.76 50.2101 174.61 50.2701 174.44C50.3201 174.32 50.2901 174.15 50.2401 174.01C50.2801 173.94 50.3201 173.87 50.3501 173.77C50.6701 172.66 50.5101 171.4 50.5201 170.25C50.5301 169.15 50.5401 168.05 50.5801 166.95C50.6701 164.52 50.8601 162.09 51.1701 159.67C51.7801 154.85 52.8201 150.06 54.2201 145.41C56.6901 146.07 59.2501 146.28 61.7201 145.88C61.6501 146.45 61.5701 147.02 61.5101 147.59C61.4101 148.44 62.8601 148.64 63.0101 147.79C64.6501 138.9 65.7501 129.88 66.9801 120.92C67.0401 120.87 67.1001 120.82 67.1301 120.75C67.4901 120.23 67.3901 119.63 67.2801 119.03ZM42.1801 114.64C38.7901 114.41 35.4101 113.08 32.9201 110.73C28.0701 106.14 26.7401 98.1695 29.7501 92.2195C29.9401 92.1995 30.2101 92.1795 30.4101 92.1695C31.0101 92.1595 31.4001 92.2095 31.9801 92.3795C32.9601 92.6595 33.8301 93.2195 34.5201 94.0295C32.8301 96.4595 32.9901 99.7895 34.0701 102.45C35.2501 105.36 37.6201 107.51 40.5201 108.65C46.3101 110.91 52.4401 108.72 56.8001 104.7C55.3101 107.11 53.9301 109.57 52.6401 112.09C52.4501 112.04 52.2501 112.06 52.0601 112.17C48.9901 113.96 45.7601 114.88 42.1801 114.64Z" fill="#151314"/>
<path d="M56.4601 129.869C55.5201 129.539 54.6401 128.959 53.9501 128.229C53.6901 127.949 53.2101 127.959 52.9401 128.229C52.9001 128.269 52.8801 128.309 52.8601 128.359C53.0801 127.619 52.0301 127.029 51.6301 127.779C50.9201 129.109 50.3101 130.499 49.8201 131.929C49.5801 132.639 49.3601 133.359 49.1801 134.079C49.1001 134.419 49.0201 134.759 48.9501 135.099C48.8601 135.539 48.8501 135.909 48.9001 136.349C48.9401 136.649 49.0801 136.909 49.3901 136.989C49.6501 137.059 50.0201 136.949 50.1401 136.679C50.3001 136.319 50.4501 135.999 50.5301 135.609C50.6001 135.239 50.6701 134.869 50.7501 134.509C50.9001 133.829 51.0701 133.149 51.2701 132.479C51.6601 131.159 52.1601 129.879 52.7501 128.639C52.7301 128.849 52.7901 129.059 52.9401 129.229C53.7801 130.169 54.8401 130.859 56.0201 131.309C56.5801 131.519 57.1601 131.659 57.7501 131.739C58.3101 131.809 58.8801 131.849 59.4101 131.669C59.5101 132.839 59.4901 133.969 59.0501 135.069C58.6401 136.099 57.9201 137.069 57.0001 137.679C54.9701 139.039 52.2901 138.979 50.3201 137.549C49.6901 137.089 48.8501 138.159 49.4801 138.639C51.8101 140.449 55.3201 140.799 57.8101 139.059C60.0601 137.489 61.5801 134.189 60.5501 131.499C60.4701 131.279 60.2701 131.149 60.0601 131.119C60.1101 130.819 59.9401 130.479 59.6201 130.379C59.0901 130.219 58.5301 130.269 57.9601 130.219C57.5001 130.169 56.9401 130.039 56.4601 129.869Z" fill="#151314"/>
<path d="M63.2398 87.63C63.1398 87.4 62.8698 87.16 62.5998 87.2C62.1598 87.25 61.7598 87.44 61.3298 87.53C61.2798 87.54 61.2298 87.55 61.1898 87.56C61.1698 87.56 61.1298 87.57 61.1098 87.57C61.0198 87.58 60.9298 87.59 60.8498 87.59C60.6398 87.6 60.4398 87.6 60.2298 87.58C60.1798 87.58 60.1298 87.57 60.0798 87.57C60.0698 87.57 60.0698 87.57 60.0698 87.57C60.0598 87.57 60.0698 87.57 60.0598 87.57C59.9598 87.55 59.8698 87.54 59.7698 87.52C59.5698 87.48 59.3698 87.42 59.1698 87.35C59.1298 87.34 59.0898 87.32 59.0498 87.3C59.0398 87.29 59.0098 87.28 58.9998 87.28C58.9098 87.24 58.8198 87.2 58.7398 87.15C58.5498 87.05 58.3598 86.93 58.1898 86.8C57.9198 86.6 57.4998 86.73 57.3098 86.98C57.1298 87.23 57.0898 87.66 57.3598 87.87C58.1798 88.52 59.1098 88.91 60.1498 89.04C60.6398 89.1 61.1298 89.08 61.6198 89.01C62.1398 88.94 62.7098 88.79 63.0998 88.43C63.2998 88.21 63.3498 87.88 63.2398 87.63Z" fill="#151314"/>
<path d="M99.1298 79.0196C98.5798 77.3296 96.8498 76.2096 95.1298 76.0296C93.4398 75.8396 91.6498 76.6096 90.5898 77.9296C90.3498 78.2296 90.2998 78.6396 90.5898 78.9196C90.8498 79.1796 91.3298 79.2096 91.5798 78.9196C92.3898 77.9996 93.6198 77.4696 94.8498 77.6496C96.0998 77.8296 97.0298 78.6096 97.7798 79.5796C97.9998 79.8696 98.3298 80.0396 98.6998 79.8796C99.0198 79.7396 99.2398 79.3696 99.1298 79.0196Z" fill="#151314"/>
<path d="M121.82 79.0502C121.53 78.6102 121.17 78.2002 120.77 77.8602C119.96 77.1602 118.98 76.5902 117.92 76.3902C115.75 75.9702 113.45 76.7002 111.93 78.3002C111.29 78.9702 112.27 79.9502 112.95 79.3202C114.15 78.1802 115.9 77.7302 117.5 78.2002C118.2 78.4102 118.86 78.7502 119.4 79.2402C119.7 79.5102 119.96 79.8202 120.2 80.1502C120.45 80.4902 120.61 80.9602 120.94 81.2202C121.54 81.7102 122.34 81.3802 122.42 80.6102C122.46 80.0902 122.1 79.4802 121.82 79.0502Z" fill="#151314"/>
<path d="M100.82 70.0902C99.11 68.5402 96.48 68.5002 94.48 69.5002C94.14 69.6702 94.04 70.1502 94.23 70.4602C94.44 70.8102 94.85 70.8702 95.19 70.7102C96.76 69.9802 98.53 70.2902 100.06 71.0702C100.34 71.2102 100.67 71.1702 100.87 70.9102C101.05 70.6702 101.05 70.3002 100.82 70.0902Z" fill="#151314"/>
<path d="M135.67 83.5699C135.65 83.7299 135.76 83.9599 135.88 84.0699C136 84.1799 136.13 84.2399 136.28 84.2599C136.43 84.2799 136.6 84.2599 136.73 84.1799C136.88 84.0799 137.01 83.9399 137.05 83.7599C137.07 83.6999 137.09 83.6399 137.11 83.5799C137.11 83.5699 137.12 83.5699 137.12 83.5599C137.13 83.5499 137.15 83.5399 137.16 83.5199C137.2 83.4699 137.23 83.4199 137.27 83.3699C137.28 83.3599 137.29 83.3499 137.29 83.3299C137.35 83.2499 137.43 83.1899 137.5 83.1199C137.58 83.0699 137.66 83.0099 137.75 82.9699C137.76 82.9699 137.77 82.9599 137.78 82.9599C137.97 82.8999 138.15 82.7699 138.25 82.5999C138.35 82.4299 138.39 82.1799 138.33 81.9899C138.27 81.7999 138.15 81.6099 137.97 81.5199C137.79 81.4199 137.56 81.3699 137.36 81.4399C136.99 81.5599 136.67 81.7499 136.39 82.0099C136.25 82.1299 136.14 82.2799 136.03 82.4299C135.99 82.4799 135.95 82.5399 135.92 82.5899C135.89 82.6399 135.87 82.6899 135.84 82.7499C135.81 82.8199 135.81 82.8899 135.8 82.9499C135.8 82.9399 135.8 82.9299 135.8 82.9199C135.73 83.1299 135.7 83.3499 135.67 83.5699Z" fill="#151314"/>
<path d="M76.0002 120.47C75.9502 120.44 75.9602 120.45 76.0002 120.47V120.47Z" fill="#151314"/>
<path d="M71.9704 121.39C71.2204 120.98 70.2704 120.55 69.8804 119.8C69.7404 119.53 69.7304 119.22 69.8204 119.04C69.8804 118.92 69.8204 119.01 69.9104 118.91C69.9104 118.9 70.1004 118.75 70.0304 118.8C70.1604 118.7 70.0204 118.79 70.1604 118.73C70.1904 118.72 70.2004 118.72 70.2204 118.72C70.3104 118.72 70.3304 118.72 70.2604 118.72C70.2604 118.71 70.2604 118.7 70.2604 118.7C70.3404 118.72 70.4004 118.75 70.4804 118.76C71.4304 118.86 71.6404 117.28 70.7104 117.09C70.6404 117.07 70.5704 117.08 70.5004 117.07C70.5104 117.08 70.5104 117.08 70.5004 117.07H70.4904C70.4904 117.07 70.4904 117.07 70.4904 117.06C70.4904 117.06 70.4904 117.06 70.5004 117.06C70.5004 117.06 70.5004 117.06 70.5004 117.05C70.4904 117.05 70.4904 117.05 70.4804 117.05C70.4504 117.03 70.4204 117.02 70.3904 116.99C70.4404 117.03 70.4404 117.02 70.3904 116.97C70.3804 116.95 70.3404 116.9 70.3204 116.86C70.3104 116.84 70.2704 116.73 70.2704 116.71C70.2504 116.63 70.2604 116.52 70.2804 116.46C70.3504 116.31 70.4304 116.2 70.5704 116.1C71.3304 115.5 72.4604 115.89 73.2804 116.13C74.1204 116.37 74.4504 115.1 73.6404 114.83C72.2104 114.35 70.3204 113.99 69.2104 115.33C68.6704 115.99 68.5904 116.84 68.8804 117.53C68.8004 117.6 68.7104 117.66 68.6304 117.74C68.0704 118.36 67.9104 119.18 68.0904 119.98C68.2604 120.74 68.7604 121.4 69.3904 121.84C70.0704 122.32 70.8304 122.5 71.6404 122.61C72.3104 122.72 72.5104 121.69 71.9704 121.39Z" fill="#151314"/>
<path d="M70.48 117.04C70.55 117.06 70.56 117.06 70.48 117.04V117.04Z" fill="#151314"/>
<path d="M70.5002 117.06C70.5002 117.06 70.4902 117.06 70.4902 117.05C70.4902 117.05 70.4902 117.05 70.5002 117.06Z" fill="#151314"/>
<path d="M83.9902 106.04C84.0102 106.07 84.0202 106.08 83.9902 106.04V106.04Z" fill="#151314"/>
<path d="M86.98 107.71C86.95 107.29 86.84 106.94 86.67 106.55C86.41 105.95 86 105.4 85.52 104.96C84.53 104.05 83.15 103.47 81.79 103.65C81.54 103.68 81.29 103.8 81.12 103.98C80.9 103.79 80.54 103.76 80.29 103.9C79.93 104.11 79.88 104.52 80.03 104.87C80.44 105.81 80.71 106.82 80.84 107.84C80.97 108.93 80.89 109.98 80.8 111.06C80.73 111.92 82.13 112.11 82.3 111.26C82.69 109.34 82.41 107.27 81.76 105.41C81.77 105.41 81.78 105.41 81.78 105.41C81.92 105.39 82.06 105.38 82.21 105.38C82.26 105.38 82.56 105.37 82.57 105.4C82.43 105.38 82.41 105.38 82.51 105.39C82.55 105.4 82.59 105.4 82.63 105.41C82.69 105.42 82.75 105.44 82.81 105.45C82.93 105.48 83.04 105.52 83.16 105.56C83.2 105.57 83.24 105.59 83.27 105.6C83.36 105.64 83.35 105.63 83.22 105.58C83.25 105.57 83.36 105.64 83.38 105.66C83.49 105.71 83.6 105.77 83.7 105.84C83.77 105.88 83.84 105.93 83.9 105.97C83.92 105.98 83.94 106.01 83.97 106.03C83.96 106.02 83.95 106.01 83.92 105.98C84.01 106.07 84.12 106.15 84.22 106.24C84.32 106.33 84.41 106.43 84.5 106.53C84.53 106.56 84.56 106.61 84.6 106.65C84.61 106.67 84.63 106.69 84.64 106.71C84.72 106.82 84.79 106.93 84.85 107.04C84.88 107.09 84.91 107.15 84.94 107.2C84.96 107.24 84.98 107.27 84.99 107.31C85 107.33 85 107.33 85 107.33C85.01 107.36 85.02 107.39 85.03 107.42C85.05 107.48 85.07 107.53 85.09 107.59C85.13 107.72 85.18 107.84 85.22 107.96C85.31 108.23 85.37 108.6 85.53 108.84C85.85 109.31 86.42 109.27 86.74 108.84C86.97 108.57 87 108.05 86.98 107.71Z" fill="#151314"/>
<path d="M147.62 89.8298C146.9 86.9698 143.58 86.6498 141.59 88.4598C140.59 89.3698 139.99 90.5998 139.33 91.7498C138.53 93.1398 137.67 94.4898 136.73 95.7898C133.06 100.9 128.38 105.04 123.18 108.49C123.28 107.88 122.89 107.16 122.67 106.64C122.42 106.06 122.13 105.5 121.81 104.95C121.16 103.83 120.37 102.8 119.47 101.86C119.2 101.57 118.71 101.58 118.43 101.86C118.13 102.16 118.17 102.6 118.43 102.9C119.2 103.77 119.86 104.74 120.41 105.76C120.67 106.25 120.91 106.75 121.1 107.23C121.21 107.52 121.3 107.81 121.41 108.1C121.54 108.46 121.7 108.91 122.06 109.09C122.1 109.11 122.14 109.11 122.19 109.13C122.15 109.16 122.1 109.18 122.06 109.21C122.04 109.21 122.03 109.19 122.02 109.19C120.71 108.92 119.49 109.55 118.77 110.55C118.75 110.38 118.69 110.22 118.56 110.1C117.54 109.18 115.97 109.11 114.9 109.98C114.08 110.65 113.79 111.81 114.05 112.82C113.34 113.39 112.88 114.27 112.88 115.18C112.88 116.3 113.53 117.4 114.49 117.96C115.31 118.44 116.3 118.54 117.21 118.33C118.13 118.12 119.13 117.49 119.45 116.56C119.71 115.81 118.65 115.23 118.13 115.79C118.05 115.88 117.97 115.97 117.9 116.06C117.88 116.09 117.87 116.1 117.86 116.11C117.84 116.13 117.83 116.15 117.81 116.16C117.76 116.21 117.7 116.27 117.65 116.32C117.62 116.34 117.6 116.37 117.57 116.39C117.44 116.49 117.3 116.56 117.16 116.64C117.13 116.65 117.13 116.66 117.12 116.66C117.11 116.66 117.1 116.66 117.07 116.67C117 116.69 116.92 116.72 116.85 116.74C116.78 116.76 116.7 116.77 116.63 116.79C116.6 116.8 116.59 116.8 116.58 116.8C116.57 116.8 116.57 116.8 116.54 116.8C116.39 116.81 116.23 116.82 116.08 116.81C116.05 116.81 115.96 116.8 115.95 116.8C115.89 116.79 115.83 116.78 115.77 116.76C115.7 116.74 115.62 116.72 115.55 116.7C115.51 116.69 115.48 116.68 115.45 116.66C115.45 116.66 115.44 116.66 115.43 116.65C115.36 116.62 115.3 116.58 115.23 116.54C115.21 116.53 115.12 116.47 115.09 116.45C115.07 116.43 114.98 116.35 114.97 116.34C114.91 116.28 114.86 116.22 114.81 116.17C114.61 115.91 114.47 115.57 114.45 115.27C114.43 114.95 114.49 114.7 114.66 114.42C114.83 114.13 115.06 113.95 115.39 113.79C115.76 113.61 115.87 113.06 115.67 112.73C115.55 112.54 115.54 112.5 115.49 112.28C115.47 112.18 115.47 112.17 115.48 112.23C115.48 112.19 115.47 112.14 115.48 112.1C115.48 112.07 115.5 111.83 115.48 111.92C115.49 111.84 115.51 111.75 115.54 111.67C115.58 111.54 115.58 111.54 115.63 111.46C115.71 111.31 115.75 111.25 115.91 111.12C116.31 110.79 117.05 110.8 117.46 111.18C117.7 111.4 118.04 111.45 118.32 111.32C118.09 111.89 118 112.52 118.11 113.16C118.49 115.36 120.59 116.55 122.67 116.75C122.74 120.12 122.64 123.5 122.38 126.85C122.24 128.75 122.08 130.65 121.85 132.55C121.73 133.55 121.59 134.54 121.45 135.53C121.44 135.61 121.42 135.7 121.41 135.78C121.37 135.81 121.32 135.84 121.29 135.88C121.21 135.57 120.96 135.31 120.57 135.34C117.96 135.54 115.38 135.97 112.75 136.08C110.05 136.19 107.35 136.12 104.66 135.9C99.2702 135.47 93.9602 134.36 88.8302 132.65C88.7202 132.61 88.6202 132.6 88.5202 132.62C88.6902 127.24 89.2902 122.01 90.7702 116.81C92.2902 111.46 94.6702 106.41 97.7802 101.8C97.8602 101.69 97.8902 101.58 97.9102 101.47C97.9702 101.48 98.0302 101.5 98.0902 101.52C98.0002 101.63 97.9302 101.76 97.9302 101.94C97.8902 103.37 98.0402 104.8 98.3802 106.19C98.5502 106.87 98.7602 107.55 99.0402 108.2C99.3302 108.87 99.6402 109.59 100.14 110.12C100.54 110.54 101.14 110.28 101.33 109.81C101.71 108.83 102.5 107.87 103.28 107.18C103.71 106.8 104.18 106.49 104.67 106.21C104.45 107.31 104.23 108.41 104.01 109.51C103.9 110.08 103.76 110.65 103.68 111.23C103.6 111.8 103.43 112.43 103.45 113C103.47 113.54 104.3 113.87 104.56 113.3C104.8 112.77 104.9 112.16 105.03 111.6C105.17 111.03 105.26 110.45 105.37 109.88C105.59 108.73 105.81 107.59 106.02 106.44C106.08 106.13 105.95 105.82 105.68 105.66C105.79 105.6 105.91 105.54 106.02 105.48C106.29 106.19 106.56 106.89 106.83 107.6C106.97 107.97 107.11 108.34 107.25 108.72C107.34 108.95 107.43 109.17 107.54 109.39C107.61 109.53 107.67 109.67 107.78 109.78C107.89 109.89 108.01 109.94 108.15 109.98C108.32 110.08 108.51 110.11 108.71 110.02C108.76 110 108.78 109.97 108.82 109.94C108.91 109.94 109 109.94 109.1 109.91C111.09 109.24 112.92 108.19 114.51 106.81C115.28 106.14 115.96 105.36 116.57 104.55C116.88 104.14 117.17 103.71 117.44 103.27C117.74 102.78 118.04 102.3 118.07 101.72C118.09 101.38 117.89 101.16 117.64 101.07C120.9 100.16 124.06 98.8198 127.01 97.0298C130.34 95.0198 133.36 92.5098 135.96 89.6198C136.64 88.8598 135.52 87.7298 134.83 88.4898C129.2 94.6998 121.56 99.0298 113.3 100.52C104.43 102.12 95.0902 100.31 87.3502 95.7598C86.5902 95.3198 85.9202 96.4798 86.6602 96.9298C88.2002 97.8598 89.8002 98.6798 91.4402 99.3798C91.3002 99.5198 91.1702 99.6698 91.0302 99.8098C90.9102 99.9398 90.7802 100.07 90.6702 100.21C90.6102 100.29 90.5502 100.38 90.4902 100.46C90.4702 100.49 90.4502 100.52 90.4302 100.55C90.4002 100.6 90.3802 100.65 90.3602 100.71C90.3402 100.75 90.3202 100.79 90.2902 100.83C90.1402 101.09 90.1702 101.46 90.4002 101.66C90.6302 101.87 90.9602 101.92 91.2302 101.77C91.2702 101.75 91.3102 101.73 91.3402 101.71C91.3902 101.69 91.4502 101.68 91.4902 101.65C91.5202 101.63 91.5502 101.61 91.5802 101.59C91.6402 101.55 91.7002 101.51 91.7602 101.47C91.9402 101.34 92.0902 101.19 92.2402 101.05C92.4602 100.85 92.6802 100.64 92.8902 100.44C93.0002 100.34 93.0602 100.2 93.1002 100.05C94.1702 100.45 95.2702 100.78 96.3702 101.08C96.3002 101.18 96.2302 101.3 96.1602 101.4C96.1002 101.4 96.0502 101.4 95.9902 101.4C95.6702 101.42 95.3402 101.47 95.0202 101.55C94.3902 101.72 93.8202 102.04 93.3302 102.45C93.0602 102.68 93.0802 103.18 93.3302 103.41C93.6202 103.68 93.9902 103.65 94.2902 103.41C94.2802 103.42 94.2802 103.42 94.2702 103.43C94.3002 103.41 94.3202 103.39 94.3502 103.37C94.4002 103.33 94.4602 103.3 94.5102 103.26C94.6202 103.19 94.7302 103.13 94.8502 103.07C94.8802 103.06 94.9102 103.04 94.9302 103.03C94.9802 103.01 95.0302 102.99 95.0802 102.97C95.0902 102.97 95.1002 102.96 95.1102 102.96C93.0902 106.06 91.3402 109.39 89.9602 112.88C89.7502 112.62 89.3902 112.48 89.0402 112.71C88.0402 113.36 87.2502 114.36 86.3302 115.12C85.3702 115.92 84.3402 116.63 83.2602 117.26C81.1202 118.52 78.8502 119.48 76.4302 120.07C76.2002 120.13 76.0602 120.26 75.9902 120.43C75.9802 120.42 75.9702 120.42 75.9602 120.42C75.9702 120.42 75.9802 120.43 75.9902 120.44C75.9402 120.41 75.8802 120.39 75.8302 120.35C75.7902 120.32 75.7502 120.3 75.7102 120.27C75.6902 120.26 75.6702 120.24 75.6402 120.21C75.5902 120.16 75.5402 120.11 75.4902 120.06C75.4902 120.06 75.4402 119.99 75.4102 119.96C75.3802 119.92 75.3402 119.87 75.3402 119.86C75.2902 119.79 75.2502 119.71 75.2102 119.64C75.1802 119.59 75.1602 119.54 75.1302 119.49C75.2202 119.66 75.1102 119.43 75.1002 119.4C75.0802 119.33 75.0602 119.27 75.0502 119.2C75.0502 119.19 75.0402 119.13 75.0302 119.1C75.0202 118.94 75.0102 118.79 75.0202 118.63C75.0302 118.33 75.0802 118.11 75.1802 117.77C75.3702 117.11 75.7202 116.5 76.0502 115.9C76.5202 115.04 75.2602 114.31 74.7402 115.14C73.8302 116.58 72.7902 118.38 73.3502 120.15C73.6102 120.97 74.1702 121.71 74.9202 122.15C75.3002 122.37 75.7302 122.51 76.1702 122.5C76.7502 122.48 77.4602 122.31 77.6202 121.66C77.6502 121.52 77.6602 121.37 77.6202 121.22C78.6002 120.99 79.5702 120.69 80.5302 120.34C80.4002 120.5 80.3402 120.72 80.4102 120.98C81.3702 124.62 82.0602 128.31 82.4902 132.04C82.6902 133.84 82.8302 135.64 82.9102 137.45C82.9702 138.81 82.8802 140.22 82.9502 141.59C81.9402 142.02 80.9802 142.7 80.0602 143.17C78.4702 143.99 76.8402 144.74 75.1502 145.34C71.8002 146.53 68.2002 147.03 64.7202 146.1C63.8302 145.86 63.4702 147.21 64.3402 147.47C67.1302 148.31 70.0602 148.3 72.9002 147.75C72.8002 147.86 72.7402 148.01 72.7602 148.21C73.3202 153.23 73.4002 158.29 73.0102 163.32C72.6102 168.48 71.5402 173.45 70.2702 178.45C70.0302 179.41 71.4502 179.79 71.7502 178.86C74.8902 169.11 75.4302 158.32 74.1202 148.21C74.0802 147.89 73.8602 147.69 73.6102 147.6C74.1102 147.49 74.6102 147.36 75.1002 147.21C76.7902 146.71 78.4302 146.01 80.0202 145.25C80.8902 144.83 81.7502 144.39 82.6102 143.93C82.9102 143.77 83.2202 143.61 83.5302 143.44C83.9902 143.63 84.6502 143.44 84.7502 142.9C84.7802 142.77 84.7802 142.62 84.8002 142.49C84.8202 142.46 84.8502 142.44 84.8702 142.42C85.0802 142.15 85.1002 141.71 84.9102 141.43C84.9802 140.04 84.8402 138.59 84.7602 137.24C84.6502 135.36 84.4702 133.49 84.2302 131.62C83.7402 127.88 82.9402 124.19 81.8902 120.57C81.8002 120.24 81.5602 120.09 81.3002 120.05C82.2602 119.66 83.2002 119.22 84.1002 118.7C85.2202 118.06 86.2702 117.32 87.2802 116.51C87.9102 116.01 88.6402 115.45 89.2302 114.82C87.1502 120.73 86.1202 127 86.5602 133.17C86.6102 133.89 87.2502 134.19 87.7802 134.06C86.5502 137.18 85.5302 140.41 84.8902 143.71C84.2802 146.82 83.6102 150.26 84.0302 153.43C83.9302 153.71 83.9702 154.06 84.2702 154.28C84.4902 154.44 84.7302 154.59 84.9502 154.75C84.8902 154.85 84.8502 154.97 84.8302 155.11C84.1902 160.47 84.2002 165.83 84.9102 171.18C85.2002 173.34 85.4802 175.56 86.3102 177.59C86.9802 179.23 88.1202 181.17 90.0602 181.32C90.4802 181.35 90.8002 181.03 90.9002 180.65C90.9602 180.66 91.0202 180.67 91.0802 180.67C91.2402 180.66 91.4102 180.63 91.5502 180.57C91.6902 180.51 91.8402 180.46 91.9602 180.37C91.9902 180.35 92.0102 180.32 92.0402 180.3C92.7102 180.57 93.6002 180.09 93.3702 179.18C91.6202 172.28 90.7802 165.34 91.7102 158.24C94.9002 159.42 98.2802 160.11 101.7 160.25C104.41 160.36 107.13 160.13 109.79 159.59C109.38 162.8 108.82 165.99 108.19 169.16C107.88 170.72 107.58 172.28 107.24 173.83C107.07 174.61 106.89 175.38 106.71 176.15C106.53 176.9 106.25 177.73 106.57 178.48C106.66 178.68 106.79 178.83 106.94 178.94C106.95 178.99 106.95 179.04 106.97 179.1C107.05 179.43 107.33 179.69 107.65 179.78C107.96 179.86 108.24 179.78 108.49 179.61C108.72 179.61 108.96 179.53 109.17 179.35C110.64 178.11 111.74 176.14 112.7 174.51C113.72 172.79 114.59 170.99 115.36 169.14C116.89 165.42 117.8 161.49 118.15 157.49C118.17 157.24 118.05 157.05 117.88 156.92C118.23 156.73 118.59 156.56 118.92 156.35C119.25 156.48 119.67 156.35 119.84 155.91C119.88 155.8 119.9 155.69 119.94 155.57C120.05 155.41 120.09 155.24 120.09 155.07C120.42 153.84 120.52 152.54 120.66 151.27C120.83 149.66 120.96 148.05 121.04 146.43C121.13 144.75 121.18 143.06 121.19 141.38C121.35 141.36 121.51 141.31 121.62 141.19C121.92 140.86 121.98 140.38 122.09 139.96C122.19 139.58 122.24 139.19 122.3 138.81C122.3 138.79 122.31 138.78 122.31 138.76C122.53 138.71 122.74 138.59 122.89 138.38C123.44 137.6 123.47 136.56 123.6 135.63C123.73 134.66 123.85 133.7 123.95 132.73C124.15 130.84 124.31 128.94 124.37 127.03C124.47 123.57 124.34 120.13 124.06 116.69C127.23 116.3 130.39 114.2 133.06 112.57C135.81 110.89 138.44 108.96 140.71 106.66C142.98 104.36 144.87 101.68 146.13 98.6998C147.23 96.1898 148.32 92.6298 147.62 89.8298ZM116.75 101.36C116.44 101.67 116.24 102.09 116.01 102.46C115.77 102.83 115.51 103.19 115.23 103.54C114.64 104.26 113.99 104.91 113.29 105.52C111.99 106.66 110.47 107.55 108.85 108.14C108.85 108.13 108.84 108.12 108.84 108.11C108.68 107.75 108.52 107.38 108.36 107.02C108.03 106.27 107.7 105.51 107.37 104.75C107.22 104.4 106.73 104.3 106.41 104.44C106.35 104.47 106.29 104.51 106.24 104.55C106.1 104.42 105.91 104.34 105.69 104.39C104.44 104.67 103.31 105.45 102.37 106.3C101.75 106.86 101.24 107.48 100.78 108.15C100.7 107.97 100.62 107.79 100.55 107.61C100.32 107.02 100.09 106.43 99.9102 105.81C99.5502 104.56 99.3602 103.28 99.3402 101.98C99.3402 101.92 99.3202 101.87 99.3102 101.82C105.07 102.95 111.06 102.81 116.75 101.36ZM89.7902 172.64C89.7602 172.64 89.7402 172.62 89.7102 172.62C89.6902 172.62 89.6802 172.63 89.6602 172.63C89.4402 172.25 88.8902 172.04 88.4802 172.18C87.9902 172.34 87.7502 172.72 87.6902 173.22C87.6802 173.34 87.6902 173.46 87.6802 173.58C87.3902 172.17 87.1902 170.74 87.0102 169.32C86.4502 164.85 86.3102 160.3 86.5602 155.8C87.7802 156.54 89.0502 157.19 90.3602 157.75C89.3402 162.58 89.0902 167.7 89.7902 172.64ZM113.54 168.4C112.9 169.85 112.15 171.26 111.34 172.62L111.24 172.37L111.07 172.15C110.97 172.05 110.85 171.98 110.73 171.93C110.72 171.92 110.72 171.9 110.71 171.89C110.59 171.66 110.35 171.5 110.09 171.43C110.21 170.77 110.32 170.1 110.42 169.44C110.91 166.14 111.24 162.84 111.5 159.52C111.51 159.43 111.49 159.37 111.47 159.29C113.16 158.87 114.96 158.31 116.63 157.57C116.08 161.3 115.06 164.96 113.54 168.4ZM119.22 146.3C119.11 147.85 118.97 149.4 118.82 150.95C118.71 152.11 118.52 153.29 118.48 154.46C117.21 155.06 116 155.77 114.69 156.29C113.32 156.83 111.91 157.27 110.48 157.61C107.63 158.29 104.69 158.56 101.76 158.45C96.0102 158.23 90.4102 156.53 85.5402 153.46C85.8402 151.91 85.9002 150.33 86.0502 148.77C86.2102 147.14 86.4502 145.51 86.7602 143.9C87.3702 140.68 88.1502 137.51 89.2302 134.41C89.2402 134.37 89.2402 134.34 89.2502 134.3C94.1702 136 99.2802 137.12 104.47 137.6C107.16 137.85 109.86 137.91 112.56 137.81C114.86 137.73 117.27 137.6 119.57 137.17C119.54 140.21 119.44 143.26 119.22 146.3ZM145.7 92.7798C145.45 95.2898 144.58 97.7398 143.36 99.9398C140.76 104.63 136.62 108.16 132.09 110.94C130.81 111.73 129.49 112.46 128.15 113.16C126.79 113.87 125.35 114.65 123.8 114.87C123.52 114.51 122.92 114.51 122.72 114.91C121.79 114.83 120.84 114.47 120.27 113.73C119.77 113.08 119.76 111.97 120.23 111.28C120.44 111.58 120.84 111.77 121.27 111.57C125.74 109.52 129.67 106.58 133.15 103.12C136.66 99.6198 139.26 95.6598 141.78 91.4298C142.35 90.4698 143.2 89.2098 144.48 89.2798C146.13 89.3598 145.81 91.6498 145.7 92.7798Z" fill="#151314"/>
<path d="M130.7 54.7194C130.27 54.0394 129.49 53.7594 128.71 53.9294C128.53 53.9694 128.36 54.0394 128.21 54.1294C128.25 54.1294 128.29 54.1194 128.34 54.1194C130.27 54.1194 130.27 57.1194 128.34 57.1194C127.35 57.1194 126.87 56.3294 126.9 55.5694C126.81 55.7094 126.71 55.8394 126.64 55.9794C126.49 56.1794 126.35 56.3894 126.26 56.6094C126.04 57.1094 125.96 57.6194 126.09 58.1594C126.2 58.6494 126.49 59.0794 126.88 59.3894C127.83 60.1194 129.14 59.8994 129.98 59.1194C130.78 58.3894 131.03 57.2094 131.05 56.1694C131.05 55.6694 130.97 55.1394 130.7 54.7194Z" fill="#151314"/>
<path d="M149.81 60.6295C149.31 60.2795 148.69 60.2595 148.14 60.4595C149.92 60.6095 149.87 63.4495 147.99 63.4495C146.96 63.4495 146.49 62.5995 146.55 61.8095C146.37 62.0995 146.22 62.4095 146.14 62.7395C146.08 62.8495 146 62.9495 145.94 63.0695C145.68 63.5195 145.45 64.0295 145.49 64.5595C145.52 64.9495 145.65 65.3295 145.94 65.6095C146.25 65.8995 146.66 66.0795 147.08 66.0495C147.29 66.0395 147.48 65.9795 147.67 65.9095C147.73 65.8995 147.8 65.8995 147.86 65.8895C148.85 65.7395 149.72 64.9295 150.23 64.1095C150.53 63.6195 150.73 63.0195 150.73 62.4395C150.74 61.7095 150.4 61.0495 149.81 60.6295Z" fill="#151314"/>
<path d="M137.29 70.9593C137.73 71.0493 138.19 71.0193 138.61 70.8493C138.98 70.6993 139.51 70.3593 139.58 69.9293C139.63 69.7193 139.71 69.4093 139.51 69.2593C139.33 69.1293 139.14 69.2893 138.97 69.3893C138.9 69.4093 138.83 69.4493 138.76 69.4993C138.7 69.5493 138.64 69.6093 138.57 69.6593C138.63 69.6193 138.56 69.6593 138.54 69.6793C138.51 69.6993 138.47 69.7193 138.44 69.7393C138.37 69.7793 138.3 69.8293 138.23 69.8693C138.19 69.8893 138.16 69.9093 138.12 69.9293C138.11 69.9393 138.11 69.9393 138.11 69.9393C138.1 69.9393 138.1 69.9393 138.09 69.9493C138.01 69.9793 137.93 69.9993 137.85 70.0193C137.84 70.0193 137.8 70.0293 137.77 70.0293C137.75 70.0293 137.69 70.0393 137.69 70.0393C137.61 70.0393 137.53 70.0393 137.45 70.0293C137.44 70.0293 137.43 70.0293 137.42 70.0293C137.37 70.0193 137.33 70.0093 137.28 69.9993C137.25 69.9893 137.22 69.9793 137.19 69.9693C137.19 69.9693 137.06 69.9193 137.12 69.9393C136.99 69.8893 136.85 69.8093 136.75 69.7293C136.53 69.5593 136.34 69.3093 136.25 69.0293C136.12 68.6193 135.55 68.7893 135.62 69.1993C135.76 70.0493 136.46 70.7793 137.29 70.9593Z" fill="#151314"/>
<path d="M132.52 102.159C132.71 100.059 133.08 97.9892 133.52 95.9292C133.73 94.9292 133.97 93.9392 134.25 92.9592C134.52 92.0192 134.95 91.0592 135.04 90.0892C135.06 89.9092 134.82 89.8892 134.73 90.0092C134.14 90.7792 133.84 91.8592 133.53 92.7692C133.17 93.7992 132.84 94.8492 132.55 95.9092C132 97.9492 131.69 100.069 131.49 102.179C131.43 102.819 132.46 102.819 132.52 102.159Z" fill="#151314"/>
<path d="M125.97 99.3395C126.39 98.4095 127.06 97.5195 127.27 96.5195C127.31 96.3095 127.09 96.0995 126.89 96.2295C126.01 96.8095 125.5 97.8595 125 98.7695C124.46 99.7595 123.98 100.8 123.59 101.86C122.8 104 122.55 106.33 122.6 108.6C122.62 109.3 123.63 109.29 123.68 108.6C123.82 106.46 124.3 104.38 124.89 102.33C125.19 101.3 125.54 100.3 125.97 99.3395Z" fill="#151314"/>
<path d="M163.99 131.539C163.91 131.029 163.79 130.529 163.62 130.039C163.34 129.259 162.95 128.529 162.47 127.849C162.38 126.739 161.6 125.739 160.51 125.419C159.3 125.069 157.95 125.599 157.28 126.659C157.25 126.699 157.24 126.749 157.23 126.799C156.55 126.739 155.86 126.799 155.18 126.859C154.48 126.919 153.77 126.999 153.07 127.099C151.96 127.259 150.87 127.479 149.78 127.729C149.98 127.349 150.14 126.949 150.3 126.529C150.65 125.599 150.97 124.629 151.17 123.659C151.37 122.649 151.5 121.629 151.57 120.599C151.64 120.369 151.64 120.149 151.61 119.939C151.63 119.389 151.64 118.839 151.63 118.289C151.82 118.129 151.99 117.959 152.14 117.759C152.16 117.739 152.17 117.719 152.19 117.689C152.21 117.659 152.21 117.659 152.19 117.699C152.24 117.649 152.29 117.609 152.32 117.549C152.39 117.449 152.42 117.319 152.45 117.199C152.51 116.979 152.54 116.759 152.57 116.539C152.6 116.259 152.59 115.979 152.56 115.709C152.68 115.629 152.77 115.509 152.74 115.339C152.44 113.079 151.8 110.939 151.26 108.719C150.67 106.339 150.18 103.929 149.75 101.509C148.88 96.6594 148.38 91.7094 148.05 86.7894C148.03 86.5194 147.64 86.5194 147.63 86.7894C147.35 91.6994 147.61 96.5494 148.29 101.419C148.9 105.859 149.63 110.739 151.54 114.839C151.59 115.049 151.63 115.259 151.64 115.479C151.64 115.639 151.63 115.769 151.62 115.899C151.49 115.809 151.32 115.759 151.18 115.819C150.38 116.149 149.93 116.959 149.33 117.569C148.58 118.329 147.68 118.909 146.73 119.389C144.59 120.449 142.18 120.959 139.83 121.209C137.51 121.449 135.15 121.419 132.83 121.139C132.98 119.989 132.75 118.749 132.67 117.619C132.57 116.129 132.47 114.619 132.54 113.129C132.56 112.639 131.76 112.509 131.67 113.009C131.37 114.559 131.1 116.119 131.08 117.709C131.07 118.519 131.09 119.339 131.22 120.129C131.26 120.389 131.31 120.659 131.37 120.929C129.11 120.549 126.9 119.949 124.78 119.109C124.17 118.869 123.73 119.899 124.33 120.179C125.28 120.629 126.25 120.999 127.23 121.339C126.87 121.479 126.57 121.759 126.5 122.189C126.44 122.529 126.41 122.869 126.37 123.209C126.36 123.249 126.34 123.279 126.34 123.319C126.34 123.379 126.33 123.439 126.33 123.489C126.13 125.199 126.09 126.899 126.18 128.619C126.19 129.869 126.22 131.109 126.32 132.349C126.41 133.459 126.56 134.579 126.72 135.689C126.7 135.969 126.66 136.239 126.65 136.519C126.37 140.839 126.02 145.679 127.15 149.939C126.55 149.999 125.97 150.179 125.46 150.489C125.11 150.699 124.76 150.959 124.52 151.299C124.44 151.409 124.37 151.529 124.31 151.649C124.28 151.709 124.25 151.769 124.23 151.829C124.14 152.029 124.09 152.199 124.08 152.409C124.06 152.689 124.21 152.919 124.41 153.069C124.39 153.319 124.44 153.579 124.65 153.739C125.84 154.669 127.21 155.319 128.71 155.569C129.46 155.689 130.21 155.749 130.97 155.669C131.37 155.629 131.77 155.579 132.16 155.449C132.64 155.299 132.96 155.039 133.29 154.659C133.45 154.479 133.52 154.219 133.5 153.969C133.75 154.009 134.02 153.939 134.27 153.739C135.49 152.749 135.91 150.519 136.38 149.089C136.97 147.329 137.53 145.549 138 143.759C138.45 142.069 138.8 140.369 139.12 138.649C139.45 137.589 139.72 136.499 139.93 135.399C140.56 135.839 141.27 136.209 142.11 136.449C145 137.299 148.3 136.259 151.11 135.549C154.13 134.779 157.3 133.959 160.11 132.559C160.18 132.629 160.25 132.699 160.31 132.769C160.49 132.939 160.68 133.109 160.87 133.259C161.13 133.469 161.41 133.619 161.71 133.759C161.93 133.859 162.13 133.919 162.38 133.889C162.52 133.869 162.63 133.829 162.75 133.759C162.77 133.759 162.79 133.759 162.8 133.749C163 133.679 163.15 133.539 163.25 133.369C163.45 133.479 163.69 133.419 163.85 133.209C164.17 132.719 164.08 132.129 163.99 131.539ZM131.68 153.249C131.36 153.299 131.05 153.369 130.73 153.419C130.7 153.429 130.69 153.429 130.67 153.429C130.59 153.439 130.51 153.449 130.43 153.449C130.27 153.459 130.11 153.469 129.95 153.479C129.63 153.499 129.31 153.499 128.99 153.479C128.43 153.449 127.88 153.339 127.27 153.139C126.82 152.989 126.4 152.789 125.99 152.549C126.03 152.519 126.08 152.489 126.12 152.449C126.15 152.419 126.18 152.399 126.22 152.369C126.38 152.249 126.56 152.159 126.74 152.069C126.92 151.999 127.11 151.949 127.31 151.909C127.35 151.909 127.39 151.899 127.43 151.899C127.63 151.889 127.83 151.819 128 151.699C128.39 151.789 128.85 151.539 128.91 151.019C128.95 150.619 128.97 150.219 128.99 149.819C129.11 149.899 129.25 149.949 129.41 149.959C129.5 149.959 129.6 149.969 129.69 149.979C129.72 149.989 129.78 149.989 129.8 149.999C129.99 150.039 130.17 150.089 130.35 150.149C130.38 150.159 130.41 150.169 130.45 150.189C130.54 150.229 130.63 150.269 130.71 150.319C130.77 150.349 130.82 150.389 130.87 150.429C131.06 150.789 131.36 151.039 131.73 151.189C131.94 151.509 132.13 151.839 132.28 152.189C132.35 152.359 132.5 152.479 132.67 152.559C132.65 152.739 132.64 152.919 132.66 153.109C132.67 153.179 132.69 153.239 132.71 153.299C132.36 153.249 132.04 153.189 131.68 153.249ZM162.08 131.629C161.86 131.529 161.64 131.419 161.42 131.299C161.22 131.179 161.03 131.039 160.82 130.939C160.79 130.919 160.79 130.929 160.78 130.929C160.74 130.899 160.7 130.869 160.67 130.829C160.63 130.789 160.59 130.749 160.54 130.709C160.37 130.179 160.15 129.659 159.85 129.189C159.43 128.529 158.9 127.959 158.27 127.489C158.26 127.479 158.24 127.479 158.23 127.469C158.22 127.459 158.21 127.449 158.2 127.449C158.25 127.409 158.31 127.359 158.35 127.299C158.37 127.279 158.4 127.229 158.4 127.229C158.43 127.199 158.45 127.169 158.48 127.139C158.52 127.099 158.56 127.059 158.6 127.029C158.62 127.019 158.64 126.999 158.66 126.979C158.74 126.919 158.82 126.869 158.91 126.819C158.94 126.799 158.98 126.789 159.01 126.769C159.02 126.769 159.09 126.739 159.1 126.739C159.2 126.709 159.31 126.679 159.41 126.659C159.43 126.659 159.42 126.659 159.43 126.649C159.44 126.649 159.43 126.649 159.45 126.649C159.5 126.649 159.56 126.639 159.61 126.639C159.66 126.639 159.72 126.639 159.77 126.639C159.78 126.639 159.83 126.649 159.86 126.649C159.95 126.669 160.03 126.679 160.12 126.709C160.14 126.719 160.19 126.739 160.21 126.739C160.24 126.759 160.28 126.769 160.31 126.789C160.36 126.819 160.4 126.839 160.45 126.879C160.46 126.889 160.49 126.909 160.52 126.929C160.59 126.989 160.66 127.059 160.73 127.129C160.75 127.149 160.78 127.199 160.79 127.209C160.81 127.239 160.83 127.269 160.85 127.299C160.9 127.379 160.94 127.459 160.99 127.529C160.95 127.669 160.96 127.809 161.06 127.949C161.11 128.019 161.14 128.089 161.19 128.159C161.19 128.199 161.2 128.249 161.2 128.289C161.2 128.459 161.28 128.599 161.39 128.719C161.4 128.739 161.4 128.749 161.41 128.769C161.46 128.919 161.59 129.009 161.72 129.029C161.95 129.479 162.15 129.939 162.3 130.429C162.44 130.879 162.55 131.339 162.61 131.799C162.61 131.829 162.62 131.859 162.62 131.889C162.45 131.819 162.27 131.719 162.08 131.629Z" fill="#151314"/>
<path d="M169.38 69.9294C168.43 70.8594 167.9 72.1194 167.2 73.2394C166.45 74.4394 165.66 75.6294 164.8 76.7594C163.06 79.0494 160.97 81.1094 158.49 82.5994C153.6 85.5394 147.43 86.0094 142.1 84.0694C142.31 82.8094 142.07 81.4494 141.44 80.3494C140.6 78.8894 139.1 78.0294 137.44 77.8894C137.14 77.8594 136.83 77.8694 136.54 77.8994C136.61 77.8294 136.67 77.7494 136.71 77.6394C137.46 75.3094 136.05 72.0694 134.91 70.0694C133.57 67.7194 131.66 65.7294 129.49 64.1294C124.23 60.2494 117.53 59.1294 111.23 58.1694C110.94 58.1294 110.71 58.2594 110.56 58.4494C109.99 58.0294 109.03 58.6894 109.47 59.4294C112.49 64.5694 117.48 67.8994 122.21 71.3094C124.61 73.0394 126.95 74.8794 128.96 77.0694C129.96 78.1594 130.86 79.3394 131.6 80.6194C132.42 82.0294 132.84 83.5094 133.39 85.0194C133.67 85.7694 134.96 85.7394 134.89 84.8194C134.8 83.5294 134.38 82.2594 133.8 81.0594C133.84 81.0294 133.88 81.0094 133.91 80.9694C134.65 80.0194 135.74 79.5194 136.88 79.4994C138 79.4794 139.11 79.9194 139.76 80.8094C140.14 81.3294 140.33 81.7994 140.46 82.4094C140.56 82.9094 140.56 83.5294 140.44 84.0294C140.18 85.1394 139.41 86.0294 138.37 86.4294C137.11 86.9194 135.84 86.7394 134.59 86.1594C133.95 85.8594 133.29 86.6094 133.81 87.1694C134.96 88.3794 136.79 88.5494 138.34 88.1394C139.9 87.7194 141.16 86.6394 141.77 85.1594C147.26 87.3394 153.48 87.0594 158.68 84.1894C161.31 82.7394 163.57 80.6494 165.45 78.3194C166.42 77.1094 167.32 75.8494 168.11 74.5194C168.87 73.2394 169.83 71.8594 170.08 70.3694C170.17 69.9494 169.71 69.6094 169.38 69.9294ZM133.02 79.6294C132.53 78.8194 131.98 78.0494 131.43 77.3494C129.55 74.9594 127.23 72.9594 124.82 71.1294C120.11 67.5594 114.78 64.4894 111.38 59.5494C117.04 60.4994 122.92 61.6194 127.79 64.8194C129.98 66.2594 131.9 68.1494 133.28 70.3794C133.96 71.4694 134.5 72.6394 134.85 73.8794C135.21 75.1194 135.13 76.4394 135.49 77.6494C135.54 77.8394 135.66 77.9594 135.8 78.0294C134.74 78.2694 133.77 78.8194 133.02 79.6294Z" fill="#151314"/>
<path d="M134.39 65.6297C134.42 65.7097 134.45 65.7997 134.5 65.8697C134.56 65.9697 134.64 66.0697 134.73 66.1397C134.79 66.1897 134.86 66.2497 134.94 66.2897C135.02 66.3297 135.1 66.3697 135.19 66.3997C135.22 66.4097 135.25 66.4197 135.28 66.4297C135.46 66.4697 135.55 66.4597 135.72 66.4297C135.84 66.4097 135.96 66.3597 136.07 66.2997C136.13 66.2697 136.17 66.2297 136.22 66.1897C136.31 66.1197 136.39 66.0597 136.44 65.9497C136.49 65.8597 136.52 65.7497 136.52 65.6497L136.5 65.4897C136.48 65.4097 136.45 65.3497 136.39 65.2897C136.36 65.2497 136.33 65.2097 136.28 65.1797C136.25 65.1497 136.22 65.1397 136.19 65.1297C136.2 65.0597 136.21 64.9797 136.21 64.9097C136.21 64.8297 136.21 64.7397 136.21 64.6597C136.21 64.4797 136.11 64.2997 135.95 64.2097C135.83 64.1397 135.69 64.1397 135.55 64.1797C135.49 64.1397 135.43 64.1097 135.36 64.0897C135.2 64.0497 135.02 64.0597 134.88 64.1497C134.81 64.1997 134.75 64.2497 134.69 64.2997C134.63 64.3597 134.58 64.4297 134.53 64.4997C134.46 64.5897 134.42 64.7097 134.38 64.8097C134.34 64.9197 134.33 65.0497 134.32 65.1697C134.31 65.2897 134.33 65.4097 134.36 65.5297C134.37 65.5597 134.38 65.5997 134.39 65.6297Z" fill="#151314"/>
<path d="M134.4 45.3295C133.87 44.9995 133.23 45.0595 132.67 45.2995C132.47 45.2995 132.27 45.3095 132.09 45.3695C131.43 45.5895 130.94 46.1295 130.88 46.8295C130.84 47.3995 131.22 47.9595 131.72 48.1995C132.14 48.4095 132.6 48.4895 133.07 48.4695C133.53 48.4495 134.02 48.3695 134.42 48.1295C134.9 47.8495 135.25 47.3295 135.24 46.7495C135.24 46.1795 134.9 45.6395 134.4 45.3295Z" fill="#151314"/>
<path d="M133.7 46.73C133.69 46.73 133.69 46.74 133.68 46.74C133.69 46.73 133.7 46.73 133.7 46.73Z" fill="#151314"/>
<path d="M153.55 51.1598C153.39 50.9698 153.16 50.8598 152.94 50.7698C152.75 50.6898 152.54 50.6998 152.34 50.7198C151.99 50.6598 151.63 50.6598 151.27 50.7198C151.02 50.7598 150.87 51.0598 150.9 51.2898C150.92 51.4498 151.02 51.5798 151.16 51.6598C151.13 51.8198 151.13 51.9898 151.19 52.1498C151.32 52.5198 151.53 52.8598 151.84 53.1098C152 53.2398 152.16 53.3498 152.34 53.4398C152.6 53.5598 152.81 53.6098 153.09 53.6398C153.51 53.6798 153.95 53.5798 154.31 53.3698C154.69 53.1498 154.79 52.6698 154.59 52.2998C154.36 51.8398 153.99 51.4298 153.55 51.1598Z" fill="#151314"/>
<path d="M174.81 41.4396C177.48 37.0496 176.55 30.9696 174.22 26.6496C171.78 22.1196 167.44 18.6996 162.36 17.6996C157.27 16.6996 151.79 17.8996 147.69 21.1096C145.4 22.9096 143.43 25.4296 142.94 28.3696C142.53 30.8096 143.25 33.3996 145 35.1496C144.78 35.1396 144.56 35.1196 144.35 35.1096C138.64 34.8896 132.77 36.1796 127.93 39.2896C123.61 42.0696 120.2 46.1396 118.82 51.0896C117.26 53.2796 116.37 55.8696 116.7 58.6596C116.76 59.1696 117.57 59.1896 117.52 58.6596C117.34 56.5496 117.84 54.6596 118.78 52.9796C119.04 53.1096 119.38 53.0496 119.47 52.6896C119.57 52.2496 119.71 51.8196 119.85 51.3896C122.8 47.6296 127.95 45.0896 132.08 43.6896C138.71 41.4396 146.39 41.6396 152.07 46.0996C153.43 47.1696 154.65 48.4496 155.59 49.8996C156.52 51.3396 157.09 52.9696 158.13 54.3196C158.16 54.3596 158.21 54.3796 158.25 54.4096C158.94 55.9696 159.76 57.4096 160.89 58.7096C161.08 58.9296 161.3 59.1596 161.54 59.3996C161.74 59.6596 161.95 59.9196 162.15 60.1896C163.27 61.6596 163.67 63.3396 163.71 65.1696C163.73 65.9996 163.68 66.8396 163.61 67.6596C163.56 68.3296 163.22 69.2496 163.78 69.7696C163.91 69.8896 164.07 69.8996 164.22 69.8296C164.4 69.7496 164.52 69.6196 164.62 69.4696C164.86 69.4996 165.12 69.3896 165.21 69.0896C165.46 68.2496 165.87 67.4696 166.4 66.7596C166.49 66.6396 166.64 66.4696 166.76 66.3196C166.91 66.1596 167.06 65.9996 167.22 65.8496C167.39 65.6896 167.56 65.5396 167.75 65.3896C167.76 65.3796 167.76 65.3796 167.77 65.3796C167.77 65.3796 167.78 65.3796 167.79 65.3696C167.84 65.3296 167.89 65.2996 167.94 65.2596C167.98 65.2296 168 65.1996 168.03 65.1696C168.22 65.1796 168.41 65.1896 168.59 65.2296C170.06 65.5396 171.35 66.5796 172.07 67.8896C172.71 69.0596 172.84 70.4896 172.16 71.6696C171.84 72.2196 171.4 72.6496 170.88 73.0096C170.61 73.1896 170.37 73.3896 170.08 73.5396C169.92 73.6196 169.76 73.6896 169.6 73.7696C169.45 73.8496 169.33 73.9796 169.18 74.0496C168.88 74.1796 168.88 74.7096 169.18 74.8396C169.51 74.9896 169.73 75.1396 170.11 75.1696C170.5 75.1996 170.91 75.1296 171.29 75.0296C172.04 74.8396 172.71 74.3096 173.21 73.7396C174.26 72.5496 174.77 70.9696 174.57 69.3896C174.21 66.4896 171.69 63.7896 168.73 63.5196C171.22 60.0996 171.95 55.8096 170.85 51.5996C170.18 49.0596 168.91 46.7596 167.24 44.7496C167.86 44.9196 168.51 44.9896 169.15 44.9596C171.57 44.8296 173.57 43.4796 174.81 41.4396Z" fill="#151314"/>
<path d="M121.97 72.1997C121.88 72.0797 121.78 71.9397 121.67 71.8297C121.64 71.7997 121.64 71.7997 121.63 71.7997C121.56 71.7097 121.51 71.6397 121.42 71.5697C121.2 71.3897 120.97 71.2297 120.71 71.0897C119.75 70.5797 118.61 70.4097 117.56 70.7197C117.16 70.8397 116.87 71.2897 117 71.6997C117.13 72.1097 117.55 72.3697 117.98 72.2597C118.08 72.2297 118.18 72.2097 118.28 72.1897C118.28 72.1897 118.28 72.1897 118.29 72.1897C118.34 72.1897 118.38 72.1797 118.43 72.1797C118.53 72.1697 118.63 72.1697 118.73 72.1797C118.78 72.1797 118.82 72.1797 118.87 72.1897C118.88 72.1897 118.89 72.1897 118.9 72.1997C118.89 72.1997 118.89 72.1997 118.87 72.1897C119.06 72.2497 119.27 72.2697 119.46 72.3297C119.5 72.3397 119.55 72.3597 119.59 72.3797C119.6 72.3797 119.6 72.3797 119.6 72.3797C119.69 72.4197 119.78 72.4697 119.87 72.5197C119.95 72.5697 120.03 72.6097 120.11 72.6597C120.16 72.6897 120.2 72.7197 120.25 72.7597C120.25 72.7597 120.25 72.7597 120.26 72.7697C120.34 72.8297 120.41 72.8997 120.49 72.9497C120.52 72.9697 120.53 72.9697 120.53 72.9697C120.6 73.0297 120.67 73.0897 120.73 73.1497C120.79 73.2197 120.85 73.2797 120.91 73.3497C120.92 73.3597 120.91 73.3497 120.92 73.3597C120.92 73.3697 120.92 73.3597 120.93 73.3697C120.96 73.4097 120.98 73.4497 121.01 73.4797C121.13 73.6597 121.24 73.8397 121.35 74.0097C121.5 74.2397 121.8 74.3997 122.08 74.3097C122.34 74.2297 122.57 73.9797 122.56 73.6797C122.54 73.3297 122.46 73.0597 122.31 72.7497C122.22 72.5597 122.11 72.3697 121.97 72.1997Z" fill="#151314"/>
<path d="M70.3399 111.52C69.7499 112.48 69.1599 113.44 68.5699 114.4C68.2799 114.87 68.0099 115.36 67.7399 115.84C67.4399 116.35 67.1199 116.86 66.9099 117.41C66.6799 118.02 67.5999 118.55 68.0199 118.06C68.4099 117.61 68.6799 117.08 68.9899 116.57C69.2699 116.09 69.5699 115.62 69.8399 115.14C70.3899 114.16 70.9399 113.17 71.4899 112.19C71.9099 111.45 70.7899 110.79 70.3399 111.52Z" fill="#151314"/>
<path d="M87.5799 118.41C87.3499 118.07 86.9299 117.94 86.5599 118.14C86.3599 118.25 86.2499 118.42 86.1499 118.61C86.0999 118.71 86.0599 118.8 86.0199 118.9C86.0399 118.86 86.0499 118.83 86.0699 118.79C86.0599 118.82 86.0399 118.85 86.0299 118.88C85.9899 118.97 85.9399 119.06 85.8899 119.15C85.8699 119.19 85.7699 119.31 85.8399 119.25C85.7899 119.31 85.7399 119.37 85.6999 119.43C85.5899 119.61 85.4799 119.79 85.3499 119.97C85.3499 119.97 85.3499 119.97 85.3399 119.98C85.3099 120.02 85.2799 120.05 85.2499 120.09C85.1799 120.17 85.0999 120.26 85.0199 120.34C84.8799 120.49 84.7199 120.62 84.5599 120.75C84.5499 120.75 84.5499 120.76 84.5399 120.76C84.4999 120.79 84.4599 120.82 84.4099 120.85C84.3199 120.91 84.2399 120.96 84.1499 121.01C84.0499 121.07 83.9599 121.12 83.8599 121.17C83.8099 121.19 83.7699 121.21 83.7199 121.24C83.5199 121.32 83.3099 121.39 83.0999 121.44C82.7499 121.52 82.4899 121.85 82.4299 122.19C82.2099 122.02 81.9099 121.94 81.6399 121.99C81.1899 122.07 80.7599 122.41 80.3699 122.65C80.0199 122.86 79.6599 123.06 79.2899 123.22C78.5199 123.54 77.6599 123.76 76.8199 123.83C75.0699 123.98 73.3499 123.61 71.8699 122.67C70.8699 122.04 69.9999 123.58 70.9599 124.24C72.6999 125.43 74.8699 125.99 76.9799 125.85C78.0599 125.78 79.0999 125.54 80.0999 125.13C81.0799 124.72 82.3399 124.13 82.7199 123.07C82.7299 123.05 82.7299 123.03 82.7299 123.01C82.9599 123.23 83.2699 123.34 83.6099 123.25C84.6399 122.99 85.6099 122.43 86.3499 121.66C86.7099 121.29 87.0499 120.86 87.2799 120.4C87.4099 120.14 87.5099 119.84 87.5899 119.56C87.7099 119.2 87.7899 118.73 87.5799 118.41Z" fill="#151314"/>
<path d="M82.5198 144.5C82.4698 143.63 81.1598 143.62 81.1598 144.5C81.1298 150.52 80.3698 156.53 78.7998 162.35C78.0498 165.13 77.1198 167.86 75.9898 170.51C75.7498 170.38 75.5098 170.24 75.2798 170.11C74.7898 169.84 74.3598 170.13 74.2098 170.53C73.8498 170.49 73.4898 170.62 73.3198 170.97C72.1598 173.41 71.2298 175.98 70.6798 178.62C70.5798 179.11 70.7798 179.62 71.2698 179.82C71.6198 179.96 72.0498 179.9 72.3298 179.65C72.6598 179.91 73.1698 179.98 73.4698 179.62C75.3398 177.42 76.5398 174.48 77.6498 171.83C78.8698 168.92 79.8898 165.92 80.6698 162.86C82.2098 156.87 82.8498 150.68 82.5198 144.5Z" fill="#151314"/>
<path d="M75.3998 144.12C76.2498 143.99 77.0498 143.66 77.8098 143.27C78.2898 143.02 78.7798 142.73 79.2098 142.37C79.5898 142.68 80.2098 142.71 80.4398 142.18C82.3298 138.01 81.9398 132.99 79.9698 128.92C79.6098 128.18 78.6498 128.64 78.6298 129.32C78.1898 129.46 77.7698 129.7 77.3298 129.89C76.6598 130.17 75.9598 130.39 75.2598 130.55C73.8198 130.88 72.3398 130.95 70.8698 130.77C70.4298 130.72 70.0498 131.18 70.0498 131.59C70.0498 132.08 70.4298 132.36 70.8698 132.41C72.4798 132.61 74.1198 132.52 75.6998 132.16C76.4498 131.99 77.1898 131.76 77.9098 131.46C78.3198 131.29 78.7698 131.12 79.1598 130.87C80.2398 134.02 80.1198 137.31 79.2398 140.51C79.1498 140.5 79.0598 140.5 78.9698 140.52C78.2798 140.67 77.6498 141.13 77.0298 141.46C76.4398 141.77 75.8298 142.04 75.1798 142.17C74.0898 142.39 73.0698 142.04 72.3198 141.24C70.4098 139.2 70.9298 136.12 71.4398 133.65C71.5998 132.87 70.4398 132.53 70.2298 133.32C69.4298 136.45 68.5998 140.13 71.1198 142.73C72.2598 143.89 73.8198 144.37 75.3998 144.12Z" fill="#151314"/>
<path d="M67.7201 36.0703C68.4501 35.4703 69.2501 34.9703 69.9801 34.3803C70.5401 33.9303 69.8301 33.1403 69.2501 33.4403C68.4001 33.8703 67.61 34.5303 66.88 35.1403C66.16 35.7503 65.4801 36.4003 64.8301 37.0903C63.5301 38.4903 62.4001 40.0503 61.4701 41.7203C61.1201 42.3503 62.08 42.9203 62.4401 42.2903C63.36 40.7003 64.4601 39.2203 65.7301 37.9003C66.3601 37.2503 67.0201 36.6403 67.7201 36.0703Z" fill="#151314"/>
<path d="M74.8401 34.9902C74.6501 34.6502 74.2701 34.6202 73.9501 34.7602C72.9501 35.1802 71.9301 35.6702 71.0501 36.3102C70.1401 36.9602 69.2901 37.7002 68.5201 38.5002C66.9801 40.1002 65.7301 41.9602 64.8601 44.0002C64.6901 44.3902 64.7401 44.8502 65.1401 45.0802C65.4701 45.2702 66.0501 45.1902 66.2201 44.8002C67.8601 40.9502 70.9101 37.8202 74.6101 35.8802C74.9201 35.7102 75.0101 35.2802 74.8401 34.9902Z" fill="#151314"/>
<path d="M105.23 48.2303C105.15 47.9703 104.88 47.8003 104.61 47.8803C104.15 48.0103 103.69 48.1403 103.22 48.2703C102.96 48.3403 102.77 48.6403 102.86 48.9003C102.95 49.1603 103.22 49.3403 103.49 49.2603C103.95 49.1303 104.41 48.9903 104.87 48.8603C105.13 48.7803 105.31 48.4903 105.23 48.2303Z" fill="#151314"/>
<path d="M114.83 31.3003C106.65 30.5403 98.4102 35.5903 94.4202 42.5703C94.0602 43.2003 95.0202 43.7603 95.3902 43.1403C99.5102 36.2803 106.99 32.6803 114.83 32.5003C115.61 32.4903 115.59 31.3703 114.83 31.3003Z" fill="#151314"/>
<path d="M111.66 39.3704C107.95 39.4704 104.31 41.1504 101.58 43.6104C101.03 44.1004 101.84 44.9004 102.39 44.4204C105.01 42.1304 108.24 40.9304 111.67 40.5904C112.42 40.5104 112.45 39.3504 111.66 39.3704Z" fill="#151314"/>
<path d="M171.88 96.9196C171.53 96.7696 171.14 96.9096 170.93 97.2296C170.72 97.5596 170.54 97.8996 170.33 98.2196C170.28 98.2896 170.23 98.3696 170.18 98.4396C170.15 98.4796 170.12 98.5296 170.09 98.5696C170.08 98.5796 170.09 98.5796 170.08 98.5796C170.07 98.5896 170.07 98.5896 170.05 98.6096C170.03 98.6296 169.96 98.7596 169.92 98.7796C169.99 98.6996 170 98.6796 169.96 98.7196C169.94 98.7396 169.93 98.7596 169.91 98.7796C169.85 98.8596 169.79 98.9296 169.72 98.9996C169.47 99.2896 169.2 99.5496 168.91 99.7896C168.88 99.8196 168.84 99.8496 168.81 99.8696C168.8 99.8796 168.81 99.8696 168.8 99.8796C168.73 99.9496 168.64 99.9996 168.55 100.06C168.39 100.17 168.23 100.27 168.06 100.37C167.74 100.55 167.6 101.01 167.81 101.33C168.03 101.67 168.42 101.76 168.77 101.58C169.54 101.2 170.24 100.69 170.85 100.08C171.47 99.4496 172.06 98.6596 172.3 97.7996C172.42 97.4496 172.22 97.0596 171.88 96.9196Z" fill="#151314"/>
<path d="M173.35 87.9596C173.02 88.4296 172.86 89.0696 172.61 89.5896C172.36 90.1296 172.09 90.6696 171.81 91.1996C171.24 92.2896 170.59 93.3396 169.86 94.3396C168.44 96.3096 166.72 98.0596 164.81 99.5596C164.21 100.02 165.01 101.07 165.62 100.62C167.71 99.0796 169.57 97.2796 171.13 95.1996C171.89 94.1896 172.58 93.1296 173.19 92.0196C173.51 91.4396 173.8 90.8396 174.06 90.2296C174.32 89.6196 174.64 88.9896 174.71 88.3296C174.8 87.5296 173.72 87.4196 173.35 87.9596Z" fill="#151314"/>
<path d="M135.62 185.1C128.71 183.86 121.72 183.34 114.73 182.87C107.64 182.39 100.54 182.06 93.4401 181.85C79.2301 181.42 65.0201 181.41 50.8101 181.89C42.7101 182.16 34.6201 182.56 26.5401 183.09C25.7201 183.14 25.7101 184.42 26.5401 184.38C54.8501 182.93 83.2101 183.31 111.51 184.88C119.5 185.32 127.48 186.05 135.48 186.1C136.04 186.1 136.19 185.21 135.62 185.1Z" fill="#151314"/>
</svg>
