<svg width="201" height="200" viewBox="0 0 201 200" fill="none" xmlns="http://www.w3.org/2000/svg">
<path d="M183.6 108.7C182.9 107.2 181.6 108.4 180.8 109.2C178.9 111 176.8 113.4 174.1 113.4C172.3 113.4 172.4 116 174.1 116.2C176.7 116.4 178.8 115.3 180.8 113.7C182.1 112.7 184.5 110.6 183.6 108.7Z" fill="#151314"/>
<path d="M183.9 116.7C180.9 117.9 178.2 119.7 174.9 118.5C173.4 117.9 172.3 120.4 173.8 121.2C176.1 122.3 178.5 122.5 180.9 121.8C182.5 121.3 186.1 119.8 186.4 117.8C186.7 116.3 185 116.3 183.9 116.7Z" fill="#151314"/>
<path d="M181.7 124.6C180.7 123.8 179.6 124.1 178.4 124C177.2 123.9 176.1 123.7 175.1 122.9C173.5 121.6 171.5 123.6 172.8 125.2C174 126.5 175.7 127.5 177.4 127.8C178.9 128 181.5 127.7 181.9 125.9C182.1 125.4 182 124.9 181.7 124.6Z" fill="#151314"/>
<path d="M116.9 111.099C116.7 111.099 116.6 110.999 116.4 110.999C116.2 110.899 116.2 110.899 116.3 110.999C116.2 110.999 116.1 110.899 116.1 110.899C116 110.899 115.7 110.699 115.8 110.699C115.9 110.799 115.8 110.699 115.7 110.599C115.6 110.499 115.5 110.399 115.4 110.399C114.6 109.799 113.3 109.499 112.7 110.499C112.1 111.599 112.9 112.699 113.8 113.399C114.5 113.899 115.3 114.199 116.1 114.399C117 114.599 117.9 114.099 118.1 113.299C118.3 112.299 117.7 111.299 116.9 111.099Z" fill="#151314"/>
<path d="M118.2 106.799C117.3 106.299 116.5 105.699 115.6 105.199C114.8 104.699 113.5 104.199 112.9 105.099C112.3 105.999 113 107.299 113.6 107.999C114.4 108.799 115.4 109.399 116.3 109.999C117.2 110.499 118.3 110.199 118.8 109.299C119.3 108.499 119.1 107.299 118.2 106.799Z" fill="#151314"/>
<path d="M123.2 104.5C122.1 102.7 121.5 100.8 121.2 98.7995C121 97.1995 121.2 95.3995 120.3 93.8995C120.1 93.5995 119.7 93.5995 119.5 93.7995C116.2 96.5995 119.2 102.9 121.2 105.7C122 106.8 123.9 105.8 123.2 104.5Z" fill="#151314"/>
<path d="M119.5 103.899C118.1 102.899 117.6 101.299 116.3 100.299C115.8 99.8994 115.1 99.9994 114.9 100.699C114.2 102.999 116.3 105.099 118 106.399C119.5 107.499 121.1 104.999 119.5 103.899Z" fill="#151314"/>
<path d="M178.101 102.9C176.801 101.7 176.001 103.9 175.601 104.8C174.801 106.9 174.101 108.6 172.501 109.9C173.601 104.6 173.201 98.0997 169.401 96.0997C169.001 95.8997 168.401 96.0997 168.501 96.5997C169.201 101.7 170.801 107.1 168.801 112.2C166.501 117.9 157.801 121.6 151.801 120.3C152.601 118.6 152.101 115.7 151.301 114.4C150.801 113.6 150.101 112.9 149.401 112.2C152.401 112.4 155.401 110.4 156.401 107.6C157.601 104.1 154.801 101 151.701 99.7997C148.601 98.5997 144.101 99.1997 142.001 102.1C140.101 104.7 141.301 108.2 143.201 110.6C142.901 110.7 142.701 110.8 142.401 110.9C142.301 110.9 142.201 111 142.201 111.1C142.001 111.2 141.701 111.3 141.601 111.4C140.801 111.9 140.201 112.7 140.001 113.7V113.8C139.601 113.8 139.201 114.1 139.101 114.6C139.101 114.8 139.201 115 139.301 115C140.101 115.2 140.801 114.8 141.401 115.5C142.001 116.3 141.701 117.3 141.101 118C140.901 117.8 140.701 117.6 140.301 117.5C135.301 116.2 131.201 112.7 129.701 107.6C128.201 102.4 130.401 98.4997 131.901 93.6997C132.101 93.1997 131.501 92.7997 131.101 93.0997C127.601 95.1997 126.001 99.5997 126.001 103.8C125.201 101.5 125.001 99.0997 125.601 96.6997C126.001 94.8997 127.401 92.9997 127.201 91.0997C127.201 90.6997 126.901 90.4997 126.501 90.5997C124.101 90.9997 123.201 94.2997 122.801 96.2997C122.301 99.0997 122.701 102 123.801 104.6C124.201 105.6 125.601 105.6 126.101 104.8C126.201 106.3 126.401 107.8 126.801 109.1C128.601 114.9 133.701 119 139.501 120.5C140.601 120.8 141.401 119.9 141.501 119C141.601 119 141.701 118.9 141.801 118.8C142.901 117.7 143.401 115.9 142.401 114.6C142.301 114.5 142.101 114.3 141.901 114.2C141.901 114.1 142.001 114.1 142.001 114C142.301 113 143.401 112.8 144.101 112.1C144.201 112 144.301 111.8 144.201 111.7C144.301 111.7 144.401 111.7 144.501 111.7C144.701 111.8 144.901 111.8 145.101 111.7C147.201 111.9 149.301 113.5 150.301 115.2C150.901 116.3 151.101 117.5 150.801 118.7C150.501 119.6 149.901 120.3 149.601 121.2C149.601 121.3 149.601 121.5 149.801 121.5C149.901 121.9 150.201 122.2 150.601 122.4C157.101 124.7 166.901 121.5 170.601 115.5C171.001 114.8 171.401 114 171.701 113C172.201 113.4 172.901 113.6 173.601 113.1C175.501 111.9 177.101 110.3 178.101 108.3C178.601 107.1 179.601 104.3 178.101 102.9ZM147.701 109C146.701 109.1 146.201 109.9 146.401 110.7C146.301 110.7 146.101 110.6 146.001 110.6C146.001 110.3 145.901 110 145.601 109.8C144.201 108.6 142.401 106.1 143.001 104.1C143.901 101.3 148.601 101.1 150.801 101.9C152.801 102.6 155.601 104.8 154.801 107.2C153.501 110.1 150.001 108.7 147.701 109Z" fill="#151314"/>
<path d="M145.4 112.3C145.1 112.1 144.6 112 144.2 112.1C143.6 112.3 143.2 112.7 143.2 113.3C143.2 113.3 143.2 113.3 143.2 113.4C143.2 113.6 143.2 113.7 143.2 113.9C143.3 114.2 143.5 114.4 143.7 114.6C144 114.7 144.3 114.8 144.6 114.8C144.9 114.8 145.2 114.7 145.5 114.5C145.7 114.4 145.8 114.3 145.9 114.1C146 113.9 146.1 113.7 146.1 113.5C146.1 113.2 146 113 145.9 112.8C145.8 112.6 145.7 112.4 145.4 112.3Z" fill="#151314"/>
<path d="M170.9 134.501C170.3 133.701 170 132.701 169.7 131.801C169.2 130.301 167.1 130.901 167.3 132.401C167.5 133.701 167.8 135.001 168.5 136.201C169.1 137.201 170.3 138.201 171.6 137.801C172.1 137.601 172.4 137.101 172.3 136.601C172 135.801 171.4 135.201 170.9 134.501Z" fill="#151314"/>
<path d="M177.4 130.3C176.8 129.8 176.1 129.5 175.5 129.1C174.9 128.8 174.5 128.4 174.3 127.8C173.7 125.9 171.2 126.7 171.5 128.6C171.7 129.9 172.6 131.2 173.7 131.9C174.9 132.6 176.6 132.8 177.5 131.6C177.7 131.3 177.8 130.7 177.4 130.3Z" fill="#151314"/>
<path d="M166.4 135.9C166.1 135 165.9 134.2 165.9 133.2C165.9 131.8 163.6 131.4 163.3 132.9C163 134.9 162.9 138.8 165.6 139.2C166 139.2 166.4 139 166.6 138.6C167.1 137.6 166.7 136.8 166.4 135.9Z" fill="#151314"/>
<path d="M159.301 135.301C158.801 136.801 158.601 138.801 159.401 140.101C160.001 141.101 161.701 140.701 161.601 139.501C161.601 138.901 161.401 138.301 161.401 137.701C161.401 137.101 161.501 136.501 161.701 135.901C162.201 134.401 159.801 133.801 159.301 135.301Z" fill="#151314"/>
<path d="M157.8 136.9C157.9 135.5 155.5 135.2 155.3 136.6C154.9 139 154.5 142.1 156.5 144C156.8 144.3 157.3 144.2 157.5 143.7C158.2 141.5 157.5 139.1 157.8 136.9Z" fill="#151314"/>
<path d="M151.4 151.1C150.7 150.9 150 150.8 149.4 150.9C150.3 148.8 149.4 146.2 149.1 144C148.8 141.5 148.2 138.8 148.5 136.3C148.5 135.9 148.2 135.7 147.9 135.7C148.6 133.5 149.1 131.3 149.6 129.5C149.8 128.7 148.6 128.4 148.4 129.2C147.5 132.6 146.3 135.8 144.7 138.9C143.7 140.9 142.3 142.9 141.4 145C140.8 144.9 140.2 145.1 140.1 145.9C139.5 150 138.1 155.4 139.9 159.3C140.1 159.6 140.6 159.6 140.7 159.3C141.5 157.7 141.6 155.9 141.8 154.1C142 151.6 142.2 149.1 142.5 146.6C142.5 146.3 142.5 146 142.4 145.8C143.1 145.1 143.7 144.3 144.3 143.5C145.1 145.8 145.6 148 146.2 150.4C146.3 150.7 146.4 151.2 146.5 151.7C145.8 152.1 145.1 152.8 144.7 153.5C144.1 154.6 143.8 156.4 144.7 157.4C144.9 157.6 145.3 157.7 145.6 157.6C147 157.1 147.2 154.9 148.7 154.6C149.4 154.4 149.8 154 149.9 153.5C151.1 153.8 152.4 155.6 153.5 155.6C153.9 155.6 154.4 155.3 154.5 154.9C154.8 153.1 152.9 151.6 151.4 151.1ZM146.4 142.4C146.2 141.9 145.8 141.7 145.4 141.6C146 140.5 146.5 139.3 147 138.1C146.9 139.9 147.1 141.7 147.2 143.5C147.2 143.8 147.2 144 147.2 144.3C146.9 143.5 146.5 142.7 146.4 142.4Z" fill="#151314"/>
<path d="M150.7 138.5C149.9 140 148.8 142.6 150 144.2C150.2 144.5 150.5 144.5 150.7 144.2C151.1 143.6 151.3 142.7 151.5 142C151.7 141.1 152 140.3 152.4 139.5C153 138.4 151.3 137.4 150.7 138.5Z" fill="#151314"/>
<path d="M113.6 107.5C108.9 121.2 104.1 134.9 99.4999 148.7C97.3999 155 95.2999 161.2 93.3999 167.5C91.7999 173.1 89.1999 180 89.9999 185.8C90.0999 186.3 90.5999 186.4 90.7999 185.9C93.1999 180.2 93.2999 173 94.8999 167C96.5999 160.6 98.8999 154.4 101 148.1C105.4 134.6 109.7 121.1 114.1 107.6C114.1 107.3 113.7 107.2 113.6 107.5Z" fill="#151314"/>
<path d="M119.3 117.801C118.3 117.401 117.4 116.801 116.5 116.201C115.7 115.701 114.8 114.901 113.8 115.001C113.5 115.001 113.4 115.201 113.3 115.401C112.9 116.601 114 117.901 114.8 118.601C115.8 119.601 117.2 120.201 118.6 120.601C120.4 121.401 121.1 118.501 119.3 117.801Z" fill="#151314"/>
<path d="M127.6 124.501C127.5 123.701 126.5 123.201 125.8 123.301C125 123.401 124.4 124.101 124.4 124.901C124.4 125.301 124.2 125.801 124 126.101C123.7 126.601 123.3 127.101 123.2 127.801C123 128.401 123.1 129.001 123.7 129.401C124.5 129.901 125.5 129.601 126.2 129.001C127.5 127.901 127.8 126.101 127.6 124.501Z" fill="#151314"/>
<path d="M123.4 122.8C122.6 122.4 121.8 122.7 121.3 123.3C120.7 124.1 119.6 124.5 119.1 125.4C118.8 125.9 118.9 126.7 119.5 126.9C121.3 127.7 123 126.2 124 124.8C124.5 124.2 124.1 123.2 123.4 122.8Z" fill="#151314"/>
<path d="M121 123.1C121.1 122.1 120.4 121.4 119.5 121.3C118.1 121.2 116.9 120.8 115.6 121.1C115.1 121.2 114.7 121.9 115.1 122.4C116 123.8 117.6 124.1 119.2 124.3C120 124.5 120.9 124.2 121 123.1Z" fill="#151314"/>
<path d="M139.3 151.1C139.3 150.5 138.8 150.2 138.3 150.3C138.5 149.1 136.7 148.6 136.3 149.9C135.4 152.8 134.5 155.8 133.9 158.8C133.6 160.4 132.8 162.5 134.2 163.8C134.4 164 134.8 164 135 163.8C136.2 162.5 136.2 160.2 136.6 158.5C136.7 157.8 136.9 157.1 137 156.4C136.9 158.6 137.1 160.9 138.1 162.6C138.3 163 138.8 162.9 139 162.5C140.4 159.2 139.3 154.6 139.3 151.1Z" fill="#151314"/>
<path d="M142.2 137.9C141.9 139.3 141.5 140.6 141 141.9C141 142 141.1 142.1 141.2 142C141.8 140.7 142.3 139.4 142.6 138.1C142.7 137.8 142.3 137.6 142.2 137.9Z" fill="#151314"/>
<path d="M140.4 132C139.9 135 139.2 138 139 141.1C139 141.3 139.3 141.4 139.4 141.2C140.4 138.3 140.8 135.3 141.3 132.3C141.3 131.7 140.5 131.5 140.4 132Z" fill="#151314"/>
<path d="M138.8 128.4C138 133.8 136.6 139.7 136.8 145.2C136.8 145.5 137.3 145.6 137.4 145.3C139.1 140.1 139.2 134.2 140 128.8C140.1 128 138.9 127.7 138.8 128.4Z" fill="#151314"/>
<path d="M135.9 147C135.7 147.3 135.6 147.6 135.4 148C135.9 146.8 136.3 145.7 136.7 144.5C136.8 144.1 136.8 143.8 136.6 143.6C135.9 136.7 136.6 130.7 138.8 124C139 123.3 138 123.1 137.8 123.7C137.1 125.7 136.4 127.8 135.9 130C135.2 129.3 133.8 129.3 133.4 130.6C133.2 131.4 132.9 132.1 132.5 132.8C132.1 133.6 131.8 134.3 131.6 135.1C131.4 135.8 132.1 136.6 132.8 136.3C133.7 135.9 134.4 135.5 134.9 134.7C134.6 137.6 134.7 140.4 135.7 143.1C135.2 143.1 134.7 143.3 134.5 143.9C133.3 146.8 131.7 149.4 130.2 152.1C129 154.1 127.5 156 127.3 158.4C127.3 158.9 127.8 159.1 128.1 158.9C130.3 157.8 131.6 155.3 132.8 153.2C132.1 154.9 131.7 156.7 131.8 158.3C131.8 158.6 132.2 158.8 132.4 158.5C133.5 157.2 134.1 155.4 134.6 153.7C135.4 151.6 136 149.5 136.8 147.4C137.1 146.9 136.1 146.5 135.9 147Z" fill="#151314"/>
<path d="M133.6 138.099C132.3 139.499 130.9 140.799 129.5 142.099C129.7 141.799 130 141.499 130.2 141.199C131.8 139.099 133.3 136.899 134.5 134.499C134.8 133.899 133.9 133.399 133.6 133.999C132.2 136.299 130.5 138.399 128.7 140.399C127.9 141.299 126.8 142.199 126 143.299C125.8 143.199 125.7 143.099 125.4 142.999C122.8 141.999 119.1 142.299 117.2 144.699C117.1 144.899 117.1 145.099 117.4 145.099C119.7 145.199 121.9 145.199 124 146.199C124.3 146.299 124.6 146.399 124.9 146.399L125 146.499C125 146.499 125 146.499 125 146.599V146.699C124.9 146.899 125.1 147.199 125.4 147.199H125.5C125.9 147.899 126.1 148.599 126.3 149.399C126.4 150.299 126.3 151.199 126.7 151.999C126.8 152.199 127 152.299 127.2 152.199C128.6 151.799 128.9 150.099 128.8 148.899C128.7 147.899 128.4 146.999 127.9 146.099C128.6 145.599 129.3 144.899 129.9 144.299C131.6 142.799 133.2 141.099 134.8 139.399C135.6 138.499 134.4 137.299 133.6 138.099Z" fill="#151314"/>
<path d="M129.4 134.1C131.6 134.2 132.4 130.8 132.5 129.1C132.6 128 130.7 127.7 130.5 128.8C130.4 129.6 130.1 130.4 129.6 131.1C129.1 131.8 128.6 132.3 128.6 133.2C128.6 133.7 129 134.1 129.4 134.1Z" fill="#151314"/>
<path d="M104.3 22.3003C102.6 21.9003 100.4 22.5003 98.7999 23.2003C98.2999 23.4003 98.4999 24.3003 98.9999 24.1003C100.1 23.7003 101.2 23.4003 102.3 23.3003C102.7 23.3003 103.1 23.2003 103.5 23.3003C104.5 23.4003 104.9 24.0003 105.3 24.8003C105.4 24.9003 105.5 24.9003 105.6 24.8003C106.5 23.6003 105.3 22.6003 104.3 22.3003Z" fill="#151314"/>
<path d="M98.4001 24.2999C98.5001 23.8999 97.9001 23.6999 97.8001 24.0999C97.4001 26.6999 97.0001 29.2999 97.3001 31.8999C97.6001 34.3999 98.6001 36.6999 99.6001 38.9999C99.7001 39.1999 100 39.1999 100 38.9999C100.1 36.8999 98.9001 35.2999 98.4001 33.2999C97.6001 30.2999 98.0001 27.1999 98.4001 24.2999Z" fill="#151314"/>
<path d="M116.4 27.4008C115.5 30.2008 114.4 33.0008 112.9 35.5008C111.3 37.9008 108.8 39.6008 106.7 41.6008C106.1 42.1008 107 42.9008 107.5 42.4008C109.7 40.5008 112.3 38.6008 113.8 36.0008C115.3 33.4008 116.2 30.4008 117 27.5008C117.1 27.2008 116.5 27.0008 116.4 27.4008Z" fill="#151314"/>
<path d="M100 21.2007C99.8003 21.3007 100 21.7007 100.2 21.6007C102.1 20.8007 104.5 20.0007 106.1 21.8007C106.2 21.9007 106.4 21.8007 106.3 21.7007C104.8 19.4007 101.9 20.3007 100 21.2007Z" fill="#151314"/>
<path d="M106.5 32.2006C105.7 32.0006 104.9 31.8006 104.2 31.4006C103.9 31.3006 103.6 31.7006 103.9 31.9006C104.6 32.2006 105.4 32.5006 106.2 32.7006C106.8 32.9006 107.7 33.1006 108.3 32.9006C108.4 32.9006 108.4 32.7006 108.3 32.6006C107.8 32.4006 107.1 32.4006 106.5 32.2006Z" fill="#151314"/>
<path d="M84.7002 30C83.8002 30.2 84.2002 31.5 85.1002 31.4C87.0002 31 88.9002 30.9 90.7002 31.3C92.0002 31.6 93.2002 32.3 94.6002 32.6C94.9002 32.7 95.2002 32.3 95.0002 32C93.3002 28.5 87.8002 29.2 84.7002 30Z" fill="#151314"/>
<path d="M95.5003 17.7004C95.6003 17.7004 95.7003 17.6004 95.7003 17.5004C95.6003 16.9004 95.3003 16.7004 94.8003 16.4004C94.3003 16.1004 93.8003 15.8004 93.2003 15.6004C92.5003 15.3004 92.1003 16.6004 92.9003 16.8004C93.4003 17.0004 93.9003 17.2004 94.3003 17.4004C94.7003 17.6004 95.0003 17.8004 95.5003 17.7004Z" fill="#151314"/>
<path d="M118.401 23.2002C116.201 16.4002 103.401 14.6002 98.4005 19.2002C98.0005 18.3002 97.4005 17.5002 96.3005 17.5002C95.0005 17.5002 94.5005 19.1002 94.4005 20.1002C94.2005 22.2002 94.6005 24.8002 94.9005 27.0002C95.0005 27.9002 95.2005 28.6002 96.3005 28.5002C96.4005 28.5002 96.5005 28.3002 96.5005 28.2002C96.5005 28.1002 96.5005 28.0002 96.5005 27.9002C96.5005 27.8002 96.4005 27.8002 96.4005 27.8002C95.1005 28.2002 95.6005 23.5002 95.6005 22.9002C95.6005 22.3002 95.6005 21.6002 95.7005 21.0002C95.5005 20.2002 95.9005 19.7002 96.8005 19.7002C97.0005 20.1002 97.1005 20.5002 97.2005 20.9002C97.5005 21.9002 98.9005 21.5002 98.8005 20.6002C98.8005 20.6002 98.8005 20.6002 98.9005 20.6002C103.701 15.4002 114.901 17.7002 118.001 23.7002C117.901 23.7002 117.901 23.8002 117.801 23.8002C117.101 24.4002 118.101 25.4002 118.801 24.8002C120.001 23.8002 119.501 26.6002 119.501 26.6002C119.401 27.1002 119.101 27.7002 119.001 28.2002C118.901 28.4002 117.501 32.1002 116.801 31.6002C116.701 31.5002 116.501 31.6002 116.501 31.7002C116.501 31.8002 116.501 31.8002 116.501 31.9002C116.501 32.1002 116.501 32.3002 116.701 32.3002C117.701 32.5002 117.901 31.5002 118.301 30.8002C119.301 29.3002 120.501 27.9002 121.101 26.2002C121.601 24.3002 120.001 22.4002 118.401 23.2002Z" fill="#151314"/>
<path d="M107.1 28.0001C106.8 28.0001 106.6 27.9001 106.3 27.7001C105.7 27.3001 105.1 28.3001 105.7 28.7001C106.1 28.9001 106.6 29.0001 107 29.0001C107.7 29.0001 107.7 28.1001 107.1 28.0001Z" fill="#151314"/>
<path d="M110.3 22.3003C111.4 22.0003 112.5 22.1003 113.5 22.6003C114.4 23.1003 114.7 24.0003 115.5 24.4003C115.6 24.5003 115.8 24.4003 115.8 24.2003C115.9 23.1003 114.5 22.2003 113.6 21.8003C112.5 21.3003 111.2 21.2003 110.1 21.6003C109.8 21.9003 109.9 22.5003 110.3 22.3003Z" fill="#151314"/>
<path d="M117.2 26.6999C116.6 25.3999 114.7 23.7999 113.3 23.3999C111.7 22.8999 110.1 23.4999 108.9 24.5999C108.5 24.9999 109.1 25.5999 109.5 25.1999C109.9 24.7999 110.4 24.4999 110.8 24.3999C110.3 24.7999 110.3 25.4999 110.7 25.9999C110.5 25.8999 110.4 25.7999 110.2 25.7999C109.7 25.4999 109.3 26.2999 109.8 26.4999C110.9 27.1999 113.2 28.2999 114.4 27.3999C114.5 27.2999 114.5 27.1999 114.4 27.1999C113.8 26.7999 113.1 26.8999 112.5 26.6999C112.3 26.6999 112.1 26.5999 111.9 26.4999C112.3 26.4999 112.7 26.2999 113 25.8999C113.4 25.3999 113.3 24.7999 113 24.2999C113.6 24.4999 114.2 24.7999 114.7 25.2999C115.4 25.9999 116 26.8999 117.1 26.8999C117.2 26.9999 117.2 26.7999 117.2 26.6999Z" fill="#151314"/>
<path d="M104.2 23.1001C104.2 23.0001 104.3 23.1001 104.2 23.1001V23.1001Z" fill="#151314"/>
<path d="M104.8 25.2002C104.2 25.2002 103.6 25.2002 103.1 25.1002C103.4 25.1002 103.6 24.9002 103.8 24.8002C104 24.7002 104.2 24.6002 104.4 24.3002C104.6 24.0002 104.6 23.7002 104.4 23.4002C104.3 23.3002 104.3 23.2002 104.2 23.1002C104.1 23.0002 104.1 22.9002 104 22.9002C103.5 22.5002 102.7 22.8002 102.4 23.3002C101.6 23.4002 101.5 24.5002 102.1 25.0002C102.1 25.0002 102.2 25.0002 102.2 25.1002C101.5 25.0002 100.8 24.7002 100.1 24.3002C99.7002 24.1002 99.4002 24.7002 99.8002 24.9002C101.3 25.8002 103.2 26.3002 104.8 25.6002C105 25.4002 105 25.2002 104.8 25.2002Z" fill="#151314"/>
<path d="M102.4 43.5003C101.9 43.6003 102 44.4003 102.5 44.4003C102.8 44.4003 103 44.4003 103.2 44.5003C103.5 44.6003 103.8 44.6003 103.9 44.3003C104 44.0003 103.9 43.7003 103.6 43.6003C103.2 43.4003 102.8 43.4003 102.4 43.5003Z" fill="#151314"/>
<path d="M103.3 40.701C103.7 40.801 104.1 40.901 104.5 41.001C104.9 41.101 105.3 40.901 105.3 40.501C105.4 40.101 105 39.801 104.7 39.801C104.3 39.801 103.9 39.701 103.5 39.701C102.8 39.501 102.7 40.601 103.3 40.701Z" fill="#151314"/>
<path d="M106.6 39.0005C105.8 40.8005 104.6 42.8005 103.7 45.0005C103.3 44.7005 102.7 44.6005 102.3 44.6005C102.2 44.6005 102 44.6005 101.9 44.7005C102 44.0005 102.2 43.2005 102.3 42.5005H102.4C102.7 42.5005 103.1 42.6005 103.4 42.8005C103.8 43.0005 104.3 42.9005 104.5 42.4005C104.7 42.0005 104.4 41.5005 104 41.4005C103.5 41.2005 103 41.2005 102.5 41.2005C102.7 39.7005 102.9 38.2005 103.2 36.7005C103.3 36.3005 102.7 36.2005 102.7 36.6005C102 39.9005 101.1 43.4005 100.6 46.8005C99.1001 41.4005 95.9 36.0005 91.2 33.2005C90.6 32.8005 90.1 33.8005 90.7 34.1005C96.3 37.8005 97.3001 43.6005 99.9001 49.3005C100 49.5005 100.2 49.6005 100.4 49.6005C100.4 49.8005 100.7 49.8005 100.7 49.6005C100.7 49.6005 100.7 49.6005 100.7 49.5005C100.9 49.7005 101.2 49.8005 101.4 49.7005C101.5 49.7005 101.5 49.7005 101.6 49.7005C101.7 49.7005 101.7 49.7005 101.6 49.7005C101.7 49.7005 101.7 49.7005 101.8 49.7005C101.7 49.7005 101.7 49.7005 101.8 49.7005L101.9 49.8005C102.1 49.9005 102.3 49.9005 102.5 49.9005C102.5 50.0005 102.5 50.1005 102.5 50.2005C102.4 50.2005 102.4 50.1005 102.3 50.1005C102 50.1005 101.8 50.2005 101.5 50.2005C101.2 50.2005 101 50.2005 100.7 50.1005C100.3 49.9005 100 50.6005 100.4 50.8005C101 51.1005 102 51.3005 102.5 50.8005C102.6 50.7005 102.6 50.7005 102.7 50.6005C102.8 50.6005 102.8 50.5005 102.9 50.5005C104.4 46.8005 105.6 42.9005 107 39.2005C107 39.0005 106.7 38.8005 106.6 39.0005ZM102.6 48.3005C102.2 48.0005 101.5 48.0005 101 48.1005C101.1 47.9005 101.1 47.7005 101.2 47.5005C101.4 47.6005 101.6 47.7005 101.8 47.7005H101.9C101.8 47.7005 102.1 47.8005 102 47.7005C102.2 47.8005 102.3 47.9005 102.6 47.9005C102.7 48.1005 102.6 48.2005 102.6 48.3005ZM103 46.7005C102.8 46.6005 102.6 46.5005 102.5 46.5005C102.2 46.4005 101.8 46.4005 101.5 46.5005C101.6 46.3005 101.6 46.0005 101.6 45.8005C101.7 46.0005 101.9 46.1005 102.2 46.1005H102.3H102.4C102.5 46.1005 102.6 46.2005 102.8 46.2005C102.9 46.2005 103 46.2005 103.1 46.2005C103.1 46.4005 103 46.6005 103 46.7005Z" fill="#151314"/>
<path d="M105.4 38.3001C105.2 38.2001 105 38.2001 104.9 38.1001C104.5 38.0001 104.3 38.6001 104.7 38.7001C104.9 38.7001 105 38.8001 105.2 38.9001C105.4 39.0001 105.5 39.1001 105.7 39.0001C105.8 39.0001 105.8 38.8001 105.8 38.7001C105.8 38.4001 105.6 38.3001 105.4 38.3001Z" fill="#151314"/>
<path d="M101.1 69.0003C100.9 68.6003 100.2 68.9003 100.4 69.3003C100.8 70.5003 101.1 71.7003 101.4 73.0003C101.5 73.3003 101.6 73.7003 101.8 74.0003C100 74.1003 98.1 75.3003 96.4 76.0003C95.9 74.1003 94.8 72.2003 93.9 70.5003C93.9 70.4003 93.8 70.4003 93.7 70.3003C95 70.1003 96.2 70.0003 97.4 69.7003C98.2 69.5003 99.1 69.3003 99.9 69.0003C100 69.0003 100.1 69.0003 100.2 69.0003C100.3 69.0003 100.4 68.9003 100.4 68.8003C100.6 68.7003 100.8 68.6003 101 68.5003C101.1 68.4003 101.1 68.2003 100.9 68.2003C100.7 68.2003 100.6 68.2003 100.4 68.2003C100.2 67.2003 99 66.4003 98.3 65.7003C97.8 65.2003 97.3 64.8003 96.8 64.8003C96.1 63.3003 94.7 62.1003 93.7 61.0003C93.1 60.4003 92.2 61.3003 92.7 62.0003C93.4 62.8003 94.1 63.7003 94.7 64.6003C94.9 64.9003 95.1 65.2003 95.4 65.5003C94.9 66.1003 94.4 66.7003 93.8 67.3003C93.5 67.6003 93 68.0003 92.6 68.3003C92.6 68.3003 92.6 68.2003 92.5 68.2003C91.2 67.3003 89.2 67.1003 87.7 66.7003C87.4 66.6003 87.2 67.1003 87.6 67.2003C89.1 67.7003 90.9 68.5003 92.5 68.5003C92.3 68.7003 92 68.9003 91.9 69.2003C91.3 70.0003 92.1 70.9003 92.7 71.5003C93 71.8003 93.3 71.8003 93.6 71.6003C94.3 73.5003 94.8 75.4003 95.5 77.2003C95.6 77.5003 96.1 77.6003 96.4 77.4003C97.4 76.7003 98.4 76.1003 99.5 75.6003C100.4 75.2003 101.4 74.9003 102.2 74.2003C102.3 74.2003 102.5 74.2003 102.6 74.1003C102.8 74.0003 102.9 73.8003 102.9 73.6003C102.7 72.0003 101.9 70.4003 101.1 69.0003ZM93.5 70.3003C92.6 69.7003 93 69.7003 93.6 69.1003C93.9 68.8003 94.3 68.5003 94.6 68.1003C95 67.7003 95.6 66.7003 96.2 66.4003C96.3 66.5003 96.4 66.5003 96.5 66.6003C96.7 66.7003 97 66.6003 97 66.4003C97.5 66.8003 98.2 68.0003 98.6 68.4003L98.7 68.5003C98.3 68.6003 97.8 68.7003 97.4 68.8003C96.1 69.1003 94.8 69.4003 93.5 69.6003C93.3 69.8003 93.3 70.3003 93.5 70.3003Z" fill="#151314"/>
<path d="M123.1 45.2006C124.2 44.9006 125.2 45.0006 126 45.7006C125.2 44.5006 124.2 44.5006 123.1 45.2006Z" fill="#151314"/>
<path d="M126 45.7002C126.3 46.1002 126.5 46.5002 126.7 47.2002C126.7 47.3002 126.9 47.3002 126.9 47.2002C126.7 46.4002 126.4 46.0002 126 45.7002Z" fill="#151314"/>
<path d="M94.6 42.5004C93.9 42.3004 93.2 42.1004 92.5 42.0004C92.3 41.9004 92.2 42.3004 92.4 42.3004C93.1 42.4004 93.8 42.6004 94.5 42.7004C94.7 42.7004 94.7 42.5004 94.6 42.5004Z" fill="#151314"/>
<path d="M94.3001 46.0008C93.8001 45.7008 93.1001 45.6008 92.5001 45.4008C91.6001 45.1008 91.2001 46.6008 92.1001 46.8008C92.7001 46.9008 93.4001 47.1008 94.0001 47.1008C94.5001 47.1008 94.8001 46.3008 94.3001 46.0008Z" fill="#151314"/>
<path d="M92.8001 49.3008C92.7001 49.3008 92.7001 49.4008 92.8001 49.3008V49.3008Z" fill="#151314"/>
<path d="M121.1 46.3005C119.3 47.8005 118.4 50.0005 117.4 52.1005C116 54.9005 113.5 62.8005 108.9 59.8005C109.8 55.9005 110.4 51.8005 111.1 47.8005C114.8 46.3005 120.2 46.1005 122.2 42.3005C123.5 39.8005 123.3 37.0005 120.4 36.0005C116.1 34.5005 113 40.3005 110.2 42.5005C109.7 42.9005 110.2 43.8005 110.8 43.6005C110.6 44.8005 110.4 46.0005 110.2 47.3005C109.9 47.4005 109.7 47.5005 109.4 47.7005C107 49.0005 104.5 50.7005 102.2 52.5005C102.1 52.2005 101.9 51.8005 101.8 51.5005C101.6 51.1005 101 51.4005 101.1 51.8005C101.2 52.2005 101.4 52.6005 101.5 53.1005C98.2002 55.7005 95.1002 58.6005 92.5002 61.6005C92.2002 62.0005 92.7002 62.5005 93.1002 62.2005C95.7002 59.3005 98.7002 56.6005 101.8 54.1005C102.9 57.4005 103.9 60.8005 105.1 64.0005C103.2 64.8005 101.4 66.3005 100.7 67.9005C100.6 68.1005 100.9 68.3005 101 68.1005C102 66.4005 103.6 65.4005 105.4 64.9005V65.0005C105.6 65.4005 106.1 65.2005 106 64.8005V64.7005C107.4 64.4005 108.5 64.3005 109.9 64.7005C110.8 65.0005 111 65.1005 111.3 65.2005C111.2 65.2005 111.1 65.3005 111 65.3005C110.8 65.4005 110.8 65.6005 110.9 65.7005C111 65.9005 111.2 65.9005 111.3 65.8005L111.9 65.6005C112.1 65.5005 112.3 65.5005 112.4 65.3005C112.5 65.2005 112.4 65.0005 112.3 64.9005C112.3 64.9005 112.3 64.9005 112.3 64.8005C110.7 63.0005 108.3 62.9005 105.9 63.7005C105.2 60.2005 104 56.8005 102.6 53.5005C105 51.7005 107.4 50.0005 109.9 48.6005H110C109.3 52.3005 108.6 56.0005 108.1 59.7005C107.9 59.8005 107.7 60.1005 107.9 60.3005C107.9 60.3005 108 60.3005 108 60.4005C108 60.6005 108.2 60.7005 108.4 60.7005C110.3 62.2005 112.4 62.6005 114.1 60.4005C115.6 58.6005 116.4 55.9005 117.4 53.8005C117.9 52.7005 118.4 51.6005 118.9 50.5005C119.3 49.7005 121.1 46.6005 123 45.5005C122.4 45.4005 121.7 45.8005 121.1 46.3005ZM112.1 42.8005C114.6 41.1005 117.4 37.4005 120 37.7005C120.3 42.2005 118.8 44.7005 115.6 45.2005C114.8 45.4005 114.1 45.6005 113.3 45.8005C112.7 46.0005 112 46.2005 111.4 46.5005C111.6 45.3005 111.8 44.1005 112.1 42.8005Z" fill="#151314"/>
<path d="M111.1 67.3C111.6 66.4 111 65.3 109.9 65C109.4 64.9 109.3 65.6 109.7 65.7C109.8 66.1 110 66.5 110.1 66.9C109.8 67.1 109.7 67.6 110.1 67.8C110.3 68.1 110.3 68.4 110.1 68.7C110 68.9 110.1 69.1 110.2 69.2C110.3 69.3 110.3 69.9 110.3 70.1C110.3 70.5 110.5 70.3 110.3 70.7C110.2 70.9 110.2 71.1 110.2 71.3C108 72.1 105.6 72.7 103.2 72.7C102.7 72.7 102.7 73.5 103.2 73.5C105.9 73.6 108.4 73.2 110.9 72.1C111.1 72 111.2 71.8 111.2 71.6C111.4 71.5 111.6 71.4 111.7 71.1C112 70.3 111.8 69.2 111.2 68.5C111.4 68.2 111.4 67.7 111.1 67.3Z" fill="#151314"/>
<path d="M98.7001 17.3C99.0001 17.6 99.7001 17.4 99.7001 16.9C99.5001 14.9 97.2001 13.3 95.4001 12.7C94.7001 12.5 94.4001 13.6 95.1001 13.8C95.9001 14.1 96.7001 14.6 97.3001 15.2C97.9001 15.9 98.2001 16.7 98.7001 17.3Z" fill="#151314"/>
<path d="M121.8 27.5994C122.6 27.1994 123.5 27.1994 124.3 27.4994C125 27.6994 125.6 28.0994 126.3 27.7994C126.4 27.7994 126.5 27.6994 126.6 27.4994C126.8 26.2994 125.6 25.7994 124.6 25.6994C123.4 25.4994 122.2 25.7994 121.2 26.3994C120.5 26.8994 121.1 27.8994 121.8 27.5994Z" fill="#151314"/>
<path d="M123.4 32.5995C124.4 32.8995 125.3 33.4995 126.4 33.1995C126.6 33.0995 126.7 32.8995 126.7 32.6995C126 30.2995 121.4 30.2995 119.4 30.4995C118.4 30.5995 118.3 32.1995 119.4 32.0995C120.8 32.0995 122.1 32.1995 123.4 32.5995Z" fill="#151314"/>
<path d="M124.5 36.6C125.1 36.8 125.6 37.1 126.2 37C126.4 37 126.4 36.8 126.4 36.7C126.1 35.2 123.5 35 122.4 35C121.6 35 121.6 36.3 122.4 36.3C123.1 36.2 123.8 36.3 124.5 36.6Z" fill="#151314"/>
<path d="M124.4 41.4999C124.9 41.7999 125.2 41.8999 125.8 41.7999C125.9 41.7999 126 41.5999 126 41.4999C125.9 40.7999 125.6 40.5999 125 40.2999C124.4 39.9999 123.8 39.7999 123.2 39.5999C122.4 39.3999 122 40.7 122.9 40.9C123.4 41 123.9 41.1999 124.4 41.4999Z" fill="#151314"/>
<path d="M113.1 44.7001C113.9 44.9001 114.8 45.3 115.6 45.3C115.7 45.3 115.8 45.1 115.7 45.1C115.1 44.5 114.1 44.3 113.3 44.1C112.9 43.8 112.7 44.5001 113.1 44.7001Z" fill="#151314"/>
<path d="M112.9 49.3999C113.6 49.5999 114.2 49.7999 114.8 50.0999C115.4 50.3999 115.8 50.6999 116.4 50.6999C116.6 50.6999 116.7 50.5999 116.6 50.3999C116 49.1999 114.3 48.7999 113.1 48.4999C112.6 48.3999 112.3 49.2999 112.9 49.3999Z" fill="#151314"/>
<path d="M112 53.4999C112.5 53.7999 112.9 53.9999 113.4 54.2999C113.6 54.3999 113.8 54.5998 114 54.5998C114.2 54.6998 114.4 54.6999 114.6 54.6999C114.7 54.6999 114.8 54.4999 114.7 54.4999C114.4 54.0999 114.1 53.8999 113.7 53.6999C113.2 53.3999 112.8 53.1999 112.3 52.8999C111.9 52.5999 111.6 53.2999 112 53.4999Z" fill="#151314"/>
<path d="M122.2 73.2999C117.9 74.4999 114.6 77.1999 109.9 76.1999C109.2 75.9999 108.9 77.0999 109.6 77.2999C114 78.2999 119.1 76.7999 122.4 73.7999C122.6 73.4999 122.4 73.1999 122.2 73.2999Z" fill="#151314"/>
<path d="M119.6 68.3998C120.6 67.8998 121.6 67.1998 122.2 66.2998C122.3 66.0998 122.1 65.9998 121.9 66.0998C121 66.7998 120.2 67.3998 119.2 67.8998C119 67.9998 119.3 68.5998 119.6 68.3998Z" fill="#151314"/>
<path d="M119.9 64.9998C120.5 64.5998 121.1 64.0998 121.7 63.5998C122.3 63.0998 122.8 62.7998 123 62.0998C123.1 61.8998 122.9 61.7998 122.7 61.7998C122 61.9998 121.7 62.2998 121.1 62.7998C120.5 63.2998 119.9 63.6998 119.3 64.0998C118.8 64.4998 119.4 65.3998 119.9 64.9998Z" fill="#151314"/>
<path d="M97.7999 80.7994C96.2999 80.5994 94.7999 80.3994 93.2999 80.1994C92.6999 80.0994 92.3999 81.0994 92.9999 81.0994C94.5999 81.2994 96.1999 81.5994 97.7999 81.7994C98.9999 81.9994 100.3 82.3994 101.6 82.0994C101.9 81.9994 101.9 81.5994 101.7 81.4994C100.5 80.9994 99.0999 80.9994 97.7999 80.7994Z" fill="#151314"/>
<path d="M127.5 24.2996C126.3 17.8996 122.2 12.5996 116.6 9.39963C116.2 9.19963 115.8 9.79963 116.2 9.99963C125.7 15.5996 127.2 23.8996 127 32.8996C126.5 32.1996 125.5 31.8996 124.7 31.5996C123.7 31.2996 122.7 31.0996 121.7 31.0996C121.2 31.0996 120.7 31.0996 120.3 31.1996C120.2 31.1996 120 31.2996 119.9 31.2996C119.6 30.8996 119.1 30.6996 118.7 30.9996C118.5 31.0996 118.4 31.1996 118.2 31.2996C118 31.3996 117.9 31.5996 117.8 31.7996C117.7 31.8996 117.6 31.8996 117.6 31.9996H117.5C117.5 31.9996 117.4 31.8996 117.3 31.8996C116.6 31.4996 115.8 31.6996 115.3 32.2996C114.8 32.8996 114.6 33.8996 114.3 34.6996C114.3 34.6996 114.3 34.6996 114.3 34.7996C113.1 34.8996 113.4 36.7996 114.5 36.3996C115.8 35.9996 117.3 36.4996 118.7 36.3996C119.3 36.3996 119.9 36.2996 120.5 36.0996C121.3 36.0996 122 36.0996 122.7 36.1996C123.3 36.2996 123.8 35.9996 123.9 35.4996C124.3 35.4996 124.7 35.3996 125.1 35.5996C125.5 35.7996 125.7 35.9996 125.7 36.4996C125.7 37.1996 126.5 37.2996 126.8 36.7996C126.7 38.2996 126.6 39.6996 126.5 41.1996C126.3 40.8996 125.9 40.6996 125.6 40.5996C124.9 40.3996 124.1 40.1996 123.4 39.9996C122.9 39.8996 122.3 40.1996 122.1 40.6996C122 41.0996 122.1 41.4996 122.4 41.6996C122.3 41.6996 122.2 41.6996 122 41.6996C121.9 41.6996 121.8 41.6996 121.7 41.6996C121.2 41.7996 121 42.1996 121 42.6996C120.9 42.7996 120.7 42.9996 120.6 43.0996C120.4 43.3996 120.1 43.5996 119.9 43.7996C119.9 43.7996 119.9 43.7996 119.8 43.8996C119.7 43.9996 119.6 43.9996 119.5 44.0996C119.5 44.0996 119.4 44.0996 119.4 44.1996C118.5 43.7996 117.8 44.9996 118.6 45.5996C118.8 45.6996 119 45.7996 119.2 45.7996C119.4 45.7996 119.5 45.8996 119.6 45.8996C119.6 45.8996 119.6 45.8996 119.6 45.9996C119.8 46.3996 120.4 46.6996 120.8 46.4996C121.6 46.1996 122.3 45.8996 123.1 45.5996C123.2 45.5996 123.3 45.4996 123.4 45.4996H123.6C123.7 45.4996 123.8 45.4996 123.8 45.4996C123.9 45.4996 124 45.4996 124.1 45.4996C124.2 45.4996 124.3 45.4996 124.3 45.4996H124.4C124.6 45.4996 124.8 45.5996 125 45.5996C125.1 45.5996 125.3 45.5996 125.4 45.5996C125.4 45.5996 125.4 45.5996 125.4 45.6996C125.4 45.7996 125.5 45.7996 125.5 45.7996C125.5 45.7996 125.6 45.8996 125.7 45.8996C125.8 45.8996 125.8 45.8996 125.9 45.8996C125.9 46.5996 125.8 47.3996 125.8 48.0996C123.2 51.8996 121.4 56.4996 117.3 58.8996C110.9 62.5996 103.5 60.4996 96.6997 59.2996C96.4997 59.2996 96.3997 59.5996 96.5997 59.6996C102.8 60.9996 110.5 63.7996 116.7 60.8996C120.9 58.9996 123.5 54.9996 125.4 50.7996C124.8 60.1996 124.1 69.5996 122.6 78.8996C121.1 88.5996 117.7 97.3996 113.7 106.3C113.6 106.5 113.8 106.6 113.9 106.4C124 89.9996 124.7 68.4996 125.7 49.7996C125.8 49.6996 125.8 49.4996 125.9 49.3996C126.1 49.5996 126.5 49.4996 126.5 49.1996C126.6 48.5996 126.6 47.8996 126.7 47.2996C126.7 47.1996 126.7 47.1996 126.8 47.0996V46.9996C127.1 42.9996 127.1 38.8996 127.3 34.7996C127.8 31.5996 128.1 27.8996 127.5 24.2996Z" fill="#151314"/>
<path d="M113.1 3.20006C112.6 3.00006 112.1 3.40006 112.1 3.90006C109.1 6.90006 110.1 11.5001 108.3 15.2001C107.9 15.9001 109.1 16.6001 109.4 15.8001C110.1 14.1001 110.2 12.2001 110.4 10.2001C110.4 10.3001 110.5 10.3001 110.5 10.3001C111.1 10.5001 111.7 10.6001 112.3 10.8001C112.4 10.8001 112.6 10.9001 112.7 10.9001C112.9 10.9001 113 10.9001 113.2 11.0001C113.4 11.0001 113.5 11.1001 113.7 11.1001C113.8 11.1001 114 11.2001 114.1 11.1001C114.2 11.1001 114.2 11.0001 114.2 10.9001C114.1 10.8001 114 10.7001 113.9 10.7001C113.8 10.6001 113.6 10.6001 113.5 10.5001C113.2 10.4001 112.9 10.2001 112.6 10.1001C112 10.0001 111.4 9.90006 110.8 9.80006C110.7 9.80006 110.6 9.80006 110.5 9.90006C110.7 7.80006 111 5.70006 112.3 4.10006C112.4 4.20006 112.4 4.30006 112.6 4.30006C115.3 5.50006 115.1 8.40006 114.5 11.2001C114.5 11.1001 114.4 11.1001 114.3 11.1001C113.9 12.8001 113.3 14.6001 113.2 15.9001C113.2 16.0001 113.4 16.2001 113.5 16.0001C114.9 12.7001 118 5.50006 113.1 3.20006Z" fill="#151314"/>
<path d="M122.8 14.8996C122.8 14.6996 122.6 14.4996 122.4 14.3996C122.3 14.3996 122.1 14.3996 121.9 14.3996C121.8 14.0996 121.6 13.7996 121.4 13.4996C121.2 13.1996 120.9 12.8996 120.6 12.6996C120.2 12.3996 119.9 12.0996 119.4 12.0996C119 12.0996 118.7 12.1996 118.5 12.4996C116.3 12.4996 114.5 15.9996 113.7 17.5996C113.7 17.6996 113.7 17.6996 113.6 17.7996C113.6 17.7996 113.5 17.7996 113.5 17.8996C113.4 17.9996 113.3 18.0996 113.2 18.2996C113.2 18.3996 113.2 18.5996 113.2 18.6996C113.2 18.7996 113.3 18.8996 113.3 18.9996C113.4 19.0996 113.4 19.0996 113.5 19.1996L113.9 19.3996C114 19.3996 114.1 19.4996 114.2 19.4996C114.3 19.5996 114.4 19.6996 114.6 19.6996C114.8 19.6996 114.9 19.6996 115.1 19.6996H115.2C115.2 19.7996 115.2 19.8996 115.3 19.9996C115.4 20.2996 115.8 20.4996 116.1 20.2996C116.1 20.3996 116.1 20.3996 116.2 20.4996C116.2 20.5996 116.2 20.7996 116.3 20.8996C116.4 20.9996 116.5 20.9996 116.6 20.9996H116.7C116.8 20.9996 116.9 20.8996 116.9 20.8996C117 20.7996 117 20.5996 117 20.4996C117 20.3996 117 20.3996 117 20.2996C117.1 20.2996 117.2 20.1996 117.3 20.0996C117.8 19.1996 118.5 18.4996 119.4 17.9996C120 17.6996 120.6 17.2996 121 16.6996H121.1C121.1 16.6996 121.2 16.6996 121.2 16.5996C121.4 16.4996 121.7 16.2996 121.9 16.1996C122 16.1996 122.1 16.0996 122.1 15.9996H122.2C122.3 15.8996 122.4 15.6996 122.4 15.5996C122.8 15.0996 122.8 14.9996 122.8 14.8996Z" fill="#151314"/>
<path d="M127.1 27.2004C127.1 26.4004 126.9 25.7004 126.7 25.0004L126.6 24.6004H126.7C126.8 24.6004 126.9 24.5004 126.9 24.5004C127.1 24.4004 127.2 24.2004 127.3 24.0004C127.3 23.9004 127.3 23.9004 127.3 23.8004C127.3 23.7004 127.3 23.6004 127.3 23.4004C127.3 23.2004 127.2 23.0004 127.1 22.8004C127 22.7004 127 22.6004 126.9 22.5004C126.9 22.4004 126.8 22.3004 126.8 22.2004C126.8 22.1004 126.7 22.0004 126.7 21.9004C126.6 21.8004 126.6 21.8004 126.5 21.7004C126.5 21.7004 126.4 21.7004 126.4 21.6004C126.4 21.5004 126.4 21.5004 126.4 21.4004C126.4 21.3004 126.4 21.2004 126.3 21.1004C126.2 20.9004 126.2 20.8004 126.1 20.6004L126 20.5004C125.9 20.4004 125.9 20.4004 125.8 20.4004C125.8 20.4004 125.7 20.4004 125.6 20.4004C125.5 20.4004 125.4 20.4004 125.4 20.4004C125.4 20.3004 125.3 20.1004 125.1 20.1004C124.4 19.8004 123.7 19.7004 123 20.0004C122.3 19.7004 121.9 19.7004 121.2 20.0004C120.5 20.3004 119.9 20.7004 119.4 21.3004C119.3 21.4004 119.3 21.5004 119.3 21.6004C119 21.8004 118.7 22.1004 118.5 22.3004C117.9 22.9004 118.4 23.9004 119.1 23.9004C119.2 23.9004 119.4 23.9004 119.5 23.8004C119.5 24.1004 119.6 24.4004 119.6 24.7004C119.7 25.0004 119.8 25.4004 119.9 25.7004C119.9 25.8004 119.9 25.8004 119.9 25.9004C119.9 25.7004 119.9 26.0004 119.9 26.0004L119.8 26.1004C119.5 26.6004 119.7 27.3004 120.2 27.6004C120.7 27.9004 121.3 27.7004 121.6 27.2004C121.8 27.1004 122 27.1004 122.1 27.1004C122.2 27.1004 122.2 27.1004 122.3 27.1004C122.4 27.1004 122.5 27.1004 122.6 27.1004C122.9 27.1004 123.1 27.1004 123.4 27.1004C123.6 27.1004 123.7 27.1004 123.9 27.1004C124.1 27.3004 124.3 27.4004 124.5 27.5004C124.6 27.5004 124.8 27.6004 124.9 27.6004C125 27.6004 125.2 27.7004 125.3 27.7004C125.4 27.7004 125.4 27.7004 125.5 27.7004C125.5 27.9004 125.6 28.1004 125.8 28.2004C125.9 28.3004 126 28.3004 126.1 28.4004C126.2 28.5004 126.4 28.5004 126.5 28.5004C126.6 28.5004 126.8 28.5004 126.9 28.4004C127 28.3004 127.2 28.1004 127.2 28.0004C127.5 27.6004 127.4 27.3004 127.1 27.2004Z" fill="#151314"/>
<path d="M95.9999 40.8C94.5999 46.8 93.4999 52.9 91.8999 58.9C91.8999 59.1 92.0999 59.2 92.1999 59C93.5999 53 95.2999 47.1 96.8999 41.1C96.9999 40.5 96.1999 40.3 95.9999 40.8Z" fill="#151314"/>
<path d="M95.1001 39.0002C94.5001 38.4002 94.0001 38.5002 93.3001 38.5002C92.4001 38.5002 91.6001 38.5002 90.7001 38.5002C90.5001 38.5002 90.4001 38.6002 90.3001 38.7002C90.3001 36.9002 90.3001 35.2002 90.4001 33.4002C90.4001 32.8002 89.6001 32.8002 89.5001 33.4002C89.4001 34.2002 89.4001 34.9002 89.3001 35.7002C89.3001 35.7002 89.3001 35.7002 89.3001 35.8002C88.4001 40.9002 87.6001 45.9002 87.9001 51.1002C88.2001 55.9002 88.1001 61.4002 89.2001 66.0002C89.3001 66.3002 89.7001 66.2002 89.8001 65.9002C89.9001 62.8002 89.8001 59.8002 89.7001 56.7002C90.0001 59.1002 90.5001 61.5002 91.2001 63.7002C91.4001 64.3002 92.4001 64.2002 92.3001 63.6002C91.6001 55.5002 90.5001 47.8002 90.4001 39.8002C90.5001 39.9002 90.6001 40.0002 90.8001 39.9002C91.6001 39.9002 92.4001 39.9002 93.3001 39.9002C94.1001 39.9002 94.6001 40.0002 95.2001 39.5002C95.1001 39.4002 95.2001 39.2002 95.1001 39.0002Z" fill="#151314"/>
<path d="M117.6 51.3004C117.3 50.8004 116.7 50.5004 116.3 50.2004C115.8 49.9004 115.3 49.6004 114.8 49.4004C113.7 48.9004 112.6 48.6004 111.5 48.4004C111.2 48.4004 110.9 48.5004 110.8 48.8004C110.8 48.9004 110.8 48.9004 110.8 49.0004C110.7 49.1004 110.6 49.2004 110.6 49.4004C110.5 50.0004 110.4 50.5004 110.3 51.1004C110.2 51.8004 109.9 52.6004 110.5 53.2004C110.9 53.6004 111.6 53.7004 112.2 53.9004C112.3 53.9004 112.4 54.0004 112.5 54.0004C112.3 53.9004 112.7 54.1004 112.7 54.1004C112.9 54.2004 113.2 54.3004 113.4 54.5004C113.8 54.7004 114.3 55.0004 114.7 55.2004C115 55.3004 115.2 55.4004 115.5 55.4004C115.7 55.5004 115.9 55.5004 116.1 55.3004C116.2 55.2004 116.3 55.2004 116.5 55.1004C116.9 54.8004 117.1 54.3004 117.2 53.8004C117.4 53.3004 117.6 52.8004 117.7 52.2004C117.7 52.1004 117.7 52.1004 117.7 52.0004C117.7 51.8004 117.7 51.5004 117.6 51.3004Z" fill="#151314"/>
<path d="M114.6 11.5001C114.6 11.0001 114.1 10.7001 113.6 10.8001H113.5C113.4 10.7001 113.3 10.7001 113.1 10.6001C112.8 10.5001 112.6 10.3001 112.3 10.2001C112 10.1001 111.6 10.0001 111.3 9.90014C110.9 9.80014 110.4 9.70014 110.1 9.90014C110 10.0001 109.9 10.1001 109.8 10.2001V10.1001C109.8 9.60014 109.8 9.20014 109.8 8.70014C109.8 8.60014 109.7 8.50014 109.6 8.40014C109.6 8.40014 109.6 8.30014 109.5 8.30014C109.3 8.00014 108.9 8.10014 108.6 8.00014C108 7.90014 107.5 7.90014 106.9 8.00014C106.3 8.10014 105.7 8.10014 105.2 8.40014C105.2 8.10014 105.1 7.90014 105.1 7.60014C104.9 7.00014 105 6.40014 105.2 5.80014C105.1 4.70014 105.7 4.10014 107 4.30014C109 3.70014 108.8 4.00014 109.8 5.50014C110 5.70014 110.2 5.60014 110.1 5.50014C109 3.40014 107.7 1.60014 105.6 4.10014C103.2 7.10014 106.3 11.0001 104.4 14.1001C104.3 13.4001 104 12.6001 103.7 12.0001C103.1 10.9001 102.1 9.90014 100.9 9.20014C100.7 9.00014 100.6 8.80014 100.4 8.70014C100.2 8.50014 99.9001 8.40014 99.6001 8.30014C100.9 7.80014 102.2 7.50014 103.7 7.40014C104.2 7.40014 104.2 6.80014 103.9 6.80014C100.2 6.90014 96.9001 8.40014 94.1001 10.7001H94.0001C93.6001 10.8001 93.3001 11.1001 93.2001 11.5001C86.2001 18.0001 82.3001 30.0001 81.3001 37.8001C81.2001 38.4001 82.0001 38.5001 82.3001 38.0001C82.2001 38.1001 82.3001 38.3001 82.4001 38.3001C83.0001 38.3001 83.7001 38.3001 84.3001 38.5001C84.2001 38.5001 84.2001 38.6001 84.2001 38.7001C82.6001 43.5001 81.1001 50.7001 85.4001 54.6001C85.0001 57.8001 84.6001 61.1001 85.0001 64.2001C85.0001 64.4001 85.3001 64.5001 85.4001 64.2001C86.8001 59.7001 86.6001 54.7001 87.0001 50.1001C87.4001 45.3001 87.9001 40.4001 88.7001 35.6001C88.9001 35.6001 89.0001 35.5001 89.2001 35.5001C89.3001 35.5001 89.4001 35.3001 89.3001 35.2001C89.2001 34.9001 89.0001 34.7001 88.8001 34.6001C88.9001 33.8001 89.0001 33.0001 89.2001 32.3001C89.2001 32.2001 89.1001 32.2001 89.1001 32.3001C88.9001 33.0001 88.7001 33.8001 88.5001 34.5001C88.1001 34.3001 87.5001 34.2001 87.0001 34.1001C85.8001 33.9001 84.6001 34.0001 83.4001 34.2001C82.7001 34.4001 83.0001 35.4001 83.7001 35.3001C84.8001 35.1001 85.9001 35.1001 87.0001 35.4001C87.4001 35.5001 87.8001 35.6001 88.1001 35.7001C87.7001 37.5001 87.4001 39.3001 87.1001 41.0001C87.0001 40.5001 86.9001 40.0001 86.8001 39.7001C86.0001 38.0001 84.2001 37.7001 82.5001 37.9001C82.4001 37.9001 82.4001 37.9001 82.4001 38.0001C82.4001 37.9001 82.4001 37.8001 82.4001 37.8001C83.1001 31.8001 84.5001 26.0001 87.4001 20.7001C87.5001 20.9001 87.7001 21.1001 88.0001 21.0001C89.2001 20.9001 90.4001 21.0001 91.6001 21.3001C92.5001 21.6001 93.4001 22.1001 94.3001 21.9001C94.5001 21.8001 94.6001 21.7001 94.5001 21.5001C94.5001 21.3001 94.4001 21.1001 94.3001 21.0001C94.5001 20.9001 94.6001 20.8001 94.7001 20.7001C94.9001 20.4001 94.9001 20.0001 95.0001 19.7001C95.0001 19.6001 95.0001 19.4001 95.0001 19.3001C95.0001 19.2001 95.0001 19.1001 95.0001 19.1001C95.1001 19.1001 95.1001 19.0001 95.2001 19.0001C95.3001 19.0001 95.3001 19.1001 95.4001 19.1001C95.4001 19.1001 95.4001 19.1001 95.5001 19.1001C95.6001 19.1001 95.6001 19.1001 95.7001 19.2001C95.9001 19.2001 96.1001 19.2001 96.2001 19.2001C96.4001 19.2001 96.5001 19.1001 96.6001 18.9001C96.7001 18.8001 96.8001 18.6001 96.9001 18.5001C96.9001 18.3001 96.9001 18.1001 96.9001 18.0001C96.8001 17.9001 96.8001 17.7001 96.7001 17.6001V17.5001L96.6001 17.4001L96.5001 17.3001C96.4001 17.2001 96.3001 17.2001 96.3001 17.1001C96.3001 17.1001 96.3001 17.1001 96.2001 17.1001C96.1001 17.1001 96.1001 17.0001 96.0001 17.0001C95.8001 16.9001 95.6001 16.8001 95.4001 16.8001C95.3001 16.8001 95.2001 16.7001 95.0001 16.7001C94.9001 16.7001 94.7001 16.7001 94.6001 16.7001C94.5001 16.7001 94.5001 16.7001 94.4001 16.8001C93.5001 16.1001 92.3001 15.6001 91.2001 15.3001H91.1001C91.8001 14.5001 92.4001 13.7001 93.2001 13.0001C93.3001 13.1001 93.4001 13.3001 93.5001 13.4001C94.6001 14.2001 95.8001 14.9001 97.0001 15.6001C97.2001 15.8001 97.5001 15.9001 97.6001 16.1001C97.7001 16.2001 97.8001 16.3001 97.9001 16.4001C97.9001 16.4001 98.1001 16.7001 98.1001 16.6001C98.2001 16.8001 98.3001 16.9001 98.4001 17.1001C98.4001 17.2001 98.4001 17.3001 98.4001 17.5001C98.6001 18.0001 98.8001 18.5001 99.0001 19.0001L99.1001 19.1001C99.2001 19.2001 99.2001 19.2001 99.3001 19.2001C99.4001 19.3001 99.6001 19.3001 99.8001 19.2001C99.9001 19.2001 99.9001 19.1001 100 19.1001H100.1C100.2 19.0001 100.4 18.8001 100.4 18.7001C100.4 18.6001 100.4 18.5001 100.4 18.4001C100.5 18.4001 100.5 18.3001 100.6 18.2001L100.7 18.1001C101 18.0001 101.4 17.8001 101.7 17.7001C102.1 17.5001 102.6 17.5001 102.9 17.3001L103 17.2001L103.1 17.3001C103.3 17.4001 103.6 17.5001 103.9 17.4001C104 17.4001 104.1 17.3001 104.1 17.3001C104.3 17.2001 104.4 17.1001 104.5 16.9001C104.6 16.7001 104.6 16.5001 104.7 16.3001C104.7 16.2001 104.7 16.0001 104.7 15.9001C104.7 15.8001 104.7 15.7001 104.6 15.6001C104.7 15.6001 104.9 15.5001 104.9 15.3001C105.6 14.2001 105.7 13.2001 105.6 12.1001H105.7C106.2 12.2001 106.8 12.2001 107.3 12.2001C107.4 12.2001 107.5 12.2001 107.7 12.2001H107.8C107.9 12.2001 108 12.2001 108.2 12.3001C108.3 12.3001 108.3 12.3001 108.4 12.4001C108.3 12.3001 108.4 12.4001 108.5 12.4001C108.8 12.5001 109.1 12.5001 109.4 12.3001C109.5 12.5001 109.6 12.6001 109.7 12.7001C109.5 12.9001 109.5 13.3001 109.8 13.4001C110.4 13.5001 110.9 13.7001 111.5 13.8001C111.8 13.9001 112.1 13.9001 112.4 14.0001C112.7 14.1001 113 14.1001 113.4 14.1001C113.8 14.1001 114.1 13.7001 114 13.3001C114 13.2001 114 13.1001 113.9 13.0001C113.9 12.9001 114 12.7001 114 12.6001C114 12.5001 114 12.5001 114.1 12.4001V12.3001C114.5 12.0001 114.6 11.8001 114.6 11.5001ZM85.2001 39.1001C86.2001 39.8001 86.3001 40.8001 86.3001 41.9001C86.3001 43.0001 85.9001 44.3001 86.2001 45.4001C86.2001 45.5001 86.4001 45.5001 86.5001 45.4001C86.6001 45.3001 86.6001 45.2001 86.7001 45.1001C86.6001 46.1001 86.5001 47.0001 86.4001 48.0001C86.2001 50.0001 85.9001 52.0001 85.6001 54.0001C82.8001 49.2001 83.2001 44.6001 84.9001 39.1001C84.9001 39.0001 84.9001 39.0001 84.9001 38.9001C85.0001 39.0001 85.1001 39.0001 85.2001 39.1001Z" fill="#151314"/>
<path d="M97.8001 32.5002C97.9001 32.3002 97.9001 32.0002 97.9001 31.8002C97.9001 31.6002 97.9001 31.5002 97.9001 31.3002C97.9001 31.0002 97.9001 30.7002 97.9001 30.3002C97.9001 30.0002 97.9001 29.6002 97.8001 29.3002C97.6001 28.8002 97.2001 28.4002 96.6001 28.4002C96.5001 28.4002 96.5001 28.4002 96.4001 28.4002C95.6001 28.1002 95.2001 28.0002 94.7001 27.3002C94.6001 27.0002 94.5001 26.8002 94.3001 26.6002V26.5002C93.2001 24.3002 88.9001 24.9002 86.9001 25.4002C86.6001 25.4002 86.3001 25.4002 86.0001 25.5002C85.4001 25.6002 84.7001 26.0002 84.4001 26.5002C84.3001 26.7002 84.2001 27.0002 84.3001 27.3002C84.2001 27.4002 84.2001 27.5002 84.1001 27.6002C83.8001 28.1002 83.5001 28.6002 83.3001 29.2002C83.2001 29.5002 83.1001 29.8002 83.1001 30.1002C83.1001 30.2002 83.1001 30.4002 83.1001 30.5002C83.1001 30.7002 83.2001 31.0002 83.3001 31.2002C83.4001 31.5002 83.8001 31.6002 84.1001 31.6002C84.4001 31.6002 84.7001 31.3002 84.7001 31.0002C84.7001 31.0002 84.7001 30.9002 84.8001 30.9002L84.9001 30.8002L85.0001 30.7002C85.0001 30.7002 85.0001 30.7002 85.0001 30.6002C85.2001 30.5002 85.4001 30.5002 85.5001 30.4002C86.1001 30.7002 86.9001 30.7002 87.4001 30.2002C87.5001 30.1002 87.5001 30.1002 87.6001 30.0002C89.0001 30.0002 90.3001 30.3002 91.7001 30.7002C92.4001 30.9002 93.2001 31.5002 94.1001 31.9002C94.1001 32.0002 94.1001 32.1002 94.1001 32.1002C94.3001 32.7002 94.7001 33.3002 95.3001 33.6002C95.6001 33.8002 96.0001 33.9002 96.4001 33.9002C96.6001 33.9002 97.0001 33.8002 97.2001 33.7002C97.5001 33.5002 97.6001 33.3002 97.7001 33.0002C97.7001 32.9002 97.7001 32.9002 97.7001 32.8002C97.7001 32.7002 97.7001 32.6002 97.6001 32.5002C97.8001 32.5002 97.8001 32.5002 97.8001 32.5002Z" fill="#151314"/>
<path d="M79.6005 56.7002C79.8005 57.7002 80.2005 58.7002 80.8005 59.5002C80.9005 59.6002 81.1005 59.5002 81.0005 59.4002C80.4005 58.6002 80.1005 57.7002 79.9005 56.6002C79.9005 56.4002 79.5005 56.5002 79.6005 56.7002Z" fill="#151314"/>
<path d="M98.3004 89.3001C93.7004 105 89.6004 120.8 86.0004 136.7C84.2004 144.5 82.6004 152.3 81.0004 160.2C79.6004 167.5 77.0004 175.6 77.2004 183C77.2004 183.4 77.7004 183.4 77.8004 183.1C80.5004 175.9 80.9004 167.2 82.4004 159.6C83.9004 151.7 85.6004 143.9 87.3004 136.1C90.8004 120.5 94.6004 104.9 98.8004 89.5001C99.0004 89.1001 98.4004 88.9001 98.3004 89.3001Z" fill="#151314"/>
<path d="M74.0004 85.9001C73.0004 85.7001 72.5004 87.2001 73.6004 87.5001C76.1004 88.1001 78.7004 88.7001 81.3004 89.2001C83.3004 89.6001 85.4004 90.1001 87.4004 89.5001C87.7004 89.4001 87.8004 89.0001 87.5004 88.8001C85.7004 87.7001 83.4004 87.6001 81.3004 87.3001C78.8004 86.8001 76.4004 86.4001 74.0004 85.9001Z" fill="#151314"/>
<path d="M74.7001 155.701C73.2001 163.501 71.5001 171.801 71.9001 179.701C71.9001 180.001 72.4001 180.101 72.5001 179.801C74.2001 171.401 74.7001 162.701 76.4001 154.201C78.0001 146.001 80.1001 137.901 82.2001 129.801C86.6001 113.301 91.2001 96.9006 94.2001 80.0006C94.3001 79.5006 93.5001 79.2007 93.4001 79.8007C90.1001 96.9007 85.1001 113.501 80.6001 130.301C80.1001 132.301 79.5001 134.401 79.0001 136.401C80.8001 125.601 82.4001 114.801 84.3001 104.101C84.4001 103.501 83.4001 103.201 83.3001 103.801C79.9001 119.201 76.5001 135.001 75.6001 150.801C75.4001 152.501 75.0001 154.101 74.7001 155.701Z" fill="#151314"/>
<path d="M64.8004 172.8C64.9004 175.5 65.0004 178.2 65.8004 180.8C65.9004 181 66.2004 181 66.2004 180.7C66.3004 178.1 66.0004 175.4 65.9004 172.8C65.8004 172.1 64.7004 172.1 64.8004 172.8Z" fill="#151314"/>
<path d="M64.2002 177.701L64.8002 181.501C64.8002 181.601 65.0002 181.601 65.0002 181.501C64.9002 180.201 64.7002 178.901 64.6002 177.701C64.6002 177.401 64.1002 177.401 64.2002 177.701Z" fill="#151314"/>
<path d="M78.2001 65.4008C78.1001 74.4008 77.6001 83.3008 77.1001 92.3008C77.1001 92.5008 77.3001 92.4008 77.3001 92.3008C78.2001 83.4008 78.4001 74.4008 78.5001 65.4008C78.6001 65.1008 78.2001 65.1008 78.2001 65.4008Z" fill="#151314"/>
<path d="M82.3005 37.7004C82.2005 38.1004 82.7005 38.5004 83.1005 38.5004C83.7005 38.5004 84.4005 38.5004 85.0005 38.6004C85.2005 39.0004 85.5005 39.4004 85.7005 39.8004C86.0005 40.4004 86.3005 40.9004 86.5005 41.5004C86.7005 42.1004 86.7005 42.7004 86.6005 43.3004C86.5005 44.0004 86.5005 44.7004 86.9005 45.2004C87.3005 45.8004 88.3005 45.7004 88.5005 45.0004C88.9005 43.6004 89.3005 42.1004 89.4005 40.6004C89.4005 39.9004 89.4005 39.2004 89.4005 38.5004C89.4005 38.2004 89.4005 37.8004 89.4005 37.5004C89.4005 37.2004 89.3005 36.6004 89.4005 36.4004C89.7005 35.9004 89.3005 35.4004 88.8005 35.3004C88.6005 35.3004 88.4005 35.2004 88.2005 35.1004C88.0005 34.9004 87.7005 35.0004 87.5005 35.0004C87.4005 35.0004 87.4005 35.0004 87.3005 35.0004C86.5005 35.0004 85.8005 35.0004 85.0005 34.9004C84.8005 34.9004 84.5005 34.9004 84.3005 35.0004C84.2005 35.0004 84.2005 35.0004 84.1005 35.0004C83.8005 34.6004 83.3005 34.6004 82.9005 34.9004C82.8005 34.9004 82.8005 34.9004 82.7005 34.9004C82.1005 35.0004 82.1005 35.8004 82.5005 36.1004C82.4005 36.7004 82.4005 37.2004 82.3005 37.7004Z" fill="#151314"/>
<path d="M90.6003 183.301C89.0003 189.701 76.5003 186.101 72.1003 185.201C70.8003 184.901 69.6003 184.701 68.3003 184.401C65.6003 183.801 65.5003 184.001 64.1003 182.201C63.8003 180.201 63.5003 178.201 63.4003 176.201C64.9003 171.001 65.8003 165.501 66.5003 159.901C66.4003 165.701 65.8003 172.101 67.1003 177.801C67.2003 178.101 67.6003 178.101 67.6003 177.801C68.6003 171.801 67.7003 165.301 67.7003 159.201C67.8003 160.301 67.9003 161.401 68.0003 162.501C68.0003 162.901 68.6003 162.901 68.7003 162.501C69.1003 153.401 69.0003 144.201 69.7003 135.101C69.7003 134.601 69.3003 134.401 68.9003 134.501C69.1003 131.901 69.3003 129.201 69.5003 126.601C69.6003 128.901 69.7003 131.301 69.8003 133.601C69.8003 133.901 70.3003 133.901 70.3003 133.601C70.8003 126.801 70.6003 120.001 70.6003 113.201C70.6003 113.001 70.5003 112.901 70.4003 112.801L70.5003 112.701C72.2003 100.701 70.9003 88.4006 72.0003 76.4006C72.6003 69.9006 74.0003 63.7006 76.6003 57.7006C76.9003 59.7006 77.3003 62.2006 78.7003 63.7006C78.8003 63.9006 79.0003 63.7006 79.0003 63.5006C78.8003 62.4006 78.3003 61.5006 78.0003 60.4006C77.7003 59.4006 77.4003 58.3006 77.2003 57.3006C77.2003 57.1006 77.0003 57.0006 76.8003 57.1006C79.0003 52.1006 81.5003 47.3006 83.0003 42.0006C83.0003 41.8006 82.8003 41.8006 82.7003 41.9006C80.6003 47.9006 77.2003 53.2006 74.9003 59.1006C73.0003 63.8006 71.9003 68.7006 71.3003 73.8006C70.5003 79.8006 70.4003 85.8006 70.2003 91.8006C70.1003 96.0006 69.8003 100.201 69.7003 104.401C68.8003 116.501 67.6003 128.701 66.3003 140.801C65.1003 152.201 62.7003 163.801 62.4003 175.301C61.6003 177.701 59.9003 180.301 61.5003 182.601C63.4003 185.401 68.8003 185.701 71.7003 186.301C77.0003 187.401 82.8003 188.401 88.2003 187.801C91.3003 187.201 91.4003 186.301 91.0003 183.301C91.0003 183.101 90.7003 183.001 90.6003 183.301ZM67.5003 149.501C67.5003 152.601 67.5003 155.801 67.8003 158.901C67.8003 158.301 66.9003 158.201 66.7003 158.601C66.9003 155.601 67.2003 152.501 67.5003 149.501ZM62.5003 177.201C62.5003 177.301 62.7003 177.401 62.8003 177.401C62.9003 178.601 63.1003 179.901 63.5003 181.101C61.7003 178.601 61.9003 178.901 62.5003 177.201Z" fill="#151314"/>
<path d="M95.7002 43.5004C95.6002 43.3004 95.5002 43.1004 95.4002 43.0004C95.2002 42.8004 95.0002 42.8004 94.8002 42.7004C94.6002 42.6004 94.4002 42.6004 94.3002 42.5004C93.9002 42.4004 93.6002 42.3004 93.2002 42.2004C92.4002 42.0004 91.5002 41.9004 90.7002 41.9004C90.3002 41.9004 90.0002 42.2004 89.9002 42.6004C89.8002 43.0004 90.1002 43.3004 90.4002 43.5004C90.3002 43.7004 90.2002 44.0004 90.1002 44.2004C89.8002 44.4004 89.5002 44.7004 89.4002 45.1004C89.2002 45.7004 89.4002 46.4004 89.8002 46.8004C90.1002 47.1004 90.4002 47.2004 90.8002 47.3004C90.9002 47.3004 91.0002 47.3004 91.2002 47.4004C91.6002 47.5004 91.9002 47.5004 92.3002 47.5004C92.6002 47.5004 93.0002 47.6004 93.3002 47.5004C93.4002 47.5004 93.5002 47.4004 93.7002 47.4004C93.8002 47.4004 93.8002 47.4004 93.9002 47.4004H94.0002C94.1002 47.4004 94.1002 47.5004 94.2002 47.5004H94.4002C94.5002 47.5004 94.6002 47.5004 94.7002 47.4004C94.8002 47.4004 94.8002 47.3004 94.9002 47.3004C95.0002 47.2004 95.1002 47.2004 95.1002 47.1004C95.1002 47.0004 95.2002 47.0004 95.2002 46.9004V46.7004V46.6004C95.2002 46.5004 95.2002 46.3004 95.3002 46.2004C95.3002 46.1004 95.3002 46.0004 95.3002 45.9004C95.3002 45.8004 95.3002 45.7004 95.2002 45.7004C95.3002 45.5004 95.3002 45.2004 95.3002 44.9004C95.3002 44.8004 95.4002 44.8004 95.4002 44.7004C95.5002 44.6004 95.6002 44.6004 95.7002 44.5004C95.7002 44.1004 95.8002 43.8004 95.7002 43.5004Z" fill="#151314"/>
<path d="M82.9003 57.5004C81.7003 54.2004 81.5003 51.3004 81.7003 47.7004C81.7003 47.3004 81.1003 47.3004 81.1003 47.7004C80.9003 50.9004 80.4003 55.0004 82.7003 57.6004C82.8003 57.8004 83.0003 57.7004 82.9003 57.5004Z" fill="#151314"/>
<path d="M122.6 69.7998L119.2 71.6998C119 71.7998 119.2 71.9998 119.3 71.8998C120.4 71.1998 121.5 70.4998 122.6 69.7998C122.7 69.8998 122.7 69.7998 122.6 69.7998Z" fill="#151314"/>
<path d="M115.7 94.1999C112.4 91.0999 106.6 90.5999 102.3 90.2999C101.2 90.1999 101.2 91.9999 102.3 92.0999C104.8 92.2999 107.3 92.7999 109.7 93.4999C111.6 93.9999 113.5 94.7999 115.4 94.9999C115.7 94.8999 115.9 94.4999 115.7 94.1999Z" fill="#151314"/>
<path d="M30.7 77.2004C30.5 77.3004 30.7 77.7004 30.9 77.6004C36.2 74.6004 41.5 71.5004 47.7 71.0004C47.8 71.0004 47.8 70.9004 47.7 70.9004C41.4 71.5004 36 74.2004 30.7 77.2004Z" fill="#151314"/>
<path d="M36.5003 91.9007C37.1003 94.1007 37.6003 96.4007 38.2003 98.6007C39.4003 103.501 40.3003 108.701 42.1003 113.401C42.2003 113.601 42.4003 113.601 42.4003 113.401C41.8003 104.001 38.8003 93.1007 34.8003 84.5007C34.6003 84.1007 34.0003 84.2007 33.8003 84.6007C30.6003 94.6007 38.3003 105.901 39.7003 115.701C39.8003 116.001 40.3003 116.001 40.3003 115.601C40.0003 111.501 39.1003 107.501 37.9003 103.501C36.7003 99.6007 32.8003 91.7007 34.3003 87.7007C34.9003 86.2007 34.0003 85.6007 35.2003 88.0007C35.8003 89.2007 36.2003 90.6007 36.5003 91.9007Z" fill="#151314"/>
<path d="M72.0003 112.5C72.0003 113 72.8003 113 72.8003 112.5C73.5003 102.6 72.9003 92.6 72.7003 82.6C72.7003 81.8 71.4003 81.8 71.4003 82.6C71.5003 92.5 71.1003 102.6 72.0003 112.5Z" fill="#151314"/>
<path d="M77.0001 111.8C73.9001 124.8 71.2001 138.6 72.0001 152.1C72.0001 152.6 72.6001 152.5 72.7001 152.1C74.4001 138.7 75.3001 125.4 78.1001 112.1C78.3001 111.4 77.2001 111.1 77.0001 111.8Z" fill="#151314"/>
<path d="M75.3001 69.7008C75.3001 69.0008 74.3001 69.0008 74.3001 69.7008C74.1001 80.6008 73.6001 91.6008 74.4001 102.501C74.4001 102.901 75.0001 102.901 75.0001 102.501C75.9001 91.7008 75.4001 80.6008 75.3001 69.7008Z" fill="#151314"/>
<path d="M75.0001 53.1004C73.9001 47.0004 69.7001 45.5004 65.0001 45.8004C64.9001 44.9004 64.9001 44.5004 64.7001 43.4004C64.6001 42.9004 64.0001 42.7004 63.6001 42.8004C52.9001 44.7004 42.3001 46.8004 31.8001 49.8004C29.5001 50.5004 27.1001 51.4004 24.7001 51.9004C24.0001 52.0004 20.9001 51.8004 20.2001 52.6004C19.3001 53.6004 20.1001 55.3004 20.3001 56.4004C20.3001 56.5004 20.4001 56.6004 20.5001 56.7004C19.6001 57.1004 18.7001 57.6004 17.9001 58.2004C11.5001 62.8004 11.2001 73.6004 18.8001 77.0004C19.5001 77.3004 20.2001 76.9004 20.4001 76.3004C22.2001 77.4004 24.5001 77.7004 26.6001 77.0004C28.5001 83.6004 30.4001 90.1004 32.0001 96.8004C33.4001 102.8 33.6001 109.6 35.8001 115.4C35.6001 115.5 35.5001 115.7 35.6001 115.9C37.0001 119.3 43.6001 116.5 46.0001 116C53.8001 114.3 62.1001 112.9 69.6001 110.2C70.1001 110 70.1001 109.1 69.5001 109.2C64.5001 109.8 59.6001 111.4 54.8001 112.5C52.5001 113.1 37.6001 117.9 36.5001 115.5C36.5001 115.4 36.4001 115.4 36.4001 115.4C35.3001 109.1 35.0001 102.7 33.5001 96.4004C32.3001 91.0004 30.4001 85.7004 28.5001 80.4004C28.6001 80.4004 28.6001 80.4004 28.7001 80.4004C40.6001 74.6004 52.7001 72.4004 65.9001 72.0004C66.4001 72.0004 66.4001 71.2004 65.9001 71.2004C52.9001 70.6004 39.8001 74.0004 28.2001 79.6004C27.9001 78.7004 27.6001 77.9004 27.3001 77.0004C29.2001 76.3004 30.9001 74.8004 31.8001 72.5004C32.9001 69.6004 32.4001 65.6004 29.4001 64.2004C29.1001 64.1004 28.8001 64.0004 28.5001 63.9004C29.1001 63.9004 29.6001 63.8004 30.1001 63.9004C34.3001 64.3004 38.7001 65.3004 42.6001 63.4004C42.7001 63.4004 42.7001 63.5004 42.8001 63.5004C46.4001 64.6004 49.8001 63.5004 53.0001 61.7004C55.0001 60.6004 56.8001 59.1004 58.7001 57.9004C58.8001 57.8004 58.9001 57.8004 59.0001 57.7004C58.1001 58.8004 57.6001 60.3004 58.3001 62.4004C58.5001 63.0004 58.8001 63.6004 59.1001 64.0004C49.5001 62.2004 41.3001 65.3004 32.9001 69.8004C32.6001 70.0004 32.9001 70.4004 33.2001 70.2004C37.1001 68.2004 41.1001 66.2004 45.3001 65.1004C50.1001 63.8004 54.7001 64.6004 59.5001 64.5004C60.3001 65.3004 61.2001 65.7004 62.3001 65.8004C62.3001 66.0004 62.4001 66.2004 62.6001 66.3004C63.5001 66.9004 64.4001 67.2004 65.2001 67.4004C67.5001 73.8004 69.0001 80.4004 70.5001 87.0004C70.6001 87.2004 70.9001 87.2004 70.9001 86.9004C70.4001 80.1004 68.4001 73.7004 65.9001 67.4004C71.8001 67.7004 76.0001 58.4004 75.0001 53.1004ZM23.4001 53.2004C25.1001 52.8004 26.9001 52.5004 28.6001 52.0004C32.6001 50.9004 36.6001 49.9004 40.7001 49.1004C44.8001 48.2004 48.8001 47.4004 52.9001 46.7004C55.3001 46.3004 62.1001 43.8004 63.5001 46.0004C60.0001 46.5004 56.4001 47.8004 53.5001 48.8004C47.0001 51.0004 40.3001 52.4004 33.5001 53.6004C29.7001 54.3004 25.4001 54.8004 21.7001 56.3004C21.7001 56.2004 21.7001 56.2004 21.7001 56.1004C21.1001 53.8004 20.4001 54.0004 23.4001 53.2004ZM28.6001 66.6004C30.7001 67.9004 31.3001 69.5004 30.3001 71.4004C30.0001 73.5004 28.8001 74.9004 26.5001 75.7004C23.6001 76.2004 21.1001 74.9004 19.9001 72.1004C18.5001 68.7004 20.7001 66.4004 23.6001 65.0004C22.8001 65.7004 22.4001 66.7004 22.4001 68.0004C22.4001 73.3004 30.3001 72.2004 28.6001 66.6004ZM42.8001 62.4004C42.6001 62.4004 42.5001 62.5004 42.4001 62.6004C38.9001 62.1004 35.4001 62.3004 31.9001 61.8004C29.5001 61.4004 27.2001 61.2004 24.9001 61.9004C22.5001 62.6004 20.3001 64.1004 18.9001 66.2004C19.6001 53.8004 34.0001 61.6004 42.1001 60.3004C49.3001 59.1004 55.0001 52.9004 61.8001 52.6004C61.6001 52.7004 61.5001 52.7004 61.3001 52.8004C54.6001 55.6004 50.5001 61.5004 42.8001 62.4004ZM32.2001 58.4004C34.8001 58.1004 37.4001 57.5004 40.1001 56.9004C43.9001 56.0004 47.7001 55.4004 51.5001 54.6004C47.2001 57.2004 43.1001 59.9004 37.3001 59.3004C35.6001 59.2004 33.9001 58.8004 32.2001 58.4004ZM61.2001 56.2004C62.8001 55.0004 63.8001 54.9004 64.2001 56.0004C63.2001 55.9004 62.2001 55.9004 61.2001 56.2004ZM67.7001 64.0004C70.2001 62.1004 71.9001 59.0004 70.7001 55.8004C70.1001 54.4004 69.3001 53.4004 68.2001 52.8004C65.7001 49.7004 61.4001 49.9004 58.0001 51.2004C56.7001 51.7004 55.4001 52.4004 54.2001 53.0004C50.6001 52.9004 46.9001 54.0004 43.4001 54.8004C38.5001 56.0004 33.7001 57.2004 28.7001 57.7004C26.2001 57.4004 23.7001 57.5004 21.4001 58.8004C17.9001 60.8004 17.8001 65.0004 18.0001 68.5004C17.9001 68.9004 17.8001 69.4004 17.8001 69.8004C17.7001 71.4004 18.0001 72.8004 18.6001 73.9004C15.2001 71.2004 13.9001 66.0004 16.2001 62.1004C18.1001 58.7004 21.9001 57.2004 25.5001 56.2004C32.3001 54.4004 39.4001 54.0004 46.3001 52.3004C52.6001 50.8004 59.6001 46.6004 66.2001 47.1004C72.2001 47.6004 74.5001 53.1004 72.9001 58.4004C71.7001 61.7004 69.9001 63.2004 67.7001 64.0004Z" fill="#151314"/>
<path d="M48.6 96.7C47.5 92.4 46.5 86.7 43.8 83.1L43.7 83C42.5 83.5 42.9 83.1 42.5 84.5C44.2 84.9 45 86 45 87.7C45.3 89 45.6 90.2 45.9 91.5C46.4 93.7 47 95.9 47.6 98C48.7 102.7 49.6 107.5 51.1 112C51.2 112.2 51.5 112.2 51.5 112C51.2 106.9 49.9 101.7 48.6 96.7Z" fill="#151314"/>
<path d="M42.3001 86.9002C42.3001 86.8002 42.1001 86.8002 42.1001 86.9002C42.9001 95.9002 44.9001 104.7 47.1001 113.4C47.3001 114.2 48.5001 113.9 48.3001 113.1C46.2001 104.4 44.5001 95.6002 42.3001 86.9002Z" fill="#151314"/>
<path d="M65.1002 87.7002C64.2002 84.5002 63.9002 79.6002 60.4002 78.2002C60.3002 78.2002 60.2002 78.3002 60.2002 78.4002C60.8002 88.4002 62.9002 98.6002 66.4002 108C66.7002 108.8 68.1002 108.5 67.8002 107.6C66.1002 102.9 64.4002 98.1002 63.2002 93.2002C62.8002 91.6002 60.2002 80.5002 60.9002 80.2002C62.0002 79.8002 64.6002 91.5002 65.0002 92.9002C66.2002 97.3002 67.1002 101.9 69.1002 106C69.2002 106.2 69.5002 106.1 69.5002 105.9C69.0002 99.7002 66.8002 93.6002 65.1002 87.7002Z" fill="#151314"/>
<path d="M52.1002 80.1004C51.9002 79.9004 51.6002 80.1004 51.6002 80.3004C50.4002 91.1004 53.3002 101.4 56.7002 111.5C56.9002 112.1 57.8002 111.8 57.6002 111.3C56.1002 106.5 54.6002 101.7 53.5002 96.8004C53.1002 95.3004 51.3002 82.1004 52.1002 82.2004C54.2002 82.3004 55.7002 93.0004 56.2002 95.0004C57.5002 99.8004 58.7002 104.6 60.4002 109.3C60.5002 109.5 60.7002 109.4 60.7002 109.2C59.9002 103.4 58.4002 97.6004 56.7002 91.9004C55.6002 88.1004 54.8002 83.3004 52.1002 80.1004Z" fill="#151314"/>
</svg>
