<svg width="201" height="201" viewBox="0 0 201 201" fill="none" xmlns="http://www.w3.org/2000/svg">
<path d="M175.228 150.122C175.13 146.883 174.972 143.605 174.58 140.386C174.364 138.639 172.146 125.487 171.263 124.741C170.536 124.113 168.475 124.153 167.533 124.054C165.845 123.937 164.157 123.838 162.469 123.78C160.781 123.721 159.073 123.701 157.385 123.74C155.697 123.76 153.989 123.819 152.301 123.917C150.613 124.015 148.925 124.153 147.237 124.31C144.685 124.565 142.133 124.957 139.582 125.232C136.284 125.585 132.751 125.723 129.512 126.488C128.648 126.685 127.549 127.038 127.039 127.823C126.862 128.098 126.803 128.373 126.882 128.687C127.019 129.354 127.628 129.766 128.138 130.139C128.432 133.162 128.923 136.165 129.198 139.208C130.062 148.708 130.474 158.228 130.434 167.768C122.858 167.101 115.183 171.026 108.43 173.971C106.507 174.815 104.583 175.757 102.561 176.346C98.5375 177.543 91.4122 177.798 88.3697 174.285C87.2313 172.989 87.2313 171.87 87.192 170.261C88.566 170.379 90.2541 170.261 91.3533 169.319C91.4122 169.26 91.4711 169.201 91.53 169.142C91.5889 169.083 91.6478 169.024 91.7066 168.946C91.7655 168.867 91.8048 168.808 91.844 168.73C91.8833 168.651 91.9226 168.592 91.9618 168.514C92.0011 168.435 92.0403 168.357 92.06 168.278C92.0992 168.2 92.1189 168.121 92.1385 168.043C92.1581 167.964 92.1777 167.886 92.1974 167.788C92.217 167.709 92.217 167.611 92.217 167.532C92.2366 167.042 92.0992 166.492 91.7655 166.158C91.5889 165.982 91.4318 165.923 91.1767 165.923C90.8626 166.041 90.6663 166.217 90.5289 166.531C90.3915 166.845 90.4308 167.356 90.4111 167.689C90.0186 167.827 89.626 167.964 89.1941 167.984C87.0938 168.102 82.5203 167.022 80.6359 166.06C79.3601 165.412 78.3786 164.117 77.986 162.743C77.6327 161.546 77.829 160.27 78.4571 159.19C78.6927 158.778 79.0067 158.444 79.3208 158.111C82.01 158.15 86.1124 158.856 88.2716 156.795C88.7231 156.364 88.9586 155.814 88.9586 155.186C88.9586 154.538 88.7231 153.812 88.252 153.36C88.0164 153.125 87.8005 153.027 87.4668 152.968C87.1724 153.046 87.1527 153.046 86.9564 153.301C86.819 153.812 86.9957 154.224 87.1527 154.695L87.1135 154.813C86.9564 155.362 86.819 155.637 86.2891 155.912C84.0906 157.07 79.4975 155.834 77.2009 155.029C75.9643 154.597 74.5117 154.028 73.9032 152.791C73.3144 151.613 73.1966 148.944 73.6677 147.727C73.9229 147.04 74.4332 146.569 75.1006 146.274C77.9664 145.057 85.4843 146.706 86.8583 143.624C87.0938 143.094 87.2116 142.309 86.9564 141.76C86.8583 141.563 86.7209 141.426 86.505 141.347C86.2694 141.249 86.0143 141.289 85.7787 141.367C85.0721 142.211 86.2498 143.212 84.0317 143.408C81.48 143.624 75.7091 143.114 73.7069 141.367C73.648 141.308 73.5892 141.249 73.5303 141.19C73.4714 141.132 73.4125 141.073 73.3536 141.014C73.2947 140.955 73.2358 140.896 73.1966 140.817C73.1377 140.759 73.0984 140.68 73.0396 140.621C72.9807 140.562 72.9414 140.484 72.9021 140.425C72.8629 140.346 72.804 140.287 72.7648 140.209C72.7255 140.13 72.6862 140.072 72.647 139.993C72.6077 139.915 72.5685 139.856 72.5292 139.777C72.4899 139.699 72.4507 139.62 72.4311 139.542C72.3918 139.463 72.3722 139.385 72.3329 139.306C72.3133 139.228 72.274 139.149 72.2544 139.07C72.2348 138.992 72.2151 138.913 72.1955 138.835C72.1759 138.756 72.1562 138.678 72.1366 138.599C72.117 138.521 72.0974 138.442 72.0974 138.364C72.0777 138.285 72.0777 138.207 72.0581 138.109C72.0581 138.03 72.0385 137.952 72.0385 137.853C71.96 136.381 72.8433 134.418 73.864 133.339C75.8857 131.199 85.8572 129.806 88.9193 129.806C90.7056 129.806 92.3348 130.218 94.0817 130.395C97.9879 130.787 102.051 130.65 105.879 129.845C106.664 129.668 107.999 129.531 108.588 128.942C108.725 128.805 108.823 128.333 108.784 128.118C108.646 127.332 107.194 125.114 106.742 124.31C104.76 120.659 102.503 116.046 102.954 111.786C103.091 110.491 103.504 109.254 103.955 108.037C104.446 106.663 105.035 105.23 105.8 103.974C107.056 101.893 109.844 99.3612 112.278 98.8116C112.631 98.7331 112.984 98.6546 113.338 98.5957C114.064 98.792 114.398 98.9686 114.908 99.5575C113.514 99.6556 112.494 99.9697 111.532 101.049C110.236 102.482 109.471 105.014 109.549 106.938C109.569 107.448 109.687 108.057 110.079 108.41C110.531 108.822 111.139 108.862 111.708 108.803C111.924 108.783 112.16 108.744 112.376 108.724C112.062 115.182 113.711 120.246 118.088 125.075C119.58 126.704 122.858 129.845 125.174 129.923C125.449 129.943 125.782 129.904 126.018 129.727C126.214 129.59 126.273 129.354 126.273 129.138C126.293 128.51 125.92 127.666 125.488 127.215C125.252 126.979 124.978 126.763 124.742 126.547C129.159 125.605 133.791 124.957 138.247 124.31C140.053 124.054 143.448 123.956 144.999 123.289C146.275 122.739 147.217 121.62 147.963 120.462C148.768 119.206 149.278 117.793 149.573 116.34C150.142 113.553 150.142 110.648 150.279 107.802C150.888 94.297 149.847 80.6549 148.473 67.2287C148.1 63.6562 147.747 60.0249 147.276 56.4328C143.782 56.2561 140.327 55.5888 136.873 55.098C136.421 55.0391 136.382 55.0391 136.775 55.0784C136.519 55.0391 136.284 55.0195 136.029 54.9999C135.656 54.9606 135.283 54.9214 134.91 54.8821C133.909 54.784 132.908 54.7055 131.887 54.6269C130.003 54.4895 128.099 54.3718 126.214 54.1755C124.997 54.0577 123.8 53.9007 122.583 53.724C122.249 53.6848 121.778 53.5277 121.464 53.5473C122.524 53.5081 121.386 53.5473 121.111 53.5277C119.639 53.3903 118.147 53.3118 116.675 53.194C113.534 52.9585 110.393 52.5659 107.508 51.29C105.27 51.5059 103.033 51.8593 100.795 52.0948C97.6935 52.4285 94.5725 52.5463 91.4907 52.9389C85.8769 53.6651 80.3415 54.784 74.7669 55.7065C69.1923 56.6291 63.5784 57.1198 58.0038 58.0227C53.548 58.749 49.1904 59.8875 44.7543 60.7119L35.4109 62.3804C30.9944 63.1459 26.362 63.9703 22.1418 65.5406C22.024 63.9114 21.9848 62.2822 21.8866 60.6334C21.7296 57.4535 21.337 55.6869 23.5943 53.0174C24.1047 52.4089 24.8113 51.9378 25.5376 51.5845C26.5779 51.0741 27.7753 50.7404 28.8941 50.3675C31.7403 49.4253 34.5865 48.5812 37.5112 47.9727C40.7107 47.3054 44.0084 47.0306 47.2472 46.6183L62.1455 44.6947L82.2455 42.0055C86.132 41.4756 90.0382 40.8671 93.9443 40.4549C95.5932 40.2782 101.953 39.8856 102.915 39.4342C103.072 39.3556 103.209 39.2771 103.307 39.1594C103.248 38.6294 103.19 38.0798 103.15 37.5498C103.033 37.4124 102.895 37.2946 102.758 37.1965C102.306 36.8628 101.757 36.6861 101.207 36.6665C100.324 36.6272 99.3423 36.8628 98.4394 36.9413L91.157 37.6087C76.6905 39.1594 62.3025 41.2204 47.9734 43.7918C42.2418 44.8714 36.4709 45.8724 30.7785 47.1483C28.4819 47.6587 25.7928 48.0905 23.7121 49.1897C22.4951 49.8375 21.4548 51.0937 20.6696 52.2322C19.7078 53.6455 18.8638 55.2943 18.6871 57.0217C18.5693 58.1798 18.9423 59.3379 18.9227 60.496C18.903 61.7522 18.8245 63.0281 18.8441 64.2844C18.8834 66.051 19.0601 67.8372 19.1778 69.6234C19.4526 73.9418 19.8256 78.2601 20.1789 82.5785C20.4733 86.0332 20.7089 89.5075 21.1015 92.9426C21.4744 96.2598 21.9848 99.5379 22.3773 102.855C23.084 108.567 23.7317 114.338 24.8113 119.991C25.1646 121.836 25.5376 123.681 25.8517 125.546C26.4994 129.236 26.9509 134.163 30.3467 136.479C31.5833 137.324 33.0358 137.795 34.4884 137.991C37.2561 138.344 40.2396 138.05 43.027 137.893C49.8971 137.481 56.7672 136.872 63.6177 136.087C65.5413 135.871 67.4453 135.439 69.3493 135.262C68.623 137.127 68.7997 138.874 69.6045 140.7C69.7615 141.033 69.9186 141.367 70.1148 141.681C70.2915 141.995 70.5074 142.309 70.7233 142.604C70.9393 142.898 71.1748 143.193 71.4104 143.448C71.6655 143.723 71.9207 143.978 72.1955 144.213C70.5074 146.549 70.2719 146.844 70.3504 149.788C70.37 150.593 70.3504 151.437 70.4878 152.222C70.8019 154.047 71.9992 155.559 73.491 156.579C74.2173 157.07 75.0417 157.502 75.8661 157.796C74.9043 159.485 74.4528 161.33 74.9828 163.253C75.6109 165.53 77.142 167.729 79.2423 168.887C80.6163 169.652 82.2259 170.163 83.7962 170.3C83.7766 172.911 84.3851 175.09 86.2694 176.994C89.0764 179.84 92.9825 180.507 96.8102 180.487C99.9508 180.468 102.836 179.84 105.8 178.819C110.04 177.347 113.946 175.05 118.108 173.382C118.736 173.127 119.383 172.891 120.031 172.675C120.679 172.459 121.327 172.263 121.994 172.086C122.661 171.91 123.329 171.753 123.996 171.615C124.664 171.478 125.331 171.36 126.018 171.262C126.744 171.144 128.059 170.81 128.668 171.36C129.787 172.381 128.432 175.62 133.477 175.953C135.322 176.071 137.187 176.149 139.032 176.287C142.644 176.307 146.216 176.208 149.828 176.11C153.989 175.992 158.19 175.835 162.312 175.148C165.158 174.677 167.926 173.931 170.674 173.068C171.537 172.793 173.363 172.499 173.971 171.812C174.619 171.066 174.6 168.651 174.678 167.709C175.287 161.801 175.404 156.01 175.228 150.122Z" fill="#151314"/>
<path d="M136.087 100.284C137.225 100.088 138.384 100.088 139.502 99.9111L136.087 100.284Z" fill="#D5EEC7"/>
<path d="M131.886 109.647C134.065 109.352 136.205 108.822 138.403 108.508C139.483 108.351 142.152 108.292 142.996 107.782C143.134 107.586 143.232 107.409 143.193 107.154C143.193 107.134 143.173 107.095 143.173 107.075C143.173 107.056 143.153 107.016 143.134 106.997C143.114 106.977 143.114 106.938 143.095 106.918C143.075 106.899 143.055 106.879 143.036 106.84C143.016 106.82 142.996 106.8 142.977 106.781C142.957 106.761 142.937 106.742 142.918 106.722C142.898 106.702 142.879 106.683 142.839 106.683C142.82 106.663 142.78 106.663 142.761 106.643C142.093 106.388 139.679 106.722 138.914 106.8C135.851 107.154 132.809 107.743 129.747 108.174C126.116 108.685 122.406 109.058 118.794 109.725" fill="#D5EEC7"/>
<path d="M148.081 79.3791C147.492 71.6846 146.831 63.2866 145.81 55.6313C142.886 55.3762 139.961 54.8266 137.056 54.4144C136.604 54.3555 136.565 54.3555 136.958 54.3947C136.702 54.3555 136.467 54.3358 136.212 54.3162C135.839 54.277 135.466 54.2377 135.093 54.1984C134.092 54.1003 133.091 54.0218 132.07 53.9433C130.186 53.8059 128.282 53.6881 126.397 53.4918C125.18 53.374 123.983 53.217 122.766 53.0403C122.432 53.0011 121.961 52.844 121.647 52.8637C122.707 52.8244 121.569 52.8637 121.294 52.844C119.822 52.7066 118.33 52.6281 116.858 52.5103C115.405 52.3926 113.933 52.2552 112.5 52C110.616 52.1178 108.568 52.9586 106.684 53.1156C103.779 53.3512 100.873 53.7241 97.9487 53.9989C95.3381 54.2541 92.7274 54.4504 90.1168 54.7841C84.3459 55.53 78.6535 56.7666 72.9023 57.6303C68.4857 58.278 64.0496 58.6117 59.6331 59.3772C54.2548 60.2998 48.955 61.5364 43.5963 62.5571C39.6116 63.3227 35.5877 63.833 31.6227 64.6574C28.482 65.3052 25.4199 66.2866 22.2793 66.8362C22.613 74.1382 23.1037 81.4401 23.7711 88.7028C24.6151 97.2414 25.6947 105.76 26.9902 114.26C27.481 117.577 28.0698 120.855 28.6783 124.153C29.0905 126.371 29.4438 128.648 30.1505 130.807C30.5234 132.004 31.1123 133.496 32.0938 134.34C33.3304 135.42 35.411 135.675 36.9813 135.498L56.7477 133.535C61.2623 133.103 65.8358 132.848 70.272 131.926C71.803 131.612 72.7845 130.454 74.1389 129.766C76.4355 128.569 78.9872 127.941 81.539 127.548C83.973 127.175 86.7995 127.117 89.2531 127.352C90.6075 127.49 91.9227 127.804 93.2967 127.745C94.6903 127.686 96.1036 127.352 97.458 127.097C99.735 126.665 102.012 126.253 104.289 125.88C103.837 124.781 103.288 123.76 102.797 122.68C101.639 120.148 100.795 117.518 100.5 114.75C100.383 113.73 100.285 112.454 100.481 111.433C101.129 106.349 103.543 101.442 107.626 98.2621C109.549 96.7703 111.944 95.5926 114.417 95.9263C115.477 96.0637 116.459 96.4955 117.107 97.3788C117.97 98.5565 118.009 100.225 117.813 101.619L117.774 101.893L115.634 112.1C116.302 116.654 117.931 120.345 121.307 123.583L134.576 121.719C137.383 121.346 141.211 121.228 143.841 120.345C145.196 119.893 146.314 119.147 147.178 118.028C147.865 117.125 148.258 116.085 148.513 115.006C149.337 111.355 149.259 106.408 149.259 102.639C149.2 94.8663 148.709 87.1325 148.081 79.3791Z" fill="#D5EEC7"/>
<path d="M165.256 126.744C166.198 126.704 167.14 126.626 168.083 126.665C168.397 126.665 169.064 126.704 169.28 126.999C169.79 127.686 170.065 131.867 170.202 132.907C170.458 134.752 170.831 136.597 171.086 138.442C172.146 145.999 172.852 153.596 173.186 161.232C173.323 164.392 173.579 167.729 173.304 170.889C170.104 171.969 165.825 171.949 162.41 172.165C156.129 172.557 149.788 173.009 143.488 173.048C141.662 173.048 139.837 172.891 138.011 172.852C136.617 172.852 134.085 173.166 132.868 172.302C132.711 172.184 132.574 172.047 132.515 171.87C132.358 171.458 132.319 170.948 132.221 170.496C131.691 167.886 131.749 165.393 131.691 162.743C131.612 160.211 131.553 157.679 131.514 155.127C131.435 152.32 131.337 149.513 131.161 146.706C130.827 141.073 130.061 135.498 129.315 129.904C133.123 129.02 137.187 128.765 141.054 128.373C146.687 127.823 152.34 127.195 157.993 126.881C160.427 126.763 162.842 126.861 165.256 126.744Z" fill="#D5EEC7"/>
<path d="M163.862 132.024C164.549 131.965 165.099 131.965 165.766 132.201C166.512 132.475 167.16 132.966 167.493 133.692C167.886 134.517 167.827 135.518 167.493 136.362C166.924 137.716 165.746 138.364 164.451 138.894C163.685 139.09 162.939 139.13 162.194 138.776C161.507 138.443 161.055 137.814 160.82 137.108C160.506 136.146 160.643 135.047 161.114 134.163C161.742 132.946 162.645 132.436 163.862 132.024Z" fill="#151314"/>
<path d="M163.431 133.594C163.98 133.555 164.608 133.496 165.119 133.771C165.354 133.889 165.531 134.066 165.59 134.34C165.708 134.851 165.354 135.322 165.06 135.695L164.844 135.793C164.648 135.793 164.53 135.773 164.373 135.675C163.921 135.42 163.274 134.792 163.215 134.223C163.215 133.909 163.293 133.83 163.431 133.594Z" fill="#D5EEC7"/>
<path d="M164.922 128.805C166.002 128.707 167.729 128.628 168.73 129.04C168.966 129.139 168.985 129.178 169.064 129.394C169.044 129.433 169.025 129.472 169.005 129.492C168.73 129.845 168.141 129.983 167.729 130.042C167.121 130.12 166.512 130.022 165.904 130.061C164.471 130.14 163.057 130.257 161.624 130.336C156.953 130.552 152.281 130.827 147.629 131.121C146.726 131.18 145.352 131.553 144.508 131.219C144.253 131.121 143.958 130.866 143.88 130.591C143.801 130.336 143.86 130.277 143.998 130.042C145.352 129.198 161.919 129.06 164.922 128.805Z" fill="#151314"/>
<path d="M138.227 164.353C138.266 164.372 138.325 164.392 138.364 164.411C138.56 164.51 138.737 164.627 138.796 164.843C139.012 165.57 138.325 166.649 137.972 167.258C137.363 168.278 136.323 170.084 135.086 170.398C134.772 170.359 134.772 170.359 134.556 170.143C134.497 169.947 134.478 169.79 134.537 169.593C134.851 168.2 136.951 165.098 138.227 164.353Z" fill="#151314"/>
<path d="M139.974 166.041C140.033 166.041 140.111 166.041 140.17 166.061C140.464 166.1 140.484 166.159 140.661 166.375C140.7 166.532 140.72 166.669 140.7 166.846C140.464 168.161 139.032 170.085 137.932 170.811C137.657 170.752 137.442 170.654 137.304 170.399C137.167 170.143 137.206 169.829 137.265 169.555C137.618 168.2 138.816 166.748 139.974 166.041Z" fill="#151314"/>
<path d="M136.578 161.801C136.853 161.801 137.128 161.86 137.324 162.076C137.54 162.311 137.56 162.645 137.52 162.939C137.363 164.235 136.382 165.668 135.4 166.472C135.224 166.629 135.086 166.649 134.87 166.708C134.674 166.512 134.694 166.374 134.674 166.1C134.556 164.765 135.754 162.782 136.578 161.801Z" fill="#151314"/>
<path d="M143.742 166.512C143.899 166.59 144.135 166.708 144.194 166.885C144.311 167.159 144.213 167.434 144.096 167.689C143.624 168.749 142.702 169.652 141.642 170.065C141.622 170.065 141.583 170.065 141.563 170.065C141.387 170.025 141.308 169.947 141.171 169.809C141.171 169.711 141.151 169.692 141.171 169.593C141.406 168.514 142.859 167.101 143.742 166.512Z" fill="#151314"/>
<path d="M168.318 137.756C168.435 137.775 168.494 137.775 168.612 137.795C168.867 137.874 168.985 138.031 169.122 138.227C169.24 139.13 168.455 140.013 167.964 140.7C167.925 140.72 167.905 140.739 167.866 140.739C167.65 140.759 167.552 140.72 167.375 140.602C167.317 140.425 167.277 140.288 167.277 140.092C167.297 139.385 167.847 138.247 168.318 137.756Z" fill="#151314"/>
<path d="M145.803 167.689C145.98 167.788 146.078 167.905 146.196 168.082C146.235 168.278 146.255 168.396 146.176 168.592C145.98 169.221 145.018 169.947 144.449 170.222C144.37 170.182 144.233 170.123 144.174 170.084C143.997 169.947 143.978 169.79 144.017 169.574C144.096 168.848 145.214 168.043 145.803 167.689Z" fill="#151314"/>
<path d="M140.013 130.709C140.268 130.709 140.543 130.69 140.759 130.807C140.896 130.886 140.857 130.886 140.896 131.063C140.759 131.416 140.504 131.573 140.229 131.808C140.033 131.828 139.856 131.867 139.679 131.769C139.542 131.71 139.562 131.632 139.542 131.494C139.64 131.161 139.778 130.984 140.013 130.709Z" fill="#151314"/>
<path d="M137.893 130.807C138.089 130.807 138.227 130.826 138.403 130.885C138.6 130.964 138.521 130.905 138.619 131.101C138.482 131.435 138.207 131.611 137.932 131.827C137.716 131.925 137.598 131.965 137.363 131.945L137.245 131.768C137.324 131.278 137.52 131.081 137.893 130.807Z" fill="#151314"/>
<path d="M168.573 135.479C168.848 135.557 168.946 135.596 169.123 135.812C169.28 136.362 169.064 136.715 168.809 137.186L168.671 137.167C168.593 137.068 168.495 136.951 168.436 136.853C168.259 136.381 168.396 135.91 168.573 135.479Z" fill="#151314"/>
<path d="M133.79 131.416C133.947 131.416 134.104 131.416 134.261 131.436C134.497 131.475 134.595 131.514 134.732 131.71C134.732 132.005 134.575 132.142 134.418 132.358C134.202 132.397 134.006 132.456 133.79 132.378C133.633 132.339 133.633 132.26 133.555 132.123C133.555 131.828 133.653 131.652 133.79 131.416Z" fill="#151314"/>
<path d="M113.494 100.99C113.631 100.99 113.749 100.99 113.887 100.99C114.161 101.01 114.397 101.128 114.574 101.363C114.75 101.599 114.77 101.893 114.731 102.188C114.632 103.13 112.984 106.742 112.297 107.311C112.081 107.35 111.865 107.37 111.649 107.37C111.374 107.252 111.256 107.173 111.099 106.918C110.687 106.192 111.06 104.818 111.256 104.072C111.61 102.678 112.257 101.717 113.494 100.99Z" fill="#D5EEC7"/>
<path d="M37.6289 51.5059C38.0215 51.5059 41.4173 52.3303 41.8295 52.5266C42.3398 52.7621 42.7913 53.4099 42.9483 53.9202C43.2035 54.7446 42.9876 55.6279 42.595 56.3542C41.8687 57.7086 40.7891 58.3563 39.3759 58.8078C38.5318 58.9452 37.8055 58.9452 36.9811 58.6704C35.9408 58.3367 34.8416 57.6497 34.3705 56.629C34.0564 55.9616 33.9975 55.1765 34.2723 54.4895C34.7631 53.2136 36.4315 52.0751 37.6289 51.5059Z" fill="#151314"/>
<path d="M38.6887 53.7246C39.4739 53.6854 40.8283 53.4498 41.476 53.9406C41.692 54.2939 41.692 54.5294 41.6135 54.922C41.3975 55.9427 40.8479 56.7475 40.0039 57.3167C39.945 57.3364 39.9057 57.356 39.8468 57.356C39.2187 57.5327 38.5513 57.5523 37.9821 57.199C37.5306 56.9242 37.2362 56.4727 37.1184 55.9623C37.0007 55.3931 37.0792 54.7846 37.4325 54.3135C37.7662 53.8424 38.1195 53.8032 38.6887 53.7246Z" fill="#D5EEC7"/>
<path d="M66.1097 46.5596C66.3256 46.5792 66.5416 46.5988 66.7379 46.6773C67.2286 46.9129 67.5426 47.4232 67.6997 47.914C68.1511 49.3272 67.8567 51.1135 67.1697 52.4286C66.7182 53.3119 66.0312 54.0578 65.0301 54.3719C64.0291 54.6859 63.0673 54.4308 62.1643 53.94C61.124 53.253 59.8481 52.252 59.5929 50.9761C59.4752 50.3283 59.6322 49.7002 60.0248 49.1702C61.2418 47.5803 64.2254 46.8147 66.1097 46.5596Z" fill="#151314"/>
<path d="M64.2456 48.7775C64.5793 48.7579 64.9129 48.7383 65.227 48.7383C65.5803 48.7579 65.9533 48.8953 66.1692 49.1897C66.444 49.5431 66.4833 49.9356 66.4244 50.3675C66.2281 51.5452 65.5411 52.4678 64.5793 53.1352C64.4811 53.1548 64.383 53.1548 64.2848 53.1548C64.1867 53.1548 64.0885 53.1548 63.9904 53.1352C63.8922 53.1155 63.7941 53.0959 63.7156 53.0763C63.6174 53.0566 63.5389 53.0174 63.4408 52.9781C62.9697 52.7622 62.636 52.3696 62.479 51.8789C62.263 51.2311 62.3612 50.5049 62.6753 49.916C63.0482 49.2486 63.5389 49.0131 64.2456 48.7775Z" fill="#D5EEC7"/>
<path d="M92.6288 43.2033C93.2765 43.1444 93.9439 43.1444 94.5917 43.2425C95.5338 43.3799 96.0835 43.7529 96.6527 44.4988C96.8882 45.7354 96.6723 47.1487 96.1227 48.2872C95.5535 49.4453 94.6702 50.1715 93.4728 50.6034C92.6484 50.6623 92.0203 50.5641 91.3136 50.1323C90.2929 49.5042 89.4685 48.346 89.2133 47.1683C89.017 46.3439 89.1348 45.4606 89.6255 44.7343C90.3126 43.694 91.4707 43.4192 92.6288 43.2033Z" fill="#151314"/>
<path d="M93.4926 44.7932C93.8067 44.7344 94.2974 44.7344 94.6114 44.8718C94.9059 45.0092 95.1022 45.2447 95.1807 45.5588C95.3966 46.285 95.1218 47.188 94.7685 47.8161C94.3563 48.562 93.9048 49.0331 93.0804 49.2686C92.8056 49.1901 92.5308 49.092 92.2756 48.9153C91.6671 48.5031 91.1764 47.8946 91.0782 47.1683C90.9997 46.6384 91.1175 46.128 91.4316 45.6962C91.9812 44.9895 92.6878 44.8718 93.4926 44.7932Z" fill="#D5EEC7"/>
<path d="M177.171 137.363C177.25 137.363 177.348 137.363 177.426 137.363C177.721 137.383 177.838 137.403 178.035 137.599C178.31 138.482 178.368 139.464 178.545 140.367C179.193 143.684 179.801 147.04 180.037 150.417C180.174 152.497 180.135 154.597 180.115 156.678C180.096 158.543 180.115 160.545 179.782 162.371L179.507 162.488L179.369 162.371C179.212 161.821 179.212 158.504 179.114 157.522C178.957 155.716 178.682 153.93 178.506 152.124L177.74 144.332C177.505 142.074 177.014 139.64 177.171 137.363Z" fill="#151314"/>
<path d="M28.128 145.019C28.9328 145.529 29.4628 146.471 29.9928 147.237C31.1116 148.866 32.5249 150.299 34.3504 151.123C35.8814 151.81 37.9032 152.163 39.5717 151.771C40.1998 151.614 40.8279 151.319 41.4561 151.104C41.986 150.907 42.5356 150.652 43.0853 150.907C43.2619 151.162 43.2619 151.221 43.2815 151.516C43.1441 151.849 42.9479 152.026 42.6927 152.262C41.1027 153.282 39.4343 153.734 37.5499 153.616C34.7822 153.439 32.0146 152.163 30.1694 150.083C29.345 149.16 27.6766 146.569 27.8336 145.352C27.8336 145.215 28.0103 145.136 28.128 145.019Z" fill="#151314"/>
<path d="M25.5762 147.747C25.851 147.806 26.008 147.884 26.1847 148.1C26.7147 148.729 27.068 149.573 27.4606 150.299C28.128 151.555 28.8739 152.772 29.8553 153.832C30.9545 155.01 32.5837 155.599 33.9774 156.364C34.4681 156.619 34.9784 156.933 35.1355 157.483C35.0766 157.817 35.0177 157.876 34.8214 158.131C34.3896 158.386 34.0559 158.406 33.5652 158.288C31.1312 157.758 28.8346 154.931 27.598 152.929C26.9698 151.908 25.3014 148.886 25.5762 147.747Z" fill="#151314"/>
<path d="M170.065 117.126C171.792 117.146 173.402 118.049 174.619 119.226C175.561 120.129 176.739 121.7 176.7 123.074C176.7 123.368 176.543 123.702 176.287 123.859C176.052 124.016 175.914 123.996 175.659 123.957C175.11 123.584 174.933 122.877 174.717 122.269C174.56 121.876 174.403 121.484 174.148 121.13C173.147 119.638 171.164 118.284 169.319 118.853C168.691 119.05 167.945 119.894 167.258 119.658C167.042 119.58 167.003 119.481 166.905 119.305C166.885 118.912 166.983 118.618 167.219 118.284C167.867 117.479 169.123 117.244 170.065 117.126Z" fill="#151314"/>
<path d="M179.467 131.533C179.958 131.729 180.115 132.083 180.35 132.534C181.567 134.909 182.058 139.934 181.842 142.565C181.763 143.487 181.567 144.331 181.292 145.215C181.214 145.332 181.135 145.391 181.017 145.47C180.723 145.529 180.723 145.529 180.448 145.411C180.154 144.979 180.311 142.722 180.291 142.054C180.213 138.56 179.8 135.027 179.467 131.533Z" fill="#151314"/>
<path d="M152.045 22.6514C152.83 22.6906 153.478 23.1225 154.008 23.6524C155.676 25.3209 156.481 28.7167 156.481 30.9937C156.481 31.6807 156.383 32.1518 155.892 32.6425C155.598 32.6425 155.245 32.6621 154.989 32.5051C154.832 32.3873 154.773 32.3284 154.734 32.1321C154.597 31.5433 154.616 30.817 154.577 30.1889C154.499 29.3448 154.342 28.5008 154.126 27.6764C153.949 26.9894 153.733 26.2238 153.36 25.635C152.948 24.9872 151.731 24.3591 151.633 23.6328C151.554 23.2402 151.829 22.9262 152.045 22.6514Z" fill="#151314"/>
<path d="M36.3924 144.018C36.5494 144.096 36.5102 144.057 36.5887 144.175C38.4731 146.766 40.0826 147.021 42.9485 146.118C43.5373 145.941 44.1066 145.706 44.7347 145.863C44.8525 145.961 44.931 146 44.9506 146.157C45.0095 146.609 44.6366 147.06 44.401 147.433C44.3814 147.472 44.3421 147.492 44.3225 147.531C43.4196 148.414 42.1044 148.591 40.8874 148.552C39.4153 148.493 37.9824 147.983 36.942 146.883C36.4317 146.334 35.7447 145.47 35.8821 144.646C35.9409 144.292 36.1176 144.233 36.3924 144.018Z" fill="#151314"/>
<path d="M144.979 32.6039C145.333 32.7217 145.765 32.6824 146.138 32.7021C147.139 32.7806 147.943 33.7816 148.473 34.5472C149.141 35.5286 149.455 36.7063 150.122 37.6878C150.417 37.8448 150.554 37.8841 150.888 37.8841C151.123 37.7663 151.202 37.7271 151.3 37.4522C151.614 36.5101 150.044 33.6639 149.474 32.8787C148.787 31.9562 147.865 31.171 146.707 31.014C146.471 30.9747 146.236 30.9551 146.02 30.9551C145.529 31.014 144.803 31.171 144.489 31.6225C144.371 31.7991 144.391 31.9758 144.469 32.1721C144.548 32.388 144.744 32.5254 144.979 32.6039Z" fill="#151314"/>
<path d="M148.787 27.4809C149.573 27.4613 150.044 27.638 150.633 28.168C151.869 29.2868 153.243 31.6619 153.263 33.3696C153.263 33.8211 153.086 34.0566 152.772 34.3707C152.478 34.3707 152.183 34.3903 151.928 34.2137C151.85 34.1548 151.791 34.0959 151.751 34.0174C150.966 32.8789 151.123 31.4852 150.122 30.2682C149.73 29.7775 148.513 29.0316 148.434 28.482C148.414 28.1287 148.591 27.7754 148.787 27.4809Z" fill="#151314"/>
<path d="M146.648 55.2754C146.53 54.2351 146.177 53.1751 145.941 52.3114C145.392 50.3878 144.724 48.5034 143.998 46.6387C143.272 44.7739 142.487 42.9092 141.702 41.0641C140.936 39.2975 140.269 37.5112 138.62 36.412C135.46 34.2921 130.768 34.9791 127.196 35.1754C122.897 35.4109 118.618 35.6661 114.319 35.9017C111.846 36.0391 109.373 36.1765 106.899 36.412C104.426 36.6476 101.953 37.099 99.4797 37.2757C98.145 37.3738 98.1057 39.4349 99.4797 39.376C101.56 39.2975 103.641 39.4349 105.722 39.4349C107.743 39.4152 109.746 39.3367 111.767 39.2386C115.87 39.0619 119.972 38.7871 124.055 38.5712C126.077 38.4534 128.079 38.3357 130.081 38.1983C131.867 38.0805 133.732 37.8842 135.499 38.2964C136.186 38.4534 136.873 38.6693 137.403 39.1797C138.031 39.8078 138.345 40.75 138.679 41.5352C139.405 43.2625 140.131 44.9899 140.818 46.7565C141.486 48.4642 142.114 50.1915 142.644 51.9385C142.33 51.7618 142.016 51.6244 141.721 51.487C138.306 50.0345 134.38 49.8578 130.709 49.8578C122.642 49.8578 114.535 49.9756 106.585 51.5263C105.427 51.7422 105.938 53.4303 107.056 53.2536C114.241 52.1937 121.562 52.1151 128.805 52.017C132.24 51.9777 135.793 51.8992 139.15 52.7236C140.622 53.0966 142.114 53.7051 143.252 54.7454C143.311 54.8043 143.37 54.8632 143.429 54.9221C143.763 56.198 144.234 57.4542 145.254 58.1805C145.294 58.2786 145.333 58.3768 145.372 58.4749C145.49 58.7693 145.765 58.9656 146.059 59.0049C146.157 59.2012 146.255 59.3778 146.412 59.5349C146.628 59.7704 146.982 59.6723 147.158 59.4367C147.983 58.3768 147.335 56.6102 146.648 55.2754Z" fill="#151314"/>
<path d="M78.0247 77.024C77.6321 75.1396 77.1806 73.2749 76.7684 71.4101C76.3562 69.565 75.944 67.7003 75.5122 65.8552C75.2962 64.913 75.0803 63.9904 74.8644 63.0482C74.7859 62.6753 74.6681 62.3023 74.3344 62.0864C74.0007 61.8705 73.6082 61.9097 73.2352 61.9883C71.3901 62.3219 69.5646 62.8519 67.7391 63.323C65.6584 63.853 63.5778 64.383 61.5167 64.913C61.1438 65.0111 61.3008 65.5607 61.6738 65.4822C63.46 65.0504 65.2462 64.5989 67.0128 64.1671C68.7794 63.7352 70.546 63.2641 72.3126 62.8716C72.7249 62.7734 73.1371 62.6753 73.5689 62.6164C73.7063 62.5968 73.883 62.5771 74.0007 62.6753C74.1185 62.7734 74.1578 63.009 74.1774 63.1464C74.3737 64.0297 74.5503 64.9326 74.727 65.8159C75.1 67.6218 75.5122 69.408 75.8851 71.1942C76.2777 73.0393 76.6703 74.9041 77.1021 76.7492C72.98 77.0633 68.8776 77.4362 64.7751 77.8877C64.1863 77.9466 63.5778 78.0251 62.9889 78.1036C62.6945 78.1428 62.4 78.1625 62.1252 78.2214C61.8112 78.2802 61.4971 78.398 61.2027 78.4765C60.9671 78.5354 61.026 78.8691 61.2616 78.8887C61.5167 78.8887 61.7719 78.9084 62.0271 78.928C62.3019 78.9476 62.5767 78.8887 62.8515 78.8691C63.3815 78.8102 63.9115 78.771 64.4415 78.7121C65.5014 78.5943 66.581 78.4962 67.641 78.3784C69.7805 78.1625 71.9004 77.9858 74.04 77.8092C75.2374 77.711 76.4347 77.6325 77.6321 77.5736C77.9069 77.554 78.0835 77.3184 78.0247 77.024Z" fill="#151314"/>
<path d="M70.9775 66.1107C71.0168 65.8359 70.5849 65.7967 70.5064 66.0519C70.2513 66.8763 69.7409 67.6614 69.2502 68.3484C68.7398 69.0747 68.151 69.7225 67.5032 70.3113C67.3462 70.4487 67.5817 70.6646 67.7191 70.5272C68.3865 69.9384 68.995 69.271 69.525 68.5644C69.7605 68.2307 69.9765 67.897 70.1727 67.5437C70.1531 67.6614 70.1531 67.7792 70.1335 67.8773C70.0746 68.5055 70.055 69.1336 70.0942 69.7617C70.1335 70.3702 70.2316 70.9787 70.3494 71.5872C70.4279 71.9013 70.5064 72.2153 70.6046 72.5098C70.6242 72.549 70.6438 72.6079 70.6438 72.6472C69.7016 72.9612 68.7987 73.3538 67.9154 73.7856C67.6014 73.9427 67.8762 74.4334 68.1902 74.2764C69.0539 73.8445 69.9372 73.4912 70.8598 73.1771C70.899 73.236 70.9383 73.2949 70.9972 73.3538C71.1934 73.5305 71.4683 73.4127 71.4879 73.1575C71.4879 73.0986 71.4879 73.0594 71.4879 73.0005C72.2534 72.7846 73.0386 72.6472 73.8041 72.392C74.0593 72.3135 74.02 71.9209 73.7452 71.9209C72.9208 71.9405 72.116 72.1564 71.3112 72.4116C71.2916 72.3724 71.2916 72.3331 71.272 72.2938C71.1738 71.9994 71.0953 71.705 71.0168 71.4105C70.8597 70.8217 70.7616 70.2328 70.7027 69.6439C70.6438 69.0551 70.6438 68.4662 70.6635 67.897C70.7616 67.3081 70.899 66.7192 70.9775 66.1107Z" fill="#151314"/>
<path d="M61.7328 75.2966C61.7721 75.7677 61.8113 76.2388 61.8506 76.7099C61.8899 77.1417 61.9291 77.6717 62.1843 78.0447C62.3021 78.2213 62.5769 78.1624 62.5965 77.9269C62.6161 77.495 62.4787 77.0436 62.4198 76.6117C62.3609 76.1406 62.3217 75.6696 62.2824 75.1985C62.1843 74.217 62.1058 73.2159 62.0076 72.2345C61.831 70.2716 61.6347 68.3087 61.458 66.3458C61.4384 66.0514 60.9673 66.0514 60.9869 66.3458C61.144 68.348 61.3206 70.3305 61.4776 72.3326C61.5758 73.3141 61.6543 74.3152 61.7328 75.2966Z" fill="#151314"/>
<path d="M83.6575 61.9101C85.6204 61.5568 87.5833 61.2035 89.5462 60.8502C90.5276 60.6735 91.5091 60.4968 92.5101 60.3202C93.3149 60.1828 94.1001 60.0454 94.9245 60.065C95.3563 60.065 95.8078 60.1043 96.22 60.2024C96.6519 60.3005 97.0641 60.4968 97.4959 60.6342C97.6333 60.6735 97.7118 60.4968 97.6333 60.3987C97.1229 59.7902 96.22 59.5939 95.4741 59.535C94.6301 59.4761 93.786 59.5743 92.9616 59.7117C90.9595 60.0454 88.977 60.4379 86.9944 60.8109C85.856 61.0268 84.6978 61.2231 83.5594 61.439C83.2061 61.4979 83.3435 61.969 83.6575 61.9101Z" fill="#151314"/>
<path d="M88.3694 66.091C88.5068 65.5218 89.0761 65.3255 89.6061 65.3647C90.2538 65.404 90.7053 65.8751 90.9997 66.4051C91.353 67.0528 91.4904 67.8184 91.6475 68.5446C91.8241 69.3887 91.9419 70.2523 91.726 71.0964C91.7063 71.1749 91.6867 71.2338 91.6671 71.3123C91.3727 71.3516 91.0782 71.4301 90.7838 71.5086C90.3716 71.6264 89.9594 71.803 89.5864 72.0386C89.2527 72.2349 88.8209 72.5097 88.7816 72.9415C88.7424 73.3537 89.0761 73.6285 89.449 73.6874C89.8416 73.7463 90.2538 73.6481 90.6071 73.4911C91.2745 73.1967 91.7652 72.5882 92.0597 71.9404C92.5896 71.8815 93.1393 71.8815 93.63 71.8815C94.6114 71.9012 95.5732 71.9601 96.5547 71.9993C97.0454 72.0189 97.5558 72.0582 98.0465 72.0975C98.3017 72.1171 98.5568 72.1367 98.812 72.1563C99.0672 72.176 99.3224 72.1563 99.5775 72.1367C99.8523 72.1171 99.9112 71.7441 99.6364 71.6656C99.1064 71.5086 98.5765 71.4497 98.0269 71.3908C97.4969 71.3319 96.9669 71.273 96.4369 71.2534C95.4162 71.1945 94.3759 71.1553 93.3355 71.1749C92.9822 71.1749 92.6093 71.1945 92.256 71.2338C92.413 70.4683 92.3541 69.6635 92.1971 68.9176C92.0204 68.0539 91.8045 67.1313 91.3923 66.3266C91.0193 65.6199 90.4108 65.0507 89.5864 65.031C88.9387 65.0114 88.2517 65.3647 88.1143 66.0321C88.1339 66.1499 88.3498 66.2088 88.3694 66.091ZM90.7053 72.6667C90.4501 72.8434 90.1753 72.9808 89.8612 73.0004C89.7435 73.02 89.6061 73.02 89.4883 72.9808C89.4687 72.9808 89.449 72.9415 89.4294 72.9415C89.449 72.9022 89.5472 72.8237 89.5668 72.8041C90.0771 72.3919 90.666 72.1563 91.2941 72.0189C91.1567 72.2741 90.9408 72.49 90.7053 72.6667Z" fill="#151314"/>
<path d="M102.266 74.9631C101.56 73.0002 100.853 71.057 100.304 69.0548C99.754 67.0527 99.2829 65.0309 98.9296 62.9699C98.8314 62.4006 98.7529 61.851 98.6548 61.2818C98.5762 60.6929 98.537 60.104 98.2818 59.5544C98.2033 59.3974 97.9285 59.4367 97.8892 59.6133C97.7715 60.1433 97.85 60.634 97.9285 61.164C98.007 61.694 98.0659 62.2043 98.164 62.7147C98.3211 63.755 98.5174 64.7757 98.7529 65.7964C99.2044 67.8575 99.754 69.8989 100.421 71.901C100.735 72.8628 101.069 73.805 101.462 74.7472C99.6166 74.7865 97.7715 74.8846 95.9263 75.1005C93.9242 75.3361 91.9417 75.6501 89.9788 76.082C88.8796 76.3175 87.7607 76.6119 86.6811 76.9064C86.426 76.9849 86.5241 77.3775 86.7989 77.299C90.6462 76.2586 94.5916 75.6305 98.5762 75.4342C99.7147 75.3753 100.853 75.3557 101.972 75.3753C102.149 75.395 102.345 75.179 102.266 74.9631Z" fill="#151314"/>
<path d="M85.3458 72.6661C84.9336 70.3303 84.3644 68.0337 83.6577 65.7568C83.2652 64.4613 82.7744 63.1854 82.2837 61.9291C82.2052 61.7328 81.9108 61.8114 81.9696 62.0076C83.5596 66.4241 84.5999 71.0762 85.1299 75.7479C85.2673 77.063 85.3262 78.3978 85.5028 79.7129C85.5421 80.1055 86.1113 80.1251 86.131 79.7129C86.1506 78.5156 86.0132 77.3182 85.8758 76.1208C85.7384 74.9823 85.5617 73.8242 85.3458 72.6661Z" fill="#151314"/>
<path d="M121.797 65.5603C121.247 66.0707 120.462 66.2866 119.756 66.424C119.324 66.5221 118.872 66.5614 118.421 66.6006C117.969 66.6399 117.538 66.6203 117.086 66.6988C116.811 66.738 116.89 67.0914 117.086 67.1699C117.891 67.5036 118.912 67.4054 119.736 67.2484C120.502 67.111 121.287 66.8754 121.915 66.4043C122.445 66.0118 122.916 65.4622 122.935 64.7555C122.955 64.0293 122.464 63.3815 121.797 63.1263C121.503 63.0086 121.169 62.9889 120.874 63.0478C120.992 62.8123 121.09 62.5571 121.149 62.2823C121.247 61.6934 121.13 61.0457 120.717 60.5942C120.344 60.182 119.795 60.0446 119.285 60.2605C118.813 60.4568 118.48 60.8886 118.578 61.4186C118.617 61.6149 118.892 61.5364 118.872 61.3401C118.813 60.9083 119.226 60.5942 119.599 60.5157C120.05 60.4372 120.423 60.7709 120.58 61.1438C120.953 62.0271 120.443 62.9104 119.834 63.5582C119.756 63.617 119.697 63.6956 119.638 63.7741C119.618 63.7937 119.599 63.8133 119.579 63.833C119.343 64.147 119.814 64.4218 120.07 64.2059C120.56 63.6956 121.326 63.4011 121.915 63.9311C122.425 64.4611 122.268 65.1285 121.797 65.5603Z" fill="#151314"/>
<path d="M129.648 70.9583C129.079 66.9344 128.51 62.9301 127.94 58.9062C127.783 57.7677 127.685 56.59 127.41 55.4907C127.352 55.2356 126.959 55.2552 126.92 55.4907C126.9 55.4318 126.841 55.373 126.763 55.3926C126.272 55.4318 125.801 55.6281 125.33 55.7459C124.859 55.8637 124.388 56.0011 123.897 56.1385C122.935 56.3937 121.954 56.6488 120.992 56.8844C119.068 57.3555 117.125 57.7873 115.162 58.1603C114.063 58.3762 112.944 58.5725 111.825 58.7688C111.609 58.808 111.707 59.1417 111.923 59.1025C115.869 58.4743 119.775 57.6695 123.642 56.6488C124.172 56.5114 124.721 56.374 125.251 56.217C125.762 56.0796 126.37 55.9618 126.841 55.7066C126.88 55.687 126.88 55.6674 126.9 55.6478C126.939 56.6292 127.136 57.6303 127.273 58.5921C127.41 59.6128 127.567 60.6335 127.705 61.6346C127.98 63.6564 128.274 65.6781 128.569 67.6803C128.706 68.6617 128.843 69.6628 129 70.6442C124.564 69.6628 119.932 69.6628 115.515 70.6246C114.357 70.8798 113.199 71.2135 112.08 71.6061C112.257 68.4262 112.237 65.2267 112.041 62.0468C111.982 61.085 111.904 60.1428 111.805 59.181C111.786 58.9258 111.374 58.9258 111.393 59.181C111.688 62.4786 111.786 65.8155 111.648 69.1328C111.609 70.0946 111.55 71.0368 111.491 71.9986C111.472 72.1753 111.688 72.3323 111.845 72.2734C116.183 70.7424 120.815 70.1535 125.408 70.6442C126.723 70.7816 128.019 71.0172 129.295 71.3116C129.511 71.3901 129.668 71.1742 129.648 70.9583Z" fill="#151314"/>
<path d="M49.6212 100.657C49.0716 98.1637 48.5023 95.6512 47.9331 93.1583C47.2854 90.3318 46.5983 87.5052 45.9506 84.6786C45.9113 84.5412 45.7347 84.4235 45.5973 84.4823C41.0826 86.2489 36.5483 88.0155 32.0337 89.8214C30.8756 90.2925 29.7175 90.8028 28.6575 91.4506C28.579 91.5095 28.6575 91.6273 28.736 91.588C29.7371 91.058 30.8167 90.6458 31.8767 90.2532C32.9955 89.841 34.1144 89.4288 35.2332 89.0166C37.4709 88.1922 39.689 87.3482 41.9267 86.5041C43.1044 86.0527 44.3018 85.6012 45.4795 85.1497C46.5198 89.8999 47.5209 94.6501 48.6005 99.3807C48.7379 99.9695 48.8949 100.558 49.0127 101.147C49.052 101.344 49.0912 101.599 48.9538 101.756C48.8164 101.893 48.5809 101.932 48.4042 101.991C47.2265 102.266 46.0291 102.364 44.8121 102.404C42.3585 102.502 39.8853 102.502 37.4316 102.561L33.2311 102.639C31.857 102.659 30.4241 102.6 29.0697 102.875C28.8931 102.914 28.8931 103.208 29.0697 103.248C30.3456 103.463 31.6411 103.365 32.9366 103.346C34.2125 103.326 35.4688 103.306 36.7446 103.267C39.2964 103.228 41.8678 103.208 44.4195 103.11C45.6562 103.071 46.8928 102.992 48.1098 102.776C48.6005 102.698 49.1894 102.619 49.5231 102.207C49.8567 101.756 49.739 101.187 49.6212 100.657Z" fill="#151314"/>
<path d="M37.2356 93.5906C37.5693 92.7858 37.903 91.9614 38.217 91.1566C38.3348 90.8622 37.8637 90.7248 37.7263 91.0192L36.529 93.9047C36.2345 94.5917 35.6849 95.5731 36.2934 96.2405C36.8234 96.8097 37.8048 96.6723 38.4722 96.5546C38.5704 96.5349 38.6685 96.5153 38.7666 96.4957C38.6292 96.8097 38.5115 97.1042 38.3741 97.4182C38.2367 97.7716 38.0796 98.1249 37.9422 98.4782C37.8245 98.7923 37.6085 99.1848 37.6674 99.5185C37.7067 99.7344 37.9619 99.7344 38.0993 99.6363C38.2367 99.5185 38.2956 99.3419 38.3544 99.1848C38.433 99.0082 38.4918 98.8315 38.5704 98.6549C38.7078 98.3408 38.8255 98.0071 38.9629 97.6734C39.1396 97.2023 39.3359 96.7312 39.5322 96.2601C40.0033 96.0638 40.4547 95.8087 40.7492 95.4161C40.8277 95.2983 40.6903 95.1413 40.5529 95.1805C40.3173 95.2591 40.0818 95.3572 39.8462 95.475C40.3958 94.1402 40.9455 92.8251 41.5343 91.5099C41.6521 91.2548 41.2791 91.0388 41.1614 91.294C40.494 92.6484 39.8462 94.0028 39.2377 95.3768C39.1789 95.5142 39.12 95.6713 39.0611 95.8087C38.8648 95.8676 38.6685 95.9264 38.4722 95.9657C38.1189 96.0442 37.7656 96.0835 37.4123 96.0835C37.1178 96.0835 36.7449 96.0442 36.6075 95.7498C36.4504 95.4357 36.6271 95.0431 36.7252 94.7487C36.9215 94.3561 37.0786 93.9635 37.2356 93.5906Z" fill="#151314"/>
<path d="M29.1874 98.8308C29.2267 99.3215 29.2856 99.7926 29.3248 100.283C29.3641 100.754 29.3641 101.265 29.4818 101.736C29.4818 102.089 30.0707 102.089 30.0903 101.697C30.11 101.186 29.9922 100.656 29.9333 100.146C29.8744 99.6552 29.8155 99.1841 29.7567 98.6934C29.6585 97.7904 29.5604 96.9071 29.423 96.0042C29.1678 94.3161 28.736 92.6477 27.7741 91.2148C27.6367 90.9988 27.2834 91.1951 27.4208 91.4111C28.3434 92.844 28.6967 94.532 28.9126 96.1809C29.0304 97.0642 29.1089 97.9475 29.1874 98.8308Z" fill="#151314"/>
<path d="M79.5758 96.2212C79.3206 95.8482 79.0851 95.4753 78.8888 95.0631C78.0644 93.3357 77.8288 91.3728 77.4559 89.5081C76.9848 87.1133 76.4941 84.7186 76.0033 82.3239C75.9837 82.1865 75.8267 82.1276 75.6893 82.1472C72.2542 82.9324 68.8191 83.7372 65.3841 84.6008C64.4026 84.856 63.4408 85.0916 62.4594 85.3467C62.3416 85.386 62.3809 85.5627 62.5183 85.543C65.9533 84.7382 69.408 83.9924 72.8627 83.2465C73.7656 83.0502 74.6489 82.8735 75.5519 82.6772C75.9248 84.6597 76.2781 86.6423 76.6511 88.6051C76.8474 89.6062 77.024 90.6269 77.2203 91.628C77.397 92.4917 77.5736 93.3553 77.8484 94.1994C78.1233 95.0238 78.4962 95.8286 79.0066 96.5352C79.1047 96.6726 79.2028 96.81 79.2617 96.9867C79.3402 97.183 79.301 97.2419 79.1047 97.3008C78.5943 97.3989 78.084 97.4578 77.5736 97.5559C75.5126 97.8896 73.4516 98.2037 71.3709 98.5374C69.0547 98.9103 66.7189 99.2048 64.4223 99.6758C64.1082 99.7347 64.1671 100.284 64.5008 100.245C66.6403 99.9899 68.7799 99.5973 70.9194 99.2636C73.059 98.9103 75.1985 98.5766 77.3577 98.2233C77.9073 98.1448 78.4569 98.0467 79.0066 97.9681C79.4188 97.9092 79.8506 97.7915 79.9291 97.3008C80.0076 96.9082 79.7917 96.5352 79.5758 96.2212Z" fill="#151314"/>
<path d="M66.8169 92.1185C66.7383 92.2952 66.7972 92.4915 66.9935 92.5504C67.7198 92.7663 68.2498 92.1578 68.9171 92.04C69.4668 91.9419 70.0556 92.1578 70.4482 92.5504C71.2334 93.3944 70.7426 94.8666 69.6238 95.0825C68.9564 95.2003 68.4068 94.8862 67.9161 94.474C67.759 94.3562 67.5235 94.4544 67.5824 94.6703C67.7787 95.3966 68.5835 95.7695 69.2705 95.8088C70.036 95.8677 70.7426 95.4947 71.1548 94.847C71.5474 94.2385 71.6456 93.4141 71.3708 92.7467C71.096 92.0597 70.4286 91.5493 69.7023 91.4119C69.3097 91.3334 68.8779 91.3334 68.5049 91.4708C68.1909 91.5886 67.8179 91.883 67.4646 91.9615C67.7002 91.1175 67.7983 90.2145 67.7787 89.3312C68.2694 88.8013 68.8779 88.3891 69.5649 88.1535C69.9575 88.0161 70.3501 87.918 70.7623 87.8787C71.1745 87.8394 71.6063 87.8787 72.0185 87.8198C72.1559 87.8002 72.1755 87.6039 72.0578 87.545C71.6652 87.3487 71.1352 87.3683 70.7034 87.4272C70.2519 87.4861 69.8004 87.6235 69.3882 87.8002C68.7797 88.0554 68.2301 88.4479 67.7787 88.919C67.7787 88.8601 67.7787 88.7816 67.759 88.7227C67.7394 88.5657 67.5235 88.5657 67.5235 88.7227C67.5235 88.8798 67.5431 89.0368 67.5431 89.1938C67.445 89.292 67.3665 89.4098 67.2879 89.5275C67.1898 89.6649 67.4057 89.8023 67.5235 89.6846C67.5039 89.9594 67.4646 90.2145 67.4254 90.4893C67.2683 91.0782 67.072 91.5886 66.8169 92.1185Z" fill="#151314"/>
<path d="M63.7153 95.4357C63.6172 94.9646 63.519 94.5132 63.4012 94.0421C63.1853 93.0606 62.9301 92.0988 62.675 91.137C62.1646 89.2133 61.5757 87.3093 60.928 85.4446C60.8691 85.2876 60.6139 85.3465 60.6728 85.5231C61.2421 87.4075 61.7524 89.3115 62.2235 91.2155C62.4591 92.1773 62.675 93.1391 62.8909 94.1009C62.989 94.572 63.0872 95.0235 63.1853 95.4946C63.2442 95.7498 63.2835 95.9853 63.3424 96.2405C63.362 96.3583 63.3816 96.4957 63.4209 96.6134C63.4601 96.7312 63.5386 96.7901 63.5975 96.8882C63.676 97.006 63.8331 96.9471 63.8527 96.8294C63.8723 96.7312 63.9116 96.6527 63.9116 96.5546C63.9116 96.4368 63.8723 96.319 63.8527 96.2012C63.8134 95.9264 63.7742 95.6713 63.7153 95.4357Z" fill="#151314"/>
<path d="M94.4933 84.9344C94.8662 84.5222 95.4158 84.2277 95.9851 84.3062C96.5739 84.3848 97.1039 84.8362 97.1039 85.4643C97.1039 85.6606 97.3787 85.6606 97.3983 85.4643C97.4376 84.8755 97.045 84.3062 96.5347 84.0118C95.9458 83.6781 95.2588 83.737 94.6895 84.0314C93.2763 84.797 93.0211 86.5243 92.9426 87.9768C92.8641 89.449 93.08 91.2352 94.611 91.9026C95.3177 92.2167 96.0832 92.0793 96.7113 91.6671C97.2806 91.2941 98.0657 90.7053 97.8891 89.9201C97.6928 89.0564 96.731 88.762 95.9654 88.9779C95.1999 89.1938 94.5129 89.6846 93.924 90.2145C93.6688 89.6257 93.61 88.9387 93.61 88.3302C93.6296 87.1917 93.6688 85.8177 94.4933 84.9344ZM95.6906 89.8416C96.1225 89.6257 96.7702 89.4294 97.1039 89.9005C97.4376 90.3519 96.6524 90.823 96.358 91.0389C95.9262 91.3334 95.4355 91.4708 94.9447 91.2549C94.6699 91.1371 94.4344 90.9604 94.2577 90.7445C94.7092 90.3716 95.1803 90.0771 95.6906 89.8416Z" fill="#151314"/>
<path d="M104.779 91.4708C104.701 91.0586 104.642 90.6268 104.563 90.2146C104.426 89.4098 104.289 88.605 104.132 87.8002C103.837 86.1514 103.562 84.5222 103.268 82.8733C103.131 82.0686 102.973 81.2638 102.836 80.459C102.758 80.0468 102.699 79.6149 102.62 79.2027C102.561 78.9083 102.483 78.6335 102.228 78.4568C101.972 78.2802 101.678 78.2998 101.384 78.3391C100.991 78.398 100.598 78.4765 100.186 78.555C99.401 78.6924 98.5962 78.8494 97.8111 79.0065C94.5919 79.6149 91.3728 80.2823 88.1733 80.9693C87.7807 81.0479 87.3881 81.146 86.9956 81.2245C86.8582 81.2638 86.917 81.4601 87.0544 81.4404C90.1362 80.8516 93.2376 80.2823 96.3193 79.7327C97.8503 79.4579 99.3814 79.2027 100.912 78.9476C101.187 78.9083 101.541 78.7905 101.815 78.8494C102.129 78.9279 102.129 79.4775 102.169 79.7523C102.286 80.5179 102.424 81.303 102.542 82.0686C103.052 85.1699 103.562 88.2517 104.092 91.353C104.132 91.5493 104.151 91.7456 104.19 91.9419C104.21 92.0597 104.269 92.2167 104.21 92.3148C104.171 92.3934 104.033 92.4326 103.935 92.4719C103.739 92.5504 103.543 92.6093 103.346 92.6682C102.64 92.9037 101.933 93.1196 101.207 93.3356C99.774 93.7674 98.3411 94.1403 96.8689 94.4544C93.7283 95.161 90.5484 95.6321 87.3293 95.8677C87.5844 94.8273 87.7218 93.7478 87.6826 92.6878C87.7807 92.9626 88.1733 92.8841 88.2126 92.5897C88.2518 92.1578 88.1733 91.726 88.134 91.3138C88.0752 90.9016 88.0163 90.4697 87.9574 90.0575C87.82 89.2331 87.6433 88.4087 87.447 87.5843C87.0544 85.9355 86.5245 84.3063 85.916 82.7359C85.8178 82.4808 85.386 82.5789 85.4841 82.8537C86.0926 84.424 86.5637 86.0336 86.9367 87.6824C87.1133 88.4872 87.2507 89.3116 87.3685 90.1164C87.4078 90.3127 87.4274 90.509 87.447 90.7249C87.4078 90.6071 87.3881 90.4894 87.3489 90.3716C87.3096 90.2146 87.0348 90.2342 87.0544 90.4108C87.1526 92.3345 87.1526 94.2385 86.6226 96.1229C86.5637 96.3191 86.7208 96.5351 86.9367 96.5351C90.0773 96.3191 93.2179 95.8873 96.2997 95.2396C97.8307 94.9255 99.3618 94.5329 100.873 94.1207C101.619 93.9048 102.365 93.6889 103.111 93.4533C103.484 93.3356 103.857 93.2178 104.21 93.0804C104.485 92.9822 104.76 92.8252 104.877 92.5308C104.956 92.2167 104.838 91.8241 104.779 91.4708Z" fill="#151314"/>
<path d="M133.83 86.8186C133.025 84.9538 132.692 82.932 132.456 80.9299C132.181 78.6922 131.946 76.4153 131.18 74.2561C131.141 74.1579 131.043 74.0402 130.925 74.0598C127.411 74.4524 123.937 75.0609 120.502 75.9049C119.54 76.1405 118.559 76.3956 117.597 76.6704C117.44 76.7097 117.499 76.9452 117.656 76.906C121.052 76.0227 124.506 75.3749 127.981 74.9235C128.884 74.8057 129.806 74.7075 130.709 74.629C131.848 78.28 131.534 82.2058 132.692 85.8568C132.829 86.3278 133.025 86.7597 133.202 87.2111C133.261 87.3486 133.339 87.5252 133.241 87.643C133.163 87.7411 133.006 87.8 132.888 87.8196C132.456 87.9374 131.985 87.8785 131.534 87.8982C130.984 87.9178 130.415 87.9178 129.865 87.9374C127.647 87.9767 125.409 88.0159 123.191 88.0356C121.974 88.0552 120.738 88.0552 119.521 88.0748C118.912 88.0748 118.304 88.0944 117.695 88.1141C117.734 87.8785 117.695 87.6626 117.656 87.4271C117.617 87.1719 117.597 86.9363 117.558 86.6812C117.479 86.1708 117.42 85.6801 117.342 85.1697C117.185 84.1687 117.028 83.1872 116.851 82.1862C116.498 80.184 116.046 78.2211 115.556 76.2582C115.516 76.1208 115.3 76.1797 115.34 76.3171C115.752 78.28 116.105 80.2821 116.439 82.2647C116.596 83.2461 116.753 84.2472 116.871 85.2286C116.93 85.739 116.989 86.2493 117.047 86.7401C117.087 86.9952 117.106 87.2504 117.126 87.5056C117.146 87.7215 117.165 87.9178 117.224 88.1141C116.733 88.1337 116.243 88.1533 115.752 88.1533C115.418 88.1533 115.399 88.6833 115.752 88.6833C116.91 88.7029 118.068 88.7618 119.226 88.7618C120.365 88.7618 121.523 88.7422 122.661 88.7422C124.958 88.7226 127.274 88.6833 129.571 88.6637C130.14 88.6637 130.709 88.6441 131.278 88.6244C131.789 88.6244 132.319 88.6441 132.809 88.5655C133.202 88.5067 133.595 88.3693 133.83 88.0356C134.144 87.6626 134.007 87.2308 133.83 86.8186Z" fill="#151314"/>
<path d="M124.31 82.2645C123.564 82.5394 122.857 82.9319 122.17 83.3049C121.915 83.4423 122.15 83.8152 122.386 83.6778C122.975 83.3638 123.564 83.0497 124.172 82.8338C124.113 83.1086 124.074 83.3834 124.054 83.6582C123.996 84.2667 123.917 85.0322 124.211 85.6015C124.29 85.7585 124.565 85.7389 124.604 85.5426C124.663 85.2481 124.643 84.9341 124.624 84.6396C124.624 84.3452 124.624 84.0508 124.643 83.7367C124.663 83.3638 124.722 83.0104 124.8 82.6375C124.977 82.5982 125.154 82.559 125.33 82.5197C125.782 82.4608 126.253 82.4412 126.685 82.5394C126.901 82.5786 127.136 82.6179 127.352 82.6964C127.568 82.7749 127.764 82.9319 128 82.9908C128.137 83.0301 128.255 82.873 128.196 82.7553C128.098 82.559 127.843 82.4216 127.646 82.3038C127.431 82.186 127.195 82.0683 126.959 82.0094C126.449 81.8916 125.9 81.8916 125.389 81.9701C125.232 81.9897 125.095 82.029 124.957 82.0683C124.977 82.029 124.977 81.9897 124.997 81.9309C125.35 80.7531 125.978 79.6539 126.802 78.751C126.94 78.5939 126.744 78.2995 126.567 78.4369C125.801 79.0061 124.8 79.1435 123.878 78.9669C123.74 78.9473 123.681 79.1435 123.819 79.1828C124.565 79.3398 125.271 79.2809 125.978 79.065C125.311 79.8502 124.82 80.7727 124.486 81.7542C124.408 81.9112 124.368 82.0879 124.31 82.2645Z" fill="#151314"/>
<path d="M43.2418 117.303C42.8688 116.734 42.1229 116.577 41.4948 116.753C40.8078 116.93 40.2582 117.46 39.9834 118.088C39.6497 118.834 39.6693 119.678 40.0815 120.385C40.3563 120.856 40.7685 121.209 41.2592 121.425C41.1218 121.504 41.0433 121.719 41.2004 121.837C41.4359 122.034 41.6714 122.21 41.907 122.387C41.7107 123.035 41.534 123.702 41.5144 124.35C41.4948 124.978 41.6911 125.704 42.3388 125.94C42.7314 126.077 43.1632 125.959 43.5558 125.842C43.9877 125.684 44.4391 125.508 44.8513 125.292C45.2243 125.096 45.4598 124.742 45.2635 124.33C45.0673 123.918 44.5962 123.663 44.2428 123.408C43.6736 122.995 43.124 122.563 42.5547 122.151C42.7903 121.327 43.0651 120.522 43.2614 119.698C43.438 118.932 43.6932 117.99 43.2418 117.303ZM44.1643 123.996C44.341 124.134 44.5569 124.252 44.7139 124.428C44.8906 124.625 44.7924 124.703 44.5765 124.821C44.3606 124.939 44.1251 125.037 43.8895 125.135C43.5166 125.272 42.967 125.547 42.5744 125.41C42.2799 125.312 42.1622 125.017 42.1229 124.742C42.064 124.389 42.1229 124.036 42.1818 123.702C42.2407 123.388 42.3192 123.074 42.3977 122.76C42.7903 123.035 43.1829 123.329 43.5951 123.604C43.7717 123.722 43.968 123.859 44.1643 123.996ZM42.8492 119.227C42.6529 120.09 42.3585 120.934 42.0837 121.798C41.9659 121.719 41.8677 121.661 41.75 121.582C41.8285 121.602 41.907 121.621 41.9855 121.621C42.2014 121.641 42.2407 121.268 42.0444 121.248C41.2985 121.15 40.6507 120.679 40.3367 119.992C40.0226 119.325 40.16 118.52 40.5919 117.931C40.9844 117.381 41.7107 116.989 42.3781 117.224C43.2221 117.499 42.9866 118.579 42.8492 119.227Z" fill="#151314"/>
<path d="M54.9996 124.86C54.8622 124.251 54.5874 123.663 54.3911 123.074C54.1752 122.465 53.9593 121.857 53.7238 121.229L52.389 117.558C51.3879 114.83 50.3868 112.121 49.3858 109.392C49.3269 109.235 49.1306 109.118 48.9736 109.235C47.2462 110.531 45.3226 111.571 43.3008 112.297C41.5538 112.945 39.7283 113.397 38.0599 114.221C37.1373 114.673 36.2737 115.261 35.5866 116.027C35.5081 116.105 35.6259 116.223 35.7044 116.145C37.0196 114.771 38.8254 114.143 40.6116 113.613C41.5146 113.338 42.4175 113.102 43.3204 112.808C44.3215 112.454 45.2833 112.062 46.2255 111.571C47.1873 111.08 48.1099 110.531 48.9932 109.903C50.6028 114.516 52.232 119.109 53.9004 123.721C53.9986 123.996 54.0967 124.271 54.1948 124.546C54.293 124.821 54.3911 125.115 54.3715 125.39C54.3519 125.841 53.9986 126.116 53.6452 126.312C53.1938 126.568 52.6834 126.725 52.1927 126.901C51.6235 127.098 51.0542 127.314 50.485 127.49C48.2277 128.236 45.9507 128.904 43.6345 129.433C42.339 129.748 41.0239 130.022 39.7087 130.258C38.3739 130.493 37.0392 130.69 35.724 130.945C35.4296 131.004 35.4885 131.495 35.8026 131.475C38.2758 131.298 40.7294 130.808 43.1438 130.258C45.5385 129.708 47.9136 129.061 50.2298 128.295C51.3683 127.922 52.5264 127.549 53.6256 127.078C54.0378 126.901 54.45 126.666 54.7445 126.312C55.0585 125.9 55.1174 125.39 54.9996 124.86Z" fill="#151314"/>
<path d="M37.236 127.627C37.2949 127.882 37.7463 127.843 37.7071 127.568C37.5304 125.959 37.1182 124.369 36.706 122.818C36.2938 121.248 35.8031 119.697 35.2535 118.166C34.9394 117.283 34.6057 116.419 34.2524 115.555C34.1542 115.3 33.742 115.418 33.8402 115.673C35.0179 118.696 35.9405 121.797 36.6471 124.958C36.863 125.841 37.0201 126.744 37.236 127.627Z" fill="#151314"/>
<path d="M73.3523 111.336C72.469 111.316 71.7427 111.826 71.1342 112.395C70.565 112.925 69.6424 113.711 69.9761 114.574C70.3294 115.477 71.4286 115.477 72.1942 115.163C72.9401 114.849 73.7841 114.378 74.1374 113.593C74.1571 113.554 74.1767 113.495 74.1963 113.436C74.7459 114.26 75.1974 115.163 75.3741 116.145C75.4329 116.498 75.4918 116.89 75.217 117.165C74.9422 117.42 74.53 117.617 74.1767 117.754C73.8234 117.892 73.4308 117.97 73.0578 118.068C72.6653 118.166 72.2334 118.166 71.8212 118.206C71.6249 118.225 71.5857 118.48 71.782 118.559C72.4297 118.814 73.2345 118.775 73.9019 118.598C74.5496 118.422 75.2955 118.107 75.747 117.597C76.2377 117.048 76.0414 116.262 75.8648 115.615C75.6685 114.928 75.3544 114.28 74.9815 113.671C74.7656 113.298 74.5104 112.965 74.2552 112.611C74.1767 112.219 73.9411 111.885 73.5682 111.689C73.6271 111.551 73.5682 111.336 73.3523 111.336ZM73.7252 112.847C73.7252 113.2 73.5682 113.514 73.3326 113.769C73.0578 114.044 72.6849 114.241 72.3316 114.417C71.9586 114.614 71.5072 114.829 71.0753 114.731C70.7416 114.653 70.4472 114.398 70.5453 114.025C70.6435 113.632 71.0164 113.298 71.2912 113.004C71.782 112.474 72.3708 111.944 73.1167 111.846C73.0971 111.905 73.0971 111.964 73.156 112.023C73.3523 112.278 73.5486 112.552 73.7645 112.827C73.7252 112.827 73.7252 112.827 73.7252 112.847Z" fill="#151314"/>
<path d="M83.5007 121.307C82.8137 119.305 82.1267 117.303 81.4985 115.281C80.8704 113.279 80.3012 111.257 79.7712 109.216C79.4964 108.195 79.2412 107.174 78.986 106.134C78.8094 105.466 78.5542 104.563 77.7101 104.563C77.2194 104.563 76.7091 104.878 76.238 105.054C75.7473 105.25 75.2369 105.447 74.7462 105.643C73.7255 106.055 72.7244 106.448 71.7037 106.86C70.6241 107.292 69.5642 107.704 68.4846 108.156C67.6209 108.529 66.7768 108.96 66.2076 109.746C66.1095 109.863 66.3254 109.981 66.4235 109.863C66.9535 109.176 67.7583 108.803 68.5435 108.489C69.4464 108.136 70.3493 107.822 71.2719 107.469C73.2151 106.742 75.1388 106.016 77.082 105.27C77.4353 105.133 77.8476 104.936 78.1224 105.309C78.3383 105.604 78.3775 106.016 78.4561 106.35C78.6523 107.331 78.8879 108.293 79.1038 109.255C79.5749 111.198 80.1049 113.141 80.6937 115.065C81.3022 117.087 81.95 119.108 82.6763 121.071C78.7701 121.857 74.7854 122.367 70.8204 122.779C69.6623 122.897 68.5238 122.975 67.405 123.231C67.1694 123.289 67.2479 123.623 67.4639 123.623C67.9742 123.643 68.4846 123.662 69.0145 123.604C69.5249 123.564 70.0352 123.525 70.5456 123.466C71.5859 123.368 72.6263 123.25 73.6666 123.113C75.708 122.858 77.7494 122.583 79.7908 122.249C80.9489 122.072 82.107 121.857 83.2651 121.68C83.4418 121.719 83.5596 121.464 83.5007 121.307Z" fill="#151314"/>
<path d="M67.7 121.248C67.7393 121.542 68.2104 121.464 68.2104 121.189C68.2104 120.384 68.1122 119.599 67.9945 118.794C67.8963 117.989 67.7785 117.184 67.6411 116.399C67.3663 114.829 67.0326 113.259 66.6204 111.708C66.3849 110.805 66.1297 109.922 65.8549 109.039C65.796 108.842 65.5016 108.921 65.5605 109.117C66.4634 112.199 67.0523 115.379 67.4056 118.559C67.5234 119.461 67.5823 120.364 67.7 121.248Z" fill="#151314"/>
<path d="M103.562 101.462C103.189 101.403 102.757 101.54 102.385 101.619C101.953 101.697 101.541 101.776 101.128 101.893C100.324 102.09 99.5187 102.306 98.7336 102.541C97.124 103.012 95.5537 103.562 94.003 104.19C93.1393 104.543 92.2757 104.897 91.412 105.289C91.1764 105.387 91.3727 105.721 91.6083 105.623C94.6115 104.308 97.7521 103.287 100.932 102.561C101.383 102.463 101.835 102.364 102.286 102.247C102.502 102.188 102.738 102.149 102.954 102.09C103.189 102.031 103.425 102.011 103.621 101.893C103.759 101.776 103.759 101.481 103.562 101.462Z" fill="#151314"/>
<path d="M93.6894 118.735C93.4539 117.086 93.1594 115.417 92.8257 113.788C92.4528 111.963 92.021 110.157 91.4321 108.41C91.0984 107.429 90.7254 106.447 90.2936 105.485C90.1955 105.25 89.8029 105.426 89.8814 105.662C91.2947 109.058 92.021 112.689 92.6098 116.301C92.7865 117.341 92.9239 118.362 93.1202 119.402C93.1791 119.775 93.7876 119.677 93.7679 119.304C93.7679 119.167 93.7483 119.029 93.7483 118.872C93.7483 118.813 93.7287 118.774 93.6894 118.735Z" fill="#151314"/>
<path d="M102.541 118.028C101.795 117.969 101.069 118.067 100.343 118.205C99.6166 118.342 98.8903 118.539 98.2033 118.774C96.8096 119.245 95.4749 119.893 94.2383 120.717C93.9831 120.894 94.2186 121.306 94.4934 121.149C95.7104 120.364 97.0256 119.756 98.3996 119.304C99.0866 119.088 99.7736 118.911 100.48 118.794C101.187 118.656 101.913 118.597 102.62 118.46C102.855 118.401 102.777 118.048 102.541 118.028Z" fill="#151314"/>
<path d="M128.53 108.49C128.373 108.431 128.236 108.372 128.059 108.391C127.883 108.411 127.726 108.411 127.549 108.45C127.431 108.47 127.333 108.49 127.235 108.509C127.274 108.431 127.333 108.333 127.353 108.234C127.372 108.117 127.372 107.979 127.372 107.861C127.392 107.587 127.392 107.331 127.412 107.057C127.451 106.507 127.49 105.957 127.569 105.427C127.706 104.348 127.922 103.288 128.197 102.248C128.275 101.973 127.863 101.776 127.726 102.051C127.196 103.131 126.293 103.955 125.174 104.407C124.938 104.505 125.036 104.858 125.272 104.78C126.077 104.485 126.783 104.014 127.353 103.406C127.196 104.053 127.078 104.701 126.98 105.369C126.901 105.899 126.842 106.448 126.803 106.978C126.783 107.253 126.764 107.508 126.764 107.783C126.764 107.92 126.744 108.077 126.764 108.195C126.783 108.333 126.862 108.431 126.921 108.548C126.921 108.548 126.921 108.568 126.94 108.568C126.823 108.607 126.705 108.627 126.587 108.666C125.959 108.882 125.37 109.177 124.821 109.55C124.585 109.707 124.801 110.08 125.036 109.922C125.566 109.589 126.136 109.334 126.764 109.157C127.058 109.078 127.372 109.02 127.667 108.961C127.824 108.941 127.961 108.921 128.118 108.902C128.275 108.882 128.413 108.804 128.55 108.745C128.668 108.686 128.629 108.529 128.53 108.49Z" fill="#151314"/>
<path d="M132.947 108.744C132.79 108.666 132.633 108.607 132.456 108.607C132.279 108.607 132.103 108.627 131.926 108.646C131.612 108.686 131.318 108.725 131.023 108.803C131.141 108.116 131.102 107.39 131.141 106.703C131.18 105.957 131.219 105.211 131.278 104.446C131.318 103.896 131.337 103.327 131.435 102.797C131.769 102.306 132.103 101.796 132.397 101.266C132.495 101.109 132.338 100.873 132.142 100.932C131.161 101.266 130.886 102.326 130.729 103.288C130.277 103.935 129.747 104.524 129.198 105.093C129.08 105.211 129.257 105.368 129.374 105.27C129.826 104.838 130.258 104.367 130.65 103.876C130.65 103.935 130.631 103.975 130.631 104.033C130.513 104.858 130.434 105.682 130.356 106.526C130.297 107.331 130.179 108.195 130.336 109C129.865 109.157 129.414 109.353 128.982 109.588C128.648 109.785 128.942 110.295 129.276 110.099C129.845 109.785 130.434 109.549 131.062 109.392C131.376 109.314 131.671 109.255 131.985 109.235C132.142 109.215 132.299 109.215 132.436 109.215C132.613 109.215 132.77 109.157 132.927 109.078C133.065 109.019 133.065 108.803 132.947 108.744Z" fill="#151314"/>
<path d="M141.093 96.2799C140.426 95.3378 139.327 95.0629 138.227 95.1218C136.932 95.2004 135.656 95.5929 134.38 95.8874C131.298 96.6333 128.217 97.3792 125.155 98.1447C123.408 98.5765 121.661 99.0084 119.933 99.4402C119.717 99.4991 119.796 99.8328 120.031 99.7739C120.071 99.7739 120.09 99.7543 120.13 99.7543C121.072 103.307 121.641 106.958 121.798 110.648C121.837 111.708 121.857 112.749 121.837 113.809C121.837 114.221 122.426 114.201 122.465 113.809C122.505 113.455 122.897 113.259 123.172 113.141C123.604 112.965 124.075 112.886 124.526 112.768C125.586 112.513 126.666 112.336 127.765 112.199C129.905 111.944 132.064 111.944 134.203 112.179C134.733 112.238 135.283 112.317 135.813 112.395C136.206 112.454 136.637 112.513 137.01 112.356C137.462 112.179 137.619 111.767 137.678 111.316C137.756 110.766 137.776 110.197 137.796 109.628C137.874 107.41 137.638 105.211 137.521 102.993C137.501 102.385 137.481 101.756 137.481 101.148C137.481 100.834 137.481 100.52 137.501 100.206C137.521 99.9309 137.56 99.6561 137.54 99.3813C137.521 99.1654 137.442 98.9298 137.246 98.8317C137.069 98.7336 136.834 98.7728 136.736 98.9495C136.637 99.1261 136.716 99.4206 136.893 99.4794C136.893 99.5187 136.893 99.5776 136.893 99.5972C136.873 99.8524 136.853 100.108 136.853 100.363C136.834 100.873 136.834 101.364 136.853 101.874C136.873 102.875 136.932 103.857 136.991 104.858C137.128 106.86 137.246 108.862 137.069 110.864C137.03 111.218 137.069 111.708 136.637 111.787C136.264 111.865 135.852 111.728 135.479 111.669C134.518 111.532 133.556 111.414 132.594 111.375C130.651 111.276 128.688 111.375 126.764 111.669C125.684 111.826 124.605 112.062 123.565 112.336C123.192 112.435 122.779 112.572 122.465 112.788C122.406 109.372 121.975 105.937 121.229 102.6C121.013 101.619 120.758 100.638 120.483 99.6561C123.329 99.0084 126.175 98.3606 129.021 97.6932L133.458 96.6529C134.792 96.3388 136.127 95.9659 137.481 95.75C138.62 95.5733 139.994 95.5733 140.877 96.4173C140.975 96.5744 141.211 96.437 141.093 96.2799Z" fill="#151314"/>
<path d="M99.1852 113.455C98.9104 113.376 98.6552 113.494 98.4196 113.612C98.243 113.69 98.0663 113.749 97.8897 113.828C98.0074 113.376 97.9289 112.807 97.9093 112.356C97.8897 111.806 97.8897 111.256 97.87 110.707C97.87 110.177 97.87 109.647 97.87 109.117C97.8897 108.548 97.9289 107.978 97.9093 107.429C97.8897 107.174 97.4971 107.095 97.4578 107.37C97.3793 107.802 97.1045 108.253 96.8493 108.606C96.5745 108.999 96.2212 109.333 95.8482 109.627C95.6912 109.745 95.8483 110 96.0053 109.882C96.4175 109.588 96.7904 109.254 97.1045 108.842C97.2026 108.724 97.2812 108.606 97.3597 108.489C97.3597 108.665 97.34 108.842 97.34 109.019C97.3204 109.588 97.3008 110.157 97.3008 110.707C97.3008 111.256 97.3008 111.806 97.3008 112.356C97.3204 112.886 97.2615 113.514 97.4971 114.004C97.0456 114.181 96.5942 114.377 96.1231 114.554C95.9857 114.613 95.9071 114.731 95.9464 114.868C95.9856 114.986 96.1427 115.104 96.2605 115.045C96.7904 114.829 97.3008 114.633 97.8308 114.417C98.0859 114.318 98.3411 114.22 98.5963 114.103C98.8515 114.004 99.1263 113.906 99.2833 113.651C99.3226 113.592 99.2833 113.474 99.1852 113.455Z" fill="#151314"/>
<path d="M101.776 111.001C101.6 110.805 101.266 110.707 101.03 110.608C100.775 110.491 100.5 110.353 100.265 110.196C99.7742 109.882 99.4013 109.431 99.3424 108.822C99.2639 108.174 99.5191 107.468 99.8724 106.918C100.206 106.408 100.873 105.996 101.443 106.427C101.639 106.585 101.914 106.231 101.717 106.074C101.089 105.564 100.245 105.76 99.6957 106.31C99.1265 106.879 98.7928 107.743 98.7339 108.547C98.675 109.352 99.0283 110.059 99.6565 110.55C99.9509 110.785 100.285 110.962 100.658 111.099C100.972 111.217 101.384 111.394 101.717 111.335C101.835 111.295 101.875 111.099 101.776 111.001Z" fill="#151314"/>
</svg>
