<svg width="69" height="104" viewBox="0 0 69 104" fill="none" xmlns="http://www.w3.org/2000/svg">
<path d="M23.7838 15.591C24.8697 15.5597 25.9678 15.6603 26.8893 16.2936C28.2717 17.2443 28.5395 18.8168 28.8468 20.3418C29.3629 20.1601 29.8817 19.9915 30.4287 19.9322C31.7886 19.7855 33.1745 20.2603 34.2227 21.1215C35.4955 22.1676 36.3536 23.7886 36.4923 25.4312C36.6463 27.2583 35.9828 28.5198 34.814 29.8363C34.0763 29.9019 33.427 29.9921 32.7244 30.2321C32.6689 31.4099 34.4013 33.4798 35.1106 34.4239C36.9335 36.8496 39.1234 38.9982 40.819 41.5224C48.3571 52.7452 52.3595 66.4533 55.7855 79.3838C56.5201 79.8906 57.2924 80.3577 58.0437 80.8402C58.5431 80.7157 59.0471 80.588 59.5555 80.5051C61.427 80.2003 63.8687 80.3959 65.3989 81.5762C67.5018 83.1983 66.626 85.042 67.1352 87.1841C67.3668 88.158 67.9197 89.0732 67.9949 90.0822C68.0088 90.2648 68.0136 90.4476 68.0092 90.6305C68.0048 90.8136 67.9913 90.9961 67.9686 91.1778C67.9462 91.3596 67.9147 91.5397 67.8742 91.7182C67.8338 91.8969 67.7847 92.0731 67.7268 92.2467C67.6688 92.4204 67.6023 92.5908 67.5274 92.758C67.4525 92.9249 67.3695 93.0878 67.2784 93.2467C67.1873 93.4055 67.0886 93.5595 66.9822 93.7086C66.8759 93.8575 66.7623 94.0009 66.6416 94.1387C64.7188 96.3255 62.1075 96.8131 59.363 96.9338C58.5677 97.8602 57.735 98.7273 56.7663 99.4747C54.9021 100.913 52.434 102.079 50.0322 101.956C49.2859 101.918 48.2745 101.682 47.5524 101.84C46.6354 102.041 45.6587 102.505 44.7826 102.847C41.966 103.947 39.7851 104.223 36.7802 103.836C35.6679 103.715 34.7127 103.197 33.7364 102.693C33.2296 102.904 32.7167 103.1 32.1979 103.28C28.4712 104.531 25.3251 103.282 21.9837 101.645C18.5768 102.302 15.4466 102.321 12.2395 100.85C9.59041 99.6346 7.53197 97.5692 6.5213 94.8126C5.77111 92.767 5.34104 89.8418 6.3524 87.8472C7.6648 85.2581 11.0246 84.4229 13.5679 83.5652C14.4936 79.4903 15.3943 75.3707 16.5256 71.3471C18.9108 62.8657 21.5634 54.9146 23.474 46.2137C23.8171 44.6508 25.538 37.4583 24.8034 36.3124C23.2909 36.5322 22.6139 39.234 20.3463 39.2885C19.5268 39.3079 18.8206 38.8237 18.2633 38.2671C16.3373 36.3436 16.2724 33.8318 16.303 31.2954C14.8567 30.6285 13.6511 30.0136 13.0445 28.4324C12.5198 27.0652 12.75 25.426 13.3573 24.1247C14.2026 22.3125 15.6215 21.3144 17.4385 20.6446C17.1052 19.7259 16.6411 18.7055 16.5146 17.7364C16.4469 17.2197 16.5146 16.6904 16.9092 16.3106C17.5824 15.6627 18.9809 15.6832 19.8649 15.6832C20.7188 15.6832 20.8839 15.8767 21.4499 16.4542C22.0416 16.5829 23.1865 15.8462 23.7838 15.591ZM12.5919 86.4363C10.9927 86.755 9.40833 87.2486 8.43478 88.6734C7.73626 89.6958 7.68076 90.8854 7.96447 92.0609C8.62726 94.8064 10.6458 97.1697 13.0625 98.5566C14.6011 99.4397 16.2163 99.9502 17.9768 100.166C18.6458 100.179 19.3651 100.205 20.0043 99.9734C21.144 99.5597 22.3136 98.2681 23.5625 98.6905C23.7838 99.0887 23.7921 99.464 23.8264 99.9065C24.689 100.971 27.4328 101.632 28.774 101.806C31.3814 102.145 33.2443 98.5067 34.7942 99.6498C35.0318 100.281 34.8404 101.101 35.2604 101.564C37.3011 102.351 41.4007 102.456 43.3918 101.575C43.8052 101.389 44.1971 101.164 44.5672 100.902C44.9374 100.64 45.2792 100.345 45.5925 100.017C46.2626 99.3283 47.5274 97.1114 48.4448 97.1624C48.7753 97.692 48.8086 97.9161 48.6616 98.5282C48.5513 98.9864 48.3193 99.464 48.4476 99.9322C49.0747 100.39 49.8182 100.296 50.5615 100.182C52.7243 99.8493 55.2975 98.7661 56.5939 96.9605C57.2099 96.1028 58.0825 93.0105 58.8875 92.8027C59.2801 93.3746 59.6658 94.496 60.2658 94.8147C61.4794 94.9864 63.0249 94.1623 63.9717 93.4551C64.9241 92.7431 65.7142 91.7782 65.8907 90.5723C66.0527 89.4662 65.633 88.7157 64.9598 87.8788C64.8771 87.7766 64.7931 87.6753 64.708 87.5749C64.9526 86.1928 65.1367 85.1711 64.3029 83.9211C63.7279 83.0592 62.6614 82.5178 61.659 82.3468C61.1308 82.2566 60.5811 82.3118 60.0501 82.351C59.7196 82.8019 59.8378 83.1327 59.875 83.6686C59.9398 84.6099 59.6911 85.4347 59.045 86.1415C55.2545 90.2885 32.466 93.8966 26.2546 93.9469C24.8721 93.9584 23.4831 93.907 22.1169 93.6851C20.278 93.3861 13.9594 91.7036 12.7154 90.4307C12.3158 90.0218 12.3026 89.3656 12.3321 88.8246C12.3751 88.0241 12.5302 87.2347 12.5919 86.4363ZM38.8071 42.5605C34.5771 51.3797 29.0885 60.569 20.4358 65.6632C19.4453 68.7861 18.6087 71.8826 17.8838 75.0769L19.9357 73.4423C25.6105 68.5766 30.41 62.6985 34.6104 56.5381C36.9498 53.1073 38.9656 49.606 41.6657 46.4207C40.9061 45.0199 40.1226 43.5264 38.8071 42.5605ZM30.4082 92.1431C31.1615 91.9859 31.9031 91.8236 32.6706 91.7508C34.8785 91.4074 37.1714 91.166 39.3336 90.5986C42.5057 87.0873 45.35 83.5801 47.6107 79.3887C49.0684 76.6865 50.2494 73.8481 51.6259 71.1074C51.3238 70.1138 50.9718 68.2426 50.0732 67.6606C50.0326 67.721 49.9913 67.781 49.9511 67.8417C48.3064 70.3479 47.217 73.2758 45.7975 75.918C42.1488 82.71 36.6241 87.7456 30.4082 92.1431ZM54.4602 86.3302C55.6353 85.8224 57.1381 85.3313 57.9854 84.3286C58.0298 83.9072 58.0368 83.8684 57.7499 83.5233C57.076 82.711 55.868 82.4744 54.9278 82.0794C53.9965 83.9714 52.92 85.675 51.6662 87.3682C52.5866 86.9999 53.5037 86.5934 54.4602 86.3302ZM25.1138 51.7345C28.5763 47.1307 31.6554 42.2227 35.02 37.5439C34.138 36.8735 33.3525 36.0661 32.4681 35.4109C31.5465 37.4489 30.5438 39.3953 29.2578 41.2308C27.8497 43.2406 26.0344 45.1229 25.0833 47.4075C24.2527 49.4038 23.979 51.6631 23.6024 53.7798C24.1053 53.1021 24.6425 52.4334 25.1138 51.7345ZM44.639 53.8398C38.7932 65.2179 32.5714 73.4964 22.5938 81.6774C20.1306 83.6974 17.006 85.2404 14.7287 87.2996C14.5595 88.0151 14.2355 88.9467 14.5928 89.6362C14.7159 89.8737 14.9087 89.8959 15.1383 90.001C15.4796 89.958 15.8219 89.9369 16.1483 89.8262C18.2556 89.1572 20.296 88.0994 22.2268 87.0242C31.5542 81.8297 38.8373 73.7201 43.721 64.2849C44.9118 62.0113 45.9241 59.6609 46.7582 57.2335C46.1588 56.0612 45.5505 54.8081 44.639 53.8398ZM23.8323 17.0903L21.9206 18.2418C20.9741 17.8804 19.3849 17.0317 18.3774 17.3372C18.1377 17.7371 18.1752 17.9536 18.2966 18.4038C18.5869 19.481 19.0572 20.4351 19.2476 21.5523C17.5269 22.4308 15.447 23.4387 14.8217 25.4351C14.5823 26.1995 14.6451 26.9923 15.0679 27.679C15.7713 28.8212 16.9432 29.2724 18.1335 29.7462C17.7777 32.1337 17.5027 33.8682 19.0044 35.9496C19.3728 36.4601 20.0668 37.331 20.7181 37.4673C21.1662 37.5609 21.5443 37.3719 21.8554 37.0563C22.6819 36.2173 22.1509 33.9151 23.6377 33.8589C23.688 33.8571 23.7376 33.8734 23.7876 33.8804C25.8561 34.677 27.6686 35.1841 29.8106 34.2008C30.2816 33.9848 30.6677 33.6539 30.8324 33.1434C31.4172 31.3339 29.0435 28.9894 28.5527 27.2587C30.0163 27.6405 32.3526 28.7261 33.7604 27.9877C34.2088 27.7526 34.5071 27.2753 34.5809 26.7814C34.754 25.6258 34.5043 23.9548 33.7354 23.0294C33.058 22.2137 31.961 21.8849 30.9403 21.8131C29.8415 21.7361 28.1112 22.2921 27.3242 21.332C26.017 19.737 27.4241 17.5606 24.4344 17.1063C24.2315 17.0754 24.0363 17.0834 23.8323 17.0903Z" fill="#F0DFE7"/>
<path d="M0 17.8309C0.285095 17.8125 0.564649 17.7921 0.850438 17.8146C3.00113 17.9825 5.39321 18.9491 6.74446 20.6485C4.96453 20.3191 2.88181 20.1158 1.26003 19.2924C0.532037 18.9231 0.267406 18.5915 0 17.8309Z" fill="#F0DFE7"/>
<path d="M22.4212 0C22.9428 0.151218 23.3271 0.303477 23.5824 0.813318C24.2053 2.0574 23.2453 3.94311 22.6987 5.08037C22.5214 5.2857 22.476 5.25136 22.2218 5.3079C22.0834 5.11887 21.9766 4.85563 21.911 4.62949C21.4841 3.15616 21.6807 1.32246 22.4212 0Z" fill="#F0DFE7"/>
<path d="M30.7865 1.21484C31.263 1.4115 31.4218 1.49439 31.708 1.95186C31.9941 3.58994 30.6522 5.10975 29.7806 6.37811C29.5292 6.66113 29.6919 6.5654 29.2701 6.62228L29.123 6.34689C29.174 4.59124 29.8413 2.68506 30.7865 1.21484Z" fill="#F0DFE7"/>
<path d="M4.7502 8.32422C5.32317 8.44422 5.74769 8.59093 6.21071 8.95683C7.44092 9.92935 8.34546 11.513 8.54523 13.0664C7.50543 12.3332 6.26862 11.6011 5.43622 10.6279C4.75574 9.83224 4.65517 9.35673 4.7502 8.32422Z" fill="#F0DFE7"/>
<path d="M12.4213 2.71484C12.7418 2.86017 12.6838 2.8175 12.9814 3.0204C14.65 4.1587 14.9525 6.9441 15.2722 8.76774C14.7492 8.27211 14.2962 7.73626 13.8728 7.15393C12.9367 5.86615 12.157 4.34044 12.4213 2.71484Z" fill="#F0DFE7"/>
<path d="M37.7001 9.12583C38.1773 9.09357 38.4614 9.11785 38.9292 9.2656L39.0229 9.57324C38.3663 10.8704 36.5531 11.547 35.2834 12.0978C34.9931 12.1949 34.6938 12.273 34.3996 12.3586L34.1523 12.1783C34.1645 12.1256 34.1704 12.0711 34.1891 12.0208C34.605 10.8981 36.7047 9.72307 37.7001 9.12583Z" fill="#F0DFE7"/>
</svg>
