<svg width="89" height="88" viewBox="0 0 89 88" fill="none" xmlns="http://www.w3.org/2000/svg">
<path d="M44.7936 23.4805C49.5406 25.9185 46.3546 31.7665 50.0606 34.4085C53.9836 37.2055 60.7086 35.2115 64.3846 37.9515L64.2166 38.8865C61.0476 42.4715 56.0656 44.9955 52.0396 47.4965C52.4566 50.7725 53.3596 53.6055 54.0546 56.8045C54.4956 58.8335 55.0796 61.1985 53.9216 63.0295C49.3596 62.6345 47.1396 56.1625 43.0216 54.7695L41.5536 55.7905C37.7306 59.6715 34.3576 63.0015 29.5076 65.5355C30.8176 59.3505 33.3936 53.7735 35.8996 48.0065C31.6956 44.6065 27.1386 41.9415 22.4746 39.2335C27.5076 37.3215 32.2756 36.7525 37.6226 36.2735C39.7586 31.9035 41.7586 27.3075 44.7936 23.4805ZM41.2596 42.5775C38.0276 41.3465 34.6876 40.9895 31.2816 40.5255C35.0286 42.2165 38.5546 43.6015 42.5886 44.4685C40.1836 47.5805 38.6846 50.4515 37.4756 54.2325C39.3846 52.1165 40.9966 50.1605 42.1916 47.5315C44.1776 47.4445 45.1496 48.1155 46.5906 49.4265C47.6756 50.4145 48.7166 51.4485 49.7816 52.4575C48.2596 49.6675 46.8716 47.0235 45.8776 43.9905C49.2646 42.7015 52.6046 41.4405 55.8236 39.7665C52.7006 39.6525 49.4456 39.6975 46.3536 39.2915C45.7216 37.4005 45.1726 35.4185 44.3916 33.5875C43.2496 36.5635 42.1776 39.5245 41.2596 42.5775Z" fill="#F0DFE7"/>
<path d="M46.0128 69C46.3018 69.158 46.6317 69.304 46.8627 69.553C49.5917 72.497 47.6078 83.462 47.1578 87.236C46.5258 86.919 45.9278 86.779 45.5448 86.146C43.1658 82.211 44.6558 73.204 46.0128 69Z" fill="#F0DFE7"/>
<path d="M25.6099 0C26.1179 0.256 26.3469 0.351 26.7899 0.638C30.8149 3.236 32.4219 10.831 33.3929 15.232C31.9979 14.836 31.365 14.774 30.335 13.636C27.452 10.45 25.5279 4.299 25.6099 0Z" fill="#F0DFE7"/>
<path d="M0 32.4141C5.898 32.9541 11.979 35.0211 16.546 38.8601C12.528 38.8101 7.41399 38.0131 3.74399 36.3551C1.60199 35.3871 0.832 34.6211 0 32.4141Z" fill="#F0DFE7"/>
<path d="M77.0498 48.1562C79.3818 48.3242 82.1468 49.0322 84.3188 49.9062C86.4108 50.7483 87.7478 51.4522 88.6348 53.5772C87.6595 53.6312 86.6861 53.6032 85.7148 53.4932C84.7441 53.3826 83.7895 53.1919 82.8508 52.9212C80.1168 52.1612 78.3948 50.5872 77.0498 48.1562Z" fill="#F0DFE7"/>
<path d="M72.7949 60.7227C76.9009 62.8727 80.1519 66.7677 82.5099 70.6707C81.8339 70.4957 81.1659 70.3356 80.5349 70.0246C76.8379 68.2056 73.9089 64.6397 72.7949 60.7227Z" fill="#F0DFE7"/>
<path d="M83.5909 28.2383C84.3909 28.3523 84.5869 28.4883 85.2379 28.9233L85.0999 30.0123C83.4369 31.9073 81.4079 33.0943 79.3059 34.4393C78.4899 34.2593 78.9299 34.4533 78.1279 33.6073C78.1609 33.4373 78.1709 33.2613 78.2259 33.0983C78.9459 30.9783 81.8049 29.4013 83.5909 28.2383Z" fill="#F0DFE7"/>
</svg>
