<svg width="62" height="67" viewBox="0 0 62 67" fill="none" xmlns="http://www.w3.org/2000/svg">
<path d="M41.2223 21.6289C41.8433 21.6909 42.5213 21.8969 43.1323 22.0349C46.2723 24.5549 46.9563 28.4679 48.1003 32.1569C51.2633 31.4289 56.6373 29.9499 59.6053 31.6539C60.8353 32.3609 60.8393 32.6889 61.1563 33.9719C59.8623 37.8539 55.7433 39.6509 52.3623 41.5039C53.2533 44.3729 53.8743 47.3169 54.8313 50.1709C56.2413 54.3719 59.2003 58.9519 58.9353 63.4289L58.3793 63.8719C58.2003 63.7969 58.0123 63.7389 57.8423 63.6459C55.6793 62.4609 55.1913 58.9899 54.5833 56.7959C52.1763 54.9079 49.3153 53.3569 46.7103 51.7349C45.5493 50.8659 44.4493 50.1219 43.1563 49.4619C39.4153 53.2829 38.8933 63.2109 34.0963 66.8679L33.3673 66.5159C31.8023 61.3089 33.2323 53.7919 33.9903 48.4419C31.3043 47.5869 26.8623 46.7069 24.9793 44.5839C24.0913 43.5809 24.2313 43.1759 24.4413 41.9849C27.1703 38.7549 31.6713 37.8029 35.5423 36.4999C36.6873 31.2189 38.4093 26.2529 41.2223 21.6289ZM39.7103 38.8529C36.8183 40.1499 33.9953 41.3409 30.9613 42.2689C33.0283 42.7109 35.3403 42.9259 37.0373 44.2549C38.1743 46.1039 37.4733 48.5349 37.1403 50.5539C37.0223 51.2669 37.0323 50.9759 37.1573 51.6869C38.9323 49.7909 39.6093 46.4459 41.1203 44.1389C42.0863 43.6749 42.2733 43.5089 43.3543 43.8539C45.3263 44.4839 47.4863 46.3239 49.2163 47.4809C48.4943 45.1719 47.4583 43.0959 48.6673 40.7679C49.4513 39.2559 52.6453 37.0449 52.7173 35.6439C50.0333 35.0479 45.2453 38.1779 43.6663 35.6939C42.7803 34.2999 42.5203 32.6969 41.8633 31.2149C40.8903 33.7239 40.3013 36.2379 39.7103 38.8529Z" fill="#F0DFE7"/>
<path d="M23.4725 0C24.1575 0.235 24.6635 0.426993 25.1275 1.02699C28.1255 4.90599 27.8055 13.967 27.3895 18.645C26.5475 18.525 26.1465 18.363 25.3975 18.002C22.0695 13.418 23.2875 5.45 23.4725 0Z" fill="#F0DFE7"/>
<path d="M9.172 49.1419C10.396 49.0989 11.375 49.2089 12.57 49.4729L12.895 50.0629C12.66 50.5129 12.639 50.6239 12.216 51.0259C9.998 53.1329 6.444 53.4739 3.574 53.6909C3.282 53.7059 2.989 53.7559 2.697 53.7369C1.332 53.6489 0.909 53.4349 0 52.5289L0.435997 51.6539C3.165 49.5569 5.871 49.3969 9.172 49.1419Z" fill="#F0DFE7"/>
<path d="M59.8358 0.183594C61.1378 0.598594 61.1898 0.488591 61.8508 1.66159C61.8248 5.03659 58.2728 8.77959 56.3608 11.3986L55.2488 11.3126C54.7018 10.8106 54.3298 10.7286 54.2898 9.9276C54.1218 6.6436 57.7858 2.61159 59.8358 0.183594Z" fill="#F0DFE7"/>
<path d="M7.56538 29.5898C8.58938 29.6118 9.69939 29.5728 10.6824 29.8848C11.7474 30.2238 11.7314 30.1829 12.2394 31.2289L11.4724 32.3018C9.86439 33.2368 8.52038 33.3439 6.68839 33.5069C5.62638 33.5489 4.50739 33.6368 3.44839 33.5408C2.24639 33.4318 1.58838 33.2158 0.817383 32.2668C0.883383 32.1378 0.930389 31.9979 1.01439 31.8799C2.33939 30.0129 5.49138 29.8308 7.56538 29.5898Z" fill="#F0DFE7"/>
</svg>
