<svg width="101" height="132" viewBox="0 0 101 132" fill="none" xmlns="http://www.w3.org/2000/svg">
<path d="M41.8763 0C41.9442 0.0274002 42.0127 0.0537049 42.0801 0.0827491C43.8606 0.850503 46.2869 8.84835 47.1248 10.9642C48.5145 10.8614 49.913 10.7527 51.3069 10.7206C52.4667 10.694 53.9965 10.6085 54.8905 11.4607C55.0103 11.8298 55.047 11.9172 54.8744 12.2931C54.1992 13.7637 49.8295 15.4422 48.2876 16.0751C49.1729 19.107 49.7922 22.3939 50.9663 25.3175C51.7927 27.375 52.9928 29.2796 53.9877 31.2587L61.5948 46.4455C65.324 53.9425 68.7257 62.3368 72.9319 69.4861C73.6736 69.5368 74.4228 69.5036 75.0001 70.0366C75.7128 71.7195 75.1771 74.1178 75.2124 75.9421C75.2557 78.1878 75.4388 80.4316 75.5029 82.6774C75.6081 87.3865 75.5898 92.0953 75.4481 96.8035C75.262 101.798 74.656 106.746 74.305 111.727C74.1011 114.622 74.1112 117.526 74.0238 120.426C79.853 120.496 85.6933 120.218 91.5241 120.166C93.6876 120.147 95.95 120.007 98.104 120.179C99.0249 120.253 99.9611 120.396 100.822 120.74L100.828 120.864C94.2331 121.833 86.1939 121.491 79.4715 121.587C77.5015 121.615 75.4703 121.576 73.5098 121.756C70.5889 122.022 67.5771 123.195 64.7368 123.934L48.3159 128.099C45.389 128.855 42.3076 129.853 39.2944 130.1C35.7874 130.389 31.7519 129.454 28.3063 128.831C26.4489 128.495 24.4607 127.639 22.566 127.757C19.6495 127.94 16.3776 129.082 13.4691 129.654C8.9985 130.533 4.52103 131.086 0 131.613C3.04553 129.606 8.67134 128.962 12.3213 128.013C14.8449 127.356 17.3361 126.522 19.8876 125.985C18.6204 123.339 17.7479 120.178 17.2199 117.305C15.9458 110.37 15.6951 103.255 15.1635 96.2366C14.5709 88.4084 13.7037 80.065 13.8053 72.2379C15.3197 71.3049 17.0881 70.8095 18.7626 70.2421C21.933 60.1048 25.8548 50.1591 29.6407 40.2388C30.848 37.076 32.2377 33.9505 33.3348 30.7507C34.8172 26.4269 35.2854 21.8933 36.6247 17.5507C34.4612 17.2561 30.9759 17.503 29.1927 16.0823C28.9872 15.9184 28.7894 15.6595 28.7751 15.3915C28.7508 14.9356 29.0132 14.5492 29.3229 14.2382C31.2899 12.2638 36.7587 11.8374 39.4042 11.9095C39.5653 9.50623 40.5991 1.82622 41.8763 0ZM66.5452 66.1479C66.2901 67.3938 66.0293 70.222 65.0086 71.0265C64.8075 71.1849 64.6571 71.1441 64.4138 71.1575C62.9974 70.5331 60.9879 67.356 59.7596 66.1337C59.1474 67.4344 57.644 71.523 56.3669 71.9803C56.0435 72.096 55.6662 71.9792 55.3832 71.8077C53.982 70.9583 52.7317 69.0162 51.708 67.7149C50.538 69.4661 49.6215 71.6551 47.8545 72.8826C46.2417 71.3339 45.2292 69.2332 44.099 67.3237C42.8745 69.2417 41.0784 71.8663 39.1839 73.1193C37.9857 72.3908 36.9823 71.3863 35.9502 70.4448C35.3739 76.9809 35.563 83.5451 35.7049 90.0973C35.8866 98.5015 36.1072 106.896 37.2799 115.233C37.8843 119.531 39.6626 124.113 40.0766 128.126C42.6588 127.49 45.2983 126.939 47.8465 126.184C46.7686 125.342 46.6088 124.382 46.4559 123.067C46.1304 120.266 46.2091 117.379 46.1976 114.562C46.1699 107.869 46.2589 102.135 47.4933 95.5185C48.5452 91.3147 49.8218 86.5616 53.7455 84.1202C54.6511 83.5566 55.6945 83.2569 56.751 83.5248C59.2735 84.1649 61.4159 87.7557 62.5837 89.8669C67.1053 98.0406 69.4896 112.09 68.0215 121.261C69.5044 120.874 70.9739 120.538 72.4776 120.239C72.9508 110.454 74.1507 100.731 74.3578 90.9319C74.4995 84.246 73.5608 77.5335 73.952 70.8605C73.1037 70.9824 72.525 71.149 71.7861 70.5843C69.962 69.1907 68.4388 67.4905 66.5452 66.1479ZM30.3334 76.9285C30.212 78.4994 29.7769 79.6688 28.8672 80.9553C27.2648 79.4266 26.1628 77.5552 24.9558 75.7155C24.5837 76.8017 23.9941 79.3937 22.9162 79.9099C22.7222 80.0031 22.5263 79.9951 22.3257 79.9102C21.3031 79.4767 20.1978 76.8784 19.7262 75.8835C18.2392 77.0118 16.756 78.1432 15.5132 79.5466C15.9682 89.6686 16.7887 99.7609 17.9748 109.824C18.3376 112.707 18.5025 115.659 19.1004 118.506C19.7465 121.294 20.546 123.632 22.1314 126.035C24.3708 126.496 26.6574 126.771 28.9182 127.108C32.1714 127.592 35.398 128.092 38.6833 128.301C37.9038 125.11 37.0278 121.911 36.4743 118.672C34.8747 109.31 34.5314 99.5477 34.3708 90.0623C34.3157 86.8131 34.1557 83.5544 34.27 80.3053C34.3012 79.4124 34.7155 75.3541 33.9634 74.8017C33.893 74.7497 33.8113 74.7151 33.7351 74.6718C33.7074 75.8594 34.0776 78.2067 33.4359 79.1759C33.1041 79.2874 32.9685 79.2721 32.6536 79.1022C31.7892 78.6356 30.9891 77.6533 30.3334 76.9285ZM48.9173 23.9648C48.1186 21.0033 47.0144 18.071 46.3743 15.0772C48.3666 14.3136 50.4961 13.6483 52.3155 12.5148C50.5714 12.6014 46.6135 12.9899 45.1602 12.175C45.0772 12.0098 45.0177 11.981 45.0624 11.7952C45.1383 11.4807 45.2161 11.1955 45.1596 10.8702C44.9262 9.52157 43.3751 4.93094 42.632 3.80342C42.4941 3.59436 42.5484 3.65546 42.401 3.52888C41.8206 6.77415 41.4968 10.0792 40.7534 13.2935C37.8386 13.8785 34.698 14.3593 31.8755 15.2803C33.2523 15.1819 37.1799 14.8019 38.2205 15.688C38.5833 15.9971 38.7113 16.3623 38.7151 16.8251C38.7239 17.9754 38.1863 19.2396 37.9249 20.3625C37.7079 21.2999 37.5564 22.2479 37.4703 23.2063C37.5037 23.1798 37.5374 23.1537 37.5703 23.1269C38.7874 22.1344 42.2347 17.9499 43.5121 18.0118L43.777 18.2091C45.5087 20.1115 47.1807 22.0667 48.9173 23.9648ZM36.5823 44.8854C33.9949 45.1657 31.4316 45.4419 28.9026 46.0836C27.4095 49.3031 26.4395 52.7424 25.2307 56.074C24.0379 59.3612 22.2325 63.5167 21.4544 66.8696C21.413 67.0475 21.3757 67.2258 21.3365 67.4039C21.7292 67.4894 21.9607 67.3311 22.3295 67.196C26.6409 65.3818 31.1351 63.9836 35.4079 62.0973C36.3727 58.5556 36.6354 54.6566 37.0462 51.0151C37.2618 49.1055 37.6246 47.0746 37.6002 45.1566C37.3788 44.8908 37.216 44.876 36.8823 44.8645C36.7442 44.8596 36.7053 44.8689 36.5823 44.8854ZM44.3343 64.8324C46.0408 66.3685 46.6491 68.5372 48.0323 70.2856L48.14 70.1355C48.9485 68.9995 50.3673 65.8493 51.4973 65.3328C52.604 65.4952 54.9536 69.1578 55.758 70.1634C56.4587 68.8923 58.3334 64.7338 59.3365 64.1798C59.9404 64.2102 60.1851 64.4499 60.5821 64.8878C61.814 66.2449 62.895 67.6952 64.1806 69.0181C64.5401 67.7881 64.8445 65.43 65.2355 64.4716C65.3533 64.1828 65.4629 64.1011 65.7032 63.9236C67.1023 63.8148 67.8941 65.6807 68.9257 65.866C68.8904 65.7281 68.8635 65.5843 68.8085 65.453L67.6442 63.0216C63.2882 63.8197 58.1829 63.306 53.7482 63.3402C48.7945 63.3789 43.8105 63.7499 38.8595 63.4958C38.5888 63.4803 38.3211 63.4429 38.0564 63.3835C37.7919 63.324 37.534 63.2432 37.2826 63.1413L37.3561 62.9725C40.1153 61.9234 62.8662 61.8354 67.1667 61.9458C63.1668 52.6243 58.6772 43.6989 54.06 34.6845C52.647 31.9256 51.3302 29.1168 49.89 26.3721C47.0322 25.5978 45.2358 22.3402 43.2846 20.2726C42.2911 21.2352 41.3116 22.2194 40.2649 23.1244C40.6742 24.0483 40.8008 24.8564 40.8186 25.8565C40.8959 30.2104 40.0029 35.4424 39.521 39.8243C38.811 46.2809 38.2753 52.7963 37.3999 59.2299C36.9862 62.27 36.3601 65.2728 35.8691 68.2999C37.0574 69.1471 38.0622 70.1725 39.079 71.2134C40.8836 69.1866 42.3525 66.6535 44.3343 64.8324ZM32.6561 43.0553C33.0093 42.6599 33.3844 42.2886 33.6072 41.8015L33.5113 41.5971C33.4373 41.6028 33.3633 41.6094 33.2893 41.6141C33.0688 41.6283 32.8759 41.6242 32.6575 41.6042L32.4087 41.3266C32.4405 41.2853 32.4731 41.2447 32.5038 41.2028C32.6386 41.0197 32.5923 41.0962 32.6758 40.8778C32.3388 40.5789 31.8938 40.663 31.5231 40.3704C31.0217 40.8504 30.5518 41.7601 30.5962 42.4794C30.6222 42.9046 30.7296 42.9997 30.994 43.3085C31.6338 43.523 32.0456 43.2885 32.6561 43.0553Z" fill="#F0DFE7"/>
<path d="M24.9414 86.4999C25.9196 86.4667 26.8988 86.5478 27.8751 86.6065C28.4672 88.5267 30.6373 95.3099 29.8707 96.9887C29.5506 97.6896 28.6286 97.9307 27.9606 98.1803C27.1178 98.374 25.5362 98.6771 24.7446 98.2981C24.2254 98.0496 23.9429 97.5748 23.7336 97.0594C22.8236 94.8211 22.7472 89.6838 23.7963 87.4967C24.0755 86.9145 24.3391 86.7048 24.9414 86.4999Z" fill="#F0DFE7"/>
<path d="M19.0602 105.021C19.3994 104.983 19.7512 104.943 20.0931 104.956C20.4159 104.968 20.7439 105.008 20.9754 105.25L20.6598 105.502C20.6647 105.82 20.6247 105.69 20.7762 105.965C21.1097 106.57 21.0691 106.794 20.9267 107.444C20.9141 107.501 20.9004 107.558 20.8872 107.615C21.718 108.867 20.9047 107.877 20.7557 108.734C20.8902 108.812 21.3314 109.042 21.3574 109.216C21.4234 109.654 20.9004 111.495 21.0231 111.735C21.1116 111.907 21.4037 111.885 21.5171 112.043C21.256 112.298 21.0445 112.501 20.8905 112.841C21.2653 112.89 21.3185 112.838 21.5445 113.133C21.4763 113.634 21.1782 113.694 20.9987 114.132C21.213 114.144 21.296 114.149 21.4938 114.246C21.6226 115.352 21.5188 116.561 21.7511 117.634C21.8229 117.966 21.8103 117.888 22.0646 118.052L22.0717 118.317C21.744 118.659 21.4692 118.685 21.0217 118.822L20.5195 118.73C20.4261 118.63 20.3074 118.549 20.2389 118.43C20.0375 118.081 19.5457 115.327 19.7085 114.913C19.8307 114.6 20.0214 114.744 20.0159 114.318C19.7435 114.212 19.598 114.144 19.4079 113.918L19.4547 113.596C19.6854 113.445 19.8109 113.36 19.9835 113.139C19.7054 112.909 19.5646 112.858 19.4734 112.501C19.5082 112.464 19.5435 112.428 19.578 112.39C20.0584 111.869 19.6158 111.907 19.5898 111.333C19.743 111.209 19.8879 111.084 20.0304 110.947C19.7931 110.885 19.6635 110.853 19.4805 110.678C19.327 110.532 19.3624 110.591 19.3638 110.394L19.9022 110.253C19.618 109.658 19.5309 109.154 19.4701 108.498C19.5446 108.326 19.5986 108.177 19.6501 107.995L19.2553 107.55L19.267 107.374L19.6643 107.196C19.4832 106.834 19.4073 106.79 19.492 106.401C19.4572 106.311 19.3876 106.137 19.3681 106.05C19.3059 105.774 19.3544 105.694 19.1659 105.451C19.1267 105.401 19.0815 105.356 19.0391 105.308L19.0602 105.021Z" fill="#F0DFE7"/>
<path d="M21.3905 119.759C22.2687 119.704 23.7321 119.749 24.5659 120.002C24.9268 120.111 25.0863 120.203 25.2775 120.523L25.1534 120.844C24.7172 121.228 24.3032 121.396 23.7645 121.603C23.4675 121.647 23.1132 121.601 22.8101 121.602C22.4008 121.604 22.1922 121.56 21.8366 121.352C21.7928 121.326 21.7497 121.299 21.7059 121.273C21.6418 121.236 21.5768 121.199 21.5127 121.161C21.4719 121.137 21.4319 121.111 21.3916 121.086L21.0253 121.363C20.6636 121.339 20.6729 121.326 20.4101 121.072C20.3915 120.883 20.4134 120.7 20.4836 120.521C20.677 120.026 20.9491 119.98 21.3905 119.759Z" fill="#F0DFE7"/>
<path d="M19.665 100.68C19.7058 100.696 19.7491 100.706 19.7878 100.727C20.3629 101.041 20.809 103.636 20.9766 104.33C20.7514 104.616 20.3067 104.709 19.9691 104.845C19.8075 104.706 19.7108 104.614 19.5883 104.445C18.8841 103.478 18.9225 102.164 19.0934 101.035L19.665 100.68Z" fill="#F0DFE7"/>
<path d="M27.5242 124.627C26.897 124.369 26.2038 124.624 25.6528 124.307C25.3295 124.121 25.256 123.89 25.1558 123.555C25.1938 123.309 25.2234 123.148 25.3941 122.952C25.6136 122.7 25.9284 122.56 26.2644 122.58C26.7894 122.612 27.1894 122.981 27.5497 123.323C27.6188 123.345 27.6875 123.367 27.7569 123.388C28.0681 123.478 28.3397 123.443 28.6581 123.415L28.8403 123.595L28.8353 124.021L28.6479 124.33C28.3029 124.556 28.138 124.747 27.698 124.679C27.6382 124.67 27.5823 124.644 27.5242 124.627Z" fill="#F0DFE7"/>
<path d="M28.8354 124.021C29.1431 123.932 29.3672 123.936 29.685 123.96C29.9714 124.177 29.9601 124.16 30.0221 124.514C29.8563 124.856 29.8771 124.848 29.5242 124.984C29.1373 124.895 28.8858 124.636 28.6479 124.33L28.8354 124.021Z" fill="#F0DFE7"/>
<path d="M49.0691 35.5706C49.1171 35.5602 49.1654 35.5513 49.2138 35.544C49.2624 35.5367 49.3111 35.531 49.3601 35.527C49.409 35.523 49.458 35.5206 49.5069 35.5199C49.5561 35.519 49.6051 35.5198 49.6541 35.5224C49.7032 35.5247 49.7522 35.5288 49.801 35.5344C49.8497 35.5401 49.8982 35.5474 49.9464 35.5563C49.9947 35.5651 50.0426 35.5755 50.0903 35.5876C50.1378 35.5996 50.1849 35.6132 50.2317 35.6284C50.2783 35.6436 50.3244 35.6602 50.3701 35.6783C50.4157 35.6965 50.4607 35.7163 50.5049 35.7375C50.5493 35.7585 50.5928 35.781 50.6356 35.8051C50.6783 35.8291 50.7202 35.8544 50.7613 35.8813C50.8026 35.9082 50.8428 35.9363 50.8819 35.9657C50.9212 35.9951 50.9594 36.0258 50.9967 36.0578C51.034 36.0897 51.0701 36.1229 51.1052 36.1572C51.1403 36.1917 51.1742 36.2273 51.2069 36.2638C51.2396 36.3003 51.2711 36.338 51.3014 36.3767C51.3315 36.4154 51.3604 36.4551 51.388 36.4956C51.4156 36.5362 51.4418 36.5776 51.4666 36.62C51.4916 36.6622 51.5151 36.7053 51.537 36.7493C51.5591 36.7932 51.5797 36.8377 51.5987 36.8828C51.6179 36.9281 51.6355 36.9739 51.6516 37.0203C51.6676 37.0667 51.6822 37.1136 51.6951 37.1609C51.7081 37.2082 51.7194 37.2559 51.7291 37.3039C51.739 37.352 51.7472 37.4004 51.7538 37.4491C51.7605 37.4977 51.7655 37.5465 51.7688 37.5955C51.7723 37.6444 51.7741 37.6935 51.7743 37.7426C51.7745 37.7917 51.773 37.8408 51.7699 37.8897C51.7668 37.9387 51.7622 37.9875 51.756 38.0361C51.7496 38.0848 51.7417 38.1333 51.7324 38.1816C51.7229 38.2296 51.7118 38.2774 51.699 38.3248C51.6864 38.3722 51.6722 38.4191 51.6565 38.4657C51.6408 38.5123 51.6235 38.5582 51.6047 38.6035C51.5859 38.6488 51.5656 38.6935 51.5439 38.7375C51.5221 38.7815 51.499 38.8248 51.4746 38.8674C51.4499 38.9098 51.424 38.9513 51.3967 38.992C51.3693 39.033 51.3407 39.0729 51.3107 39.1118C51.2807 39.1505 51.2495 39.1883 51.217 39.2252C51.1847 39.2621 51.1511 39.2978 51.1162 39.3324C51.0813 39.3671 51.0454 39.4005 51.0085 39.4326C50.9714 39.4648 50.9333 39.4958 50.8942 39.5255C50.8551 39.5553 50.8151 39.5837 50.7742 39.6107C50.7333 39.6378 50.6916 39.6634 50.649 39.6877C50.6063 39.7122 50.5629 39.7351 50.5188 39.7565C50.4746 39.7781 50.4298 39.7981 50.3843 39.8165C50.3388 39.835 50.2928 39.852 50.2462 39.8675C50.1996 39.8828 50.1526 39.8967 50.1051 39.9091C50.0576 39.9216 50.0098 39.9323 49.9615 39.9415C49.9259 39.9482 49.8902 39.9542 49.8544 39.9593C49.8186 39.9642 49.7826 39.9683 49.7464 39.9716C49.7104 39.9749 49.6744 39.9774 49.6382 39.979C49.602 39.9805 49.5659 39.9811 49.5297 39.9809C49.4935 39.9807 49.4574 39.9796 49.4212 39.9776C49.385 39.9756 49.3489 39.9727 49.313 39.9689C49.277 39.9652 49.2411 39.9606 49.2053 39.9552C49.1695 39.9497 49.1339 39.9433 49.0984 39.936C49.0628 39.9287 49.0274 39.9206 48.9924 39.9116C48.9573 39.9028 48.9225 39.8931 48.888 39.8823C48.8535 39.8717 48.8191 39.8603 48.785 39.848C48.751 39.8356 48.7173 39.8225 48.6838 39.8086C48.6504 39.7945 48.6174 39.7797 48.5847 39.7642C48.552 39.7487 48.5197 39.7323 48.4879 39.7151C48.456 39.698 48.4245 39.6801 48.3934 39.6614C48.3624 39.6428 48.3319 39.6234 48.3019 39.6033C48.2718 39.5831 48.2422 39.5622 48.2131 39.5406C48.1841 39.519 48.1556 39.4968 48.1276 39.4737C48.0997 39.4507 48.0723 39.4271 48.0454 39.4028C48.0186 39.3785 47.9924 39.3535 47.9668 39.328C47.9412 39.3024 47.9163 39.2762 47.892 39.2493C47.8675 39.2225 47.8439 39.1951 47.821 39.1671C47.798 39.1392 47.7756 39.1107 47.7539 39.0816C47.7323 39.0526 47.7115 39.023 47.6914 38.9929C47.6711 38.9629 47.6517 38.9324 47.6331 38.9014C47.6144 38.8703 47.5965 38.8389 47.5794 38.8071C47.5622 38.7751 47.5458 38.7428 47.5303 38.7101C47.5146 38.6774 47.4998 38.6444 47.4859 38.6112C47.4719 38.5778 47.4587 38.544 47.4465 38.5098C47.434 38.4758 47.4225 38.4416 47.4119 38.4071C47.4013 38.3723 47.3916 38.3375 47.3826 38.3024C47.3737 38.2673 47.3655 38.2321 47.3582 38.1966C47.3509 38.1612 47.3445 38.1256 47.339 38.0898C47.3336 38.054 47.3289 38.0181 47.3251 37.9821C47.3214 37.9461 47.3186 37.91 47.3166 37.8738C47.3146 37.8377 47.3134 37.8015 47.313 37.7653C47.3128 37.7292 47.3135 37.6929 47.3149 37.6566C47.3166 37.6204 47.319 37.5843 47.3223 37.5483C47.3256 37.5123 47.3297 37.4764 47.3347 37.4404C47.3398 37.4046 47.3457 37.3689 47.3525 37.3332C47.3592 37.2978 47.3668 37.2625 47.3752 37.2272C47.3838 37.1919 47.3931 37.157 47.4032 37.1223C47.4134 37.0876 47.4244 37.0531 47.4363 37.019C47.4482 36.9846 47.4609 36.9507 47.4744 36.9173C47.4879 36.8837 47.5023 36.8505 47.5174 36.8176C47.5326 36.7847 47.5485 36.7522 47.5651 36.72C47.5819 36.6879 47.5994 36.6562 47.6177 36.6249C47.636 36.5937 47.655 36.5629 47.6747 36.5326C47.6944 36.5023 47.715 36.4724 47.7364 36.443C47.7575 36.4136 47.7795 36.3848 47.8021 36.3567C47.8246 36.3284 47.8479 36.3006 47.872 36.2734C47.8959 36.2464 47.9205 36.2199 47.9457 36.1939C47.9709 36.168 47.9967 36.1427 48.0232 36.118C48.0497 36.0934 48.0768 36.0694 48.1046 36.046C48.1322 36.0226 48.1604 35.9999 48.1893 35.9778C48.218 35.9558 48.2472 35.9346 48.277 35.9139C48.3069 35.8935 48.3372 35.8736 48.3679 35.8545C48.3986 35.8355 48.4299 35.8172 48.4616 35.7996C48.4932 35.7821 48.5253 35.7653 48.5578 35.7492C48.5903 35.7332 48.6231 35.718 48.6562 35.7038C48.6894 35.6893 48.723 35.6757 48.757 35.6629C48.7908 35.6501 48.825 35.6382 48.8595 35.627C48.894 35.6159 48.9287 35.6057 48.9636 35.5963C48.9985 35.5868 49.0337 35.5783 49.0691 35.5706Z" fill="#F0DFE7"/>
<path d="M32.1892 50.9258C32.4139 50.9365 32.51 50.9907 32.7087 51.0872L32.7405 51.2475C31.7565 51.9037 30.6208 51.987 29.4774 52.121C29.3349 52.1141 29.1612 52.0615 29.0203 52.0317C28.9359 51.7193 28.9494 51.7305 29.0957 51.4387C29.9443 50.874 31.2047 50.9721 32.1892 50.9258Z" fill="#F0DFE7"/>
<path d="M31.4973 48.9665C31.5762 48.9511 31.6543 48.927 31.7346 48.9201C32.1319 48.8867 32.4243 48.9917 32.7284 49.2199L32.7205 49.5172C32.0919 50.1403 31.534 50.0597 30.7107 50.0734L29.83 50.1279L29.9224 50.1137C29.7193 50.0433 29.5136 49.9592 29.3067 49.9016C29.3001 49.9 29.293 49.9033 29.2861 49.9041C29.8193 49.2654 30.7224 49.1322 31.4973 48.9665Z" fill="#F0DFE7"/>
<path d="M30.1771 53.0772C30.4054 53.0687 30.6476 53.0501 30.8747 53.075C31.2082 53.1117 31.3444 53.1813 31.5351 53.4474L31.4003 53.7614C30.9909 54.1414 30.6172 54.1885 30.0793 54.2899C29.5061 54.3058 28.9699 54.3735 28.5093 53.9926L28.6148 53.7238C29.1167 53.3372 29.574 53.2265 30.1771 53.0772Z" fill="#F0DFE7"/>
<path d="M28.2859 55.0047C28.7169 54.9735 29.203 54.9091 29.6331 54.9516C30.0211 54.9896 30.4014 55.094 30.645 55.4146L30.59 55.8127L30.719 55.5823L30.7327 55.6519C30.4656 55.8681 30.402 55.8848 30.0606 55.9412C29.6479 55.9566 29.2147 55.9867 28.8032 55.9459C28.3568 55.9018 27.8129 55.7949 27.5288 55.4453C27.7639 55.168 27.951 55.134 28.2859 55.0047Z" fill="#F0DFE7"/>
<path d="M32.071 47.4914C32.6026 47.4363 33.2503 47.2966 33.7101 47.6224L33.6676 47.8539C33.2684 48.1635 32.9098 48.2504 32.4237 48.3688C32.2083 48.3899 31.9921 48.4115 31.7759 48.4195C31.3301 48.4356 31.0148 48.337 30.6777 48.0337L30.755 47.7813C31.1624 47.5043 31.5965 47.5224 32.071 47.4914Z" fill="#F0DFE7"/>
<path d="M32.2803 46.3793C32.7318 46.3396 33.4357 46.2053 33.8654 46.3664C34.195 46.49 34.2114 46.6747 34.3191 46.9742C33.9141 47.0492 33.3645 47.1895 32.9562 47.0868C32.5162 46.9761 32.4633 46.735 32.2803 46.3793Z" fill="#F0DFE7"/>
</svg>
