<svg width="30" height="35" viewBox="0 0 30 35" fill="none" xmlns="http://www.w3.org/2000/svg">
<path d="M14.1322 0C15.5125 2.07638 14.8078 8.71311 15.0046 11.4902C15.1816 13.99 15.6138 16.4685 15.8286 18.9677C18.1447 14.1459 21.293 9.07557 24.8549 5.09562C25.2802 4.62065 25.9438 3.88496 26.605 3.857C26.9403 5.54128 20.5852 12.9716 19.3437 14.7307C18.3004 16.2082 17.3778 17.7395 16.6409 19.3968C18.8756 18.9468 28.4906 16.4177 30 17.0045L29.9061 17.2362C27.3934 19.0047 19.2146 20.1211 15.974 20.784C16.6213 23.1336 16.8779 25.5738 17.3802 27.957C17.7745 29.8296 18.6323 32.0899 18.6546 33.9891C18.6595 34.4182 18.6828 34.682 18.3727 35C18.3153 34.9613 18.2542 34.9269 18.2001 34.8838C16.2585 33.3376 15.489 25.3181 15.1803 22.6771C15.0876 22.4952 15.156 22.57 14.9645 22.4629C12.8662 25.2615 11.5144 28.6297 9.21657 31.3347C8.78834 31.8389 8.46369 32.2169 7.79146 32.2752L7.67893 32.066C8.11712 28.5751 13.0594 24.4089 14.5094 20.8477L14.605 20.6102C11.1824 21.3344 3.42185 25.4703 0.486322 24.7643L0.438525 24.5494C2.14813 22.9156 10.7204 20.5162 13.3365 19.764C10.8659 18.1565 8.31408 16.6948 5.68119 15.3788C4.28363 14.6913 2.77022 14.1479 1.41283 13.3944C0.839866 13.0764 0.194861 12.6614 0 11.99L0.20316 11.7873C4.08113 11.792 12.1919 17.242 14.8732 19.9082C14.5349 14.4636 11.8517 4.94673 14.1322 0Z" fill="#F0DFE7"/>
</svg>
