<svg width="73" height="70" viewBox="0 0 73 70" fill="none" xmlns="http://www.w3.org/2000/svg">
<path d="M32.9613 25.4766C34.1113 25.6876 34.8233 25.7496 35.7773 26.4826C36.6243 27.1336 36.7793 28.2006 36.9443 29.2136C37.1133 30.2486 37.2013 31.2296 37.7823 32.1426C40.3223 36.1366 46.8643 36.4436 51.0773 37.2676C48.0243 39.8186 45.0323 42.3226 42.3243 45.2446C43.2233 48.4326 43.8883 51.5986 44.4703 54.8596C42.4943 53.7446 40.5243 52.5086 38.5093 51.4786C37.2383 50.8286 35.4553 50.3726 34.1043 51.0276C31.6523 52.2166 30.7883 55.7066 30.0013 58.0896C28.9243 61.2256 27.2053 63.7116 25.3163 66.3936C24.0483 58.9116 25.5653 52.6646 26.7953 45.3486C24.1573 44.1456 20.8993 42.8466 18.7073 40.9436C17.8113 40.1656 17.7213 40.1286 17.6133 38.9106C19.9873 35.7686 25.0443 37.5836 28.3273 36.0196C31.4383 34.5396 31.9633 28.5896 32.9613 25.4766ZM26.6473 40.3836C29.9823 42.7736 30.1413 44.3806 30.9233 48.1516C31.8303 47.4826 32.0533 47.0466 32.6023 46.0886C37.1013 44.3646 35.9183 48.1276 38.8443 43.0726C39.4073 42.0986 40.0473 41.3286 40.7673 40.4706C37.3403 38.0216 37.2353 41.1586 35.4243 35.7466C35.1413 34.8996 35.3373 35.1986 34.8533 34.6896C34.3693 36.5296 34.1573 38.1066 32.6593 39.3786C30.7273 40.2286 28.7243 40.2366 26.6473 40.3836Z" fill="#F0DFE7"/>
<path d="M68.6885 40.8594C68.8035 40.8714 68.9205 40.8714 69.0325 40.8974C70.3695 41.2024 71.6316 41.3754 72.3676 42.5424C72.1426 42.9934 71.9886 43.3734 71.6176 43.7504C69.3106 46.0964 65.1735 46.3394 62.1075 46.6434C60.8965 46.7524 60.0225 46.5714 58.8505 46.3114L58.4775 45.6824C58.5645 45.5254 58.6316 45.3564 58.7366 45.2104C60.6636 42.5514 65.6105 41.5094 68.6885 40.8594Z" fill="#F0DFE7"/>
<path d="M13.0774 7.91016C13.9554 8.17416 14.8304 8.47015 15.5794 9.01715C19.4364 11.8392 20.0164 17.9472 20.6394 22.3102C19.1784 21.1941 17.6724 19.9452 16.4904 18.5372C13.8424 15.3812 12.7234 12.0072 13.0774 7.91016Z" fill="#F0DFE7"/>
<path d="M41.4182 0L43.0853 0.669006C43.5253 1.26701 43.8743 1.79201 44.0073 2.54001C44.6443 6.14101 43.2843 11.795 41.3383 14.884C40.7243 14.292 40.4122 13.658 40.2142 12.832C39.2722 8.89 39.3212 3.559 41.4182 0Z" fill="#F0DFE7"/>
<path d="M60.2395 24.6797C61.3815 24.9637 61.0145 24.7627 61.9195 25.3717C62.7355 25.9187 62.5355 25.9547 62.6855 26.8457C61.3085 29.7037 58.1375 31.3177 55.5205 32.9077C54.5275 32.8187 54.0625 32.5227 53.2465 31.9677L53.1455 30.8787C54.6055 28.0357 57.6145 26.3357 60.2395 24.6797Z" fill="#F0DFE7"/>
<path d="M46.6309 60.4844C47.3329 60.6864 48.0288 60.9024 48.6938 61.2074C51.8598 62.6564 53.4018 66.0784 54.6498 69.1014C53.0568 68.7004 51.5958 68.1934 50.2338 67.2434C47.8618 65.5894 47.0989 63.2054 46.6309 60.4844Z" fill="#F0DFE7"/>
<path d="M0 46.8642C1.552 46.7652 3.52497 46.5413 5.01697 47.0913C6.36197 47.5873 6.68298 48.2642 7.28998 49.4872C5.41098 49.8802 3.609 50.4283 1.698 49.9843C0.423998 48.8623 0.438 48.4542 0 46.8642Z" fill="#F0DFE7"/>
<path d="M4.88949 31.3261C5.56549 31.2921 6.24453 31.2601 6.92153 31.2721C8.43753 31.2981 10.1375 31.5591 11.2205 32.6991L10.8185 33.5731C8.99551 33.8431 7.42951 34.2171 5.65151 33.6041C4.85551 32.5891 4.84749 32.6121 4.88949 31.3261Z" fill="#F0DFE7"/>
</svg>
