<svg width="56" height="70" viewBox="0 0 56 70" fill="none" xmlns="http://www.w3.org/2000/svg">
<path d="M19.4314 19.6439C20.5054 13.4939 23.1285 6.13438 28.4251 2.35599C28.5725 2.25068 28.7224 2.14918 28.8748 2.0515C29.0272 1.95382 29.1821 1.86002 29.3393 1.77011C29.4965 1.6802 29.6558 1.5943 29.8172 1.51242C29.9787 1.43036 30.1421 1.35258 30.3074 1.27905C30.4726 1.2053 30.6397 1.13581 30.8086 1.07056C30.9774 1.00528 31.1478 0.944279 31.3197 0.887573C31.4915 0.831012 31.6646 0.778796 31.8391 0.730919C32.0136 0.682863 32.1892 0.639254 32.3657 0.600104C32.5424 0.561167 32.7199 0.52657 32.8982 0.496292C33.0766 0.466193 33.2556 0.44058 33.4354 0.419464C33.6149 0.398313 33.7949 0.381699 33.9754 0.369609C34.1559 0.357731 34.3366 0.350221 34.5173 0.347088C34.6982 0.344168 34.879 0.345851 35.0596 0.352143C35.2404 0.358291 35.421 0.369005 35.6011 0.384298C35.7813 0.399591 35.961 0.419335 36.1403 0.443526C36.3195 0.467897 36.4979 0.496761 36.6756 0.530106C39.6976 1.06643 42.4016 3.01458 44.1127 5.54111C47.1955 10.0933 47.3772 16.6375 46.346 21.8649C45.9468 23.889 45.2811 25.7916 44.49 27.6903C46.1801 26.5839 47.6323 25.4399 49.802 25.8806C50.734 26.0701 51.5854 26.5959 52.0901 27.4164C52.4885 28.0639 52.6461 28.8576 52.46 29.6022C52.2773 30.3346 51.7325 30.9643 51.065 31.3034C50.5263 31.577 49.8702 31.6648 49.2811 31.7787C50.6594 32.0172 54.684 32.8482 55.4929 34.0545C55.9982 34.8081 55.5896 36.3289 55.3741 37.1651C54.9678 38.7411 54.3579 40.2685 54.0168 41.86C53.3076 45.1718 53.0202 48.5677 52.4021 51.8971C51.7675 55.3171 50.8865 58.7666 50.6702 62.2431C47.6616 64.3528 41.0144 68.6963 37.5764 69.2985C36.6353 69.4634 35.5722 69.2739 34.6385 69.1096C29.4696 68.2012 3.55092 60.3785 1.08115 56.9694C-0.591656 54.6606 2.81836 35.3045 3.0275 31.5779C2.28688 31.1627 1.6577 30.8651 1.37918 29.989C1.05289 28.961 1.36524 27.9037 1.88959 27.0018C2.31211 26.2749 2.88882 25.8364 3.57577 25.3737C3.50658 25.3605 4.04741 24.9152 4.04741 24.9152C5.64993 24.4999 7.22347 24.0184 8.8402 23.6491C10.9355 23.1702 13.2051 22.8318 15.2122 22.0508C14.157 20.9604 12.6719 19.582 12.6555 17.9393C12.6508 17.4822 12.7918 17.0421 13.1357 16.7285C13.6041 16.3017 14.2826 16.239 14.8849 16.2959C16.3012 16.4293 17.6445 17.2127 18.5189 18.3286C18.8462 18.7466 19.1368 19.2021 19.4314 19.6439ZM35.7881 66.8237C36.8028 64.7825 36.9057 61.9001 37.3191 59.6405C38.2674 54.459 39.2502 49.3093 39.9739 44.089C37.1427 42.7568 34.0824 41.7992 31.1572 40.6793C29.1544 39.9126 27.212 38.9733 25.2087 38.2213C24.3887 41.5353 23.9955 44.8754 23.4379 48.2367L20.9023 63.059C23.773 63.9893 33.2535 67.2229 35.7881 66.8237ZM2.56071 55.7894C5.55083 57.2835 8.80586 59.0885 12.0932 59.7772L13.7055 45.6814C14.079 42.161 14.331 38.5684 14.9268 35.0799C12.8282 34.4317 10.7188 33.8211 8.59867 33.2483C7.2224 32.8687 5.74624 32.5434 4.43866 31.9664C3.74149 36.8462 3.32901 41.8651 2.98321 46.783C2.77351 49.7645 2.49919 52.8015 2.56071 55.7894ZM23.3172 21.3984C25.5149 19.1045 28.2611 16.1474 31.667 16.042C33.525 15.9845 35.3066 16.744 36.6688 17.9832C39.1485 20.6011 39.9409 23.7168 40.3804 27.205C42.514 22.1059 43.1716 15.5325 41.0143 10.3288C40.0493 8.0011 38.4495 5.80409 36.0471 4.83946C35.5546 4.64153 35.0684 4.54765 34.5404 4.52001C31.4203 5.18872 29.2693 7.82484 27.616 10.3947C25.5151 13.6603 24.2455 17.6402 23.3172 21.3984ZM18.6117 56.118C18.6894 57.502 17.9614 60.5141 17.708 62.037L19.471 62.5746C19.9356 60.5389 20.0467 58.3241 20.3271 56.2474C20.7644 53.0096 21.3288 49.7714 21.8566 46.5461C22.5754 42.1517 23.8804 37.6334 24.2976 33.2292C22.0818 32.3772 19.7822 31.6771 17.5272 30.9324C15.9469 36.0857 15.5631 41.7984 15.0367 47.1383C14.5966 51.6004 14.1127 56.0713 13.855 60.5479L15.7025 61.3146C15.6977 60.2392 15.7832 56.1262 16.3008 55.329C16.6359 57.2525 15.7648 59.3411 16.1167 61.3433C16.3233 61.539 16.3038 61.5027 16.5617 61.54C17.3419 60.5046 18.0236 53.813 18.6617 51.8517C18.7091 51.4957 18.7215 51.2707 18.9092 50.9538L18.9549 51.0181L18.7877 51.1446L18.9971 51.2616C19.0053 52.8863 18.8285 54.5086 18.6117 56.118ZM47.1201 37.0488C48.6808 36.3933 50.3965 35.7374 51.7916 34.7682C48.611 33.7204 45.3416 32.9087 42.1025 32.063C40.2802 33.2918 39.6056 34.4713 38.8834 36.5013C40.705 36.9687 42.5131 37.406 44.2045 38.2536C45.1757 37.8698 46.1885 37.5196 47.1201 37.0488ZM6.96907 25.7701C8.9431 26.2228 10.8886 26.7763 12.8055 27.4306C14.0664 27.7276 15.2971 28.1757 16.504 28.6442C17.868 27.8478 19.2565 27.1306 20.6691 26.4263C19.9036 25.8902 16.5887 23.215 16.0091 23.1822C13.0384 24.3476 10.0726 25.0707 6.96907 25.7701ZM53.2021 36.3931C51.828 37.0364 46.3642 39.5199 46.0363 40.7839C45.9706 41.0366 46.0366 41.3166 46.0798 41.5665C48.4361 40.469 50.7228 39.2351 53.0712 38.1281C53.1779 37.6022 53.3517 37.0313 53.2775 36.4951L53.2021 36.3931ZM38.3262 31.2657C38.2455 30.2751 38.3617 28.9979 37.5419 28.3033C35.5977 26.6561 32.603 25.8814 30.3308 24.704C30.1063 24.5877 30.2021 24.6291 29.9371 24.5608C26.1073 26.2877 22.1449 27.2199 18.4424 29.3387C20.5201 29.9306 22.6344 30.8161 24.7325 31.2487C27.0917 30.5791 33.6927 28.494 35.9792 28.8469L36.2069 29.0043C36.2237 29.2171 36.2759 29.2429 36.1631 29.388C35.7844 29.8753 34.5519 30.0727 33.9631 30.2344C31.5519 30.9558 29.1769 31.8076 26.7248 32.3802C28.3724 33.3365 30.3885 34.032 32.2475 34.4395C31.7715 33.7952 31.489 33.2523 31.588 32.4255C31.6458 31.9428 31.9415 31.5884 32.3339 31.3288C33.5367 30.5331 35.2404 30.4648 36.6053 30.7817C37.1842 30.916 37.7566 31.0956 38.3262 31.2657ZM26.0883 20.506C29.3652 21.3033 32.172 23.6142 35.2983 24.8945C36.6318 25.5576 37.895 26.2554 38.9324 27.3477C38.4787 24.2943 37.5 20.1376 34.8994 18.1532C34.3263 17.7159 33.715 17.4335 33.0068 17.3104C30.447 17.143 28.5223 18.2753 26.6833 19.9343C26.4783 20.1177 26.28 20.3083 26.0883 20.506ZM33.699 32.0255C33.4958 32.5468 33.478 32.7247 33.7158 33.2332C34.1373 34.1354 34.9305 35.2875 35.9208 35.6183C36.2538 35.7294 36.4456 35.7526 36.7854 35.6567L37.8107 33.1002C36.4573 32.6588 35.1192 32.1994 33.699 32.0255ZM14.59 32.8184L14.9497 32.8116C15.4735 32.2266 15.5895 31.1156 15.7484 30.3587C13.459 29.5877 11.1014 28.9735 8.77507 28.322C7.36487 27.927 5.8404 27.6153 4.54219 26.9253C3.88574 27.6015 3.34603 28.3383 2.86385 29.1484C5.92626 30.8533 11.1258 32.0617 14.59 32.8184ZM25.6097 36.3301C27.5274 37.0419 40.1116 41.627 41.0351 41.2986C41.2236 41.0877 41.4111 40.8794 41.5875 40.6579C41.9278 40.3417 42.2625 40.0141 42.6162 39.713C37.0126 38.0611 31.464 36.5835 26.1341 34.1351C25.9556 34.8647 25.7603 35.5944 25.6097 36.3301ZM28.7952 23.4266C27.6807 22.6977 26.4958 22.1775 25.2487 21.7208C24.225 23.0375 23.3765 24.3136 22.6437 25.8112L25.1147 24.8157C26.3481 24.3899 27.625 24.0075 28.7952 23.4266ZM42.7042 30.6658C43.4778 30.5999 44.2647 30.5026 45.0396 30.4778C46.254 30.3957 49.1521 30.5056 50.0007 29.5416C50.1539 29.3676 50.1406 29.1947 50.1783 28.9753C50.006 28.4167 49.8274 28.1169 49.3065 27.8268C49.0437 27.6802 48.8059 27.6148 48.5133 27.5581C47.9835 27.7163 47.463 27.9008 46.9517 28.1117C46.4404 28.3223 45.9409 28.5581 45.4532 28.819C44.9653 29.0799 44.4917 29.3646 44.0324 29.6732C43.5731 29.9818 43.1304 30.3127 42.7042 30.6658ZM21.3226 20.9472C23.2185 14.9139 25.3557 6.84068 31.4702 3.68704C32.7613 3.0213 34.1386 2.76898 35.5689 2.61294C37.5116 3.47845 39.2423 4.42612 40.6474 6.06196C44.1187 11.4677 44.7893 15.9624 43.4139 22.279C42.8118 25.0439 41.8328 27.7057 41.0408 30.4179C44.6548 24.3922 46.3052 17.0109 44.5687 10.0897C43.8011 7.0301 42.1099 4.46595 39.3698 2.84698C38.2806 2.20353 37.0401 1.72664 35.7841 1.56066C32.5316 1.60028 30.0159 2.41017 27.7114 4.8035C24.0486 8.6084 21.1927 15.3283 21.3113 20.6406C21.3136 20.7428 21.3174 20.845 21.3226 20.9472ZM38.3279 66.6222L38.4687 66.77C39.8879 66.3628 41.4896 65.2517 42.7895 64.5279C43.1766 61.6336 43.5018 58.7147 43.9929 55.8364C44.5752 52.4242 45.3353 48.995 45.779 45.5647C45.824 45.2167 45.8648 44.8997 45.6863 44.5818C45.1117 45.1135 44.4482 45.8632 43.6042 45.8636C42.8513 45.864 42.3839 45.2388 41.9482 44.7159C40.6763 51.9902 39.3133 59.3035 38.3279 66.6222ZM47.2018 43.9662C46.112 50.5143 45.001 57.0993 44.2015 63.6875L45.5179 63.0141L46.7508 56.6139C46.9187 55.8006 46.9914 54.9212 47.6117 54.3213L47.7837 54.3407C47.9737 56.9807 47.3678 59.95 46.5513 62.4529C47.3703 61.9456 48.1003 61.3691 48.8436 60.7567C49.4508 58.437 52.5921 42.1132 52.2291 41.2575C52.2208 41.2384 52.2044 41.2242 52.192 41.2077C50.4947 42.0283 48.6799 42.7751 47.2018 43.9662Z" fill="#F0DFE7"/>
</svg>
