<svg width="280" height="280" viewBox="0 0 280 280" fill="none" xmlns="http://www.w3.org/2000/svg">
<path d="M118.301 175.279C118.301 174.719 118.301 174.159 118.301 173.599C118.301 173.319 118.301 173.039 118.441 172.619C118.441 172.339 118.441 172.199 118.581 171.919C118.721 171.359 118.441 170.659 117.741 170.519C117.181 170.379 116.481 170.659 116.341 171.359C116.061 172.619 115.921 174.019 116.061 175.419C116.061 176.119 116.201 176.819 116.341 177.519C116.481 178.219 116.761 179.199 117.461 179.479C117.881 179.759 118.441 179.619 118.721 179.199C119.141 178.639 119.001 177.659 118.861 176.959C118.441 176.259 118.441 175.839 118.301 175.279Z" fill="#151314"/>
<path d="M125.58 173.179V173.039C125.58 172.899 125.58 172.759 125.58 172.759C125.58 172.339 125.58 171.779 125.58 171.359V171.219C125.58 171.079 125.58 171.079 125.58 170.939C125.58 170.659 125.72 170.379 125.86 170.099C126 169.539 125.58 168.839 125.02 168.699C124.32 168.559 123.76 168.839 123.62 169.539C123.34 170.659 123.06 171.779 123.2 172.899C123.2 173.459 123.34 174.019 123.48 174.719C123.62 175.279 123.9 176.119 124.32 176.539C125.02 177.239 126.28 176.679 126.28 175.699C126.28 175.139 126 174.579 125.86 174.019C125.58 173.599 125.58 173.459 125.58 173.179Z" fill="#151314"/>
<path d="M71.1195 206.639C71.1195 205.379 69.0195 205.379 69.0195 206.639C69.1595 209.999 69.1595 213.359 69.2995 216.859L69.4395 221.899C69.4395 222.739 69.5795 223.439 69.7195 224.279C69.8595 225.119 69.8595 225.819 70.2795 226.519C70.4195 226.799 70.9795 226.799 71.1195 226.519C71.3995 225.819 71.3995 225.119 71.5395 224.419C71.6795 223.579 71.6795 222.879 71.6795 222.179C71.6795 220.499 71.5395 218.679 71.5395 216.999C71.3995 213.359 71.2595 209.999 71.1195 206.639Z" fill="#151314"/>
<path d="M48.1605 171.08C47.6005 170.94 47.1805 171.22 47.0405 171.78C46.6205 172.76 46.3405 173.88 46.2005 175C46.0605 175.56 46.0605 176.12 46.0605 176.82C46.0605 177.52 46.0605 178.36 46.7605 178.78C47.0405 178.92 47.3205 178.92 47.6005 178.78C48.0205 178.5 48.1605 178.22 48.1605 177.66C48.1605 177.38 48.1605 177.1 48.1605 176.82C48.1605 176.26 48.1605 175.84 48.3005 175.28C48.3005 174.72 48.4405 174.44 48.4405 173.88C48.5805 173.32 48.7205 172.76 48.8605 172.34C48.8605 171.64 48.5805 171.08 48.1605 171.08Z" fill="#151314"/>
<path d="M55.3 172.06C54.6 171.92 53.9 172.34 53.62 173.04C53.2 174.16 52.92 175.42 52.78 176.54C52.78 177.24 52.64 177.8 52.78 178.5C52.92 179.2 53.06 179.76 53.48 180.32C53.9 180.74 54.74 180.74 55.02 180.18C55.16 179.76 55.3 179.48 55.3 179.06C55.3 178.78 55.3 178.5 55.3 178.22C55.3 177.66 55.3 177.1 55.44 176.68C55.44 176.54 55.44 176.4 55.44 176.4V176.26C55.44 175.98 55.58 175.7 55.58 175.42C55.72 174.86 55.86 174.44 56 173.88C56.42 173.18 55.86 172.34 55.3 172.06Z" fill="#151314"/>
<path d="M61.3208 173.18C60.9008 173.04 60.3408 173.32 60.2008 173.88C60.0608 174.86 59.7808 175.7 59.6408 176.68C59.5008 177.24 59.5008 177.66 59.5008 178.22C59.5008 178.64 59.3608 179.34 59.6408 179.76C59.7808 179.9 60.0608 179.9 60.3408 179.9C60.6208 179.76 60.7608 179.48 60.7608 179.2C60.9008 178.92 60.9008 178.78 61.0408 178.5C61.1808 178.08 61.3208 177.66 61.4608 177.24C61.6008 176.26 61.8808 175.42 62.0208 174.44C62.1608 173.88 61.8808 173.32 61.3208 173.18Z" fill="#151314"/>
<path d="M73.6407 194.88C70.7007 195.16 67.7607 195.58 64.6807 195.72C61.8807 195.72 59.0807 195.58 56.2807 195.3C50.4007 194.74 44.9407 194.46 39.0607 195.58C38.0807 195.72 38.5007 197.26 39.4807 197.12C45.5007 196 51.2407 196.56 57.2607 197.26C62.5807 197.82 68.6007 197.54 73.7807 195.86C74.2007 195.58 74.2007 194.88 73.6407 194.88Z" fill="#151314"/>
<path d="M54.1809 208.46C53.9009 207.9 53.2009 207.34 52.6409 207.34C52.0809 207.34 51.6609 207.62 51.3809 207.9C50.9609 208.32 51.1009 208.74 51.5209 209.02V209.16C51.5209 209.3 51.5209 209.44 51.6609 209.58C51.6609 209.58 51.6609 209.58 51.6609 209.72V209.86C51.6609 210.56 51.6609 211.12 51.6609 211.82C51.6609 212.38 51.5209 213.08 51.5209 213.64C51.5209 213.64 51.5209 213.64 51.5209 213.78C51.5209 213.78 51.5209 213.78 51.5209 213.92C51.5209 214.06 51.5209 214.2 51.3809 214.34C51.3809 214.62 51.2409 214.9 51.1009 215.18C51.1009 215.32 50.9609 215.46 50.9609 215.6V215.74C50.8209 216.02 50.6809 216.3 50.5409 216.58C50.5409 216.58 50.5409 216.58 50.5409 216.72C50.4009 216.86 50.4009 216.86 50.2609 217V216.86C50.1209 216.16 49.9809 215.46 49.9809 214.62C49.8409 212.8 49.9809 210.98 50.4009 209.16C50.6809 207.9 48.7209 207.34 48.4409 208.6C47.8809 210.7 47.4609 212.8 47.4609 215.04C47.4609 216.86 47.4609 219.94 49.7009 220.5C51.9409 221.06 53.6209 218.54 54.3209 216.72C54.8809 215.18 55.0209 213.36 54.8809 211.68C54.7409 210.56 54.7409 209.3 54.1809 208.46Z" fill="#151314"/>
<path d="M65.5205 215.32C65.2405 215.46 64.9605 215.6 64.6805 215.88C64.5405 216.02 64.4005 216.16 64.2605 216.44C63.4205 213.92 63.0005 211.26 63.1405 208.6C63.1405 207.9 62.5805 207.34 61.8805 207.34C61.1805 207.34 60.7605 207.9 60.6205 208.6C60.3405 212.38 60.9005 216.16 62.1605 219.66C62.4405 220.5 63.5605 221.2 64.4005 220.64C65.2405 220.08 65.9405 219.52 66.5005 218.82C66.7805 218.4 67.0605 217.98 67.2005 217.56C67.3405 217.14 67.3405 216.72 67.3405 216.3C67.3405 215.04 66.2205 214.76 65.5205 215.32Z" fill="#151314"/>
<path d="M100.38 202.86C100.94 202.58 100.8 201.6 100.1 201.46C98.7004 201.18 97.1604 201.04 95.7604 201.04C96.1804 200.06 96.3204 198.8 96.4604 197.82C96.7404 196.28 96.8804 194.88 97.0204 193.34C97.4404 190.4 97.7204 187.32 98.1404 184.38C98.4204 184.38 98.5604 184.24 98.8404 184.24C99.5404 183.96 99.6804 183.26 99.4004 182.7C101.5 180.04 102.9 176.68 102.76 173.04C102.62 169.82 100.94 167.16 98.5604 165.06C96.3204 162.96 93.6604 161.56 91.4204 159.46C88.9004 157.08 87.2204 154 86.5204 150.64C86.6604 148.96 86.5204 147.28 86.3804 145.6C86.2404 144.48 84.7004 144.48 84.7004 145.6C84.7004 146.72 84.7004 147.84 84.7004 149.1C84.4204 149.24 84.1404 149.52 84.1404 150.08C84.1404 150.78 84.2804 151.62 84.4204 152.32C84.0004 154.98 83.3004 157.64 82.0404 159.88C79.9404 163.66 75.7404 163.38 72.5204 165.34C72.2404 165.48 71.9604 165.76 71.6804 165.9C69.5804 165.48 67.3404 165.48 65.2404 165.2C62.7204 165.06 60.2004 164.78 57.5404 164.5C52.5004 164.08 47.3204 163.66 42.2804 163.1C41.4404 162.96 41.4404 164.36 42.2804 164.5C42.7004 164.5 42.9804 164.64 43.4004 164.64C42.9804 164.78 42.4204 165.2 42.4204 165.76C42.2804 168.42 42.1404 170.94 42.0004 173.6C42.0004 174.86 41.8604 176.12 41.8604 177.52C41.8604 178.22 41.8604 178.78 41.8604 179.48C41.8604 179.76 41.8604 180.04 41.8604 180.32C41.8604 180.74 42.1404 180.88 42.1404 181.16C42.4204 181.72 43.2604 182 43.6804 181.3C43.8204 181.02 44.1004 180.74 44.1004 180.46C44.2404 180.18 44.2404 179.76 44.2404 179.34C44.2404 178.78 44.3804 178.22 44.3804 177.52C44.5204 176.12 44.5204 174.86 44.5204 173.46C44.6604 170.8 44.8004 168.28 44.8004 165.62C44.8004 165.06 44.5204 164.78 44.2404 164.64C48.5804 165.2 53.0604 165.76 57.4004 166.04C59.9204 166.18 62.4404 166.32 65.1004 166.46C66.9204 166.6 68.7404 166.6 70.5604 166.6C68.8804 168.56 68.6004 171.36 68.7404 174.02C68.7404 177.24 68.8804 181.16 71.5404 183.26C69.8604 182.56 67.6204 182.56 65.9404 182.42C63.5604 182.28 61.1804 182.14 58.6604 182C53.9004 181.86 49.1404 181.72 44.3804 181.86C43.2604 181.86 42.8404 182.98 43.1204 183.82C42.8404 183.82 42.4204 183.82 42.1404 184.1C39.9004 186.62 37.8004 189.28 35.9804 192.08C35.1404 193.34 34.4404 194.6 34.3004 196.14C34.1604 197.82 34.7204 199.5 35.0004 201.18C35.7004 204.82 35.8404 208.46 35.7004 212.24C35.5604 216.02 34.8604 219.94 35.2804 223.72C35.4204 224.56 36.5404 224.84 36.8204 224C37.8004 220.92 37.9404 217.56 38.0804 214.34C38.2204 210.84 38.2204 207.34 37.8004 203.98C37.3804 200.62 35.7004 196.98 37.6604 194.04C39.3404 191.24 41.4404 188.44 43.6804 185.92C43.9604 185.5 43.9604 185.22 43.9604 184.8C44.1004 184.8 44.2404 184.94 44.3804 184.94C49.0004 184.94 53.6204 185.08 58.3804 185.22C60.7604 185.36 63.0004 185.5 65.3804 185.64C66.5004 185.78 67.4804 185.78 68.6004 185.92C69.7204 185.92 70.9804 186.2 72.1004 185.78C72.8004 185.5 73.0804 184.66 72.6604 184.1C72.9404 184.1 73.2204 184.1 73.5004 183.82C73.5004 183.96 73.5004 184.1 73.5004 184.24C73.6404 186.9 73.7804 189.42 74.0604 192.08C74.2004 193.34 74.2004 194.6 74.3404 195.86C74.3404 196.56 74.4804 197.26 74.6204 197.96C74.6204 198.24 74.6204 198.52 74.7604 198.8C74.7604 198.94 74.9004 199.22 75.0404 199.36C75.3204 199.5 75.3204 199.64 75.1804 199.5C75.6004 200.2 76.5804 199.92 76.7204 199.36C76.7204 199.5 76.7204 199.5 76.8604 199.22C77.0004 199.08 77.0004 198.94 77.0004 198.8C77.0004 198.52 77.0004 198.1 77.0004 197.82C77.0004 197.26 77.0004 196.7 76.8604 196.14C76.7204 194.88 76.5804 193.48 76.5804 192.22C76.3004 189.7 76.1604 187.04 75.8804 184.52C79.3804 184.94 82.8804 185.08 86.5204 185.08C89.4604 185.08 92.6804 185.22 95.6204 184.8L94.3604 192.92C94.0804 194.46 93.8004 195.86 93.6604 197.4C93.5204 198.52 93.2404 199.78 93.5204 200.9C93.3804 200.9 93.3804 200.9 93.2404 200.9C90.8604 200.76 88.3404 200.76 85.9604 200.76C81.0604 200.76 76.1604 200.62 71.2604 200.62C70.1404 200.62 70.1404 202.44 71.2604 202.44C76.1604 202.72 81.0604 202.86 85.9604 203C88.3404 203.14 90.8604 203.14 93.2404 203.14C95.0604 203.14 96.8804 203.28 98.7004 203V203.14C98.9804 206.92 98.9804 210.7 98.8404 214.48C98.7004 216.3 98.7004 218.12 98.5604 220.08C98.4204 221.9 98.0004 223.86 98.8404 225.4C99.1204 225.82 99.8204 225.96 100.24 225.54C101.5 224.14 101.36 222.04 101.5 220.22C101.64 218.4 101.64 216.58 101.64 214.62C101.64 210.7 101.36 206.92 100.94 203C100.52 203.14 100.52 203 100.38 202.86ZM86.2404 182.42C82.1804 182.42 78.1204 182.28 74.0604 182C73.9204 182 73.6404 182 73.5004 182.14C71.6804 179.2 70.9804 175.56 71.2604 172.06C71.5404 167.58 75.1804 166.88 78.6804 165.62C81.9004 164.36 83.8604 162.12 84.9804 158.9C85.2604 158.06 85.4004 157.36 85.6804 156.52C86.1004 157.5 86.5204 158.34 87.0804 159.18C88.7604 161.84 91.1404 163.66 93.5204 165.48C95.6204 167.16 98.1404 168.84 99.1204 171.5C100.38 175 98.4204 178.78 97.5804 182.14C93.8004 181.86 90.0204 182.42 86.2404 182.42Z" fill="#151314"/>
<path d="M122.081 203.419C121.101 203.279 120.261 203.279 119.281 203.419C118.301 203.559 117.601 204.119 116.901 204.679L116.761 204.819C116.621 204.959 116.481 205.099 116.481 205.379C116.341 209.019 116.201 212.799 116.061 216.439C116.061 217.839 116.061 219.519 116.901 220.779C117.741 222.039 119.001 222.599 120.401 222.319C121.101 222.179 121.801 222.039 122.501 222.039C123.201 222.039 123.761 221.899 124.321 221.339C124.881 220.779 124.881 220.079 125.021 219.239C125.021 218.399 125.161 217.419 125.161 216.579C125.301 214.759 125.301 212.939 125.441 211.119C125.581 209.439 126.001 207.479 125.301 205.939C124.741 204.679 123.481 203.699 122.081 203.419ZM123.481 208.599C123.481 209.299 123.341 209.999 123.341 210.839C123.201 212.239 123.201 213.639 123.061 215.039L122.781 219.239C122.781 219.939 122.781 219.939 122.081 220.079C121.521 220.079 120.961 220.219 120.401 220.359C119.841 220.499 119.421 220.639 118.861 220.359C118.441 220.079 118.161 219.659 118.021 219.099C117.601 217.839 117.741 216.439 117.741 215.179C117.741 212.099 117.741 209.019 117.741 205.939C118.161 205.939 118.581 205.939 119.001 205.799C119.701 205.659 120.261 205.519 120.961 205.519C121.801 205.519 122.921 205.939 123.341 206.779C123.621 207.339 123.621 208.039 123.481 208.599Z" fill="#151314"/>
<path d="M136.92 205.379C135.24 204.679 133.28 203.979 131.46 203.699C130.62 203.559 129.78 204.819 130.76 205.239C130.9 205.239 131.04 205.379 131.04 205.379C130.76 208.459 130.34 211.399 130.06 214.479C129.92 217.139 130.9 220.219 133.84 220.779C136.64 221.339 139.16 219.379 139.58 216.719C139.72 215.879 139.58 215.179 139.72 214.339C139.72 213.639 139.86 212.939 140 212.239C140.28 210.979 140.42 209.579 140 208.319C139.58 206.779 138.46 205.939 136.92 205.379ZM138.32 210.979C138.18 212.099 137.9 213.219 137.76 214.339C137.76 215.459 137.9 216.719 137.2 217.699C136.64 218.399 135.8 218.819 134.96 218.679C132.58 218.399 132.3 215.879 132.3 213.919C132.44 211.259 132.58 208.599 132.72 206.079C133.42 206.359 134.12 206.499 134.96 206.779C135.94 207.059 137.2 207.339 138.04 208.179C138.46 208.879 138.46 209.999 138.32 210.979Z" fill="#151314"/>
<path d="M91.8401 211.259C89.8801 211.959 88.0601 214.059 85.8201 214.059C84.8401 214.059 84.0001 213.499 83.3001 212.939C82.4601 212.239 81.7601 211.679 80.7801 211.259C78.8201 210.419 76.5801 211.119 75.3201 212.659C74.6201 213.639 75.8801 215.039 76.7201 214.059C77.8401 212.799 79.5201 212.659 80.7801 213.639C82.0401 214.619 83.0201 216.019 84.7001 216.439C86.5201 216.859 88.2001 216.159 89.7401 215.319C90.4401 214.899 91.1401 214.339 91.9801 213.919C92.4001 213.779 92.8201 213.499 93.2401 213.499C93.5201 213.499 94.0801 213.639 94.2201 213.919C94.3601 214.899 95.7601 215.319 96.0401 214.199C96.7401 211.679 93.8001 210.419 91.8401 211.259Z" fill="#151314"/>
<path d="M92.2591 218.259C91.4191 218.399 90.5791 218.679 89.7391 219.099C88.7591 219.659 87.9191 220.359 86.7991 220.639C85.6791 220.919 85.1191 220.219 84.4191 219.659C83.5791 219.099 82.7391 218.819 81.7591 218.679C79.7991 218.399 77.6991 219.239 76.1591 220.359C75.1791 221.059 76.0191 222.599 77.1391 222.039C78.5391 221.199 80.3591 220.359 81.8991 220.919C82.7391 221.199 83.1591 221.759 83.8591 222.319C84.5591 222.879 85.3991 223.299 86.3791 223.439C88.3391 223.579 89.7391 222.319 91.4191 221.619C91.9791 221.339 92.6791 221.199 93.2391 221.339C93.7991 221.479 94.3591 221.759 94.7791 221.899C95.1991 222.039 95.7591 221.759 95.8991 221.199C96.5991 218.819 93.9391 217.979 92.2591 218.259Z" fill="#151314"/>
<path d="M90.5788 227.92C90.4388 227.92 90.4388 227.78 90.2988 227.78C90.1588 227.64 90.1588 227.64 90.1588 227.78C89.8788 227.5 89.7388 227.5 89.4588 227.36C89.1788 227.22 89.0388 227.22 88.7588 227.22C87.9188 226.94 86.9388 226.8 85.9588 226.8C84.1388 226.66 82.1788 226.8 80.3588 227.36C79.2388 227.64 79.7988 229.32 80.7788 229.04C82.3188 228.62 83.7188 228.48 85.2588 228.48C85.9588 228.48 86.7988 228.62 87.4988 228.76C88.1988 228.9 89.0388 229.32 89.8788 229.04C89.7388 229.04 89.5988 229.04 89.4588 229.18C89.8788 229.18 90.1588 229.32 90.5788 229.18C90.8588 229.04 90.9988 228.76 90.8588 228.62C90.8588 228.2 90.7188 228.06 90.5788 227.92Z" fill="#151314"/>
<path d="M146.158 217.839C146.158 221.899 146.158 225.819 146.578 229.879C146.718 231.279 148.538 231.279 148.818 229.879C148.958 228.059 149.238 226.239 149.238 224.419C147.978 222.319 146.858 220.219 146.158 217.839Z" fill="#151314"/>
<path d="M149.378 202.159C149.378 201.879 149.518 201.459 149.518 201.179C149.518 201.039 149.518 200.899 149.518 200.899C149.518 200.899 149.518 200.479 149.518 200.759C149.658 200.199 149.658 199.639 149.798 199.079C149.938 198.099 149.938 197.119 149.938 196.279C149.938 196.139 149.938 195.999 149.798 195.859C149.798 194.879 149.798 194.039 149.798 193.059C149.938 193.059 149.938 192.919 150.078 192.919C150.358 192.779 150.218 192.359 149.938 192.219C149.798 192.219 149.798 192.219 149.658 192.079C149.658 191.799 149.518 191.379 149.518 191.099C148.678 188.019 146.298 185.499 145.598 182.419C145.878 181.999 146.018 181.439 146.018 180.739C146.158 179.759 146.018 178.639 146.018 177.659C146.018 175.699 146.018 173.879 146.018 171.919C146.158 167.999 146.158 163.939 146.718 160.019C146.718 160.019 146.718 160.019 146.718 159.879C147.278 159.739 147.838 159.599 148.398 159.179C149.098 158.759 148.958 157.919 148.398 157.499C148.258 157.359 147.978 157.219 147.838 157.079C150.358 155.819 152.178 153.159 153.298 150.639C154.838 146.999 155.258 142.939 153.858 139.159C152.038 134.539 148.118 131.319 144.618 128.099C141.118 124.879 137.758 121.659 134.818 118.019C133.978 116.199 133.138 114.519 132.438 112.699C132.158 111.859 131.038 111.999 130.758 112.559C128.938 109.619 127.398 106.539 126.698 103.039C126.698 102.759 126.558 102.619 126.278 102.619C126.278 102.059 126.278 101.639 126.278 101.079C126.978 100.939 127.538 100.799 128.238 100.659C128.938 100.519 129.358 99.6792 129.078 99.1192C128.798 97.9992 128.518 96.7392 128.098 95.4792H128.238C129.498 95.1992 129.498 93.3792 128.238 92.9592C127.818 92.8192 127.398 92.8192 126.978 92.6792C126.698 92.3992 126.278 92.3992 125.858 92.5392C125.578 92.5392 125.298 92.5392 125.018 92.5392C124.738 90.2992 123.758 88.1992 123.198 86.0992C122.358 83.2992 121.378 80.4992 120.538 77.5592C118.718 71.5392 116.898 65.6592 115.078 59.6392C111.718 48.2992 108.498 36.9592 105.558 25.6192C105.558 25.1992 105.698 24.9192 105.838 24.4992C105.978 23.5192 105.138 22.9592 104.298 22.9592C104.018 22.9592 103.878 22.9592 103.598 23.0992C103.598 22.9592 103.598 22.9592 103.738 22.8192C103.878 22.8192 104.018 22.9592 104.158 22.9592C105.418 23.2392 106.818 22.6792 107.518 21.5592C108.218 20.5792 108.358 19.3192 108.218 18.0592C108.078 16.2392 107.518 13.8592 105.698 13.0192C104.718 12.4592 103.318 12.4592 102.338 13.1592C101.358 13.7192 100.798 14.6992 100.378 15.8192C99.3981 18.1992 99.9581 21.2792 101.358 23.3792C101.638 23.9392 102.338 24.0792 103.038 23.9392C103.038 24.0792 102.898 24.3592 103.038 24.4992C103.178 24.7792 103.178 25.1992 103.318 25.4792C100.798 36.8192 97.1581 47.8792 93.2381 58.7992C91.1381 64.3992 88.8981 70.1392 86.5181 75.5992C84.1381 81.1992 81.4781 86.7992 79.9381 92.8192C79.7981 93.0992 79.9381 93.3792 79.9381 93.5192C79.7981 93.6592 79.5181 93.7992 79.5181 93.9392C78.9581 93.7992 78.2581 93.9392 78.1181 94.6392C77.4181 97.5792 79.5181 99.3992 81.8981 100.239C81.8981 100.379 81.8981 100.379 81.8981 100.519C82.7381 103.319 82.3181 106.119 82.0381 108.919C81.7581 111.719 81.4781 114.519 81.1981 117.319C80.6381 122.919 79.6581 128.799 80.0781 134.399C80.0781 134.819 80.6381 134.959 80.7781 134.539C82.1781 128.939 82.3181 122.779 82.7381 117.039C83.0181 114.099 83.2981 111.299 83.4381 108.359C83.7181 105.839 83.8581 103.179 83.1581 100.799C83.2981 100.799 83.5781 100.799 83.7181 100.939C88.6181 101.359 93.6581 101.499 98.5581 101.779C107.098 102.479 115.778 103.039 124.318 101.639C124.038 107.379 122.218 112.839 119.278 117.739C116.058 123.059 111.158 126.699 106.818 131.039C102.898 134.959 100.098 139.579 99.6781 145.179C99.5381 147.279 99.6781 149.659 100.238 151.899C99.8181 151.619 99.1181 151.479 98.6981 151.339C98.1381 151.199 97.5781 150.919 97.1581 150.779C94.9181 150.219 92.6781 149.799 90.4381 149.799C88.7581 149.799 88.7581 152.459 90.4381 152.459C92.1181 152.459 93.6581 152.599 95.3381 153.019C96.1781 153.159 97.0181 153.439 97.7181 153.719C98.4181 153.999 99.2581 154.419 99.9581 154.419C100.518 154.559 100.938 154.699 101.498 154.839C102.198 156.239 103.038 157.499 104.298 158.339C104.298 159.039 104.718 159.879 105.558 159.879C106.118 159.879 106.538 159.879 107.098 159.879C107.098 160.019 107.098 160.159 107.098 160.299C107.938 164.079 108.498 167.999 109.058 171.779C109.338 173.739 109.478 175.559 109.618 177.519C109.758 178.499 109.618 180.179 110.038 181.299C110.038 181.299 110.038 181.299 109.898 181.439C108.778 183.119 107.658 184.659 106.538 186.339C105.558 187.739 104.298 189.139 103.878 190.819C102.758 194.039 104.858 197.399 104.998 200.619C105.558 208.319 104.438 216.159 104.998 223.999C105.138 225.259 107.098 225.819 107.378 224.279C107.938 220.779 107.938 217.139 108.078 213.499C108.218 209.719 108.218 205.939 108.078 202.159C108.078 200.619 107.938 198.939 107.658 197.399C107.378 195.859 106.398 194.319 106.538 192.639C106.538 190.819 108.078 189.139 109.058 187.739C110.178 186.059 111.158 184.519 112.278 182.839C117.738 183.679 123.058 184.519 128.518 185.079C131.318 185.359 133.978 185.639 136.778 185.779C138.738 185.919 141.258 186.339 143.358 185.919C144.198 187.599 145.178 188.999 145.738 190.819C145.878 190.959 145.878 191.239 145.878 191.379C143.778 191.379 141.678 191.659 139.718 191.799C136.078 192.079 132.578 192.219 128.938 192.499C121.938 193.059 114.938 193.759 107.938 193.899C106.818 193.899 106.818 195.719 107.938 195.719C115.078 195.859 122.078 195.299 129.218 195.019C132.718 194.879 136.078 194.599 139.578 194.319C141.538 194.179 143.918 194.179 146.018 193.899C146.018 195.019 146.018 196.139 146.018 197.119C146.018 198.379 146.018 199.499 146.018 200.759C146.018 201.039 146.018 201.319 145.878 201.599C145.878 201.879 146.018 202.439 146.298 202.719C146.578 202.999 146.858 203.139 147.138 203.139C148.398 203.419 149.238 202.999 149.378 202.159ZM89.7381 77.5592C91.9781 71.8192 94.2181 66.0792 96.3181 60.3392C99.6781 50.9592 102.478 41.4392 104.578 31.6392C106.818 41.4392 109.198 51.2392 111.718 60.8992C113.258 66.7792 114.938 72.7992 116.758 78.6792C117.598 81.6192 118.578 84.5592 119.558 87.4992C120.118 89.1792 120.538 91.2792 121.378 92.9592C120.538 92.9592 119.698 92.9592 118.858 92.9592C118.858 92.8192 118.718 92.5392 118.718 92.3992C118.578 92.1192 118.438 91.6992 118.438 91.4192C118.018 90.0192 117.458 88.7592 116.898 87.3592C116.618 86.7992 116.058 86.2392 115.358 86.5192C114.938 86.6592 114.658 87.0792 114.518 87.4992C114.238 88.0592 114.098 88.4792 113.818 89.0392C113.538 89.5992 113.398 90.1592 113.398 90.8592C113.258 91.8392 114.798 91.9792 115.078 91.1392C115.078 90.9992 115.218 90.8592 115.218 90.7192C115.358 91.2792 115.498 91.8392 115.638 92.3992C115.778 92.6792 115.778 92.9592 115.918 93.2392C113.538 93.2392 111.158 93.0992 108.778 93.0992C108.358 92.1192 107.658 91.2792 107.098 90.4392C106.538 89.3192 105.838 88.3392 105.278 87.2192C104.718 86.2392 103.178 86.2392 102.618 87.2192C101.918 88.4792 101.358 89.8792 100.798 91.2792C100.518 91.9792 100.938 92.6792 101.638 92.9592C100.238 92.9592 98.8381 92.9592 97.4381 92.9592C97.4381 92.8192 97.4381 92.8192 97.4381 92.6792C97.5781 92.3992 97.5781 92.1192 97.4381 91.8392C97.4381 91.5592 97.2981 91.4192 97.1581 91.2792C97.0181 90.9992 96.8781 90.8592 96.7381 90.5792C96.4581 90.1592 96.1781 89.7392 95.8981 89.1792C95.6181 88.7592 95.3381 88.1992 95.1981 87.7792C95.0581 87.4992 94.9181 87.3592 94.9181 87.0792C94.9181 86.9392 94.7781 86.9392 94.7781 86.7992C94.7781 86.7992 94.6381 86.3792 94.6381 86.5192C94.4981 86.0992 94.0781 85.6792 93.5181 85.6792C92.9581 85.6792 92.5381 85.8192 92.2581 86.2392C91.2781 87.9192 90.4381 89.7392 89.7381 91.6992C89.5981 92.1192 89.7381 92.5392 90.0181 92.8192C87.4981 92.8192 84.8381 92.9592 82.3181 93.3792C85.5381 88.3392 87.4981 82.8792 89.7381 77.5592ZM104.858 92.8192C104.438 92.8192 104.018 92.8192 103.598 92.8192C103.318 92.8192 102.898 92.8192 102.618 92.8192C103.038 92.6792 103.318 92.3992 103.458 91.8392C103.458 91.6992 103.598 91.5592 103.598 91.4192C103.598 91.4192 103.738 91.2792 103.738 91.1392C103.738 91.2792 103.878 91.2792 103.878 91.4192C104.298 91.8392 104.578 92.2592 104.858 92.8192ZM94.9181 92.6792C93.9381 92.6792 92.9581 92.6792 91.9781 92.6792C92.1181 92.5392 92.2581 92.3992 92.2581 92.1192C92.3981 91.8392 92.3981 91.6992 92.5381 91.4192C92.5381 91.2792 92.6781 91.2792 92.6781 91.1392V90.9992C92.8181 90.5792 93.0981 90.1592 93.2381 89.7392C93.2381 89.5992 93.3781 89.5992 93.3781 89.4592C93.5181 89.7392 93.5181 89.8792 93.6581 90.1592C93.9381 90.5792 94.0781 91.1392 94.3581 91.5592C94.4981 91.8392 94.6381 91.9792 94.7781 92.2592C94.7781 92.5392 94.9181 92.5392 94.9181 92.6792ZM102.898 99.5392C98.8381 99.2592 94.7781 98.8392 90.7181 98.6992C88.7581 98.5592 86.7981 98.5592 84.8381 98.5592C83.2981 98.5592 80.4981 98.1392 80.2181 96.3192C80.3581 96.3192 80.4981 96.3192 80.6381 96.3192C84.4181 95.0592 88.1981 95.1992 92.1181 95.3392C96.1781 95.4792 100.238 95.6192 104.298 95.7592C108.218 95.8992 112.138 95.8992 116.198 96.0392C116.618 96.0392 117.038 96.0392 117.458 96.0392L117.598 96.1792C117.878 96.4592 118.578 96.4592 118.718 96.0392C119.978 96.0392 121.238 96.0392 122.358 96.1792C123.338 96.1792 124.458 96.3192 125.578 96.3192C125.718 97.1592 125.998 98.1392 126.278 98.9792C118.578 100.379 110.738 100.099 102.898 99.5392ZM106.538 157.219C106.258 156.379 105.838 155.539 105.418 154.699C104.718 153.439 104.158 152.179 103.878 150.919C103.178 148.399 102.898 145.739 103.178 143.219C104.018 137.339 108.078 133.419 112.418 129.779C115.078 127.399 117.598 125.019 119.698 122.219C118.158 125.999 116.478 129.919 115.498 133.979C113.678 140.979 113.398 150.779 119.418 155.959C120.258 156.659 121.938 155.679 121.098 154.699C118.858 151.479 117.318 148.259 116.758 144.339C116.198 140.139 117.038 135.799 118.298 131.739C120.398 124.599 123.898 117.739 125.298 110.319C125.578 109.199 125.858 107.939 125.998 106.819C126.978 111.159 128.798 115.219 131.598 118.999C132.438 120.119 133.278 121.099 134.118 122.079C135.798 126.139 137.338 130.199 137.758 134.679C138.038 138.179 137.898 141.679 137.058 145.039C136.638 146.719 136.218 148.399 135.518 150.079C134.958 151.479 133.838 153.159 134.398 154.699C134.538 155.119 134.958 155.399 135.378 155.259C136.918 154.839 137.618 153.019 138.178 151.619C138.878 149.939 139.298 148.119 139.718 146.299C140.418 142.659 140.698 138.879 140.278 135.099C139.998 132.159 139.298 129.359 138.318 126.699C139.858 128.379 141.538 129.919 143.218 131.459C147.278 135.239 151.758 139.019 151.758 145.039C151.758 147.419 151.058 149.799 149.798 151.759C148.538 153.859 146.718 155.119 145.038 156.799C144.618 156.799 144.198 156.799 143.778 156.799C141.958 156.799 140.138 156.799 138.318 156.799C134.818 156.799 131.178 156.799 127.678 156.799C120.538 156.799 113.538 156.939 106.538 157.219ZM143.358 171.779C143.218 173.739 143.078 175.699 142.938 177.799C142.938 178.779 142.798 179.899 142.938 180.879V181.019C142.518 181.299 142.238 181.719 142.238 182.279C142.238 182.699 142.378 183.259 142.518 183.679C140.838 183.539 139.018 183.679 137.618 183.539C134.818 183.399 131.878 183.119 129.078 182.979C123.618 182.419 118.158 181.719 112.698 181.019C112.838 179.899 112.558 178.639 112.558 177.659C112.418 175.559 112.138 173.599 111.858 171.499C111.298 167.579 110.458 163.799 109.478 160.019C115.498 160.019 121.518 160.019 127.538 160.019C131.038 160.019 134.678 160.019 138.178 160.019C139.998 160.019 141.818 160.019 143.638 160.019C144.058 160.019 144.618 160.019 145.038 160.019C144.478 163.939 143.638 167.859 143.358 171.779Z" fill="#151314"/>
<path d="M158.338 196.839C157.078 199.359 155.958 201.879 155.118 204.399C155.118 204.399 155.118 204.399 154.978 204.399C154.838 204.399 154.838 204.399 154.698 204.259H154.558C154.418 204.259 154.278 204.119 154.138 203.979C153.998 203.979 153.998 203.839 153.858 203.839C153.858 203.839 153.858 203.839 153.718 203.839L153.578 203.699C153.578 203.699 153.438 203.699 153.438 203.559C153.298 203.559 153.298 203.419 153.158 203.419C153.158 203.279 153.018 203.279 153.018 203.139C153.018 203.139 153.018 203.139 153.018 202.999C152.878 202.859 152.738 202.719 152.738 202.439C152.598 202.019 152.038 201.879 151.618 202.159C151.198 202.439 151.058 202.859 151.338 203.279C151.758 203.979 152.178 204.539 152.878 205.099C153.158 205.239 153.438 205.519 153.718 205.659C153.858 205.799 154.138 205.799 154.278 205.939H154.418C154.138 206.919 153.858 207.899 153.578 208.879L153.438 209.019L151.198 215.039C150.778 216.019 150.498 216.999 150.078 217.979C149.938 218.539 149.658 218.959 149.518 219.519C149.378 219.939 149.238 220.219 149.238 220.639C149.098 220.639 149.098 220.639 148.958 220.639C148.818 220.639 148.678 220.639 148.678 220.639V220.499C148.678 220.359 148.678 220.219 148.818 220.219C148.818 220.079 148.818 219.939 148.818 219.799C148.958 219.799 149.098 219.799 149.098 219.659C149.798 218.819 149.798 217.559 150.078 216.439C150.358 215.319 150.498 214.199 150.778 213.079C151.198 210.839 151.758 208.459 152.318 206.219C152.458 205.799 151.758 205.519 151.618 206.079C150.918 208.319 150.358 210.559 149.798 212.799C149.518 213.919 149.238 215.039 148.958 216.019C148.818 216.579 148.678 217.139 148.538 217.839C148.398 218.399 148.258 218.819 148.398 219.239C148.258 219.239 148.118 219.239 147.978 219.239C147.978 219.099 147.978 218.819 147.838 218.679C147.838 218.259 147.698 217.839 147.698 217.279C147.698 216.859 147.698 216.439 147.698 216.019C147.698 215.599 147.418 215.319 146.998 215.319C146.718 215.319 146.578 215.459 146.438 215.599C146.018 215.599 145.598 215.739 145.598 216.299C145.598 217.419 145.598 218.539 145.598 219.519C145.598 219.799 145.458 220.219 145.458 220.639C145.458 220.779 145.458 221.059 145.458 221.199C145.458 221.339 145.458 221.339 145.458 221.479C145.458 221.619 145.458 221.619 145.458 221.759C145.458 221.759 145.458 221.759 145.458 221.899C145.458 222.039 145.598 222.319 145.738 222.459C145.878 223.159 145.878 223.719 146.018 224.419C146.018 224.839 146.158 225.259 146.298 225.679C146.438 226.239 146.718 226.519 146.998 226.939C147.278 227.359 148.118 227.359 148.258 226.799C148.398 226.379 148.538 225.819 148.538 225.399C148.538 224.979 148.398 224.559 148.398 223.999C148.258 223.299 148.118 222.599 147.978 222.039V221.899C147.978 221.899 147.978 221.899 147.978 221.759C148.258 221.899 148.538 221.899 148.678 221.899C148.678 222.039 148.678 222.179 148.818 222.459C148.958 222.739 148.958 223.019 149.238 223.159C149.518 223.439 149.798 223.439 150.218 223.439C150.358 223.439 150.498 223.439 150.638 223.299C150.778 223.159 150.918 223.019 151.058 222.879C151.058 222.739 151.058 222.459 151.058 222.319C150.918 222.179 150.778 222.039 150.638 222.039H150.498C150.358 221.619 150.218 221.199 149.938 220.779C150.218 220.499 150.358 220.219 150.498 219.939C150.638 219.379 150.778 218.959 151.058 218.399C151.338 217.419 151.758 216.299 152.038 215.319C152.318 214.619 152.458 213.779 152.738 213.079C152.598 214.199 152.458 215.179 152.318 216.299C152.178 218.259 151.618 220.779 153.298 222.319C153.998 222.879 154.978 222.319 154.838 221.479C154.558 219.519 154.698 217.419 154.838 215.459C154.978 213.359 155.258 211.259 155.678 209.299C156.378 205.239 157.358 201.039 158.758 197.259C159.318 196.699 158.618 196.419 158.338 196.839Z" fill="#151314"/>
<path d="M162.258 193.199C160.298 193.479 158.338 193.899 156.518 194.879C154.698 195.719 152.878 196.839 151.758 198.519C151.198 199.359 150.778 200.339 151.058 201.319C151.198 201.739 151.338 202.159 151.898 202.159C152.458 202.019 152.458 201.599 152.458 201.179C152.458 200.059 152.878 199.219 153.578 198.379C154.278 197.679 155.118 196.979 155.958 196.419C157.918 195.159 160.158 194.319 162.538 193.899C162.678 193.759 162.678 193.199 162.258 193.199Z" fill="#151314"/>
<path d="M133.419 175.84C133.419 175.42 133.419 175 133.279 174.44C133.139 173.46 133.279 172.48 133.279 171.5C133.279 170.94 132.719 170.52 132.299 170.52C131.739 170.52 131.319 170.94 131.319 171.5C131.179 172.48 131.179 173.46 131.319 174.44C131.319 175 131.459 175.42 131.599 175.98C131.739 176.54 131.879 177.38 132.719 177.38C133.139 177.38 133.419 177.1 133.559 176.68C133.559 176.54 133.559 176.12 133.419 175.84Z" fill="#151314"/>
<path d="M140.139 169.959C139.579 169.819 138.739 170.239 138.599 170.799C138.179 172.479 137.899 174.159 137.759 175.839C137.759 176.119 137.759 176.259 137.759 176.539C137.759 176.819 137.759 176.959 137.899 177.239C137.899 177.659 137.899 177.939 138.039 178.359C138.179 179.199 138.179 180.039 138.599 180.879C138.739 181.439 139.719 181.579 139.859 180.879C139.999 180.039 139.999 179.339 140.139 178.499C140.279 177.519 140.419 177.099 140.419 175.979C140.559 174.439 140.839 172.899 141.119 171.359C141.119 170.939 140.839 170.239 140.139 169.959Z" fill="#151314"/>
<path d="M85.2576 140.138C89.3176 138.178 94.6376 140.278 96.4576 144.198C96.7376 144.898 97.5776 144.758 98.1376 144.478C100.098 142.938 102.058 145.458 104.018 145.738C104.298 145.738 104.578 145.458 104.438 145.178C104.018 143.778 102.338 142.658 101.078 142.238C99.9576 141.818 98.8376 141.958 97.8576 142.378C95.0576 138.038 89.0376 136.358 84.4176 138.598C83.2976 139.158 84.1376 140.698 85.2576 140.138Z" fill="#151314"/>
<path d="M150.917 227.778C149.097 227.778 147.417 227.778 145.597 227.778C121.377 227.778 97.0171 228.478 72.9371 230.718C59.7771 231.838 46.3371 232.818 33.3171 229.598C31.9171 229.178 31.2171 231.418 32.7571 231.838C44.0971 234.918 55.7171 234.918 67.3371 234.218C79.3771 233.518 91.2771 232.398 103.177 231.978C119.837 231.278 136.497 231.138 153.017 231.278C152.317 230.158 151.617 228.898 150.917 227.778Z" fill="#151314"/>
<path d="M155.117 183.258C155.117 183.118 154.977 182.978 154.977 182.838C154.837 182.698 154.837 182.558 154.697 182.418L154.557 182.278L154.417 182.138C154.277 182.138 154.137 181.998 154.137 181.998C153.997 181.998 153.857 181.998 153.717 181.998C153.577 181.998 153.577 181.998 153.437 181.998C153.297 181.998 153.297 181.998 153.157 181.858C153.017 181.858 152.877 181.858 152.737 181.858C152.597 181.858 152.597 181.858 152.457 181.998C152.457 181.998 152.457 181.998 152.317 182.138C150.777 181.858 149.377 181.718 147.977 181.438C146.577 181.158 146.017 183.118 147.417 183.538C149.237 183.958 150.917 184.238 152.737 184.518C152.877 184.658 153.157 184.658 153.297 184.658C153.437 184.658 153.437 184.658 153.577 184.518C153.717 184.518 153.857 184.518 153.997 184.658V184.518H154.137C154.277 184.518 154.417 184.378 154.557 184.238C154.697 184.098 154.837 183.958 154.837 183.818C154.837 183.678 154.837 183.538 154.837 183.398C155.257 183.538 155.117 183.398 155.117 183.258Z" fill="#151314"/>
<path d="M201.457 142.938C198.377 139.298 193.897 137.478 190.117 134.818C186.197 132.018 182.837 127.678 181.297 123.058C181.297 122.918 181.157 122.918 181.157 122.778C181.577 122.498 181.857 122.218 181.857 121.798C182.137 120.958 182.277 119.978 182.137 119.138C182.137 118.998 182.137 118.858 182.137 118.718C182.137 118.438 182.137 118.158 181.997 117.878C181.857 117.598 181.857 117.318 181.577 117.178C181.297 116.898 181.157 116.618 180.737 116.478C180.737 116.478 180.597 116.478 180.457 116.478C179.757 116.058 178.777 115.918 177.937 116.198C176.817 116.618 175.977 117.458 175.697 118.578C175.557 119.278 175.557 119.838 175.697 120.538C175.837 121.238 176.257 121.798 176.677 122.218C176.817 122.498 177.377 122.638 177.657 122.638C177.937 122.638 178.077 122.498 178.357 122.498C178.637 122.778 179.057 123.058 179.477 123.198V123.338C179.337 123.338 179.057 123.478 178.917 123.618C178.077 124.738 177.657 126.278 176.957 127.538C176.257 128.938 175.417 130.198 174.577 131.318C172.757 133.838 170.377 135.938 167.997 137.758C165.617 139.718 162.957 141.258 160.297 142.798C157.917 144.198 155.537 145.878 154.417 148.398C154.137 148.398 153.857 148.538 153.857 148.818C153.437 151.478 152.597 153.998 151.337 156.238C150.637 157.358 149.937 158.478 149.097 159.458C148.677 160.018 148.257 160.438 147.837 160.858C147.277 161.418 146.717 161.698 146.717 162.538C146.717 162.958 147.137 163.378 147.557 163.378C148.397 163.378 148.817 162.678 149.377 162.118C149.797 161.558 150.357 161.138 150.777 160.578C151.617 159.458 152.457 158.198 153.017 156.938C153.577 155.678 154.137 154.418 154.417 153.018C155.397 155.398 156.237 157.778 157.777 160.018C159.177 162.118 160.717 163.938 162.397 165.758C162.537 166.178 162.677 166.598 162.957 166.878C163.097 167.018 163.377 167.298 163.657 167.298C163.797 167.298 163.797 167.298 163.937 167.298C164.077 167.298 164.217 167.438 164.357 167.438C164.497 167.438 164.777 167.438 164.917 167.438C165.057 167.438 165.337 167.438 165.477 167.298C165.617 167.158 165.617 167.158 165.757 167.018C165.897 166.878 166.037 166.598 166.177 166.458C166.317 166.178 166.317 165.758 166.177 165.478C166.177 165.198 165.897 164.918 165.757 164.638C165.757 164.498 165.617 164.498 165.477 164.498C165.477 164.498 165.477 164.498 165.337 164.358C165.337 164.218 165.337 164.218 165.337 164.078C165.337 163.938 165.197 163.798 165.197 163.798C165.057 163.658 165.057 163.518 164.917 163.378C164.777 163.238 164.777 163.238 164.637 163.238C164.497 163.238 164.497 163.238 164.357 163.238C163.377 162.258 162.397 161.138 161.417 160.018C159.177 157.358 157.077 154.418 155.537 151.338C155.397 151.058 155.117 150.918 154.837 150.918C154.977 150.498 154.977 150.078 154.977 149.518C155.397 149.798 155.957 149.658 156.237 149.098C157.497 146.298 160.157 144.898 162.817 143.498C165.477 141.958 168.137 140.278 170.517 138.318C172.897 136.498 174.997 134.258 176.817 131.878C177.517 131.038 178.077 130.198 178.497 129.218C177.937 134.258 176.537 139.298 174.017 143.638C172.757 145.878 171.217 147.838 169.117 149.518C167.157 151.198 164.917 152.178 162.817 153.438C162.397 153.578 162.537 154.278 163.097 154.278C168.417 153.858 172.897 149.378 175.277 144.898C178.077 139.858 179.757 134.118 180.037 128.378C181.017 131.458 181.997 134.538 182.977 137.618C183.957 140.698 185.357 143.918 185.357 147.138C185.357 150.218 184.097 153.298 182.557 155.958C181.717 157.218 180.877 158.478 179.897 159.598C179.057 160.578 177.797 161.418 177.237 162.538C177.237 162.678 177.097 162.818 177.097 162.818C177.237 162.818 177.377 162.818 177.517 162.818C177.517 162.958 177.517 162.958 177.517 163.098C177.517 163.238 177.517 163.378 177.517 163.518C177.517 163.658 177.517 163.658 177.517 163.798C177.517 163.938 177.657 164.078 177.657 164.078C177.657 164.218 177.797 164.218 177.797 164.218C177.937 164.358 177.937 164.358 178.077 164.358C178.217 164.358 178.357 164.358 178.497 164.358C178.637 164.358 178.777 164.358 178.917 164.358C179.057 164.358 179.197 164.218 179.337 164.218C179.477 164.218 179.617 164.078 179.757 163.938C180.037 163.658 180.037 163.378 180.037 163.098V162.958C181.857 161.838 183.537 159.458 184.517 157.918C186.337 155.118 187.597 151.898 187.877 148.678C188.297 145.038 186.897 141.538 185.637 138.178C184.517 135.378 183.537 132.578 182.417 129.778C183.257 131.038 184.097 132.298 185.077 133.558C184.937 133.838 184.797 134.258 185.077 134.678C187.877 139.998 190.957 145.178 193.757 150.638C195.017 153.018 195.997 155.538 195.857 158.198C195.857 159.458 195.437 160.718 194.877 161.698C194.457 162.678 193.757 163.378 193.337 164.358C193.197 164.638 193.337 164.918 193.477 165.058C192.917 165.058 192.497 165.058 191.937 165.058C189.697 165.058 187.457 164.918 185.217 164.778C186.337 165.338 187.457 165.898 188.577 166.598C190.957 166.738 193.477 166.878 195.857 166.738C195.857 166.878 195.717 167.018 195.717 167.018V167.998C195.297 167.858 194.737 167.858 194.177 167.998C193.057 167.998 191.937 168.138 190.677 168.278C190.817 168.418 190.957 168.558 191.097 168.698C190.817 168.698 190.537 168.838 190.257 168.838C190.117 168.838 189.977 168.978 189.837 168.978C189.697 169.118 189.697 169.118 189.557 169.258C189.557 169.398 189.417 169.398 189.417 169.538C189.417 169.678 189.417 169.818 189.417 169.958C189.417 170.098 189.417 170.098 189.557 170.238C189.557 170.378 189.697 170.518 189.837 170.518C189.977 170.518 189.977 170.658 190.117 170.658C190.257 170.798 190.257 170.938 190.397 170.938C190.537 171.078 190.677 171.078 190.817 171.078C190.957 171.078 191.097 171.078 191.237 171.078C191.377 171.078 191.517 170.938 191.657 170.938C191.797 170.938 191.797 170.938 191.937 170.798C191.937 170.798 191.937 170.798 192.077 170.798H191.937C192.077 170.798 192.217 170.658 192.357 170.518C192.497 170.378 192.497 170.238 192.637 170.098C193.057 170.098 193.477 170.098 194.037 169.958C194.597 169.958 195.297 169.818 195.717 169.538C195.717 169.678 195.857 169.678 195.857 169.818C195.997 169.958 195.997 170.238 196.137 170.378C196.277 170.798 197.117 170.798 197.257 170.378C197.397 170.238 197.397 169.958 197.537 169.818C197.817 169.538 197.957 169.258 197.957 168.978V166.878C197.957 166.738 197.957 166.458 197.817 166.318C197.957 166.318 198.237 166.318 198.377 166.178C198.377 166.318 198.237 166.318 198.237 166.458C198.097 167.018 198.797 167.578 199.217 167.298C201.177 166.178 202.437 163.798 203.277 161.838C204.257 159.878 204.817 157.778 204.957 155.538C205.797 151.198 204.397 146.438 201.457 142.938ZM201.457 160.578C200.897 162.118 200.057 163.378 199.357 164.778C197.817 164.778 196.417 164.918 194.877 165.058C196.697 164.218 197.677 161.698 198.097 159.878C198.657 157.078 198.237 154.138 197.117 151.478C195.997 148.398 194.317 145.738 192.637 142.938C191.517 141.118 190.397 139.298 189.277 137.338C191.517 138.878 193.897 140.278 196.137 141.818C200.057 144.478 202.437 148.678 202.577 153.438C202.717 155.818 202.297 158.338 201.457 160.578Z" fill="#151314"/>
<path d="M172.197 180.179C172.197 180.319 172.337 180.319 172.337 180.459C172.337 180.459 172.337 180.599 172.477 180.599C172.617 180.739 172.617 180.739 172.757 180.739C172.897 180.739 173.037 180.879 173.177 180.879C173.317 180.879 173.457 180.879 173.597 180.739C173.597 180.739 173.737 180.739 173.737 180.599L173.877 180.459L174.017 180.319C174.157 180.179 174.157 180.179 174.297 180.039C174.437 179.899 174.437 179.619 174.437 179.479V179.339V179.199C174.437 179.059 174.297 179.059 174.297 178.919C174.297 178.919 174.297 178.779 174.157 178.779L174.017 178.639C173.877 178.499 173.737 178.499 173.457 178.499C173.317 178.499 173.177 178.499 173.177 178.499C173.037 178.499 173.037 178.499 172.897 178.639L172.757 178.779L172.617 178.919L172.477 179.059C172.337 179.199 172.337 179.199 172.337 179.339C172.337 179.479 172.337 179.619 172.337 179.899C172.057 180.179 172.057 180.179 172.197 180.179C172.197 180.319 172.197 180.319 172.197 180.319C172.197 180.459 172.197 180.319 172.197 180.179C172.197 180.319 172.197 180.319 172.197 180.179Z" fill="#151314"/>
<path d="M167.997 173.319C167.997 173.179 167.857 173.039 167.717 173.039C167.577 172.899 167.437 172.759 167.297 172.759C167.297 172.759 167.297 172.759 167.157 172.759C167.017 172.759 166.877 172.619 166.877 172.619C166.737 172.619 166.597 172.619 166.457 172.619C166.317 172.619 166.177 172.619 166.037 172.619C165.897 172.619 165.897 172.759 165.757 172.759C165.617 172.759 165.617 172.899 165.477 172.899C165.337 173.039 165.337 173.039 165.337 173.179C165.197 173.319 165.197 173.459 165.197 173.599V173.739V174.019C165.337 174.299 165.337 174.299 165.477 174.579C165.617 174.719 165.617 174.719 165.757 174.859C166.037 174.999 166.317 174.999 166.597 174.999C166.737 174.999 167.017 174.859 167.157 174.719C167.157 174.719 167.157 174.719 167.297 174.719C167.437 174.719 167.437 174.719 167.577 174.579C167.717 174.439 167.717 174.439 167.857 174.299L167.997 174.019C167.997 173.879 167.997 173.879 167.997 173.739C168.137 173.599 168.137 173.459 167.997 173.319Z" fill="#151314"/>
<path d="M188.157 180.879C188.437 180.599 188.577 180.179 188.577 179.759C188.717 179.059 188.577 178.359 188.157 177.799C187.877 177.379 187.737 177.099 187.877 176.679C188.017 176.259 188.157 175.839 188.157 175.419C188.297 174.719 188.297 174.159 188.017 173.459C187.877 173.179 187.737 172.899 187.457 172.759C187.177 172.479 186.617 172.339 186.337 172.199C185.777 171.779 185.917 170.659 185.637 169.959C185.357 169.259 184.797 168.699 184.237 168.419C183.957 168.279 183.537 168.279 183.257 168.139C182.697 168.139 181.997 168.419 181.717 167.859C181.577 167.579 181.577 167.159 181.577 166.879C181.437 166.459 181.297 166.179 181.017 165.899C180.457 165.479 179.757 165.479 179.197 165.619C178.777 165.619 178.497 165.759 178.217 165.899C178.077 165.899 177.937 166.039 177.797 166.039C177.377 166.039 177.377 166.039 177.237 165.759C176.957 165.339 177.097 165.059 176.677 164.639C176.397 164.499 176.117 164.359 175.837 164.219C175.557 164.219 175.137 164.219 174.857 164.359C174.437 164.499 174.157 164.779 173.737 164.919C173.317 165.059 172.897 164.499 172.477 164.499C172.197 164.499 171.777 164.639 171.497 164.779C171.217 164.919 171.077 165.199 170.797 165.479C170.517 165.899 170.657 165.619 170.097 165.479C169.257 165.199 168.417 165.619 167.997 166.459C167.717 167.299 167.997 168.139 168.697 168.699C168.557 168.699 168.557 168.699 168.417 168.699C162.117 170.519 157.497 176.399 157.637 182.979C157.777 186.339 158.897 189.699 161.277 192.079C163.657 194.599 167.157 195.439 170.517 195.299C172.477 195.159 174.297 194.739 176.117 194.039C177.517 193.479 179.477 192.499 180.317 191.099C180.457 190.819 180.177 190.539 180.037 190.679C179.337 190.959 178.637 191.519 177.937 191.939C177.097 192.499 176.117 192.919 175.137 193.339C173.457 194.039 171.637 194.319 169.817 194.319C167.717 194.319 165.477 193.899 163.657 192.779C161.837 191.659 160.577 189.699 159.877 187.739C157.077 180.319 161.277 172.059 168.837 169.959C169.397 169.819 169.397 169.259 169.257 168.839C169.397 168.839 169.677 168.839 169.817 168.839C169.677 169.119 169.397 169.259 169.397 169.539C169.397 169.819 169.537 170.099 169.817 170.379C170.097 170.519 170.377 170.659 170.797 170.659C171.077 170.659 171.357 170.519 171.637 170.659C171.917 170.799 171.917 170.939 172.057 171.359C172.197 172.199 172.337 172.899 173.177 173.319C173.877 173.739 174.997 173.599 175.277 174.439C175.557 175.279 175.417 176.119 176.117 176.819C176.397 177.099 176.957 177.239 177.377 177.379C177.657 177.379 178.777 177.099 179.057 177.379C179.197 177.519 178.917 178.359 178.917 178.499C178.917 178.919 179.057 179.199 179.337 179.479C179.617 179.759 180.037 179.759 180.317 179.759C180.877 179.759 181.437 179.479 181.577 180.179C181.857 181.019 181.997 181.859 182.837 182.279C183.677 182.699 184.517 182.839 185.357 183.119C184.937 183.119 184.657 183.259 184.377 183.539C184.097 183.679 184.237 184.239 184.517 184.239C185.777 184.379 187.597 184.239 188.157 182.839C188.437 182.139 188.157 181.859 187.737 181.299C187.737 181.159 187.597 181.159 187.597 181.159C187.597 181.159 187.597 181.159 187.597 181.019C187.877 181.299 188.017 181.019 188.157 180.879ZM187.037 180.039C186.757 180.599 186.057 181.019 186.197 181.719C186.197 181.999 186.337 182.279 186.617 182.559L186.897 182.699C187.037 182.979 187.037 183.259 186.617 183.399C186.337 183.539 186.057 183.539 185.917 183.539V183.399C185.637 182.699 184.937 182.419 184.097 182.279C183.677 182.139 183.257 181.999 182.977 181.719C182.697 181.299 182.697 180.879 182.557 180.459C182.277 179.759 181.857 179.199 181.017 179.199C180.737 179.199 180.597 179.199 180.317 179.199C180.037 179.199 179.897 179.199 179.897 178.919C179.897 178.499 180.177 178.079 180.177 177.659C180.177 176.819 179.337 176.259 178.637 176.259C178.217 176.259 177.377 176.539 176.957 176.259C176.677 176.119 176.677 175.419 176.677 175.139C176.537 174.299 176.257 173.599 175.417 173.179C174.717 172.759 173.597 173.039 173.177 172.339C172.757 171.639 172.897 170.659 172.057 170.379C171.637 170.239 171.217 170.379 170.797 170.379C169.817 170.519 170.517 169.959 170.657 169.399C170.657 169.119 170.517 168.979 170.377 168.979C170.517 168.699 170.517 168.419 170.097 168.139C169.957 168.139 169.817 167.859 169.677 167.859C169.957 167.999 170.097 167.999 170.377 167.999C170.937 167.999 171.357 167.719 171.637 167.439C171.777 167.299 171.917 167.159 172.057 167.019C172.057 167.019 172.197 167.019 172.197 167.159C172.757 167.439 173.457 167.439 174.017 167.159C174.297 167.019 174.717 166.739 174.997 166.599C175.417 166.459 175.277 166.459 175.417 166.879C175.557 167.439 175.977 167.859 176.537 167.999C176.957 168.139 177.517 168.139 178.077 167.999C178.637 167.859 179.477 167.299 180.037 167.579C180.457 167.859 180.457 168.699 180.597 169.119C180.877 169.679 181.297 169.819 181.997 169.959C182.697 170.099 183.537 169.679 184.097 170.379C184.657 170.939 184.517 171.639 184.657 172.339C184.797 172.899 184.937 173.319 185.357 173.599C185.917 174.019 186.617 174.019 186.757 174.859C187.037 176.119 185.637 177.379 186.337 178.499C186.757 178.639 187.457 179.059 187.037 180.039Z" fill="#151314"/>
<path d="M119.979 115.079C118.159 114.519 116.479 115.639 115.499 117.179C113.399 114.939 109.199 114.519 106.539 114.659C103.039 114.799 101.359 116.899 100.239 119.559C98.4193 117.179 94.4993 116.339 91.9793 115.639C88.1993 114.659 82.5993 114.799 82.3193 119.839C82.3193 121.379 84.5593 121.379 84.6993 119.839C84.8393 115.779 90.7193 117.599 92.9593 118.299C95.1993 118.999 98.5593 119.839 99.2593 122.499C99.5393 123.479 100.939 123.479 101.219 122.499C101.919 119.139 103.319 116.199 107.239 116.199C109.619 116.199 113.959 116.479 115.079 118.999C115.359 119.559 116.339 119.419 116.479 118.859C117.039 117.039 118.439 116.339 119.979 115.779C120.259 115.639 120.259 115.219 119.979 115.079Z" fill="#151314"/>
<path d="M111.439 129.779C108.779 127.679 105.279 126.139 101.919 126.839C99.5389 127.259 97.4389 128.659 96.3189 130.759C94.4989 128.799 92.3989 127.119 89.7389 126.559C87.0789 125.999 84.2789 126.559 82.4589 128.519C81.7589 129.219 82.8789 130.479 83.5789 129.639C87.6389 125.439 93.2389 129.919 96.0389 133.279C96.4589 133.839 97.5789 133.559 97.7189 132.859C98.2789 130.479 100.379 128.939 102.759 128.659C105.559 128.239 108.219 129.639 110.599 131.039C111.159 131.459 112.139 130.339 111.439 129.779Z" fill="#151314"/>
<path d="M78.3997 133.419C75.5997 130.339 72.3797 127.399 69.4397 124.459C66.0797 120.959 62.9998 117.319 60.0598 113.539C59.6398 112.839 58.6598 113.119 58.3798 113.679C58.3798 113.259 58.5197 112.979 58.5197 112.559C58.9397 112.559 59.3597 112.559 59.7798 112.279C60.3398 111.999 60.7597 111.439 61.0397 111.019C61.3197 110.599 61.4598 110.319 61.4598 109.899L61.5997 109.759C62.1597 108.919 62.1597 107.799 61.7397 106.819C61.3197 105.839 60.1997 105.279 59.2197 105.279C58.2397 105.279 57.2597 105.699 56.5597 106.399C56.1397 106.819 55.8597 107.379 55.7197 107.939C55.5797 108.499 55.5797 109.059 55.7197 109.759C55.8597 110.179 55.9997 110.739 56.2797 111.159C56.4197 111.439 56.6998 111.719 56.9798 111.999C56.2798 116.899 54.1797 121.519 49.8397 124.459C45.7797 127.259 40.7397 129.079 37.5197 132.999C34.0197 137.199 33.8797 142.799 34.5797 148.119C35.2797 152.599 36.1197 158.059 40.0397 160.859C39.8997 160.999 39.8997 160.999 39.7597 161.139C39.6197 161.419 39.6197 161.699 39.7597 161.979C40.0397 162.399 40.1797 162.959 40.3197 163.379C40.4597 163.659 40.5997 163.799 40.5997 164.079C40.7397 164.219 40.7397 164.499 40.8797 164.639C41.1597 164.919 41.4397 164.919 41.8597 164.779C42.1397 164.639 42.4197 164.359 42.4197 163.939C42.4197 163.799 42.2797 163.519 42.2797 163.379C42.1397 163.099 42.1397 162.959 41.9997 162.679C41.8597 162.259 41.5797 161.699 41.4397 161.279L41.5797 161.139C41.7197 161.279 41.8597 161.279 42.1397 161.279C48.4397 162.259 54.8797 163.239 61.3197 163.379C64.3997 163.379 67.3397 163.239 70.4197 162.959C70.5597 163.099 70.6997 163.239 70.9797 163.099C71.1197 163.099 71.1198 162.959 71.2598 162.959C74.0598 162.679 76.8597 162.539 79.6597 161.979C80.7797 161.839 80.3597 160.159 79.3797 160.159C77.5597 160.019 75.5997 160.159 73.7797 160.159C74.1997 159.599 74.6197 158.899 74.8997 158.339C76.0197 156.379 76.9997 154.419 77.4197 152.179C78.3997 147.559 76.5797 143.359 74.8997 139.159C73.6397 135.799 72.0997 132.579 70.4197 129.359C71.5397 130.479 72.6597 131.739 73.7797 132.859C76.4397 135.519 78.9597 138.319 80.4997 141.819C82.1797 145.599 81.6197 148.819 80.7797 152.599C80.6397 153.159 81.1997 153.299 81.6197 153.019C84.4197 150.779 84.4197 146.719 83.7197 143.499C83.1597 139.439 80.9197 136.219 78.3997 133.419ZM58.3798 113.959C58.3798 114.099 58.3797 114.239 58.5197 114.379C59.0797 115.219 59.6397 115.919 60.1997 116.619C59.9197 116.619 59.6397 116.899 59.4997 117.179L59.3598 117.039C58.6598 116.339 57.6797 117.319 58.2397 118.019C57.9597 117.739 57.5397 117.739 57.1197 117.879C57.8197 116.619 58.0998 115.359 58.3798 113.959ZM40.5997 156.799C40.0397 157.079 40.0397 157.639 40.1797 158.199C37.5197 154.559 36.6797 149.519 36.2597 145.319C35.9797 142.379 36.1197 139.299 37.3797 136.639C38.4997 134.259 40.4597 132.439 42.5597 131.039C45.3597 129.219 48.4397 127.679 51.2397 125.719C50.1197 129.079 48.8597 132.579 46.7597 135.519C45.7797 136.919 44.5197 138.319 43.2597 139.439C42.5597 139.999 41.8597 140.419 41.1597 140.839C40.3197 141.259 39.6197 141.819 38.7797 142.379C38.0797 142.799 38.3597 144.059 39.1997 144.059C40.3197 144.059 41.1597 143.919 42.1397 143.359C43.1197 142.939 43.8197 142.239 44.6597 141.679C46.1997 140.419 47.4597 138.879 48.5797 137.199C50.9597 133.279 52.0797 128.799 53.3397 124.459C53.3397 124.319 53.3397 124.039 53.3397 123.899C53.6197 123.619 54.0397 123.199 54.3197 122.919C55.2997 121.659 56.1397 120.259 56.8397 118.859C57.2597 122.919 56.9797 126.979 56.6997 131.039C56.4197 135.099 55.7197 139.159 54.3197 142.939C53.1997 146.159 51.5197 149.099 49.1397 151.619C46.6197 154.139 43.8197 155.399 40.5997 156.799ZM43.2597 158.479C49.1397 156.799 53.7597 150.499 55.9997 145.179C57.6797 141.259 58.3798 137.059 58.6598 132.859C59.0798 128.239 59.2198 123.339 58.6598 118.719C58.6598 118.579 58.6597 118.579 58.5197 118.439C63.2797 124.179 65.2397 132.019 65.7997 139.439C66.2197 146.859 64.2597 154.279 57.8197 158.619C57.1197 159.039 57.5397 160.019 58.2397 160.019C53.1997 159.879 48.2997 159.179 43.2597 158.479ZM73.0797 138.599C74.6197 142.519 76.7197 146.859 76.0197 151.199C75.5997 153.299 74.7597 155.259 73.6397 157.079C73.0797 158.059 72.3797 158.899 71.8197 159.879C68.5997 160.019 65.2397 160.299 62.0197 160.159C60.7597 160.159 59.6397 160.019 58.3798 160.019C58.5198 160.019 58.5198 160.019 58.6598 159.879C66.0798 156.519 68.4597 147.419 67.8997 139.999C67.3397 132.579 65.3797 124.739 60.8997 118.719C66.6397 124.319 70.1397 131.319 73.0797 138.599Z" fill="#151314"/>
<path d="M193.48 166.04C193.34 165.76 193.06 165.62 192.78 165.48C192.64 165.48 192.64 165.34 192.5 165.34C192.22 165.2 191.94 165.06 191.66 165.06C191.24 165.06 190.68 164.92 190.26 164.92C189.28 164.92 188.44 165.06 187.46 165.34C187.32 165.2 187.18 164.92 186.9 164.92C186.48 164.78 186.06 164.78 185.64 164.78C185.36 164.78 184.94 164.92 184.8 165.2C184.8 165.2 184.8 165.2 184.8 165.34C184.66 165.48 184.52 165.48 184.52 165.62C184.38 165.76 184.24 166.04 184.24 166.32C184.24 166.46 184.24 166.74 184.38 166.88C184.52 167.16 184.8 167.3 185.08 167.44C185.36 167.58 185.78 167.58 186.06 167.58C186.2 167.58 186.34 167.58 186.48 167.58C186.76 168 187.32 168.28 187.88 168.14C188.16 168.14 188.3 168 188.58 168C188.72 168 188.86 168 188.86 168C188.86 168 188.86 168 189 168C189.42 167.86 189.84 167.86 190.26 167.86C190.54 167.86 190.68 167.86 190.96 167.86C191.1 167.86 191.24 167.86 191.38 167.86C191.66 167.86 191.94 167.86 192.22 167.86H192.36C192.64 167.86 192.92 167.86 193.2 167.72C193.76 167.44 193.9 166.6 193.48 166.04Z" fill="#151314"/>
<path d="M192.08 188.44C191.94 188.3 191.94 188.3 192.08 188.44C191.94 188.3 191.94 188.3 191.8 188.16C191.66 188.16 191.66 188.02 191.52 188.02C191.52 188.02 191.52 188.02 191.38 188.02H191.24H191.1C190.96 188.02 190.96 188.02 190.82 188.16L190.68 188.3C190.54 188.44 190.54 188.58 190.4 188.72C190.4 188.86 190.4 188.86 190.4 189C190.4 189.14 190.4 189.14 190.4 189.28C190.4 189.42 190.4 189.42 190.54 189.56L190.68 189.7L190.82 189.84C190.82 189.84 190.96 189.84 190.96 189.98H191.1H191.24C191.24 189.98 191.24 189.98 191.38 189.98C191.52 189.98 191.52 189.84 191.66 189.84L191.8 189.7C191.8 189.56 191.94 189.56 191.94 189.42C191.94 189.28 191.94 189.28 191.94 189.14C191.94 189.14 191.94 189.14 191.94 189C191.94 188.86 191.94 188.72 191.94 188.72C192.08 188.58 192.08 188.58 192.08 188.44Z" fill="#151314"/>
<path d="M211.68 188.301C211.96 190.121 212.1 191.941 211.96 193.761C211.96 194.741 211.82 195.581 211.68 196.561C211.68 196.981 211.54 197.401 211.54 197.821C211.4 198.381 211.54 198.801 211.54 199.221C211.54 199.781 212.24 199.781 212.52 199.361C212.66 198.941 212.94 198.661 212.94 198.241C213.08 197.821 213.08 197.261 213.22 196.841C213.36 195.861 213.36 194.881 213.5 193.901C213.5 191.941 213.36 189.981 212.94 188.021C212.8 187.181 211.54 187.601 211.68 188.301Z" fill="#151314"/>
<path d="M209.58 232.401C210.14 233.101 210.84 233.521 211.68 233.941C212.38 234.221 213.08 233.381 212.52 232.961C212.24 232.681 211.96 232.401 211.68 232.121C211.4 231.841 211.12 231.561 210.84 231.421C210.28 230.861 209.86 230.301 209.44 229.741C208.6 228.481 208.18 227.081 207.9 225.541C207.76 224.841 206.78 224.841 206.78 225.541C206.92 227.221 207.34 228.901 208.18 230.441C208.6 231.001 209.02 231.701 209.58 232.401Z" fill="#151314"/>
<path d="M186.9 216.021C186.76 215.741 186.76 215.461 186.76 215.181C186.62 214.481 186.48 213.641 186.48 212.941C186.48 212.241 185.36 212.241 185.36 212.941C185.36 213.781 185.36 214.621 185.5 215.461C185.5 215.881 185.64 216.301 185.78 216.721C185.78 217.001 185.92 217.141 186.06 217.421L186.2 217.561C186.06 217.841 185.92 218.121 185.78 218.401C185.5 218.821 185.22 219.241 185.36 219.801C185.36 220.081 185.78 220.221 185.92 220.081C186.48 219.941 186.62 219.521 186.76 219.101C187.04 218.681 187.18 218.261 187.46 217.841C187.88 216.861 188.3 216.021 188.72 215.041C189.56 213.221 190.4 211.261 191.24 209.441C191.38 209.021 190.96 208.741 190.68 209.161C189.7 210.981 188.72 212.801 187.74 214.481C187.6 214.901 187.18 215.461 186.9 216.021Z" fill="#151314"/>
<path d="M208.32 245.56C208.04 243.6 207.76 241.78 207.48 239.82C207.34 239.26 206.5 239.26 206.5 239.82C206.64 241.78 206.92 243.6 207.06 245.56C207.2 246.54 207.34 247.38 207.48 248.36C207.62 249.2 207.9 250.32 208.46 251.02C208.6 251.16 208.88 251.16 208.88 251.02C209.02 250.18 209.02 249.2 208.74 248.5C208.6 247.52 208.46 246.54 208.32 245.56Z" fill="#151314"/>
<path d="M213.5 234.501C211.82 234.361 210.42 234.921 209.02 235.481C207.62 236.041 205.66 237.301 204.4 236.041C203.98 235.761 203.42 235.761 203.14 236.181C202.3 238.001 199.64 238.561 198.52 236.601C198.38 236.321 197.96 236.181 197.68 236.321C197.12 236.461 196.7 236.881 196.28 237.301C196.14 237.441 195.86 238.001 195.72 238.001C195.58 238.001 195.58 237.721 195.44 237.441C194.88 236.461 194.04 236.041 193.06 236.461C192.64 236.601 192.22 237.301 191.8 237.301C191.52 237.441 191.66 237.161 191.52 236.601C191.38 236.321 191.38 236.041 191.1 235.901C190.68 235.341 190.12 234.921 189.42 235.061C189.84 234.081 190.82 231.421 190.82 231.281C191.1 229.741 191.24 228.341 191.1 226.801C191.1 226.241 190.96 225.541 190.96 224.981C190.82 224.001 190.68 223.021 190.54 222.041C190.4 220.221 190.54 218.261 190.82 216.441C191.38 212.521 192.78 208.881 194.74 205.661C194.88 205.381 194.46 205.101 194.32 205.381C191.94 208.601 190.26 212.381 189.42 216.441C189.28 217.001 189.28 217.561 189.14 218.121C189 217.981 188.86 217.981 188.58 217.981C188.02 217.981 187.74 218.401 187.6 218.961V219.101C187.6 219.241 187.46 219.381 187.46 219.521C187.46 219.521 187.46 219.661 187.32 219.661C187.32 219.801 187.18 219.941 187.18 219.941L187.04 220.081L186.76 220.361C186.62 220.501 186.62 220.501 186.48 220.641C186.48 220.641 186.48 220.641 186.34 220.641C186.34 220.641 186.2 220.641 186.2 220.781C186.06 220.921 185.92 220.921 185.92 220.921C185.78 220.921 185.64 221.061 185.5 221.061H185.36C185.22 221.061 185.08 221.061 184.94 221.201C184.8 221.201 184.66 221.201 184.52 221.201C184.94 220.641 184.66 219.661 184.66 218.961C184.66 218.121 184.52 217.421 184.66 216.581C184.66 215.041 184.94 213.501 185.22 211.961C185.22 211.681 185.08 211.401 184.94 211.261C184.94 211.121 184.94 211.121 184.94 210.981C184.94 210.841 184.94 210.841 184.94 210.701C185.22 210.841 185.5 210.701 185.64 210.701C185.92 210.561 186.06 210.421 186.2 210.281C186.2 210.281 186.2 210.421 186.34 210.421C186.48 210.561 186.76 210.701 186.9 210.841C186.9 210.841 186.9 210.841 186.9 210.981C186.76 211.261 186.76 211.541 187.04 211.681C187.32 211.821 187.6 211.821 187.88 211.681C188.16 211.541 188.3 211.261 188.44 210.981C188.58 210.841 188.58 210.701 188.58 210.561V210.421C188.86 209.861 188.44 209.161 187.88 209.021H187.74V208.881C187.74 208.741 187.74 208.741 187.74 208.601C187.74 208.181 187.46 207.761 187.04 207.621C186.9 207.621 186.76 207.621 186.48 207.621C186.2 207.621 186.06 207.901 185.92 208.041L185.78 208.181C185.78 208.041 185.78 207.901 185.64 207.901C185.5 207.621 185.22 207.341 184.94 207.341C184.52 207.341 184.38 207.481 184.1 207.761C183.4 208.741 183.12 210.281 183.68 211.401C183.82 211.681 183.96 211.821 184.1 211.821C183.68 213.361 183.4 214.901 183.26 216.441C183.26 217.281 183.12 217.981 183.26 218.821C183.26 219.521 183.26 220.501 183.54 221.061C183.26 221.201 182.98 221.341 182.98 221.621C182.84 222.321 183.26 223.021 183.96 223.161C184.38 223.301 184.66 223.301 185.08 223.161C185.92 223.021 186.62 222.881 187.32 222.321C188.02 221.761 188.58 221.201 189 220.361C189 220.921 189 221.341 189 221.901C189 223.581 189 225.681 189.98 227.221C189.98 229.181 189.7 231.141 188.86 232.961C188.3 234.081 187.04 235.621 188.44 236.601C188.72 236.741 189.14 236.741 189.28 236.461C189.7 236.041 190.12 238.001 190.4 238.281C190.68 238.701 190.96 238.981 191.52 238.981C192.08 238.981 192.92 238.281 193.48 238.001C193.34 240.241 193.06 242.481 193.2 244.721C193.34 245.841 193.48 246.961 193.76 248.081C193.9 248.641 194.04 249.201 194.32 249.621L194.46 249.761C194.32 249.621 194.18 249.621 194.04 249.761C192.78 250.181 191.66 250.601 190.4 251.161C189.84 251.441 189.28 251.861 189.14 252.561C188.86 253.261 189.14 254.101 189.7 254.661C190.68 255.781 192.22 255.641 193.62 255.501L195.72 255.361C196.14 255.361 196.42 255.361 196.84 255.221C197.26 255.221 197.54 254.941 197.96 254.941C198.52 254.801 198.52 253.821 197.96 253.681C197.68 253.681 197.4 253.541 197.12 253.541C196.84 253.541 196.56 253.401 196.28 253.401C195.72 253.401 195.16 253.401 194.6 253.401C194.04 253.401 193.48 253.401 192.92 253.401C192.5 253.401 191.94 253.401 191.52 253.261C191.38 253.261 191.52 253.261 191.38 253.261C191.52 253.261 191.38 253.261 191.24 253.121C191.24 253.121 191.24 253.121 191.38 252.981C191.52 252.841 191.66 252.701 191.8 252.561C192.64 252.001 193.48 251.441 194.46 251.021C194.74 250.881 195.02 250.601 194.88 250.321V250.181C195.16 250.461 195.3 250.601 195.58 250.461C196.42 250.181 195.86 248.641 195.58 248.081C195.3 246.961 195.02 245.841 194.88 244.721C194.6 242.761 194.74 240.941 194.74 238.981C194.74 239.121 194.88 239.121 194.88 239.261C195.16 239.541 195.58 239.681 196.14 239.681C197.12 239.541 197.4 238.701 197.96 238.001C198.8 238.981 199.92 239.541 201.32 239.401C202.58 239.261 203.56 238.701 204.26 237.721C205.38 238.281 206.78 238.141 208.04 237.581C209.02 237.161 209.86 236.461 210.98 236.181C211.96 235.901 212.94 235.621 213.92 235.201C214.06 235.061 213.78 234.641 213.5 234.501Z" fill="#151314"/>
<path d="M211.4 257.6C210.28 257.04 208.88 256.9 207.62 256.76C208.18 256.62 208.6 256.34 208.88 255.92C209.3 255.36 209.3 254.8 209.16 254.1C209.16 253.82 209.02 253.4 209.02 253.12C209.02 252.84 209.3 252.56 209.3 252.14C209.44 251.72 208.88 251.44 208.46 251.72C208.04 252 207.9 252.56 207.9 253.12L207.76 252.98C207.76 252.98 207.76 252.98 207.62 252.84L207.48 252.7C207.2 252.42 206.92 252.28 206.5 252.42C206.5 252.42 206.5 252.28 206.36 252.28C206.64 252.14 206.78 251.72 206.5 251.44C205.94 250.88 205.8 249.9 205.52 249.2C205.38 248.22 205.24 247.24 205.1 246.26C204.82 244.16 204.54 241.92 204.12 239.82C204.12 239.4 203.42 239.54 203.42 239.96C203.56 242.34 203.84 244.72 203.98 246.96C204.12 248.64 203.98 250.6 205.1 251.86C205.1 251.86 205.1 251.86 204.96 251.86C204.82 251.44 204.4 251.3 203.98 251.3C202.72 251.44 201.46 251.86 200.9 252.98C200.2 254.1 200.62 255.5 201.6 256.2C201.32 256.2 200.9 256.2 200.62 256.06C197.12 255.78 193.48 255.64 189.98 255.36C189.28 255.36 189.28 256.34 189.98 256.48C193.48 256.9 197.12 257.32 200.62 257.74C202.3 258.02 203.98 258.16 205.66 258.44C206.5 258.58 207.2 258.58 208.04 258.72C208.88 258.86 209.86 259 210.7 258.86C211.82 258.86 211.96 257.88 211.4 257.6Z" fill="#151314"/>
<path d="M197.68 246.121C197.68 243.881 197.68 241.641 197.82 239.401C197.82 238.841 196.98 238.701 196.84 239.261C196.56 241.501 196.28 243.741 196.14 245.981C196.14 247.101 196 248.221 196 249.341C196 249.481 196 249.481 196 249.621C195.44 249.341 194.74 249.481 194.46 250.041C194.18 249.901 193.76 249.761 193.48 250.041C193.2 250.181 192.78 250.461 192.5 250.601C192.22 250.741 191.94 250.881 191.8 251.161C191.52 251.161 191.24 251.441 191.1 251.721C190.82 252.141 190.96 252.701 191.24 253.121C192.22 253.961 193.48 254.241 194.74 254.101C195.3 253.961 195.72 253.821 196.14 253.541C196.14 253.541 196.14 253.541 196.28 253.541C196.56 253.541 196.7 253.541 196.98 253.541C197.12 253.541 197.12 253.401 197.26 253.401C197.4 253.401 197.68 253.261 197.68 252.981C197.96 251.861 197.82 250.881 197.82 249.761C197.82 248.361 197.68 247.241 197.68 246.121Z" fill="#151314"/>
<path d="M215.74 186.62C214.06 184.1 211.54 182.28 208.74 181.16C204.96 179.76 200.76 179.62 196.84 180.04C196.7 180.04 196.56 179.9 196.42 180.04C190.96 181.86 186.62 186.76 186.2 192.5C186.06 195.3 186.9 198.1 188.44 200.34C189.84 202.44 192.22 204.68 194.88 204.82C195.44 204.82 195.44 204.12 195.16 203.98C193.76 203.14 192.5 202.3 191.38 201.32C191.52 201.18 191.66 201.04 191.8 200.76C192.08 200.34 192.5 199.78 192.64 199.22C193.06 198.1 193.2 196.98 192.64 195.86C192.5 195.58 192.08 195.44 191.8 195.58C190.96 196 189.84 196 189 195.44C188.72 195.3 188.44 195.44 188.3 195.58C188.3 195.58 188.3 195.58 188.3 195.72C188.02 194.6 187.88 193.48 187.88 192.36C188.02 187.6 191.38 183.4 195.58 181.44C192.92 186.48 196.28 191.8 201.04 194.04C201.6 194.32 202.44 194.32 202.86 194.6C203.42 195.02 203 196.28 202.72 196.84C202.3 197.4 201.6 197.4 201.18 197.96C200.9 198.38 200.62 198.8 200.62 199.22C200.34 201.74 202.58 204.12 204.68 205.1C205.24 205.38 205.8 205.1 205.94 204.68C206.78 204.82 207.62 204.68 208.32 204.68C210 204.54 211.54 203.84 213.08 203.14C214.34 202.44 215.74 201.46 216.58 200.2C217.42 198.8 217.7 196.98 217.98 195.44C218.12 192.22 217.56 189.28 215.74 186.62ZM188.3 196.42C189.28 197.12 190.4 197.26 191.52 196.98C191.66 197.68 191.52 198.24 191.24 198.8C191.1 199.22 190.82 199.64 190.54 199.92C190.4 200.06 190.4 200.06 190.26 200.2C189.98 199.92 189.84 199.64 189.56 199.36C189 198.38 188.58 197.4 188.3 196.42ZM202.44 201.32C202.02 200.9 201.46 200.34 201.46 199.64C201.46 198.66 202.16 198.66 202.86 198.1C203.14 197.82 203.42 197.4 203.7 196.98C203.7 197.26 203.7 197.54 203.56 197.82C203.42 199.08 202.86 200.62 203.28 201.88C203.42 202.3 203.98 202.3 204.12 202.02C204.26 201.88 204.4 201.6 204.54 201.32C204.54 202.02 204.54 202.72 204.68 203.28C204.68 203.28 204.68 203.42 204.82 203.42C203.98 202.58 203.14 202.02 202.44 201.32ZM216.16 195.02C215.88 196.84 215.6 198.94 214.2 200.2C212.8 201.46 210.84 202.3 209.16 202.72C209.02 202.72 208.88 202.72 208.74 202.86C209.3 201.88 209.72 200.48 210 199.36C210.28 198.1 210.42 196.84 210.56 195.58C210.84 192.92 210.98 190.26 210.84 187.6C210.84 186.76 209.44 186.76 209.44 187.6C209.44 190.12 209.3 192.78 209.02 195.3C208.88 196.56 208.6 197.82 208.32 199.08C208.04 200.34 207.9 201.6 207.9 202.86V203C207.34 203.14 206.92 203.14 206.36 203.28C206.08 203.28 205.8 203.28 205.52 203.42C205.94 202.86 206.22 201.88 206.36 201.18C206.64 200.48 206.64 199.92 206.64 199.22C206.78 197.54 206.92 196 207.06 194.32C207.34 191.1 207.48 187.88 207.62 184.66C207.62 183.68 206.22 183.68 206.22 184.66C206.08 187.88 205.8 191.1 205.38 194.18C205.24 194.74 205.24 195.3 205.1 195.86C205.1 195.16 205.24 194.32 205.24 193.62C205.38 190.68 205.24 187.74 204.96 184.8C204.96 184.1 203.84 184.1 203.84 184.8C203.98 187.32 203.98 189.84 203.84 192.5C203.42 191.52 202.86 190.54 202.72 189.56C202.44 188.44 202.58 187.32 202.86 186.2C203.14 185.08 201.46 184.66 201.18 185.78C200.76 187.04 200.76 188.44 200.9 189.7C200.9 189.42 200.76 189.28 200.76 189C200.62 188.44 200.48 187.88 200.48 187.32C200.34 186.2 200.48 185.08 200.62 183.96C200.76 183.54 200.48 183.26 200.2 183.12C199.92 182.98 199.5 183.26 199.36 183.54C199.08 184.8 198.94 186.06 199.08 187.32C199.08 188.02 199.22 188.58 199.36 189.28C199.5 189.84 199.64 190.68 200.06 191.1C200.34 191.38 201.04 191.38 201.04 190.82C201.04 190.68 201.04 190.54 201.04 190.4C201.32 191.52 201.74 192.5 202.44 193.34C201.6 192.92 200.76 192.64 200.06 192.22C199.22 191.66 198.52 191.1 197.82 190.4C197.82 190.26 197.82 190.26 197.82 190.12C197.68 189.84 197.68 189.56 197.68 189.28C197.54 189 197.4 188.86 197.26 188.58C196.98 188.16 196.84 187.6 196.7 187.04C196.42 185.92 196.56 184.8 196.98 183.82C197.26 183.26 196.42 182.84 196.14 183.4C195.72 184.24 195.44 185.08 195.44 185.92C195.16 184.66 195.3 183.26 195.86 182C196 181.86 195.86 181.72 195.72 181.58C196 181.44 196.28 181.3 196.56 181.3C196.7 181.3 196.84 181.16 196.84 181.02C203.84 180.6 212.38 182.14 215.46 189.28C215.18 188.86 214.34 189.14 214.48 189.84C214.76 191.24 214.9 192.64 214.9 194.18C214.9 194.88 214.76 195.58 214.76 196.28C214.62 196.98 214.34 197.68 214.48 198.38C214.48 198.8 215.04 198.94 215.32 198.66C215.74 198.1 215.74 197.26 215.88 196.56C216.02 195.72 216.02 195.02 216.16 194.18C216.16 192.64 216.02 191.1 215.74 189.56C215.74 189.7 215.88 189.84 215.88 189.84C216.44 191.24 216.44 193.06 216.16 195.02Z" fill="#151314"/>
<path d="M187.32 181.44C187.04 180.88 187.18 180.32 187.32 179.62C187.6 178.78 187.599 177.94 187.179 177.24C187.039 177.1 186.619 176.54 186.199 176.26C186.339 175.84 186.62 175.42 186.62 174.86C186.62 173.74 185.919 172.76 185.079 171.92C185.359 170.94 185.08 169.68 183.82 169.4C182.42 169.26 181.299 168.56 180.459 167.44C179.899 166.46 178.36 166.32 177.52 167.02C177.1 166.6 176.68 166.46 176.12 166.32C175.98 166.32 175.699 166.32 175.559 166.32C175.419 166.32 175.279 166.32 175.139 166.32C174.859 166.46 174.579 166.6 174.299 166.88C174.159 166.88 174.019 166.74 173.879 166.74C173.459 166.6 172.899 166.74 172.479 166.74C172.339 166.74 172.06 166.88 171.92 167.02C171.78 167.02 171.639 166.88 171.499 166.88C170.799 166.88 170.1 167.3 169.82 168C169.54 168.7 169.679 169.4 170.099 170.1C170.379 170.38 170.659 170.52 171.079 170.52C171.219 170.94 171.499 171.22 172.059 171.22C172.339 171.22 172.619 171.08 172.759 170.94C172.759 172.06 173.459 173.04 174.579 173.46C174.719 173.6 174.859 173.74 174.999 173.74C175.419 174.02 175.839 174.16 176.259 174.3H176.399C176.119 175 176.119 175.7 176.679 176.4C177.099 176.82 177.66 177.24 178.22 177.38C178.5 177.66 178.92 177.8 179.34 177.94C179.34 178.22 179.479 178.78 179.479 178.92C179.759 179.62 180.18 180.18 180.74 180.46C181.02 180.6 181.3 180.74 181.72 180.88C181.86 180.88 181.859 180.88 181.999 181.02C181.999 181.02 181.999 181.02 181.999 181.16C182.139 181.44 182.419 181.58 182.559 181.86C182.979 182.42 183.4 182.98 183.82 183.54C185.64 185.08 188.3 183.54 187.32 181.44Z" fill="#151314"/>
<path d="M169.96 180.32C169.26 180.04 168.42 180.04 167.58 179.76C166.6 179.34 166.18 178.22 165.2 177.8C164.22 177.38 162.54 177.38 162.4 178.78C162.4 179.06 162.54 179.2 162.68 179.34C162.54 179.34 162.4 179.34 162.4 179.48C161.84 180.46 161.56 181.58 161.42 182.56C161.28 183.68 161.28 184.66 162.26 185.36C163.94 186.62 166.32 187.32 168.42 186.76C170.24 186.2 171.92 184.52 171.78 182.56C171.5 181.44 170.94 180.74 169.96 180.32ZM169.68 183.96C169.4 184.52 168.84 184.94 168.28 185.22C166.74 185.92 165.06 185.5 163.66 184.8C163.24 184.66 162.68 184.38 162.4 184.1C162.12 183.82 162.26 183.26 162.26 182.84C162.26 181.86 162.54 180.74 162.82 179.76C162.82 179.62 162.82 179.48 162.68 179.48C162.82 179.62 162.96 179.62 163.1 179.62C163.38 179.62 163.52 179.48 163.8 179.48C163.94 179.48 164.22 179.62 164.36 179.76C165.06 180.32 165.48 180.88 166.18 181.3C166.88 181.58 167.58 181.72 168.28 181.86C168.7 181.86 169.26 182 169.68 182.28C170.24 182.7 169.96 183.4 169.68 183.96Z" fill="#151314"/>
<path d="M184.939 184.94C184.659 184.8 184.239 184.8 184.099 185.22C183.959 185.5 183.959 185.92 184.379 186.06C184.659 186.2 184.659 186.34 184.799 186.48V186.62V186.76C184.799 186.62 184.799 186.9 184.799 186.9V187.04C184.799 187.18 184.799 187.18 184.659 187.32C184.659 187.32 184.659 187.46 184.519 187.6C184.379 187.88 184.099 188.02 183.819 188.16C183.259 188.58 182.559 188.72 181.859 188.72C181.439 188.72 180.879 188.72 180.459 188.86C180.039 188.86 179.339 189 179.059 189.42C178.919 189.56 178.919 189.84 179.059 189.98C179.339 190.26 179.619 190.12 179.899 190.26C180.179 190.26 180.459 190.26 180.599 190.26C181.159 190.26 181.719 190.26 182.279 190.12C183.259 189.98 184.099 189.7 184.939 189.14C185.639 188.58 185.919 187.74 185.919 186.9C186.199 186.2 185.779 185.36 184.939 184.94Z" fill="#151314"/>
<path d="M177.801 221.62C177.661 221.76 177.661 221.9 177.661 222.04V222.18V222.32C177.661 222.32 177.661 222.32 177.661 222.46C177.661 222.6 177.521 222.74 177.661 222.6C177.661 222.6 177.661 222.74 177.521 222.74V222.88C177.381 222.6 177.101 222.32 176.821 222.32C176.401 222.18 175.981 222.32 175.701 222.6C175.561 222.74 175.421 222.74 175.421 222.88L175.281 223.02C175.281 222.6 175.281 222.18 175.281 221.9C175.281 221.48 175.001 221.2 174.581 221.2C174.161 221.2 173.881 221.48 173.881 221.9C173.881 222.32 173.881 222.74 173.881 223.16C173.881 223.58 173.881 224 174.021 224.42C174.301 224.84 174.861 224.98 175.281 224.84C175.701 224.7 175.981 224.42 176.261 224.14L176.401 224L176.541 223.86C176.541 223.86 176.541 223.86 176.541 224C176.821 224.42 177.101 224.56 177.521 224.56C177.941 224.56 178.361 224.28 178.641 224C178.921 223.72 179.201 223.3 179.201 222.88C179.341 222.46 179.481 221.76 179.061 221.34C178.501 221.2 178.081 221.2 177.801 221.62Z" fill="#151314"/>
<path d="M178.08 206.64C178.08 206.5 177.94 206.5 177.94 206.36C178.22 206.22 178.36 206.08 178.64 205.94C178.78 205.8 179.06 205.66 179.2 205.38C179.48 205.1 179.76 204.82 179.76 204.4C179.76 203.98 179.34 203.56 178.92 203.56C179.06 203.28 179.2 202.86 179.2 202.44C179.2 202.02 179.2 201.6 179.06 201.04C178.92 200.2 178.5 199.36 178.08 198.66C177.1 197.26 175.7 196.14 174.16 195.44C173.6 195.16 173.04 196 173.6 196.28C174.86 196.98 176.12 197.96 176.96 199.22C177.38 199.92 177.66 200.48 177.8 201.32C177.94 201.74 177.94 202.02 177.94 202.44C177.94 202.58 177.94 202.86 177.94 203C177.94 203.14 178.08 203.42 178.08 203.56C178.08 203.7 178.22 203.84 178.36 203.84C178.36 203.84 178.22 203.84 178.22 203.98C178.22 203.98 178.22 204.12 178.08 204.12C177.94 204.26 177.8 204.4 177.66 204.54L177.52 204.68C177.38 204.68 177.38 204.82 177.24 204.82C177.1 204.96 176.82 205.1 176.68 205.1C176.68 205.1 176.68 205.1 176.54 205.1C176.4 205.1 176.4 205.24 176.26 205.24C176.12 205.24 176.12 205.24 175.98 205.38H175.84H175.7H175.56C175.42 205.38 175.28 205.38 175.28 205.38C175.14 205.38 175 205.38 175 205.38H174.86C174.58 205.38 174.3 205.38 174.02 205.66C173.74 203.84 173.32 202.02 172.76 200.2C172.48 199.22 171.08 199.64 171.22 200.62C172.9 206.64 173.18 213.08 172.2 219.24C171.5 219.1 170.8 218.96 170.24 218.96C168.84 218.68 167.58 218.4 166.18 218.26C163.52 217.84 160.72 217.42 158.06 217.14C157.08 217 157.08 218.54 158.06 218.68C160.72 218.96 163.38 219.38 166.04 219.8C167.3 220.08 168.56 220.22 169.96 220.5C170.52 220.64 171.22 220.78 171.92 221.06C171.64 222.32 171.36 223.58 170.94 224.84C170.66 225.68 171.92 225.96 172.2 225.12C172.76 223.86 173.04 222.46 173.46 221.2C173.6 221.2 173.74 221.2 173.74 221.2C174.16 221.06 174.44 220.36 174.02 220.08C173.88 219.94 173.88 219.94 173.74 219.94C174.72 215.6 174.86 211.26 174.16 206.92C174.16 206.92 174.3 206.92 174.3 207.06C175.28 207.2 176.26 207.2 177.24 206.78V206.92C177.94 209.02 178.36 211.12 178.5 213.22C178.5 214.34 178.5 215.46 178.22 216.44C178.08 217.56 177.8 218.54 177.8 219.52C177.8 219.94 178.5 220.08 178.64 219.8C179.76 217.84 179.9 215.32 179.76 213.22C179.48 211.12 178.92 208.88 178.08 206.64Z" fill="#151314"/>
<path d="M160.859 237.02C160.859 234.64 160.859 232.4 160.999 230.02C160.999 229.04 159.599 229.04 159.599 230.02C159.459 232.4 159.459 234.64 159.319 237.02C159.319 238.14 159.319 239.4 159.319 240.52C159.319 241.08 159.319 241.64 159.319 242.06C159.319 242.76 159.459 243.18 159.599 243.88C159.739 244.44 160.579 244.44 160.719 243.88C160.859 243.32 160.999 242.76 160.999 242.06C160.999 241.5 160.999 240.94 160.999 240.52C160.859 239.4 160.859 238.14 160.859 237.02Z" fill="#151314"/>
<path d="M164.079 248.641C163.379 247.941 162.399 248.081 161.839 248.641C161.699 248.781 161.839 249.201 162.119 249.201C162.399 249.201 162.819 249.341 163.099 249.481L163.239 249.621C163.239 249.761 163.239 249.621 163.099 249.621C162.819 249.761 162.399 249.621 161.979 249.761C161.559 249.761 161.139 249.901 160.719 249.901C159.039 250.041 157.359 250.461 155.679 250.321C155.119 250.321 152.879 250.041 153.999 249.061C155.119 248.221 156.799 247.941 158.059 247.941C158.479 247.941 158.759 247.661 158.759 247.381C159.039 247.661 159.179 247.801 159.459 247.941C159.739 248.081 160.159 247.801 160.159 247.521C160.159 246.821 159.739 246.261 159.599 245.701C159.319 245.001 159.179 244.301 159.039 243.461C158.759 241.781 158.479 240.101 158.199 238.561C157.639 235.061 157.359 231.561 157.359 228.061C157.359 227.501 156.519 227.501 156.519 228.061C156.379 231.841 156.519 235.621 156.799 239.401C156.939 241.221 157.079 242.901 157.499 244.721C157.639 245.281 157.779 245.841 157.919 246.541C156.239 246.541 154.139 246.821 152.739 247.941C152.179 248.361 151.619 249.061 151.619 249.901C151.619 250.741 152.179 251.441 152.879 251.721C154.419 252.561 156.659 252.421 158.339 252.141C159.319 252.001 160.299 251.861 161.419 251.581C162.259 251.441 163.239 251.441 163.939 250.881C164.639 250.321 164.639 249.341 164.079 248.641Z" fill="#151314"/>
<path d="M171.499 238.561C171.359 235.901 171.359 233.241 171.359 230.441C171.359 229.601 170.099 229.601 169.959 230.441C169.819 233.101 169.819 235.761 169.819 238.561C169.819 239.821 169.819 241.221 169.819 242.481C169.819 243.181 169.959 243.741 169.959 244.441C169.959 245.141 169.959 245.701 170.379 246.261C170.659 246.541 171.079 246.681 171.359 246.261C171.919 245.281 171.639 243.741 171.639 242.621C171.639 241.221 171.639 239.821 171.499 238.561Z" fill="#151314"/>
<path d="M163.24 248.78L163.1 248.64C162.96 248.5 162.82 248.5 162.68 248.36C162.26 248.22 161.84 248.08 161.42 248.08C161.14 247.1 160.86 246.12 160.58 245.14C160.3 243.88 160.16 242.62 160.16 241.36C160.16 240.52 158.9 240.52 158.9 241.36C158.9 242.76 158.9 244.16 159.18 245.56C159.32 246.4 159.46 247.24 159.74 248.08C158.76 247.66 157.78 247.38 156.66 247.24C155.26 246.96 153.58 247.24 152.88 248.64C152.6 249.2 152.6 249.62 152.88 250.18C153.16 250.6 153.58 250.88 154.14 250.88C154.28 250.88 154.42 250.88 154.42 250.88C154.56 251.02 154.84 251.02 154.98 251.02C155.4 251.02 155.96 251.02 156.38 251.02C156.94 251.02 157.5 250.88 158.06 250.74C158.48 250.74 158.76 250.6 159.04 250.46C159.32 250.6 159.6 250.6 159.88 250.74C160.44 250.88 161 250.6 161.14 250.18C161.28 250.18 161.42 250.18 161.7 250.18C161.84 250.18 161.84 250.18 161.98 250.18C162.26 250.18 162.4 250.18 162.68 250.04C162.82 249.9 162.96 249.76 163.1 249.48C163.38 249.34 163.38 249.06 163.24 248.78Z" fill="#151314"/>
<path d="M172.759 226.941C172.479 226.521 171.919 226.801 171.919 227.221C171.919 227.221 171.359 227.081 170.659 227.081C171.079 226.521 171.219 225.541 171.359 224.701C171.499 223.581 172.059 222.321 171.499 221.201C170.799 220.081 169.399 220.221 168.279 220.221C167.859 220.221 167.579 220.221 167.159 220.221C164.499 219.521 161.559 219.101 158.759 218.821C158.759 218.681 158.619 218.541 158.479 218.541C158.339 218.401 158.059 218.401 157.919 218.261C157.779 218.261 157.779 218.121 157.639 218.121C157.499 218.121 157.359 217.981 157.219 217.981C157.079 217.981 156.939 217.841 156.799 217.841C156.379 217.701 155.959 217.561 155.539 217.421C154.699 217.141 154.139 217.841 153.999 218.541C153.999 219.241 153.999 219.941 153.999 220.501C153.859 220.501 153.859 220.641 153.859 220.781C153.999 221.901 154.139 223.021 154.279 224.141C154.419 224.841 154.699 225.261 155.399 225.541C157.639 226.381 159.879 226.941 162.259 227.361C163.799 227.641 165.479 227.781 167.019 227.921C166.879 227.921 166.739 228.061 166.739 228.341C166.739 231.141 166.879 233.941 167.159 236.741C167.299 238.141 167.439 239.541 167.579 240.801C167.719 242.061 167.859 243.461 168.419 244.581C168.699 245.001 169.259 244.721 169.259 244.301C169.399 243.601 169.119 242.901 169.119 242.201C168.979 241.501 168.979 240.941 168.839 240.241C168.699 238.841 168.419 237.581 168.279 236.181C167.999 233.521 167.719 230.861 167.719 228.061C167.719 227.921 167.579 227.781 167.579 227.781C168.139 227.781 168.699 227.921 169.119 227.921C169.679 228.481 173.599 228.901 172.759 226.941Z" fill="#151314"/>
<path d="M174.3 219.38C174.3 220.36 174.72 221.48 175.7 221.62C176.12 221.76 176.68 221.34 176.54 220.78C176.26 220.08 176.26 219.38 176.26 218.68C176.26 217.56 176.4 216.3 176.4 215.18C176.4 212.8 176.4 210.42 176.26 208.04C176.26 206.92 174.58 206.92 174.58 208.04C174.58 210.7 174.58 213.22 174.44 215.88C174.44 217.14 174.16 218.26 174.3 219.38Z" fill="#151314"/>
<path d="M180.74 250.881C179.62 250.461 178.5 250.461 177.24 250.321C176.12 250.041 175 250.041 173.74 250.041C174.02 249.901 174.16 249.621 174.16 249.341C174.44 248.641 174.02 247.941 173.46 247.521C173.18 247.381 172.9 247.241 172.62 247.241C172.2 247.241 171.92 247.241 171.64 247.521C171.64 247.521 171.5 247.521 171.5 247.661C171.5 247.521 171.36 247.381 171.36 247.381C170.94 246.961 170.52 246.681 169.96 246.541C170.1 246.121 169.68 245.561 169.26 245.841C168.14 246.261 166.88 246.681 166.32 247.941C165.9 248.921 166.04 249.761 166.6 250.461C166.32 250.461 166.18 250.461 165.9 250.461C161 250.741 156.1 251.441 151.34 252.421C150.36 252.561 150.78 254.101 151.76 253.961C156.66 253.121 161.56 252.701 166.46 252.561C168.84 252.421 171.22 252.421 173.74 252.561C174.86 252.561 175.98 252.561 177.1 252.421C178.22 252.281 179.48 252.421 180.6 252.141C181.16 251.721 181.16 251.021 180.74 250.881Z" fill="#151314"/>
<path d="M210.84 232.96C210.7 232.96 210.56 233.1 210.28 233.1C209.72 231.7 208.88 230.44 207.9 229.32C207.9 228.76 207.9 228.34 207.9 227.92C207.9 227.5 207.62 227.08 207.2 226.94C207.34 226.94 207.48 226.8 207.62 226.8C208.04 226.52 207.9 225.82 207.34 225.82C206.08 225.82 204.82 226.1 203.7 226.24C202.44 226.38 201.18 226.66 199.78 226.66C197.26 226.8 194.88 226.1 192.36 226.66C192.08 226.66 191.94 226.94 191.8 227.08C191.8 227.08 191.66 227.08 191.66 227.22H191.8C191.1 226.94 190.4 227.22 190.12 227.92C189.7 229.6 189.28 231.14 188.86 232.82C188.86 233.1 188.86 233.38 188.86 233.52C188.86 233.66 188.72 233.8 188.72 233.94C188.58 234.64 189 235.2 189.7 235.34C189.7 235.48 189.7 235.48 189.7 235.62C189.7 236.32 190.26 236.74 190.82 236.88C191.24 237.44 192.08 237.44 192.64 237.02C192.92 237.16 193.2 237.16 193.48 237.02C193.62 237.16 193.62 237.3 193.76 237.44C193.9 237.86 194.32 238 194.74 238C195.16 238.56 196.14 238.84 196.7 238.14C197.54 237.02 198.52 237.86 199.36 238.42C200.76 239.4 202.3 238.7 203.28 237.44C203.42 237.16 203.56 236.74 203.84 236.46C203.98 236.46 203.98 236.32 204.12 236.32C204.12 236.32 204.12 236.32 204.26 236.32C204.4 236.6 204.54 236.88 204.96 237.02C206.08 237.3 207.2 237.3 208.18 236.88C209.02 236.6 210.14 235.9 210.42 234.92C210.7 234.78 210.98 234.64 211.26 234.36C212.24 233.94 211.68 232.54 210.84 232.96Z" fill="#151314"/>
<path d="M209.02 216.72C209.44 218.68 209.58 220.64 209.86 222.46C210 223.3 210 224 210 224.84C210 225.82 209.58 226.66 209.44 227.5C209.3 228.06 209.86 228.34 210.28 227.92C211.68 226.8 211.54 224.28 211.4 222.74C211.26 220.64 210.84 218.4 210.28 216.3C209.44 212.52 207.62 209.02 204.54 206.78C203.98 206.36 203.56 207.2 204.12 207.62C206.92 209.72 208.32 213.22 209.02 216.72Z" fill="#151314"/>
<path d="M208.32 219.24C208.18 217.7 207.76 216.02 207.34 214.48C206.92 212.94 206.22 211.4 205.52 210C204.82 208.6 203.56 207.2 203.14 205.66C203.14 205.38 202.86 205.38 202.72 205.38C203 205.1 203.14 204.82 203.14 204.4C203.14 204.12 202.86 203.7 202.58 203.84C202.16 203.84 201.88 204.12 201.6 204.4C201.46 204.54 201.18 204.68 200.9 204.82C200.34 205.1 199.78 205.38 199.22 205.38C197.96 205.52 196.7 204.96 195.86 204.12C195.72 203.84 195.3 203.98 195.02 204.12C194.74 204.4 194.88 204.68 195.02 204.96C196 206.22 197.54 206.92 199.08 206.92C199.92 206.92 200.62 206.64 201.46 206.36C201.74 206.22 202.16 205.94 202.44 205.66V205.8C202.72 207.34 203.7 208.46 204.4 209.86C205.24 211.26 205.8 212.8 206.22 214.34C206.64 215.88 207.06 217.42 207.2 219.1C207.34 220.64 207.2 222.32 207.48 223.86C207.48 224.28 208.04 224.14 208.18 223.86C208.6 222.6 208.46 220.78 208.32 219.24Z" fill="#151314"/>
<path d="M227.358 199.641C227.498 200.061 227.498 200.621 227.498 201.041C227.498 201.321 227.498 201.461 227.498 201.741C227.498 201.881 227.498 202.021 227.498 202.161C227.498 202.301 227.498 202.441 227.498 202.581C227.498 202.861 227.778 203.001 227.918 202.721C228.058 202.581 228.058 202.441 228.058 202.301C228.058 202.161 228.198 202.021 228.198 201.881C228.198 201.601 228.198 201.321 228.198 201.181C228.198 200.621 228.058 200.061 227.918 199.641C227.918 199.081 227.218 199.221 227.358 199.641Z" fill="#151314"/>
<path d="M231.979 202.72C231.279 202.86 230.579 203.14 229.879 203.28C229.179 203.42 228.479 203.42 227.779 203.28C227.219 203.28 226.519 203.14 226.099 202.72C225.959 202.58 225.819 202.44 225.959 202.3C225.959 202.16 225.959 202.16 226.099 202.16C226.099 202.16 226.099 202.16 226.239 202.16C226.939 202.3 227.219 201.32 226.519 201.04C225.679 200.76 224.839 201.6 224.839 202.3C224.699 202.16 224.419 202.3 224.279 202.44C223.299 203.84 222.179 205.24 221.339 206.64C220.919 207.34 220.639 208.18 220.499 209.02C220.359 209.44 220.359 209.86 220.359 210.28C220.359 210.84 220.499 211.12 220.779 211.54C221.059 211.82 221.479 211.96 221.619 211.54C221.759 211.12 221.899 210.84 222.039 210.42C222.039 210 222.039 209.72 222.179 209.3C222.319 208.46 222.459 207.76 222.739 207.06C223.299 205.52 223.999 204.26 224.839 202.86C225.119 203.56 225.819 203.98 226.379 204.26C227.359 204.68 228.479 204.68 229.459 204.68C230.579 204.68 231.699 204.54 232.679 203.98C233.379 203.7 232.819 202.44 231.979 202.72Z" fill="#151314"/>
<path d="M224.559 183.54C224.419 183.54 224.419 183.4 224.279 183.4C224.139 183.4 224.139 183.4 223.999 183.4C223.999 183.4 223.859 183.4 223.859 183.54C223.719 183.54 223.719 183.68 223.579 183.82C223.439 183.96 223.439 184.1 223.439 184.24C223.439 184.38 223.439 184.52 223.299 184.52C223.299 184.52 223.299 184.52 223.299 184.66C223.299 184.8 223.299 184.8 223.299 184.94C223.299 184.94 223.299 184.94 223.299 185.08C223.299 185.36 223.299 185.5 223.439 185.64C223.439 185.78 223.579 185.92 223.719 185.92C223.859 186.06 223.999 186.2 224.139 186.2C224.419 186.34 224.699 186.2 224.839 186.06C224.979 185.92 225.119 185.64 225.259 185.36C225.259 185.22 225.399 184.94 225.259 184.8C225.259 184.52 225.119 184.38 224.979 184.1C224.979 183.82 224.699 183.68 224.559 183.54Z" fill="#151314"/>
<path d="M233.239 193.2C233.099 193.34 233.099 193.2 233.239 193.2Z" fill="#151314"/>
<path d="M256.619 195.86C256.619 195.44 256.479 195.16 256.199 194.88C256.199 194.74 256.199 194.6 256.059 194.46C255.919 194.32 255.919 194.32 255.779 194.32C255.219 194.46 255.079 195.02 254.799 195.44C254.519 195.86 254.099 196.28 253.539 196.56C252.559 197.12 251.579 197.4 250.459 197.4C248.359 197.4 246.259 196.14 245.419 194.04C245.419 193.9 245.279 193.9 245.279 193.76C246.959 191.24 246.679 187.32 246.119 184.66C245.419 181.58 244.019 178.08 241.499 175.98C241.079 175.56 240.519 175.28 240.099 175V174.86C235.339 171.92 229.319 173.74 224.699 176.54C224.699 176.54 224.559 176.54 224.419 176.54C224.279 176.54 224.279 176.68 224.279 176.68C223.999 176.82 223.579 177.1 223.299 177.24C223.159 177.38 223.159 177.52 223.159 177.52C220.219 180.46 218.539 184.66 218.679 188.86C218.819 191.38 219.519 193.9 221.059 195.86C222.319 197.4 224.839 199.64 227.079 199.08C227.499 198.94 227.639 198.38 227.219 198.1C226.379 197.54 225.259 197.4 224.419 196.84C223.579 196.28 222.879 195.58 222.179 194.74C222.459 194.46 222.739 194.32 222.879 193.9C223.019 193.48 223.159 193.06 223.299 192.78C223.439 192.36 223.579 192.08 223.579 191.66C223.719 191.24 223.859 190.96 223.859 190.54C223.859 190.12 223.579 189.84 223.299 189.56C223.019 189.28 222.739 189.14 222.319 188.86C221.619 188.44 221.059 187.88 220.359 187.46C220.219 187.46 220.219 187.32 220.079 187.32C220.079 184.94 220.779 182.56 221.899 180.46C221.899 180.74 222.039 180.88 222.179 181.02C222.459 181.16 222.739 181.02 222.879 180.74L223.019 180.6C223.019 180.46 223.159 180.46 223.159 180.32C223.159 180.18 223.299 180.18 223.299 180.04C223.299 180.04 223.299 179.9 223.439 179.9C223.719 179.62 223.999 179.34 224.279 179.06C224.419 178.92 224.419 178.92 224.559 178.92C224.559 178.92 224.699 178.92 224.699 178.78C224.839 178.64 224.979 178.64 224.979 178.5C224.979 179.06 225.259 179.76 225.539 180.18C226.799 183.82 228.619 187.18 231.839 189.28C232.679 189.84 233.519 190.12 234.499 190.4C235.619 190.68 237.019 190.68 237.859 191.38C238.279 191.8 238.419 192.36 238.279 192.92C237.999 193.2 237.579 193.48 237.299 193.76L237.159 193.9C236.739 194.04 236.179 194.18 235.759 194.18C234.499 194.32 233.239 194.46 231.979 194.6C231.559 194.6 231.139 195.02 231.279 195.44C231.839 196.7 232.119 198.24 232.679 199.5C232.119 199.36 231.419 199.22 230.859 199.08C230.019 198.94 229.599 200.2 230.439 200.34C232.259 200.76 234.219 201.18 236.179 201.04C237.579 201.04 238.979 200.62 240.239 199.92C240.239 199.92 240.239 200.06 240.379 200.06C240.379 200.06 240.379 200.06 240.379 200.2C240.799 201.46 241.499 202.58 242.479 203.28C244.159 204.54 246.259 204.96 248.219 204.54C252.419 203.84 255.779 199.64 256.759 195.58C257.039 196.14 256.899 195.86 256.619 195.86ZM221.199 190.26L222.039 190.82C222.179 190.82 222.179 190.96 222.319 190.96C222.179 191.66 222.039 192.36 221.759 192.92C221.619 193.2 221.619 193.62 221.479 193.9C221.479 194.04 221.479 194.04 221.479 194.04C220.639 192.5 220.079 190.82 219.939 189.14C220.359 189.7 220.779 189.98 221.199 190.26Z" fill="#151314"/>
<path d="M232.96 234.36C232.82 233.66 231.84 233.66 231.84 234.36C231.98 236.88 232.12 239.26 232.4 241.78C232.68 244.16 232.82 246.68 233.52 248.92C233.8 249.62 234.78 249.48 234.78 248.78C234.78 246.4 234.22 244.02 233.8 241.64C233.52 239.26 233.24 236.74 232.96 234.36Z" fill="#151314"/>
<path d="M239.54 225.4C239.26 223.02 238.84 220.64 238.42 218.4C237.44 213.64 236.18 208.88 233.8 204.54C233.38 203.7 232.26 204.4 232.54 205.24C234.5 209.3 235.48 213.64 236.04 218.12C236.32 220.36 236.6 222.46 236.88 224.7C237.16 226.66 237.44 228.9 236.6 230.72C236.46 231.14 236.46 231.42 236.6 231.84C236.46 231.84 236.32 231.84 236.32 231.84C235.48 231.98 234.64 231.98 233.8 232.12C232.12 232.26 230.58 232.26 228.9 232.4C227.22 232.54 225.68 232.54 224 232.68C222.74 232.82 221.06 232.96 219.94 232.26C217.7 230.86 218.68 226.94 218.82 224.84C219.1 221.62 219.66 218.4 220.78 215.32C220.78 215.18 220.78 215.04 220.64 214.9C221.48 215.32 222.32 215.74 223.3 216.16C224.56 216.58 225.82 216.58 227.08 216.44C228.34 216.3 229.88 215.88 230.86 214.9C231.14 214.76 230.86 214.34 230.58 214.34C229.32 214.2 228.2 214.76 226.94 215.04C225.68 215.32 224.42 215.18 223.16 214.76C222.04 214.34 220.92 213.78 219.94 213.08C218.82 212.52 217.56 211.82 216.44 211.26C216.02 211.12 215.74 211.26 215.6 211.54C215.46 211.26 215.18 211.26 214.9 211.12C214.76 211.12 214.76 211.12 214.62 210.98H214.48C214.34 210.84 214.06 210.84 213.92 210.7C213.92 210.7 213.64 210.56 213.78 210.56C213.64 210.56 213.64 210.42 213.5 210.42L213.36 210.28C213.36 210.14 213.22 210.14 213.22 210V209.86C213.22 209.72 213.22 209.72 213.08 209.58C213.22 209.58 213.22 209.58 213.36 209.58C213.64 209.72 214.06 209.58 214.34 209.16C214.48 208.88 214.48 208.46 214.48 208.18C214.76 208.46 215.18 208.88 215.46 209.16C215.74 209.44 216.02 209.44 216.16 209.3C216.16 209.44 216.16 209.58 216.3 209.72C218.12 211.4 220.08 213.08 222.6 213.64C223.86 213.92 225.26 213.92 226.52 214.06C227.64 214.06 229.04 214.2 230.02 213.64C230.16 213.78 230.3 213.78 230.44 213.92C230.72 214.06 231 214.34 231.42 214.48C231.56 214.62 231.7 214.62 231.98 214.76C232.26 214.9 232.54 214.9 232.82 214.9C233.1 214.76 233.38 214.48 233.24 214.06C233.24 213.78 233.1 213.64 232.82 213.5C232.68 213.36 232.54 213.36 232.4 213.36C232.12 213.22 231.84 213.08 231.56 212.94C231.28 212.8 231 212.66 230.86 212.52C230.86 212.52 230.72 212.52 230.72 212.38L230.58 212.24C230.58 212.1 230.58 212.1 230.72 211.96C230.86 211.68 231 211.54 231.28 211.26C231.7 210.7 231.98 210.28 232.4 209.72C232.82 209.16 231.98 208.6 231.56 209.02C231.14 209.58 230.58 210.14 230.16 210.7C229.74 211.26 229.18 211.82 229.46 212.66V212.8C228.62 212.66 227.64 212.8 226.8 212.8C225.68 212.66 224.42 212.66 223.16 212.52C220.92 212.24 218.96 210.7 217.28 209.3C217.14 209.16 217 209.16 216.86 209.16C217 208.88 217 208.6 216.72 208.46C216.3 208.04 215.88 207.62 215.46 207.2C215.04 206.78 214.48 206.22 213.78 206.36C213.22 206.5 212.94 207.06 212.8 207.62C212.8 207.76 212.8 207.9 212.8 208.04C212.52 208.04 212.24 208.18 211.96 208.46C211.26 209.44 211.54 210.7 212.24 211.68C212.52 212.1 213.08 212.52 213.5 212.8C213.78 212.94 214.06 213.08 214.2 213.22C214.34 213.22 214.48 213.36 214.62 213.36C214.9 213.5 215.18 213.36 215.46 213.22C215.74 213.08 215.74 212.94 215.88 212.66C217.14 213.36 218.54 214.06 219.8 214.9C219.94 215.04 220.22 215.04 220.36 215.18C220.22 215.18 219.94 215.18 219.94 215.32C218.54 218.54 217.84 222.04 217.28 225.54C216.86 228.2 216.16 231.56 218.54 233.66C219.94 234.78 221.76 235.06 223.58 235.06C223.58 238 223.58 240.94 223.58 243.88C223.58 245.28 223.72 246.82 223.72 248.22C223.72 249.48 223.86 251.16 224.42 252.28C224.56 252.7 225.12 252.56 225.26 252.14C225.68 250.88 225.4 249.34 225.4 248.08C225.26 246.68 225.12 245.14 224.98 243.74C224.7 240.8 224.56 238 224.42 235.06C225.54 234.92 226.66 234.78 227.64 234.78C229.6 234.64 231.56 234.5 233.52 234.36C234.36 234.22 235.2 234.22 236.04 234.08C236.88 233.94 237.72 233.94 238.14 233.24C238.14 233.1 238.14 233.1 238.14 232.96C238.28 232.82 238.28 232.82 238.42 232.68C239.82 229.74 239.82 227.5 239.54 225.4Z" fill="#151314"/>
<path d="M237.02 252.701C237.02 252.421 236.88 252.281 236.88 252.141C236.88 252.001 236.88 252.001 236.88 251.861C236.88 251.581 236.88 251.301 236.88 250.881C236.88 250.741 236.88 250.601 236.74 250.461C237.3 249.481 237.02 248.221 237.02 247.101C236.88 245.841 236.74 244.441 236.74 243.181C236.46 240.661 236.32 238.001 236.04 235.481C236.04 234.921 235.06 234.921 235.06 235.481C235.2 238.001 235.34 240.661 235.48 243.181C235.48 244.441 235.62 245.701 235.62 246.961C235.62 247.941 235.62 249.341 236.18 250.181H236.04C235.76 249.761 235.2 249.761 234.78 250.041H234.64C234.64 249.901 234.64 249.901 234.64 249.761C234.5 249.481 234.22 249.201 233.8 249.341C232.82 249.621 231.84 250.041 231 250.601C230.16 251.301 229.6 252.421 229.74 253.541C229.88 254.241 230.3 254.801 231 254.941C231.7 255.081 232.4 255.081 232.96 254.941C233.66 254.941 234.5 254.801 235.2 254.661C235.48 254.661 235.9 254.521 236.18 254.521C236.46 254.381 236.88 254.241 237.16 254.101C237.44 253.961 237.58 253.541 237.58 253.261C237.72 252.841 237.44 252.701 237.02 252.701Z" fill="#151314"/>
<path d="M243.881 252.839C241.641 252.559 239.261 253.119 237.021 253.259C234.781 253.399 232.541 253.959 230.301 254.379C225.681 255.079 220.921 255.779 216.161 256.059C215.181 256.059 215.181 257.459 216.161 257.459C220.921 257.319 225.821 257.319 230.581 256.899C232.821 256.759 235.201 256.619 237.301 256.059C239.541 255.499 242.061 255.079 244.161 253.959C244.861 253.679 244.441 252.839 243.881 252.839Z" fill="#151314"/>
<path d="M221.901 254.94C222.741 255.36 223.721 255.22 224.561 255.08C225.541 254.94 226.661 254.8 227.641 254.52C227.921 254.52 228.201 254.38 228.481 254.24C228.761 254.1 228.901 254.1 229.041 253.82C229.321 253.26 228.901 252.7 228.341 252.7C228.201 252.7 227.921 252.7 227.781 252.7C227.781 252.56 227.781 252.42 227.641 252.28H227.781C228.621 251.86 228.621 250.04 228.621 249.2C228.621 247.66 228.341 246.26 228.061 244.86C227.641 241.78 227.641 238.7 227.641 235.62C227.641 235.34 227.361 235.34 227.361 235.62C227.221 238.56 227.221 241.5 227.361 244.44C227.501 245.84 227.641 247.1 227.781 248.5C227.781 249.2 227.781 249.9 227.781 250.6C227.781 251.16 227.501 251.72 227.641 252.28C227.501 252.14 227.221 252 227.081 252C226.941 252 226.801 252 226.801 252C226.521 252 226.381 252 226.101 251.86C225.961 251.86 225.821 251.86 225.681 251.86C225.681 251.44 225.541 251.02 224.981 251.02C224.141 251.02 223.161 250.88 222.321 251.3C221.621 251.58 221.061 252.28 220.781 253.12C220.781 253.54 221.061 254.52 221.901 254.94ZM222.741 252.98V252.84V252.7L222.881 252.56L223.021 252.42L223.161 252.28C223.301 252.28 223.441 252.14 223.581 252.14C223.581 252.28 223.581 252.42 223.581 252.56C223.581 252.56 223.581 252.56 223.441 252.7C223.301 252.84 223.301 253.12 223.301 253.26C223.301 253.26 223.301 253.26 223.161 253.26C223.021 253.26 222.881 253.26 222.881 253.26H222.741C222.741 253.12 222.741 253.12 222.741 252.98C222.741 253.12 222.741 253.12 222.741 252.98Z" fill="#151314"/>
<path d="M233.38 193.2C233.24 193.34 233.24 193.2 233.38 193.2C233.52 193.34 233.52 193.2 233.38 193.2Z" fill="#151314"/>
</svg>
