<svg width="280" height="280" viewBox="0 0 280 280" fill="none" xmlns="http://www.w3.org/2000/svg">
<path d="M164.501 78.9603C164.921 80.3602 165.341 81.9002 165.761 83.3002C165.761 83.4402 165.901 83.7202 165.901 83.8602C165.621 84.2803 165.481 84.5602 165.201 84.9802C164.501 86.1003 166.041 86.9402 166.881 86.1002C167.021 86.2402 167.161 86.3802 167.301 86.5202C167.721 86.8002 168.281 86.6602 168.561 86.3802C169.401 85.4002 169.541 84.0002 169.401 82.6002C175.281 73.9202 179.901 64.6802 183.541 54.7402C187.041 45.2202 188.441 32.9002 178.641 26.4602C175.701 24.5002 171.921 23.3802 168.281 23.5202C168.141 23.1002 167.721 22.8202 167.301 22.9602C158.621 25.0602 152.321 32.4802 151.341 41.3002C150.221 51.9402 156.381 61.6002 161.001 70.7002C162.401 73.5002 163.521 76.1603 164.501 78.9603ZM155.821 35.1402C157.361 31.6402 160.021 28.7002 163.381 26.7402C163.661 27.4402 164.221 28.0002 165.061 28.0002C170.241 27.4402 175.001 28.0002 178.781 31.7802C183.261 36.2602 183.121 42.9802 181.721 48.5802C180.181 55.0202 177.661 61.1802 174.861 67.2002C172.901 71.2602 170.941 75.3202 168.701 79.3802C168.561 79.1003 168.561 78.8202 168.421 78.6802C167.581 75.8802 166.321 73.0802 164.921 70.4202C162.121 64.6802 158.621 59.3602 156.381 53.3402C154.281 47.4602 153.161 40.8802 155.821 35.1402Z" fill="#151314"/>
<path d="M164.221 159.739C164.361 159.739 164.501 159.739 164.641 159.739C164.921 159.739 165.201 159.599 165.481 159.599H165.621C165.761 159.599 165.761 159.599 165.901 159.599C166.041 159.599 166.181 159.599 166.321 159.599C166.321 159.599 166.321 159.599 166.461 159.599C166.881 159.599 167.301 159.599 167.721 159.599C167.721 159.599 167.721 159.599 167.861 159.599C168.001 159.599 168.141 159.599 168.141 159.739C168.421 159.739 168.561 159.879 168.841 160.019C169.121 160.159 169.681 160.019 169.961 159.879C170.241 159.739 170.521 159.319 170.661 159.039C170.801 158.199 170.381 157.499 169.681 157.359C168.001 156.659 165.761 156.799 164.221 157.779C164.081 157.919 163.941 157.919 163.941 158.059C163.941 158.059 163.941 158.059 163.801 158.199L163.661 158.339C163.521 158.479 163.241 158.899 163.241 159.039C163.101 159.319 163.241 159.739 163.521 159.879C163.661 159.739 163.941 159.739 164.221 159.739Z" fill="#151314"/>
<path d="M178.78 150.779C179.2 150.639 179.34 150.219 179.34 149.939C179.2 149.099 179.2 148.399 179.2 147.559C179.2 147.139 179.2 146.719 179.2 146.299C179.2 145.879 179.2 145.599 179.2 145.179C179.2 144.759 179.2 144.339 179.06 143.919C178.92 143.779 178.64 143.779 178.5 143.919C178.36 144.059 178.22 144.339 178.22 144.619C178.22 144.759 178.08 144.899 178.08 145.039C178.08 145.179 177.94 145.179 177.94 145.319C177.8 145.599 177.94 145.879 177.8 146.159C177.8 146.439 177.8 146.719 177.8 146.999C177.8 148.119 177.8 149.239 178.08 150.219C177.94 150.779 178.5 150.919 178.78 150.779Z" fill="#151314"/>
<path d="M195.58 141.119C195.44 140.559 194.88 140.419 194.32 140.699C193.9 140.979 193.62 141.259 193.34 141.679C193.06 142.099 192.64 142.519 192.36 142.939C192.08 143.359 191.94 143.919 191.66 144.339C191.52 144.479 191.52 144.479 191.38 144.619C191.38 144.619 191.38 144.759 191.52 144.759C191.38 145.039 191.24 145.179 191.24 145.459C191.1 145.879 190.96 146.299 191.1 146.719C191.24 147.139 191.52 147.419 191.8 147.699C192.22 147.839 192.64 147.979 193.06 147.839C193.48 147.699 193.9 147.419 194.04 147.139C194.46 146.299 194.74 145.459 195.16 144.619C195.3 144.339 195.44 144.059 195.44 143.639C195.44 143.359 195.58 143.219 195.58 142.939C195.58 142.659 195.72 142.519 195.72 142.239C195.72 141.819 195.72 141.539 195.58 141.119Z" fill="#151314"/>
<path d="M177.24 189.839C177.24 189.979 177.24 190.119 177.24 190.119C177.24 190.399 177.38 190.539 177.52 190.819C177.52 190.819 177.52 190.819 177.52 190.959C177.52 191.099 177.52 191.239 177.52 191.379C177.52 191.659 177.52 191.799 177.66 192.079C177.8 192.219 177.94 192.359 178.08 192.359C178.78 192.499 179.06 191.659 179.34 191.239C179.48 191.099 179.62 191.099 179.62 190.959C179.76 190.679 179.76 190.399 179.76 190.119C179.76 189.839 179.76 189.699 179.76 189.419C179.76 188.859 179.76 188.439 179.76 187.879C179.76 187.459 179.62 187.179 179.34 186.899C179.06 186.619 178.78 186.479 178.36 186.479C177.94 186.479 177.66 186.619 177.38 186.899C177.1 187.179 176.96 187.459 176.96 187.879C176.96 188.299 177.1 188.859 177.1 189.279C177.24 189.419 177.24 189.699 177.24 189.839Z" fill="#151314"/>
<path d="M164.5 203C164.92 203.14 165.2 203.14 165.62 203C165.9 202.86 166.18 202.72 166.46 202.72C166.88 202.58 167.3 202.3 167.58 202.16C168.42 201.74 169.12 201.18 169.96 200.62C170.24 200.48 170.38 199.92 170.38 199.64C170.38 199.36 170.24 199.08 170.1 198.8C169.68 198.24 168.84 197.96 168.28 198.38C167.58 198.94 166.88 199.36 166.18 199.78C166.04 199.92 165.9 199.92 165.62 200.06C165.48 200.06 165.34 200.2 165.34 200.2C165.2 200.2 165.2 200.2 165.06 200.34C165.2 200.34 164.22 200.76 164.78 200.48C164.5 200.62 164.22 200.62 164.08 200.9C163.94 201.04 163.94 201.18 163.8 201.32C163.38 201.6 162.96 202.02 163.1 202.58C163.38 203 163.94 203 164.5 203Z" fill="#151314"/>
<path d="M154 204.119C153.86 204.119 153.58 204.119 153.44 204.259C153.16 204.399 152.88 204.539 152.88 204.819C152.88 205.099 153.16 205.379 153.44 205.379C153.58 205.379 153.86 205.379 154 205.379C154.28 205.379 154.56 205.379 154.98 205.239C155.68 205.239 156.24 205.099 156.94 205.099C157.36 205.099 157.64 204.819 157.64 204.399C157.64 204.119 157.36 203.699 156.94 203.699C156.24 203.839 155.68 203.839 154.98 203.979C154.56 204.119 154.28 204.119 154 204.119Z" fill="#151314"/>
<path d="M138.04 199.639C137.76 199.499 137.48 199.219 137.2 199.079C136.92 198.939 136.78 198.939 136.5 198.799C136.36 198.799 136.22 198.799 136.08 198.799C135.8 198.799 135.66 199.079 135.8 199.359C135.94 199.499 135.94 199.639 136.08 199.779C136.22 199.919 136.36 200.059 136.5 200.199C136.78 200.479 137.06 200.619 137.48 200.899C138.04 201.319 138.6 201.599 139.16 202.019C139.44 202.299 140 202.159 140.28 201.739C140.42 201.319 140.42 200.899 140 200.619C139.3 200.339 138.6 200.059 138.04 199.639Z" fill="#151314"/>
<path d="M262.921 149.939C262.641 147.699 262.221 145.319 261.661 143.079C259.561 134.259 253.961 127.259 248.221 120.399C236.601 106.259 223.721 93.0991 209.581 81.4791C205.801 78.3991 202.021 75.3191 197.961 72.3791C194.741 69.9991 189.841 66.3591 185.501 67.4791C184.661 67.6191 184.521 68.8791 185.221 69.2991C186.761 70.1391 188.581 70.5591 190.121 71.2591C191.941 72.0991 193.621 73.2191 195.301 74.4791C198.521 76.8591 201.601 79.3791 204.681 81.8991C210.981 87.0791 217.001 92.6791 222.881 98.2791C228.621 103.879 234.221 109.759 239.541 115.779C244.721 121.799 250.321 127.959 254.381 134.819C256.761 138.879 258.021 143.219 258.861 147.839C259.281 150.079 259.841 152.459 259.841 154.699C259.841 156.379 259.141 159.319 256.901 158.899C256.621 158.759 256.201 158.899 255.921 158.899C250.741 159.599 245.701 161.559 240.941 163.659C235.901 165.899 231.141 168.419 226.521 171.359C216.721 177.379 207.481 184.099 197.961 190.539C188.301 197.119 178.641 203.699 169.541 210.979C161.141 217.559 153.581 225.119 145.741 232.399C141.541 236.459 137.341 240.379 132.721 244.159C130.481 245.979 128.241 247.799 126.001 249.479C127.261 246.539 127.261 243.179 126.701 239.959C125.861 234.079 124.181 228.479 121.801 223.019C116.901 212.099 109.621 202.579 102.201 193.199C94.6407 183.679 86.6607 174.439 80.5007 163.799C74.7607 153.719 71.9607 142.659 67.7607 131.879C65.8007 126.839 63.4207 122.079 60.4807 117.599C57.5407 113.399 53.7607 109.199 48.8607 107.239C47.0407 106.539 45.2207 106.259 43.5407 106.399C68.0407 90.0191 99.4007 86.3791 127.261 77.9791C136.921 75.0391 146.581 71.6791 155.261 66.3591C156.101 65.9391 155.401 64.8191 154.561 65.0991C146.161 69.1591 137.481 72.6591 128.521 75.4591C119.701 78.2591 110.601 80.3591 101.641 82.5991C85.4007 86.7991 68.6007 90.9991 53.3407 98.8391C48.4407 101.359 43.6807 104.299 39.2007 107.659C37.8007 108.359 36.4007 109.199 35.1407 110.179C31.0807 113.539 27.1607 118.579 26.0407 123.759C24.7807 129.359 26.6007 134.959 29.1207 139.859C31.5007 144.479 34.3007 149.799 38.3607 153.299C41.4407 155.959 45.5007 157.219 49.4207 155.679C49.5607 155.819 49.8407 155.959 50.2607 155.819C54.1807 154.419 58.1007 153.019 62.1607 151.479C64.1207 150.779 66.0807 150.079 68.0407 149.379C69.0207 149.099 70.0007 148.679 70.8407 148.259C71.2607 148.119 71.5407 147.979 71.8207 147.839C73.6407 153.019 75.6007 158.059 78.1207 163.099C83.0207 172.479 89.3207 180.879 95.7607 189.279C100.801 195.719 105.841 202.159 110.461 208.879C110.321 208.879 110.181 209.019 110.041 209.019C108.781 209.439 107.521 209.859 106.261 210.419C103.741 211.399 101.361 212.519 98.9807 213.919C98.2807 213.219 96.8807 213.079 96.1807 214.059C89.8807 223.439 93.2407 236.739 99.1207 245.559C101.921 249.759 105.981 253.539 110.881 255.219C113.261 256.059 115.921 256.059 118.441 255.499C118.721 256.059 119.281 256.479 119.981 256.059C124.461 253.819 128.941 251.439 133.001 248.499C137.061 245.559 140.981 242.199 144.761 238.699C152.461 231.839 159.601 224.279 167.581 217.699C176.541 210.279 186.061 203.839 195.581 197.399C205.101 190.959 214.481 184.099 224.141 177.799C229.181 174.579 234.221 171.499 239.681 168.839C245.281 166.039 251.021 164.499 256.901 162.539C257.321 162.399 257.601 162.259 257.741 161.979C260.681 161.839 262.921 159.179 263.341 156.099C263.621 154.139 263.201 152.039 262.921 149.939ZM69.7207 145.599C68.7407 145.879 67.7607 146.299 66.7807 146.719C64.8207 147.559 63.0007 148.259 61.0407 149.099C58.5207 150.079 56.1407 151.199 53.6207 152.179C55.3007 149.799 55.8607 146.719 54.8807 143.779C54.1807 141.679 52.7807 139.859 50.9607 138.599C49.8407 137.899 48.8607 139.579 49.9807 140.279C49.8407 140.699 49.8407 141.119 49.9807 141.539C50.9607 143.639 52.2207 146.579 50.6807 148.539C49.9807 149.379 49.0007 149.519 47.8807 149.799C46.9007 150.079 45.3607 150.359 44.8007 151.339C44.6607 151.339 44.3807 151.339 44.2407 151.339C43.9607 151.479 43.6807 151.619 43.5407 151.899C43.1207 151.619 42.5607 151.479 42.1407 151.059C40.6007 149.939 39.4807 148.539 38.3607 147.139C35.9807 143.919 34.3007 140.279 33.1807 136.359C31.9207 132.019 31.6407 127.399 32.4807 123.059C32.6207 123.059 32.7607 123.059 32.9007 123.059C33.1807 122.919 33.6007 122.919 33.8807 122.779C34.0207 123.059 34.3007 123.199 34.5807 123.199C34.7207 123.199 34.8607 123.199 35.1407 123.199C35.2807 123.199 35.5607 123.199 35.7007 123.059L36.6807 122.919C36.9607 122.919 37.3807 122.779 37.6607 122.779C37.3807 122.919 37.1007 122.919 36.8207 123.199C36.1207 123.759 36.2607 124.599 37.1007 125.019C37.5207 125.159 37.9407 125.159 38.3607 125.159C38.7807 125.159 39.0607 125.299 39.4807 125.299C40.1807 125.299 40.8807 125.439 41.5807 125.439C41.7207 125.439 41.7207 125.439 41.5807 125.439C41.7207 125.439 41.7207 125.439 41.8607 125.439C41.8607 125.579 41.8607 125.579 41.8607 125.719C41.8607 126.139 42.2807 126.559 42.8407 126.559C42.9807 126.559 43.1207 126.559 43.2607 126.559C43.4007 126.559 43.4007 126.559 43.5407 126.559C43.8207 126.559 43.9607 126.559 44.2407 126.699H44.3807C44.5207 126.699 44.6607 126.699 44.8007 126.699C44.9407 126.699 45.0807 126.699 45.2207 126.839C45.5007 126.979 45.7807 126.979 46.0607 127.119C46.0607 127.119 46.2007 127.119 46.2007 127.259C46.3407 127.399 46.4807 127.399 46.6207 127.539C46.7607 127.679 46.9007 127.679 47.0407 127.819C47.0407 127.819 47.0407 127.819 47.1807 127.819L47.3207 127.959C47.6007 128.099 47.7407 128.379 48.0207 128.659L48.1607 128.799C48.3007 128.939 48.3007 129.079 48.4407 129.219C48.5807 129.499 49.0007 129.639 49.2807 129.639C49.7007 130.199 49.9807 130.759 50.4007 131.319C50.2607 131.319 50.1207 131.179 49.9807 131.039C49.2807 130.759 48.7207 130.479 48.0207 130.479C47.6007 130.479 47.3207 130.339 46.9007 130.339C46.7607 130.339 46.6207 130.339 46.4807 130.339C46.2007 130.339 46.0607 130.479 45.9207 130.479C45.5007 130.479 45.0807 130.619 44.6607 130.759C44.2407 130.899 44.3807 131.459 44.6607 131.599C44.9407 131.739 45.3607 131.879 45.6407 132.019C45.9207 132.299 46.2007 132.299 46.4807 132.439C46.4807 132.439 46.9007 132.579 46.7607 132.579C46.9007 132.579 47.0407 132.719 47.0407 132.719C47.6007 132.999 48.0207 133.139 48.5807 133.419C49.1407 133.699 49.5607 133.979 49.9807 134.259C50.1207 134.259 50.1207 134.399 50.2607 134.539L50.4007 134.679C50.6807 134.819 50.8207 135.099 51.1007 135.239C51.6607 135.799 52.6407 135.799 53.2007 135.239C53.3407 135.659 53.6207 136.079 54.0407 136.359C53.3407 136.779 52.5007 137.059 51.8007 137.479C50.8207 138.039 51.6607 139.579 52.6407 139.019C54.8807 137.759 57.2607 136.779 59.6407 135.939C60.9007 135.519 62.0207 135.239 63.2807 134.959C63.8407 134.819 64.4007 134.679 65.1007 134.539C65.6607 134.399 66.3607 134.399 66.7807 134.119C66.9207 134.679 67.2007 135.099 67.3407 135.659C68.4607 138.739 69.4407 141.819 70.5607 144.899C70.2807 145.459 70.0007 145.459 69.7207 145.599ZM121.381 239.819C121.241 239.819 121.241 239.819 121.381 239.819C121.101 239.399 120.961 239.119 120.681 239.119C120.541 239.119 120.401 239.119 120.261 239.259C120.261 239.399 120.121 239.399 120.121 239.539C119.981 239.679 119.841 239.819 119.841 239.959C119.841 240.099 119.841 240.239 119.701 240.239C119.701 240.379 119.561 240.519 119.561 240.519C119.421 240.659 119.421 240.659 119.281 240.799C119.141 240.799 119.141 240.939 119.001 240.939C118.721 240.939 118.581 241.219 118.441 241.359C118.441 241.359 118.441 241.499 118.301 241.639L118.161 241.779C117.741 242.059 117.321 242.339 116.761 242.619H116.621C116.341 242.619 116.061 242.619 115.781 242.479C115.221 242.479 114.661 242.479 114.101 242.479C113.541 242.199 112.701 242.059 112.141 241.919C112.001 241.919 112.001 241.919 111.861 241.779C112.001 241.359 111.861 240.799 111.581 240.519C111.161 240.099 110.601 239.959 110.181 239.819C110.041 239.819 110.041 239.679 109.901 239.679C109.761 239.679 109.621 239.539 109.481 239.399C109.201 239.259 108.921 239.119 108.641 239.119C108.641 239.119 108.641 239.119 108.501 239.119C108.501 239.119 108.361 239.119 108.361 238.979C107.941 238.839 107.661 238.699 107.381 238.419C107.101 238.279 106.681 237.999 106.401 237.859C106.261 237.719 106.121 237.719 105.981 237.579C105.841 237.579 105.841 237.439 105.701 237.439C105.561 237.299 105.421 237.159 105.281 237.019C105.421 236.879 105.561 236.599 105.561 236.319C105.561 235.759 105.281 235.199 104.861 235.059C103.741 234.359 102.481 233.659 101.361 232.819L101.221 232.679C101.081 232.679 101.081 232.539 100.941 232.539C101.361 232.399 101.641 232.119 101.781 231.839C102.061 231.279 101.781 230.579 101.221 230.299C101.081 230.159 100.801 230.159 100.661 230.019C100.521 230.019 100.521 229.879 100.381 229.879C100.101 229.599 99.8207 229.319 99.4007 229.039C99.1207 228.759 98.8407 228.479 98.5607 228.199L98.4207 228.059L98.2807 227.919C98.1407 227.779 98.0007 227.639 98.0007 227.359C97.8607 227.219 97.8607 226.939 97.7207 226.799C97.5807 226.519 97.5807 226.519 97.5807 226.379C97.4407 225.959 97.3007 225.679 97.1607 225.259C97.1607 224.279 97.3007 223.299 97.3007 222.459C97.5807 220.079 98.2807 217.839 99.1207 215.599C99.2607 215.599 99.4007 215.599 99.5407 215.459C101.921 214.199 104.301 213.079 106.821 212.099C108.081 211.679 109.341 211.119 110.601 210.699C110.881 210.559 111.021 210.559 111.301 210.419C112.141 211.679 112.981 213.079 113.821 214.339C115.081 216.439 116.481 218.679 117.601 220.919C117.601 221.059 117.461 221.059 117.461 221.199C117.181 220.779 116.761 220.499 116.481 220.079C115.921 219.519 115.081 219.519 114.521 220.079C113.961 220.639 113.961 221.479 114.521 222.039C115.781 223.579 116.901 224.839 117.881 226.519C118.441 227.359 118.861 228.059 119.421 228.899C119.701 229.319 120.121 229.739 120.401 230.299C120.681 230.579 120.961 230.859 121.241 231.139C121.521 232.539 121.801 233.939 121.941 235.339C121.941 236.879 121.661 238.419 121.381 239.819Z" fill="#151314"/>
<path d="M157.08 88.4782C159.18 89.3182 161.28 90.2982 163.24 91.4182C160.3 93.2382 157.64 95.3382 155.54 98.1382C154.84 99.1182 156.52 100.378 157.22 99.3982C159.6 96.4582 162.68 94.6382 166.04 93.0982C167.16 93.7982 168.28 94.6382 169.4 95.4782C169.96 96.0382 170.66 96.4582 171.22 96.8782C171.64 97.1582 171.92 97.2982 172.34 97.4382C172.76 97.5782 173.04 97.8582 173.6 97.8582C174.02 97.8582 174.44 97.4382 174.44 97.0182C174.44 96.3182 173.74 95.1982 173.32 94.7782C172.76 94.2182 172.06 93.6582 171.5 93.0982C170.8 92.5382 170.1 91.9782 169.4 91.5582C171.08 90.8582 172.9 90.1582 174.58 89.3182C175.7 88.7582 176.54 88.1982 177.52 87.4982C178.5 86.7982 179.48 86.0982 179.9 85.1182C180.18 84.4182 179.76 83.8582 179.06 83.9982C177.94 84.1382 176.82 84.8382 175.84 85.2582C174.72 85.6782 173.74 86.0982 172.62 86.6582C170.52 87.6382 168.42 88.6182 166.32 89.7382C163.52 88.0582 160.72 86.7982 157.78 85.6782C157.08 85.3982 156.24 85.9582 155.96 86.6582C155.82 87.4982 156.38 88.1982 157.08 88.4782Z" fill="#151314"/>
<path d="M171.36 39.7595C170.1 39.0595 168.56 38.7795 167.16 38.9195C166.88 38.7795 166.74 38.7795 166.46 38.9195C165.48 39.3395 164.64 39.8995 163.94 40.4595L163.8 40.5995C163.8 40.5995 163.8 40.5995 163.66 40.7395C162.26 42.1395 161.42 43.9595 161.28 45.9195C161.14 49.2795 163.66 52.3595 167.02 52.7795C170.24 53.1995 173.74 51.2395 174.72 48.0195C175.56 44.9395 174.16 41.2995 171.36 39.7595ZM169.54 47.8795C169.26 48.0195 168.98 48.1595 168.84 48.2995C168.7 48.2995 168.56 48.4395 168.42 48.4395C168.28 48.4395 168.14 48.4395 168.14 48.5795C167.86 48.5795 167.72 48.5795 167.44 48.5795C167.3 48.5795 167.16 48.5795 167.02 48.4395C166.88 48.4395 166.88 48.4395 166.74 48.2995C166.46 48.1595 166.32 48.0195 166.04 47.8795C166.04 47.8795 166.04 47.8795 165.9 47.8795C165.76 47.7395 165.62 47.7395 165.62 47.5995L165.48 47.4595C165.48 47.4595 165.48 47.3195 165.34 47.3195C165.2 47.1795 165.2 47.1795 165.34 47.3195C165.2 47.1795 165.06 46.8995 164.92 46.7595C164.92 46.6195 164.78 46.6195 164.78 46.4795C164.78 46.4795 164.64 46.1995 164.64 46.0595C164.64 45.9195 164.64 45.9195 164.5 45.7795C164.5 45.7795 164.5 45.4995 164.36 45.3595C164.36 45.0795 164.36 44.9395 164.36 44.6595V44.3795V44.2395C164.5 44.2395 164.5 44.2395 164.64 44.0995C164.78 44.0995 164.78 44.0995 164.92 43.9595C164.78 43.9595 165.48 43.6795 165.76 43.5395H165.9C166.04 43.5395 166.18 43.3995 166.46 43.3995C166.74 43.3995 166.88 43.2595 167.16 43.2595C167.16 43.2595 167.16 43.2595 167.3 43.2595H167.44C167.58 43.2595 168 43.2595 168.14 43.2595C168.28 43.2595 168.42 43.2595 168.56 43.3995C168.56 43.3995 168.7 43.3995 168.84 43.5395C168.98 43.5395 169.12 43.6795 169.12 43.6795C169.12 43.8195 169.54 43.9595 169.54 44.0995C169.54 44.2395 169.68 44.3795 169.68 44.3795C169.68 44.5195 169.82 44.6595 169.82 44.7995C169.82 44.9395 169.96 45.2195 169.96 45.3595C169.96 45.4995 169.96 45.4995 169.96 45.6395C169.96 45.9195 169.96 46.0595 169.96 46.3395C169.96 46.4795 169.96 46.6195 169.82 46.7595V46.8995C169.68 47.0395 169.54 47.3195 169.54 47.4595C169.82 47.5995 169.68 47.7395 169.54 47.8795Z" fill="#151314"/>
<path d="M123.34 237.72C123.2 236.88 123.06 235.9 122.92 235.06C122.5 233.38 121.94 231.84 121.24 230.3C120.96 229.74 120.12 229.6 119.56 229.88C119 230.16 118.86 230.86 119.14 231.56C119.42 232.26 119.7 232.96 119.98 233.66C119.98 233.8 119.98 233.94 119.98 234.22C119.98 234.5 119.98 234.78 119.84 235.06C119.84 235.2 119.84 235.34 119.7 235.48C119.7 235.62 119.7 235.62 119.56 235.62V235.76C119.42 236.04 119.42 236.32 119.7 236.6C119.98 236.74 120.26 236.74 120.4 236.46C120.4 236.88 120.54 237.3 120.54 237.72C120.54 237.86 120.54 237.86 120.54 238C120.4 238.84 120.12 239.68 119.84 240.52C119.84 240.52 119.84 240.66 119.7 240.8L119.56 240.94C119.42 241.08 119.42 241.36 119.28 241.5C119.14 241.92 118.86 242.2 118.58 242.62C118.3 243.04 118.16 243.32 117.88 243.74C117.88 243.88 117.74 243.88 117.74 244.02C117.6 244.16 117.46 244.44 117.32 244.58C117.04 244.86 116.76 245.14 116.48 245.56C116.06 245.98 115.5 246.26 115.36 246.96C115.22 247.94 115.78 248.64 116.62 248.64C117.32 248.78 118.02 248.22 118.44 247.8C118.86 247.52 119.14 247.24 119.56 246.82C120.26 246.12 120.96 245.28 121.38 244.44C122.36 242.62 122.92 240.66 123.06 238.7C123.48 238.14 123.34 238 123.34 237.72Z" fill="#151314"/>
<path d="M181.58 161C180.88 161.28 180.46 161.84 180.6 162.68C181.02 164.08 182.14 165.2 183.54 165.62C184.94 166.18 186.48 165.76 187.46 164.78C188.44 163.8 188.86 162.26 188.58 161C188.44 160.44 188.02 159.74 187.6 159.32C187.04 158.76 186.34 158.48 185.5 158.48C184.8 158.48 184.1 158.62 183.4 159.04C183.12 159.18 182.84 159.46 182.56 159.74C182.42 159.88 182.28 160.02 182.14 160.3C182 160.58 181.86 160.86 181.86 161C181.86 161 181.72 161 181.58 161ZM184.52 161.7C184.52 161.56 184.52 161.56 184.52 161.7C184.66 161.56 184.66 161.56 184.52 161.7C184.66 161.7 184.66 161.56 184.66 161.56H184.8C184.94 161.56 185.08 161.56 185.08 161.42H185.22C185.22 161.42 185.22 161.42 185.36 161.42V161.56C185.36 161.7 185.36 161.7 185.36 161.84C185.36 161.98 185.36 161.98 185.22 162.12C185.22 162.26 185.08 162.4 184.94 162.54L184.8 162.68C184.8 162.68 184.66 162.68 184.66 162.82C184.52 162.82 184.52 162.82 184.38 162.82C184.24 162.82 184.1 162.82 184.1 162.82C183.96 162.82 183.82 162.82 183.68 162.68C183.54 162.68 183.4 162.54 183.4 162.54C183.54 162.4 183.54 162.26 183.68 162.12V161.98C184.24 161.98 184.38 161.84 184.52 161.7Z" fill="#151314"/>
<path d="M219.1 155.121C216.58 153.441 213.64 155.401 211.26 156.241C210.98 156.381 210.7 156.381 210.56 156.521C210.98 155.121 211.54 153.861 212.1 152.461C213.22 149.521 214.34 146.721 215.6 143.781C216.16 142.381 214.34 141.401 213.22 141.961C207.62 144.621 202.16 147.701 196.84 151.061C195.3 152.041 196.7 154.421 198.24 153.581C202.3 151.061 206.64 148.681 210.84 146.581C210.14 148.121 209.58 149.661 208.88 151.201C208.32 152.461 207.76 153.861 207.2 155.121C206.78 156.101 206.5 157.221 206.78 158.341C207.48 161.281 210.7 160.441 212.8 159.741C209.58 162.121 206.78 165.481 204.68 168.421C202.86 170.941 201.18 173.741 199.92 176.541C198.94 178.781 197.54 181.441 197.54 183.961C194.04 181.021 190.12 178.501 185.5 177.941C182.42 177.521 179.2 177.801 176.26 178.781C174.44 179.341 172.34 180.041 170.52 180.881C170.8 180.461 171.22 180.041 171.5 179.761C172.76 178.081 174.02 175.561 172.34 173.741C170.66 171.921 167.58 173.321 165.48 173.601C164.08 173.881 162.68 174.021 161.28 174.161C164.5 171.641 167.58 169.121 170.8 166.601C171.5 166.041 170.52 164.641 169.68 165.201C165.48 168.281 161.28 171.501 157.08 174.581C156.38 175.141 156.24 176.401 157.36 176.681C161.28 177.521 165.48 177.381 169.4 176.401C169.4 176.401 169.4 176.401 169.4 176.541C168.98 177.241 168.42 177.941 167.86 178.641C167.16 179.481 166.46 180.461 165.76 181.301C165.06 182.141 164.22 183.121 163.8 184.241C163.66 184.801 163.8 185.501 164.22 185.781C165.2 186.621 166.32 186.761 167.44 186.201C168.14 185.921 168.14 185.081 167.86 184.521C168 184.521 168.14 184.661 168.28 184.661C170.94 184.521 173.6 183.121 176.26 182.421C179.2 181.721 182 181.161 185.08 181.581C190.4 182.281 194.88 185.641 199.08 188.861C199.92 189.561 201.04 188.581 201.04 187.601C201.6 187.181 201.88 186.621 201.6 185.781C200.76 183.121 202.86 179.761 203.98 177.381C205.38 174.721 206.92 172.341 208.6 169.961C210.28 167.721 212.1 165.621 214.2 163.521C215.6 162.261 217 160.861 218.26 159.461C218.26 159.461 218.26 159.461 218.26 159.601C218.26 160.161 218.82 160.441 219.24 160.301C220.22 160.021 220.64 159.181 220.78 158.341C220.64 156.801 220.08 155.821 219.1 155.121Z" fill="#151314"/>
<path d="M194.319 159.462C192.919 160.302 191.799 161.562 190.679 162.682C189.559 163.802 188.439 164.782 187.039 165.622C184.659 167.162 181.439 167.862 178.919 166.462C177.239 165.622 175.839 168.002 177.519 168.982C180.879 170.942 184.939 170.522 188.299 168.842C189.979 168.002 191.519 166.882 192.919 165.482C194.319 164.082 195.579 162.682 196.419 160.722C196.699 159.882 195.159 158.902 194.319 159.462Z" fill="#151314"/>
<path d="M176.54 164.081C177.24 160.721 179.48 157.641 182.7 156.241C184.52 155.401 186.62 155.261 188.72 155.541C191.1 155.821 193.2 156.661 195.58 157.081C196.84 157.361 197.68 155.541 196.42 154.981C192.08 152.741 186.2 152.041 181.72 154.141C178.08 155.821 175.28 159.461 174.58 163.521C174.44 164.781 176.26 165.341 176.54 164.081Z" fill="#151314"/>
<path d="M127.96 190.819C127.26 189.139 126.56 187.459 125.72 185.919C125.58 185.639 125.44 185.499 125.3 185.359C125.16 185.219 125.02 185.079 124.88 185.079H125.02L124.74 184.799C124.46 184.519 124.04 183.959 123.62 183.959C123.2 183.959 122.92 184.379 123.06 184.799C123.2 185.219 123.48 185.639 123.48 186.059C123.48 186.339 123.62 186.479 123.76 186.759C123.9 186.899 124.04 187.179 124.18 187.319C124.46 187.739 124.74 188.159 124.88 188.579C125.3 189.419 125.72 190.399 126.14 191.099C126.28 191.519 126.84 191.939 127.4 191.799C127.68 191.939 128.1 191.379 127.96 190.819Z" fill="#151314"/>
<path d="M121.661 173.32C121.801 173.32 121.801 173.46 121.661 173.32V173.32Z" fill="#151314"/>
<path d="M127.68 158.76C127.68 158.62 127.54 158.62 127.4 158.48C127.26 158.48 127.12 158.48 126.98 158.48C126.84 158.48 126.7 158.62 126.56 158.76C126.56 158.9 126.42 158.9 126.42 159.04C126.28 159.18 126.28 159.32 126.14 159.32C126.14 159.46 126 159.6 126 159.6C125.86 160.02 125.58 160.58 125.44 161C125.3 161.14 125.3 161.42 125.3 161.56C125.3 161.84 125.58 161.98 125.72 162.12C125.86 162.26 126.14 162.26 126.28 162.12C126.56 161.98 126.7 161.84 126.7 161.56C126.84 161.14 127.12 160.58 127.26 160.16C127.26 160.02 127.4 159.88 127.4 159.88C127.4 159.74 127.4 159.6 127.54 159.46C127.54 159.32 127.54 159.18 127.68 159.18C127.82 159.18 127.82 158.9 127.68 158.76Z" fill="#151314"/>
<path d="M137.48 148.68C137.34 148.54 136.92 148.4 136.78 148.54C136.64 148.68 136.5 148.68 136.36 148.82C136.08 148.82 135.8 148.96 135.66 149.1C134.82 150.08 133.98 151.06 133.28 152.04C133.14 152.18 133 152.46 133 152.74C133 153.02 133.14 153.3 133.28 153.44C133.7 153.72 134.26 153.86 134.68 153.44C135.52 152.46 136.36 151.62 137.2 150.64C137.34 150.36 137.48 150.08 137.48 149.8C137.48 149.66 137.62 149.52 137.62 149.38C137.76 149.24 137.76 148.82 137.48 148.68Z" fill="#151314"/>
<path d="M148.96 138.6C148.54 138.6 148.26 138.88 147.98 139.16C147.84 139.3 147.7 139.44 147.56 139.58C147.28 139.86 147 140.14 146.72 140.42C146.16 140.98 145.6 141.54 145.04 142.1C144.62 142.52 144.62 143.22 145.04 143.64C145.46 144.06 146.16 144.06 146.58 143.64C147.14 143.08 147.7 142.52 148.26 141.96C148.54 141.68 148.82 141.4 149.1 141.12C149.24 140.98 149.38 140.84 149.52 140.7C149.52 140.56 149.66 140.56 149.66 140.42C149.8 140.14 149.94 140 149.94 139.58C149.94 139.02 149.52 138.6 148.96 138.6Z" fill="#151314"/>
<path d="M168.98 130.201C168.84 130.201 168.84 130.201 168.7 130.201H168.56C168.28 130.061 167.86 130.201 167.58 130.201C167.44 130.201 167.16 130.201 167.02 130.341C166.88 130.341 166.74 130.341 166.74 130.341C166.46 130.341 166.18 130.341 165.9 130.341C165.62 130.341 165.48 130.481 165.2 130.621C164.78 130.761 164.36 130.901 163.94 131.041C163.1 131.321 162.12 131.741 161.28 132.021C160.44 132.301 159.74 133.141 160.02 134.121C160.3 134.961 161.28 135.661 162.12 135.381C162.96 135.101 163.94 134.681 164.78 134.401C165.2 134.261 165.62 134.121 166.04 133.981C166.32 133.841 166.6 133.841 166.88 133.701C167.16 133.561 167.44 133.421 167.58 133.141C167.72 133.141 167.86 133.001 167.86 133.001C168 132.861 168.14 132.861 168.28 132.721C168.56 132.441 168.98 132.301 169.12 131.881C169.26 131.741 169.26 131.741 169.4 131.601C169.82 130.901 169.54 130.201 168.98 130.201Z" fill="#151314"/>
<path d="M188.861 124.881C188.441 124.741 188.021 124.881 187.601 124.881C187.181 125.021 186.901 125.021 186.481 125.301H186.341C186.201 125.441 185.921 125.441 185.781 125.581C185.221 125.861 184.661 126.001 183.961 126.141C182.701 126.701 181.301 127.121 179.901 127.401C179.061 127.541 178.501 128.661 178.781 129.501C179.061 130.341 179.901 130.901 180.881 130.621C182.141 130.341 183.261 129.921 184.521 129.501C185.781 129.081 186.901 128.381 188.021 127.681C188.581 127.261 189.421 126.561 189.421 125.861C189.421 125.441 189.141 125.021 188.861 124.881Z" fill="#151314"/>
<path d="M207.479 116.48C207.059 116.06 206.499 116.48 206.079 116.76C205.799 117.04 205.379 117.18 205.099 117.46C204.959 117.46 204.959 117.46 204.819 117.6C204.679 117.74 204.399 117.88 204.259 118.02C203.979 118.3 203.699 118.44 203.559 118.58C202.999 119 202.439 119.56 201.879 119.98C200.899 120.82 199.779 121.52 198.659 122.36C198.099 122.78 197.819 123.48 198.239 124.18C198.659 124.74 199.359 125.02 200.059 124.6C201.319 123.76 202.579 122.92 203.699 121.94C204.259 121.52 204.819 121.1 205.239 120.54C205.519 120.26 205.799 119.98 206.079 119.7C206.359 119.42 206.639 119.14 206.779 118.72C207.059 118.44 207.199 118.02 207.479 117.74C207.479 117.46 207.899 116.9 207.479 116.48Z" fill="#151314"/>
<path d="M209.441 109.62C209.021 108.78 208.601 108.08 207.901 107.52C207.481 107.24 207.061 106.82 206.641 106.54C206.081 106.12 205.381 105.84 204.681 105.98C204.401 105.98 203.981 105.98 203.701 105.98C203.421 105.98 203.141 106.12 202.721 106.26C202.721 106.26 202.581 106.26 202.581 106.4C202.441 106.54 202.301 106.54 202.161 106.68C201.461 107.1 201.461 108.08 202.161 108.5C202.301 108.5 202.301 108.64 202.441 108.64L202.581 108.78C202.861 109.06 203.001 109.06 203.421 109.2C203.281 109.2 203.141 109.06 203.001 109.06C203.281 109.2 203.421 109.34 203.701 109.34C203.981 109.62 204.261 109.9 204.681 110.04L204.261 109.9C204.681 110.04 204.961 110.32 205.381 110.46C205.661 110.74 205.941 111.02 206.221 111.3C206.361 111.44 206.361 111.44 206.501 111.58C206.921 112.42 208.181 112.7 209.021 112.28C209.441 112 209.721 111.72 209.861 111.16C209.721 110.6 209.581 110.18 209.441 109.62Z" fill="#151314"/>
<path d="M202.441 108.5C202.581 108.64 202.581 108.78 202.441 108.5V108.5Z" fill="#151314"/>
<path d="M196.701 104.02C195.581 103.74 194.321 103.6 193.061 103.6C192.361 103.6 191.661 103.6 191.101 103.88C190.541 104.16 190.121 104.44 189.561 104.72C189.281 104.86 189.141 105.14 189.281 105.42C189.281 105.7 189.561 105.98 189.841 105.98C190.401 105.98 190.821 106.12 191.381 106.26C191.941 106.4 192.501 106.4 193.061 106.4C193.341 106.4 193.621 106.4 193.761 106.4C193.901 106.4 194.041 106.4 194.181 106.4C194.741 106.54 195.301 106.54 195.721 106.68C196.421 106.82 197.261 106.4 197.541 105.7C197.821 105.14 197.401 104.3 196.701 104.02Z" fill="#151314"/>
<path d="M179.901 109.2C179.621 108.5 178.921 107.94 178.221 108.22C177.381 108.5 176.681 108.64 175.841 108.92C175.421 109.06 175.001 109.2 174.721 109.34C174.441 109.48 174.301 109.48 174.021 109.62C173.881 109.76 173.601 109.9 173.461 110.04C173.321 110.18 173.041 110.18 172.901 110.32C172.621 110.46 172.341 111.02 172.481 111.44C172.621 111.86 172.901 112.14 173.321 112.14C173.601 112.14 173.741 112.14 174.021 112.14C174.161 112.14 174.301 112.28 174.441 112.28C174.721 112.28 175.001 112.14 175.281 112.14C175.701 112 176.121 111.86 176.541 111.86C177.381 111.58 178.081 111.44 178.921 111.16C179.621 110.74 180.181 109.9 179.901 109.2Z" fill="#151314"/>
<path d="M158.759 118.441C158.479 117.881 157.919 117.741 157.359 118.021C156.519 118.441 155.679 118.721 154.979 119.141C154.559 119.281 154.139 119.421 153.719 119.701C153.299 119.981 152.879 120.261 152.599 120.541C152.319 120.821 152.459 121.381 152.879 121.381C153.299 121.381 153.859 121.241 154.279 121.241C154.699 121.101 155.119 120.961 155.539 120.821C156.379 120.541 157.219 120.121 158.059 119.841C158.619 119.561 159.039 119.001 158.759 118.441Z" fill="#151314"/>
<path d="M140.001 131.6C139.581 131.18 138.741 131.18 138.321 131.6C137.901 132.02 137.481 132.44 137.061 132.72C136.781 132.86 136.641 133.14 136.361 133.28L136.221 133.42C136.081 133.56 135.941 133.56 135.801 133.7C135.381 133.98 134.821 134.26 134.401 134.54C133.841 134.82 133.281 135.1 133.001 135.52C132.861 135.66 132.721 135.8 132.581 135.8C132.301 135.94 132.021 136.08 131.881 136.5C131.741 136.78 131.741 137.06 132.021 137.2C132.581 137.48 133.141 137.34 133.701 137.2C133.841 137.2 134.121 137.2 134.261 137.2C134.401 137.2 134.681 137.06 134.821 136.92C135.101 136.78 135.381 136.64 135.661 136.5C136.221 136.22 136.641 135.94 137.061 135.52C138.041 134.82 139.021 133.98 139.861 133.14C140.281 132.86 140.421 132.02 140.001 131.6Z" fill="#151314"/>
<path d="M124.039 141.679C123.899 141.539 123.759 141.399 123.619 141.399C123.339 141.259 123.059 141.259 122.919 141.259C122.779 141.259 122.499 141.259 122.359 141.259C121.799 141.119 121.239 140.979 120.819 140.839C120.679 140.839 120.539 140.699 120.399 140.699H119.979C119.559 140.839 119.279 141.119 119.139 141.539C118.859 142.239 119.279 143.219 119.979 143.359C120.259 143.499 120.679 143.499 120.959 143.499C120.819 143.639 120.819 143.639 120.819 143.779C120.819 143.919 120.959 143.919 121.099 143.919C121.379 143.779 121.659 143.779 121.939 143.639C122.079 143.639 122.079 143.499 122.219 143.499C122.499 143.499 122.779 143.499 123.059 143.359C123.339 143.359 123.619 143.219 123.759 143.079C123.899 142.939 124.039 142.799 124.039 142.659C124.039 142.519 124.179 142.379 124.179 142.239C124.319 141.959 124.319 141.819 124.039 141.679Z" fill="#151314"/>
<path d="M107.94 129.64C108.22 128.8 107.66 127.68 106.68 127.4C105.7 127.12 104.86 127.68 104.44 128.66C104.16 129.64 103.88 130.62 103.88 131.6C103.88 132.02 103.88 132.44 103.88 132.86C103.88 133.28 104.02 133.56 104.16 133.84C104.3 134.12 104.44 134.54 104.58 134.82C104.86 135.38 105.7 135.8 106.4 135.52C106.54 135.52 106.68 135.38 106.82 135.38C106.96 135.66 107.1 135.8 107.38 135.66C107.66 135.52 107.66 135.24 107.52 135.1C107.52 134.96 107.38 134.82 107.38 134.68C107.52 134.4 107.52 134.26 107.52 133.98C107.52 133.7 107.52 133.42 107.52 133.14C107.52 132.86 107.52 132.58 107.52 132.3C107.52 131.88 107.52 131.32 107.52 130.9C107.66 130.62 107.8 130.06 107.94 129.64Z" fill="#151314"/>
<path d="M111.019 113.821C110.599 114.241 110.179 114.801 110.039 115.361C109.759 115.921 109.619 116.481 109.339 117.181L108.079 120.401C107.799 120.961 108.359 121.801 108.919 121.941C109.619 122.081 110.179 121.661 110.459 121.101L111.719 118.021C111.859 117.461 112.139 117.041 112.279 116.481C112.559 115.921 112.559 115.221 112.559 114.661C112.559 113.681 111.579 113.261 111.019 113.821Z" fill="#151314"/>
<path d="M117.88 108.081C117.74 107.941 117.6 107.801 117.32 107.801C117.04 107.801 116.76 107.941 116.48 108.081C116.34 108.221 116.2 108.361 116.2 108.361C116.06 108.501 115.92 108.641 115.78 108.781C115.64 108.921 115.64 109.061 115.5 109.201C115.36 109.481 115.22 109.761 115.08 110.041C114.8 110.601 114.52 111.021 114.1 111.581C113.82 112.001 113.96 112.841 114.52 112.981C115.08 113.261 115.64 113.121 115.92 112.561C116.2 112.001 116.48 111.581 116.9 111.021C117.04 110.741 117.18 110.461 117.32 110.321C117.46 110.181 117.46 110.041 117.6 109.901C117.74 109.761 117.74 109.481 117.74 109.341C117.74 109.201 117.88 109.061 117.88 108.921C118.02 108.641 118.02 108.361 117.88 108.081Z" fill="#151314"/>
<path d="M128.66 102.06C128.52 101.92 128.38 101.92 128.24 101.92C128.1 101.92 127.82 102.06 127.68 102.06C127.54 102.06 127.54 102.06 127.4 102.06C127.26 102.06 127.12 102.2 126.84 102.34C126.56 102.62 126.14 102.76 125.72 102.9C125.44 103.04 125.3 103.04 125.02 103.18C124.74 103.32 124.46 103.46 124.32 103.74C124.18 104.02 124.18 104.3 124.18 104.58C124.32 104.86 124.46 105.14 124.74 105.28C125.02 105.42 125.3 105.56 125.58 105.42C126.28 105.14 126.84 104.86 127.54 104.44C127.96 104.16 128.24 103.88 128.52 103.46C128.66 103.04 128.8 102.76 128.8 102.34C128.94 102.34 128.8 102.2 128.66 102.06Z" fill="#151314"/>
<path d="M146.58 96.8805C146.3 96.3205 145.74 96.0405 145.18 95.7605C144.62 95.6205 144.06 95.4805 143.5 95.4805C143.08 95.4805 142.8 95.6205 142.38 95.9005C142.24 96.0405 141.96 96.0405 141.82 96.1805C141.26 96.6005 140.84 97.0205 140.42 97.5805C140.28 97.7205 140.28 98.0005 140.28 98.2805C140.14 98.4205 140 98.5605 140.14 98.8405C140.14 98.9805 140.28 99.1205 140.56 99.1205C140.7 99.4005 140.84 99.5405 141.12 99.6805C141.82 100.1 142.66 99.8205 143.22 99.2605C143.36 99.1205 143.5 98.9805 143.64 98.8405C143.78 98.7005 143.92 98.7005 144.06 98.5605C144.2 98.5605 144.48 98.4205 144.62 98.2805C144.76 98.2805 144.9 98.1405 144.9 98.1405C145.04 98.1405 145.04 98.1405 145.18 98.0005H145.32H145.46C145.6 98.0005 145.6 98.0005 145.74 98.0005C145.88 98.0005 146.16 98.0005 146.3 97.8605C146.72 98.0005 146.86 97.3005 146.58 96.8805Z" fill="#151314"/>
<path d="M180.04 223.023C180.6 222.463 179.9 221.483 179.2 221.903C175.42 224.003 171.92 226.803 168.42 229.323C164.92 231.703 161.7 234.503 158.48 237.163C152.18 242.063 146.02 247.103 140.7 253.123C139.44 254.523 141.4 256.483 142.66 255.083C147.98 249.203 154.28 244.303 160.58 239.403C163.8 236.883 167.3 234.643 170.38 231.843C173.46 228.763 177.1 226.103 180.04 223.023Z" fill="#151314"/>
<path d="M230.859 213.361C230.719 212.101 230.439 210.981 229.879 210.141C229.179 204.401 224.419 198.661 218.819 197.821C212.099 196.701 204.819 200.201 199.639 204.121C196.699 206.361 194.179 209.301 192.919 212.941C192.079 215.181 191.939 218.121 193.759 219.801C193.199 220.221 192.919 220.781 193.339 221.481C189.139 223.441 185.499 226.241 181.719 228.901C177.239 232.121 173.039 235.481 168.839 238.981C168.419 239.401 168.419 239.821 168.559 240.101C168.419 240.101 168.279 240.241 168.139 240.241C167.579 240.521 167.299 240.941 166.879 241.361C166.739 241.641 166.599 242.061 166.599 242.341C166.599 242.481 166.599 242.621 166.599 242.761C165.899 244.021 165.899 245.701 166.879 246.821C167.579 247.661 168.559 248.361 169.679 248.501C170.659 248.641 171.779 248.501 172.619 247.941C173.599 247.381 174.299 246.401 174.579 245.421C174.999 245.561 175.559 245.421 175.979 245.001C179.339 241.641 182.979 238.561 186.759 235.761C188.579 234.361 190.539 233.101 192.359 231.841C193.199 231.281 194.039 230.721 194.739 230.161C194.879 230.301 195.159 230.441 195.299 230.161C195.439 230.021 195.439 229.741 195.439 229.601C196.139 229.041 196.839 228.481 197.259 227.781C197.539 228.201 197.819 228.621 198.099 229.041C198.239 229.321 198.519 229.601 198.799 229.881C199.079 230.301 199.359 230.581 199.779 230.861C200.199 231.141 200.759 231.001 201.039 230.581L201.179 230.721C204.959 232.821 209.299 232.821 213.499 232.121C217.279 231.561 221.059 230.441 224.279 228.481C227.639 226.381 229.879 223.301 230.579 219.381C230.859 217.701 230.999 215.461 230.859 213.361ZM171.639 244.441V244.581C171.499 244.721 171.499 244.861 171.359 245.001C171.359 245.001 171.359 245.001 171.499 244.861L171.359 245.001L171.219 245.141C171.079 245.281 171.079 245.421 170.939 245.421C170.939 245.421 170.799 245.421 170.799 245.561C170.799 245.561 170.659 245.561 170.659 245.701C170.519 245.701 170.519 245.701 170.379 245.841H170.239H170.099C169.959 245.841 169.819 245.841 169.679 245.701C169.539 245.701 169.539 245.561 169.399 245.561L169.259 245.421C169.259 245.421 169.259 245.281 169.119 245.281C169.119 245.141 168.979 245.141 168.979 245.001V244.861C168.979 244.721 168.979 244.721 168.979 244.581V244.441C168.979 244.441 168.979 244.441 168.979 244.301C168.979 244.161 169.119 244.161 169.119 244.021C169.119 244.021 169.119 244.021 169.259 243.881C169.259 243.881 169.399 243.881 169.399 243.741C169.679 243.601 169.959 243.321 169.959 242.901C170.239 242.901 170.379 242.901 170.659 242.901H170.799C170.939 242.901 171.079 243.041 171.079 243.041C171.079 243.041 171.219 243.041 171.219 243.181L171.359 243.321C171.359 243.321 171.359 243.321 171.359 243.461V243.601C171.359 243.601 171.359 243.601 171.359 243.461V243.601C171.359 243.741 171.359 243.881 171.359 244.021C171.639 244.301 171.639 244.441 171.639 244.441ZM195.439 226.941C195.439 226.661 195.439 226.521 195.299 226.241C195.299 226.101 195.159 225.821 195.159 225.681C195.019 225.401 194.739 225.261 194.459 225.401C194.179 225.681 193.759 225.821 193.479 226.101C193.199 226.381 193.059 226.801 192.919 227.081C192.779 227.501 193.479 227.781 193.619 227.221C193.759 226.941 193.759 226.801 194.039 226.661C194.039 226.801 194.039 226.801 194.039 226.941C194.039 227.081 194.039 227.221 194.039 227.361C192.779 227.921 191.659 228.621 190.679 229.181C189.559 229.881 188.299 230.721 187.179 231.561C187.039 231.421 186.899 231.141 186.759 231.141C186.479 231.001 186.199 231.001 185.919 231.001C185.639 231.141 185.499 231.281 185.359 231.421C185.219 231.701 185.219 231.981 185.219 232.261C185.219 232.401 185.359 232.681 185.359 232.821C185.079 232.961 184.799 233.241 184.659 233.381C184.519 233.521 184.239 233.661 184.099 233.801C184.099 233.521 183.959 233.381 183.959 233.101C183.819 232.821 183.679 232.541 183.539 232.541C183.259 232.401 182.979 232.401 182.699 232.401C182.419 232.541 182.139 232.681 182.139 232.821C181.999 233.101 181.999 233.381 181.999 233.661C182.139 234.221 182.279 234.641 182.419 235.201C181.999 235.621 181.579 235.901 181.159 236.321V236.181L180.879 235.481C180.879 235.341 180.739 235.201 180.739 235.201L180.599 235.061C180.459 234.921 180.179 234.921 179.899 235.061C179.759 235.201 179.619 235.341 179.479 235.481C179.339 235.761 179.339 235.901 179.479 236.181L179.899 236.881C179.899 237.021 180.039 237.161 180.039 237.161L180.179 237.301C179.899 237.581 179.619 237.861 179.339 238.001V237.861C179.339 237.861 179.339 237.721 179.199 237.721L179.059 237.581C178.919 237.441 178.919 237.441 178.779 237.301L178.219 236.741C178.079 236.601 178.079 236.601 177.939 236.601C177.799 236.601 177.659 236.461 177.659 236.461C177.519 236.461 177.379 236.461 177.379 236.601C177.239 236.601 177.239 236.741 177.099 236.741C176.959 236.881 176.819 237.161 176.819 237.441C176.819 237.721 176.959 237.861 177.099 238.141C177.239 238.281 177.519 238.561 177.659 238.701C177.799 238.841 177.799 238.841 177.939 238.981C178.079 238.981 178.079 239.121 178.219 239.121C178.219 239.121 178.219 239.121 178.359 239.121H178.499C178.219 239.261 178.079 239.541 177.799 239.681C177.799 239.541 177.659 239.401 177.519 239.261C177.379 239.121 177.099 238.981 176.959 238.981C176.679 238.841 176.259 238.701 175.979 238.561C175.839 238.421 175.699 238.421 175.559 238.421H175.279C174.999 238.421 174.859 238.701 174.719 238.981C174.579 239.261 174.579 239.401 174.719 239.681C174.859 239.961 174.999 240.101 175.279 240.241L176.259 240.661C176.399 240.661 176.539 240.801 176.819 240.801C176.119 241.361 175.559 242.061 174.859 242.621C174.299 241.361 173.179 240.381 171.779 240.101C175.699 237.021 179.619 233.941 183.679 231.141C187.459 228.621 191.519 226.241 195.159 223.581C195.299 223.581 195.299 223.721 195.439 223.721C195.859 224.841 196.279 225.821 196.839 226.941C196.279 226.801 195.859 226.941 195.439 226.941ZM226.939 212.381C226.659 214.201 225.679 215.741 224.279 216.861C223.439 216.721 222.459 217.141 222.179 218.121C222.179 218.121 222.179 218.261 222.039 218.261C221.899 218.261 221.899 218.401 221.759 218.401C219.099 219.801 216.299 221.201 213.499 222.041C212.099 222.461 210.699 222.881 209.299 223.021C208.319 223.021 207.339 223.021 206.219 223.301C202.579 223.301 198.939 222.321 195.859 219.941C195.999 219.381 195.859 218.681 195.159 218.401C192.639 217.421 195.019 212.661 195.859 211.261C197.259 209.021 199.219 207.061 201.459 205.521C205.799 202.581 211.259 199.921 216.579 200.201C220.359 200.341 223.719 203.001 225.399 206.361C220.639 202.721 214.059 202.021 208.459 204.121C202.999 206.221 198.659 210.421 196.699 216.021C196.559 216.301 196.979 216.301 196.979 216.161C199.079 211.121 203.559 206.641 209.019 205.241C214.759 203.701 220.639 205.241 225.679 208.321C225.819 208.461 226.099 208.461 226.239 208.321C226.379 208.881 226.519 209.441 226.659 210.001C226.659 210.141 226.659 210.141 226.659 210.281C227.079 210.981 227.079 211.681 226.939 212.381Z" fill="#151314"/>
<path d="M257.6 165.199C252 167.859 246.54 170.939 241.08 174.159C236.46 176.959 231.98 179.899 228.48 183.959C227.5 185.219 229.18 187.039 230.3 185.779C233.66 181.719 238.28 178.919 242.9 176.259C248.22 173.179 253.26 169.959 258.16 166.319C259 165.759 258.44 164.779 257.6 165.199Z" fill="#151314"/>
<path d="M141.82 39.3401C138.88 37.8001 135.94 36.1201 133.14 34.3001C131.88 33.4601 130.48 32.6201 129.22 31.6401C128.52 31.0801 127.82 30.6601 127.12 30.1001C126.42 29.5401 125.72 29.4001 125.02 29.1201C124.74 28.9801 124.46 29.1201 124.32 29.4001C124.04 28.5601 123.9 27.7201 123.62 26.8801C123.34 26.0401 122.08 26.4601 122.36 27.1601C124.74 34.5801 124.74 42.7001 122.22 50.1201C121.94 50.9601 123.06 51.6601 123.76 50.9601C126.84 47.7401 131.46 53.0601 133.98 54.4601C134.54 54.7401 135.24 54.4601 135.38 53.9001C136.5 49.0001 138.74 44.5201 142.1 40.8801C142.52 40.4601 142.52 39.7601 141.82 39.3401ZM133.84 52.3601C132.02 51.1001 130.48 49.5601 128.38 48.8601C127.12 48.4401 125.86 48.3001 124.6 48.7201C126 42.9801 126.14 36.9601 124.88 31.2201C126.56 33.6001 129.64 35.2801 132.02 36.8201C134.54 38.3601 137.06 39.6201 139.86 40.7401C136.92 44.1001 134.96 48.0201 133.84 52.3601Z" fill="#151314"/>
<path d="M234.36 73.3604C231.98 70.0004 229.74 66.6403 227.36 63.1403C225.26 59.9203 222.88 56.8403 221.2 53.3403C220.78 52.5003 219.52 53.0603 219.8 53.9003C220.78 57.6803 223.16 60.7604 225.26 63.9804C227.36 66.9204 229.32 70.0003 231.42 72.9403C228.2 73.6403 225.82 76.1603 223.72 78.8203C222.74 76.8603 221.76 75.1803 219.94 73.7803C218.96 72.9403 217.84 72.3804 216.58 72.1003C216.44 72.1003 216.16 71.9604 215.88 71.9604C216.16 71.4004 216.58 70.4203 216.72 70.1403C219.1 64.6803 219.94 58.8003 219.1 52.9203C218.96 51.9403 217.42 52.2203 217.42 53.2003C218.12 59.5003 216.86 65.5204 213.78 70.9804C213.36 71.8204 212.94 72.6603 213.5 73.5003C214.2 74.4803 215.46 74.0603 216.58 74.3403C219.8 75.1803 221.2 78.4003 222.32 81.2003C222.74 82.0403 223.72 82.1803 224.28 81.4803C226.52 78.4003 229.04 74.9003 233.24 74.9003C234.22 75.0403 234.92 74.0604 234.36 73.3604Z" fill="#151314"/>
<path d="M40.4605 177.52C40.7405 176.54 41.0205 175.56 41.3005 174.72C41.5805 173.74 40.0405 173.32 39.7605 174.3C39.6205 174.72 39.4805 175 39.3405 175.42C38.7805 175.28 38.2205 175.56 38.3605 176.26C38.5005 176.68 38.6405 176.96 38.6405 177.38C38.6405 177.52 38.5005 177.8 38.5005 177.94C37.8005 177.8 36.9605 178.22 36.9605 179.06C36.9605 180.32 37.1005 181.44 37.1005 182.7C36.1205 186.34 35.1405 189.98 34.4405 193.62C33.1805 199.64 32.2005 205.94 32.3405 212.24C32.6205 218.82 33.7405 225.26 34.5805 231.7C35.4205 238.42 35.9805 245.28 37.2405 251.86C37.5205 253.26 39.9005 252.98 39.7605 251.58C39.7605 250.88 39.6205 250.18 39.6205 249.34C39.9005 249.34 40.1805 249.2 40.3205 248.92C41.0205 247.8 41.0205 246.26 41.0205 245C41.1605 243.46 41.1605 241.78 41.3005 240.24C41.5805 237.02 41.8605 233.8 42.1405 230.58C42.8405 224.14 43.5405 217.56 43.9605 211.12C44.8005 199.78 44.2405 188.3 40.4605 177.52ZM41.3005 211.68C40.8805 217.98 40.0405 224.28 39.3405 230.58C39.0605 233.66 38.6405 236.6 38.3605 239.68C37.1005 230.72 35.2805 221.62 34.7205 212.52C34.5805 210 34.5805 207.34 34.8605 204.82H35.0005C35.0005 206.08 35.0005 207.34 36.1205 207.9C37.6605 208.74 39.7605 208.6 41.4405 208.32C41.4405 208.32 41.4405 208.32 41.5805 208.32C41.4405 209.58 41.4405 210.7 41.3005 211.68Z" fill="#151314"/>
<path d="M41.3 161.84C41.3 161.56 41.16 161.28 41.02 161C40.88 160.58 40.74 160.3 40.46 160.02C40.04 159.6 39.48 159.88 39.34 160.3C39.2 160.58 39.2 160.86 39.2 161.28C39.2 161.56 39.2 161.84 39.2 162.12C39.2 162.4 39.2 162.68 39.2 162.96C39.2 163.1 39.2 163.24 39.2 163.38V163.52C39.2 163.52 39.2 163.52 39.2 163.66C39.2 163.94 39.06 164.08 39.06 164.36C38.92 164.08 38.78 163.94 38.64 163.66C38.08 162.68 37.52 161.7 37.1 160.58C36.82 159.88 35.84 159.74 35.28 160.16C35.14 160.16 35.14 160.3 35 160.44C34.72 160.58 34.58 160.72 34.58 161C34.44 162.12 34.3 163.24 34.16 164.5C34.16 165.06 34.02 165.62 34.02 166.18C34.02 166.74 33.74 167.44 34.02 168C34.16 168.28 34.58 168.42 34.86 168.14C35.28 167.72 35.28 166.88 35.28 166.32C35.28 165.76 35.42 165.2 35.42 164.64C35.42 164.36 35.42 164.08 35.56 163.8C36.4 165.34 37.24 166.88 38.36 168.28C38.64 168.7 39.06 168.98 39.62 168.98C40.04 168.98 40.6 168.7 40.88 168.28C41.44 167.02 41.86 165.62 41.86 164.22C41.44 163.24 41.44 162.54 41.3 161.84Z" fill="#151314"/>
<path d="M42.2806 267.261C42.1406 266.421 41.4406 265.861 40.8806 265.441C40.3206 264.881 39.6206 264.461 38.9206 263.901C37.8006 263.061 36.5406 262.641 35.2806 261.941C35.2806 261.941 35.4206 261.941 35.4206 261.801C35.5606 261.801 35.5606 261.661 35.7006 261.661C35.8406 261.521 35.9806 261.521 36.1206 261.381C35.8406 261.521 36.2606 261.241 36.4006 261.241C37.1006 260.961 37.6606 260.261 37.3806 259.421C37.2406 258.721 36.2606 258.161 35.5606 258.441C34.1606 258.861 32.7606 259.701 32.3406 261.101C31.7806 262.641 32.9006 264.181 34.3006 264.881C35.5606 265.441 36.8206 266.141 37.9406 266.981C38.0806 267.121 37.9406 266.981 38.2206 267.121C38.3606 267.261 38.5006 267.401 38.6406 267.401L38.7806 267.541C38.0806 267.681 37.3806 267.821 36.6806 267.961C36.1206 268.101 35.5606 268.101 35.1406 268.381C34.7206 268.661 34.4406 268.941 34.0206 269.221C33.7406 269.501 33.7406 270.201 34.1606 270.341C34.4406 270.481 34.8606 270.621 35.1406 270.761C35.7006 270.901 36.2606 270.901 36.8206 270.761C37.6606 270.621 38.5006 270.481 39.3406 270.341C40.0406 270.201 40.7406 270.061 41.3006 269.781C42.0006 269.221 42.5606 268.241 42.2806 267.261Z" fill="#151314"/>
<path d="M78.4007 209.3C78.2607 209.16 77.9807 209.16 77.8407 209.16C77.7007 209.16 77.7007 209.16 77.5607 209.16H76.8607C76.4407 209.16 76.0207 209.3 75.6007 209.3C75.3207 209.3 75.1807 209.44 75.0407 209.58C74.9007 209.72 74.7607 210 74.7607 210.28C74.7607 210.56 74.9007 210.7 75.0407 210.84C75.3207 210.98 75.4607 210.98 75.7407 210.98C76.1607 210.84 76.5807 210.84 77.0007 210.7L77.7007 210.56C77.8407 210.56 77.8407 210.56 77.9807 210.56C78.1207 210.56 78.4007 210.42 78.5407 210.28C78.8207 210 78.8207 209.58 78.4007 209.3Z" fill="#151314"/>
<path d="M76.3001 205.66C75.8801 205.52 75.4601 205.38 75.0401 205.38C74.9001 205.24 74.9001 205.24 74.7601 205.24C74.2001 204.96 73.7801 204.82 73.0801 204.82C72.6601 204.82 72.3801 204.96 72.1001 204.96C72.1001 204.82 72.1001 204.82 71.9601 204.68C71.9601 204.54 71.8201 204.54 71.8201 204.4C71.8201 203.56 71.8201 202.72 71.9601 201.88C71.9601 201.32 71.4001 200.76 70.8401 200.76C70.1401 200.76 69.7201 201.32 69.7201 201.88C69.5801 203.7 69.5801 205.38 69.5801 207.2C69.5801 208.04 69.7201 209.02 69.7201 209.86C69.7201 210.7 69.8601 211.68 70.1401 212.52C70.4201 213.22 71.2601 213.5 71.8201 212.94C72.2401 212.52 73.0801 212.38 73.6401 212.24C74.0601 212.24 74.3401 212.24 74.6201 212.1C74.9001 212.1 75.1801 212.1 75.4601 211.82C75.6001 211.82 75.6001 211.54 75.6001 211.54C75.3201 210.84 74.2001 210.7 73.5001 210.7C73.0801 210.7 72.6601 210.7 72.1001 210.84C72.1001 210.42 71.9601 210 71.9601 209.58C72.1001 209.58 72.2401 209.72 72.2401 209.72C72.3801 209.72 72.5201 209.58 72.6601 209.44C72.8001 209.02 72.8001 208.6 72.6601 208.18C72.6601 207.76 72.5201 207.34 72.5201 206.92C72.5201 206.78 72.5201 206.64 72.3801 206.64H72.5201C72.6601 206.64 72.8001 206.5 72.9401 206.5C73.0801 206.5 73.3601 206.5 73.5001 206.5C73.6401 206.5 73.7801 206.5 73.7801 206.5H73.9201C74.0601 206.5 74.2001 206.64 74.3401 206.64C74.6201 206.64 74.9001 206.5 74.9001 206.22C74.9001 206.22 74.9001 206.22 74.9001 206.08L75.8801 206.22C76.0201 206.22 76.1601 206.22 76.1601 206.08C76.5801 205.8 76.4401 205.66 76.3001 205.66Z" fill="#151314"/>
<path d="M73.2202 202.02C73.5002 201.88 73.9202 201.74 74.3402 201.74C74.3402 201.74 74.3402 201.74 74.4802 201.74C74.6202 201.74 74.6202 201.74 74.7602 201.74C74.9002 201.74 75.1802 201.74 75.3202 201.74C75.4602 201.74 75.6002 201.74 75.8802 201.74C75.8802 201.74 75.8802 201.74 76.0202 201.74C76.1602 201.74 76.3002 201.74 76.4402 201.88C76.8602 201.88 77.5602 201.46 77.5602 200.9C77.5602 200.76 77.4202 200.62 77.2802 200.48C77.1402 200.2 76.8602 200.06 76.4402 200.06C76.0202 199.92 75.6002 199.92 75.1802 199.92C74.3402 199.92 73.5002 200.06 72.8002 200.2C72.3802 200.34 71.9602 200.9 72.1002 201.32C72.2402 201.88 72.8002 202.16 73.2202 202.02Z" fill="#151314"/>
<path d="M17.2202 200.479C17.0802 200.199 16.8002 199.919 16.5202 199.919C15.6802 199.919 15.1202 200.619 14.4202 201.179C13.8602 201.739 13.4402 202.299 12.8802 202.859C12.8802 202.999 12.7402 202.999 12.6002 203.139C12.6002 203.139 12.6002 203.139 12.6002 202.999C12.0402 201.739 10.6402 200.759 9.10017 200.759C8.54017 200.759 7.98017 200.899 7.42017 201.179C7.14017 200.759 6.86017 200.339 6.58017 199.919C5.60017 198.239 3.08017 199.779 4.06017 201.459C4.62017 202.579 5.18017 203.699 5.88017 204.819C6.58017 205.939 8.54017 205.799 8.82017 204.399C8.82017 204.259 8.82017 204.259 8.82017 204.259H8.96017C8.96017 204.259 8.96017 204.259 9.10017 204.259L9.24017 204.399C9.24017 204.399 9.24017 204.399 9.24017 204.539V204.679C9.24017 204.959 9.38017 205.099 9.38017 205.379C9.66017 206.219 10.3602 207.059 11.3402 207.199C13.1602 207.479 14.1402 206.079 14.9802 204.679C15.4002 204.119 15.8202 203.419 16.1002 202.859C16.9402 202.159 17.5002 201.319 17.2202 200.479Z" fill="#151314"/>
</svg>
