<svg width="280" height="280" viewBox="0 0 280 280" fill="none" xmlns="http://www.w3.org/2000/svg">
<path d="M104.72 158.76C102.9 159.6 104.44 162.26 106.26 161.42C107.38 161 108.5 160.72 109.62 160.44C110.46 160.16 111.58 159.74 112 158.9C112.14 158.76 112.14 158.48 112 158.34C110.32 156.1 106.54 157.92 104.72 158.76Z" fill="#151314"/>
<path d="M97.8597 143.92C100.24 141.82 103.18 139.72 106.4 139.02C109.2 138.46 111.58 139.72 114.38 139.72C115.22 139.72 115.64 138.88 115.22 138.18C111.72 132.02 101.5 136.36 97.2997 139.44C90.9997 144.2 85.8197 151.2 86.2397 159.32C86.3797 160.58 87.3597 161.14 88.3397 161C88.0597 161.14 87.9197 161.42 87.9197 161.84C87.6397 163.8 87.7797 165.48 88.1997 167.3C84.1397 166.32 80.0797 168.28 79.7997 173.46C79.5197 178.64 86.0997 185.22 91.2797 184.24C91.8397 184.1 91.8397 183.54 91.5597 183.12C90.0197 181.3 87.7797 181.16 85.9597 179.9C84.1397 178.64 81.6197 176.12 82.0397 173.6C82.5997 169.82 86.0997 168.42 89.5997 170.8C90.4397 171.36 91.9797 170.38 91.5597 169.4C90.5797 167.02 90.1597 164.64 90.4397 162.12C90.4397 161.28 89.8797 161 89.3197 161C89.5997 160.86 89.8797 160.44 90.0197 160.02C90.2997 160.72 90.8597 161.14 91.8397 160.86C100.24 158.06 111.58 153.86 114.8 144.76C115.22 143.5 113.26 142.24 112.42 143.36C109.62 146.72 107.38 149.8 103.74 152.18C99.8197 154.7 95.4797 156.38 90.9997 157.92C90.5797 158.06 90.2997 158.34 90.0197 158.76C90.0197 152.6 93.5197 147.7 97.8597 143.92Z" fill="#151314"/>
<path d="M134.819 175.001C135.519 175.281 136.079 175.841 136.639 176.401C137.339 177.101 138.879 176.681 138.739 175.561C138.599 174.581 138.459 173.461 137.759 172.761C137.059 172.061 136.079 171.501 135.099 171.501C133.139 171.361 131.179 172.901 131.319 175.001C131.459 175.981 132.019 176.821 133.139 176.821C133.839 176.681 134.679 175.841 134.819 175.001Z" fill="#151314"/>
<path d="M175.98 180.741C177.1 183.121 177.94 185.641 179.06 188.021C179.2 188.301 179.62 188.161 179.62 187.741C179.2 185.081 178.08 182.561 177.1 180.041C176.68 179.481 175.7 180.041 175.98 180.741Z" fill="#151314"/>
<path d="M179.341 176.54C179.621 179.62 180.041 184.1 182.701 186.06C182.981 186.34 183.681 186.2 183.681 185.64C183.541 184.1 182.981 182.98 182.561 181.58C182.001 179.9 181.721 178.22 181.581 176.54C181.301 175.14 179.341 175.14 179.341 176.54Z" fill="#151314"/>
<path d="M189.841 179.201C190.261 180.181 190.541 181.441 191.381 182.281C191.521 182.421 191.801 182.281 191.801 182.141C191.801 181.021 191.241 180.041 190.821 178.921C190.681 178.221 189.561 178.501 189.841 179.201Z" fill="#151314"/>
<path d="M164.362 143.92C165.202 142.1 166.322 140.42 168.002 139.3C169.962 138.04 171.782 138.32 173.882 138.74C174.582 138.88 175.142 138.04 174.582 137.48C172.762 135.94 169.962 136.36 168.002 137.48C165.762 138.74 164.362 140.98 163.382 143.36C163.102 144.06 164.082 144.48 164.362 143.92Z" fill="#151314"/>
<path d="M116.481 131.461C125.721 132.161 137.201 127.961 141.261 119.001C141.401 118.721 140.981 118.301 140.701 118.581C134.261 125.441 127.541 130.761 117.461 130.201C107.521 129.641 98.9814 124.041 93.1014 116.201C92.6814 115.641 91.5614 116.201 92.1214 116.761C98.0014 124.601 106.401 130.621 116.481 131.461Z" fill="#151314"/>
<path d="M200.062 173.18C190.262 175.98 177.662 171.36 170.242 164.64C163.522 158.48 160.022 149.8 158.062 141.12C158.342 140 158.622 138.74 158.762 137.48C159.602 136.92 160.302 136.22 160.862 135.24C161.562 134.26 160.862 133 159.742 132.58C159.602 132.58 159.462 132.44 159.322 132.44C159.042 132.3 158.622 132.44 158.342 132.72C158.062 133 157.642 133.42 157.222 133.7C156.802 133.7 156.382 133.84 156.242 134.4C149.242 138.46 138.462 133.28 131.322 131.74C125.302 130.48 119.842 132.02 115.502 136.5C114.522 137.48 116.062 138.88 117.042 138.04C125.582 129.78 135.802 137.62 145.742 138.74C148.262 139.02 151.342 139.58 154.282 139.16C151.762 145.46 149.662 151.2 140.702 151.06C132.862 150.92 125.722 146.86 119.002 143.22C117.882 142.52 116.902 144.34 118.022 145.04C125.862 150.08 135.942 156.38 145.742 154.28C146.302 154.14 146.862 154 147.282 153.86C146.302 170.24 147.562 190.12 132.862 200.9C117.742 211.96 97.7217 199.92 91.2817 184.8C91.0017 184.24 90.0217 184.66 90.3017 185.22C93.9417 194.46 102.342 202.72 112.142 205.8C111.582 205.94 111.022 206.36 111.162 207.06C111.442 209.58 111.302 211.54 110.882 214.06C110.742 215.46 110.882 216.72 111.442 217.98C112.562 220.08 115.642 222.74 118.302 222.32C120.682 222.04 122.082 219.52 122.502 217.42C122.782 215.88 122.642 214.2 122.502 212.66C122.222 210.7 122.362 208.6 121.382 206.78C123.902 206.64 126.282 206.08 128.802 205.1C137.062 201.74 142.242 194.74 145.182 186.48C145.322 186.62 145.322 186.76 145.462 186.9C146.022 187.46 146.862 187.46 147.562 187.18C151.622 185.22 155.402 180.88 154.982 176.12C154.702 172.76 151.342 170.38 148.402 171.78C149.242 165.2 149.242 158.48 148.822 152.74C151.622 151.34 153.862 149.1 155.542 146.3C156.242 154.84 157.782 163.24 160.442 171.36C162.962 179.06 166.462 189.14 172.762 194.32C173.322 194.74 174.302 194.32 174.022 193.62C173.882 193.06 173.602 192.64 173.462 192.08C173.742 192.5 174.022 193.06 174.302 193.48C174.442 193.62 174.582 193.76 174.722 193.9C173.602 194.74 172.622 195.72 171.502 196.7C170.522 197.68 171.922 199.08 172.902 198.1C176.822 194.46 181.442 192.08 186.202 189.84C190.682 187.74 196.142 185.92 199.782 182.56C200.342 182 199.782 181.3 199.082 181.44C193.762 182.28 188.302 185.92 183.402 188.44C181.022 189.7 178.642 190.96 176.542 192.5C174.442 183.54 170.522 175.14 168.422 166.18C168.422 166.04 168.282 165.9 168.282 165.76C169.122 166.6 170.102 167.44 171.082 168.14C178.502 173.74 191.522 179.34 200.342 174.3C201.322 174.16 200.902 172.9 200.062 173.18ZM116.902 218.96C116.062 218.68 114.942 217.42 114.522 216.72C113.682 215.32 114.102 214.06 114.242 212.52C114.382 210.42 114.242 208.6 113.822 206.5C113.822 206.36 113.682 206.22 113.682 206.08C115.642 206.64 117.742 206.92 119.842 206.92C119.842 206.92 119.842 206.92 119.842 207.06C119.142 209.02 121.942 220.78 116.902 218.96ZM149.382 174.58C151.202 173.04 152.322 175.84 152.322 177.1C152.322 178.22 151.762 179.34 151.202 180.32C150.082 182.28 148.402 183.54 146.302 184.24C146.162 184.24 146.022 184.38 146.022 184.38C147.002 181.3 147.702 178.08 148.262 174.72C148.542 175 148.962 174.86 149.382 174.58ZM170.802 185.64C168.282 180.74 165.342 175.98 163.382 170.94C160.162 162.54 158.202 153.72 157.222 144.76C159.182 152.6 162.542 160.16 168.282 165.76C167.442 165.2 165.902 165.9 166.182 167.16C167.442 173.18 168.702 179.62 170.802 185.64Z" fill="#151314"/>
<path d="M202.86 180.741C202.44 178.921 201.74 177.381 200.9 175.701C200.48 175.001 199.5 175.561 199.92 176.261C200.76 177.801 201.32 179.341 201.74 181.021C202.02 182.281 201.88 183.821 202.72 184.941C202.86 185.081 203.14 185.221 203.28 184.941C203.7 183.681 203.14 182.001 202.86 180.741Z" fill="#151314"/>
<path d="M111.3 172.341C109.2 169.121 103.32 168.701 102.2 173.041C101.64 175.281 105.28 176.261 105.7 174.021C106.12 172.341 108.92 174.721 109.62 175.001C111.72 175.561 112.28 173.741 111.3 172.341Z" fill="#151314"/>
<path d="M141.82 161.421C140.7 161.001 139.58 160.581 138.46 160.161C136.36 159.461 135.24 162.961 137.48 163.521C138.6 163.801 139.72 164.221 140.98 164.501C141.82 164.781 142.8 164.22 142.94 163.38C143.22 162.54 142.66 161.701 141.82 161.421Z" fill="#151314"/>
<path d="M124.46 177.94C123.76 176.4 121.24 175.98 120.12 177.38C119.7 177.94 119.56 178.78 120.12 179.34C119.84 179.76 119.7 180.46 119.98 181.02C120.26 181.58 120.96 182 121.66 182C122.5 182 123.06 181.44 123.48 180.88C123.62 180.6 123.76 180.32 123.9 180.04C123.76 180.18 123.9 180.18 123.9 180.04C124.46 179.34 124.74 178.64 124.46 177.94Z" fill="#151314"/>
<path d="M130.339 184.661C129.079 183.261 125.159 183.121 123.479 182.981C120.539 182.561 117.739 182.561 114.799 182.701C113.819 182.701 113.679 184.381 114.799 184.381C118.579 184.381 122.219 184.661 125.859 185.641C126.419 185.781 127.819 185.921 128.239 186.341C128.939 186.901 128.659 186.901 128.099 188.021C127.259 189.701 125.999 191.101 124.739 192.361C123.759 193.341 122.219 195.161 120.959 195.721C120.679 195.861 120.399 196.141 120.119 196.281C119.279 195.861 118.579 195.301 117.739 194.881C117.319 194.461 117.179 193.201 116.899 192.641C116.059 189.981 115.639 186.341 113.539 184.381C113.119 184.101 112.699 184.241 112.559 184.661C111.719 187.181 112.979 189.841 113.959 192.221C114.659 194.041 115.359 196.701 116.899 197.961C120.119 200.341 124.459 195.441 126.419 193.341C127.679 191.381 132.579 187.041 130.339 184.661Z" fill="#151314"/>
<path d="M185.921 246.4C183.821 238.7 180.041 231.42 177.801 223.72C175.421 215.32 173.741 206.5 172.901 197.96C172.761 196.84 171.221 196.84 171.221 197.96C171.221 198.38 171.221 198.66 171.221 199.08C170.661 199.08 170.101 199.22 169.821 200.06C169.401 201.88 168.281 203.42 166.741 204.4C166.601 204.4 166.601 204.54 166.461 204.54C165.901 197.82 165.621 191.1 165.621 184.38C165.621 183.54 164.221 183.54 164.221 184.38C163.801 200.2 163.241 219.52 168.701 234.78C167.581 236.32 166.881 238.56 166.601 239.96C166.601 240.1 166.601 240.24 166.601 240.38C163.241 239.96 159.461 241.22 156.241 242.9C155.261 235.76 152.461 228.9 148.681 222.74C148.541 222.6 148.541 222.46 148.401 222.46C148.541 222.04 148.401 221.62 148.121 221.34C141.821 215.32 133.141 213.36 124.741 213.64C123.761 213.64 123.761 215.18 124.741 215.18C130.901 215.04 138.181 216.58 143.081 220.64C147.141 224.14 144.901 228.06 144.341 232.96C143.221 241.92 143.361 252.56 147.141 260.96C147.281 261.24 147.701 261.1 147.561 260.82C146.021 248.64 143.501 237.3 147.281 225.4C150.641 231.28 152.601 237.44 153.721 244.02C153.721 244.16 153.721 244.16 153.861 244.16C153.721 244.3 153.441 244.44 153.301 244.58C152.461 245 153.161 246.26 154.001 245.84C156.101 244.58 158.481 243.6 160.861 242.9C163.101 242.34 165.341 242.34 167.441 241.78C167.721 241.64 167.861 241.36 167.861 241.08C168.001 240.94 168.281 240.8 168.281 240.52C168.421 239.68 168.841 238.14 169.401 237.02V237.16C169.681 237.72 170.521 237.72 170.521 237.02C170.521 236.6 170.521 236.18 170.521 235.76C171.781 235.06 171.081 236.6 171.221 237.58C171.361 238.42 172.061 238.84 172.761 238.42C173.601 238 174.301 238 175.001 238C174.861 238.28 174.861 238.42 174.721 238.7C174.161 239.4 174.441 240.52 175.421 240.52C178.361 240.38 174.581 242.76 174.021 243.04C173.461 243.46 173.321 244.16 173.741 244.72C173.741 244.72 173.741 244.72 173.741 244.86C172.481 245.7 171.081 245.98 169.681 246.4C169.121 246.54 168.841 247.1 168.981 247.66C168.841 247.66 168.701 247.66 168.701 247.8C166.741 249.06 165.061 250.74 163.101 251.86C161.001 253.26 158.621 254.24 156.241 255.08C155.401 255.36 155.681 256.76 156.661 256.48C161.141 254.94 166.741 252.56 169.681 248.64C169.681 248.5 169.821 248.5 169.821 248.36C169.961 248.36 169.961 248.36 170.101 248.36C172.341 248.36 174.161 247.24 175.841 245.84C176.261 245.42 176.401 245 176.261 244.44C176.261 244.3 176.121 244.3 176.121 244.16C177.381 243.32 178.921 242.06 178.921 240.66C178.921 239.54 178.221 238.98 177.241 238.56C177.381 238.28 177.521 237.86 177.661 237.58C177.801 237.02 177.521 236.46 176.961 236.32C175.701 235.9 174.581 235.9 173.461 236.18C173.601 234.64 173.601 233.1 171.501 233.24C171.221 233.24 170.941 233.38 170.521 233.52C170.241 230.16 169.681 226.94 169.121 223.58C169.261 223.72 169.541 223.86 169.821 224C170.801 224.28 171.921 224.42 172.901 224.28C173.321 224.28 173.741 224.14 174.021 224C176.121 232.68 179.481 240.94 184.801 247.24C185.221 247.38 186.061 246.96 185.921 246.4ZM172.341 219.94C172.621 219.94 172.201 219.94 172.061 219.94C171.921 219.94 171.641 219.94 171.501 219.94C171.081 219.94 170.661 219.94 170.241 219.94C169.681 219.94 169.261 220.08 168.841 220.5C168.701 220.64 168.701 220.64 168.561 220.78C168.001 217.42 167.441 214.06 167.021 210.7C166.881 209.72 166.881 208.88 166.741 207.9C166.881 207.9 167.021 207.76 167.161 207.76C168.841 206.78 170.241 205.38 171.221 203.84C171.501 209.02 172.061 214.48 173.041 219.94C172.901 219.8 172.621 219.8 172.341 219.94Z" fill="#151314"/>
<path d="M53.8993 248.78C53.4793 252.28 53.3393 255.78 54.7393 259C54.8793 259.42 55.7193 259.28 55.8593 258.86C56.5593 255.5 56.2793 252.14 56.5593 248.78C56.8393 247.1 54.0393 247.1 53.8993 248.78Z" fill="#151314"/>
<path d="M108.501 214.48C106.961 215.18 105.421 215.74 103.881 216.44C104.161 217.42 104.161 218.54 103.881 219.52C105.701 218.82 107.521 217.98 109.201 217.28C111.021 216.72 110.181 213.78 108.501 214.48Z" fill="#151314"/>
<path d="M88.4803 226.8C88.4803 226.8 88.6203 226.8 88.6203 226.66C87.9203 226.24 87.2203 225.54 86.8003 224.98C86.3803 225.26 85.9603 225.4 85.5403 225.68C84.9803 225.96 84.8403 226.94 85.2603 227.5C83.4403 230.86 81.6203 234.08 79.6603 237.3C78.1203 240.1 76.1603 242.9 74.9003 245.84C73.9203 245 72.6603 244.44 71.6803 244.02C69.4403 243.04 67.0603 242.48 64.6803 242.2C64.4003 242.2 64.1203 242.34 63.8403 242.48C63.9803 240.52 63.2803 238.7 62.4403 236.88C62.3003 236.46 61.6003 236.46 61.3203 236.74C59.9203 238.56 58.1003 234.78 56.7003 234.64C55.8603 234.64 54.6003 236.32 53.9003 235.34C53.4803 234.78 52.5003 234.78 52.3603 235.48C52.0803 236.74 52.0803 238.14 52.2203 239.4C51.9403 239.26 51.6603 239.26 51.3803 239.4C50.4003 239.68 49.8403 240.8 49.9803 241.78C50.5403 244.58 54.6003 246.96 56.9803 248.08C57.2603 248.22 57.5403 248.22 57.8203 248.22C57.8203 248.36 57.8203 248.36 57.9603 248.5C61.8803 253.96 68.8803 259.7 76.1603 258.72C83.3003 257.74 89.6003 248.92 91.8403 242.76C92.2603 241.64 90.5803 241.22 90.1603 242.34C88.2003 247.1 82.7403 255.22 77.2803 256.76C70.8403 258.44 63.2803 252.14 59.9203 247.52C59.7803 247.24 59.5003 247.1 59.2203 247.1C59.2203 246.68 59.0803 246.12 58.5203 245.84C57.5403 245.28 56.5603 244.72 55.5803 244.02C55.3003 243.74 54.8803 243.32 54.6003 242.9H54.7403C55.8603 242.48 56.1403 241.36 55.4403 240.38C54.7403 239.54 54.4603 238.7 54.3203 237.72C54.6003 237.86 54.8803 237.86 55.3003 237.86C56.2803 237.72 56.7003 236.46 57.2603 236.6C57.5403 236.6 58.5203 238 58.8003 238.28C59.2203 238.56 59.6403 238.84 60.2003 238.84C60.7603 238.98 61.3203 238.84 61.7403 238.56C62.3003 240.1 62.4403 241.5 62.5803 243.04C62.5803 243.46 63.1403 243.6 63.5603 243.46C63.5603 244.02 63.8403 244.58 64.4003 244.72C66.7803 245 69.0203 245.7 71.1203 246.68C72.6603 247.52 74.3403 248.78 76.1603 249.06C76.5803 249.06 76.8603 248.64 76.7203 248.22C76.5803 247.66 76.1603 247.1 75.7403 246.68C77.9803 244.16 79.5203 241.08 81.2003 238.28C83.1603 235.2 84.9803 231.98 86.9403 228.76C90.4403 232.26 92.2603 242.48 93.1003 246.4C94.3603 251.58 94.6403 257.04 96.0403 262.22C96.3203 263.06 97.4403 262.92 97.5803 262.08C97.8603 254.66 95.9003 246.82 93.9403 239.82C92.5403 235.62 91.7003 229.74 88.4803 226.8Z" fill="#151314"/>
<path d="M165.199 125.02C164.359 125.3 163.939 126 163.379 126.56C162.819 127.12 162.259 127.82 161.699 128.38C160.859 129.36 162.259 130.76 163.099 129.78C163.659 129.08 164.219 128.52 164.779 127.82C165.339 127.26 165.899 126.7 166.179 125.86C166.319 125.58 165.759 124.88 165.199 125.02Z" fill="#151314"/>
<path d="M180.179 89.0403C160.859 91.4204 147.279 114.52 153.579 133.14C153.859 133.84 154.839 133.7 154.839 133C154.979 131.18 154.98 129.36 155.12 127.68C155.12 127.96 155.259 128.24 155.259 128.52C155.399 128.94 155.959 129.08 156.099 128.66C158.339 123.2 158.899 117.46 161.699 112.14C165.059 105.98 169.959 100.66 175.839 96.7404C176.679 96.1804 175.979 94.6404 174.999 95.2004C167.019 100.24 157.499 110.32 155.259 120.82C155.539 115.5 156.519 110.46 159.599 105.42C164.219 97.8604 171.639 92.5403 180.459 91.1403C181.579 90.8603 181.299 88.9003 180.179 89.0403Z" fill="#151314"/>
<path d="M72.9398 70.5595C73.0798 70.6995 72.9398 70.4195 72.7998 70.2795C72.6598 69.9995 72.5198 69.9995 72.3798 69.7195C72.2398 69.5795 72.0998 69.4395 71.9598 69.1595V69.0195C73.9198 68.4595 72.9398 65.2395 70.9798 65.7995C69.4398 66.3595 68.4598 67.8995 68.8798 69.5795C69.0198 70.4195 69.4398 70.9795 70.1398 71.5395C70.4198 71.8195 70.6998 71.9595 70.9798 72.0995C71.3998 72.3795 71.8198 72.0995 72.2398 72.2395C73.2198 72.3795 73.9198 71.2595 72.9398 70.5595Z" fill="#151314"/>
<path d="M74.3406 61.3197C70.4206 57.3997 64.9606 62.4397 64.2606 66.6397C63.4206 70.8397 67.2006 77.9797 72.3806 76.1597C72.9406 76.0197 72.9406 75.3197 72.5206 75.0397C70.1406 73.3597 67.3406 72.5197 66.9206 69.1597C66.7806 67.6197 67.0606 66.2197 67.9006 64.9597C68.8806 63.5597 71.1206 61.5997 72.8006 62.9997C73.7806 63.9797 75.4606 62.4397 74.3406 61.3197Z" fill="#151314"/>
<path d="M98.4195 67.4807C98.9795 66.3607 99.9595 65.5207 101.219 65.3807C102.479 65.3807 103.459 66.2207 104.579 66.0807C105.419 65.9407 105.979 65.3807 105.839 64.5407C105.559 62.3007 102.339 61.8807 100.519 62.1607C98.2795 62.4407 96.4595 63.8407 95.4795 65.8007C94.4995 67.7607 97.4395 69.4407 98.4195 67.4807Z" fill="#151314"/>
<path d="M131.739 66.22C134.119 63.98 136.639 69.16 138.319 70C138.879 70.28 139.719 70.14 139.719 69.44C140.419 64.54 133.139 59.92 129.639 64.26C128.519 65.52 130.339 67.62 131.739 66.22Z" fill="#151314"/>
<path d="M117.6 75.1808C117.18 74.9008 116.62 74.7608 116.2 74.6208C115.08 74.4808 114.1 74.6208 113.12 75.1808C111.86 75.8808 112.98 77.8408 114.24 77.1408C114.8 76.8608 115.22 76.7208 115.78 76.8608C116.06 76.8608 116.34 77.1408 116.62 77.1408C116.76 77.2808 117.04 77.1408 117.18 77.2808C117.18 77.2808 117.18 77.2808 117.32 77.2808C117.32 77.2808 117.32 77.2808 117.46 77.2808C118.16 77.5608 118.72 77.0008 118.44 76.3008C118.44 76.1608 118.3 76.0208 118.3 75.8808C118.3 76.1608 118.3 76.1608 118.3 75.7408C118.02 75.4608 117.88 75.3208 117.6 75.1808Z" fill="#151314"/>
<path d="M114.379 137.201C113.119 137.621 111.859 138.181 110.599 138.741C110.039 137.901 109.199 137.341 108.079 137.341C105.699 137.481 101.359 139.021 99.8195 141.541C95.0595 144.061 90.4395 150.641 88.6195 154.001C87.9195 155.261 88.0595 156.241 88.6195 157.081C88.8995 158.201 90.0195 159.041 91.2795 158.901C93.2395 158.621 95.0595 158.201 96.7395 157.501C99.6795 156.521 102.199 154.981 104.159 153.021C106.119 151.341 107.659 149.521 109.199 147.281C109.339 147.281 109.619 147.141 109.759 147.001C111.859 145.881 113.959 144.761 115.919 143.501C116.479 143.221 116.759 142.801 117.039 142.381C119.279 140.561 117.739 136.081 114.379 137.201Z" fill="#151314"/>
<path d="M115.499 234.361C113.119 230.441 110.459 224.281 106.679 221.481C106.819 221.341 106.819 221.341 106.819 221.201C110.319 212.381 101.079 201.881 96.4594 195.301C95.8994 194.461 94.4994 195.161 94.9194 196.141C97.1594 200.201 99.6794 204.121 101.919 208.181C104.019 212.241 103.459 216.861 105.419 220.781C104.719 220.641 104.159 221.341 104.299 221.901C105.139 226.101 109.339 230.441 112.419 233.941C111.579 233.941 110.739 233.801 109.899 233.381C109.479 233.241 108.919 233.661 108.919 234.081C109.059 236.041 107.659 238.421 105.419 237.861C105.419 237.861 103.739 236.881 104.019 237.021C103.459 236.741 102.619 237.021 102.479 237.721C102.339 238.841 101.919 239.821 101.079 240.661C100.239 239.681 99.3994 238.701 98.6994 237.581C97.4394 235.761 96.5994 233.661 95.8994 231.561C95.8994 231.421 95.7594 231.421 95.7594 231.281C97.4394 230.301 99.1194 229.041 100.659 227.781C102.059 226.521 103.879 225.121 104.579 223.301C104.859 222.601 104.019 222.181 103.319 222.321C101.779 223.021 100.379 224.701 99.1194 225.821C97.5794 227.221 95.8994 228.341 94.2194 229.461C93.7994 229.741 93.6594 230.021 93.6594 230.441C92.5394 229.041 90.5794 228.201 89.3194 227.081C89.1794 226.941 89.0394 226.801 88.7594 226.661C87.9194 226.241 87.2194 225.541 86.6594 224.841C85.5394 223.721 84.5594 222.601 83.5794 221.341C81.8994 217.141 78.8194 213.641 76.4394 209.861C74.7594 207.201 72.9394 204.401 71.3994 201.601C71.6794 201.321 71.6794 200.901 71.5394 200.481C64.8194 184.661 59.4994 168.141 57.6794 150.921C55.5794 130.901 68.0394 118.441 85.6794 111.441C87.2194 110.881 86.5194 108.501 84.9794 109.061C69.8594 114.941 55.2994 125.721 54.5994 143.361C54.0394 158.201 58.0994 174.301 63.8394 188.861C61.1794 197.261 58.5194 205.661 57.1194 214.341C55.8594 221.341 54.4594 229.321 56.4194 236.321C56.6994 237.161 58.0994 237.301 58.2394 236.321C59.7794 228.621 59.3594 220.361 60.6194 212.521C61.7394 205.241 63.2794 197.961 64.6794 190.681C65.3794 192.501 66.0794 194.181 66.9194 195.861C66.7794 196.001 66.7794 196.281 66.9194 196.421C70.2794 204.961 74.0594 216.161 81.3394 222.461C83.0194 224.981 84.8394 227.361 87.0794 229.321C88.7594 230.861 91.2794 233.241 93.7994 232.541C94.0794 232.401 94.3594 232.121 94.3594 231.841V231.981C95.1994 235.341 97.0194 241.081 100.379 242.901C103.039 244.441 103.879 241.921 104.299 239.681C105.559 240.521 106.819 241.221 108.359 240.521C110.319 239.541 110.739 237.441 110.599 235.481C111.859 235.901 112.979 236.041 114.519 235.901C115.359 235.901 116.059 235.061 115.499 234.361Z" fill="#151314"/>
<path d="M168.979 77.7004C168.699 75.6004 167.719 72.9404 165.759 72.1004C164.779 71.6804 163.659 71.8204 162.959 72.3804C163.659 66.3604 164.919 60.2004 164.499 54.1804C164.919 54.0404 165.199 53.7604 165.199 53.3404C165.619 44.1004 158.619 36.8204 151.199 32.2004C140.979 25.9004 130.059 24.6404 118.439 24.7804C116.199 24.5004 113.959 24.6404 111.579 25.0604C102.199 25.4804 92.5394 26.7404 84.9794 32.7604C76.2994 39.6204 74.3394 50.2604 73.0794 60.4804C72.9394 61.6004 74.8994 62.0204 75.1794 60.7604C75.1794 60.7604 75.1794 60.7604 75.3194 60.7604C84.5594 66.0804 97.4394 61.3204 105.699 56.1404C111.719 52.3604 116.619 47.1804 119.279 41.0204C119.839 40.7404 120.399 40.4604 120.959 40.0404C127.119 46.7604 134.259 52.2204 141.959 56.9804C145.739 59.3604 151.059 63.1404 155.959 63.4204C156.239 63.5604 156.379 63.7004 156.659 63.7004C157.919 64.1204 159.319 63.7004 160.439 62.8604C160.019 65.5204 159.739 68.1804 159.459 70.8404C158.759 78.2604 159.319 84.9804 156.659 92.1204C151.619 105.56 144.339 119.28 128.379 120.12C114.799 120.82 99.6794 117.74 89.5994 108.22C80.0794 99.4004 75.7394 86.5204 76.8594 73.7804C76.9994 72.5204 75.0394 72.5204 74.7594 73.7804C73.0794 87.2204 77.5594 100.94 87.3594 110.32C98.2794 120.68 114.659 124.32 129.359 123.2C138.039 122.64 144.059 118.72 148.679 112.98C148.959 112.98 149.239 113.12 149.519 112.98C150.499 112.84 151.479 112.98 152.459 113.12C153.299 113.4 154.279 112.84 154.699 112C154.979 111.16 154.839 110.04 153.999 109.76C153.159 109.34 152.459 109.2 151.619 109.06C153.719 105.84 155.539 102.34 157.359 98.5604C158.759 95.4804 160.019 92.4004 160.859 89.3204C161.139 89.4604 161.419 89.4604 161.699 89.3204C166.459 87.5004 169.679 83.0204 168.979 77.7004ZM165.759 82.1804C164.919 84.1404 163.379 85.4004 161.559 86.2404C162.119 83.4404 162.539 80.5004 162.539 77.2804C162.539 76.5804 162.539 75.8804 162.679 75.0404C163.239 75.1804 163.799 75.1804 164.079 74.4804C165.619 71.6804 166.599 79.2404 166.599 78.6804C166.599 80.0804 166.319 81.2004 165.759 82.1804Z" fill="#151314"/>
<path d="M118.3 101.641C109.34 105.281 105.42 94.6413 104.58 87.6413C104.44 86.5213 102.62 86.3813 102.62 87.6413C102.76 94.9213 104.02 104.441 112.84 105.981C121.8 107.521 127.12 97.4413 131.04 90.8613C131.6 90.7213 132.3 90.4413 132.86 90.1613C133.42 89.8813 133.28 88.9013 132.72 88.7613C128.66 87.7813 124.18 88.0613 119.98 87.7813C115.36 87.5013 110.74 87.2213 106.12 86.9413C105 86.9413 104.72 88.7613 105.84 88.9013C110.74 89.6013 115.78 90.4413 120.68 91.0013C123.2 91.2813 125.86 91.7013 128.38 91.5613C125.58 95.2013 122.36 99.9613 118.3 101.641Z" fill="#151314"/>
<path d="M150.64 136.92C143.78 138.46 136.78 135.94 129.92 134.26C128.1 133.56 126 133.14 123.62 133C121.66 132.86 120.4 133.98 119.84 135.38C118.86 135.8 118.3 136.08 117.6 137.2C117.32 137.62 116.9 138.18 116.9 138.74C115.08 139.58 114.38 142.52 116.62 143.64C117.32 144.06 118.02 144.2 118.72 144.34C119.14 144.48 119.7 144.76 120.12 144.9C120.4 145.04 120.54 145.18 120.82 145.32C120.96 145.74 121.24 146.16 121.66 146.44C123.76 148.26 125.86 149.52 128.52 150.08C133.14 152.6 138.46 154.56 143.64 153.02C148.96 151.48 152.32 147.14 155.4 142.94C157.78 139.86 153.86 136.22 150.64 136.92Z" fill="#151314"/>
<path d="M182.56 96.0395C170.94 104.999 159.88 117.739 155.82 132.159C155.68 132.719 156.52 133.139 156.8 132.579C163.94 118.859 171.08 106.679 183.12 96.7395C183.68 96.4595 182.98 95.7595 182.56 96.0395Z" fill="#151314"/>
<path d="M204.399 98.0014C203.979 96.8814 202.299 97.4414 202.719 98.4214C204.959 105.001 208.039 113.681 213.639 118.021C214.339 118.581 215.179 117.881 214.759 117.181C213.359 114.101 210.839 111.441 209.159 108.361C207.339 105.141 205.799 101.641 204.399 98.0014Z" fill="#151314"/>
<path d="M219.239 115.22C218.259 113.12 216.719 111.3 215.599 109.48C214.339 107.52 213.219 105.56 212.239 103.46C211.819 102.76 210.839 103.32 211.259 104.02C213.219 108.08 215.319 112.7 218.399 115.92C218.819 116.48 219.519 115.78 219.239 115.22Z" fill="#151314"/>
<path d="M230.719 148.68C232.119 155.82 232.259 162.96 232.819 170.1C232.819 170.66 233.659 170.66 233.659 170.1C234.639 162.82 233.379 155.4 231.979 148.4C231.839 147.56 230.579 147.98 230.719 148.68Z" fill="#151314"/>
<path d="M227.498 155.821C228.058 160.021 227.778 164.361 228.058 168.561C228.058 169.261 229.178 169.541 229.318 168.701C230.018 164.501 229.458 159.881 228.898 155.821C228.898 154.841 227.358 154.841 227.498 155.821Z" fill="#151314"/>
<path d="M218.538 164.361C218.538 167.161 218.258 170.101 219.378 172.761C219.518 173.181 220.078 173.181 220.218 172.761C221.058 170.101 220.638 167.161 220.498 164.361C220.498 163.101 218.538 163.101 218.538 164.361Z" fill="#151314"/>
<path d="M231.838 130.201C230.718 125.861 225.118 124.041 222.738 128.381C222.178 129.501 223.858 130.481 224.418 129.361C226.378 125.721 230.018 129.081 230.018 131.881C230.018 133.841 228.898 135.661 227.638 137.061C226.098 138.741 223.858 139.721 222.598 141.681C222.318 142.241 222.738 142.801 223.298 142.661C223.578 142.661 223.998 142.521 224.278 142.381C222.738 147.841 221.198 153.441 218.118 158.341C214.898 163.381 210.138 167.021 205.798 171.081C204.958 171.921 205.658 173.041 206.498 173.181C206.498 173.321 206.498 173.461 206.498 173.461C207.198 176.401 208.598 180.321 211.538 181.441C211.958 181.581 212.238 181.161 212.238 180.741C211.958 179.201 211.258 178.361 210.558 177.101C209.858 175.701 209.298 174.301 208.878 172.761C208.738 172.481 208.598 172.201 208.318 172.061C212.518 168.141 216.998 164.221 219.938 159.321C223.018 154.141 224.278 148.261 225.678 142.521C225.818 142.241 225.538 141.961 225.398 141.821C229.458 139.721 232.818 134.261 231.838 130.201Z" fill="#151314"/>
<path d="M223.998 171.081C224.278 169.121 224.138 167.161 224.138 165.201C224.138 164.501 223.158 164.501 223.158 165.201C223.158 167.161 223.018 169.261 223.298 171.081C223.298 171.501 223.858 171.501 223.998 171.081Z" fill="#151314"/>
<path d="M187.458 178.499C187.178 177.239 185.218 177.799 185.498 179.059C185.918 180.879 186.338 184.099 188.298 184.799C188.578 184.939 188.858 184.659 188.858 184.519C189.138 183.539 188.718 182.559 188.438 181.719C188.018 180.599 187.738 179.619 187.458 178.499Z" fill="#151314"/>
<path d="M193.617 178.64C193.897 179.34 194.177 179.9 194.317 180.6C194.457 181.3 194.597 181.86 195.017 182.42C195.297 182.84 196.277 182.98 196.277 182.28C196.557 180.88 195.577 179.06 194.877 177.8C194.457 176.82 193.197 177.66 193.617 178.64Z" fill="#151314"/>
<path d="M183.816 142.941C182.976 143.361 182.276 143.921 181.716 144.761C181.016 145.881 182.696 146.861 183.536 145.741C183.816 145.321 184.236 144.901 184.796 144.621C185.356 144.341 186.056 144.481 186.476 144.061C186.756 143.781 186.756 143.221 186.476 142.941C185.776 142.381 184.656 142.661 183.816 142.941Z" fill="#151314"/>
<path d="M199.496 144.2C199.916 143.64 199.216 142.94 198.516 143.22C193.336 145.6 188.716 148.26 183.116 149.8C182.276 150.08 182.556 151.34 183.536 151.06C188.436 149.8 193.896 148.12 198.096 145.18C198.236 150.08 198.936 162.26 191.656 159.88C187.176 158.34 185.916 153.16 182.556 150.64C182.276 150.5 181.856 150.78 181.856 151.06C181.996 154 184.936 156.94 186.896 158.9C188.856 160.86 191.656 163.1 194.596 162.54C201.596 161.28 199.916 149.52 199.776 144.62C199.776 144.48 199.636 144.34 199.496 144.2Z" fill="#151314"/>
<path d="M248.496 195.159C248.076 193.759 247.656 192.359 247.376 190.959C247.376 190.819 247.236 190.679 247.236 190.679C247.656 190.679 247.936 190.399 247.936 190.119C248.076 188.439 247.096 187.459 246.116 186.199C245.556 185.359 244.856 184.659 244.156 183.959C244.296 183.959 244.296 183.959 244.436 183.819C254.796 177.519 246.396 163.799 241.216 157.359C240.796 156.939 240.376 156.939 239.956 157.219C239.536 149.659 237.856 141.819 236.456 134.679C234.776 125.579 232.396 116.339 228.336 107.939C220.076 90.9993 205.096 84.4193 186.756 87.2193C186.056 87.3593 186.196 88.6193 186.896 88.6193C195.996 87.7793 205.656 88.6193 213.496 93.7993C220.916 98.6993 225.676 106.819 229.036 114.799C232.116 122.499 234.496 130.619 236.176 138.739C237.576 145.879 237.576 153.299 238.556 160.579C238.416 160.719 238.276 160.859 238.276 161.139C238.276 161.419 238.276 161.699 238.276 161.979C237.856 154.699 235.756 147.139 233.656 140.279C233.516 139.719 232.536 139.859 232.676 140.559C234.916 148.399 235.756 156.379 237.716 164.359C237.716 164.639 237.996 164.639 238.136 164.499C237.996 166.319 237.716 168.139 236.596 169.119C234.636 171.079 230.016 172.059 227.496 172.899C222.596 174.579 217.416 175.279 212.376 176.819C211.536 177.099 211.676 178.359 212.516 178.359C217.556 178.219 222.736 176.819 227.776 175.139C227.636 175.419 227.636 175.699 227.776 175.979C225.956 175.979 224.136 176.539 222.316 177.099C220.216 177.659 217.976 178.079 215.736 178.499C215.176 178.639 214.756 178.919 214.616 179.479C214.616 179.339 214.476 179.199 214.476 179.199C214.196 178.919 213.776 179.059 213.496 179.199C212.516 180.039 212.656 180.739 212.236 181.999C211.816 183.679 210.976 185.499 209.716 186.619C206.216 189.839 201.736 187.879 201.876 183.119C202.016 181.439 199.496 181.579 199.356 183.119C198.936 188.299 203.136 192.359 208.316 190.679C210.836 189.979 212.656 187.879 213.776 185.499C214.336 184.239 215.036 182.559 215.036 181.159L215.176 181.299C216.156 181.999 217.136 182.839 218.116 183.539C218.256 183.539 218.256 183.679 218.396 183.679C215.036 185.639 210.276 189.279 212.796 193.199C212.936 193.479 213.216 193.759 213.496 193.899C207.896 196.279 202.576 199.219 196.696 201.039C189.836 203.279 182.836 204.959 175.696 205.939C174.856 206.079 174.996 207.619 175.836 207.479C188.716 205.939 204.116 202.439 215.036 194.739C216.436 195.299 217.976 195.579 219.376 195.439C219.236 195.439 221.756 195.019 222.316 194.459C222.456 195.159 222.736 196.279 222.876 196.559C223.436 197.399 224.276 197.679 225.256 197.539C225.956 197.399 226.796 196.559 227.636 195.719C227.776 196.279 227.916 196.839 228.056 197.399C228.336 198.659 229.876 199.219 230.996 198.659C233.516 197.259 235.196 194.459 236.316 191.379V191.519C236.736 192.219 237.156 193.199 237.716 193.899C238.136 194.459 238.836 195.159 239.536 195.299C239.676 195.299 239.956 195.299 239.956 195.019C240.096 194.319 239.676 193.479 239.536 192.779C239.256 191.939 238.556 191.239 238.136 190.399C237.716 189.839 237.156 189.839 236.736 190.119C237.296 188.579 237.716 187.039 238.136 185.779V185.639C238.276 185.779 238.276 185.919 238.416 185.919C238.836 186.339 239.536 186.059 239.676 185.639C240.376 182.979 238.276 180.179 236.596 178.359C234.636 176.399 232.256 174.999 229.456 174.299C231.276 173.599 232.956 172.899 234.636 172.199C236.316 171.499 238.416 171.079 239.256 169.399C240.096 167.999 239.956 165.619 239.676 163.519C239.816 162.119 239.816 160.719 239.816 159.319C244.996 166.179 249.616 174.159 242.616 181.579C242.476 181.859 242.336 181.999 242.336 182.279C241.356 181.999 240.236 183.399 241.216 184.239C242.336 185.219 243.316 186.339 244.156 187.599C244.856 188.719 245.416 189.699 246.536 190.399C246.116 190.399 245.556 190.679 245.556 191.239C245.696 192.639 245.836 194.039 246.116 195.439C246.396 196.839 246.536 198.379 247.236 199.499C247.796 200.339 249.336 200.199 249.336 198.939C249.616 197.679 248.916 196.419 248.496 195.159ZM234.776 180.039C235.896 181.299 236.456 182.839 237.296 184.239C236.736 184.099 236.176 184.099 235.896 184.799C234.916 186.899 233.376 190.959 231.276 193.199C231.136 192.499 230.856 191.799 230.576 191.239C230.296 190.539 229.456 190.119 228.616 190.119C226.936 190.119 226.236 191.379 225.396 192.219C224.976 191.239 224.556 190.539 222.736 190.539C220.916 190.539 217.836 192.499 216.296 191.239C215.456 190.539 217.556 187.739 218.116 187.039C218.956 185.919 219.796 185.219 220.916 184.379C221.756 183.679 221.056 182.699 220.076 182.559C220.356 181.999 220.496 181.159 219.796 180.739C219.796 180.739 219.656 180.739 219.656 180.599C222.876 180.039 226.376 179.199 228.476 177.099C228.756 176.819 228.756 176.539 228.756 176.259C231.136 177.099 233.236 178.359 234.776 180.039Z" fill="#151314"/>
<path d="M240.656 185.92C239.816 185.36 239.116 186.34 239.396 187.04C239.256 187.04 238.976 187.04 238.836 187.18C238.416 187.46 238.136 188.16 238.416 188.72L239.536 190.26C239.676 190.54 239.956 190.82 240.236 191.1C240.516 191.24 240.796 191.24 241.076 191.38C241.496 191.52 241.776 191.24 241.776 190.82C241.776 190.54 241.776 190.26 241.776 189.98C241.776 189.56 241.496 189.42 241.356 189.14C241.496 189.28 241.496 189.28 241.636 189.42C242.196 189.98 242.476 190.82 243.316 190.82C243.456 190.82 243.736 190.68 243.736 190.54C244.156 189.7 243.456 188.72 242.896 188.16C242.196 187.18 241.496 186.48 240.656 185.92Z" fill="#151314"/>
<path d="M201.88 124.461C198.1 125.441 195.44 128.661 194.18 132.161C193.76 133.421 195.72 133.981 196.14 132.721C197.12 130.061 199.22 127.541 202.02 126.701C205.38 125.581 206.78 128.241 209.3 129.501C209.72 129.641 210.28 129.361 210.14 128.941C209.16 125.441 205.24 123.621 201.88 124.461Z" fill="#151314"/>
<path d="M194.179 114.662C193.339 114.662 192.499 115.222 191.939 115.922C191.659 116.342 191.939 116.902 192.219 117.042C192.639 117.322 193.059 117.042 193.339 116.762C193.899 116.062 194.879 116.342 195.579 116.342C195.859 116.342 195.999 116.062 195.859 115.922C195.859 115.082 194.879 114.522 194.179 114.662Z" fill="#151314"/>
<path d="M223.019 125.302C217.699 122.082 212.099 119.282 206.919 116.342C207.059 116.202 207.199 115.922 207.059 115.642C202.439 107.382 197.119 100.662 195.159 91.1418C194.879 90.1618 193.479 90.5818 193.619 91.5618C194.879 99.5418 197.819 109.062 204.119 114.662C195.579 109.342 188.159 103.042 184.939 91.8418C184.519 90.3018 182.139 91.0018 182.559 92.5418C187.739 110.742 205.379 121.242 222.319 127.402C223.439 127.682 224.139 125.862 223.019 125.302Z" fill="#151314"/>
<path d="M225.26 120.681C225.68 121.241 226.66 120.821 226.66 120.121C226.66 119.001 226.1 118.021 225.82 117.041C225.4 115.921 224.98 114.801 224.56 113.821C224.14 112.701 222.18 113.121 222.6 114.381C223.02 115.501 223.44 116.761 223.86 117.881C224.28 118.721 224.56 119.841 225.26 120.681Z" fill="#151314"/>
<path d="M225.54 136.921C226.52 136.781 226.8 135.381 226.66 134.541C226.52 133.701 225.96 132.861 225.12 132.441C224.7 132.301 224.14 132.301 223.86 132.721C223.58 133.141 223.72 133.841 224.14 133.981C224.56 134.121 224.7 134.401 224.84 134.821C224.98 135.381 224.56 135.661 224.56 136.221C224.56 136.641 225.12 136.921 225.54 136.921Z" fill="#151314"/>
<path d="M215.599 168.56C215.319 167.3 213.499 167.86 213.779 169.12C214.199 170.94 213.919 172.62 214.059 174.44C214.059 175.14 215.039 175.56 215.459 174.86C216.299 172.76 216.019 170.52 215.599 168.56Z" fill="#151314"/>
<path d="M190.68 54.4607C188.86 53.9007 185.08 56.8407 183.54 57.8207C181.86 55.0207 177.94 48.8607 176.82 54.1807C176.26 56.9807 177.1 60.9007 177.52 63.7007C177.8 65.5207 177.66 69.1607 179.48 70.1407C181.86 71.5407 183.82 68.3207 184.94 66.7807C187.04 64.1207 189.98 61.4607 191.38 58.3807C192.22 57.4007 192.5 55.1607 190.68 54.4607ZM188.16 59.5007C187.04 60.9007 182.28 68.6007 180.88 68.1807C178.92 67.6207 178.5 59.3607 178.5 57.5407C178.5 56.9807 178.22 54.8807 178.64 54.6007C179.2 54.1807 179.2 54.6007 179.62 55.1607C180.74 56.5607 181.58 58.5207 182.42 60.0607C182.98 61.1807 184.38 60.4807 184.38 59.5007C185.64 58.9407 186.76 58.3807 188.02 57.6807C188.58 57.4007 189.42 56.5607 189.42 57.2607C189.56 58.2407 188.44 59.0807 188.16 59.5007Z" fill="#151314"/>
<path d="M244.3 219.8C244.3 220.5 245.14 220.64 245.56 220.08C248.5 216.16 245.42 209.3 243.74 205.38C243.46 204.54 242.06 204.96 242.48 205.8C243.18 208.04 244.02 210.14 244.44 212.38C244.86 215.04 244.3 217.28 244.3 219.8Z" fill="#151314"/>
<path d="M227.221 242.061C215.321 244.581 204.681 249.341 192.221 247.661C191.521 247.521 191.241 248.501 191.941 248.641C203.841 250.741 216.861 248.361 227.641 242.761C227.921 242.621 227.641 242.061 227.221 242.061Z" fill="#151314"/>
<path d="M251.58 200.341C251.02 199.641 250.18 200.621 250.6 201.321C255.22 206.781 257.32 214.061 255.78 221.061C255.08 224.281 253.4 228.341 250.6 230.581C245 235.201 241.64 233.241 238.84 229.881C239.96 221.061 239.68 211.681 238.56 203.141C238.56 203.141 238.56 203.141 238.7 203.001C238.98 202.861 238.7 202.441 238.56 202.441C238.42 201.181 238.28 199.921 238 198.801C238.42 199.221 238.84 199.501 239.26 199.921C240.24 200.761 241.5 202.161 242.9 202.161C243.32 202.161 243.74 201.881 243.6 201.461C243.46 199.921 242.06 199.081 241.08 198.101C239.82 196.981 238.42 195.861 237.16 194.741C235.9 193.761 234.22 195.441 235.34 196.561C235.62 196.701 235.76 196.981 236.04 197.121C236.32 199.081 236.46 201.041 236.6 203.141C227.78 206.781 219.24 211.401 210.14 214.761C200.48 218.261 190.54 220.781 180.46 222.741C179.76 222.881 179.9 224.141 180.6 224.141C199.5 221.621 220.92 216.161 236.6 204.681C236.88 210.421 236.74 216.161 236.18 221.901C228.34 225.261 221.06 229.181 212.8 231.421C203.42 233.941 193.76 235.061 184.1 234.781C183.12 234.781 183.12 236.181 184.1 236.181C201.04 237.161 221.76 234.221 236.04 223.721C235.9 224.421 235.9 225.121 235.76 225.821C235.62 225.681 235.48 225.401 235.34 225.261C235.06 224.841 234.22 225.121 234.5 225.681C234.78 226.521 235.2 227.221 235.48 227.921C234.5 234.081 233.38 240.101 233.66 246.261C233.66 246.961 234.5 246.961 234.78 246.401C236.6 241.921 237.72 237.021 238.56 231.841C243.04 235.901 249.48 235.901 254.24 229.601C260.68 220.781 258.58 208.181 251.58 200.341Z" fill="#151314"/>
<path d="M242.059 202.441C240.939 202.301 240.379 203.981 241.639 204.261C244.999 204.821 250.319 203.001 250.879 198.941C251.019 197.821 249.619 197.121 249.059 198.101C248.219 199.361 247.799 200.481 246.399 201.321C245.139 202.301 243.599 202.581 242.059 202.441Z" fill="#151314"/>
</svg>
